<?xml version="1.0" encoding="utf-8"?>
<!-- Generator: Adobe Illustrator 17.0.0, SVG Export Plug-In . SVG Version: 6.00 Build 0)  -->
<!DOCTYPE svg PUBLIC "-//W3C//DTD SVG 1.1//EN" "http://www.w3.org/Graphics/SVG/1.1/DTD/svg11.dtd">
<svg version="1.1" id="Capa_1" xmlns="http://www.w3.org/2000/svg" xmlns:xlink="http://www.w3.org/1999/xlink" x="0px" y="0px"
	 width="612px" height="792px" viewBox="0 0 612 792" enable-background="new 0 0 612 792" xml:space="preserve">
<title>Mesa de trabajo 1</title>
<g>
	<circle opacity="0.2" enable-background="new    " cx="310.59" cy="624.735" r="105.57"/>
	<circle fill="#FFFFFF" cx="304.852" cy="621.675" r="104.805"/>
	
		<radialGradient id="SVGID_1_" cx="80.0693" cy="760.3693" r="24.6678" gradientTransform="matrix(3.825 0 0 3.825 -1.4125 -2286.7375)" gradientUnits="userSpaceOnUse">
		<stop  offset="0" style="stop-color:#FFFFFF"/>
		<stop  offset="0.4846" style="stop-color:#F5F5F5"/>
		<stop  offset="1" style="stop-color:#E6E6E6"/>
	</radialGradient>
	<circle fill="url(#SVGID_1_)" cx="304.852" cy="621.675" r="94.477"/>
	<circle fill="#FAFAFA" stroke="#E0E0E0" stroke-width="0.4413" stroke-miterlimit="10" cx="304.852" cy="621.675" r="50.873"/>
	<circle fill="none" stroke="#FFC107" stroke-width="1.738" stroke-miterlimit="10" cx="304.852" cy="621.675" r="94.095"/>
	<path opacity="0.5" fill="#FFFFFF" enable-background="new    " d="M379.057,547.47L231.03,695.497
		c-40.928-40.927-40.928-107.1,0-148.027S338.13,506.542,379.057,547.47z"/>
	<path opacity="0.1" enable-background="new    " d="M261.248,621.675c0-27.158,21.037-48.96,47.813-50.49c-1.148,0-2.295,0-3.443,0
		c-27.923,0-50.873,22.568-50.873,50.872c0,28.305,22.568,50.873,50.873,50.873c1.147,0,2.295,0,3.443,0
		C282.285,670.635,261.248,648.833,261.248,621.675z"/>
	<g id="XMLID_12_">
		<g opacity="0.6">
			<path id="XMLID_27_" d="M416.16,719.595h2.295l0.382-35.19c0-0.383,0-0.765,0.383-0.765c0.383-0.383,1.148-0.383,1.53,0
				l-0.382,35.955h2.295l0.383-35.19l0,0c0.382-0.765,1.53-0.383,1.53,0.383v34.808h2.677l0.382-34.808
				c0-0.765,1.148-1.148,1.53-0.383l0,0v35.19h2.295l-0.383-35.955c0.383-0.383,1.148-0.383,1.53,0
				c0.382,0.383,0.382,0.383,0.382,0.765v35.19h2.295V666.81c0-1.148-0.382-2.295-0.765-3.06l-4.59-9.563
				c-0.383-1.148-0.765-2.295-0.765-3.443l3.825-115.133c0-2.295-0.765-4.207-2.677-5.737l0,0c-2.677-2.295-6.502-2.295-9.18,0l0,0
				c-1.53,1.53-2.677,3.443-2.677,5.737l3.06,115.133c0,1.148-0.382,2.295-0.765,3.443l-4.59,9.18
				c-0.382,1.147-0.765,1.912-0.765,3.06L416.16,719.595z"/>
			<polygon id="XMLID_26_" points="421.515,612.495 422.28,638.888 430.695,633.533 431.46,606.375 			"/>
			<path id="XMLID_25_" d="M420.368,569.273l12.622-8.033l0.765-25.245c0-0.765,0-1.148,0-1.913l-14.152,8.798L420.368,569.273z"/>
			<polygon id="XMLID_24_" points="416.16,675.99 434.138,661.073 432.608,658.013 416.543,671.783 			"/>
			<polygon id="XMLID_23_" points="416.16,698.175 418.837,695.88 418.837,688.612 416.16,690.525 			"/>
			<path id="XMLID_22_" d="M424.575,684.787v6.12l3.06-2.677v-3.825c0-0.765,1.148-1.148,1.53-0.383l0,0v2.295l1.913-1.912v-1.53
				c0.383-0.383,1.148-0.383,1.53,0c0,0,0,0,0,0.383l2.677-2.295v-7.267l-12.24,9.945
				C424.193,684.405,424.575,684.405,424.575,684.787z"/>
			<polygon id="XMLID_21_" points="423.045,692.438 423.045,685.17 420.75,686.7 420.75,694.35 			"/>
		</g>
		<g>
			<g>
				<path id="XMLID_20_" fill="#CCCCCA" d="M413.865,717.3h2.295l0.383-35.19c0-0.383,0-0.765,0.383-0.765
					c0.382-0.383,1.147-0.383,1.53,0l-0.383,35.955h2.295l0.382-35.19l0,0c0.383-0.765,1.53-0.383,1.53,0.383V717.3h2.677
					l0.383-34.807c0-0.765,1.148-1.148,1.53-0.383l0,0v35.19h2.295l-0.383-35.955c0.383-0.383,1.148-0.383,1.53,0
					c0.383,0.383,0.383,0.383,0.383,0.765v35.19h2.295v-52.785c0-1.147-0.382-2.295-0.765-3.06l-4.59-9.563
					c-0.382-1.148-0.765-2.295-0.765-3.442l3.825-115.133c0-2.295-0.765-4.208-2.677-5.737l0,0c-2.677-2.295-6.503-2.295-9.18,0l0,0
					c-1.53,1.53-2.677,3.443-2.677,5.737l3.06,115.133c0,1.147-0.383,2.295-0.765,3.442l-4.59,9.18
					c-0.383,1.148-0.765,1.912-0.765,3.06L413.865,717.3z"/>
				<polygon id="XMLID_19_" fill="#F2F2F2" points="419.22,610.2 419.985,636.592 428.4,631.237 429.165,604.08 				"/>
				<path id="XMLID_18_" fill="#F2F2F2" d="M418.073,566.977l12.623-8.033l0.765-25.245c0-0.765,0-1.148,0-1.912l-14.152,8.797
					L418.073,566.977z"/>
				<polygon id="XMLID_17_" fill="#F2F2F2" points="413.865,673.695 431.842,658.777 430.313,655.717 413.865,669.105 				"/>
				<g id="XMLID_13_">
					<polygon id="XMLID_16_" fill="#F2F2F2" points="413.865,695.88 416.543,693.585 416.543,686.317 413.865,688.23 					"/>
					<path id="XMLID_15_" fill="#F2F2F2" d="M422.28,682.492v6.12l3.06-2.677v-3.825c0-0.765,1.148-1.148,1.53-0.383l0,0v2.295
						l1.913-1.913v-1.53c0.382-0.383,1.148-0.383,1.53,0c0,0,0,0,0,0.383l2.677-2.295V671.4l-12.24,9.945
						C421.898,682.11,422.28,682.11,422.28,682.492z"/>
					<polygon id="XMLID_14_" fill="#F2F2F2" points="420.75,690.142 420.75,682.875 418.455,684.405 418.455,692.055 					"/>
				</g>
			</g>
		</g>
	</g>
	<g id="XMLID_1_">
		<g opacity="0.6">
			<path id="XMLID_11_" d="M175.185,531.405L175.95,717.3c0,2.677,3.443,3.443,4.973,1.148l0,0
				c5.355-9.945,9.18-21.038,10.71-32.513l1.53-10.71c1.147-8.415-0.382-17.212-4.973-24.862l0,0
				c-3.825-6.503-5.738-14.152-5.355-21.802l4.972-80.325c0.382-4.972,0-9.563-1.53-14.152l0,0c-1.148-3.825-4.208-6.12-8.033-6.12
				l0,0C176.715,528.345,175.185,529.875,175.185,531.405z"/>
			<polygon id="XMLID_10_" points="175.568,589.545 175.568,615.938 183.982,610.583 185.895,582.66 			"/>
			<path id="XMLID_9_" d="M178.245,528.345c-1.913,0-3.06,1.53-3.06,3.443v13.77l12.24-7.65c-0.382-1.148-0.382-1.913-0.765-3.06
				C185.512,530.64,182.07,528.345,178.245,528.345z"/>
			<path id="XMLID_8_" d="M182.835,630.472l-7.268,6.12v4.59l7.65-6.12C182.835,633.533,182.835,632.003,182.835,630.472z"/>
			<path id="XMLID_7_" d="M175.95,697.41v7.268l14.535-11.858c0.382-2.295,0.765-4.59,1.147-6.885l0.382-1.912L175.95,697.41z"/>
		</g>
		<g>
			<g>
				<path id="XMLID_6_" fill="#CCCCCA" d="M172.89,529.11l0.765,185.513c0,2.677,3.443,3.443,4.972,1.148l0,0
					c5.355-9.945,9.18-21.038,10.71-32.513l1.53-10.71c1.147-8.415-0.382-17.212-4.973-24.862l0,0
					c-3.825-6.503-5.737-14.152-5.355-21.802l4.972-80.325c0.382-4.972,0-9.563-1.53-14.152l0,0c-1.147-3.825-4.207-6.12-8.033-6.12
					l0,0C174.42,526.05,172.89,527.58,172.89,529.11z"/>
				<polygon id="XMLID_5_" fill="#F2F2F2" points="172.89,586.867 173.273,613.642 181.688,608.287 183.6,580.365 				"/>
				<path id="XMLID_4_" fill="#F2F2F2" d="M175.95,526.05c-1.912,0-3.06,1.53-3.06,3.443v13.77l12.24-7.65
					c-0.382-1.148-0.382-1.912-0.765-3.06C183.218,528.345,179.775,526.05,175.95,526.05z"/>
				<path id="XMLID_3_" fill="#F2F2F2" d="M180.54,628.177l-7.268,6.12v4.59l7.65-6.12
					C180.54,631.237,180.54,629.708,180.54,628.177z"/>
				<path id="XMLID_2_" fill="#F2F2F2" d="M173.273,695.115v7.267l14.535-11.858c0.382-2.295,0.765-4.59,1.147-6.885l0.383-1.912
					L173.273,695.115z"/>
			</g>
		</g>
	</g>
</g>
<g>
	<g>
		<defs>
			<rect id="SVGID_2_" x="21.42" y="62.077" width="569.542" height="400.477"/>
		</defs>
		<clipPath id="SVGID_3_">
			<use xlink:href="#SVGID_2_"  overflow="visible"/>
		</clipPath>
		<g clip-path="url(#SVGID_3_)">
			<path fill="#21211D" d="M170.978,288.9c8.032-12.622,74.587-21.42,140.378-19.508c60.052,1.913,119.722,13.005,135.405,39.015
				c26.393,44.37,47.048,226.823-35.19,231.03c-85.298,4.59-144.203,2.677-229.5-4.208
				C110.16,520.313,139.995,337.095,170.978,288.9z"/>
			<path d="M192.398,288.9c8.032-11.858,59.288-21.42,115.897-19.508c51.638,1.913,106.718,13.005,120.105,39.015
				c22.95,44.37,48.96,229.117-21.802,233.325c-73.44,4.208-151.852-5.737-224.91-12.622
				C119.34,514.575,159.12,337.095,192.398,288.9z"/>
			<path fill="#363632" d="M174.803,285.457c16.447-10.71,76.883-17.978,136.935-16.065c60.052,1.912,119.723,13.387,135.405,39.015
				c25.245,42.075,44.753,208.845-23.715,229.117c55.462-34.042,36.72-184.365,12.623-224.145
				c-15.682-26.01-75.353-37.103-135.405-39.015C250.155,272.452,199.283,277.425,174.803,285.457z"/>
			<path d="M100.597,190.597c3.825-14.917,10.328-33.66,9.18-63.112c-1.912-48.577,21.42-57.375,80.708-53.933
				c47.813,3.06,80.708,0,117.428,0c34.043,0,79.943,3.06,113.985,1.913c40.927-1.53,77.648,8.798,76.5,47.048
				c-0.383,16.83-6.503,47.43,0.383,66.173c31.365,88.74-142.673,134.257-214.2,127.372
				C221.085,316.823,79.178,277.042,100.597,190.597z"/>
			<path fill="#21211D" d="M420.75,75.847h1.148c40.927-1.53,77.648,8.798,76.5,47.048c-0.383,16.83-6.503,47.43,0.383,66.555
				c30.217,85.68-131.198,131.198-206.55,127.755c79.943-3.06,219.173-47.813,190.867-127.755
				c-6.885-18.742-0.765-49.725-0.382-66.555C483.863,89.235,455.557,77.377,420.75,75.847z"/>
			<path fill="#5C5C69" d="M91.418,259.065h12.24c13.388,0,24.098,10.71,24.098,23.715v237.533c0,13.388-10.71,24.097-24.097,24.097
				h-12.24c-13.387,0-24.097-10.71-24.097-24.097v-237.15C67.703,269.775,78.412,259.065,91.418,259.065z"/>
			<path fill="#7C7C8A" d="M93.713,259.065h8.415c9.18,0,16.448,7.268,16.448,16.448v252.45c0,9.18-7.268,16.448-16.448,16.448
				h-8.415c-9.18,0-16.447-7.267-16.447-16.448v-252.45C77.265,266.332,84.533,259.065,93.713,259.065z"/>
			<path fill="#A2A2AB" d="M102.128,542.497h-8.415c-4.59,0-8.798-1.912-11.857-5.355c2.295,1.147,4.59,1.53,7.267,1.53h8.415
				c9.18,0,16.448-7.268,16.448-16.448v-252.45c-0.765-5.355-4.208-9.563-9.563-11.093c8.033,1.53,14.535,8.415,14.535,14.535
				v252.45C118.575,535.23,110.925,542.497,102.128,542.497z"/>
			<path fill="#5C5C69" d="M497.25,259.065h12.24c13.388,0,24.098,10.71,24.098,23.715v237.533c0,13.388-10.71,24.097-24.098,24.097
				h-12.24c-13.387,0-23.715-10.71-23.715-24.097v-237.15C473.152,269.775,483.863,259.065,497.25,259.065z"/>
			<path fill="#7C7C8A" d="M499.163,259.065h8.415c9.18,0,16.448,7.268,16.448,16.448v252.45c0,9.18-7.268,16.448-16.448,16.448
				h-8.415c-9.18,0-16.448-7.267-16.448-16.448v-252.45C482.715,266.332,489.983,259.065,499.163,259.065z"/>
			<path fill="#A2A2AB" d="M507.577,542.497h-8.415c-4.59,0-8.798-1.912-12.24-5.355c2.295,1.147,4.59,1.53,7.267,1.53h8.415
				c9.18,0,16.448-7.268,16.448-16.448v-252.45c-0.765-5.355-4.208-9.563-9.563-11.093c8.033,1.53,14.535,8.415,14.535,14.535
				v252.45C524.025,535.23,516.758,542.497,507.577,542.497z"/>
			<path fill="#21211D" d="M110.543,145.08c-11.475-60.435,12.622-86.063,71.527-81.09c48.195,3.825,89.122,6.502,125.843,6.502
				c34.043,0,83.002-4.972,117.045-6.502c59.288-2.678,82.238,11.475,73.44,76.883c-5.738,41.692-101.363-18.36-203.49-15.3
				C200.43,127.867,113.985,163.057,110.543,145.08z"/>
			<path fill="#363632" d="M307.913,70.11c34.043,0,83.002-4.973,117.045-6.503c59.288-2.678,82.238,11.475,73.44,76.883
				c-1.53,9.945-7.65,14.152-17.977,14.535l0,0c4.59-33.66,0.765-53.55-12.24-64.642C445.23,70.875,364.905,84.262,307.913,70.11z"
				/>
			<path d="M299.88,70.11c-34.043,0-83.003-4.973-117.045-6.503c-59.287-2.678-82.237,11.475-73.44,76.883
				c1.53,9.945,7.65,14.152,17.978,14.535l0,0c-4.59-33.66-0.765-53.55,12.24-64.642C162.563,70.875,242.887,84.262,299.88,70.11z"
				/>
			<path fill="#E8A477" d="M245.948,647.685c-1.912-31.747-18.36-46.283-28.305-72.292c-11.475-29.452-8.032-72.293-19.125-110.925
				l51.638,62.348l11.857,39.397l1.147,49.725L245.948,647.685z"/>
			<path fill="#D69265" d="M241.357,623.587c-7.65-22.185,1.147-53.167,2.678-68.85c-16.065-28.305-32.13-48.577-43.223-87.21
				l-0.765-3.443c14.918,31.365,32.13,61.583,52.02,89.887c-4.207,16.065-7.268,32.513-9.18,49.343
				C241.74,609.817,241.357,616.702,241.357,623.587z"/>
			<path fill="#F1B287" d="M372.555,606.758c-9.563,34.042-42.458,46.283-86.445-7.267s-79.56-113.985-104.805-178.628
				c-11.857-30.983-13.005-69.998,11.857-87.592c13.005-9.18,32.13-6.503,61.582-6.503c35.955,0,35.573,18.742,49.342,51.255
				c18.36,43.605,43.988,108.248,56.993,144.967C371.79,553.208,379.057,583.807,372.555,606.758z"/>
			<path fill="#F4BC97" d="M372.555,606.758c-3.443,11.858-9.563,21.037-17.978,26.01c1.148-2.677,2.295-5.737,3.06-8.797
				c6.502-22.568-0.765-53.55-11.475-84.15c-13.005-36.72-39.015-101.362-56.993-144.967c-13.387-32.13-13.005-51.255-49.342-51.255
				c-29.07,0-47.813-2.295-60.818,6.12c3.06-6.503,8.033-12.24,14.153-16.448c13.005-9.18,32.13-6.503,61.583-6.503
				c35.955,0,35.573,18.743,49.342,51.255c17.978,43.988,43.988,108.248,56.993,144.967
				C371.79,553.208,379.057,583.807,372.555,606.758z"/>
			<path fill="#E8A477" d="M361.08,627.412c-15.3,14.917-42.075,11.475-74.97-28.305c-43.988-53.55-79.56-113.985-104.805-178.627
				c-11.857-30.982-13.005-69.997,11.857-87.592c3.825-2.677,8.032-4.207,12.622-5.355c-21.42,18.743-19.89,55.462-8.415,84.915
				c25.245,64.642,60.818,125.077,104.805,178.628C325.508,619.763,345.78,629.708,361.08,627.412z"/>
			<path fill="#F1B287" d="M399.712,338.242c32.13,32.895,26.775,59.67,16.065,100.215c-9.563,35.955-24.48,68.85-35.19,95.625
				c-12.24,29.835-29.07,60.817-43.223,92.565c-32.13,52.402-55.462,59.287-80.707,42.075c-14.535-9.945-17.213-36.72-13.77-65.79
				c5.355-46.665,18.36-76.883,25.627-113.985c8.033-39.398,8.033-92.948,9.563-133.875L399.712,338.242z"/>
			<path fill="#F4BC97" d="M399.712,338.242c32.13,32.895,26.775,59.67,16.065,100.215c-9.563,35.955-24.48,68.85-35.19,95.625
				c-12.24,29.835-29.07,60.817-43.223,92.565c-22.568,37.102-40.927,51.255-58.905,50.49
				c39.015-36.338,73.44-120.488,84.915-148.793c12.623-30.982,23.332-63.112,31.748-95.625c9.18-35.19,3.825-56.992-19.125-91.418
				L399.712,338.242z"/>
			<path fill="#E8A477" d="M267.75,674.842c-4.207-1.53-8.033-3.443-11.475-6.12c-14.535-9.945-17.212-36.72-13.77-65.79
				c5.355-46.665,18.36-76.882,25.628-113.985c8.032-39.398,8.032-92.948,9.563-133.875l24.098-3.443
				c-1.148,40.545-1.53,92.565-9.563,131.58c-7.268,37.103-20.273,67.32-25.628,113.985
				C263.16,624.735,256.275,662.602,267.75,674.842z"/>
			<path fill="#997356" d="M399.712,338.242c32.13,32.895,26.775,59.67,16.065,100.215c-1.148,4.59-6.503,21.42-8.033,26.01
				c-41.693,15.682-89.888,5.737-131.962,3.06c-28.688-1.913-48.578,8.033-73.822-0.382c-4.208-9.563-16.448-37.103-20.273-46.665
				c-11.857-30.982-13.005-69.997,11.857-87.592c13.005-9.18,32.13-6.503,61.582-6.503c25.627,0,32.895,9.563,39.78,26.393
				L399.712,338.242z"/>
			<path fill="#87654A" d="M201.577,467.145c-4.207-9.563-16.83-37.103-20.272-46.665c-11.857-30.982-13.005-69.997,11.857-87.592
				c3.825-2.677,8.032-4.207,12.622-5.355c-21.42,18.743-19.89,55.463-8.415,84.915c5.355,13.77,19.507,43.987,26.01,58.14
				C215.73,469.44,208.845,469.44,201.577,467.145z"/>
			<path fill="#A67D5D" d="M399.712,338.242c32.13,32.895,26.775,59.67,16.065,100.215c-1.148,4.59-8.415,26.775-9.563,31.365
				c-7.65,3.06-15.682,5.355-24.098,6.885c2.677-8.415,10.71-34.807,13.005-43.605c9.18-35.19,3.825-56.993-19.125-91.418
				L399.712,338.242z"/>
			<path fill="#87654A" d="M271.193,470.205c3.825-34.425,5.738-83.385,6.503-114.75l23.715-3.443
				c-1.147,33.277-3.06,84.533-7.267,119.723l-20.273-1.53H271.193z"/>
		</g>
	</g>
</g>
<g>
	<path fill="#E8A477" d="M443.318,651.128l-1.147-1.148l0.382-5.737l2.295-9.18l0.383-4.208l0.765,4.972c0,0-0.382,6.12-0.382,6.885
		C445.612,643.477,443.318,651.128,443.318,651.128z"/>
	<path fill="#F1B287" d="M442.935,514.575c-3.825,8.797-8.033,21.802-12.623,28.688c-5.737,8.415-5.737,11.092-9.18,18.742
		c-2.677,5.738-3.825,12.623-5.355,18.742l-1.913,9.563c-1.148,6.503-0.765,5.355,0.383,12.24l3.06,15.3l2.295-0.383l-0.383,11.092
		c-0.765,11.858,3.06,14.535,4.973,14.535s3.06-1.148,4.207-7.268c1.148-4.972,1.148-11.475,1.913-16.065
		c1.148-7.65,0.765-14.917,3.443-21.802c1.913-4.59,1.148-2.295,0.765,2.295c-0.382,3.825-0.382,7.65-0.765,11.858
		c-0.382,4.208-0.765,10.71-1.147,14.535c-0.383,4.972-1.148,14.535-1.148,19.125c0,4.59,0.765,8.797,5.355,8.033
		c2.677-0.383,4.207-3.443,4.973-8.033c1.53-7.268,1.53-14.917,2.677-22.568c1.148-7.267,1.53-14.917,1.53-22.567
		c0-1.913,0.765-3.06,0.765-0.765c0.383,8.415,0,17.213-1.53,25.628c-1.148,6.885-2.295,13.005-3.06,20.273
		c-0.765,4.208-1.913,4.208-1.148,4.972c6.502,7.268,9.18-6.885,11.857-12.24c2.677-6.12,8.415-17.212,8.798-22.95l1.148-21.802
		c1.53-6.885,2.295-14.152,2.295-21.42c-0.382-7.268-1.913-13.388-1.53-20.273c0.765-11.093,5.355-20.655,9.563-34.425
		L442.935,514.575z"/>
	<path fill="#E8A477" d="M436.05,595.665c0.382,0,0,2.295-0.383,4.973c-0.383,3.825-0.383,7.65-0.765,11.857
		c-0.383,4.208-0.765,10.71-1.148,14.535c-0.382,4.973-1.147,14.535-1.147,19.125s0.765,7.65,3.443,8.033
		c-3.06-6.12-1.148-20.273,0-32.513C437.198,612.112,439.11,591.84,436.05,595.665L436.05,595.665L436.05,595.665z M447.908,599.107
		c0,0,0.383,0.383,0.383,1.148c0.382,8.415,0,17.213-1.53,25.628c-1.147,6.885-2.295,13.005-3.06,20.273
		c-0.383,1.148-0.765,2.677-1.148,3.825v0.383c0,0.383,0,0.383,0.383,0.765c2.295,2.295,3.825,2.295,5.355,1.147
		c-0.765-0.383-1.148-1.147-1.148-1.912c-0.383-9.18,4.207-21.42,5.737-30.6c-0.382-6.12-1.147-15.683-2.295-19.89
		C449.82,596.813,448.673,596.813,447.908,599.107L447.908,599.107z"/>
	<path fill="#E8A477" d="M442.935,514.575c-3.825,8.797-8.033,21.802-12.623,28.688c-5.737,8.032-6.12,11.857-9.563,19.125
		c-2.677,5.737-3.443,12.24-4.973,18.36l-1.913,9.563c-1.148,6.503-0.765,5.355,0.383,12.24l3.06,15.3l2.295-0.383l-0.383,11.092
		c-0.383,4.208,0,8.415,1.913,12.24c-0.383-8.033-0.383-15.682,0-23.715c0-4.973,0.382-9.945,1.147-14.535
		c1.913-6.885,3.06-13.77,3.825-21.037c0-3.06-0.765-6.12-1.53-8.798c0,14.917-4.59,23.333-5.738,36.338
		c-0.765-5.355-1.147-10.328-1.147-15.683c0-5.737,1.147-11.092,3.06-16.448c5.738-17.212,8.415-21.42,17.595-35.573
		c5.737-9.563,9.563-16.065,13.005-26.775L442.935,514.575z"/>
	<path fill="#E8A477" d="M456.323,632.385l3.443-12.24c0-7.267-0.382-16.065,0-22.568c0-1.912,1.53-2.295,1.53,0.383
		c0.382,7.65,0.382,15.3-0.765,22.95L456.323,632.385z"/>
	<path fill="#EDA580" d="M422.28,642.712l0.383-7.267c0-1.53,1.148-2.677,2.677-3.06l0,0c1.53,0,2.295,1.53,2.295,3.06l0,0
		l-0.382,7.267c0,1.53-1.148,2.677-2.677,3.06l0,0C423.045,645.39,422.28,644.242,422.28,642.712L422.28,642.712z"/>
	<path fill="#F2B292" d="M423.81,644.625l0.382-10.328c0-0.765,0.383-1.148,1.148-1.53l0,0c0.765,0,1.148,0.765,1.148,1.148l0,0
		l-0.383,10.328c0,0.765-0.383,1.147-1.148,1.53l0,0C424.193,645.773,423.81,645.008,423.81,644.625L423.81,644.625z"/>
	<path fill="#F7BFA3" d="M424.957,643.095l0.383-9.18c0-0.383,0-0.383,0.382-0.383l0,0c0.383,0,0.383,0.383,0.383,0.383l0,0
		l-0.383,9.18c0,0.383,0,0.383-0.382,0.383l0,0C425.34,643.477,424.957,643.095,424.957,643.095L424.957,643.095z"/>
	<path fill="#FFFFFF" d="M427.253,642.712c-0.383,1.53-1.148,3.06-2.677,3.06l0,0c-1.148,0-2.295-1.148-2.295-3.06
		c0.383,0.383,1.148,0.765,1.913,0.765h1.148C426.105,643.477,426.488,643.477,427.253,642.712z"/>
	<path fill="#FCE3D6" d="M425.723,639.652l0.383-5.355l0,0l0,0l0,0L425.723,639.652L425.723,639.652L425.723,639.652
		L425.723,639.652z"/>
	<path fill="#EDA580" d="M434.902,652.658l0.382-7.268c0-1.53,1.148-3.06,3.06-3.06l0,0c1.53,0,2.677,1.148,2.677,2.677l0,0
		l-0.383,7.267c0,1.53-1.147,3.06-3.06,3.06l0,0C435.668,655.717,434.52,654.57,434.902,652.658
		C434.52,653.04,434.52,652.658,434.902,652.658z"/>
	<path fill="#F2B292" d="M436.432,654.57l0.383-10.327c0-0.765,0.765-1.148,1.147-1.53l0,0c0.765,0,1.148,0.765,1.148,1.148l0,0
		l-0.383,10.328c0,0.765-0.765,1.148-1.147,1.53l0,0C436.815,655.717,436.432,655.335,436.432,654.57L436.432,654.57z"/>
	<path fill="#F7BFA3" d="M437.962,653.04l0.383-9.18c0-0.383,0.383-0.383,0.383-0.383l0,0c0.382,0,0.382,0.383,0.382,0.383l0,0
		l-0.382,9.18c0,0.383-0.383,0.383-0.383,0.383l0,0C438.345,653.422,437.962,653.422,437.962,653.04L437.962,653.04z"/>
	<path fill="#FFFFFF" d="M440.258,653.04c0,1.53-1.148,2.677-3.06,3.06l0,0c-1.53,0-2.677-1.53-2.677-3.06
		c0.765,0.383,1.53,0.765,2.295,0.765h1.147C438.728,653.805,439.493,653.422,440.258,653.04z"/>
	<path fill="#FCE3D6" d="M438.728,649.597l0.382-5.355l0,0l0,0l0,0L438.728,649.597L438.728,649.597L438.728,649.597
		L438.728,649.597z"/>
	<path fill="#EDA580" d="M443.7,651.128l1.913-6.885c0.382-1.53,1.912-2.677,3.06-2.295l0,0c1.53,0.383,2.295,1.912,1.53,3.442l0,0
		l-1.913,6.885c-0.382,1.53-1.912,2.677-3.06,2.295l0,0C444.082,653.805,443.318,652.275,443.7,651.128L443.7,651.128z"/>
	<path fill="#F2B292" d="M444.848,653.04l2.677-9.945c0-0.765,0.765-1.148,1.53-1.148l0,0c0.765,0.383,1.147,0.765,0.765,1.53l0,0
		l-2.677,9.945c0,0.765-0.765,1.148-1.53,1.148l0,0C444.848,654.188,444.465,653.422,444.848,653.04z"/>
	<path fill="#F7BFA3" d="M446.378,651.892l2.295-8.797c0-0.383,0.383-0.383,0.383-0.383l0,0l0,0c0.382,0,0.382,0.383,0.382,0.383
		l0,0l-2.295,8.797c0,0.383-0.383,0.383-0.765,0.383l0,0V651.892L446.378,651.892z"/>
	<path fill="#FFFFFF" d="M448.673,652.275c-0.383,1.53-1.53,2.295-3.06,2.295l0,0c-1.148-0.383-1.913-1.912-1.53-3.442
		c0.383,0.765,1.148,1.147,1.53,1.147l1.147,0.383C447.143,652.658,447.908,652.658,448.673,652.275z"/>
	<path fill="#FCE3D6" d="M447.908,648.833l1.53-5.355l0,0l0,0l0,0L447.908,648.833L447.908,648.833L447.908,648.833L447.908,648.833
		z"/>
	<path fill="#EDA580" d="M418.073,618.232l-1.147-5.737c-0.383-1.53,0.382-2.677,1.147-2.677l0,0
		c0.765-0.383,1.53,0.765,1.913,1.913l1.148,5.737c0.382,1.53-0.383,2.677-1.148,2.677l0,0
		C419.22,620.527,418.073,619.763,418.073,618.232z"/>
	<path fill="#F2B292" d="M419.22,619.763l-1.53-8.415c0-0.383,0-1.147,0.382-1.147l0,0c0.383,0,0.765,0.383,0.765,0.765l1.53,8.415
		c0,0.765,0,1.148-0.383,1.148l0,0C419.603,620.527,419.22,620.145,419.22,619.763z"/>
	<path fill="#F7BFA3" d="M419.603,618.232l-1.53-7.267c0-0.383,0-0.383,0-0.383l0,0c0,0,0.383,0,0.383,0.383L419.603,618.232
		C419.985,618.232,419.985,618.615,419.603,618.232L419.603,618.232C419.985,618.615,419.985,618.232,419.603,618.232z"/>
	<path fill="#FFFFFF" d="M421.133,617.85c0,1.53-0.383,2.677-1.148,2.677l0,0c-0.765,0-1.53-0.765-1.913-1.912
		c0.383,0.383,0.765,0.383,1.148,0.383h0.765C420.368,618.615,420.75,618.232,421.133,617.85z"/>
	<path fill="#FCE3D6" d="M413.1,615.555l-0.765-4.208l0,0l0,0l0,0L413.1,615.555L413.1,615.555L413.1,615.555L413.1,615.555z"/>
	<path fill="#712539" d="M299.115,231.525c-37.867-1.53-75.735-0.765-113.603,3.06c-46.283,5.738-63.495,30.983-61.965,56.61
		c1.147,17.977,14.152,26.393,29.835,37.868c10.71,8.032,16.83,24.48,22.95,34.425c10.327,17.977,19.89,53.932,66.555,54.698
		c14.918,0,28.688-7.65,54.698-7.65s39.78,4.973,54.698,4.59c47.048-0.765,53.168-30.6,67.32-54.698
		c4.207-6.885,17.212-13.387,28.305-21.42c15.3-11.475,25.245-28.688,26.775-47.813c1.53-25.628-15.682-50.872-61.965-56.61
		C375.233,231.142,336.983,229.995,299.115,231.525z"/>
	<path fill="#712539" d="M489.983,360.81c0,60.052-4.973,120.487-14.918,179.775c-14.535-3.825-31.365-7.268-47.048-1.148
		c7.267-58.523,0-89.888,2.677-148.41c-2.295-18.36-4.207-47.43-8.415-65.408l37.485-69.997
		C481.568,266.332,481.95,327.15,489.983,360.81z"/>
	<path fill="#601F33" d="M436.432,537.143c-2.677,0.765-5.355,1.53-8.033,2.295c7.268-58.523,0-89.888,2.677-148.41
		c-1.147-16.448-0.765-33.277-8.798-35.19c6.503-11.093,11.858-22.95,15.682-35.573l6.12,65.025
		c6.885-11.475,16.83-17.977,26.393-16.065c-9.563,3.06-24.48,18.743-25.628,41.31C442.935,456.435,442.552,487.035,436.432,537.143
		z"/>
	<path fill="#89304C" d="M489.983,360.81c0,60.052-4.973,120.487-14.918,179.775c-2.677-0.765-4.973-1.53-7.65-1.913
		c9.18-56.992,13.77-114.75,13.77-172.507c-7.268-29.07-8.415-78.413-22.568-97.92c-0.765-1.53-1.913-3.06-3.06-4.207l4.207-8.033
		C481.568,266.332,481.95,327.15,489.983,360.81z"/>
	<path fill="#712539" d="M79.178,365.4l37.868,21.42c12.623-15.3,47.812-47.048,57.757-52.785L146.88,249.12
		c-19.89,4.207-43.605,57.375-60.052,91.8C82.62,348.57,79.942,356.985,79.178,365.4z"/>
	<path fill="#89304C" d="M110.16,382.995l6.885,3.825c8.415-9.945,31.747-30.6,45.518-45.135
		c-10.71,4.973-20.655,10.71-30.217,17.595C124.313,366.165,116.662,374.198,110.16,382.995z"/>
	<path fill="#F1B287" d="M230.648,589.162c-3.825-9.18-11.475-21.802-14.918-31.747c-1.53-3.825-3.825-8.415-2.678-9.563
		s10.71,33.277,24.863,29.07c-3.825-8.415-6.503-16.448-9.945-24.48c-0.765-1.148-1.148-2.677-1.913-3.825
		c-6.12-10.327-6.12-12.622-13.005-21.42c-4.59-4.972-9.18-9.18-14.535-13.005c-8.797-7.65-13.005-14.917-20.655-28.305
		l-26.775,13.77c7.65,15.683,10.71,21.42,12.24,27.923c1.148,4.973,0.383,9.945,3.06,21.42c2.295,9.945,6.12,22.95,9.18,35.955
		c1.913,2.677,4.208,5.355,6.503,7.65c2.295,2.295,4.973,4.208,8.033,5.355c2.678,1.147,5.738,1.147,8.798,0.765
		c4.59,3.825,7.268,5.355,9.945,5.355c0.765-1.53,1.147-3.06,1.53-4.59c-1.912-2.295-3.825-4.208-5.738-6.885
		c-2.295-3.443-4.207-7.268-6.12-11.092c-1.912-3.825-3.825-7.268-6.12-11.093c-2.678-4.59-1.53-4.208,0.765-0.765
		c2.295,3.442,4.59,7.267,6.503,11.092c1.912,3.825,3.443,7.65,6.12,11.475c1.53,1.913,4.59,5.738,8.032,9.945
		c4.59,6.12,9.945,12.622,12.24,12.622c1.147,0,2.295-0.383,3.06-1.53c1.147-1.148,0.765-4.208-0.765-7.268
		c-1.53-3.06-3.443-6.12-5.738-10.327s-4.207-6.885-6.12-10.71c-3.06-5.355-5.738-10.71-8.798-16.065
		c-2.295-4.59-1.147-4.972,1.148-0.383c2.678,5.355,4.972,10.71,8.032,16.065c1.913,3.442,3.825,6.885,5.738,10.327
		c1.913,3.443,3.06,5.738,5.355,8.798c1.53,2.295,2.678,3.825,5.355,3.442c2.678-0.383,3.443-3.442,2.295-7.267
		C233.708,596.047,232.56,592.605,230.648,589.162z M191.632,591.075c-2.295-2.295-4.207-4.208-6.503-6.503
		c-2.295-5.355-3.443-10.71-3.825-16.448c2.678,5.355,5.355,12.622,8.033,18.36c1.147,2.295,1.912,2.295,3.06,4.208L191.632,591.075
		z"/>
	<path fill="#E8A477" d="M212.67,547.852c1.913-1.53,1.913-1.53,7.268,10.328c3.443,7.65,8.415,17.212,17.213,18.742
		c-4.208,1.148-8.798-0.383-11.093-3.825C220.702,567.36,214.2,548.235,212.67,547.852L212.67,547.852z M154.913,497.362
		l-4.208,2.295c7.65,15.682,10.71,21.42,12.24,27.923c1.148,4.972,0.382,9.945,3.06,21.42c2.295,9.945,6.12,22.95,9.18,35.955
		c1.913,2.677,4.207,5.355,6.503,7.65c2.295,2.295,4.973,4.208,8.033,5.355c2.677,1.148,5.737,1.148,8.797,0.765
		c4.973,4.208,7.65,5.737,10.71,4.973c1.147,0,2.295-3.06,0.765-4.59c-1.53-1.53-3.825-4.208-5.738-6.885
		c-2.295-3.442-4.207-7.267-6.12-11.092c-1.912-3.825-3.825-7.267-6.12-11.092c-2.677-4.59-1.53-4.208,0.765-0.765
		c2.295,3.442,4.59,7.267,6.503,11.092c1.912,3.825,3.443,7.65,6.12,11.475c1.53,1.913,4.59,5.737,8.032,9.945
		c4.973,6.12,9.945,12.623,12.24,12.623c1.147,0,2.295-0.383,3.06-1.53c1.147-1.148,0.765-4.208-0.765-7.268
		c-0.765-1.912-1.913-3.442-3.06-5.355l2.678,4.973c1.53,3.06,1.53,5.355,0.382,6.503c-1.148,1.147-3.443,0-6.12-2.677
		c-2.295-2.295-5.355-6.503-8.415-10.328c-1.913-2.295-3.825-4.973-5.738-7.65c-2.295-3.443-4.207-7.268-5.738-10.71
		c-2.295-4.59-5.355-9.18-8.415-13.388c-1.53-1.913-4.973-6.503-3.06,0c0.765,1.912,1.53,3.825,2.295,5.355
		c4.207,10.327,9.563,19.89,16.065,28.688c-2.678,0.765-6.885-2.677-11.475-7.268c-2.678-2.677-4.973-5.355-6.885-8.032
		c-4.59-11.858-8.415-20.273-10.327-21.42c-1.913-1.148,0.765,8.797,3.443,20.655c2.295,5.355,9.18,9.563,9.18,10.328
		c0,2.295-6.12-1.53-7.65-2.677c-3.06-2.295-5.355-5.355-7.65-8.415c-2.678-4.59-6.12-28.305-8.798-44.37
		C164.475,517.635,163.327,510.367,154.913,497.362L154.913,497.362z M205.785,565.065c0.382,0,1.147,0.765,2.295,3.06
		c2.678,5.355,4.973,10.71,8.033,16.065c1.913,3.442,3.825,6.885,5.738,10.327c1.912,3.443,3.06,5.737,5.355,8.798
		c1.53,2.295,2.678,3.825,5.355,3.442s3.443-3.442,2.295-7.267c-0.382,4.208-1.913,4.972-3.825,3.06
		c-3.443-2.677-11.093-17.595-14.153-22.568c-3.06-6.12-6.885-12.24-10.71-17.595C205.02,561.622,204.255,561.622,205.785,565.065
		L205.785,565.065z M191.632,591.075c-2.295-2.295-4.207-4.208-6.503-6.503c-2.295-5.355-3.443-10.71-3.825-16.448
		c2.678,5.355,5.355,12.622,8.033,18.36c1.147,2.295,1.912,2.295,3.06,4.208L191.632,591.075z"/>
	<path fill="#EDA580" d="M237.15,576.158l-2.678-6.12c-0.382-1.148-1.913-1.912-3.06-1.53l0,0c-1.148,0.765-1.53,2.295-0.765,3.443
		l2.677,6.12c0.383,1.148,1.913,1.912,3.06,1.53l0,0C237.533,578.835,237.915,577.305,237.15,576.158z"/>
	<path fill="#F2B292" d="M236.768,578.07l-4.207-8.797c-0.382-0.383-0.765-0.765-1.53-0.765l0,0
		c-0.382,0.383-0.765,1.148-0.382,1.53l4.207,8.798c0.382,0.765,0.765,0.765,1.53,0.765l0,0
		C236.768,579.6,236.768,578.835,236.768,578.07z"/>
	<path fill="#F7BFA3" d="M234.855,577.688l-3.443-7.65c0-0.383-0.382-0.383-0.382-0.383l0,0l0,0c0,0,0,0.383,0,0.765l3.443,7.65
		c0,0.383,0.382,0.383,0.382,0.383l0,0C235.238,578.07,235.238,577.688,234.855,577.688L234.855,577.688z"/>
	<path fill="#FFFFFF" d="M233.325,578.07c0.765,1.148,2.295,1.912,3.06,1.53l0,0c1.148-0.765,1.53-2.295,0.765-3.442
		c-0.383,0.765-0.765,1.148-1.148,1.53l-0.765,0.383C234.473,578.452,234.09,578.452,233.325,578.07z"/>
	<path fill="#FCE3D6" d="M233.325,574.628l-1.912-4.59l0,0l0,0l0,0L233.325,574.628L233.325,574.628L233.325,574.628
		L233.325,574.628z"/>
	<path fill="#EDA580" d="M231.413,607.14l-2.295-5.737c-0.765-1.148-0.382-2.677,0.765-3.442l0,0c1.148-0.383,2.678,0.383,3.06,1.53
		l0,0l2.678,5.737c0.765,1.148,0.382,2.677-0.765,3.443l0,0C232.943,609.052,231.795,608.67,231.413,607.14
		C231.413,607.523,231.413,607.523,231.413,607.14z"/>
	<path fill="#F2B292" d="M233.325,608.287l-3.825-8.415c-0.382-0.383,0-1.148,0.382-1.53l0,0c0.382,0,1.148,0,1.148,0.765l0,0
		l3.825,8.415c0.382,0.383,0,1.147-0.382,1.53l0,0C233.708,609.052,233.325,608.67,233.325,608.287L233.325,608.287z"/>
	<path fill="#F7BFA3" d="M233.708,606.375l-3.06-7.268v-0.383l0,0c0.382,0,0.382,0,0.382,0.383l0,0l3.06,7.268v0.383l0,0
		C233.708,606.758,233.708,606.758,233.708,606.375L233.708,606.375z"/>
	<path fill="#FFFFFF" d="M235.238,605.61c0.382,1.148,0,2.677-0.765,3.443l0,0c-0.765,0.383-2.295,0-3.06-1.53
		c0.382,0.383,1.147,0.383,1.912,0l0.765-0.383C234.473,606.758,234.855,605.992,235.238,605.61z"/>
	<path fill="#FCE3D6" d="M232.56,603.698l-1.912-4.208l0,0l0,0l0,0L232.56,603.698L232.56,603.698L232.56,603.698L232.56,603.698z"
		/>
	<path fill="#EDA580" d="M224.91,614.79l-3.06-5.355c-0.765-1.148-0.382-3.06,0.765-3.825l0,0l0,0
		c1.147-0.765,2.678-0.383,3.443,0.765l0,0l3.06,5.355c0.765,1.148,0.382,3.06-0.765,3.825l0,0
		C227.588,616.32,226.057,616.32,224.91,614.79C225.293,615.172,225.293,614.79,224.91,614.79z"/>
	<path fill="#F2B292" d="M227.205,615.172l-4.59-8.033c-0.382-0.383,0-1.147,0.382-1.53l0,0c0.382-0.383,1.148,0,1.53,0.383l0,0
		l4.59,8.032c0.382,0.383,0,1.148-0.382,1.53l0,0C228.353,615.938,227.588,615.938,227.205,615.172L227.205,615.172z"/>
	<path fill="#F7BFA3" d="M227.588,613.26l-4.208-6.885c0,0,0-0.383,0-0.765l0,0c0,0,0.382,0,0.765,0l0,0l4.208,6.885
		c0,0,0,0.383,0,0.765l0,0l0,0C227.97,613.642,227.97,613.642,227.588,613.26L227.588,613.26z"/>
	<path fill="#FFFFFF" d="M229.5,612.112c0.765,1.148,0.382,2.677-0.765,3.443l0,0c-1.147,0.765-2.678,0.383-3.443-0.765
		c0.765,0,1.53,0,1.912-0.383l0.765-0.383C228.735,613.642,229.118,612.878,229.5,612.112z"/>
	<path fill="#FCE3D6" d="M226.44,610.583l-2.295-4.208l0,0l0,0l0,0L226.44,610.583L226.44,610.583L226.44,610.583L226.44,610.583z"
		/>
	<path fill="#EDA580" d="M207.697,604.08l-3.06-3.06c-0.765-0.765-0.382-1.912,0.383-2.295l0,0l0,0c0.765-0.765,1.912-0.765,2.677,0
		l3.06,3.06c0.765,0.765,0.382,1.913-0.382,2.295l0,0l0,0C209.61,604.845,208.463,604.845,207.697,604.08z"/>
	<path fill="#F2B292" d="M209.61,604.08l-4.207-4.59c-0.383-0.383-0.383-0.765,0-1.148l0,0l0,0c0.382-0.383,0.765-0.383,1.147,0
		l4.207,4.59c0.382,0.383,0.382,0.765,0,1.148l0,0l0,0C210.375,604.08,209.993,604.08,209.61,604.08z"/>
	<path fill="#F7BFA3" d="M209.61,602.55l-3.825-3.825v-0.383l0,0l0,0h0.382l3.825,3.825v0.383l0,0l0,0
		C209.993,602.932,209.61,602.932,209.61,602.55z"/>
	<path fill="#FFFFFF" d="M210.757,601.402c0.382,0.765,0.382,1.913-0.382,2.677l0,0c-0.765,0.765-1.912,0.765-2.678,0
		c0.382,0,1.148-0.383,1.53-0.765l0.765-0.383C210.375,602.55,210.757,602.167,210.757,601.402z"/>
	<path fill="#FCE3D6" d="M208.463,601.02l-1.913-2.295l0,0l0,0L208.463,601.02L208.463,601.02L208.463,601.02z"/>
	<path fill="#EDA580" d="M196.988,599.49l-4.207-1.148c-1.148-0.383-1.53-1.148-1.53-1.912l0,0c0-0.765,1.148-1.148,1.913-0.765
		l4.207,1.148c1.147,0.383,1.53,1.148,1.53,1.912l0,0C198.9,599.49,198.135,599.49,196.988,599.49z"/>
	<path fill="#F2B292" d="M198.518,598.725l-6.12-1.912c-0.382,0-0.765-0.383-0.765-0.765l0,0c0-0.383,0.382-0.383,0.765-0.383
		l6.12,1.912c0.383,0,0.765,0.383,0.765,0.765l0,0C199.283,598.725,198.9,599.107,198.518,598.725z"/>
	<path fill="#F7BFA3" d="M197.753,597.96l-5.355-1.53c0,0-0.383,0-0.383-0.383l0,0c0,0,0,0,0.383,0L197.753,597.96
		C197.753,597.577,198.135,597.577,197.753,597.96L197.753,597.96C198.135,597.96,197.753,597.96,197.753,597.96z"/>
	<path fill="#FFFFFF" d="M197.753,597.195c0.765,0.383,1.53,1.148,1.148,1.53l0,0c0,0.383-1.148,0.765-1.913,0.765
		c0.382,0,0.765-0.383,0.765-0.765v-0.383C198.135,597.577,198.135,597.195,197.753,597.195z"/>
	<path fill="#FCE3D6" d="M195.84,597.195l-3.06-1.148l0,0l0,0L195.84,597.195L195.84,597.195L195.84,597.195z"/>
	<path fill="#712539" d="M78.412,366.165c21.803,56.227,48.195,110.543,78.795,162.563c12.24-9.18,26.393-18.36,43.605-17.977
		c-27.923-52.02-50.107-110.925-73.44-164.475C105.57,325.237,79.56,336.712,78.412,366.165z"/>
	<path fill="#89304C" d="M190.868,511.897c3.06-0.765,6.503-0.765,9.945-0.765c-25.628-48.195-47.048-102.127-68.467-152.235
		c-2.295,2.295-32.13,5.738-34.425,8.033c19.125-0.765,29.452,3.06,30.6,5.355C147.262,416.272,170.213,469.823,190.868,511.897z"/>
	<path fill="#601F33" d="M299.115,231.525c-37.867-1.53-75.735-0.765-113.603,3.06c-44.752,5.738-62.347,29.452-61.965,54.315
		c6.12-10.328,13.387-19.89,21.803-28.305c9.563-10.71,26.01-20.272,51.637-22.185L299.115,231.525L299.115,231.525z
		 M147.645,325.62c9.563,7.268,22.95,29.07,28.305,38.25c10.328,17.978,19.89,53.932,66.555,54.698
		c5.355,0,10.71-0.765,15.682-1.913c-3.443,0.382-7.268,0.765-10.71,0.765c-47.048-0.765-49.725-34.043-60.435-52.02
		C184.365,358.897,162.563,326.767,147.645,325.62z"/>
	<path fill="#601F33" d="M79.178,365.4l8.797,4.973l-1.147-3.06c0-5.355,1.53-10.71,3.825-15.682
		c1.147-3.443,2.678-6.885,4.208-9.563c13.387-27.923,32.895-65.408,50.49-81.473c1.147-1.53,2.295-2.678,3.825-3.825l-2.678-7.65
		c-19.89,4.207-43.605,57.375-60.053,91.8C82.238,348.57,79.942,356.985,79.178,365.4z"/>
	<path fill="#601F33" d="M78.412,366.165c21.803,56.227,48.195,110.543,78.795,162.563c2.678-1.912,4.973-3.825,7.65-5.355
		c-28.305-48.578-59.288-105.953-78.03-156.06c0-5.355,1.53-10.71,3.825-15.682c1.147-3.443,2.678-6.885,4.208-9.563l2.677-5.355
		C87.21,339.39,79.178,350.1,78.412,366.165z"/>
	<path fill="#89304C" d="M299.115,231.525l104.805,8.798c28.305,3.443,45.9,14.153,54.698,27.922
		c6.502,8.798,9.945,23.333,13.005,39.398c1.912-5.355,3.06-10.71,3.443-16.065c1.53-25.628-15.682-50.872-61.965-56.61
		C375.233,230.76,336.983,229.995,299.115,231.525L299.115,231.525z M361.462,414.36c35.955-1.912,47.43-34.425,56.993-51.255
		l21.802-43.987c-16.83,16.83-28.688,50.107-43.223,68.85C387.855,400.207,375.615,409.387,361.462,414.36z"/>
	<path fill="#F1B287" d="M287.258,413.212c-4.973-6.12-9.945-11.858-15.3-17.595l45.135,1.53c-4.207,4.973-8.032,9.945-11.857,15.3
		c-3.06,3.825-6.503,7.65-9.563,8.032C292.613,420.862,289.935,416.272,287.258,413.212z"/>
	<path fill="#F4BC97" d="M298.732,419.332c3.06-3.06,3.06-9.563,1.53-17.978l2.295,1.53c0.383,5.355,3.443,8.032,0.765,11.475
		C301.793,416.272,300.263,417.802,298.732,419.332z"/>
	<path fill="#F1B287" d="M224.145,355.837c-25.628-46.665-14.918-90.27,0.382-128.138c25.245-61.583,103.658-68.085,135.788-18.743
		C382.5,243,398.947,298.08,372.938,348.952c-10.71,20.655-19.89,38.25-35.19,47.43c-11.093,6.885-29.835,7.268-41.693,7.65
		c-11.858,0.383-27.54,0-42.075-9.563C242.887,386.438,233.708,372.667,224.145,355.837z"/>
	<path fill="#E8A477" d="M224.145,355.837c-25.628-46.665-16.065-92.565-0.765-130.433c12.24-30.217,45.518-44.37,74.205-47.43
		c-23.332,6.12-50.107,19.508-60.435,45.135c-15.3,37.867-24.863,83.767,0.765,130.432c9.18,16.83,18.36,30.6,29.835,38.25
		c7.268,4.59,15.3,7.65,23.715,8.798l-9.563,3.06c-9.945-0.765-19.508-3.825-27.923-9.18
		C242.887,386.438,233.708,372.667,224.145,355.837z"/>
	<path fill="#F4BC97" d="M317.857,176.827c19.125,4.207,36.338,15.3,47.43,31.747c22.185,34.043,34.043,89.122,8.415,139.995
		c-10.71,20.655-19.89,38.25-35.19,47.43c-8.415,4.973-20.273,6.502-30.983,7.267l-7.267-4.207c9.18-0.383,18.36-2.677,26.775-6.885
		c15.3-9.18,24.48-26.775,35.19-47.43c25.628-50.872,14.152-105.952-8.415-139.995C345.015,192.127,332.393,182.182,317.857,176.827
		z"/>
	<path fill="#E8A477" d="M339.66,395.235L338.513,396c-9.563,5.737-24.48,6.885-36.337,7.267c-1.913-0.765-3.825-1.147-6.12-1.53
		c-2.295,0.383-4.208,0.765-6.503,1.53c-9.945,0-19.89-1.913-29.07-6.12c18.36,4.973,27.923,1.148,35.19,1.148
		C306.383,398.295,311.355,403.65,339.66,395.235z"/>
	<path fill="#E8A477" d="M282.285,407.092c-1.912-2.295-3.825-4.59-6.12-6.885h13.77h0.765h14.152h0.383h9.18
		c-1.53,1.913-3.06,4.207-4.973,6.502h-0.382l0,0l0,0h-0.383h-0.383l0,0h-0.382l0,0l0,0l-0.383-0.382l0,0h-0.382l0,0l0,0l0,0l0,0
		h-0.383l0,0h-0.382l0,0l0,0l0,0H306l0,0h-0.382h-0.383l0,0h-0.383l0,0l0,0l0,0l0,0h-0.382l0,0h-0.383l0,0l0,0l0,0l0,0H306l0,0l0,0
		h-0.382l0,0l0,0h-0.383l0,0l0,0h-3.06h-0.383l0,0h-0.383h-0.382h-0.383l0,0h-0.382h-0.383h-0.382h-0.765h-0.382h-7.268H290.7l0,0
		h-0.383l0,0h-0.383l0,0h-0.382h1.147h-0.383l0,0h-0.382l0,0h-0.383l0,0l0,0h-0.383l0,0l0,0h-0.382h-0.383l0,0h-0.382l0,0l0,0
		h-0.383h-0.382l0,0h-0.383l0,0h-0.383l0,0h-0.382l0,0l0,0l0,0l0,0h-0.383l0,0h-0.382l0,0h1.53l0,0l0,0l0,0l0,0l0,0l0,0h-0.382l0,0
		h-0.383l0,0h-0.383l0,0h-0.382l0,0l0,0h-0.383l0,0h-0.382l0,0h-0.383l0,0L282.285,407.092z"/>
	<path fill="#F1B287" d="M385.943,310.702c6.503-5.738,6.503-12.24,8.798-18.36c1.913-5.355,6.12-12.24,6.503-19.125
		c0.765-11.857-12.24-18.742-15.682-3.825C380.587,289.282,378.675,293.107,385.943,310.702z"/>
	<path fill="#F1B287" d="M208.463,310.702c-6.503-5.738-6.503-12.24-8.798-18.36c-1.913-5.355-6.12-12.24-6.503-19.125
		c-0.765-11.857,12.24-18.742,15.682-3.825C213.435,289.282,215.348,293.107,208.463,310.702z"/>
	<path fill="#9E8047" d="M271.575,397.912c-12.24-3.825-23.715-9.945-33.66-17.977c7.267,10.71,18.36,18.742,30.983,22.185
		C275.783,403.267,278.46,399.825,271.575,397.912z"/>
	<path fill="#9E8047" d="M321.3,397.912c12.24-3.825,23.715-9.945,33.66-17.977c-7.268,10.71-18.36,18.742-30.983,22.185
		C317.475,403.267,314.415,399.825,321.3,397.912z"/>
	<path fill="#E8A477" d="M293.378,419.332c-3.06-3.06-3.06-9.563-1.53-17.978l-2.295,1.53c-0.383,5.355-3.443,8.032-0.765,11.475
		C290.318,416.272,291.848,418.185,293.378,419.332z"/>
	<g>
		<path fill="#9E8047" d="M288.471,385.29c-11.092,0-22.185-3.06-37.868-9.945c26.01,18.742,62.347,22.95,81.09-8.798
			c14.918,4.208,23.332,0.383,32.513-10.71c-4.59,4.207-10.71,6.885-16.83,8.032c13.77-7.65,25.245-18.742,33.277-32.13
			c13.77-41.31,8.033-86.445-15.3-123.165c-32.13-49.342-121.253-45.9-146.115,15.683c-14.917,35.572-19.507,79.178,1.148,123.165
			C240.276,367.313,256.723,378.022,288.471,385.29z"/>
		<path fill="#A8874A" d="M242.953,313.762l10.71,27.158c-43.223-44.37-36.337-95.625-13.387-145.35
			c-32.895,40.545-45.135,140.378,15.3,174.038c15.3,8.798,32.895,13.388,50.49,12.622c-9.18,3.06-19.125,4.59-28.688,4.208
			c31.747,6.12,47.43-9.18,55.08-27.158C306.448,373.05,259.783,345.127,242.953,313.762z"/>
		<path fill="#A8874A" d="M230.331,260.212c4.208,19.125,9.18,34.043,24.098,49.725c-21.037-34.043-27.157-56.993-18.743-90.27
			c8.797-35.19,27.923-36.338,66.173-43.223c1.53,14.535,14.917,49.725,19.507,68.085c-0.382-22.185-8.415-40.927-13.77-59.287
			c12.24,18.36,24.862,69.232,22.568,97.92c-0.383,4.973-3.443,4.973-3.06,12.24c0.382,4.973,3.825,9.562,4.59,18.36
			c0.383,4.973-2.677,8.033-2.677,16.83c0.383,5.737,1.147,11.475,2.677,16.83c-0.382,4.973-2.677,7.65-3.825,11.475
			C272.788,357.367,233.008,317.587,230.331,260.212z"/>
		<path fill="#B89657" d="M209.676,306.877c14.153,55.845,70.38,91.8,115.898,61.965
			C272.788,382.612,237.981,363.87,209.676,306.877z"/>
		<path fill="#B89657" d="M273.171,386.82c14.152,4.59,45.9,6.885,57.757-23.332C317.541,389.497,288.088,389.88,273.171,386.82z"/>
		<path fill="#B89657" d="M325.956,365.017c-2.295-0.382-4.207-0.382-6.503-0.382c-53.932-4.59-88.74-26.01-100.597-83.003
			c8.415,68.085,47.43,95.242,101.362,87.21C327.486,367.695,327.868,365.782,325.956,365.017z"/>
		<path fill="#B89657" d="M230.713,203.985c-24.863,55.845-30.6,79.177,2.295,136.552
			C209.293,285.075,211.206,259.447,230.713,203.985z"/>
		<path fill="#B89657" d="M233.008,280.102c16.065,53.168,55.462,83.385,94.095,77.648
			C271.641,344.745,244.101,298.845,233.008,280.102z"/>
		<path fill="#C7A463" d="M243.336,304.965c12.24,23.715,38.25,45.9,64.26,51.255C281.968,345.51,259.401,327.532,243.336,304.965z"
			/>
		<path fill="#8C6E36" d="M233.008,215.46c-17.595,51.255-8.415,92.565,14.535,116.28
			C227.271,296.55,221.916,254.475,233.008,215.46z"/>
		<path fill="#D1AE6D" d="M237.981,353.542c17.595,22.568,56.61,30.6,84.533,16.83C286.941,381.465,257.871,371.52,237.981,353.542z
			"/>
		<path fill="#B89657" d="M257.488,192.127c-28.305,86.828,52.02,159.885,71.145,158.737
			C310.656,331.74,243.336,282.397,257.488,192.127z"/>
		<path fill="#B89657" d="M263.226,180.652c-59.288,55.08-11.092,135.787,28.305,154.148
			C259.783,302.287,218.473,241.47,263.226,180.652z"/>
		<path fill="#C7A463" d="M263.608,279.72c6.12,30.6,38.633,66.555,64.26,74.205C294.973,336.33,273.171,302.67,263.608,279.72z"/>
		<path fill="#8C6E36" d="M234.538,271.305c14.152,41.31,48.96,72.675,86.445,82.237
			C267.051,334.417,243.336,290.812,234.538,271.305z"/>
		<path fill="#8C6E36" d="M224.976,317.587c15.682,48.96,51.255,58.905,85.68,53.55C293.826,369.99,247.543,373.05,224.976,317.587z
			"/>
		<path fill="#D1AE6D" d="M233.391,328.68c14.535,31.365,49.725,43.223,92.947,37.485
			C276.231,367.313,249.838,355.455,233.391,328.68z"/>
		<path fill="#8C6E36" d="M253.663,187.92c-17.595,51.255-8.415,92.565,14.535,116.28
			C247.926,269.01,242.571,226.935,253.663,187.92z"/>
		<path fill="#B89657" d="M266.286,183.33c-27.54,64.643,43.605,135.405,62.73,164.475
			C324.426,302.287,254.046,251.797,266.286,183.33z"/>
		<path fill="#C7A463" d="M266.286,183.712c-19.507,58.905,34.807,114.368,52.402,143.438
			C309.126,287.37,250.986,254.475,266.286,183.712z"/>
		<path fill="#8C6E36" d="M260.548,220.815c-3.443,48.195,36.72,99.45,59.288,117.81
			C282.351,290.047,261.696,260.212,260.548,220.815z"/>
		<path fill="#B89657" d="M317.541,252.18c-4.59-19.507-22.185-59.288-17.595-72.675c-27.54,22.568-0.383,56.228,8.798,94.477
			c-17.212-34.807-40.163-70.38-14.152-94.477c-54.697,19.125-9.18,73.057,30.217,138.083
			C326.338,285.075,322.131,274.365,317.541,252.18z"/>
		<path fill="#C7A463" d="M293.061,180.27c-50.49,23.715,13.77,101.745,29.835,131.963
			C310.273,274.747,250.986,208.957,293.061,180.27z"/>
		<path fill="#C7A463" d="M298.416,182.182c-12.623,28.305,6.885,52.785,15.3,104.422
			C303.388,240.322,276.613,204.75,298.416,182.182z"/>
		<path fill="#8C6E36" d="M295.356,181.417c-20.655,16.065-13.77,46.282,9.18,76.882
			C278.526,215.46,285.411,194.422,295.356,181.417z"/>
		<path fill="#B89657" d="M318.688,284.692c4.973-34.043,4.59-35.955,1.148-69.615c4.973,34.425,5.355,43.605,3.825,78.03
			L318.688,284.692z"/>
		<path fill="#8C6E36" d="M353.878,239.94c-3.06-25.245-13.77-53.932-48.577-61.2c17.212,29.452,32.895,88.74,32.895,121.253
			l-4.972-19.89c-2.678,23.332,8.797,42.457-4.973,74.587c30.217-17.977,63.112-48.195,54.315-82.237l-3.825,23.715
			c2.295-55.08-6.503-85.298-38.25-105.57C352.348,214.695,355.026,225.405,353.878,239.94z"/>
		<path fill="#8C6E36" d="M356.938,354.307c7.268-3.06,13.388-7.65,18.743-13.77c-7.65,16.065-30.6,33.277-49.343,17.595
			c11.475-7.65,55.845-35.19,57.375-71.91C389.068,319.882,377.593,339.39,356.938,354.307z"/>
		<path fill="#82652F" d="M345.463,301.905c9.18-44.37,6.885-85.298-20.655-115.515
			C342.403,220.432,342.403,259.065,345.463,301.905z"/>
		<path fill="#82652F" d="M328.251,354.69c18.743-13.005,62.348-64.26,40.163-131.962
			C376.446,285.457,343.168,337.86,328.251,354.69z"/>
		<path fill="#82652F" d="M329.398,359.662c11.858,11.858,24.48,6.885,40.163-10.327
			C358.851,356.602,340.873,366.165,329.398,359.662z"/>
		<path fill="#735929" d="M337.431,344.745c27.157-14.535,37.867-47.813,38.25-80.707
			C370.708,294.637,364.588,321.412,337.431,344.745z"/>
		<path fill="#82652F" d="M333.223,346.275c17.212-27.54,48.195-80.325,17.595-144.585
			C366.883,262.89,338.578,320.265,333.223,346.275z"/>
		<path fill="#735929" d="M335.901,339.772c21.038-30.6,30.217-67.32,26.01-104.04C361.911,272.07,352.731,308.025,335.901,339.772z
			"/>
		<path fill="#9E8047" d="M361.911,259.065c3.825,32.13-2.295,65.025-31.365,92.182
			C354.261,318.735,359.233,293.107,361.911,259.065z"/>
		<path fill="#9E8047" d="M381.801,308.407c-8.798,30.983-34.043,52.403-55.845,51.255
			C348.523,344.362,356.556,348.188,381.801,308.407z"/>
		<path fill="#82652F" d="M379.123,316.44c-7.267,27.158-29.452,45.9-48.577,44.753C350.436,348.188,357.321,351.247,379.123,316.44
			z"/>
		<path fill="#82652F" d="M337.431,288.135c4.59-44.753-1.913-85.298-32.513-112.455
			C325.956,207.427,330.163,245.677,337.431,288.135z"/>
		<path fill="#735929" d="M336.666,330.975c13.005-34.425,15.682-114.75-27.54-151.087
			C343.168,217.372,346.228,290.812,336.666,330.975z"/>
		<g display="none">
			<path display="inline" fill="#9E8047" d="M314.863,178.74c19.507-6.503,27.157-33.66,21.802-48.578
				c-14.152-39.015-58.905-40.545-72.293,1.913c-6.12,19.125,4.59,33.277,14.918,46.283L314.863,178.74z"/>
			<path display="inline" fill="#A8874A" d="M325.191,113.332c-49.725-30.982-74.97,31.365-43.223,64.26l18.36,0.765
				C289.618,154.26,285.411,112.567,325.191,113.332z"/>
			<path display="inline" fill="#B89657" d="M316.776,107.977c-56.992-8.798-52.785,56.228-31.365,69.232
				C276.613,159.232,262.461,111.802,316.776,107.977z"/>
			<path display="inline" fill="#B89657" d="M323.661,112.185c-47.43-11.475-47.813,60.818-28.305,65.79
				C286.558,159.997,283.498,111.802,323.661,112.185z"/>
			<path display="inline" fill="#C7A463" d="M315.628,109.89c-42.84-1.148-41.31,49.725-26.01,68.085
				C280.438,159.997,275.083,109.507,315.628,109.89z"/>
			<path display="inline" fill="#8C6E36" d="M335.518,142.785c0.382-12.24-5.738-28.305-22.185-27.54
				c5.738,18.36-6.885,44.752-12.622,62.347C319.071,180.652,334.753,161.145,335.518,142.785z"/>
			<path display="inline" fill="#82652F" d="M314.481,112.185c19.89,8.415,19.508,24.098,15.3,39.398l7.267-10.71
				c-7.65,27.54-18.742,34.043-34.807,35.955C324.808,162.675,329.016,128.25,314.481,112.185z"/>
			<path display="inline" fill="#B89657" d="M311.038,116.01c-18.742,27.158-14.535,26.775-12.622,59.288
				C303.771,155.79,307.978,135.9,311.038,116.01z"/>
		</g>
	</g>
</g>
</svg>
