<?xml version="1.0" encoding="utf-8"?>
<!-- Generator: Adobe Illustrator 17.0.0, SVG Export Plug-In . SVG Version: 6.00 Build 0)  -->
<!DOCTYPE svg PUBLIC "-//W3C//DTD SVG 1.1//EN" "http://www.w3.org/Graphics/SVG/1.1/DTD/svg11.dtd">
<svg version="1.1" id="Capa_1" xmlns="http://www.w3.org/2000/svg" xmlns:xlink="http://www.w3.org/1999/xlink" x="0px" y="0px"
	 width="612px" height="792px" viewBox="0 0 612 792" enable-background="new 0 0 612 792" xml:space="preserve">
<title>Mesa de trabajo 1</title>
<g>
	<circle opacity="0.2" enable-background="new    " cx="310.59" cy="624.735" r="105.57"/>
	<circle fill="#FFFFFF" cx="304.852" cy="621.675" r="104.805"/>
	
		<radialGradient id="SVGID_1_" cx="80.4384" cy="32.2614" r="24.6679" gradientTransform="matrix(3.825 0 0 -3.825 -2.825 745.075)" gradientUnits="userSpaceOnUse">
		<stop  offset="0" style="stop-color:#FFFFFF"/>
		<stop  offset="0.4846" style="stop-color:#F5F5F5"/>
		<stop  offset="1" style="stop-color:#E6E6E6"/>
	</radialGradient>
	<circle fill="url(#SVGID_1_)" cx="304.852" cy="621.675" r="94.477"/>
	<circle fill="#FAFAFA" stroke="#E0E0E0" stroke-width="0.4413" stroke-miterlimit="10" cx="304.852" cy="621.675" r="50.873"/>
	<circle fill="none" stroke="#FFC107" stroke-width="1.738" stroke-miterlimit="10" cx="304.852" cy="621.675" r="94.095"/>
	<path opacity="0.5" fill="#FFFFFF" enable-background="new    " d="M379.057,547.47L231.03,695.497
		c-40.928-40.927-40.928-107.1,0-148.027S338.13,506.542,379.057,547.47z"/>
	<path opacity="0.1" enable-background="new    " d="M261.248,621.675c0-27.158,21.037-48.96,47.813-50.49c-1.148,0-2.295,0-3.443,0
		c-27.923,0-50.873,22.568-50.873,50.872c0,28.305,22.568,50.873,50.873,50.873c1.147,0,2.295,0,3.443,0
		C282.285,670.635,261.248,648.833,261.248,621.675z"/>
	<g id="XMLID_219_">
		<g opacity="0.6">
			<path id="XMLID_267_" d="M416.16,719.595h2.295l0.382-35.19c0-0.383,0-0.765,0.383-0.765c0.383-0.383,1.148-0.383,1.53,0
				l-0.382,35.955h2.295l0.383-35.19l0,0c0.382-0.765,1.53-0.383,1.53,0.383v34.808h2.677l0.382-34.808
				c0-0.765,1.148-1.148,1.53-0.383l0,0v35.19h2.295l-0.383-35.955c0.383-0.383,1.148-0.383,1.53,0s0.382,0.383,0.382,0.765v35.19
				h2.295V666.81c0-1.148-0.382-2.295-0.765-3.06l-4.59-9.563c-0.383-1.148-0.765-2.295-0.765-3.443l3.825-115.133
				c0-2.295-0.765-4.207-2.677-5.737l0,0c-2.677-2.295-6.502-2.295-9.18,0l0,0c-1.53,1.53-2.677,3.443-2.677,5.737l3.06,115.133
				c0,1.148-0.382,2.295-0.765,3.443l-4.59,9.18c-0.382,1.147-0.765,1.912-0.765,3.06L416.16,719.595z"/>
			<polygon id="XMLID_266_" points="421.515,612.495 422.28,638.888 430.695,633.533 431.46,606.375 			"/>
			<path id="XMLID_265_" d="M420.368,569.273l12.622-8.033l0.765-25.245c0-0.765,0-1.148,0-1.913l-14.152,8.798L420.368,569.273z"/>
			<polygon id="XMLID_264_" points="416.16,675.99 434.138,661.073 432.608,658.013 416.543,671.783 			"/>
			<polygon id="XMLID_263_" points="416.16,698.175 418.837,695.88 418.837,688.612 416.16,690.525 			"/>
			<path id="XMLID_262_" d="M424.575,684.787v6.12l3.06-2.677v-3.825c0-0.765,1.148-1.148,1.53-0.383l0,0v2.295l1.913-1.912v-1.53
				c0.383-0.383,1.148-0.383,1.53,0c0,0,0,0,0,0.383l2.677-2.295v-7.267l-12.24,9.945
				C424.193,684.405,424.575,684.405,424.575,684.787z"/>
			<polygon id="XMLID_261_" points="423.045,692.438 423.045,685.17 420.75,686.7 420.75,694.35 			"/>
		</g>
		<g>
			<g>
				<path id="XMLID_253_" fill="#CCCCCA" d="M413.865,717.3h2.295l0.383-35.19c0-0.383,0-0.765,0.383-0.765
					c0.382-0.383,1.147-0.383,1.53,0l-0.383,35.955h2.295l0.382-35.19l0,0c0.383-0.765,1.53-0.383,1.53,0.383V717.3h2.677
					l0.383-34.807c0-0.765,1.148-1.148,1.53-0.383l0,0v35.19h2.295l-0.383-35.955c0.383-0.383,1.148-0.383,1.53,0
					c0.383,0.383,0.383,0.383,0.383,0.765v35.19h2.295v-52.785c0-1.147-0.382-2.295-0.765-3.06l-4.59-9.563
					c-0.382-1.148-0.765-2.295-0.765-3.442l3.825-115.133c0-2.295-0.765-4.208-2.677-5.737l0,0c-2.677-2.295-6.503-2.295-9.18,0l0,0
					c-1.53,1.53-2.677,3.443-2.677,5.737l3.06,115.133c0,1.147-0.383,2.295-0.765,3.442l-4.59,9.18
					c-0.383,1.148-0.765,1.912-0.765,3.06L413.865,717.3z"/>
				<polygon id="XMLID_252_" fill="#F2F2F2" points="419.22,610.2 419.985,636.592 428.4,631.237 429.165,604.08 				"/>
				<path id="XMLID_251_" fill="#F2F2F2" d="M418.073,566.977l12.623-8.033l0.765-25.245c0-0.765,0-1.148,0-1.912l-14.152,8.797
					L418.073,566.977z"/>
				<polygon id="XMLID_246_" fill="#F2F2F2" points="413.865,673.695 431.842,658.777 430.313,655.717 413.865,669.105 				"/>
				<g id="XMLID_220_">
					<polygon id="XMLID_238_" fill="#F2F2F2" points="413.865,695.88 416.543,693.585 416.543,686.317 413.865,688.23 					"/>
					<path id="XMLID_222_" fill="#F2F2F2" d="M422.28,682.492v6.12l3.06-2.677v-3.825c0-0.765,1.148-1.148,1.53-0.383l0,0v2.295
						l1.913-1.913v-1.53c0.382-0.383,1.148-0.383,1.53,0c0,0,0,0,0,0.383l2.677-2.295V671.4l-12.24,9.945
						C421.898,682.11,422.28,682.11,422.28,682.492z"/>
					<polygon id="XMLID_221_" fill="#F2F2F2" points="420.75,690.142 420.75,682.875 418.455,684.405 418.455,692.055 					"/>
				</g>
			</g>
		</g>
	</g>
	<g id="XMLID_159_">
		<g opacity="0.6">
			<path id="XMLID_218_" d="M175.185,531.405L175.95,717.3c0,2.677,3.443,3.443,4.973,1.148l0,0
				c5.355-9.945,9.18-21.038,10.71-32.513l1.53-10.71c1.147-8.415-0.382-17.212-4.973-24.862l0,0
				c-3.825-6.503-5.738-14.152-5.355-21.802l4.972-80.325c0.382-4.972,0-9.563-1.53-14.152l0,0c-1.148-3.825-4.208-6.12-8.033-6.12
				l0,0C176.715,528.345,175.185,529.875,175.185,531.405z"/>
			<polygon id="XMLID_217_" points="175.568,589.545 175.568,615.938 183.982,610.583 185.895,582.66 			"/>
			<path id="XMLID_216_" d="M178.245,528.345c-1.913,0-3.06,1.53-3.06,3.443v13.77l12.24-7.65c-0.382-1.148-0.382-1.913-0.765-3.06
				C185.512,530.64,182.07,528.345,178.245,528.345z"/>
			<path id="XMLID_195_" d="M182.835,630.472l-7.268,6.12v4.59l7.65-6.12C182.835,633.533,182.835,632.003,182.835,630.472z"/>
			<path id="XMLID_194_" d="M175.95,697.41v7.268l14.535-11.858c0.382-2.295,0.765-4.59,1.147-6.885l0.382-1.912L175.95,697.41z"/>
		</g>
		<g>
			<g>
				<path id="XMLID_193_" fill="#CCCCCA" d="M172.89,529.11l0.765,185.513c0,2.677,3.443,3.443,4.972,1.148l0,0
					c5.355-9.945,9.18-21.038,10.71-32.513l1.53-10.71c1.147-8.415-0.382-17.212-4.973-24.862l0,0
					c-3.825-6.503-5.737-14.152-5.355-21.802l4.972-80.325c0.382-4.972,0-9.563-1.53-14.152l0,0c-1.147-3.825-4.207-6.12-8.033-6.12
					l0,0C174.42,526.05,172.89,527.58,172.89,529.11z"/>
				<polygon id="XMLID_192_" fill="#F2F2F2" points="172.89,586.867 173.273,613.642 181.688,608.287 183.6,580.365 				"/>
				<path id="XMLID_163_" fill="#F2F2F2" d="M175.95,526.05c-1.912,0-3.06,1.53-3.06,3.443v13.77l12.24-7.65
					c-0.382-1.148-0.382-1.912-0.765-3.06C183.218,528.345,179.775,526.05,175.95,526.05z"/>
				<path id="XMLID_162_" fill="#F2F2F2" d="M180.54,628.177l-7.268,6.12v4.59l7.65-6.12
					C180.54,631.237,180.54,629.708,180.54,628.177z"/>
				<path id="XMLID_161_" fill="#F2F2F2" d="M173.273,695.115v7.267l14.535-11.858c0.382-2.295,0.765-4.59,1.147-6.885l0.383-1.912
					L173.273,695.115z"/>
			</g>
		</g>
	</g>
</g>
<g>
	<g>
		<g>
			<defs>
				<rect id="SVGID_2_" x="19.125" y="59.4" width="573.367" height="403.155"/>
			</defs>
			<clipPath id="SVGID_3_">
				<use xlink:href="#SVGID_2_"  overflow="visible"/>
			</clipPath>
			<g clip-path="url(#SVGID_3_)">
				<path fill="#21211D" d="M170.213,290.43c8.415-12.622,74.97-21.802,141.525-19.508c60.435,1.913,120.487,13.388,136.17,39.398
					c26.775,44.753,47.43,228.352-35.573,232.56c-85.68,4.59-145.35,2.677-231.03-4.207
					C108.63,523.755,138.465,339.39,170.213,290.43z"/>
				<path d="M191.25,290.43c8.033-12.24,59.67-21.802,116.663-19.508c52.02,1.913,107.482,13.388,120.87,39.398
					c22.95,44.753,48.96,230.648-22.185,234.855c-73.822,4.59-153-5.737-226.822-12.622
					C117.81,517.635,157.973,339.39,191.25,290.43z"/>
				<path fill="#363632" d="M173.655,286.987c16.447-11.092,77.265-18.36,137.7-16.065s120.87,13.387,136.17,39.397
					c25.245,42.457,45.135,210.375-23.715,230.647c55.845-34.043,36.72-185.895,13.005-225.675
					c-15.682-26.01-75.735-37.485-136.17-39.397C249.39,273.982,198.518,278.955,173.655,286.987z"/>
				<path d="M99.067,191.745c3.825-14.917,10.328-34.042,9.18-63.495c-1.912-48.577,21.803-57.757,81.09-53.932
					c48.195,3.06,81.09,0,118.192,0c34.043,0,80.708,3.06,115.133,1.912c40.927-1.53,78.03,8.798,77.265,47.43
					c-0.383,16.83-6.502,47.812,0.383,66.937c31.365,89.122-143.82,135.022-215.73,128.138
					C220.32,318.735,77.265,278.572,99.067,191.745z"/>
				<path fill="#21211D" d="M421.515,75.847h1.148c40.927-1.53,78.03,9.18,77.265,47.43c-0.383,16.83-6.502,47.812,0.383,66.937
					c30.6,86.063-132.345,131.962-208.08,128.903c80.325-3.06,220.703-48.195,192.397-128.903
					c-6.885-19.125-0.765-50.107-0.383-66.937C485.01,89.617,456.323,77.377,421.515,75.847z"/>
				<path fill="#5C5C69" d="M89.888,260.595h12.622c13.387,0,24.097,10.71,24.097,24.098v239.062
					c0,13.388-10.71,24.098-24.097,24.098H89.888c-13.388,0-24.098-10.71-24.098-24.098V284.693
					C65.79,271.305,76.5,260.595,89.888,260.595z"/>
				<path fill="#7C7C8A" d="M91.8,260.595h8.415c9.18,0,16.447,7.268,16.447,16.448v253.98c0,9.18-7.267,16.448-16.447,16.448H91.8
					c-9.18,0-16.448-7.268-16.448-16.448v-253.98C75.353,267.862,82.62,260.595,91.8,260.595z"/>
				<path fill="#A2A2AB" d="M103.275,541.732H94.86c-4.59,0-8.798-1.912-12.24-5.355c2.295,1.147,4.59,1.53,7.268,1.53h8.415
					c8.797,0,16.448-6.885,16.448-16.065V276.277c0-3.825-1.53-8.033-4.207-10.71c5.737,2.677,9.18,8.032,9.18,14.152v245.948
					C119.722,534.847,112.455,541.732,103.275,541.732z"/>
				<path fill="#5C5C69" d="M498.398,260.595h12.622c13.388,0,24.098,10.71,24.098,24.098v239.062
					c0,13.388-10.71,24.098-24.098,24.098h-12.622c-13.388,0-24.098-10.71-24.098-24.098V284.693
					C474.3,271.305,485.01,260.595,498.398,260.595z"/>
				<path fill="#7C7C8A" d="M500.31,260.595h8.415c9.18,0,16.448,7.268,16.448,16.448v253.98c0,9.18-7.268,16.448-16.448,16.448
					h-8.415c-9.18,0-16.448-7.268-16.448-16.448v-253.98C483.863,267.862,491.13,260.595,500.31,260.595z"/>
				<path fill="#A2A2AB" d="M511.785,541.732h-8.415c-4.59,0-8.798-1.912-12.24-5.355c2.295,1.147,4.59,1.53,7.267,1.53h8.415
					c8.798,0,16.448-6.885,16.448-16.065V275.895c0-4.208-1.53-8.033-4.208-10.71c5.737,2.678,9.18,8.033,9.18,14.153v246.33
					C528.233,534.465,520.965,541.732,511.785,541.732z"/>
				<path fill="#21211D" d="M109.013,145.845c-11.858-61.2,12.622-86.445,71.91-81.855c48.577,3.825,89.888,6.503,126.99,6.503
					c34.043,0,83.768-4.973,117.81-6.503c59.67-2.678,83.003,11.475,73.823,77.265c-5.738,41.693-102.128-18.36-205.02-15.3
					C199.665,128.632,112.455,164.205,109.013,145.845z"/>
				<path fill="#363632" d="M307.53,70.492c34.043,0,83.768-4.973,117.81-6.503c59.67-2.678,83.002,11.475,73.823,77.265
					c-1.53,9.945-8.033,14.152-18.36,14.535l0,0c4.59-33.66,0.765-53.933-12.24-65.025C445.995,70.875,364.905,84.262,307.53,70.492
					z"/>
				<path d="M299.498,70.492c-34.043,0-83.385-4.973-117.81-6.503c-59.67-2.678-83.003,11.475-73.822,77.265
					c1.53,9.945,7.65,14.152,18.36,14.535l0,0c-4.59-33.66-0.765-53.933,12.24-65.025C161.415,70.875,242.505,84.262,299.498,70.492
					z"/>
				<path fill="#21201F" d="M210.375,322.56l98.685,38.25c57.757-16.83,61.965-23.715,82.62-15.3
					c40.545,17.212,44.37,79.56,56.992,138.465c13.005,60.052,34.425,99.833,20.655,140.76
					c-24.862,72.292-60.435,43.605-74.97,13.388c-13.005-27.54-30.6-85.68-48.96-130.815c-9.945-24.48-11.092-46.665-25.628-53.55
					c-12.622-6.12-21.038-4.59-25.627,1.148c-1.53,1.913-7.268,29.835-14.152,64.643c-18.742,96.772-27.54,130.815-48.195,140.76
					c-32.895,15.683-47.813,4.208-58.905-14.152c-18.743-30.6,5.738-180.158,19.89-269.663
					C198.135,342.45,191.632,335.565,210.375,322.56z"/>
				<path d="M364.14,343.98c9.18-3.06,19.125-2.295,27.923,1.913c40.545,17.212,43.988,79.56,56.993,138.465
					c13.005,60.052,34.425,99.833,20.655,140.377c-13.77,40.545-30.983,49.342-46.283,43.987
					c9.945-4.972,19.508-17.977,27.923-42.458c6.12-17.212-6.12-81.855-19.89-139.995c-12.24-52.02-25.628-98.303-34.043-100.215
					c-30.982-7.65-117.427,10.327-185.895-16.83C207.697,367.695,367.2,344.745,364.14,343.98L364.14,343.98z M322.448,453.375
					c-6.885-11.475-21.038-12.24-31.747-8.415c-22.95,8.798-24.098,53.932-28.305,75.735
					c-18.742,96.773-27.54,130.815-48.195,140.76c-4.59,2.295-9.563,4.208-14.917,5.355c8.415,1.53,19.125-0.383,32.895-6.885
					c20.655-9.945,29.452-43.987,48.195-140.76c6.885-34.807,12.622-62.73,14.152-64.643
					C295.29,454.14,304.087,445.725,322.448,453.375z"/>
				<path fill="#383735" d="M210.375,322.56l17.213,7.268c-19.125,12.622-12.24,19.89-17.595,53.55
					c-14.152,89.505-38.632,238.68-19.89,269.28c3.06,5.355,6.885,10.327,11.475,14.535c-13.387-1.148-21.802-9.945-28.688-21.42
					c-18.743-30.6,5.738-180.158,19.89-269.663C198.135,342.45,191.632,335.565,210.375,322.56z"/>
			</g>
		</g>
	</g>
</g>
<g>
	<path fill="#E8A477" d="M385.943,461.025c-0.765-0.383-1.147-1.53-0.382-2.295l0,0c1.912-2.677,10.327-5.737,11.092-6.502
		c-0.383,1.53,0.382,2.677-0.765,4.207c-1.148,1.913-3.06,3.06-4.973,4.207S387.473,461.79,385.943,461.025z"/>
	<path fill="#E8A477" d="M380.587,442.282c-0.765-0.382-1.147-1.53-0.765-2.295c0,0,0,0,0-0.383
		c1.913-2.295,11.475-4.973,12.623-4.973c-0.383,1.53,0.382,2.677-0.765,4.207c-1.53,1.53-3.443,2.677-5.355,3.443
		C384.413,443.047,382.5,443.047,380.587,442.282z"/>
	<path fill="#F1B287" d="M283.432,503.865c25.628-3.825,26.775,0.765,50.107,2.295c8.033,0,16.065-0.383,24.098-1.53
		c7.267-0.383,14.535-1.53,21.802-3.443c4.59-1.53,7.65-4.59,5.355-9.18c4.207-1.147,11.092-1.147,13.005-4.59
		c1.53-3.443,1.53-7.65-0.383-10.71c2.677-0.383,4.973-1.913,6.885-3.825c1.53-2.295,1.53-9.945,1.53-13.005
		c0-6.502-4.59-6.502-9.945-7.65c2.677-2.677,4.207-6.12,4.207-9.945c-0.383-3.825-3.825-6.885-7.65-6.885
		c-4.207,3.825-9.18,7.268-14.535,9.563c3.443-3.443,5.355-4.59,3.06-12.24c-6.12,1.53-12.24,2.295-18.36,2.295
		c-13.388,0.382-18.742-2.295-26.393,0.382c-27.157,8.798-23.332,23.332-52.785,20.273v48.195H283.432z M395.505,453.375
		c-0.765,2.677-2.677,4.59-4.973,6.12c-6.503,2.677-13.388,4.59-20.655,6.12c4.59-3.06,14.152-5.738,17.977-8.033
		C390.15,456.052,392.827,454.522,395.505,453.375L395.505,453.375z"/>
	<path fill="#E8A477" d="M383.265,498.892c2.295-1.913,2.677-4.59,1.53-7.267c1.912-0.765,4.207-0.765,6.502-1.148
		c-4.59,0-8.798,0-13.388,0.382c-1.147,0-9.18,1.913-9.563,2.295c-1.53,1.53,3.06,0.382,6.885,0c1.912-0.383,4.207-0.765,6.12-0.383
		c1.53,0.765,2.677,2.677,2.295,4.59C383.648,497.745,383.265,498.51,383.265,498.892L383.265,498.892z M398.565,478.237
		c-0.383-0.765-0.383-1.148-0.765-1.913c1.53-0.382,2.677-0.765,3.443-1.147h-1.913c-7.268,0.382-14.535,1.53-21.42,3.443
		c-4.207,1.147-7.65,2.677-7.267,3.06c2.295,0,4.207-0.383,6.502-1.148c6.885-1.912,13.77-2.677,20.655-2.677
		C397.8,477.855,398.182,477.855,398.565,478.237L398.565,478.237z M398.565,452.61l-2.295-0.382l0.383-0.383l0,0
		c-2.677,1.53-4.973,3.06-7.268,4.973l6.503-3.443c-1.913,2.677-2.677,4.59-4.59,5.737c-3.443,2.295-8.415,1.913-12.622,3.06
		c-3.06,0.765-9.945,3.06-10.328,4.59c0,0.383,6.503-1.913,11.093-2.677c5.737-1.147,12.24-1.913,14.918-3.443
		c1.147-0.765,0.765-2.295,1.53-3.443s2.295-1.53,2.295-2.677C398.565,453.757,398.565,452.992,398.565,452.61L398.565,452.61z
		 M379.057,444.195c-7.65,4.973-14.535,3.825-27.54,2.677c-3.06-0.383-5.738-2.677-0.765-2.295
		c7.267,0.382,19.125,1.912,25.627-1.53c3.06-1.912,4.59-4.973,4.207-8.415c-6.12,1.53-12.24,2.677-18.742,2.677
		c-9.563,0.383-18.743,1.913-27.923,4.973c-14.918,5.355-23.332,26.01-50.107,19.508v-6.503
		c29.452,3.06,25.627-11.857,52.785-20.272c7.65-2.295,13.005,0.382,26.393-0.383c6.12,0,12.24-0.765,18.36-2.295
		c2.295,7.267,0.383,8.798-3.06,12.24L379.057,444.195z"/>
	<path fill="#2D466E" d="M435.285,387.585c-95.242,16.83-155.295,27.54-255.893-4.59c-53.932-17.212-59.287-56.227-59.287-100.215
		c0-38.633,99.45-57.375,196.605-56.61c92.565,0.765,181.305,20.655,180.54,57.375C496.485,318.352,500.692,376.11,435.285,387.585z
		"/>
	<path fill="#34507D" d="M120.105,298.462c-0.383-4.973-0.383-10.328-0.383-15.3c0-38.632,99.45-57.375,196.605-56.61
		c92.565,0.765,181.305,20.655,180.54,57.375c0,8.797,0,18.742-0.765,29.453c0-4.59,0.383-9.18,0.383-13.388
		c1.53-36.72-84.533-68.85-176.715-71.91c-22.95-0.765-110.542,9.945-161.797,31.747c-22.95,9.563-37.868,24.098-38.25,35.955
		L120.105,298.462z"/>
	<path fill="#263B5C" d="M231.795,396.765c-17.978-3.443-35.572-8.033-52.785-13.77c-43.605-13.77-55.462-42.075-58.522-75.735
		c19.507,25.245,40.163,47.813,52.785,56.61C192.398,376.11,211.905,387.202,231.795,396.765z"/>
	<path fill="#263B5C" d="M316.327,226.552c75.735,0.765,148.793,14.152,172.89,39.015l-27.54-2.295
		c-13.387-7.65-47.813-15.682-78.795-22.568C356.108,234.967,332.775,230.377,316.327,226.552z"/>
	<path fill="#2D466E" d="M182.07,377.257c-21.037,3.443-23.332,17.977-53.932,49.725c31.365-10.71,130.433,11.092,176.333,11.092
		c-7.268,26.01-3.06,55.462,0.382,72.675c-56.227-3.06-135.022,5.355-236.767-29.07c-17.213-5.737-23.715-5.737-28.688-16.83
		c-3.443-7.267-1.913-16.448-0.765-29.452c4.972-48.577,57.375-188.19,116.662-177.48l42.075,30.6L182.07,377.257z"/>
	<path fill="#34507D" d="M303.323,503.482c0.383,2.677,0.765,5.355,1.53,7.65c-56.227-3.06-135.022,5.355-236.767-29.07
		c-17.213-5.738-23.715-5.738-28.688-16.83c-3.442-7.268-1.912-16.448-0.765-29.452c4.973-48.577,57.375-188.573,116.663-177.863
		l3.443,2.678c-10.71,1.53-20.655,5.355-29.452,11.475c-3.06,2.295-10.328,12.622,4.207,62.347
		c-8.798-13.387-15.3-45.9-14.153-54.697C82.238,317.587,50.873,396,47.43,429.66c-1.148,13.005-2.678,21.802,0.765,29.452
		c5.355,11.092,11.475,11.092,28.687,16.83C169.065,506.925,247.86,502.717,303.323,503.482z"/>
	<path fill="#263B5C" d="M182.07,377.257c-21.037,3.443-23.332,17.977-53.932,49.725c31.365-10.71,130.433,11.092,176.333,11.092
		c-1.148,4.973-2.295,9.945-3.06,14.918c-4.973-1.913-10.71-3.825-17.212-5.737c-45.518,0-148.792-14.535-180.157-3.825
		c30.6-32.13,49.342-73.822,70.38-77.265l9.563,5.355L182.07,377.257z"/>
	<path fill="#E8A477" d="M328.568,644.242c0.383-0.765-0.382-1.913-1.147-1.913l0,0c-3.06-0.383-11.858,3.443-12.623,3.443
		c1.148,0.765,1.913,2.295,3.825,2.677c2.295,0.383,4.59,0,6.502-0.765C326.655,646.92,327.802,645.773,328.568,644.242z"/>
	<path fill="#E8A477" d="M318.623,626.648c0.382-0.765-0.383-1.913-1.148-1.913c0,0,0,0-0.383,0
		c-3.06-0.383-11.857,4.973-13.005,5.355c1.148,0.765,1.913,2.295,3.825,2.295c2.295,0,4.59-0.383,6.502-1.53
		C316.327,630.09,317.857,628.56,318.623,626.648z"/>
	<path fill="#F1B287" d="M432.225,598.725c-19.89,17.595-16.83,21.42-32.513,39.78c-5.737,6.12-11.857,11.475-18.36,16.448
		c-5.737,4.973-11.857,9.563-18.36,13.388c-4.208,2.295-8.798,2.295-10.71-2.677c-3.825,2.295-9.18,7.268-13.005,6.503
		c-3.825-1.148-6.503-4.208-7.65-8.033c-2.295,1.53-4.973,2.295-7.65,2.295c-3.06-0.383-8.415-6.12-10.71-8.415
		c-4.59-4.59-1.53-8.415,1.53-12.623c-3.825,0-7.65-1.53-10.327-4.208c-2.677-3.06-2.677-7.65,0.383-10.71
		c6.12-0.383,11.857-1.53,17.212-3.825c-4.973,0-7.268,0.383-11.093-6.503c5.355-3.443,10.328-7.267,14.918-11.858
		c9.945-9.18,12.24-15.3,19.125-19.125c26.01-13.77,41.693,1.148,60.818-22.95L432.225,598.725L432.225,598.725z M315.945,645.773
		c2.677,1.147,5.355,1.53,8.032,0.765c6.885-3.06,13.388-6.503,19.508-10.71c-5.355,1.148-14.535,6.503-18.742,7.268
		C321.682,643.477,319.005,644.625,315.945,645.773z"/>
	<path fill="#F1B287" d="M432.225,598.725c-19.89,17.595-16.83,21.42-32.513,39.78c-5.737,6.12-11.857,11.475-18.36,16.448
		c-5.737,4.973-11.857,9.563-18.36,13.388c-4.208,2.295-8.798,2.295-10.71-2.677c-3.825,2.295-9.18,7.268-13.005,6.503
		c-3.825-1.148-6.503-4.208-7.65-8.033c-2.295,1.53-4.973,2.295-7.65,2.295c-3.06-0.383-8.415-6.12-10.71-8.415
		c-4.59-4.59-1.53-8.415,1.53-12.623c-3.825,0-7.65-1.53-10.327-4.208c-2.677-3.06-2.677-7.65,0.383-10.71
		c6.12-0.383,11.857-1.53,17.212-3.825c-4.973,0-7.268,0.383-11.093-6.503c5.355-3.443,10.328-7.267,14.918-11.858
		c9.945-9.18,12.24-15.3,19.125-19.125c26.01-13.77,41.693,1.148,60.818-22.95L432.225,598.725L432.225,598.725z M315.945,645.773
		c2.677,1.147,5.355,1.53,8.032,0.765c6.885-3.06,13.388-6.503,19.508-10.71c-5.355,1.148-14.535,6.503-18.742,7.268
		C321.682,643.477,319.005,644.625,315.945,645.773z"/>
	<path fill="#E8A477" d="M421.133,609.052c-8.798,9.563-9.563,15.3-21.802,29.07c-5.738,6.12-11.858,11.475-18.36,16.448
		c-4.973,4.208-24.098,22.568-29.07,10.71c1.148-0.383,4.59,5.737,11.475,0.383c11.858-8.797,22.95-18.742,32.895-29.452
		c15.682-18.36,7.268-22.95,27.158-40.545c0,0,1.148-1.53,3.443-3.825l3.443,7.65C427.253,602.932,424.193,605.992,421.133,609.052z
		"/>
	<path fill="#E8A477" d="M358.402,669.487c-2.677,0.383-5.738-1.148-6.503-4.208c-1.53,1.148-3.825,2.677-5.737,3.825
		c3.06-3.443,6.502-6.503,9.945-9.563c0.765-0.765,8.032-5.355,8.415-5.355c2.295-0.383-1.913,2.677-4.973,4.972
		c-1.913,1.148-3.443,2.677-4.973,4.208c-0.382,1.912,0,3.825,1.53,4.972C356.873,669.105,357.638,669.487,358.402,669.487
		L358.402,669.487z M332.01,665.662c0-0.383,0.383-0.383,0.383-0.765c4.973-4.973,10.71-9.563,16.83-13.005
		c2.677-1.912,5.738-3.06,5.355-3.825c-0.382-0.765-3.825,0.765-7.65,3.06c-6.503,3.825-12.622,8.032-17.977,13.005l-1.53,1.53
		c1.148-0.383,2.295-1.148,3.443-1.53C331.245,664.515,331.628,664.898,332.01,665.662L332.01,665.662z M313.268,647.302l1.53-1.913
		h-0.383c3.06-0.765,6.12-1.53,9.18-1.53l-7.268,2.295c2.295,0.765,4.973,1.148,7.268,0.765c4.207-1.147,7.65-4.59,11.475-6.885
		c3.06-1.53,9.18-5.355,11.092-4.208c0.382,0-6.12,3.443-10.327,6.12c-4.973,3.442-10.327,7.65-13.388,8.415
		c-1.53,0.383-2.295-1.148-3.825-1.53s-2.677,0.383-3.825-0.383C314.033,648.067,313.65,647.685,313.268,647.302L313.268,647.302z
		 M321.3,627.03c9.563-1.912,13.387-7.65,21.802-18.742c1.913-2.295,2.295-6.12-1.147-2.295
		c-4.973,5.737-12.623,15.682-19.89,17.595c-3.443,0.765-6.885-0.383-9.18-3.06c5.355-3.442,10.71-7.267,15.3-11.857
		c6.885-6.885,14.917-12.24,23.715-16.83c14.535-6.885,33.66-0.765,52.402-22.185l-1.53-3.825
		c-22.185,20.273-32.13,8.415-58.14,22.185c-7.268,3.825-9.18,9.945-19.125,19.125c-4.59,4.59-9.563,8.415-14.918,11.858
		c3.825,7.267,6.12,6.503,11.092,6.503L321.3,627.03z"/>
	<path fill="#F4BC97" d="M311.355,621.292l-0.765-1.148c5.355-3.443,10.327-7.267,14.918-11.858
		c9.945-9.18,12.24-15.3,19.125-19.125c26.01-13.77,35.573-1.912,57.757-22.567l1.913,3.825
		c-18.742,21.037-37.485,14.917-52.402,22.185c-8.798,4.208-16.83,9.945-23.715,16.83c-4.59,4.59-9.945,8.415-15.3,11.858l0,0
		H311.355z"/>
	<path fill="#2D466E" d="M437.58,377.257c21.038,3.443,35.573,26.775,65.79,58.905l76.883,29.07
		c3.442-7.268,1.912-16.448,0.765-29.452c-4.972-48.577-57.375-188.19-116.662-177.863l-42.075,30.6L437.58,377.257z"/>
	<path fill="#34507D" d="M450.967,382.612c14.918,9.18,29.07,28.688,52.785,53.932l10.327-2.677
		c-30.982-35.19-42.075-58.905-63.112-62.347L450.967,382.612z"/>
	<path fill="#263B5C" d="M570.69,461.407l9.945,3.825c3.443-7.268,1.913-16.448,0.765-29.452
		c-4.208-44.37-48.195-163.71-100.98-177.098c-4.973-1.53-10.71-1.53-15.682-0.765l-15.682-0.382
		c7.267,3.825,24.862,7.65,36.337,17.978c-0.765,23.332-6.885,45.9-18.36,66.172c16.065-13.388,23.332-48.96,24.097-60.818
		c40.545,33.66,74.97,116.28,78.795,153.383C571.455,446.107,572.602,454.522,570.69,461.407z"/>
	<path fill="#2D466E" d="M507.195,425.835c-23.332,11.092-81.473,117.045-118.193,138.848c18.36,17.595,28.688,43.223,34.425,58.905
		c43.605-29.07,86.828-73.057,152.235-149.175c11.092-13.005,6.12-24.098,4.972-35.573c-0.765-7.65-6.12-14.152-13.388-23.715
		L507.195,425.835z"/>
	<path fill="#2D466E" d="M507.195,425.835c-23.332,11.092-81.473,117.045-118.193,138.848c18.36,17.595,28.688,43.223,34.425,58.905
		c43.605-29.07,86.828-73.057,152.235-149.175c11.092-13.005,6.12-24.098,4.972-35.573c-0.765-7.65-6.12-14.152-13.388-23.715
		L507.195,425.835z"/>
	<path fill="#34507D" d="M507.195,425.835c-23.332,11.092-81.473,117.045-118.193,138.848c2.677,2.677,5.355,5.355,7.65,8.415
		c17.977-12.622,43.223-43.987,62.73-69.232c19.507-25.245,37.102-57.375,53.55-71.91L507.195,425.835z"/>
	<path fill="#263B5C" d="M419.603,613.642c1.53,3.443,2.677,6.885,3.825,9.563c43.605-29.07,86.827-73.057,152.235-149.175
		c11.092-13.005,6.12-24.098,4.972-35.573s-12.24-18.743-15.682-34.043c1.912,9.945,6.12,29.07,6.885,35.955
		c1.148,11.475,6.502,16.83-4.973,29.452C504.9,538.29,462.825,580.747,419.603,613.642z"/>
	<g>
		<path fill="#F1B287" d="M326.655,449.55c-3.825,10.327-9.18,24.48-17.977,24.098c-9.945,0-13.77-13.005-17.977-24.098l4.59-12.24
			l4.59-12.24h17.977l4.59,12.24L326.655,449.55z"/>
		<path fill="#E8A477" d="M310.207,473.647c3.443-4.973,4.59-13.387,2.677-23.715c0.765,1.53,5.738,0.383,6.12,1.53
			c-3.06,5.355,1.53,9.18,0.383,13.005c-0.765,1.913-1.913,3.443-3.443,4.59C314.415,470.205,314.033,472.5,310.207,473.647z"/>
		<path fill="#F4BC97" d="M306.765,473.647c-3.443-4.973-4.59-13.387-2.677-23.715c-0.765,1.53-5.737,0.383-6.12,1.53
			c3.06,5.355-1.53,9.18-0.382,13.005c0.765,1.913,1.913,3.443,3.443,4.59C302.94,470.205,303.323,472.5,306.765,473.647z"/>
		<path fill="#F1B287" d="M275.783,444.96c-14.535-5.737-26.393-16.448-33.278-29.835c-8.032-16.448-11.857-40.163-13.77-61.965
			c-3.06-34.425,0.765-71.145,16.83-96.008c12.24-18.743,34.425-28.305,63.495-27.54c35.19-1.148,58.522,16.065,69.615,42.075
			c10.327,23.715,12.622,54.315,9.945,83.003c-1.913,21.802-4.973,43.987-13.005,60.435c-7.268,13.77-19.125,24.098-33.277,29.835
			C320.918,453.375,297.202,453.375,275.783,444.96z"/>
		<path fill="#F4BC97" d="M275.783,444.96c-14.535-5.737-26.393-16.448-33.278-29.835c-8.032-16.448-11.857-40.163-13.77-61.965
			c-3.06-34.425,0.765-71.145,16.83-96.008c11.475-17.595,31.748-27.158,58.14-27.54c-42.457,25.628-63.878,56.61-58.14,131.198
			c2.295,30.982,10.327,72.293,57.375,89.505v0.765C293.76,450.315,284.58,448.402,275.783,444.96z"/>
		<path fill="#E8A477" d="M308.295,229.612h0.765c35.19-1.148,58.522,16.065,69.615,42.075
			c10.327,23.715,12.622,54.315,9.945,83.003c-1.913,21.802-4.973,43.987-13.005,60.435c-7.268,13.77-19.125,24.098-33.277,29.835
			c-9.563,3.443-19.125,5.738-29.452,6.12c45.135-17.977,56.61-53.168,58.905-83.767C377.91,291.195,352.283,255.24,308.295,229.612
			z"/>
		<path fill="#E8A477" d="M275.783,444.96c-3.825-1.53-7.268-3.443-10.71-5.355c1.148,0.765,2.295,1.148,3.443,1.53
			c7.268,3.06,14.918,4.973,22.95,6.502h34.807c7.267-0.765,14.535-2.295,21.42-4.973l2.295-0.765
			c-2.295,1.147-4.59,2.295-7.268,3.443c-4.973,1.913-10.327,3.443-15.682,4.59c-0.765,1.912-1.53,4.207-2.677,6.502
			c-2.295-4.59-6.885-3.825-11.475-2.677c-6.502,1.913-3.06,1.53-9.18-0.382c-3.825-1.53-8.033-0.383-10.327,3.06
			c-0.765-2.295-1.53-4.59-2.677-6.503l0,0C285.727,448.402,280.755,446.872,275.783,444.96z"/>
		<path fill="#2B1C1F" d="M350.753,436.927c8.798-6.12,16.448-13.005,23.332-21.037c-0.383,13.387-22.185,27.923-28.688,30.982
			c-4.973,2.295-8.033-1.148-7.65-3.06C337.748,443.43,349.223,438.075,350.753,436.927z"/>
		<path fill="#2B1C1F" d="M266.22,436.927c-8.798-6.12-16.448-13.005-23.333-21.037c0.383,13.387,22.185,27.923,28.688,30.982
			c4.973,2.295,8.032-1.148,7.65-3.06C279.225,443.43,268.133,438.075,266.22,436.927z"/>
		<path fill="#E8A477" d="M230.265,368.842c-0.382-3.825,0.383-9.563,0-13.388l152.618-2.677c-0.383,3.443,4.59,12.24,4.207,15.682
			c-5.355,1.148-3.06,4.207-5.738,14.535c-0.765,4.208-2.295,8.033-4.973,11.858c-2.295,0.765,1.913-22.95-4.59-22.568
			c-1.147,0-3.06,4.973-4.973,10.327c-7.267,24.098-24.862,35.955-45.9,49.725c2.295-3.825,2.677-6.12,3.443-7.268
			c-9.945,7.268-19.125,14.535-24.098,14.152c-1.913-6.885-6.12-13.005-11.858-17.595c-13.005-4.973-17.595-5.737-35.572-39.398
			s-3.825,14.918-11.857,11.093C235.238,390.645,237.533,373.815,230.265,368.842z"/>
		<path fill="#E8A477" d="M390.915,344.362c6.12-5.355,6.12-11.475,8.415-17.595c1.913-4.973,5.737-11.475,6.12-17.977
			c0.765-11.475-11.475-17.978-14.918-3.443C385.56,324.09,384.03,327.532,390.915,344.362z"/>
		<path fill="#F1B287" d="M226.057,344.362c-6.12-5.355-6.12-11.475-8.415-17.595c-1.912-4.973-5.737-11.475-6.12-17.977
			c-0.383-11.475,11.475-17.978,14.917-3.443C231.03,324.09,232.943,327.532,226.057,344.362z"/>
		<path fill="#423330" d="M229.882,366.165c-0.382-3.825-2.678-9.18-3.06-13.005c-3.06-34.043,0.765-71.145,17.213-96.008
			c12.622-18.742,35.19-28.305,64.642-27.54c35.955-1.148,59.67,16.065,71.145,42.075c10.71,23.715,12.623,54.315,10.327,83.003
			c-0.382,3.825-1.147,7.268-2.295,11.092c-0.312,8.661-1.147,5.738-4.207,16.448c-0.765,4.208-5.355,14.457-12.275,22.185
			c-0.766,0.855-7.232,8.087-14.342,12.199c-21.996,15.396-11.351,4.631-36.531,15.502c-8.38,1.794-8.38,1.794-26.387,1.041
			c-18.874-5.027-22.568-11.912-33.63-19.562c-17.595-9.874-20.685-20.218-24.127-22.895
			C232.148,386.492,232.56,379.439,229.882,366.165z"/>
		<path fill="#4D3C38" d="M349.245,316.533c-14.383-12.585-21.882-20.389-34.875-27.5c23.622,25.666,30.669,29.873,50.511,60.561
			l-20.141-15.113c21.157,46.796,36.404,58.412,9.583,100.027c-16.863-25.629-45.977-10.161-71.215-63.32l4.32,22.115
			c-16.625-23.356-24.624-36.655-19.069-68.676l-12.19,23.248c-12.884-50.02,9.296-58.686,11.647-90.825
			C290.636,265.839,317.135,265.809,349.245,316.533z"/>
		<path fill="#614B47" d="M401.232,352.189c-4.182-23.637-8.416-62.652-53.731-94.852l17.787,6.812
			c-21.92-28.552-63.864-20.768-95.182-7.909c33.484,8.545,46.402,12.81,65.205,37.825l-6.46-15.612
			c39.282,46.196,52.428,85.958,50.34,121.318c8.56-26.014,5.265-63.151-10.821-86.33
			C387.561,332.943,389.001,326.835,401.232,352.189z"/>
		<path fill="#57433F" d="M307.68,378.987c-10.628-18.555-12.218-18.14-17.94-39.464l4.306,1.421
			c-14.847-23.396-21.544-27.801-23.587-57.942c-4.83,19.095-10.362,38.585-14.654,57.858c3.867-8.441,8.46-16.329,13.592-24.04
			c2.192,22.353,3.132,37.711,11.708,59.35c-3.281-16.443-2.843-20.06-2.406-37.157C290.905,363.419,288.677,359.862,307.68,378.987
			z"/>
		<path fill="#57433F" d="M357.651,412.411c0.362-19.943-4.484-35.022-22.698-57.962c0,0,15.347,15.411,17.338,16.695
			c-11.981-29.346-24.788-49.561-55.606-58.167c0.627,10.238,0.815,24.093,1.792,34.134c2.668,26.899,26.626,31.673,41.073,53.37
			c-7.349-15.592-9.69-16.678-18.953-30.708C336.482,385.36,350.252,394.921,357.651,412.411z"/>
		<path fill="#4D3C38" d="M269.042,417.643c-16.098-16.913-43.3-43.447-46.371-99.005l-2.565,17.335
			c-12.896-43.755,17.119-65.508,44.68-85.877c-18.11,34.774-21.462,69.403-10.432,103.138c3.856,11.304,5.708,0.63,8.737-5.893
			c6.236,34.033,40.26,69.716,55.995,79.612c-27.201-13.054-55.253-31.405-65.031-58.144
			C258.876,396.419,256.11,392.685,269.042,417.643z"/>
		<path fill="#614B47" d="M268.267,260.649c8.751,14.801-5.356,26.131-9.447,52.994
			C253.174,295.165,264.388,275.356,268.267,260.649z"/>
		<path fill="#614B47" d="M315.279,404.066c11.504,11.321,28.527,9.417,38.48,29.317
			C350.629,409.152,328.385,408.706,315.279,404.066z"/>
		<path fill="#614B47" d="M360.815,377.405c0.239,15.753,2.005,35.458-6.355,55.582
			C367.076,412.387,369.078,393.926,360.815,377.405z"/>
		<path fill="#614B47" d="M354.022,423.125c-11.231-41.324-32.635-30.208-43.025-46.491
			C325.644,405.92,338.836,393.661,354.022,423.125z"/>
		<path fill="#614B47" d="M334.828,363.185c6.948,13.892,19.241,21.398,19.293,50.255
			C359.877,389.008,349.512,373.674,334.828,363.185z"/>
		<path fill="#614B47" d="M285.536,368.856c16.498,5.133,20.793,26.299,47.605,31.388
			C306.667,401.223,297.254,394.981,285.536,368.856z"/>
		<path fill="#614B47" d="M371.506,391.593c-5.06-43.363-10.493-47.037-31.335-61.754
			C355.318,351.14,364.232,365.367,371.506,391.593z"/>
		<path fill="#614B47" d="M286.226,388.206c-21.607-36.913-19.818-43.219-12.309-68.639
			C274.619,346.131,276.498,363.365,286.226,388.206z"/>
		<path fill="#614B47" d="M319.98,326.309c5.521,13.735,17.763,19.343,28.442,39.796
			C343.138,341.163,329.006,338.065,319.98,326.309z"/>
		<path fill="#6E5650" d="M355.574,428.026c-6.773-20.731-10.73-35.83-33.474-41.77
			C337.647,395.776,342.479,403.641,355.574,428.026z"/>
		<path fill="#6E5650" d="M348.738,398.183c-0.94-15.357-0.866-25.991-15.148-34.781
			C342.565,373.262,344.33,379.487,348.738,398.183z"/>
		<path fill="#614B47" d="M350.089,395.495c-31.37-29.477-39.444-32.143-49.323-76.156c4.194,3.892,17.762,5.863,36.516,42.461
			c-10.377-9.068-13.119-11.854-15.435-11.991C330.272,365.756,339.749,381.11,350.089,395.495z"/>
		<path fill="#6E5650" d="M328.208,375.105c-14.246-14.107-20.392-24.6-27.442-55.766
			C307.701,326.017,308.253,346.889,328.208,375.105z"/>
		<path fill="#6E5650" d="M325.955,384.08c-17.75-12.129-26.588-23.51-28.205-51.003C300.944,352.94,311.034,371.317,325.955,384.08
			z"/>
		<path fill="#57433F" d="M361.977,347.382c-37.28-51.177-58.498-66.645-90.944-82.998c9.515,23.517,5.135,46.209,26.867,74.385
			c-1.428-13.637-4.095-27.057-8.702-39.863c22.695,17.523,38.291,15.461,71.704,75.08c-4.708-16.601-22.997-42.387-31.372-56.437
			L361.977,347.382z"/>
		<path fill="#614B47" d="M334.536,305.095c-23.009-36.122-29.255-36.93-54.052-39.786
			C302.841,276.764,316.773,285.752,334.536,305.095z"/>
		<path fill="#614B47" d="M355.393,340.506c-23.009-36.122-48.558-53.96-73.306-68.398
			C307.548,293.365,331.984,316.165,355.393,340.506z"/>
		<path fill="#614B47" d="M292.643,328.256c-11.83-23.654-14.335-37.647-18.73-62.609
			C280.523,286.952,288.56,294.934,292.643,328.256z"/>
		<path fill="#6E5650" d="M287.122,314.522c-11.831-23.654-8.626-23.537-12.859-49.072
			C278.157,284.917,278.307,277.129,287.122,314.522z"/>
		<path fill="#614B47" d="M328.579,321.937c-28.604-25.743-37.954-22.873-49.434-46.725
			C297.234,293.409,308.487,295.242,328.579,321.937z"/>
		<path fill="#6E5650" d="M343.3,327.11c-23.997-26.417-33.348-23.547-49.434-46.725C312.143,298.957,323.208,300.415,343.3,327.11z
			"/>
		<path fill="#614B47" d="M292.919,338.692c-28.053-31.831-22.746-32.9-19.706-59.169
			C272.263,297.391,278.798,315.849,292.919,338.692z"/>
		<path fill="#614B47" d="M305.014,379.048c-23.146-21.12-25.574-18.787-28.906-50.607
			C283.206,348.025,288.276,358.162,305.014,379.048z"/>
		<path fill="#6E5650" d="M283.359,380.677c-7.474-20.335-8.777-29.229-10.831-53.105
			C277.898,335.614,274.532,349.55,283.359,380.677z"/>
		<path fill="#4D3C38" d="M357.126,251.424c-30.093-21.532-77.745-0.899-90.412,4.324c-1.566-25.595,25.057-34.361,42.581-30.771
			c-7.623,0.932-15.033,3.188-21.504,7.321C311.399,223.791,333.692,226.134,357.126,251.424z"/>
		<path fill="#57433F" d="M377.753,405.88c3.151-42.219-4.549-71.093-26.881-95.079C369.2,344.75,377.049,365.837,377.753,405.88z"
			/>
		<path fill="#211918" d="M395.059,327.268c-11.055-34.683-25.827-55.233-51.551-66.233
			C361.885,283.402,375.242,297.529,395.059,327.268z"/>
		<path fill="#614B47" d="M384.472,370.795c-5.059-29.883-4.134-48.7-31.648-66.873C371.251,328.186,373.38,341.428,384.472,370.795
			z"/>
		<path fill="#211918" d="M403.084,354.995c-16.726-40.631-22.835-42.96-43.363-52.558
			C379.024,319.467,390.365,331.361,403.084,354.995z"/>
		<path fill="#4D3C38" d="M374.667,302.668c-12.005-16.815-24.887-39.876-52.714-49.689c9.939-0.794,10.214-3.838,20.365-3.309
			c-28.014-10.188-56.578-0.808-72.211,6.57c25.347-3.231,45.576,8.462,69.122,31.281l-18.001-21.616
			C336.136,271.454,351.358,282.122,374.667,302.668z"/>
		<path fill="#6E5650" d="M353.397,258.343c-19.766-14.362-44.913-17.02-66.53-7.228
			C308.985,246.818,332.354,249.517,353.397,258.343z"/>
		<path fill="#614B47" d="M356.204,310.68c-7.575-24.13-25.663-42.327-48.433-49.216C327.462,272.98,344.449,289.872,356.204,310.68
			z"/>
		<path fill="#614B47" d="M333.92,261.632c-21.944-16.021-41.796-13.483-63.112-5.787
			C292.813,254.018,307.971,255.574,333.92,261.632z"/>
		<path fill="#57433F" d="M364.578,311.25c-5.972-17.332-9.177-30.929-39.37-42.776C343.096,279.081,349.857,292.598,364.578,311.25
			z"/>
		<path fill="#57433F" d="M322.465,238.729c-16.961-2.464-32.007-6.49-55.776,16.071
			C284.238,245.859,302.938,240.12,322.465,238.729z"/>
		<path fill="#211918" d="M350.166,243.798c-19.766-14.362-44.913-17.02-66.717-7.604
			C305.942,232.647,328.774,235.169,350.166,243.798z"/>
		<path fill="#4D3C38" d="M298.794,224.645c-22.706,2.222-33.871,10.449-31.291,27.288
			C268.741,238.235,286.64,229.097,298.794,224.645z"/>
		<path fill="#57433F" d="M351.093,433.443c-22.77-20.369-48.493-17.888-63.328-47.55
			C304.116,425.773,316.845,416.182,351.093,433.443z"/>
		<path fill="#614B47" d="M262.031,408.119c-11.755-20.808-15.724-29.642-19.456-63.162l10.128,26.541
			c-15.501-61.542-10.971-78.542,5.362-113.276c-19.663,16.393-34.219,37.606-37.985,63.322l6.809-11.545
			c-3.604,11.663-0.574,18.619,2.744,43.225l4.33-11.11C236.281,369.211,241.939,381.424,262.031,408.119z"/>
		<path fill="#6E5650" d="M245.92,383.992c-9.201-18.398-11.468-30.118-8.228-62.277
			C242.011,330.351,235.779,350.237,245.92,383.992z"/>
		<path fill="#6E5650" d="M222.758,315.218c4.267-20.221,9.674-30.976,31.502-52.923
			C252.383,272.02,235.774,282.838,222.758,315.218z"/>
		<path fill="#614B47" d="M294.714,413.265c-32.372-26.987-32.547-33.628-33.788-60.369
			C270.303,377.934,277.464,393.151,294.714,413.265z"/>
		<path fill="#6E5650" d="M289.394,407.12c-13.595-16.4-17.889-24.087-27.191-46.279C269.651,366.748,271.267,380.76,289.394,407.12
			z"/>
		<path fill="#6E5650" d="M235.074,296.714c-1.751,14.469,2.017,29.192-4.352,50.6C228.605,327.806,228.29,309.208,235.074,296.714z
			"/>
		<path fill="#4D3C38" d="M266.351,248.732c-26.335,12.936-45.31,35.199-50.353,52.97c0.937-25.082,16.194-46.691,38.937-54.231
			l-9.776,0.221C250.691,241.682,263.509,242.151,266.351,248.732z"/>
		<path fill="#6E5650" d="M219.677,292.885c4.267-20.221,17.547-35.9,43.657-43.895
			C250.179,255.932,229.114,273.116,219.677,292.885z"/>
		<path fill="#4D3C38" d="M399.743,358.684c-0.26-23.348,1.801-61.409-35.526-100.267l15.55,9.681
			c-16.056-31.205-56.4-31.229-87.609-24.507c29.932,14.132,41.33,20.51,55.023,47.778l-3.623-16.079
			c29.54,51.168,35.681,91.531,28.283,124.972c11.998-23.352,14.646-59.451,3.206-84.479
			C389.951,337.847,392.236,332.262,399.743,358.684z"/>
		<path fill="#57433F" d="M374.117,409.475c0.362-19.943-4.484-35.022-22.698-57.962c0,0,15.347,15.411,17.338,16.695
			c-11.981-29.347-24.788-49.561-55.606-58.167c0.627,10.238,0.815,24.093,1.792,34.134c2.668,26.899,26.626,31.673,41.073,53.37
			c-7.349-15.592-9.69-16.678-18.953-30.708C352.948,382.425,366.718,391.986,374.117,409.475z"/>
		<path fill="#614B47" d="M382.097,334.862c0.239,15.753,2.005,35.458-6.355,55.582C388.358,369.844,390.36,351.383,382.097,334.862
			z"/>
		<path fill="#614B47" d="M351.295,360.249c6.948,13.892,19.241,21.398,19.293,50.255
			C376.343,386.072,365.978,370.739,351.295,360.249z"/>
		<path fill="#614B47" d="M387.972,388.657c-5.06-43.363-10.493-47.037-31.335-61.754
			C371.784,348.204,380.698,362.432,387.972,388.657z"/>
		<path fill="#614B47" d="M336.446,323.373c5.521,13.735,17.763,19.343,28.442,39.796
			C359.604,338.227,345.472,335.13,336.446,323.373z"/>
		<path fill="#6E5650" d="M365.204,395.248c-0.94-15.357-0.866-25.991-15.148-34.781
			C359.031,370.326,360.796,376.551,365.204,395.248z"/>
		<path fill="#614B47" d="M366.555,392.559c-31.37-29.477-39.444-32.143-49.323-76.156c4.194,3.892,17.762,5.863,36.516,42.461
			c-10.377-9.068-13.119-11.854-15.435-11.991C346.738,362.82,356.215,378.174,366.555,392.559z"/>
		<path fill="#57433F" d="M378.443,344.446c-37.28-51.177-58.498-66.645-90.944-82.998c9.515,23.517,5.135,46.209,26.867,74.385
			c-1.428-13.637-4.095-27.057-8.702-39.863c22.695,17.523,38.291,15.461,71.704,75.08c-4.708-16.601-22.997-42.387-31.372-56.437
			L378.443,344.446z"/>
		<path fill="#614B47" d="M351.003,302.16c-23.009-36.122-29.255-36.93-54.052-39.786
			C319.307,273.829,333.239,282.816,351.003,302.16z"/>
		<path fill="#614B47" d="M371.859,337.57c-23.009-36.122-48.558-53.96-73.306-68.398
			C324.014,290.429,348.45,313.229,371.859,337.57z"/>
		<path fill="#614B47" d="M345.045,319.002c-28.604-25.743-37.954-22.873-49.434-46.725
			C313.7,290.473,324.953,292.307,345.045,319.002z"/>
		<path fill="#6E5650" d="M359.766,324.174c-23.997-26.417-33.348-23.547-49.434-46.725
			C328.609,296.021,339.674,297.48,359.766,324.174z"/>
		<path fill="#614B47" d="M370.983,254.598c-28.176-23.986-77.394-7.431-90.455-3.291c0.591-25.636,27.857-32.133,45.017-27.083
			c-7.674,0.288-15.248,1.913-22.043,5.488C327.74,223.219,349.757,227.428,370.983,254.598z"/>
		<path fill="#57433F" d="M387.77,378.535c3.151-42.219-4.549-71.093-26.881-95.079C379.216,317.405,387.066,338.491,387.77,378.535
			z"/>
		<path fill="#614B47" d="M398.71,331.715c-6.648-34.856-18.321-56.603-41.329-70.615
			C372.249,285.076,383.286,300.452,398.71,331.715z"/>
		<path fill="#614B47" d="M394.182,368.123c-0.099-30.308,3.894-48.719-20.273-71.152
			C388.115,323.925,388.047,337.337,394.182,368.123z"/>
		<path fill="#614B47" d="M397.846,360.23c-4.419-42.634-9.339-46.548-25.405-61.35C385.432,320.257,392.566,334.577,397.846,360.23
			z"/>
		<path fill="#614B47" d="M391.133,299.733c-12.005-16.815-24.887-39.876-52.714-49.689c9.939-0.794,10.214-3.838,20.365-3.309
			c-28.014-10.188-56.578-0.808-72.211,6.57c25.347-3.231,45.576,8.462,69.122,31.281l-18.001-21.616
			C352.602,268.519,367.824,279.186,391.133,299.733z"/>
		<path fill="#4D3C38" d="M369.863,255.408c-19.766-14.362-44.913-17.02-66.53-7.228
			C325.451,243.882,348.821,246.581,369.863,255.408z"/>
		<path fill="#614B47" d="M372.67,307.745c-7.575-24.13-25.663-42.327-48.433-49.216
			C343.928,270.044,360.915,286.937,372.67,307.745z"/>
		<path fill="#4D3C38" d="M350.386,258.696c-21.944-16.021-41.796-13.483-63.112-5.787
			C309.279,251.083,324.437,252.639,350.386,258.696z"/>
		<path fill="#57433F" d="M381.044,308.315c-5.972-17.332-9.177-30.929-39.37-42.776
			C359.562,276.145,366.323,289.662,381.044,308.315z"/>
		<path fill="#57433F" d="M338.931,235.793c-16.961-2.464-32.007-6.49-55.776,16.071
			C300.704,242.923,319.404,237.184,338.931,235.793z"/>
		<path fill="#57433F" d="M364.688,246.414c-18.489-15.972-43.323-20.735-65.842-13.185
			C321.558,231.585,344.097,236.017,364.688,246.414z"/>
		<path fill="#4D3C38" d="M315.26,221.71c-22.706,2.222-33.871,10.449-31.291,27.288C285.207,235.3,303.106,226.162,315.26,221.71z"
			/>
		<path fill="#57433F" d="M299.043,388.745c-10.628-18.555-12.218-18.14-17.94-39.464l4.306,1.421
			c-14.847-23.396-21.544-27.801-23.587-57.942c-4.83,19.095-10.362,38.585-14.654,57.858c3.867-8.441,8.46-16.329,13.592-24.04
			c2.192,22.353,3.132,37.711,11.708,59.35c-3.281-16.443-2.843-20.06-2.406-37.157C282.269,373.176,280.04,369.62,299.043,388.745z
			"/>
		<path fill="#4D3C38" d="M260.405,427.4c-16.098-16.913-43.3-43.447-46.371-99.005l-2.565,17.335
			c-12.896-43.755,17.119-65.508,44.68-85.877c-18.11,34.774-21.462,69.403-10.432,103.138c3.856,11.304,5.708,0.63,8.737-5.893
			c6.236,34.033,40.26,69.716,55.995,79.612c-27.201-13.054-55.253-31.405-65.031-58.144
			C250.239,406.177,247.473,402.442,260.405,427.4z"/>
		<path fill="#614B47" d="M259.63,270.407c8.751,14.801-5.356,26.131-9.447,52.994C244.537,304.922,255.751,285.113,259.63,270.407z
			"/>
		<path fill="#614B47" d="M306.643,413.824c11.504,11.321,28.527,9.417,38.48,29.317
			C341.992,418.91,319.749,418.464,306.643,413.824z"/>
		<path fill="#614B47" d="M345.385,432.882c-11.231-41.324-32.635-30.208-43.025-46.491
			C317.007,415.678,330.199,403.418,345.385,432.882z"/>
		<path fill="#614B47" d="M276.899,378.614c16.498,5.133,20.793,26.299,47.605,31.388
			C298.031,410.981,288.617,404.739,276.899,378.614z"/>
		<path fill="#614B47" d="M277.589,397.964c-21.607-36.913-19.818-43.219-12.309-68.639
			C265.983,355.888,267.861,373.123,277.589,397.964z"/>
		<path fill="#6E5650" d="M346.937,437.783c-6.773-20.731-10.73-35.83-33.474-41.77C329.01,405.534,333.843,413.398,346.937,437.783
			z"/>
		<path fill="#6E5650" d="M317.318,393.837c-17.75-12.129-26.588-23.51-28.205-51.003
			C292.307,362.697,302.397,381.075,317.318,393.837z"/>
		<path fill="#614B47" d="M284.006,338.014c-11.831-23.654-14.335-37.647-18.73-62.609
			C271.886,296.709,279.923,304.691,284.006,338.014z"/>
		<path fill="#6E5650" d="M278.485,324.279c-11.83-23.654-8.626-23.537-12.859-49.072
			C269.521,294.674,269.67,286.887,278.485,324.279z"/>
		<path fill="#614B47" d="M284.282,348.45c-28.053-31.831-22.746-32.9-19.706-59.169
			C263.626,307.148,270.161,325.607,284.282,348.45z"/>
		<path fill="#614B47" d="M296.377,388.805c-23.146-21.12-25.574-18.787-28.906-50.607
			C274.569,357.782,279.64,367.92,296.377,388.805z"/>
		<path fill="#6E5650" d="M274.722,390.434c-7.474-20.335-8.777-29.229-10.831-53.105
			C269.261,345.372,265.895,359.308,274.722,390.434z"/>
		<path fill="#57433F" d="M342.457,443.201c-22.77-20.369-48.493-17.888-63.328-47.55
			C295.479,435.53,308.208,425.939,342.457,443.201z"/>
		<path fill="#614B47" d="M253.395,417.876c-11.755-20.808-15.724-29.642-19.456-63.162l10.128,26.541
			c-15.501-61.542-10.971-78.542,5.362-113.276c-19.663,16.393-34.219,37.606-37.985,63.322l6.809-11.545
			c-3.604,11.663-0.574,18.619,2.744,43.225l4.33-11.11C227.644,378.969,233.303,391.181,253.395,417.876z"/>
		<path fill="#6E5650" d="M237.283,393.749c-9.201-18.398-11.468-30.118-8.228-62.277
			C233.374,340.108,227.142,359.995,237.283,393.749z"/>
		<path fill="#6E5650" d="M214.121,324.976c4.267-20.221,9.674-30.976,31.502-52.923
			C243.747,281.778,227.137,292.596,214.121,324.976z"/>
		<path fill="#614B47" d="M286.078,423.022c-32.372-26.987-32.547-33.628-33.788-60.369
			C261.666,387.692,268.827,402.908,286.078,423.022z"/>
		<path fill="#6E5650" d="M280.757,416.878c-13.595-16.4-17.889-24.087-27.191-46.279
			C261.015,376.505,262.63,390.518,280.757,416.878z"/>
		<path fill="#6E5650" d="M226.437,306.471c-1.751,14.469,2.017,29.192-4.352,50.6C219.968,337.564,219.654,318.965,226.437,306.471
			z"/>
		<path fill="#4D3C38" d="M254.071,258.284c-24.799,15.681-41.282,39.847-44.394,58.056c-1.753-25.038,11.103-48.156,32.909-58.087
			l-9.696,1.266C237.747,252.95,250.541,252.045,254.071,258.284z"/>
		<path fill="#614B47" d="M268.327,406.32c16.498,5.133,20.793,26.299,47.605,31.388
			C289.458,438.687,280.045,432.445,268.327,406.32z"/>
		<path fill="#614B47" d="M375.359,403.243c23.527-35.925,21.791-42.496,15.519-68.167
			C388.759,361.647,386.447,378.546,375.359,403.243z"/>
		<path fill="#4D3C38" d="M260.786,255.348c-24.799,15.681-41.282,39.847-44.394,58.056c-1.753-25.038,11.103-48.157,32.909-58.087
			l-9.696,1.266C244.461,250.015,257.256,249.109,260.786,255.348z"/>
		<path fill="#6E5650" d="M212.392,307.179c2.078-20.562,13.603-37.572,38.707-48.316
			C238.763,267.174,219.658,286.514,212.392,307.179z"/>
		<path fill="#614B47" d="M259.764,428.874c-16.549-17.242-22.585-24.815-34.515-56.362l16.395,23.199
			c-30.282-55.774-30.111-73.366-22.904-111.066c-14.982,20.758-23.821,44.919-21.091,70.765l3.732-12.873
			c-0.598,12.192,4.062,18.179,13.38,41.193l1.439-11.837C225.167,397.571,233.678,407.998,259.764,428.874z"/>
		<path fill="#6E5650" d="M238.171,409.498c-13.477-15.541-18.58-26.332-23.419-58.29
			C221.078,358.503,219.974,379.314,238.171,409.498z"/>
		<path fill="#6E5650" d="M206.014,327.638c1.893,14.451,9.195,27.779,8.335,50.098C207.46,359.364,202.542,341.424,206.014,327.638
			z"/>
		<path fill="#614B47" d="M395.088,347.423l3.817,11.297c4.441-24.428,7.786-31.238,4.719-43.054l6.274,11.845
			c-2.585-25.861-16.155-47.718-35.047-64.994c14.726,35.445,18.474,52.635,0.172,113.403l11.332-26.05
			c-5.262,33.314-9.631,41.957-22.326,62.205C385.322,386.327,391.534,374.386,395.088,347.423z"/>
		<path fill="#6E5650" d="M392.298,326.875c1.765,32.274-1.036,43.878-11.069,61.835
			C392.903,355.455,387.588,335.304,392.298,326.875z"/>
		<path fill="#6E5650" d="M398.089,352.766c-5.383-21.677-0.945-36.212-2.032-50.746
			C402.261,314.811,401.096,333.376,398.089,352.766z"/>
	</g>
	<path fill="#34507D" d="M435.285,387.585c-11.092,1.913-21.802,3.825-32.13,5.738c14.152-4.973,40.163-14.535,47.813-22.185
		l3.443,11.092C448.29,384.907,441.788,386.438,435.285,387.585z"/>
</g>
</svg>
