<?xml version="1.0" encoding="utf-8"?>
<!-- Generator: Adobe Illustrator 17.0.0, SVG Export Plug-In . SVG Version: 6.00 Build 0)  -->
<!DOCTYPE svg PUBLIC "-//W3C//DTD SVG 1.1//EN" "http://www.w3.org/Graphics/SVG/1.1/DTD/svg11.dtd">
<svg version="1.1" id="Capa_1" xmlns="http://www.w3.org/2000/svg" xmlns:xlink="http://www.w3.org/1999/xlink" x="0px" y="0px"
	 width="378px" height="376px" viewBox="0 0 378 376" enable-background="new 0 0 378 376" xml:space="preserve">
<g>
	<g display="none">
		<path display="inline" fill="#2B446A" stroke="#243959" stroke-width="3" stroke-miterlimit="10" d="M253.072,279.956
			c-15.12-3.604-24.193-7.495-29.222-7.795c-1.578,2.14-0.276,4.988-0.863,7.257c-3.373,13.103-21.154,30.915-33.552,36.455
			c-12.394-5.54-30.179-23.351-33.552-36.455c-0.583-2.269,0.719-5.117-0.863-7.257c-5.025,0.3-14.098,4.191-29.222,7.795
			c-19.239,4.58-35.655,7.313-33.644,38.194l83.52,3.767h27.525h85.446C290.659,291.036,272.314,284.535,253.072,279.956z"/>
		<path display="inline" fill="#2B446A" stroke="#243959" stroke-width="3" stroke-miterlimit="10" d="M253.072,279.956
			c-15.12-3.604-24.193-7.495-29.222-7.795c-1.578,2.14-0.276,4.988-0.863,7.257c-3.373,13.103-21.154,30.915-33.552,36.455
			c-12.394-5.54-30.179-23.351-33.552-36.455c-0.583-2.269,0.719-5.117-0.863-7.257c-5.025,0.3-14.098,4.191-29.222,7.795
			c-19.239,4.58-48.345,6.105-46.335,36.987l66.089,28.938h86.426l67.379-28.938C301.372,286.062,272.314,284.535,253.072,279.956z"
			/>
	</g>
	<circle fill="#FFFFFF" cx="188.886" cy="189.929" r="163.828"/>
	<g>
		<g>
			<g>
				<g>
					<g>
						<defs>
							<circle id="SVGID_1_" cx="189.935" cy="189.859" r="163.828"/>
						</defs>
						<clipPath id="SVGID_2_">
							<use xlink:href="#SVGID_1_"  overflow="visible"/>
						</clipPath>
						<g clip-path="url(#SVGID_2_)">
							<path display="none" fill="#010002" d="M-119.546,136.213c-2.751-12.932-9.464-24.614-19.106-33.406
								c2.005,0.947,3.904,2.124,5.676,3.52c0.249,0.196,0.561,0.305,0.879,0.305c0.514,0,0.987-0.273,1.235-0.711
								c0.242-0.431,0.229-0.948-0.035-1.383l-0.16-0.263c-4.13-6.794-8.402-13.819-14.603-19.069
								c-5.621-4.758-12.479-7.136-19.211-8.984c2.572-1.571,5.59-2.418,8.703-2.418c3.513,0,6.886,1.043,9.755,3.017
								c0.259,0.178,0.558,0.272,0.866,0.272c0.572,0,1.106-0.322,1.395-0.841c0.285-0.511,0.275-1.106-0.026-1.592
								c-1.668-2.694-4.73-5.165-9.103-7.346c-5.638-2.812-12.341-4.239-19.92-4.239c-2.301,0-4.686,0.132-7.132,0.395
								c6.43-4.601,11.423-11.314,15.929-17.372l0.717-0.963c0.357-0.478,0.415-1.072,0.156-1.588
								c-0.275-0.547-0.862-0.901-1.495-0.901c-0.385,0-0.756,0.136-1.045,0.382c-6.028,5.141-13.827,5.159-22.085,5.178
								c-7.693,0.018-15.602,0.037-21.887,4.606c2.439-3.274,4.858-6.563,7.223-9.778l2.307-3.134
								c0.312-0.423,0.362-0.97,0.13-1.427c-0.242-0.478-0.753-0.787-1.304-0.787c-0.333,0-0.657,0.116-0.911,0.325
								c-2.867,2.37-5.557,4.247-8.224,5.737c-1.68,0.939-3.419,1.658-5.261,2.42c-0.863,0.357-1.755,0.726-2.633,1.117
								c-3.449,1.536-5.875,3.678-7.048,6.139c-0.896-3.614-0.11-7.657,0.823-11.557c0.106-0.445,0.004-0.906-0.281-1.267
								c-0.29-0.367-0.739-0.586-1.2-0.586c-0.544,0-1.038,0.307-1.288,0.801c-1.049,2.07-2.262,3.77-3.709,5.198
								c-0.511,0.505-1.085,0.964-1.692,1.45c-0.986,0.789-2.004,1.606-2.818,2.679c-2.068,2.73-1.774,5.82-1.11,8.812
								c-3.1-1.307-6.527-1.991-10.012-1.991c-6.074,0-12.099,2.012-16.967,5.666c-0.541,0.406-0.756,1.123-0.535,1.784
								c0.205,0.615,0.742,1.011,1.369,1.011c0.19,0,0.381-0.037,0.566-0.11c1.572-0.622,3.213-0.937,4.88-0.937
								c1.824,0,3.601,0.383,5.225,1.11h-0.008c-17.596,0-31.093,13.82-39.317,25.413c-0.296,0.417-0.335,0.956-0.102,1.407
								c0.242,0.469,0.739,0.771,1.267,0.771c0.368,0,0.715-0.144,0.975-0.406c2.176-2.187,4.671-3.842,7.394-4.925
								c-12.63,7.218-17.127,24.204-16.933,39.116c0.01,0.784,0.643,1.399,1.44,1.399c0.068,0,0.136-0.005,0.201-0.014
								c-1.117,7.041-0.099,14.6,1.142,21.915c0.113,0.669,0.665,1.136,1.342,1.136c0.315,0,0.607-0.1,0.845-0.27
								c0.342,2.975,0.906,5.921,1.461,8.816c1.225,6.394,2.382,12.434,1.35,18.614c-0.034,0.21-0.014,0.42,0.058,0.613
								l-0.002,0.138c-0.062,0.063-0.12,0.131-0.17,0.205c-3.852,3.266-5.545,9.203-5.032,17.651
								c0.188,3.101,0.446,7.349,2.376,10.472c1.461,2.366,4.035,3.976,6.306,5.397c0.68,0.425,1.321,0.826,1.915,1.234
								c0.324,0.222,0.684,0.478,1.073,0.754c2.68,1.903,6.731,4.778,10.225,4.778c0.658,0,1.275-0.1,1.845-0.299
								c0.79,1.424,1.684,2.774,2.667,4.025c8.942,11.38,25.3,25.175,44.639,30.161c-0.093,0.618-0.249,1.176-0.474,1.687
								c-0.011,0-0.022,0-0.033,0c-0.08,0-0.208,0.014-0.288,0.031c-0.287,0.063-0.622,0.154-0.97,0.248
								c-0.543,0.148-1.287,0.35-1.64,0.35c-0.001,0-0.001,0-0.001,0c-0.435-0.016-1.018-0.211-1.582-0.4
								c-0.326-0.109-0.643-0.214-0.937-0.292c-0.504-0.133-1.008-0.271-1.512-0.41c-2.544-0.7-5.175-1.425-7.937-1.425
								c-0.196,0-0.393,0.004-0.59,0.011c-2.939,0.112-5.977,0.956-8.784,2.44c-4.108,2.173-6.761,5.593-9.103,8.61
								c-1.573,2.028-3.136,4.113-4.646,6.129c-1.585,2.115-3.223,4.302-4.872,6.418c-1.29,1.657-2.688,3.285-4.039,4.859
								c-2.019,2.352-4.106,4.783-5.926,7.408c-0.014,0.02-0.052,0.079-0.057,0.087c-0.266,0.411-0.286,0.933-0.052,1.363
								c0.171,0.315,0.46,0.552,0.793,0.667c0.804,0.973,2.579,2.826,5.174,3.89c-1.036,2.885-2.063,5.868-3.058,8.883
								c-2.419,7.329-2.858,13.995-1.303,19.826c-0.037,0.087-0.065,0.175-0.086,0.262c-0.146,0.607,0.08,1.131,0.229,1.479
								c0.026,0.061,0.052,0.119,0.072,0.175c0.121,0.337,0.265,0.684,0.411,1.035c0.259,0.622,0.527,1.265,0.632,1.829
								c0.132,0.71,0.202,1.414,0.275,2.16c0.126,1.278,0.256,2.598,0.722,3.962c1.134,3.322,3.424,5.195,6.622,5.417
								c0.251,0.017,0.503,0.026,0.756,0.026c0.94,0,1.937-0.119,2.963-0.354c0.198-0.045,0.4-0.067,0.618-0.067
								c0.607,0,1.262,0.177,1.956,0.364c0.39,0.105,0.786,0.212,1.191,0.296c2.709,0.563,5.455,0.925,8.177,1.078
								c0,0.005,0.014,0.604,0.018,0.898c0.097,6.321,0.318,11.566,0.694,16.507c0.145,1.902,0.304,3.603,0.487,5.202
								c0.038,0.336,0.107,0.689,0.181,1.062c0.117,0.597,0.262,1.341,0.186,1.716c-0.158,0.782-0.656,1.708-1.137,2.604
								c-0.248,0.46-0.504,0.937-0.709,1.389l-4.495,9.89c-0.177,0.389-0.176,0.831,0.004,1.214c0.183,0.39,0.531,0.68,0.955,0.796
								c0.833,0.227,1.702,0.517,2.638,0.881c-2.497,9.816-3.299,20.273-2.322,30.331c-0.201,0.147-0.397,0.269-0.591,0.368
								c-0.425,0.217-0.696,0.664-0.706,1.169c-0.405,17.891,1.878,37.544,6.981,60.082c0.554,2.443,1.197,4.896,1.819,7.267
								c0.516,1.967,1.048,4,1.524,6.005c0.201,0.846,0.274,1.958,0.345,3.033c0.031,0.47,0.062,0.934,0.102,1.373l0.395,4.291
								c0.014,0.149,0.02,0.283,0.025,0.404c0.031,0.645,0.068,1.447,1.092,2.164c0.841,0.59,1.741,1.158,2.739,1.728
								c0.058,1.652,0.137,3.317,0.213,4.934c0.072,1.533,0.144,3.064,0.2,4.592c0.016,0.422,0.032,0.845,0.049,1.268
								c-0.214,0.094-0.403,0.238-0.55,0.426c-1.122,1.433-2.131,3.775-1.602,6.049c0.172,0.737,0.488,1.428,0.938,2.052
								c0.208,0.289,0.475,0.514,0.69,0.694c0.075,0.064,0.184,0.156,0.237,0.209c0.106,0.273,0.145,0.876,0.17,1.282
								c0.02,0.316,0.041,0.615,0.077,0.864l0.803,5.444c0.595,4.084,0.083,8.279-1.478,12.198
								c-1.295-0.409-2.815-0.609-4.609-0.609c-1.072,0-2.234,0.072-3.553,0.22c-3.291,0.369-5.77,1.205-7.544,2.546
								c-0.637-0.249-1.325-0.375-2.052-0.375c-0.806,0-1.669,0.156-2.565,0.464c-1.542,0.531-2.798,1.573-3.538,2.934
								c-0.789,1.452-0.883,3.086-0.256,4.484c0.697,1.559,2.101,2.572,3.339,3.467c0,0,0.464,0.337,0.59,0.431
								c-1.204,0.256-2.376,0.7-3.436,1.308c-1.271,0.726-2.393,1.667-3.479,2.578c-1.84,1.543-3.578,3-5.586,3
								c-0.203,0-0.41-0.015-0.617-0.044c-0.098-0.014-0.194-0.02-0.287-0.02c-0.291,0-0.573,0.064-0.828,0.186
								c-0.276-0.038-0.578-0.094-0.819-0.14l-0.286-0.053c-0.106-0.019-0.21-0.028-0.311-0.028c-0.669,0-1.246,0.387-1.505,1.013
								c-0.166,0.402-0.172,0.842-0.039,1.236c-0.239,0.056-0.477,0.121-0.714,0.199c-1.069,0.051-2.568,0.308-3.894,1.655
								c-1.142,1.16-1.859,2.74-2.13,4.694c-0.522,3.754-0.153,6.617,1.128,8.732c0.004,0.022,0.009,0.045,0.014,0.068l0.301,1.261
								l-0.245,1.723c-0.044,0.308,0.043,0.62,0.239,0.861c0.231,0.285,5.808,7.016,18.685,10.898
								c3.249,0.98,6.749,1.477,10.402,1.477c9.659,0,17.183-3.402,17.498-3.547c0.221-0.101,0.404-0.274,0.519-0.488
								c0.015-0.027,1.496-2.75,3.933-4.157c0.385-0.223,0.773-0.331,1.185-0.331c1.542,0,2.895,1.506,2.905,1.517
								c0.216,0.247,0.524,0.383,0.842,0.383c0.101,0,0.202-0.014,0.302-0.042c4.855-1.362,13.755-5.312,15.555-7.607
								c1.137-1.45,1.685-3.934,1.943-5.757c0.259,1.823,0.807,4.309,1.943,5.757c1.801,2.295,10.701,6.245,15.555,7.607
								c0.099,0.028,0.199,0.041,0.299,0.041c0.316,0,0.626-0.135,0.842-0.379c0.014-0.015,1.366-1.52,2.908-1.52
								c0.412,0,0.8,0.108,1.185,0.33c2.436,1.407,3.919,4.13,3.933,4.156c0.115,0.216,0.297,0.388,0.52,0.49
								c0.315,0.145,7.84,3.547,17.498,3.547c3.652,0,7.153-0.497,10.402-1.477c12.876-3.883,18.453-10.613,18.685-10.898
								c0.196-0.242,0.283-0.554,0.239-0.861l-0.245-1.723l0.301-1.261c0.005-0.022,0.01-0.045,0.014-0.068
								c1.281-2.115,1.65-4.977,1.128-8.732c-0.272-1.954-0.988-3.533-2.13-4.694c-1.325-1.347-2.824-1.604-3.893-1.655
								c-0.236-0.077-0.475-0.142-0.714-0.199c0.132-0.393,0.126-0.834-0.039-1.237c-0.259-0.624-0.835-1.011-1.505-1.011
								c-0.101,0-0.205,0.009-0.313,0.029l-0.287,0.053c-0.239,0.045-0.541,0.101-0.817,0.139c-0.255-0.121-0.537-0.186-0.828-0.186
								c-0.093,0-0.189,0.007-0.288,0.02c-0.206,0.029-0.413,0.044-0.616,0.044c-2.008,0.001-3.746-1.457-5.596-3.009
								c-1.083-0.907-2.202-1.846-3.468-2.569c-1.061-0.607-2.233-1.052-3.436-1.308c0.126-0.094,0.59-0.431,0.59-0.431
								c1.238-0.895,2.642-1.908,3.339-3.467c0.626-1.398,0.532-3.032-0.256-4.484c-0.74-1.362-1.997-2.404-3.539-2.935
								c-0.896-0.308-1.758-0.464-2.565-0.464c-0.727,0-1.415,0.126-2.052,0.375c-1.774-1.341-4.253-2.177-7.545-2.546
								c-1.319-0.148-2.48-0.22-3.552-0.22c-1.794,0-3.314,0.2-4.609,0.609c-1.562-3.919-2.073-8.114-1.478-12.198
								c0.163-1.117,0.328-2.232,0.493-3.349l0.309-2.096c0.037-0.249,0.057-0.548,0.077-0.864c0.026-0.406,0.064-1.01,0.17-1.282
								c0.053-0.054,0.162-0.146,0.238-0.21c0.214-0.181,0.48-0.405,0.689-0.693c0.452-0.626,0.768-1.317,0.939-2.053
								c0.53-2.275-0.48-4.617-1.602-6.049c-0.147-0.188-0.335-0.333-0.549-0.427c0.017-0.423,0.033-0.846,0.049-1.268
								c0.056-1.521,0.128-3.046,0.2-4.574c0.075-1.584,0.151-3.216,0.209-4.835c0.135-0.065,0.28-0.134,0.432-0.205
								c1.356-0.637,3.042-1.43,3.58-2.697c0.331-0.782,0.341-1.772,0.35-2.645c0.003-0.336,0.006-0.652,0.028-0.891
								c0.066-0.722,0.11-1.459,0.155-2.2c0.086-1.427,0.174-2.902,0.434-4.253c0.395-2.052,0.987-4.149,1.56-6.178
								c0.417-1.476,0.848-3.003,1.205-4.517c2.06-8.723,3.752-17.504,5.027-26.099c2.005-13.511,2.855-25.55,2.601-36.811
								c-0.013-0.486-0.295-0.927-0.734-1.152c-0.186-0.095-0.373-0.211-0.564-0.35c0.986-10.163,0.155-20.724-2.404-30.631
								c0.648-0.227,1.283-0.427,1.898-0.595c0.399-0.109,0.733-0.393,0.915-0.782c0.179-0.38,0.185-0.81,0.018-1.178l-6.037-13.283
								c-0.052-0.116-0.122-0.244-0.196-0.378c-0.055-0.1-0.148-0.266-0.159-0.289c-0.067-0.504,0.095-1.305,0.238-2.012
								c0.091-0.452,0.185-0.92,0.232-1.353c0.678-6.265,0.909-12.595,1.035-17.41c0.017-0.657,0.046-1.321,0.075-1.989
								c0.035-0.809,0.07-1.637,0.086-2.467c2.129-0.095,4.163-0.342,6.188-0.75c1.674-0.337,3.364-0.854,5.478-1.677
								c0.93-0.361,1.518-0.406,2.588-0.489l0.523-0.04c2-0.146,5.347-0.391,6.285-2.75c0.39-0.979,0.283-2.117,0.197-3.032
								c-0.017-0.179-0.033-0.353-0.045-0.516l-0.079-1.122c-0.104-1.44-0.211-2.929-0.23-4.384
								c-0.019-1.438,0.096-2.847,0.218-4.338c0.091-1.101,0.184-2.239,0.216-3.381c0.077-2.715-0.302-5.343-0.683-7.556
								c-0.329-1.912-0.715-3.837-1.087-5.698c-0.635-3.173-1.292-6.454-1.669-9.653c-0.009-0.134-0.017-0.273-0.026-0.415
								c5.147-0.735,8.103-5.063,8.235-5.26c0.174-0.26,0.231-0.58,0.158-0.884c-0.039-0.161-0.113-0.31-0.214-0.436
								c-0.019-0.034-0.039-0.067-0.061-0.101c-1.734-2.501-3.722-4.81-5.644-7.044c-1.129-1.313-2.297-2.67-3.391-4.041
								c-2.017-2.529-3.993-5.171-5.903-7.726c-1.158-1.548-2.315-3.097-3.489-4.632c-0.249-0.325-0.496-0.651-0.744-0.978
								c-2.198-2.901-4.472-5.902-7.659-7.981c-2.597-1.694-5.476-2.825-8.324-3.27c-0.833-0.13-1.695-0.196-2.562-0.196
								c-2.651,0-5.178,0.607-7.54,1.23c-0.529,0.139-1.082,0.318-1.616,0.49c-1.044,0.337-2.123,0.685-3.116,0.763
								c-0.372,0-1.07-0.191-1.632-0.346c-0.337-0.092-0.664-0.181-0.955-0.246c-0.243-0.548-0.409-1.153-0.502-1.823
								c19.169-5.081,35.372-18.788,44.221-30.051c1.08-1.374,2.055-2.877,2.909-4.483c0.815,0.504,1.757,0.759,2.816,0.759
								c3.493,0,7.543-2.875,10.224-4.778c0.39-0.277,0.75-0.533,1.075-0.756c0.594-0.407,1.236-0.809,1.916-1.234
								c2.27-1.421,4.844-3.031,6.305-5.396c1.929-3.124,2.187-7.371,2.375-10.472c0.534-8.794-1.311-14.86-5.484-18.032
								c-0.326-0.247-0.671-0.476-1.033-0.683c-0.273-2.56,0.638-5.245,1.521-7.847c0.166-0.49,0.331-0.975,0.487-1.457
								c1.184-3.653,1.984-7.114,2.445-10.58c0.524-3.936,0.656-7.83,0.399-11.645c0.918,2.142,1.588,4.416,1.999,6.792
								c0.115,0.667,0.674,1.132,1.358,1.132c0.64,0,1.205-0.42,1.372-1.022c1.75-6.264,1.003-13.24-2.218-20.743
								c1.22,1.423,2.424,2.898,3.603,4.419c0.259,0.334,0.645,0.526,1.059,0.526c0.418,0,0.816-0.194,1.089-0.532
								C-119.565,137.057-119.459,136.627-119.546,136.213z M-261.953,550.984c-0.577-0.486-1.058-1.007-1.115-1.456
								c-0.011-0.089-0.046-0.359,0.35-0.817c0.349-0.404,0.745-0.601,1.211-0.601c0.045,0,0.092,0.002,0.138,0.006
								C-261.672,549.082-261.823,550.07-261.953,550.984z M-162.087,548.11c0.466,0,0.862,0.196,1.211,0.601
								c0.396,0.458,0.362,0.728,0.35,0.817c-0.057,0.45-0.538,0.971-1.114,1.456c-0.131-0.913-0.282-1.902-0.585-2.868
								C-162.18,548.111-162.132,548.11-162.087,548.11z M-211.798,518.876c0.021,0.119,0.043,0.238,0.064,0.357
								c-0.022,0.003-0.043,0.007-0.064,0.01c-0.021-0.004-0.043-0.008-0.064-0.01
								C-211.839,519.114-211.818,518.995-211.798,518.876z M-211.331,548.591c-0.022,0.962,0.237,1.809,0.493,2.51
								c0.44,1.205,0.454,1.73,0.069,2.442c-0.383,0.708-0.724,1.37-1.028,2.004c-0.304-0.635-0.645-1.297-1.028-2.003
								c-0.386-0.714-0.372-1.238,0.069-2.443c0.256-0.701,0.514-1.547,0.493-2.51c-0.049-2.093-1.044-3.764-3.039-5.084
								c0.432-1.812,0.757-3.649,1.071-5.434c0.13-0.741,0.26-1.475,0.396-2.196c0.301-1.605,0.602-3.21,0.908-4.815
								c0.093-0.488,0.161-1.004,0.233-1.551c0.149-1.129,0.303-2.296,0.67-3.095c0.075-0.164,0.152-0.323,0.228-0.479
								c0.076,0.156,0.152,0.315,0.227,0.479c0.367,0.799,0.521,1.966,0.67,3.094c0.072,0.548,0.14,1.065,0.233,1.554
								c0.306,1.604,0.606,3.209,0.907,4.815c0.136,0.722,0.265,1.458,0.397,2.2c0.314,1.783,0.638,3.619,1.07,5.429
								C-210.287,544.827-211.283,546.498-211.331,548.591z"/>
						</g>
					</g>
				</g>
			</g>
		</g>
	</g>
	<g>
		<g>
			<g>
				<defs>
					<circle id="SVGID_3_" cx="188.886" cy="189.859" r="163.828"/>
				</defs>
				<clipPath id="SVGID_4_">
					<use xlink:href="#SVGID_3_"  overflow="visible"/>
				</clipPath>
				<g clip-path="url(#SVGID_4_)">
					<g>
						<g>
							<path fill="#974B1C" d="M237.306,273.674c-7.782-2.065-14.681-4.994-19.202-10.03c-1.935-3.809-2.64-7.979-3.08-11.979
								c-0.385-3.489-0.626-6.977-0.824-10.473c0.017-0.402,0.01-0.791,0.045-1.192c0.331-3.959,1.343-7.373,0.27-10.931
								c-0.764-0.858-1.755-1.629-3.022-2.255c-6.177-3.094-14.906-3.107-22.391-2.576c-7.486-0.532-16.215-0.519-22.391,2.576
								c-1.268,0.626-2.256,1.397-3.019,2.255c-1.077,3.557-0.062,6.971,0.266,10.931c0.033,0.402,0.027,0.79,0.047,1.192
								c-0.201,3.495-0.439,6.984-0.825,10.473c-0.442,4-1.144,8.17-3.08,11.979c-3.435,3.823-8.248,6.433-13.771,8.375v37.348
								c19.574,0,39.146-0.014,58.713-0.014c10.753,0,21.506,0.027,32.265,0.061L237.306,273.674L237.306,273.674z"/>
							<path fill="#E9C6B0" d="M237.306,275.343c-4.807-1.343-9.274-3.019-13.015-5.274c-2.739-1.839-5.226-3.822-6.916-6.187
								c-1.513-2.126-2.732-4.45-3.73-6.848c-2.195-8.647-1.762-17.853-0.75-26.48c-0.249-0.321-0.525-0.626-0.869-0.9
								c-1.209-1.131-2.944-1.935-5.1-2.576c-4.279-1.281-8.868-1.806-13.464-1.956c-0.054,0.027-0.11,0.062-0.17,0.062
								c-0.396-0.02-0.801-0.02-1.199-0.034c-0.034,0.007-0.062,0.034-0.095,0.034c-0.954-0.041-1.925-0.062-2.896-0.082
								c-0.972,0.02-1.939,0.041-2.896,0.082c-0.031,0-0.062-0.027-0.092-0.034c-0.402,0.014-0.805,0.014-1.203,0.034
								c-0.058,0-0.113-0.034-0.17-0.062c-4.596,0.15-9.185,0.675-13.464,1.956c-2.154,0.641-3.89,1.444-5.097,2.576
								c-0.348,0.273-0.623,0.579-0.872,0.9c1.012,8.627,1.448,17.832-0.749,26.48c-0.995,2.398-2.214,4.722-3.731,6.848
								c-1.69,2.365-4.177,4.348-6.916,6.187c-2.282,1.376-4.845,2.535-7.58,3.537v34.622c19.791-0.007,38.86,4.716,58.649,4.716
								c10.531,0,21.79-4.737,32.329-4.771L237.306,275.343L237.306,275.343L237.306,275.343z"/>
							<path fill="#ECCFBC" d="M163.742,258.751c7.199,4.817,19.025,6.405,28.237,5.88c8.064-0.463,15.758-2.331,22.844-5.103
								c-0.426-0.818-0.825-1.642-1.178-2.494c-2.195-8.647-1.762-17.853-0.75-26.48c-0.249-0.321-0.525-0.626-0.869-0.9
								c-1.209-1.131-2.944-1.935-5.1-2.576c-4.279-1.281-8.868-1.806-13.464-1.956c-0.054,0.027-0.11,0.062-0.17,0.062
								c-0.396-0.02-0.801-0.02-1.199-0.034c-0.034,0.007-0.062,0.034-0.095,0.034c-0.954-0.041-1.925-0.062-2.896-0.082
								c-0.972,0.02-1.939,0.041-2.896,0.082c-0.031,0-0.062-0.027-0.092-0.034c-0.402,0.014-0.805,0.014-1.203,0.034
								c-0.058,0-0.113-0.034-0.17-0.062c-4.596,0.15-9.185,0.675-13.464,1.956c-2.154,0.641-3.89,1.444-5.097,2.576
								c-0.348,0.273-0.623,0.579-0.872,0.9c1.012,8.627,1.448,17.832-0.749,26.48C164.314,257.619,164.024,258.185,163.742,258.751
								z"/>
							<g>
								<g>
									<path fill="#974B1C" d="M239.915,273.905c-7.911-2.414-14.925-7.838-19.521-13.724c-1.967-4.453-2.685-9.327-3.131-14.003
										c-0.391-4.078-0.637-8.156-0.838-12.242c0.017-0.471,0.011-0.924,0.045-1.394c0.337-4.628,1.365-8.618,0.274-12.777
										c-0.776-1.003-1.784-1.904-3.072-2.636c-6.28-3.616-15.154-3.632-22.763-3.01c-7.61-0.621-16.484-0.606-22.763,3.01
										c-1.288,0.733-2.294,1.633-3.069,2.636c-1.094,4.158-0.063,8.149,0.27,12.777c0.034,0.47,0.027,0.923,0.048,1.394
										c-0.204,4.085-0.447,8.163-0.838,12.242c-0.449,4.676-1.163,9.55-3.131,14.003c-3.491,4.469-8.386,9.519-14,11.789v41.658
										c19.899,0,39.797-0.017,59.689-0.017c10.932,0,21.863,0.032,32.802,0.072L239.915,273.905L239.915,273.905z"/>
									<path fill="#E9C6B0" d="M239.915,275.856c-4.888-1.57-9.428-5.529-13.232-8.165c-2.785-2.15-5.313-4.468-7.031-7.232
										c-1.538-2.486-2.777-5.201-3.793-8.004c-2.231-10.108-1.791-20.869-0.762-30.953c-0.252-0.375-0.533-0.733-0.883-1.051
										c-1.229-1.322-2.992-2.262-5.185-3.01c-4.35-1.498-9.016-2.111-13.689-2.286c-0.055,0.032-0.111,0.072-0.173,0.072
										c-0.402-0.024-0.814-0.024-1.219-0.04c-0.035,0.008-0.063,0.04-0.097,0.04c-0.97-0.048-1.957-0.072-2.944-0.096
										c-0.987,0.024-1.971,0.047-2.944,0.096c-0.031,0-0.063-0.032-0.093-0.04c-0.41,0.017-0.818,0.017-1.223,0.04
										c-0.059,0-0.114-0.04-0.173-0.072c-4.672,0.175-9.338,0.789-13.689,2.286c-2.189,0.748-3.956,1.688-5.182,3.01
										c-0.353,0.319-0.633,0.677-0.886,1.051c1.029,10.084,1.472,20.845-0.761,30.953c-1.012,2.803-2.252,5.52-3.793,8.004
										c-1.718,2.764-4.246,7.083-7.031,9.232c-2.32,1.609-4.925,2.963-7.706,4.134v38.471
										c20.12-0.008,40.82,11.905,60.937,11.905c10.706,0,20.84-11.929,31.553-11.969L239.915,275.856L239.915,275.856z"/>
									<path fill="#ECCFBC" d="M165.127,254.461c7.319,5.631,19.341,7.487,28.707,6.874c8.199-0.541,16.02-2.724,23.224-5.965
										c-0.433-0.956-0.838-1.92-1.198-2.915c-2.231-10.108-1.791-20.869-0.762-30.953c-0.252-0.375-0.533-0.733-0.883-1.051
										c-1.229-1.322-2.992-2.262-5.185-3.01c-4.35-1.498-9.016-2.111-13.689-2.286c-0.055,0.032-0.111,0.072-0.173,0.072
										c-0.402-0.024-0.814-0.024-1.219-0.04c-0.035,0.008-0.063,0.04-0.097,0.04c-0.97-0.048-1.957-0.072-2.944-0.096
										c-0.987,0.024-1.971,0.047-2.944,0.096c-0.031,0-0.063-0.032-0.093-0.04c-0.41,0.017-0.818,0.017-1.223,0.04
										c-0.059,0-0.114-0.04-0.173-0.072c-4.672,0.175-9.338,0.789-13.689,2.286c-2.189,0.748-3.956,1.688-5.182,3.01
										c-0.353,0.319-0.633,0.677-0.886,1.051c1.029,10.085,1.472,20.845-0.761,30.953
										C165.709,253.138,165.414,253.8,165.127,254.461z"/>
								</g>
								<g>
									<g id="XMLID_23_">
										<path id="XMLID_26_" fill="#E8E7E6" d="M164.822,255.745c-14.399,15.299-40.498,23.522-65.247,27.51
											s-25.199,30.744-25.199,38.515c0,7.771,0,36.569,0,36.569H191.82v-77.967L164.822,255.745z"/>
										<polygon id="XMLID_25_" fill="#DADAD9" points="164.822,257.994 147.132,268.72 173.538,314.691 191.821,280.372 
																					"/>
										<polygon id="XMLID_24_" fill="#F2F0F0" points="164.822,255.745 147.132,268.72 173.538,312.442 191.821,280.372 
																					"/>
									</g>
									<g id="XMLID_19_">
										<path id="XMLID_22_" fill="#DADAD9" d="M218.82,255.745c14.399,15.299,40.498,23.522,65.247,27.51
											c24.749,3.988,25.199,30.744,25.199,38.515c0,7.771,0,36.569,0,36.569H191.821v-77.967L218.82,255.745z"/>
										<polygon id="XMLID_21_" fill="#DADAD9" points="218.82,257.994 236.51,268.72 210.104,314.691 191.821,280.372 										
											"/>
										<polygon id="XMLID_20_" fill="#EDECEB" points="218.82,255.745 236.51,268.72 210.104,312.442 191.821,280.372 										
											"/>
									</g>
									<g id="XMLID_17_">
										<path id="XMLID_18_" fill="#2D466E" d="M132.192,275.183c-10.378,3.689-21.628,6.301-32.616,8.071
											c-24.749,3.988-25.199,30.744-25.199,38.515c0,7.771,0,36.569,0,36.569h117.444l-59.619-83.155L132.192,275.183z"/>
									</g>
									<g id="XMLID_14_">
										<path id="XMLID_15_" fill="#2D466E" d="M251.45,275.183c10.378,3.689,21.628,6.301,32.616,8.071
											c24.749,3.988,25.199,30.744,25.199,38.515c0,7.771,0,36.569,0,36.569H191.821l59.619-83.155L251.45,275.183z"/>
									</g>
								</g>
							</g>
						</g>
						<g>
							<path fill="#604A46" d="M87.07,117.626c1.775,3.1,5.158,4.143,8.612,3.877c-4.238,4.402-5.471,11.591-3.356,17.301
								c0.017,0.082,0.014,0.164,0.031,0.245c0.007,0.054,0.044,0.082,0.089,0.095c0.02,0.061,0.037,0.122,0.065,0.183
								c0.089,0.212,0.422,0.089,0.368-0.129c-0.065-0.287-0.113-0.593-0.167-0.886c0.357-3.836,2.824-6.65,5.731-8.946
								c-4.709,10.016,0.838,22.786,6.473,31.542c0.065,0.102,0.249,0.062,0.218-0.075c-0.078-0.292-0.173-0.572-0.255-0.858
								c0.075,0.007,0.161-0.047,0.17-0.143c0.232-1.594,0.624-3.094,1.098-4.545c-0.399,4.504-0.341,9.063,1.577,13.11
								c4.01,8.45,11.07,14.875,15.812,22.848c4.297,7.237,7.761,15.004,12.793,21.784c9.189,12.375,21.703,19.263,37,20.776
								c16.831,1.662,34.345-0.273,50.386-5.663c6.889-2.31,13.832-5.069,19.345-9.955c4.705-4.177,7.768-8.872,9.768-14.561
								c0.103-0.055,0.198-0.143,0.266-0.273c4.082-7.986,8.303-15.734,13.114-23.311c4.259-6.719,8.501-13.431,11.141-20.987
								c4.054-11.639,4.719-23.979-0.242-34.976c2.821,2.923,5.451,5.989,7.373,9.853c0.037,0.074,0.116,0.095,0.183,0.082
								c0.146,0.593,0.303,1.192,0.494,1.779c0.054,0.17,0.354,0.191,0.344-0.02c-0.385-7.366-0.705-14.535-5.628-20.469
								c-1.162-1.404-2.49-2.719-3.921-3.952c3.938,0.449,7.83-0.436,10.624-3.809c0.113-0.13-0.01-0.287-0.153-0.3
								c0.395-0.095,0.787-0.204,1.172-0.354c0.249-0.095,0.102-0.49-0.146-0.436c-3.299,0.749-6.868-0.661-9.877-1.949
								c-3.161-1.37-6.279-2.944-9.243-4.701c-6.987-4.156-13.376-9.219-19.308-14.766c-10.357-9.683-22.69-17.28-36.4-21.144
								c-13.805-3.89-27.385-3.4-41.238-0.103c-8.903,2.126-17.815,5.023-24.067,11.441c-9.192-2.903-19.526,6.787-25.127,12.926
								c-4.848,5.309-9.09,11.128-14.183,16.231c-5.448,5.458-11.744,11.236-19.212,13.6c-0.406-0.239-0.818-0.49-1.244-0.776
								C87.284,117.033,86.9,117.333,87.07,117.626z"/>
							<path fill="#41322F" d="M173.267,234.417c-15.625-1.546-28.217-8.612-37.433-21.021c-3.308-4.457-5.979-9.397-8.561-14.181
								c-1.366-2.535-2.78-5.152-4.269-7.658c-2.03-3.414-4.541-6.603-6.971-9.697c-3.227-4.102-6.561-8.34-8.865-13.199
								c-1.104-2.331-1.602-4.777-1.771-7.182c-0.109,0.068-0.235,0.095-0.371,0.095l-0.443-0.054l-0.183-0.28
								c-4.337-6.739-10.736-19.154-7.435-29.763c-2.214,2.173-3.383,4.381-3.632,6.814l0.038,0.212
								c0.038,0.191,0.068,0.381,0.105,0.545c0.061,0.239,0.01,0.49-0.143,0.681c-0.351,0.457-1.147,0.375-1.379-0.143l-0.137-0.062
								l-0.064-0.361c-0.014-0.062-0.017-0.123-0.004-0.143c-2.078-5.629-1.015-12.348,2.552-16.872
								c-3.505-0.089-6.252-1.581-7.758-4.211c-0.17-0.286-0.17-0.628-0.01-0.913c0.259-0.449,0.906-0.634,1.359-0.327
								c0.331,0.225,0.655,0.422,0.975,0.613c7.359-2.412,13.509-8.156,18.701-13.362c2.957-2.964,5.683-6.242,8.316-9.403
								c1.88-2.255,3.826-4.593,5.846-6.806c9.744-10.684,18.377-15.182,25.402-13.206c6.453-6.453,15.393-9.267,24.105-11.339
								c15.233-3.632,28.462-3.591,41.549,0.102c12.994,3.659,25.668,11.018,36.652,21.287c6.46,6.037,12.739,10.841,19.201,14.684
								c2.865,1.703,5.952,3.271,9.175,4.668c2.483,1.063,5.127,2.112,7.696,2.112c0.627,0,1.234-0.068,1.802-0.198l0.181-0.021
								c0.405,0,0.753,0.3,0.831,0.716c0.072,0.395-0.14,0.776-0.504,0.912c-0.208,0.082-0.416,0.15-0.627,0.212
								c-0.031,0.095-0.078,0.184-0.146,0.266c-2.303,2.78-5.441,4.137-9.372,4.137c0.981,0.933,1.877,1.88,2.671,2.834
								c4.998,6.024,5.366,13.09,5.758,20.578l0.014,0.253c0.007,0.218-0.065,0.415-0.208,0.565l-0.293,0.239h-0.261
								c-0.361,0-0.675-0.225-0.785-0.559c-0.16-0.498-0.299-1.008-0.429-1.513c-0.089-0.068-0.16-0.156-0.214-0.266
								c-1.394-2.8-3.162-5.158-5.012-7.263c3.38,9.628,3.052,20.728-0.988,32.319c-2.678,7.665-7.012,14.5-11.199,21.11
								c-4.231,6.664-8.268,13.839-13.087,23.262c-0.074,0.143-0.173,0.273-0.297,0.381c-2.092,5.861-5.233,10.515-9.877,14.63
								c-5.601,4.974-12.712,7.782-19.559,10.085c-12.21,4.102-25.618,6.269-38.769,6.269
								C181.165,234.998,177.172,234.806,173.267,234.417z M277.549,123.649c2.562,2.657,5.195,5.642,7.189,9.438
								c-0.381-6.357-1.138-12.333-5.339-17.389c-1.097-1.322-2.391-2.624-3.849-3.884l-1.516-1.308l1.989,0.231
								c3.935,0.457,7.175-0.552,9.512-2.958l-2.807-0.266l1.332-0.327c-2.307-0.286-4.578-1.199-6.732-2.126
								c-3.271-1.411-6.405-3.005-9.315-4.728c-6.542-3.891-12.892-8.75-19.417-14.848c-10.841-10.132-23.338-17.395-36.145-21
								c-12.879-3.633-25.904-3.673-40.928-0.095c-8.651,2.065-17.519,4.852-23.771,11.27l-0.261,0.273l-0.365-0.116
								c-6.514-2.065-15.052,2.412-24.483,12.756c-2.003,2.195-3.942,4.518-5.812,6.766c-2.651,3.182-5.393,6.473-8.394,9.479
								c-5.356,5.376-11.72,11.311-19.461,13.758l-0.262,0.082l-0.235-0.136l0,0c1.424,1.56,3.564,2.405,6.174,2.405l0,0
								c0.327,0,0.654-0.014,0.984-0.041l1.615-0.123l-1.125,1.165c-3.55,3.693-4.991,9.519-3.775,14.82
								c0.9-3.679,3.628-6.214,5.71-7.863l2.054-1.621l-1.114,2.365c-4.633,9.86,1.071,22.2,5.533,29.512
								c0.218-1.281,0.548-2.576,1.026-4.041l1.672-5.132l-0.474,5.376c-0.35,4-0.446,8.641,1.523,12.797
								c2.242,4.729,5.536,8.913,8.719,12.96c2.453,3.121,4.992,6.351,7.063,9.833c1.503,2.528,2.924,5.159,4.297,7.7
								c2.561,4.743,5.205,9.649,8.462,14.03c8.998,12.115,21.301,19.024,36.568,20.531c16.66,1.649,34.39-0.341,50.126-5.629
								c6.726-2.262,13.696-5.015,19.134-9.839c4.529-4.014,7.578-8.559,9.598-14.296l0.103-0.245l0.194-0.116
								c4.838-9.458,8.888-16.66,13.141-23.351c4.153-6.555,8.446-13.328,11.08-20.864c4.378-12.558,4.3-24.49-0.221-34.52
								l-1.458-3.237L277.549,123.649z"/>
						</g>
						<g>
							<path fill="#4C3B37" d="M210.751,63.993c-6.988-1.519-14.119-2.181-21.263-2.037c-12.817,0.245-27.198,2.555-35.412,13.41
								c-0.266,0.348,0.007,0.975,0.47,0.954c4.593-0.143,9.148-0.641,13.666-0.259c-9.185-0.77-22.183,5.479-27.879,12.681
								c-2.174,2.753-3.867,5.499-5.073,8.517c1.271-3.182,2.358-6.507,4.276-9.376c2.054-3.087,5.403-5.172,7.104-8.49
								c0.201-0.381,0.085-0.736-0.303-0.927c-5.798-2.801-13.581,1.602-18.235,4.953c-1.918,1.384-3.764,2.841-5.574,4.361
								c5.676-6.153,15.778-15.399,24.786-12.551c6.252-6.419,15.164-9.315,24.067-11.441c13.853-3.297,27.433-3.788,41.238,0.103
								c3.336,0.941,6.593,2.106,9.758,3.462C218.556,66.03,214.693,64.852,210.751,63.993z"/>
						</g>
						<g>
							<path fill="#4C3B37" d="M87.182,117.223c2.112,1.411,4.695,1.915,7.908,0.92c5.771-1.786,10.367-6.119,16.078-8.007
								c-7.254,6.767-17.259,11.25-18.827,22.085c-0.095,0.613,0.808,0.892,1.121,0.388c3.359-5.41,6.851-11.672,13.464-12.926
								c-5.819,8.15-11.036,18.248-5.451,27.869c0.3,0.525,1.108,0.396,1.165-0.231c0.783-8.225,2.164-20.381,9.88-25.272
								c-1.509,3.815-3.373,7.475-4.361,11.481c-1.015,4.102-0.249,8.204,0.361,12.292c0.105,0.695,1.172,0.599,1.219-0.082
								c0.313-4.375,0.715-10.909,4.106-14.323c-1.506,4.749-1.513,9.887-0.481,14.773c1.104,5.226,4.361,9.206,7.247,13.56
								c0.436,0.654,1.394,0.204,1.1-0.552c-5.809-15.039-6.061-33.648,3.363-46.383c0.164,0.034,0.338,0.007,0.501-0.143
								c3.731-3.462,10.078-4.041,14.933-3.775c5.192,0.3,10.179,0.709,15.369,0.116c10.749-1.234,21.222-2.726,31.75-5.247
								c5.192-1.24,10.398-2.514,15.682-3.325c5.546-0.845,11.324-2.154,16.946-2.222c11.042-0.129,22.179,5.424,31.814,10.31
								c0.161,0.082,0.311,0.089,0.453,0.047c0.729,0.722,1.444,1.458,2.115,2.222c3.581,4.095,7.263,9.533,8.347,14.977
								c1.008,5.056,0.113,10.289,1.277,15.325c1.131,4.866,2.883,9.281,2.041,14.364c-0.116,0.688,1.039,0.92,1.192,0.245
								c1.711-7.611,2.034-14.357-1.192-21.274c3.284,2.283,6.136,5.636,7.393,9.342c0.245,0.729,1.427,0.532,1.207-0.245
								c-2.473-8.633-7.23-16.088-11.843-23.672c7.076,3.938,12.896,10.269,15.842,17.832c0.212,0.559,1.192,0.375,1.165-0.231
								c-0.498-10.139-6.02-18.486-12.973-25.43c5.901,3.666,11.962,7.441,14.875,13.73c0.3,0.647,1.274,0.272,1.151-0.402
								c-1.162-6.453-5.298-10.828-10.36-14.678c-4.15-3.148-9.288-6.126-13.093-10.016c4.535,3.782,9.608,6.876,15.478,8.129
								c2.617,0.559,7.222,0.784,10.63-0.415c-2.716,2.664-6.245,3.386-9.826,2.971c1.431,1.233,2.76,2.548,3.921,3.952
								c4.924,5.934,5.243,13.103,5.628,20.469c0.01,0.21-0.29,0.191-0.344,0.02c-0.191-0.586-0.348-1.186-0.494-1.779
								c-0.068,0.014-0.146-0.007-0.183-0.082c-1.922-3.863-4.552-6.93-7.373-9.853c4.961,10.997,4.296,23.338,0.242,34.976
								c-2.64,7.556-6.882,14.269-11.141,20.987c-4.81,7.577-9.032,15.325-13.114,23.311c-0.068,0.13-0.163,0.218-0.266,0.273
								c-2,5.69-5.063,10.384-9.768,14.561c-5.512,4.885-12.455,7.646-19.345,9.955c-16.041,5.39-33.555,7.325-50.386,5.663
								c-15.297-1.513-27.812-8.402-37-20.776c-5.032-6.78-8.497-14.547-12.793-21.784c-4.742-7.972-11.802-14.398-15.812-22.848
								c-1.918-4.047-1.976-8.606-1.577-13.11c-0.474,1.451-0.866,2.951-1.098,4.545c-0.01,0.095-0.095,0.15-0.17,0.143
								c0.082,0.286,0.177,0.566,0.255,0.858c0.031,0.137-0.153,0.177-0.218,0.075c-5.635-8.756-11.182-21.526-6.473-31.542
								c-2.907,2.296-5.373,5.111-5.731,8.946c0.054,0.293,0.102,0.599,0.167,0.886c0.054,0.218-0.279,0.34-0.368,0.129
								c-0.028-0.062-0.045-0.123-0.065-0.183c-0.045-0.014-0.082-0.041-0.089-0.095c-0.017-0.082-0.014-0.164-0.031-0.245
								c-2.115-5.71-0.883-12.899,3.356-17.301c-3.455,0.266-6.837-0.776-8.612-3.877C86.978,117.469,87.053,117.312,87.182,117.223
								z"/>
						</g>
						<g>
							<path fill="#EAC8B2" d="M136.646,196.893c-0.63-3.482-1.799-7.066-3.775-10.051c-1.069-2.814-2.627-5.472-4.221-8.013
								c-1.066-1.704-2.814-4.429-5.114-4.525c-4.596-0.198-6.882,7.897-6.766,11.462c0.082,2.617,1.819,5.015,3.178,7.1
								c2.055,3.161,2.954,6.971,4.664,10.309c1.898,3.721,6.534,6.882,10.732,4.954c0.231,0.238,0.65,0.238,0.872-0.116
								C138.036,205.043,137.218,200.096,136.646,196.893z"/>
							<path fill="#EAC8B2" d="M136.646,196.893c-0.63-3.482-1.799-7.066-3.775-10.051c-1.069-2.814-2.627-5.472-4.221-8.013
								c-0.995-1.595-2.603-4.062-4.689-4.45c2.515,2.685,3.601,6.262,3.104,10.527c-0.037,0.327-0.415,0.552-0.725,0.484
								c-2.272-0.505-5.652-2.726-7.638-0.048c-0.865,1.159-1.08,2.372-1.066,3.66c0.644,1.376,1.536,2.671,2.313,3.863
								c2.055,3.161,2.954,6.971,4.664,10.309c1.898,3.721,6.534,6.882,10.732,4.954c0.231,0.238,0.65,0.238,0.872-0.116
								C138.036,205.043,137.218,200.096,136.646,196.893z"/>
							<path fill="#E2B296" d="M122.398,189.221c0.232,0.572,2.566,8.068,2.838,7.863c1.455-1.118,2.937,3.066,3.305,3.761
								c1.359,2.542,2.456,5.206,3.632,7.83c0.974,0.082,1.962-0.047,2.937-0.45c-1.693-4.49-4.095-8.64-6.081-13.021
								c-1.05-2.323-1.786-6.227-3.754-7.89c-1.639-1.397-3.635-1.411-5.57-0.954C120.902,186.925,121.839,187.851,122.398,189.221z
								"/>
							<path fill="#96501D" d="M119.444,186.298c-0.054,0.027-0.007,0.095,0.037,0.082c3.863-0.845,5.993,2.126,7.567,5.69
								c-0.123-0.034-0.259-0.007-0.368,0.13c-0.988,1.267-1.54,2.739-2.024,4.252c-0.044,0.143,0.167,0.184,0.239,0.082
								c0.807-1.261,1.554-2.569,2.385-3.802c0.014-0.02,0.017-0.041,0.024-0.054c1.176,2.808,2.051,5.861,3.169,7.652
								c0.089,0.143,0.3,0.027,0.252-0.129C129.385,195.715,126.956,182.434,119.444,186.298z"/>
							<path fill="#96501D" d="M136.646,196.893c-0.63-3.482-1.799-7.066-3.775-10.051c-1.069-2.814-2.627-5.472-4.221-8.013
								c-1.066-1.704-2.814-4.429-5.114-4.525c-4.596-0.198-6.882,7.897-6.766,11.462c0.082,2.617,1.819,5.015,3.178,7.1
								c2.055,3.161,2.954,6.971,4.664,10.309c1.898,3.721,6.534,6.882,10.732,4.954c0.231,0.238,0.65,0.238,0.872-0.116
								C138.036,205.043,137.218,200.096,136.646,196.893z M135.242,207.244c-1.414-0.095-2.794,0-4.218-0.3
								c-2.8-0.593-4.432-2.998-5.621-5.369c-1.901-3.816-3.659-7.481-6.041-11.038c-1.475-2.195-2.201-4.457-1.734-7.086
								c0.436-2.473,2.624-7.4,5.403-7.83c2.412-0.375,4.916,3.999,6.102,5.594c1.042,1.397,1.86,2.951,2.688,4.498
								c-0.045,0.047-0.068,0.109-0.017,0.177C135.876,192.137,136.098,200.143,135.242,207.244z"/>
						</g>
						<g>
							<path fill="#EAC8B2" d="M247.608,208.743c0.262,0.327,0.682,0.259,0.872,0c4.422,1.349,8.593-2.412,9.979-6.351
								c1.247-3.543,1.625-7.434,3.237-10.841c1.066-2.249,2.463-4.858,2.197-7.461c-0.368-3.55-3.713-11.271-8.248-10.453
								c-2.266,0.402-3.632,3.339-4.46,5.165c-1.236,2.732-2.419,5.575-3.107,8.511c-1.56,3.223-2.232,6.929-2.385,10.473
								C245.547,201.029,245.407,206.038,247.608,208.743z"/>
							<path fill="#EAC8B2" d="M245.694,197.786c0.153-3.543,0.824-7.25,2.385-10.473c0.688-2.937,1.87-5.779,3.107-8.511
								c0.777-1.71,2.037-4.367,4.055-5.035c-2.133,2.998-2.732,6.685-1.666,10.848c0.078,0.321,0.49,0.49,0.78,0.375
								c2.187-0.797,5.24-3.455,7.567-1.063c1.008,1.036,1.383,2.208,1.547,3.476c-0.457,1.451-1.162,2.862-1.771,4.15
								c-1.612,3.407-1.99,7.298-3.237,10.841c-1.386,3.939-5.557,7.7-9.979,6.351c-0.191,0.259-0.61,0.327-0.872,0
								C245.407,206.038,245.547,201.029,245.694,197.786z"/>
							<path fill="#E2B296" d="M258.78,188.26c-0.16,0.6-1.458,8.347-1.758,8.17c-1.598-0.906-2.497,3.441-2.773,4.177
								c-1.005,2.699-1.731,5.486-2.545,8.245c-0.954,0.212-1.955,0.218-2.974-0.054c1.08-4.668,2.903-9.111,4.282-13.717
								c0.729-2.44,0.937-6.405,2.665-8.327c1.431-1.602,3.414-1.88,5.393-1.69C259.952,185.786,259.151,186.836,258.78,188.26z"/>
							<path fill="#96501D" d="M261.315,184.969c0.058,0.021,0.02,0.089-0.031,0.089c-3.939-0.321-5.649,2.91-6.729,6.651
								c0.116-0.048,0.253-0.041,0.381,0.082c1.145,1.117,1.891,2.507,2.569,3.938c0.071,0.137-0.136,0.212-0.225,0.11
								c-0.964-1.138-1.878-2.324-2.873-3.441c-0.017-0.014-0.017-0.034-0.027-0.054c-0.787,2.937-1.243,6.085-2.115,8.006
								c-0.065,0.164-0.29,0.068-0.269-0.089C252.722,195.633,253.35,182.155,261.315,184.969z"/>
							<path fill="#96501D" d="M247.608,208.743c0.262,0.327,0.682,0.259,0.872,0c4.422,1.349,8.593-2.412,9.979-6.351
								c1.247-3.543,1.625-7.434,3.237-10.841c1.066-2.249,2.463-4.858,2.197-7.461c-0.368-3.55-3.713-11.271-8.248-10.453
								c-2.266,0.402-3.632,3.339-4.46,5.165c-1.236,2.732-2.419,5.575-3.107,8.511c-1.56,3.223-2.232,6.929-2.385,10.473
								C245.547,201.029,245.407,206.038,247.608,208.743z M249.012,186.229c0.038-0.082,0.004-0.136-0.044-0.177
								c0.61-1.642,1.219-3.297,2.065-4.817c0.96-1.738,2.854-6.413,5.298-6.371c2.808,0.054,5.632,4.64,6.402,7.039
								c0.814,2.541,0.399,4.885-0.767,7.257c-1.884,3.843-3.134,7.706-4.51,11.747c-0.855,2.508-2.15,5.117-4.845,6.078
								c-1.373,0.484-2.753,0.572-4.146,0.859C246.665,200.927,245.813,192.955,249.012,186.229z"/>
						</g>
						<path fill="#EAC8B2" d="M252.405,127.663c-1.727-2.957-5.247-5.458-7.863-7.57c-3.08-2.494-6.429-4.661-9.87-6.623
							c-6.374-3.619-13.28-6.092-20.626-6.576c-7.966-0.525-15.918,0.321-23.825,1.192c-8.017,0.879-15.781,1.792-23.522,4.197
							c-7.908,2.461-15.662,6.194-22.357,11.094c-6.558,4.79-12.493,11.066-17.175,17.689c-3.363,4.757-1.911,10.596-0.392,15.925
							c1.843,13.076,2.596,26.254,3.315,39.453c0.399,7.298,0.61,15.018,3.2,21.934c2.078,5.554,6,10.241,10.286,14.248
							c4.759,4.436,10.48,7.891,15.904,11.447c6.207,4.075,12.572,7.98,19.518,10.657c6.248,2.412,12.368,2.95,18.841,1.151
							c3.114-0.865,6.048-2.296,8.913-3.768c3.076-1.581,6.384-3.203,9.291-5.165c3.666-1.629,6.916-3.925,10.122-6.384
							c3.898-3.005,7.901-5.805,11.88-8.701c7.001-5.09,11.302-11.672,12.378-20.305c1.445-11.625,0.727-23.447,1.145-35.126
							c0.443-12.272,1.196-24.51,2.157-36.741C254.365,135.547,254.484,131.206,252.405,127.663z"/>
						<path fill="#E6BCA4" d="M248.041,203.292c-1.236,5.049-2.667,12.354-5.468,16.804c-2.364,3.755-38.305,35.951-57.824,32.121
							c-10.494-2.057-20.861-8.851-29.47-15.12c-7.175-5.226-14.016-11.134-17.9-19.297c-6.954-14.623-4.866-31.555-9.002-46.785
							c0.77,8.456,1.25,16.94,1.714,25.431c0.399,7.298,0.61,15.018,3.199,21.934c2.078,5.554,6,10.242,10.286,14.248
							c4.759,4.436,10.48,7.891,15.904,11.447c6.207,4.075,12.572,7.98,19.518,10.657c6.248,2.412,12.368,2.95,18.841,1.151
							c3.114-0.865,6.048-2.296,8.913-3.768c3.076-1.581,6.384-3.203,9.291-5.165c3.666-1.629,6.916-3.925,10.122-6.384
							c3.898-3.005,7.901-5.805,11.88-8.701c7.001-5.09,11.302-11.672,12.378-20.305c1.18-9.506,0.924-19.134,1.016-28.708
							C250.651,189.725,249.68,196.587,248.041,203.292z"/>
						<g>
							<path fill="#E2B296" d="M126.668,127.663c1.727-2.957,5.247-5.458,7.863-7.57c3.08-2.494,6.429-4.661,9.87-6.623
								c6.374-3.619,13.28-6.092,20.626-6.576c7.966-0.525,15.918,0.321,23.825,1.192c8.017,0.879,15.781,1.792,23.522,4.197
								c7.908,2.461,15.662,6.194,22.357,11.094c6.558,4.79,12.493,11.066,17.175,17.689c3.363,4.757,1.911,10.596,0.392,15.925
								c-0.675,4.776-1.199,9.567-1.632,14.364c-4.549-9.997-15.291-19.713-26.281-18.779c-13.666,3.366-27.532-0.028-40.653-3.919
								c-10.408,1.942-19.897,1.24-29.89-2.943c1.666,2.16,3.754,3.638,6.04,4.872c-10.357,1.104-21.287-0.239-29.78-7.55
								c0.62,8.292,2.446,15.542,5.386,22.82c-0.303-0.198-0.616-0.273-0.93-0.212c-2.521-2.276-5.284-4.484-7.901-6.889
								c-0.371-6.364-0.807-12.715-1.308-19.065C124.709,135.547,124.589,131.206,126.668,127.663z"/>
						</g>
						<path fill="#984C1C" d="M252.405,127.663c-1.727-2.957-5.247-5.458-7.863-7.57c-3.08-2.494-6.429-4.661-9.87-6.623
							c-6.374-3.619-13.28-6.092-20.626-6.576c-7.966-0.525-15.918,0.321-23.825,1.192c-8.017,0.879-15.781,1.792-23.522,4.197
							c-7.908,2.461-15.662,6.194-22.357,11.094c-6.558,4.79-12.493,11.066-17.175,17.689c-3.363,4.757-1.911,10.596-0.392,15.925
							c1.843,13.076,2.596,26.254,3.315,39.453c0.399,7.298,0.61,15.018,3.2,21.934c2.078,5.554,6,10.241,10.286,14.248
							c4.759,4.436,10.48,7.891,15.904,11.447c6.207,4.075,12.572,7.98,19.518,10.657c6.248,2.412,12.368,2.95,18.841,1.151
							c3.114-0.865,6.048-2.296,8.913-3.768c3.076-1.581,6.384-3.203,9.291-5.165c3.666-1.629,6.916-3.925,10.122-6.384
							c3.898-3.005,7.901-5.805,11.88-8.701c7.001-5.09,11.302-11.672,12.378-20.305c1.445-11.625,0.727-23.447,1.145-35.126
							c0.443-12.272,1.196-24.51,2.157-36.741C254.365,135.547,254.484,131.206,252.405,127.663z M250.467,170.584
							c-0.746,11.311-0.321,22.643-0.93,33.947c-0.282,5.173-0.661,10.473-2.817,15.25c-1.894,4.197-5.274,7.488-8.828,10.303
							c-3.529,2.8-7.349,5.226-10.902,7.999c-3.523,2.753-7.086,5.567-10.97,7.816c-0.702,0.375-1.4,0.756-2.109,1.144
							c-0.064,0.034-0.132,0.075-0.197,0.109c0,0-0.004,0.007-0.014,0.007c-5.247,2.903-10.484,5.928-16.207,7.721
							c-7.543,2.351-14.878,0.484-21.87-2.63c-6.442-2.868-12.367-6.82-18.159-10.8c-5.015-3.441-9.942-6.896-14.333-11.134
							c-4.559-4.388-8.071-9.778-9.741-15.911c-1.979-7.243-1.86-15.372-2.222-22.827c-0.507-10.473-1.492-20.967-3.212-31.331
							c0.092-0.048,0.177-0.143,0.143-0.28c-0.77-3.748-1.738-7.638-1.85-11.481c-0.119-4.034,1.973-6.82,4.409-9.805
							c4.944-6.044,10.599-11.583,17.093-15.937c6.232-4.184,13.345-7.175,20.493-9.376c7.227-2.228,14.609-2.896,22.088-3.652
							c6.624-0.675,13.26-1.308,19.928-1.199c7.42,0.123,14.163,1.894,20.803,5.165c6.473,3.19,12.436,7.509,17.563,12.572
							c2.658,2.63,3.472,5.036,3.615,8.722c0.123,3.264-0.327,6.555-0.576,9.805c-0.051,0.654,0.892,0.892,1.039,0.204l0,0
							C251.779,153.502,251.033,162.04,250.467,170.584z"/>
						<path fill="#554340" d="M118.891,137.468c1.635,10.889,7.281,21.43,16.708,27.358c0.27,0.17,0.519-0.212,0.273-0.409
							c-0.565-0.457-1.117-0.94-1.666-1.431c0.095-0.041,0.171-0.143,0.123-0.252c-1.857-4.075-2.194-8.511-2.487-12.92
							c-0.321-4.674,0.228-8.919,0.61-13.443c1.802,2.208,3.921,4.164,6.326,5.832c5.121,3.55,12.03,6.91,18.442,6.187
							c0.065-0.014,0.071-0.116,0.01-0.136c-0.317-0.089-0.626-0.177-0.94-0.266c0.024-0.068,0.02-0.143-0.051-0.177
							c-5.397-3.161-9.673-7.679-13.147-12.783c3.23,2.828,6.985,5.076,10.841,6.542c4.269,1.621,8.732,2.726,13.26,3.299
							c5.056,0.641,9.945,0.265,14.99,0.402c0.116,0.034,0.225,0.074,0.34,0.109c0.116,0.034,0.181-0.062,0.171-0.15
							c0.102-0.089,0.109-0.279-0.055-0.313c-0.286-0.068-0.579-0.109-0.869-0.163c-5.475-2.31-10.684-5.097-15.403-8.743
							c-1.687-1.308-3.325-2.698-4.882-4.177c7.526,6.071,16.016,10.772,25.563,13.192c12.218,3.101,25.73,5.24,38.277,3.495
							c0.487,0.068,0.975,0.13,1.458,0.17c0.201,0.007,0.218-0.286,0.02-0.306c-5.867-0.736-10.78-3.483-15.451-6.732
							c4.436,1.643,8.984,2.951,13.447,4.518c5.243,1.833,10.419,3.768,15.764,5.301c4.551,1.301,9.594,2.65,12.766,6.412
							c0.157,0.184,0.467-0.02,0.354-0.239c-0.068-0.143-0.164-0.272-0.245-0.409c0.038-0.047,0.051-0.109,0.038-0.177
							c-0.933-4.463-3.925-8.762-7.022-12.231c1.315,1.172,2.549,2.432,3.69,3.843c4.163,5.144,6.585,11.134,8.255,17.484
							c0.044,0.157,0.197,0.204,0.323,0.164c0.004,0.089-0.003,0.177,0.004,0.259c0.014,0.239,0.338,0.273,0.375,0.027
							c0.74-4.852,1.806-9.949,1.176-14.868c-0.538-4.252-1.85-8.511-3.679-12.388c-1.608-3.42-3.656-6.357-5.976-9.036
							c1.444,1.37,2.78,2.896,3.972,4.647c3.356,4.934,5.036,10.003,6.518,15.632c0.017,0.156,0.045,0.306,0.058,0.457
							c0.007,0.074,0.052,0.109,0.103,0.13c0,0,0,0,0,0.006c0.01,0.048,0.078,0.082,0.119,0.034
							c0.014-0.014,0.017-0.034,0.034-0.047c0.058-0.027,0.109-0.068,0.116-0.143c0-0.014,0-0.027,0-0.041
							c0.487-0.708,0.371-1.989,0.092-3.223c-0.078-7.775-2.449-15.182-6.719-21.335c3.24,3.509,5.322,7.393,7.322,11.679
							c0.116,0.381,0.218,0.77,0.337,1.158c0.072,0.239,0.422,0.177,0.385-0.082c-1.332-9.165-2.811-18.528-7.938-26.452
							c-2.477-3.83-5.901-7.372-9.795-10.221c-3.843-6.528-12.817-10.406-19.468-12.756c-10.514-3.721-22.326-5.826-33.477-6.024
							c-10.184-0.183-20.708,1.308-29.947,5.819c-7.128,3.483-15.457,8.968-19.092,16.477c-4.446-0.321-8.923,0.068-12.834,2.112
							c-4.994,2.617-7.911,7.134-9.229,12.245C118.796,125.537,117.975,131.377,118.891,137.468z"/>
						<g>
							<path fill="#4C3B37" d="M121.178,120.386c1.318-5.111,4.234-9.628,9.229-12.245c0.613-0.321,1.243-0.586,1.888-0.831
								c-0.221,0.17-0.453,0.327-0.661,0.511c-3.019,2.603-5.06,6.31-6.678,9.914c-4.147,9.185-3.622,18.153-0.348,27.515
								c0,0,0.003,0.006,0.003,0.014l0,0c0.021,0.041,0.034,0.095,0.052,0.15c0.235,0.668,1.301,0.266,1.159-0.402
								c-1.646-7.584-0.74-17.73,4.801-23.706c-0.004,3.223,0.156,6.514,1.901,9.335c1.888,3.025,4.627,5.349,6.565,8.333
								c0.348,0.532,1.387,0.327,1.159-0.395c-2.191-6.944-2.869-13.689-1.574-20.68c0.882,5.056,2.45,10.037,6.283,13.689
								c5.795,5.526,13.774,8.021,21.263,10.323c0.559,0.17,1.121-0.531,0.665-0.988c-4.01-4.102-8.319-8.306-9.962-13.982
								c-1.261-4.347-1.567-8.735-1.258-13.13c3.625,8.21,11.564,14.432,18.872,19.222c10.719,7.032,22.963,11.897,35.835,12.694
								c0.569,0.034,0.957-0.831,0.385-1.124c-9.802-5.07-18.633-12.327-24.612-21.648c3.509,2.985,7.104,5.874,11.277,7.884
								c5.789,2.794,11.966,4.321,18.193,5.806c11.022,2.63,22.483,5.437,31.215,13.103c0.463,0.409,1.202-0.273,0.9-0.783
								c-5.421-9.036-12.936-16.156-21.768-21.383c12.126,4.348,24.592,9.628,29.947,21.526c0.334,0.736,1.376,0.184,1.104-0.545
								c-4.657-12.34-11.866-23.25-22.571-30.527c9.437,4.081,18.499,10.043,22.871,19.44c0.344,0.736,1.359,0.177,1.104-0.552
								c-2.633-7.468-6.538-15.004-12.224-20.585c4.419,3.019,8.375,6.685,11.692,11.011c0.365,0.477,1.24,0.062,1.067-0.532
								c-1.721-5.887-3.23-11.903-6.845-16.98c-1.291-1.806-2.715-3.503-4.177-5.173c2.773,2.406,5.21,5.152,7.094,8.068
								c5.127,7.924,6.606,17.287,7.938,26.452c0.037,0.259-0.313,0.321-0.385,0.082c-0.119-0.388-0.221-0.776-0.337-1.158
								c-2-4.285-4.082-8.17-7.322-11.679c4.27,6.153,6.641,13.56,6.719,21.335c0.28,1.234,0.396,2.515-0.092,3.223
								c0,0.014,0,0.027,0,0.041c-0.007,0.074-0.058,0.116-0.116,0.143c-0.017,0.014-0.021,0.034-0.034,0.047
								c-0.041,0.048-0.11,0.014-0.119-0.034c0-0.006,0-0.006,0-0.006c-0.051-0.021-0.095-0.055-0.103-0.13
								c-0.014-0.15-0.041-0.3-0.058-0.457c-1.482-5.629-3.161-10.698-6.518-15.632c-1.192-1.751-2.528-3.278-3.972-4.647
								c2.32,2.678,4.368,5.615,5.976,9.036c1.829,3.878,3.141,8.137,3.679,12.388c0.63,4.92-0.436,10.017-1.176,14.868
								c-0.037,0.245-0.361,0.212-0.375-0.027c-0.006-0.082,0-0.17-0.004-0.259c-0.126,0.041-0.279-0.007-0.323-0.164
								c-1.67-6.35-4.092-12.34-8.255-17.484c-1.141-1.411-2.375-2.671-3.69-3.843c3.097,3.468,6.089,7.768,7.022,12.231
								c0.014,0.068,0,0.13-0.038,0.177c0.082,0.137,0.177,0.266,0.245,0.409c0.113,0.218-0.197,0.423-0.354,0.239
								c-3.172-3.762-8.215-5.111-12.766-6.412c-5.346-1.534-10.521-3.468-15.764-5.301c-4.463-1.567-9.012-2.875-13.447-4.518
								c4.671,3.25,9.584,5.997,15.451,6.732c0.198,0.02,0.181,0.313-0.02,0.306c-0.484-0.041-0.972-0.102-1.458-0.17
								c-12.548,1.744-26.06-0.395-38.277-3.495c-9.547-2.419-18.037-7.121-25.563-13.192c1.557,1.479,3.196,2.868,4.882,4.177
								c4.719,3.646,9.928,6.433,15.403,8.743c0.29,0.054,0.583,0.095,0.869,0.163c0.164,0.034,0.157,0.225,0.055,0.313
								c0.01,0.089-0.055,0.184-0.171,0.15c-0.116-0.034-0.225-0.074-0.34-0.109c-5.045-0.137-9.934,0.239-14.99-0.402
								c-4.528-0.573-8.991-1.677-13.26-3.299c-3.857-1.465-7.611-3.713-10.841-6.542c3.475,5.104,7.751,9.621,13.147,12.783
								c0.071,0.034,0.074,0.11,0.051,0.177c0.313,0.089,0.623,0.177,0.94,0.266c0.062,0.02,0.055,0.123-0.01,0.136
								c-6.413,0.723-13.322-2.637-18.442-6.187c-2.405-1.669-4.524-3.625-6.326-5.832c-0.381,4.524-0.93,8.769-0.61,13.443
								c0.293,4.409,0.63,8.845,2.487,12.92c0.048,0.109-0.027,0.212-0.123,0.252c0.549,0.491,1.101,0.975,1.666,1.431
								c0.245,0.198-0.004,0.579-0.273,0.409c-9.427-5.928-15.072-16.469-16.708-27.358
								C117.975,131.377,118.796,125.537,121.178,120.386z"/>
						</g>
						<g opacity="0.3">
							<path fill="#6C554F" d="M162.068,109.593c4.882,7.488,11.403,14.916,20.204,17.642c0.777,0.239,1.219-0.749,0.74-1.295
								c-5.727-6.473-11.294-14.166-13.066-22.766c4.524,4.313,10.916,7.631,15.025,9.553c12.191,5.711,25.352,10.01,38.936,9.901
								c0.722-0.007,1.121-1.118,0.381-1.438c-6.76-2.971-12.889-6.8-18.561-11.523c-3.12-2.596-6.558-5.505-8.725-9.063
								c3.806,1.621,7.648,3.141,11.559,4.47c4.528,1.54,9.205,2.61,13.703,4.232c3.148,1.124,6.381,2.331,9.741,1.54
								c0.477-0.109,0.732-0.709,0.477-1.124c-3.628-5.962-10.613-8.988-15.359-14.092c6.753,1.594,14,3.727,20.017,7.4
								c-3.335-3.203-6.6-6.378-10.166-9.335c14.135,5.24,25.702,14.963,29.419,29.532c-3.295-4.436-7.182-7.516-12.29-10.166
								c-2.109-1.098-4.327-2.065-6.531-3.067c0.933,0.818,1.829,1.677,2.658,2.494c2.691,2.678,5.56,5.779,7.113,9.288
								c0.027,0.068,0.01,0.123-0.02,0.177c-0.852-0.396-1.724-0.743-2.593-1.056c-3.067-1.111-6.16-2.119-9.277-3.046
								c-0.978-0.3-1.966-0.579-2.957-0.852c-1.915-0.538-3.836-1.056-5.768-1.547c-0.197-0.047-0.381-0.047-0.548-0.02
								c-3.11-0.749-6.259-1.56-9.226-2.739c3.554,3.448,7.278,6.657,11.179,9.642c1.888,1.315,3.795,2.637,5.652,4.034
								c0.045,0.034,0.062,0.082,0.062,0.136c0.968,0.655,1.956,1.302,2.944,1.936c3.414,1.464,6.613,3.386,9.379,6.091
								c-0.821-0.381-1.662-0.722-2.504-1.063c-7.448-4.422-16.041-5.989-24.425-7.986c2.995,1.493,5.962,3.025,8.701,4.995
								c4.102,2.957,7.993,6.31,11.73,9.723c-3.727-2.855-8.157-4.668-12.875-6.057c-3.036-0.886-6.099-1.677-9.168-2.406
								c-3.24-0.906-6.545-1.71-9.88-2.507c-8.258-1.97-17.376-4.286-24.459-9.281c4.552,7.911,10.575,15.154,17.907,20.381
								c0.11,0.082,0.075,0.231-0.014,0.293c1.376,0.593,2.766,1.151,4.16,1.69c0.15,0.054,0.113,0.313-0.058,0.292
								c-4.303-0.606-8.538-2.044-12.603-3.986c-9.645-3.114-18.95-9.295-25.849-16.401c-6.337-6.535-9.587-14.275-10.575-22.827
								C157.864,103.133,160.164,106.675,162.068,109.593z"/>
						</g>
						<g opacity="0.3">
							<path fill="#6C554F" d="M123.306,138.477c-2.381-7.352-2.15-15.235,1.942-22.915c0.912-1.71,2.133-3.468,3.563-5.179
								c3.005-3.271,6.456-6.078,10.473-8.231c-3.523,5.002-4.954,11.386-4.784,17.457c0.004,0.11,0.021,0.225,0.024,0.334
								c0.552-7.291,3.299-14.916,8.283-19.89c0.497-0.259,0.984-0.532,1.472-0.804c0.306-0.103,0.613-0.177,0.92-0.259
								c-3.775,5.179-1.005,14.33,1.131,19.433c0.231-5.717,2.473-11.666,6.014-15.719c-2.896,10.099-2.641,24.114,3.921,32.448
								c-2.024-0.933-4.028-1.88-5.85-3.346c-2.573-2.058-4.665-4.607-6.409-7.393c-2.62-4.164-3.84-9.424-3.482-14.473
								c-0.126,1.819-1.547,4.095-2.119,5.86c-0.725,2.263-1.349,4.565-1.707,6.91c-0.719,4.701-0.092,8.906,1.822,13.219
								c-1.114-1.322-2.112-3.134-2.637-4.026c-0.457-0.77-0.866-1.561-1.247-2.365c-2.549-6.862-2.665-14.616-0.321-21.559
								c-0.569,1.689-2.48,3.148-3.537,4.572C129.61,114.124,121.91,124.406,123.306,138.477z"/>
						</g>
						<path fill="#41322F" d="M132.516,103.957c0.245-0.212,3.169-2.16,2.804-1.867c-13.693,10.801-16.746,23.283-16.078,33.252
							c0.375,5.587,2.232,11.141,4.784,16.102c1.386,2.692,3.158,5.159,5.144,7.435c1.001,1.151,2.119,2.187,3.267,3.188
							c0.671,0.572,1.366,1.118,2.086,1.629c2.051,1.506-0.702-0.532-0.863-0.675c-0.041-0.034-0.065-0.082-0.061-0.136
							c0.245-0.517-0.824-2.739-0.998-3.311c-0.321-1.042-0.508-2.133-0.698-3.21c-0.331-1.833-0.457-3.7-0.6-5.554
							c-0.364-4.879,0.119-9.683,0.538-14.541c0.004-0.02,0.017-0.033,0.027-0.047c-1.768-2.705-2.327-6.01-2.467-9.376
							c-0.004-0.095,0.136-0.095,0.16-0.007c0.62,2.194,1.216,4.442,2.03,6.569c0.702,1.826,2.045,3.189,3.118,4.77
							c2.32,2.344,4.916,4.293,7.795,6.003c2.252,1.336,4.64,2.372,7.128,3.162c1.479,0.469,3.008,0.708,4.551,0.844
							c-2.879-0.259,2.607,0.314,1.765-0.041c-2.263-0.961-4.681-3.318-6.501-4.96c-2.211-1.99-4.126-4.293-5.883-6.705
							c-4.14-4.204-6.075-11.979-4.954-17.457c0.024-0.143,0.249-0.089,0.242,0.047c-0.361,5.792,2.514,11.481,5.458,16.463
							c4.845,3.918,10.313,6.303,16.353,7.87c6.313,1.635,12.62,1.527,19.079,1.574c0.597,0,1.312-0.041,1.956,0
							c-0.123-0.027-0.228-0.047-0.266-0.068c-2.426-1.036-4.8-2.16-7.138-3.393c-4.879-2.582-9.328-5.888-13.352-9.656
							c-0.344-0.321-8.971-9.723-7.278-21.13c0.972,22.288,20.074,29.246,26.759,31.91c7.389,2.937,15.55,4.375,23.399,5.431
							c4.057,0.552,8.149,0.812,12.245,0.812c1.888,0,3.768-0.103,5.648-0.245c0.92-0.074,1.966-0.333,2.933-0.368
							c-0.688-0.137-1.366-0.327-2.037-0.511c-1.333-0.361-2.614-0.892-3.878-1.431c-2.784-1.192-13.307-5.151-28.057-18.391
							c-0.501-0.443,13.59,10.596,21.018,13.56c10.599,4.231,21.638,7.42,32.54,10.793c3.145,0.968,6.112,2.31,8.579,4.498
							c-0.045-0.204-0.099-0.436-0.167-0.722c-0.317-1.302-0.756-2.603-1.468-3.727c-10.133-16.068-19.55-20.006-21.549-22.289
							c-0.327-0.368,7.278,3.577,14.834,10.466c2.903,2.644,7.764,9.908,9.73,13.301c1.019,1.765,1.84,3.639,2.6,5.526
							c0.385,0.954,0.708,1.922,1.039,2.889c0.174,0.505,0.514,2.569,0.93,3.489c0.306-1.178,0.34-3.059,0.447-3.754
							c0.238-1.527,0.415-3.06,0.548-4.599c0.33-3.721-0.208-7.359-1.135-10.957c-1.543-5.983-4.817-13.186-19.539-25.293
							c-0.385-0.314,7.86,4.026,12.081,9.158c2.654,3.223,5.216,6.256,7.016,10.016c0.852,1.771,1.513,3.639,2.133,5.506
							c0.132,0.402,0.552,2.494,0.923,3.918c0.078-1.002-0.215-2.058-0.239-3.06c-0.058-2.644-0.49-5.26-1.087-7.829
							c-1.036-4.463-4.65-11.564-7.196-15.352c-0.184-0.26,2.562,2.712,2.747,2.923c1.571,1.758,2.933,3.612,4.17,5.622
							c0.692,1.104,1.298,2.262,1.894,3.427c0.146,0.286,0.378,0.94,0.634,1.629c-0.183-1.098-0.449-2.229-0.48-2.412
							c-0.231-1.506-0.508-2.992-0.794-4.477c-0.572-2.978-1.349-5.908-2.303-8.783c-1.663-5.015-4.463-9.479-7.805-13.533
							c-6.586-8.006-17.696-15.441-27.423-18.984c-0.746-0.272,2.401,0.593,2.743,0.716c9.979,3.638,18.899,10.146,25.774,18.2
							c3.462,4.061,6.109,8.653,7.908,13.668c1.145,3.21,1.874,6.563,2.518,9.901c0.282,1.479,1.938,6.936,1.083,8.211
							c-0.17,0.252-0.842,0.047-1.032-0.068c-1.073-0.668-1.837-3.802-2.467-5.015c-0.225-0.436-0.47-0.858-0.713-1.287
							c1.032,2.44,1.816,4.981,2.361,7.625c0.535,2.603,0.381,5.295,0.869,7.891c0.181,0.961,0.089,1.86-0.433,2.664
							c-0.15,0.231-0.736,0.062-0.92-0.006c-0.116-0.048-0.204-0.11-0.287-0.171c0.269,2.106,0.341,4.218,0.215,6.365
							c-0.116,1.921-0.433,3.836-0.725,5.744c-0.14,0.885-0.065,3.011-0.767,3.618c-0.259,0.218-0.909,0.103-1.124-0.129
							c-0.126-0.136-0.511-0.538-0.552-0.688c-0.719-2.651-1.557-5.247-2.589-7.795c-0.443-1.111-0.954-2.187-1.503-3.244
							c0.439,1.098,0.715,2.181,0.5,2.937c-0.068,0.225-0.49,0.157-0.647,0.143c-0.242-0.033-0.606-0.047-0.784-0.252
							c-1.623-1.779-3.485-2.998-5.659-3.999c-3.574-1.635-7.577-2.433-11.311-3.632c-7.447-2.399-14.902-4.934-22.281-7.585
							c2.173,1.404,4.405,2.678,6.8,3.707c2.082,0.892,4.279,1.41,6.511,1.73c0.29,0.048,0.463,0.164,0.644,0.381
							c0.047,0.062,0.098,0.137,0.027,0.198c-0.794,0.696-3.192,0.231-4.14,0.341c-3.052,0.34-6.126,0.388-9.192,0.333
							c-6.926-0.102-13.832-1.178-20.605-2.582c-8.872-1.846-16.973-4.824-24.5-9.315c1.37,0.961,2.756,1.888,4.204,2.753
							c2.187,1.287,4.481,2.405,6.79,3.462c0.978,0.457,2.501,0.504,3.236,1.315c0.045,0.034,0.062,0.075,0.058,0.137
							c-0.102,0.266-0.262,0.463-0.579,0.484c-1.611,0.103-3.321-0.136-4.953-0.129c-4.351,0.027-8.641-0.055-12.943-0.729
							c-7.035-1.098-13.808-3.523-19.601-7.605c0.017,0.027,0.031,0.048,0.045,0.075c0.02,0.027,0.01,0.054,0.017,0.082
							c1.578,2.058,3.288,3.993,5.189,5.785c1.853,1.758,4.385,4.211,6.889,4.933c0.126,0.034,0.415,0.13,0.405,0.313l-0.01,0.123
							c-0.01,0.136-0.249,0.15-0.334,0.164c-8.735,0.708-17.723-4.102-23.822-10.323c-0.242-0.231-0.494-0.45-0.716-0.689
							c-0.409,4.845-0.715,9.601-0.354,14.487c0.225,2.91,0.657,5.778,1.513,8.579c0.017,0.047,0.814,2.139,0.821,2.139
							c-0.225,0.463,1.489,1.315,1.592,1.949c0.02,0.137-0.072,0.191-0.198,0.212c-1.407,0.279-2.51-0.906-3.553-1.717
							c-2.43-1.894-4.648-4.047-6.494-6.521c-4.262-5.717-6.858-12.313-7.986-19.331
							C116.595,126.838,120.271,114.655,132.516,103.957z"/>
						<g>
							<path fill="#6C554F" d="M160.76,72.776c0.041-0.014,0.092-0.034,0.132-0.054c0.065,0.014,0.13,0.02,0.204,0.007
								c6.719-1.192,13.379-2.453,20.241-2.331c4.286,0.082,8.541,0.477,12.766,1.111c-7.131,0.116-14.48,1.989-20.507,5.594
								c-0.245,0.082-0.487,0.157-0.729,0.239c-0.144,0.048-0.164,0.184-0.116,0.293c-0.266,0.17-0.546,0.334-0.801,0.511
								c-0.249,0.17,0.031,0.484,0.266,0.402c0.93-0.334,1.853-0.668,2.78-1.002c6.355-0.838,12.507-1.322,18.967-0.552
								c6.167,0.736,12.218,2.037,18.074,4.143c11.349,4.088,21.557,10.364,32.033,16.21c4.249,3.495,8.61,6.814,13.489,9.328
								c0.207,0.11,0.422-0.183,0.207-0.306c-9.213-5.465-16.704-13.506-25.024-20.169c-2.95-2.372-6.024-4.818-9.287-6.896
								c8.118,3.435,15.801,7.673,23.252,12.694c9.56,6.453,19.525,13.301,31.337,14.344c0.317,0.027,0.375-0.327,0.187-0.498
								c0.01-0.068-0.014-0.13-0.095-0.157c-10.763-3.672-19.935-9.757-28.861-16.68c-8.05-6.242-15.719-13.036-24.769-17.846
								c-12.493-6.63-27.78-10.48-41.821-7.727c-1.485,0.062-2.968,0.177-4.436,0.442c-6.16,1.098-13.263,4.007-17.955,8.218
								C159.932,72.422,160.335,72.946,160.76,72.776z"/>
						</g>
						<g opacity="0.3">
							<path fill="#6C554F" d="M97.734,114.478c14.527-7.891,21.242-24.722,36.349-31.849c0.18-0.082,0.303,0.177,0.136,0.273
								c-7.23,4.286-12.77,11.236-18.262,17.451c-4.957,5.615-10.844,11.849-18.009,14.547
								C97.662,115.003,97.461,114.628,97.734,114.478z"/>
						</g>
						<g display="none">
							<path id="XMLID_32_" display="inline" fill="#EDECEB" d="M-219.167,309.728c0,0-6.213-4.793-12.959-13.67
								c-6.746-8.876-16.332-28.404-16.332-28.404c-3.282,0.485-6.378,0.991-9.307,1.518l43.458,92.216h6.545v-76.359
								L-219.167,309.728z"/>
							<path id="XMLID_29_" display="inline" fill="#212121" d="M-248.459,298.189l-19.533-8.521l8.371-20.151
								c-27.89,5.233-39.628,12.493-44.049,22.282c-4.971,11.007-8.876,69.59-8.876,69.59h93.17l-39.858-27.457L-248.459,298.189z"
								/>
							<path id="XMLID_28_" display="inline" fill="#DADAD9" d="M-196.36,309.728c0,0,6.213-4.793,12.959-13.67
								c6.746-8.876,16.332-28.404,16.332-28.404c3.282,0.485,6.378,0.991,9.307,1.518l-43.458,92.216h-6.545v-76.359
								L-196.36,309.728z"/>
							<path id="XMLID_16_" display="inline" fill="#161515" d="M-167.068,298.189l19.533-8.521l-8.371-20.151
								c27.89,5.233,39.628,12.493,44.049,22.282c4.971,11.007,8.876,69.59,8.876,69.59h-93.17l39.858-27.457L-167.068,298.189z"/>
							<path id="XMLID_13_" display="inline" fill="#3C3B3B" d="M-248.736,267.697c-3.176,0.472-6.185,0.963-9.03,1.475
								c-0.63,0.113-1.241,0.229-1.855,0.344l-8.371,20.151l19.533,8.521l-10.775,35.742l39.858,27.457h5.068L-248.736,267.697z"/>
							<path id="XMLID_12_" display="inline" fill="#303030" d="M-147.535,289.667l-8.371-20.151
								c-0.548-0.103-1.096-0.205-1.654-0.307v-0.001c-0.03-0.005-0.062-0.011-0.092-0.016c-0.037-0.007-4.537-0.85-9.055-1.482
								l-34.11,92.824l0.001-0.002l-0.403,0.856h5.068l39.858-27.457l-10.775-35.742L-147.535,289.667z"/>
							<g id="XMLID_1_" display="inline">
								<path id="XMLID_5_" fill="#CACAC9" d="M-189.353,268.037l9.951-9.615c5.055,2.958,12.333,9.231,12.333,9.231
									s-9.054,20.722-15.8,29.967s-13.783,14.711-13.783,14.711l-11.113-27.303l0.533-0.596L-189.353,268.037z"/>
								<path id="XMLID_4_" fill="#F2F0F0" d="M-189.885,267.654l10.484-9.231c5.055,2.84,12.333,9.231,12.333,9.231
									s-9.586,19.528-16.332,28.404c-6.746,8.876-12.959,13.67-12.959,13.67l-11.404-24.699v-1.633L-189.885,267.654z"/>
								<path id="XMLID_3_" fill="#CACAC9" d="M-226.174,268.037l-9.951-9.615c-5.055,2.958-12.333,9.231-12.333,9.231
									s9.054,20.722,15.8,29.967s13.783,14.711,13.783,14.711l11.113-27.303l-0.533-0.596L-226.174,268.037z"/>
								<path id="XMLID_2_" fill="#FFFFFF" d="M-225.642,267.654l-10.484-9.231c-5.055,2.84-12.333,9.231-12.333,9.231
									s9.586,19.528,16.332,28.404c6.746,8.876,12.959,13.67,12.959,13.67l11.404-24.699v-1.633L-225.642,267.654z"/>
							</g>
						</g>
						<g display="none">
							<path id="XMLID_166_" display="inline" fill="#E8E7E6" d="M-233.065,256.081c-12.942,13.751-36.401,21.142-58.645,24.727
								c-22.245,3.585-22.649,27.634-22.649,34.618c0,6.985,0,32.87,0,32.87h105.562v-69.739L-233.065,256.081z"/>
							<path id="XMLID_155_" display="inline" fill="#DADAD9" d="M-184.531,256.081c12.942,13.751,36.401,21.142,58.645,24.727
								c22.245,3.585,22.649,27.634,22.649,34.618c0,6.985,0,32.87,0,32.87h-105.562v-69.739L-184.531,256.081z"/>
							<g id="XMLID_145_" display="inline">
								<path id="XMLID_170_" fill="#212121" d="M-262.395,273.553c-9.328,3.316-19.44,5.663-29.316,7.255
									c-22.245,3.585-22.649,27.634-22.649,34.618c0,6.985,0,32.87,0,32.87h93.219l-41.244-74.742L-262.395,273.553z"/>
								<polygon id="XMLID_144_" fill="#333333" points="-262.395,273.553 -272.564,276.722 -273.841,302.188 -254.798,312.607 
									-254.798,348.296 -221.141,348.296 								"/>
							</g>
							<g id="XMLID_6_" display="inline">
								<polygon id="XMLID_11_" fill="#4B7483" points="-208.798,300.777 -217.45,300.777 -213.455,356.076 -208.798,356.076 
																	"/>
								<polygon id="XMLID_10_" fill="#446972" points="-204.142,356.076 -200.146,300.777 -208.798,300.777 -208.798,356.076 
																	"/>
								<g id="XMLID_7_">
									<polygon id="XMLID_9_" fill="#5988A0" points="-219.378,291.424 -214.999,300.777 -208.798,300.777 -208.798,278.556 
																			"/>
									<polygon id="XMLID_8_" fill="#446972" points="-198.218,291.424 -208.798,278.556 -208.798,300.777 -202.597,300.777 
																			"/>
								</g>
							</g>
							<g id="XMLID_157_" display="inline">
								<polygon id="XMLID_159_" fill="#DADAD9" points="-233.065,258.103 -248.966,267.743 -225.232,309.064 -208.798,278.217 
																	"/>
								<polygon id="XMLID_158_" fill="#F2F0F0" points="-233.065,256.081 -248.966,267.743 -225.232,307.042 -208.798,278.217 
																	"/>
							</g>
							<g id="XMLID_146_" display="inline">
								<polygon id="XMLID_148_" fill="#DADAD9" points="-184.531,258.103 -168.631,267.743 -192.365,309.064 -208.798,278.217 
																	"/>
								<polygon id="XMLID_147_" fill="#EDECEB" points="-184.531,256.081 -168.631,267.743 -192.365,307.042 -208.798,278.217 
																	"/>
							</g>
							<g id="XMLID_172_" display="inline">
								<path id="XMLID_175_" fill="#212121" d="M-155.202,273.553c9.328,3.316,19.44,5.663,29.316,7.255
									c22.245,3.585,22.649,27.634,22.649,34.618c0,6.985,0,32.87,0,32.87h-93.219l41.244-74.742L-155.202,273.553z"/>
								<polygon id="XMLID_173_" fill="#333333" points="-155.202,273.553 -145.032,276.722 -143.756,302.188 -162.798,312.607 
									-162.798,348.296 -196.455,348.296 								"/>
							</g>
						</g>
					</g>
					<g>
						<path fill="#E9C6B0" d="M183.453,236.74c0,0,9.058,2.404,14.237-0.605c0,0-0.504,3.102-5.996,3.665
							C186.199,240.362,183.453,236.74,183.453,236.74z"/>
						<g id="Capa_5_1_">
							<g>
								<path fill="#41322F" d="M235.964,164.428c-5.361-4.397-11.083-3.85-17.528-2.385c-3.224,0.735-6.262,1.953-9.165,3.519
									c-1.466,0.788-4.431,2.889-5.865,0.618c-0.513-0.807-1.381-2.555-1.177-3.544c0.036-0.167-0.145-0.179-0.249-0.111
									c-3.123,2.021-0.848,8.386,3.024,7.153c4.958-1.582,9.134-4.351,14.312-5.534c5.331-1.218,11.278-1.851,16.273,0.732
									C235.787,164.978,236.157,164.586,235.964,164.428z"/>
								<g>
									<g>
										<g>
											<path fill="#41322F" d="M233.932,159.144c-1.333-1.131-3.227-2.466-4.431-2.868c-1.509-0.668-6.098-0.525-11.141,0.204
												c-0.89,0.223-1.781,0.433-2.667,0.68c-3.356,0.952-6.886,1.858-10.019,3.412c-1.265,0.627-2.48,1.372-3.77,1.934
												c0.043,1.038,0.234,3.102,0.318,3.584c-0.052-0.056-0.111-0.108-0.161-0.167c-0.284-0.359-0.609-0.85-0.983-1.168
												c0.093,0.881,0.308,1.762,0.672,2.537c0.693,0.488,1.426,1.035,2.219,1.363c6.591-3.857,13.83-7.135,21.859-6.504
												c4.719,0.374,8.352,1.152,11.742,3.736c0.105-0.102,0.223-0.185,0.33-0.284
												C237.696,163.44,235.539,160.924,233.932,159.144z"/>
										</g>
									</g>
									<g>
										<g>
											<path fill="#41322F" d="M237.878,165.429c-6.662-5.275-14.996-7.187-22.896-4.481c-4.026,1.378-7.532,3.64-11.343,5.537
												c-0.717,0.356-1.448,0.377-2.145,0.192c0.073,0.216,0.17,0.417,0.263,0.618c0.694,0.488,1.423,1.032,2.213,1.36
												c6.591-3.857,13.83-7.135,21.859-6.504c4.719,0.374,8.352,1.152,11.742,3.736c0.105-0.102,0.219-0.192,0.33-0.284
												C237.895,165.544,237.886,165.485,237.878,165.429z"/>
										</g>
									</g>
								</g>
							</g>
							<g>
								<path fill="#EAC8B2" d="M183.888,202.104c-0.525-0.083-1.049-0.145-1.573-0.198c2.336,2.355,3.758,5.837,6.9,7.197
									c5.905,2.561,7.892-4.076,9.944-8.041c-2.69,0.711-6.73,1.647-9.508,1.755C187.145,202.917,186.329,202.509,183.888,202.104
									z"/>
								<path fill="#E2B296" d="M194.338,204.286c1.829-0.763,3.363-1.931,4.813-3.208c0.002-0.009,0.002-0.012,0.008-0.015
									c-2.69,0.711-6.73,1.647-9.508,1.755c-2.506,0.099-3.322-0.309-5.763-0.714c-0.525-0.083-1.049-0.145-1.573-0.198
									c0.303,0.303,0.592,0.628,0.867,0.961C186.692,204.533,190.634,205.834,194.338,204.286z"/>
								<path fill="#96501D" d="M188.866,203.541c3.168-0.25,6.07-1.029,9.04-1.891c0.028-0.031,0.048-0.059,0.077-0.093
									c0.219-0.278-5.403,0.744-7.999,1.199c-2.413,0.423-4.829-0.751-7.243-0.943c0.284-5.673,1.957-20.172,2.355-23.904
									c-0.003,0.012-0.01,0.022-0.017,0.031c-0.992,2.206-1.171,4.351-1.53,6.699c-0.285,1.869-2.147,14.483-2.611,16.593
									c-0.221,1.001,1.554,1.455,1.695,1.397c3.577,2.379,4.503,2.737,7.357,2.815c2.337,0.065,3.991,0.396,6.616-2.308
									c-1.463,0.92-2.373,1.956-7.662,1.474c-0.426-0.037-3.555-0.955-3.523-1.261
									C185.449,203.121,188.542,203.566,188.866,203.541z"/>
								<path fill="#F5E8E0" d="M185.693,177.722c-0.813,7.361-3.136,15.663-1.885,23.042c0.167,0.989,3.458,1.493,3.394,0.457
									c-0.479-7.41-1.112-16.04-1.046-23.468C186.161,177.508,185.718,177.477,185.693,177.722z"/>
							</g>
							<g>
								<path fill="#EAC8B2" d="M145.745,176.031c1.936,1.057,3.809,3.059,7.555,4.557c3.178,1.273,5.6,1.678,9.02,1.904
									c4.729,0.312,9.519,0,13.809-1.875c-0.114-0.482-0.375-1.026-0.599-1.455c-0.844-3.093-2.106-5.896-3.965-8.111
									c-4.509-3.958-10.283-5.998-16.534-4.595c-2.228,0.501-3.841,1.134-5.165,2.957c-1.608,2.213-1.406,3.173-1.997,5.556
									C147.743,175.469,146.889,175.691,145.745,176.031z M149.313,175.268c0.057-0.25-0.098-0.569-0.319-0.813
									c1.095-2.494,2.812-5.04,5.108-5.85c2.985-1.06,6.361-0.88,9.427-0.228c5.528,1.168,8.006,4.656,10.365,8.983
									c0.191,2.29-0.613,2.633-2.998,2.877c-2.443,0.25-4.921,0.439-7.382,0.306c-1.517-0.084-9.255-0.93-12.646-2.917
									c-0.014-0.043-0.02-0.084-0.046-0.139c-0.227-0.451-1.363-1.406-1.511-1.99
									C149.318,175.419,149.294,175.348,149.313,175.268z"/>
								<g>
									<path fill="#623519" d="M148.301,175.45c2.947,4.759,9.816,5.831,13.603,6.05c2.349,0.136,10.242-0.877,11.718-1.36
										c0.04-0.022,0.077-0.046,0.114-0.071c0.431-0.29,0.596-0.652,0.612-1.051c0.09,0.142,0.647,0.575,0.55,0.368
										c-0.887-1.888-1.519-3.9-2.585-5.717c-1.923-3.278-6.393-5.575-10.265-6.337c-0.89-0.176-1.792-0.312-2.719-0.386
										c-3.098-0.25-6.503,0.108-8.513,2.599C149.726,170.902,148.63,173.664,148.301,175.45z"/>
									<path fill="#FFFFFF" d="M149.517,175.098c1.448-3.748,2.736-7.231,7.898-7.317c4.079-0.068,9.68,1.573,12.887,4.351
										c0.701,0.794,3.966,5.964,2.948,6.891c-0.409,0.374-2.185,0.949-2.581,1.048c-2.326,0.569-4.995,0.618-7.399,0.674
										C158.765,180.849,151.434,179.86,149.517,175.098z"/>
								</g>
								<g id="Capa_2_1_">
									<g>
										<g>
											<g>
												<g>
													<g>
														<defs>
															<path id="SVGID_5_" d="M149.517,175.098c1.448-3.748,2.736-7.231,7.898-7.317c4.079-0.068,9.68,1.573,12.887,4.351
																c0.701,0.794,3.966,5.964,2.948,6.891c-0.409,0.374-2.185,0.949-2.581,1.048c-2.326,0.569-4.995,0.618-7.399,0.674
																C158.765,180.849,151.434,179.86,149.517,175.098z"/>
														</defs>
														<clipPath id="SVGID_6_">
															<use xlink:href="#SVGID_5_"  overflow="visible"/>
														</clipPath>
														<g clip-path="url(#SVGID_6_)">
															<g>
																<path fill="#200F10" d="M167.891,174.805c0,4.502-2.758,8.158-6.163,8.158c-3.404,0-6.16-3.655-6.16-8.158
																	s2.756-8.154,6.16-8.154C165.134,166.65,167.891,170.302,167.891,174.805z"/>
																<path fill="#7C4923" d="M161.729,167.216c-3.113,0-5.636,3.337-5.636,7.459c0,4.119,2.523,7.459,5.636,7.459
																	c3.116,0,5.639-3.34,5.639-7.459C167.368,170.553,164.845,167.216,161.729,167.216z"/>
																<path fill="#0F0A0F" d="M165.546,174.36c0,2.836-1.736,5.142-3.889,5.142c-2.144,0-3.886-2.305-3.886-5.142
																	c0-2.843,1.741-5.148,3.886-5.148C163.81,169.212,165.546,171.517,165.546,174.36z"/>
																<path fill="#FCF7E0" d="M160.182,171.325c-0.276,1.264-1.14,2.154-1.922,1.978c-0.78-0.17-1.188-1.338-0.912-2.605
																	c0.28-1.267,1.14-2.154,1.923-1.981C160.055,168.89,160.462,170.058,160.182,171.325z"/>
																<path fill="#7C4923" d="M164.803,178.463c-3.684,3.955-7.305,0.884-7.481-3.714
																	c-0.002-0.127-0.824,0.612-0.816,0.701c0.172,2.543,1.202,4.836,3.642,5.893c2.104,0.912,4.017-0.423,5.171-2.051
																	C165.415,179.158,164.901,178.358,164.803,178.463z"/>
															</g>
															<path fill="#7C4923" d="M166.089,172.233c0,0,0.668,2.948-0.789,5.503l0.545,0.324
																C165.844,178.061,167.688,175.713,166.089,172.233z"/>
														</g>
													</g>
												</g>
											</g>
										</g>
									</g>
									<g>
										<path fill="#41322F" d="M178.115,163.279c-0.995-0.735-2.873,1.039-1.968,1.965c-0.045,1.838-0.625,2.138-1.735,0.896
											c-0.45-0.309-0.919-0.581-1.412-0.822c-1.523-0.865-3.05-1.616-4.663-2.299c-3.272-1.391-6.686-2.095-10.229-2.237
											c-3.563-0.139-7.136,0.754-10.579,1.545c-2.279,0.528-4.76,1.285-6.415,3.003c-0.135,0.136-0.301,0.433-0.119,0.605
											c0.014,0.015,0.031,0.031,0.047,0.043c0.093,0.09,0.231,0.077,0.338,0.031c0.057-0.028,0.113-0.055,0.169-0.081
											c0.108-0.049,0.235-0.164,0.246-0.29c0.003-0.031,0.003-0.065,0.007-0.098c0.006-0.081-0.037-0.154-0.131-0.13
											c4.402-0.992,9.493-1.879,14.027-2.147c5.528-0.325,10.966,1.674,15.686,4.397c1.879,1.085,4.223,3.115,6.26,1.085
											C179.148,167.246,180.142,164.78,178.115,163.279z"/>
										<g>
											<g>
												<g>
													<path fill="#41322F" d="M145.297,159.144c1.336-1.131,3.227-2.466,4.433-2.868c1.506-0.668,6.096-0.525,11.139,0.204
														c0.892,0.223,1.784,0.433,2.668,0.68c3.356,0.952,6.884,1.858,10.019,3.412c1.265,0.627,2.478,1.372,3.769,1.934
														c-0.043,1.038-0.232,3.102-0.317,3.584c0.051-0.056,0.111-0.108,0.158-0.167c0.285-0.359,0.61-0.85,0.984-1.168
														c-0.094,0.881-0.306,1.762-0.672,2.537c-0.693,0.488-1.426,1.035-2.219,1.363c-6.592-3.857-13.829-7.135-21.859-6.504
														c-4.719,0.374-8.352,1.152-11.74,3.736c-0.108-0.102-0.223-0.185-0.332-0.284
														C141.534,163.44,143.692,160.924,145.297,159.144z"/>
												</g>
											</g>
											<g>
												<g>
													<path fill="#41322F" d="M141.353,165.429c6.661-5.275,14.996-7.187,22.894-4.481c4.028,1.378,7.535,3.64,11.343,5.537
														c0.719,0.356,1.449,0.377,2.146,0.192c-0.073,0.216-0.169,0.417-0.265,0.618c-0.692,0.488-1.42,1.032-2.211,1.36
														c-6.592-3.857-13.829-7.135-21.859-6.504c-4.719,0.374-8.352,1.152-11.74,3.736c-0.108-0.102-0.221-0.192-0.332-0.284
														C141.333,165.544,141.345,165.485,141.353,165.429z"/>
												</g>
											</g>
										</g>
									</g>
									<g>
										<path fill="#EAC8B2" d="M232.322,175.095c-0.593-2.385-0.391-3.343-1.997-5.555c-1.326-1.823-2.939-2.46-5.167-2.96
											c-6.251-1.4-12.025,0.637-16.534,4.598c-1.862,2.213-3.123,5.015-3.966,8.111c-0.224,0.426-0.482,0.97-0.599,1.456
											c4.29,1.872,9.085,2.188,13.811,1.875c3.417-0.225,5.842-0.634,9.023-1.906c3.745-1.498,5.616-3.501,7.553-4.557
											C233.3,175.818,232.446,175.595,232.322,175.095z M230.877,175.624c-0.15,0.584-1.282,1.539-1.511,1.99
											c-0.029,0.052-0.031,0.093-0.046,0.139c-3.391,1.984-11.13,2.83-12.649,2.914c-2.458,0.136-4.936-0.052-7.38-0.306
											c-2.379-0.244-3.19-0.584-2.998-2.877c2.359-4.323,4.837-7.815,10.367-8.983c3.067-0.649,6.441-0.828,9.429,0.229
											c2.294,0.81,4.009,3.359,5.106,5.849c-0.223,0.244-0.377,0.562-0.318,0.816
											C230.895,175.472,230.871,175.546,230.877,175.624z"/>
										<g>
											<g>
												<path fill="#623519" d="M229.068,169.545c-2.007-2.491-5.413-2.849-8.51-2.599c-0.925,0.074-1.829,0.21-2.719,0.386
													c-3.872,0.763-8.341,3.059-10.267,6.337c-1.064,1.817-1.698,3.828-2.585,5.717c-0.095,0.207,0.46-0.226,0.553-0.368
													c0.015,0.399,0.183,0.76,0.609,1.051c0.039,0.025,0.077,0.049,0.118,0.071c1.475,0.482,9.369,1.496,11.716,1.36
													c3.79-0.219,10.656-1.291,13.602-6.05C231.258,173.664,230.161,170.902,229.068,169.545z"/>
												<path fill="#FFFFFF" d="M216.616,180.743c-2.402-0.056-5.069-0.105-7.397-0.674c-0.393-0.099-2.173-0.674-2.582-1.048
													c-1.018-0.927,2.248-6.096,2.947-6.891c3.208-2.778,8.81-4.419,12.89-4.351c5.162,0.086,6.452,3.569,7.901,7.317
													C228.454,179.86,221.12,180.849,216.616,180.743z"/>
											</g>
											<g>
												<g>
													<g>
														<g>
															<g>
																<g>
																	<defs>
																		<path id="SVGID_7_" d="M216.616,180.743c-2.402-0.056-5.069-0.105-7.397-0.674
																			c-0.393-0.099-2.173-0.674-2.582-1.048c-1.018-0.927,2.248-6.096,2.947-6.891c3.208-2.778,8.81-4.419,12.89-4.351
																			c5.162,0.086,6.452,3.569,7.901,7.317C228.454,179.86,221.12,180.849,216.616,180.743z"/>
																	</defs>
																	<clipPath id="SVGID_8_">
																		<use xlink:href="#SVGID_7_"  overflow="visible"/>
																	</clipPath>
																	<g clip-path="url(#SVGID_8_)">
																		<g>
																			<path fill="#200F10" d="M224.322,174.805c0,4.502-2.761,8.158-6.165,8.158c-3.405,0-6.163-3.655-6.163-8.158
																				s2.758-8.154,6.163-8.154C221.561,166.65,224.322,170.302,224.322,174.805z"/>
																			<path fill="#7C4923" d="M218.158,167.216c-3.113,0-5.639,3.337-5.639,7.459c0,4.119,2.526,7.459,5.639,7.459
																				c3.115,0,5.638-3.34,5.638-7.459C223.795,170.553,221.272,167.216,218.158,167.216z"/>
																			<path fill="#0F0A0F" d="M221.975,174.36c0,2.836-1.739,5.142-3.89,5.142c-2.144,0-3.886-2.305-3.886-5.142
																				c0-2.843,1.741-5.148,3.886-5.148C220.236,169.212,221.975,171.517,221.975,174.36z"/>
																			<path fill="#FCF7E0" d="M216.609,171.325c-0.278,1.264-1.137,2.154-1.922,1.978
																				c-0.782-0.17-1.188-1.338-0.91-2.605s1.138-2.154,1.922-1.981C216.481,168.89,216.888,170.058,216.609,171.325z"
																				/>
																			<path fill="#7C4923" d="M221.23,178.463c-3.683,3.955-7.305,0.884-7.479-3.714
																				c-0.003-0.127-0.824,0.612-0.817,0.701c0.17,2.543,1.204,4.836,3.641,5.893c2.104,0.912,4.017-0.423,5.175-2.051
																				C221.843,179.158,221.331,178.358,221.23,178.463z"/>
																		</g>
																		<path fill="#7C4923" d="M222.516,172.233c0,0,0.668,2.948-0.791,5.503l0.548,0.324
																			C222.273,178.061,224.114,175.713,222.516,172.233z"/>
																	</g>
																</g>
															</g>
														</g>
													</g>
												</g>
											</g>
											<g>
												<g>
													<path fill="#E9C6B0" d="M216.099,217.448c0.152,0.478,0.044,0.933-0.789,1.148c-0.609,0.395-1.608,0.698-3.156,0.885
														c-6.768,0.808-13.981,0.067-20.733-0.423c-3.51-0.257-6.861-0.398-10.366-0.084c-1.53,0.166-4.635,0.621-7.709,0.822
														c-0.972,0.097-1.947,0.181-2.935,0.237c-1.162,0.064-2.051,0.008-2.78-0.154c-1.398-0.087-2.563-0.35-3.217-0.905
														c-0.333,0.379-0.404,0.789,0.122,1.262c0.459,0.409,1.044,0.739,1.713,1.026c1.121,0.088,2.371,0.082,3.2,0.711
														c1.276,0.964,3.156,2.578,4.309,3.901c5.706,3.873,17.892,4.558,25.783,2.9c5.839-1.226,8.307-3.254,11.255-5.993
														c0.484-0.447,0.996-0.851,1.543-1.222C215.192,218.656,218.227,219.702,216.099,217.448z"/>
													<path fill="#974B1C" d="M215.915,217.03c0.377,0.676,0.5,1.431-0.985,1.642c-0.596,0.084-1.199,0.136-1.811,0.176
														c-1.713,0.235-3.525,0.294-5.303,0.411c-3.739,0.244-7.531,0.195-11.288,0.172c-5.345-0.031-10.92-0.945-16.205-0.348
														c-0.486,0.015-0.967,0.032-1.46,0.055c-2.792,0.366-5.582,0.739-8.452,0.896c-1.162,0.064-2.051,0.008-2.78-0.154
														c-1.341-0.082-2.461-0.33-3.128-0.839c0.822,1.268,2.251,1.62,4.35,1.647c3.642,1.805,4.814,4.892,9.382,6.129
														c4.364,1.18,9.875,1.803,14.773,1.704c4.236-0.087,8.736-0.917,11.88-2.422c1.639-0.781,2.516-1.791,3.37-2.832
														c1.449-1.772,3.234-2.739,6.119-3.864c0.03-0.011,0.043-0.029,0.06-0.044c0.424-0.088,0.854-0.172,1.248-0.279
														c0.208-0.005,0.413-0.046,0.565-0.13c0.013-0.008,0.016-0.015,0.027-0.021c0.004-0.002,0.013-0.002,0.013-0.002
														c0.198-0.066,0.294-0.156,0.326-0.254C217.13,218.134,216.751,217.437,215.915,217.03z M207.245,223.054
														c-2.451,2.99-6.569,4.42-12.712,4.727c-4.883,0.244-10.418-0.421-14.917-1.354c-4.884-1.009-6.186-4.091-10.147-5.733
														c0.357-0.005,0.736-0.017,1.128-0.034c5.334-0.218,10.33-1.419,15.765-1.495c0.044,0,0.067-0.02,0.06-0.041
														c4.193,0.218,8.479,0.801,12.526,0.908c3.593,0.096,8.267,0.208,12.344-0.203
														C209.376,220.601,208.187,221.909,207.245,223.054z"/>
													<path fill="#841A1E" d="M207.245,223.054c-2.451,2.99-6.569,4.42-12.712,4.727c-4.883,0.244-10.418-0.421-14.917-1.354
														c-4.884-1.009-6.186-4.091-10.147-5.733c0.357-0.005,0.736-0.017,1.128-0.034c5.334-0.218,10.33-1.419,15.765-1.495
														c0.044,0,0.067-0.02,0.06-0.041c4.193,0.218,8.479,0.801,12.526,0.908c3.593,0.096,8.267,0.208,12.344-0.203
														C209.376,220.601,208.187,221.909,207.245,223.054z"/>
													<path fill="#FFFFFF" d="M205.927,221.726c0.778-0.53,1.487-1.09,2.128-1.675c-3.173,0.134-6.437,0.053-9.106-0.018
														c-4.047-0.108-8.333-0.691-12.526-0.908c0.006,0.021-0.016,0.041-0.06,0.041c-4.126,0.059-7.997,0.762-11.957,1.193
														c1.063,1.211,2.238,2.145,5.426,2.522c3.044,0.356,6.053,0.757,9.182,0.855c3.806,0.116,7.481-0.049,11.092-0.455
														C202.229,222.933,204.273,222.468,205.927,221.726z"/>
													<path opacity="0.6" fill="#B5A795" enable-background="new    " d="M202.835,221.519
														c-0.444,0.661-1.178,1.202-2.098,1.655c1.898-0.336,3.701-0.78,5.189-1.447c0.778-0.53,1.487-1.09,2.128-1.675
														c-3.173,0.134-6.437,0.053-9.106-0.018c-4.047-0.108-8.333-0.691-12.526-0.908c0.006,0.021-0.016,0.041-0.06,0.041
														c-4.126,0.059-7.997,0.762-11.957,1.193c0.095,0.11,0.192,0.212,0.291,0.317c4.22-0.194,8.326-0.75,12.616-0.634
														c5.029,0.138,9.976,0.583,14.95,0.978C202.721,221.055,202.995,221.286,202.835,221.519z"/>
													<path fill="#CD6F5C" d="M192.829,225.455c-4.772-0.295-8.606,0.133-12.402,1.13c4.35,0.845,9.512,1.425,14.107,1.196
														c2.212-0.11,4.154-0.373,5.858-0.797C198.119,226.213,195.648,225.632,192.829,225.455z"/>
												</g>
												<path fill="#974B1C" d="M182.204,231.26c3.969,2.058,10.991,2.107,15.13,0.294c0.147-0.066,0.255-0.17,0.303-0.273
													C192.372,231.973,187.175,232.273,182.204,231.26z"/>
											</g>
										</g>
									</g>
								</g>
							</g>
							<circle fill="none" stroke="#4CAF50" stroke-width="18" stroke-miterlimit="10" cx="188.886" cy="189.929" r="163.828"/>
						</g>
					</g>
				</g>
			</g>
		</g>
	</g>
</g>
</svg>
