<?xml version="1.0" encoding="utf-8"?>
<!-- Generator: Adobe Illustrator 17.0.0, SVG Export Plug-In . SVG Version: 6.00 Build 0)  -->
<!DOCTYPE svg PUBLIC "-//W3C//DTD SVG 1.1//EN" "http://www.w3.org/Graphics/SVG/1.1/DTD/svg11.dtd">
<svg version="1.1" id="Capa_1" xmlns="http://www.w3.org/2000/svg" xmlns:xlink="http://www.w3.org/1999/xlink" x="0px" y="0px"
	 width="378px" height="376px" viewBox="0 0 378 376" enable-background="new 0 0 378 376" xml:space="preserve">
<g>
	<circle fill="#FFFFFF" cx="189.411" cy="190.882" r="163.828"/>
	<g>
		<g>
			<g>
				<g>
					<defs>
						<circle id="SVGID_1_" cx="190.461" cy="190.812" r="163.828"/>
					</defs>
					<clipPath id="SVGID_2_">
						<use xlink:href="#SVGID_1_"  overflow="visible"/>
					</clipPath>
					<g clip-path="url(#SVGID_2_)">
						<path display="none" fill="#010002" d="M278.664-233.008c-2.751-12.932-9.464-24.614-19.106-33.406
							c2.005,0.947,3.904,2.124,5.676,3.52c0.249,0.196,0.561,0.305,0.879,0.305c0.514,0,0.987-0.273,1.235-0.711
							c0.242-0.431,0.229-0.948-0.035-1.383l-0.16-0.263c-4.13-6.794-8.402-13.819-14.603-19.069
							c-5.621-4.758-12.479-7.136-19.211-8.984c2.572-1.571,5.59-2.418,8.703-2.418c3.513,0,6.886,1.043,9.755,3.017
							c0.259,0.178,0.558,0.272,0.866,0.272c0.572,0,1.106-0.322,1.395-0.841c0.285-0.511,0.275-1.106-0.026-1.592
							c-1.668-2.694-4.73-5.165-9.103-7.346c-5.638-2.812-12.341-4.239-19.92-4.239c-2.301,0-4.686,0.132-7.132,0.395
							c6.43-4.601,11.423-11.314,15.929-17.372l0.717-0.963c0.357-0.478,0.415-1.072,0.156-1.588
							c-0.275-0.547-0.862-0.901-1.495-0.901c-0.385,0-0.756,0.136-1.045,0.382c-6.028,5.141-13.827,5.159-22.085,5.178
							c-7.693,0.018-15.602,0.037-21.887,4.606c2.439-3.274,4.858-6.563,7.223-9.778l2.307-3.134c0.312-0.423,0.362-0.97,0.13-1.427
							c-0.242-0.478-0.753-0.787-1.304-0.787c-0.333,0-0.657,0.116-0.911,0.325c-2.867,2.37-5.557,4.247-8.224,5.737
							c-1.68,0.939-3.419,1.658-5.261,2.42c-0.863,0.357-1.755,0.726-2.633,1.117c-3.449,1.536-5.875,3.678-7.048,6.139
							c-0.896-3.614-0.11-7.657,0.823-11.557c0.106-0.445,0.004-0.906-0.281-1.267c-0.29-0.367-0.739-0.586-1.2-0.586
							c-0.544,0-1.038,0.307-1.288,0.801c-1.049,2.07-2.262,3.77-3.709,5.198c-0.511,0.505-1.085,0.964-1.692,1.45
							c-0.986,0.789-2.004,1.606-2.818,2.679c-2.068,2.73-1.774,5.82-1.11,8.812c-3.1-1.307-6.527-1.991-10.012-1.991
							c-6.074,0-12.099,2.012-16.967,5.666c-0.541,0.406-0.756,1.123-0.535,1.784c0.205,0.615,0.742,1.011,1.369,1.011
							c0.19,0,0.381-0.037,0.566-0.11c1.572-0.622,3.213-0.937,4.88-0.937c1.824,0,3.601,0.383,5.225,1.11h-0.008
							c-17.596,0-31.093,13.82-39.317,25.413c-0.296,0.417-0.335,0.956-0.102,1.407c0.242,0.469,0.739,0.771,1.267,0.771
							c0.368,0,0.715-0.144,0.975-0.406c2.176-2.187,4.671-3.842,7.394-4.925c-12.63,7.218-17.127,24.204-16.933,39.116
							c0.01,0.784,0.643,1.399,1.44,1.399c0.068,0,0.136-0.005,0.201-0.014c-1.117,7.041-0.099,14.6,1.142,21.915
							c0.113,0.669,0.665,1.136,1.342,1.136c0.315,0,0.607-0.1,0.845-0.27c0.342,2.975,0.906,5.921,1.461,8.816
							c1.225,6.394,2.382,12.434,1.35,18.614c-0.034,0.21-0.014,0.42,0.058,0.613l-0.002,0.138c-0.062,0.063-0.12,0.131-0.17,0.205
							c-3.852,3.266-5.545,9.203-5.032,17.651c0.188,3.101,0.446,7.349,2.376,10.472c1.461,2.366,4.035,3.976,6.306,5.397
							c0.68,0.425,1.321,0.826,1.915,1.234c0.324,0.222,0.684,0.478,1.073,0.754c2.68,1.903,6.731,4.778,10.225,4.778
							c0.658,0,1.275-0.1,1.845-0.299c0.79,1.424,1.684,2.774,2.667,4.025c8.942,11.38,25.3,25.175,44.639,30.161
							c-0.093,0.618-0.249,1.176-0.474,1.687c-0.011,0-0.022,0-0.033,0c-0.08,0-0.208,0.014-0.288,0.031
							c-0.287,0.063-0.622,0.154-0.97,0.248c-0.543,0.148-1.287,0.35-1.64,0.35c-0.001,0-0.001,0-0.001,0
							c-0.435-0.016-1.018-0.211-1.582-0.4c-0.326-0.109-0.643-0.214-0.937-0.292c-0.504-0.133-1.008-0.271-1.512-0.41
							c-2.544-0.7-5.175-1.425-7.937-1.425c-0.196,0-0.393,0.004-0.59,0.011c-2.939,0.112-5.977,0.956-8.784,2.44
							c-4.108,2.173-6.761,5.593-9.103,8.61c-1.573,2.028-3.136,4.113-4.646,6.129c-1.585,2.115-3.223,4.302-4.872,6.418
							c-1.29,1.657-2.688,3.285-4.039,4.859c-2.019,2.352-4.106,4.783-5.926,7.408c-0.014,0.02-0.052,0.079-0.057,0.087
							c-0.266,0.411-0.286,0.933-0.052,1.363c0.171,0.315,0.46,0.552,0.793,0.667c0.804,0.973,2.579,2.826,5.174,3.89
							c-1.036,2.885-2.063,5.868-3.058,8.883c-2.419,7.329-2.858,13.995-1.303,19.826c-0.037,0.087-0.065,0.175-0.086,0.262
							c-0.146,0.607,0.08,1.131,0.229,1.479c0.026,0.061,0.052,0.119,0.072,0.175c0.121,0.337,0.265,0.684,0.411,1.035
							c0.259,0.622,0.527,1.265,0.632,1.829c0.132,0.71,0.202,1.414,0.275,2.16c0.126,1.278,0.256,2.598,0.722,3.962
							c1.134,3.322,3.424,5.195,6.622,5.417c0.251,0.017,0.503,0.026,0.756,0.026c0.94,0,1.937-0.119,2.963-0.354
							c0.198-0.045,0.4-0.067,0.618-0.067c0.607,0,1.262,0.177,1.956,0.364c0.39,0.105,0.786,0.212,1.191,0.296
							c2.709,0.563,5.455,0.925,8.177,1.078c0,0.005,0.014,0.604,0.018,0.898c0.097,6.321,0.318,11.566,0.694,16.507
							c0.145,1.902,0.304,3.603,0.487,5.202c0.038,0.336,0.107,0.689,0.181,1.062c0.117,0.597,0.262,1.341,0.186,1.716
							c-0.158,0.782-0.656,1.708-1.137,2.604c-0.248,0.46-0.504,0.937-0.709,1.389l-4.495,9.89
							c-0.177,0.389-0.176,0.831,0.004,1.214c0.183,0.39,0.531,0.68,0.955,0.796c0.833,0.227,1.702,0.517,2.638,0.881
							c-2.497,9.816-3.299,20.273-2.322,30.331c-0.201,0.147-0.397,0.269-0.591,0.368c-0.425,0.217-0.696,0.664-0.706,1.169
							c-0.405,17.891,1.878,37.544,6.981,60.082c0.554,2.443,1.197,4.896,1.819,7.267c0.516,1.967,1.048,4,1.524,6.005
							c0.201,0.846,0.274,1.958,0.345,3.033c0.031,0.47,0.062,0.934,0.102,1.373l0.395,4.291c0.014,0.149,0.02,0.283,0.025,0.404
							c0.031,0.645,0.068,1.447,1.092,2.164c0.841,0.59,1.741,1.158,2.739,1.728c0.058,1.652,0.137,3.317,0.213,4.934
							c0.072,1.533,0.144,3.064,0.2,4.592c0.016,0.422,0.032,0.845,0.049,1.268c-0.214,0.094-0.403,0.238-0.55,0.426
							c-1.122,1.433-2.131,3.775-1.602,6.049c0.172,0.737,0.488,1.428,0.938,2.052c0.208,0.289,0.475,0.514,0.69,0.694
							c0.075,0.064,0.184,0.156,0.237,0.209c0.106,0.273,0.145,0.876,0.17,1.282c0.02,0.316,0.041,0.615,0.077,0.864l0.803,5.444
							c0.595,4.084,0.083,8.279-1.478,12.198c-1.295-0.409-2.815-0.609-4.609-0.609c-1.072,0-2.234,0.072-3.553,0.22
							c-3.291,0.369-5.77,1.205-7.544,2.546c-0.637-0.249-1.325-0.375-2.052-0.375c-0.806,0-1.669,0.156-2.565,0.464
							c-1.542,0.531-2.798,1.573-3.538,2.934c-0.789,1.452-0.883,3.086-0.256,4.484c0.697,1.559,2.101,2.572,3.339,3.467
							c0,0,0.464,0.337,0.59,0.431c-1.204,0.256-2.376,0.7-3.436,1.308c-1.271,0.726-2.393,1.667-3.479,2.578
							c-1.84,1.543-3.578,3-5.586,3c-0.203,0-0.41-0.015-0.617-0.044c-0.098-0.014-0.194-0.02-0.287-0.02
							c-0.291,0-0.573,0.064-0.828,0.186c-0.276-0.038-0.578-0.094-0.819-0.14l-0.286-0.053c-0.106-0.019-0.21-0.028-0.311-0.028
							c-0.669,0-1.246,0.387-1.505,1.013c-0.166,0.402-0.172,0.842-0.039,1.236c-0.239,0.056-0.477,0.121-0.714,0.199
							c-1.069,0.051-2.568,0.308-3.894,1.655c-1.142,1.16-1.859,2.74-2.13,4.694c-0.522,3.754-0.153,6.617,1.128,8.732
							c0.004,0.022,0.009,0.045,0.014,0.068l0.301,1.261l-0.245,1.723c-0.044,0.308,0.043,0.62,0.239,0.861
							c0.231,0.285,5.808,7.016,18.685,10.898c3.249,0.98,6.749,1.477,10.402,1.477c9.659,0,17.183-3.402,17.498-3.547
							c0.221-0.101,0.404-0.274,0.519-0.488c0.015-0.027,1.496-2.75,3.933-4.157c0.385-0.223,0.773-0.331,1.185-0.331
							c1.542,0,2.895,1.506,2.905,1.517c0.216,0.247,0.524,0.383,0.842,0.383c0.101,0,0.202-0.014,0.302-0.042
							c4.855-1.362,13.755-5.312,15.555-7.607c1.137-1.45,1.685-3.934,1.943-5.757c0.259,1.823,0.807,4.309,1.943,5.757
							c1.801,2.295,10.701,6.245,15.555,7.607c0.099,0.028,0.199,0.041,0.299,0.041c0.316,0,0.626-0.135,0.842-0.379
							c0.014-0.015,1.366-1.52,2.908-1.52c0.412,0,0.8,0.108,1.185,0.33c2.436,1.407,3.919,4.13,3.933,4.156
							c0.115,0.216,0.297,0.388,0.52,0.49c0.315,0.145,7.84,3.547,17.498,3.547c3.652,0,7.153-0.497,10.402-1.477
							c12.876-3.883,18.453-10.613,18.685-10.898c0.196-0.242,0.283-0.554,0.239-0.861l-0.245-1.723l0.301-1.261
							c0.005-0.022,0.01-0.045,0.014-0.068c1.281-2.115,1.65-4.977,1.128-8.732c-0.272-1.954-0.988-3.533-2.13-4.694
							c-1.325-1.347-2.824-1.604-3.893-1.655c-0.236-0.077-0.475-0.142-0.714-0.199c0.132-0.393,0.126-0.834-0.039-1.237
							c-0.259-0.624-0.835-1.011-1.505-1.011c-0.101,0-0.205,0.009-0.313,0.029l-0.287,0.053c-0.239,0.045-0.541,0.101-0.817,0.139
							c-0.255-0.121-0.537-0.186-0.828-0.186c-0.093,0-0.189,0.007-0.288,0.02c-0.206,0.029-0.413,0.044-0.616,0.044
							c-2.008,0.001-3.746-1.457-5.596-3.009c-1.083-0.907-2.202-1.846-3.468-2.569c-1.061-0.607-2.233-1.052-3.436-1.308
							c0.126-0.094,0.59-0.431,0.59-0.431c1.238-0.895,2.642-1.908,3.339-3.467c0.626-1.398,0.532-3.032-0.256-4.484
							c-0.74-1.362-1.997-2.404-3.539-2.935c-0.896-0.308-1.758-0.464-2.565-0.464c-0.727,0-1.415,0.126-2.052,0.375
							c-1.774-1.341-4.253-2.177-7.545-2.546c-1.319-0.148-2.48-0.22-3.552-0.22c-1.794,0-3.314,0.2-4.609,0.609
							c-1.562-3.919-2.073-8.114-1.478-12.198c0.163-1.117,0.328-2.232,0.493-3.349l0.309-2.096
							c0.037-0.249,0.057-0.548,0.077-0.864c0.026-0.406,0.064-1.01,0.17-1.282c0.053-0.054,0.162-0.146,0.238-0.21
							c0.214-0.181,0.48-0.405,0.689-0.693c0.452-0.626,0.768-1.317,0.939-2.053c0.53-2.275-0.48-4.617-1.602-6.049
							c-0.147-0.188-0.335-0.333-0.549-0.427c0.017-0.423,0.033-0.846,0.049-1.268c0.056-1.521,0.128-3.046,0.2-4.574
							c0.075-1.584,0.151-3.216,0.209-4.835c0.135-0.065,0.28-0.134,0.432-0.205c1.356-0.637,3.042-1.43,3.58-2.697
							c0.331-0.782,0.341-1.772,0.35-2.645c0.003-0.336,0.006-0.652,0.028-0.891c0.066-0.722,0.11-1.459,0.155-2.2
							c0.086-1.427,0.174-2.902,0.434-4.253c0.395-2.052,0.987-4.149,1.56-6.178c0.417-1.476,0.848-3.003,1.205-4.517
							c2.06-8.723,3.752-17.504,5.027-26.099c2.005-13.511,2.855-25.55,2.601-36.811c-0.013-0.486-0.295-0.927-0.734-1.152
							c-0.186-0.095-0.373-0.211-0.564-0.35c0.986-10.163,0.155-20.724-2.404-30.631c0.648-0.227,1.283-0.427,1.898-0.595
							c0.399-0.109,0.733-0.393,0.915-0.782c0.179-0.38,0.185-0.81,0.018-1.178L225.71-1.57c-0.052-0.116-0.122-0.244-0.196-0.378
							c-0.055-0.1-0.148-0.266-0.159-0.289c-0.067-0.504,0.095-1.305,0.238-2.012c0.091-0.452,0.185-0.92,0.232-1.353
							c0.678-6.265,0.909-12.595,1.035-17.41c0.017-0.657,0.046-1.321,0.075-1.989c0.035-0.809,0.07-1.637,0.086-2.467
							c2.129-0.095,4.163-0.342,6.188-0.75c1.674-0.337,3.364-0.854,5.478-1.677c0.93-0.361,1.518-0.406,2.588-0.489l0.523-0.04
							c2-0.146,5.347-0.391,6.285-2.75c0.39-0.979,0.283-2.117,0.197-3.032c-0.017-0.179-0.033-0.353-0.045-0.516l-0.079-1.122
							c-0.104-1.44-0.211-2.929-0.23-4.384c-0.019-1.438,0.096-2.847,0.218-4.338c0.091-1.101,0.184-2.239,0.216-3.381
							c0.077-2.715-0.302-5.343-0.683-7.556c-0.329-1.912-0.715-3.837-1.087-5.698c-0.635-3.173-1.292-6.454-1.669-9.653
							c-0.009-0.134-0.017-0.273-0.026-0.415c5.147-0.735,8.103-5.063,8.235-5.26c0.174-0.26,0.231-0.58,0.158-0.884
							c-0.039-0.161-0.113-0.31-0.214-0.436c-0.019-0.034-0.039-0.067-0.061-0.101c-1.734-2.501-3.722-4.81-5.644-7.044
							c-1.129-1.313-2.297-2.67-3.391-4.041c-2.017-2.529-3.993-5.171-5.903-7.726c-1.158-1.548-2.315-3.097-3.489-4.632
							c-0.249-0.325-0.496-0.651-0.744-0.978c-2.198-2.901-4.472-5.902-7.659-7.981c-2.597-1.694-5.476-2.825-8.324-3.27
							c-0.833-0.13-1.695-0.196-2.562-0.196c-2.651,0-5.178,0.607-7.54,1.23c-0.529,0.139-1.082,0.318-1.616,0.49
							c-1.044,0.337-2.123,0.685-3.116,0.763c-0.372,0-1.07-0.191-1.632-0.346c-0.337-0.092-0.664-0.181-0.955-0.246
							c-0.243-0.548-0.409-1.153-0.502-1.823c19.169-5.081,35.372-18.788,44.221-30.051c1.08-1.374,2.055-2.877,2.909-4.483
							c0.815,0.504,1.757,0.759,2.816,0.759c3.493,0,7.543-2.875,10.224-4.778c0.39-0.277,0.75-0.533,1.075-0.756
							c0.594-0.407,1.236-0.809,1.916-1.234c2.27-1.421,4.844-3.031,6.305-5.396c1.929-3.124,2.187-7.371,2.375-10.472
							c0.534-8.794-1.311-14.86-5.484-18.032c-0.326-0.247-0.671-0.476-1.033-0.683c-0.273-2.56,0.638-5.245,1.521-7.847
							c0.166-0.49,0.331-0.975,0.487-1.457c1.184-3.653,1.984-7.114,2.445-10.58c0.524-3.936,0.656-7.83,0.399-11.645
							c0.918,2.142,1.588,4.416,1.999,6.792c0.115,0.667,0.674,1.132,1.358,1.132c0.64,0,1.205-0.42,1.372-1.022
							c1.75-6.264,1.003-13.24-2.218-20.743c1.22,1.423,2.424,2.898,3.603,4.419c0.259,0.334,0.645,0.526,1.059,0.526
							c0.418,0,0.816-0.194,1.089-0.532C278.645-232.164,278.751-232.594,278.664-233.008z M136.256,181.763
							c-0.577-0.486-1.058-1.007-1.115-1.456c-0.011-0.089-0.046-0.359,0.35-0.817c0.349-0.404,0.745-0.601,1.211-0.601
							c0.045,0,0.092,0.002,0.138,0.006C136.538,179.861,136.386,180.849,136.256,181.763z M236.122,178.889
							c0.466,0,0.862,0.196,1.211,0.601c0.396,0.458,0.362,0.728,0.35,0.817c-0.057,0.45-0.538,0.971-1.114,1.456
							c-0.131-0.913-0.282-1.902-0.585-2.868C236.03,178.89,236.077,178.889,236.122,178.889z M186.412,149.655
							c0.021,0.119,0.043,0.238,0.064,0.357c-0.022,0.003-0.043,0.007-0.064,0.01c-0.021-0.004-0.043-0.008-0.064-0.01
							C186.37,149.893,186.391,149.774,186.412,149.655z M186.878,179.37c-0.022,0.962,0.237,1.809,0.493,2.51
							c0.44,1.205,0.454,1.73,0.069,2.442c-0.383,0.708-0.724,1.37-1.028,2.004c-0.304-0.635-0.645-1.297-1.028-2.003
							c-0.386-0.714-0.372-1.238,0.069-2.443c0.256-0.701,0.514-1.547,0.493-2.51c-0.049-2.093-1.044-3.764-3.039-5.084
							c0.432-1.812,0.757-3.649,1.071-5.434c0.13-0.741,0.26-1.475,0.396-2.196c0.301-1.605,0.602-3.21,0.908-4.815
							c0.093-0.488,0.161-1.004,0.233-1.551c0.149-1.129,0.303-2.296,0.67-3.095c0.075-0.164,0.152-0.323,0.228-0.479
							c0.076,0.156,0.152,0.315,0.227,0.479c0.367,0.799,0.521,1.966,0.67,3.094c0.072,0.548,0.14,1.065,0.233,1.554
							c0.306,1.604,0.606,3.209,0.907,4.815c0.136,0.722,0.265,1.458,0.397,2.2c0.314,1.783,0.638,3.619,1.07,5.429
							C187.923,175.606,186.927,177.277,186.878,179.37z"/>
					</g>
				</g>
			</g>
		</g>
	</g>
	<g>
		<g>
			<defs>
				<circle id="SVGID_3_" cx="189.411" cy="190.882" r="163.828"/>
			</defs>
			<clipPath id="SVGID_4_">
				<use xlink:href="#SVGID_3_"  overflow="visible"/>
			</clipPath>
			<g id="Capa_5_3_" clip-path="url(#SVGID_4_)">
				<g>
					<g>
						<path fill="#974B1C" d="M240.651,272.503c-7.911-2.414-14.925-7.838-19.521-13.724c-1.967-4.453-2.685-9.327-3.131-14.003
							c-0.391-4.078-0.637-8.156-0.838-12.242c0.017-0.471,0.011-0.924,0.045-1.394c0.337-4.628,1.365-8.618,0.274-12.777
							c-0.776-1.003-1.784-1.904-3.072-2.636c-6.28-3.616-15.154-3.632-22.763-3.01c-7.61-0.621-16.484-0.606-22.763,3.01
							c-1.288,0.733-2.294,1.633-3.069,2.636c-1.094,4.158-0.063,8.149,0.27,12.777c0.034,0.47,0.027,0.923,0.048,1.394
							c-0.204,4.085-0.447,8.163-0.838,12.242c-0.449,4.676-1.163,9.55-3.131,14.003c-3.491,4.469-8.386,9.519-14,11.789v41.658
							c19.899,0,39.797-0.017,59.689-0.017c10.932,0,21.863,0.032,32.802,0.072L240.651,272.503L240.651,272.503z"/>
						<path fill="#E9C6B0" d="M240.651,274.454c-4.888-1.57-9.428-5.529-13.232-8.165c-2.785-2.15-5.313-4.468-7.031-7.232
							c-1.538-2.486-2.777-5.201-3.793-8.004c-2.231-10.108-1.791-20.869-0.762-30.953c-0.252-0.375-0.533-0.733-0.883-1.051
							c-1.229-1.322-2.992-2.262-5.185-3.01c-4.35-1.498-9.016-2.111-13.689-2.286c-0.055,0.032-0.111,0.072-0.173,0.072
							c-0.402-0.024-0.814-0.024-1.219-0.04c-0.035,0.008-0.063,0.04-0.097,0.04c-0.97-0.048-1.957-0.072-2.944-0.096
							c-0.987,0.024-1.971,0.047-2.944,0.096c-0.031,0-0.063-0.032-0.093-0.04c-0.41,0.017-0.818,0.017-1.223,0.04
							c-0.059,0-0.114-0.04-0.173-0.072c-4.672,0.175-9.338,0.789-13.689,2.286c-2.189,0.748-3.956,1.688-5.182,3.01
							c-0.353,0.319-0.633,0.677-0.886,1.051c1.029,10.084,1.472,20.845-0.761,30.953c-1.012,2.803-2.252,5.52-3.793,8.004
							c-1.718,2.764-4.246,7.083-7.031,9.232c-2.32,1.609-4.925,2.963-7.706,4.134v38.471c20.12-0.008,40.82,11.905,60.937,11.905
							c10.706,0,20.84-11.929,31.553-11.969L240.651,274.454L240.651,274.454z"/>
						<path fill="#ECCFBC" d="M165.863,253.059c7.319,5.631,19.341,7.487,28.707,6.874c8.199-0.541,16.02-2.724,23.224-5.965
							c-0.433-0.956-0.838-1.92-1.198-2.915c-2.231-10.108-1.791-20.869-0.762-30.953c-0.252-0.375-0.533-0.733-0.883-1.051
							c-1.229-1.322-2.992-2.262-5.185-3.01c-4.35-1.498-9.016-2.111-13.689-2.286c-0.055,0.032-0.111,0.072-0.173,0.072
							c-0.402-0.024-0.814-0.024-1.219-0.04c-0.035,0.008-0.063,0.04-0.097,0.04c-0.97-0.048-1.957-0.072-2.944-0.096
							c-0.987,0.024-1.971,0.047-2.944,0.096c-0.031,0-0.063-0.032-0.093-0.04c-0.41,0.017-0.818,0.017-1.223,0.04
							c-0.059,0-0.114-0.04-0.173-0.072c-4.672,0.175-9.338,0.789-13.689,2.286c-2.189,0.748-3.956,1.688-5.182,3.01
							c-0.353,0.319-0.633,0.677-0.886,1.051c1.029,10.085,1.472,20.845-0.761,30.953
							C166.445,251.736,166.15,252.398,165.863,253.059z"/>
					</g>
					<g>
						<g id="XMLID_50_">
							<path id="XMLID_53_" fill="#E8E7E6" d="M165.558,254.342c-14.399,15.299-40.498,23.522-65.247,27.51
								s-25.199,30.744-25.199,38.515c0,7.771,0,36.569,0,36.569h117.444v-77.967L165.558,254.342z"/>
							<polygon id="XMLID_52_" fill="#DADAD9" points="165.558,256.592 147.868,267.317 174.273,313.289 192.556,278.969 							"/>
							<polygon id="XMLID_51_" fill="#F2F0F0" points="165.558,254.342 147.868,267.317 174.273,311.039 192.556,278.969 							"/>
						</g>
						<g id="XMLID_46_">
							<path id="XMLID_49_" fill="#DADAD9" d="M219.555,254.342c14.399,15.299,40.498,23.522,65.247,27.51
								C309.55,285.84,310,312.596,310,320.367s0,36.569,0,36.569H192.556v-77.967L219.555,254.342z"/>
							<polygon id="XMLID_48_" fill="#DADAD9" points="219.555,256.592 237.245,267.317 210.84,313.289 192.556,278.969 							"/>
							<polygon id="XMLID_47_" fill="#EDECEB" points="219.555,254.342 237.245,267.317 210.84,311.039 192.556,278.969 							"/>
						</g>
						<g id="XMLID_44_">
							<path id="XMLID_45_" fill="#712439" d="M132.927,273.781c-10.378,3.689-21.628,6.301-32.616,8.071
								c-24.749,3.988-25.199,30.744-25.199,38.515s0,36.569,0,36.569h117.444l-59.619-83.155H132.927z"/>
						</g>
						<g id="XMLID_42_">
							<path id="XMLID_43_" fill="#712439" d="M252.185,273.781c10.378,3.689,21.628,6.301,32.616,8.071
								C309.55,285.84,310,312.596,310,320.367s0,36.569,0,36.569H192.556l59.619-83.155H252.185z"/>
						</g>
					</g>
				</g>
				<g>
					<g>
						<g>
							<g>
								<path fill="#974B1C" d="M142.557,197.962c2.429-11.679,0.47-22.628-4.896-31.981c-1.234-5.043-3.444-9.831-7.45-7.981
									c-3.273,1.511-4.993,4.458-5.543,8.11c0.279,4.218,1.278,8.377,2.129,12.561c0.077,0.27,0.155,0.543,0.218,0.81
									c0.879,3.709,1.172,7.5,1.897,11.244c0.874,4.52,1.987,8.504,5.659,10.54C137.506,202.891,141.68,202.18,142.557,197.962z"
									/>
								<path fill="#E9C6B0" d="M135.816,199.857c-5.065-1.391-5.726-8.52-6.359-13.242c-0.784-5.843-6.47-20.824-1.424-25.474
									c0.431-0.766,0.982-1.411,1.696-1.854c2.735-1.7,4.92,0.707,6.124,3.596c0.224,0.421,0.447,0.885,0.672,1.398
									c0.766,1.741,1.388,3.517,1.892,5.32c2.545,5.619,4.09,11.636,3.79,18.592C142.002,192.995,142.021,201.563,135.816,199.857
									z"/>
								<path fill="#ECCFBC" d="M135.816,199.857c-5.065-1.391-5.726-8.52-6.359-13.242c-0.784-5.843-6.47-20.824-1.424-25.474
									c0.431-0.766,0.982-1.411,1.696-1.854c2.735-1.7,4.92,0.707,6.124,3.596c0.224,0.421,0.447,0.885,0.672,1.398
									c0.766,1.741,1.388,3.517,1.892,5.32c2.545,5.619,4.09,11.636,3.79,18.592C142.002,192.995,142.021,201.563,135.816,199.857
									z"/>
								<path fill="#974B1C" d="M130.791,180.461c0.334,0.534,1.027,0.548,1.381,0.061c1.724-2.353,1.825-7.012,0.565-9.703
									c-0.364-0.779-1.37-2.008-2.157-2.204c-1.711-0.423-2.637,1.534-3.056,3.13c0.153-0.58-0.139-1.565-0.079-2.209
									c0.065-0.761,0.258-1.516,0.602-2.171c0.558-1.066,1.785-1.872,2.906-1.26c1.812,0.986,2.554,3.474,3.018,5.489
									c0.484,2.093,0.782,4.243,0.818,6.402c0.038,2.209-0.283,4.335-0.595,6.5c-0.021,0.16-0.04,0.324-0.063,0.483
									c-0.008,0.055-0.034,0.073-0.062,0.085c-0.241,1.082-0.536,2.107-0.892,3.025c-0.134,0.351-0.535-0.229-0.507-0.459
									c0.323-2.536,0.447-5.105,0.49-7.674c-0.193,0.833-0.487,1.991-1.104,2.268c-1.277,0.572-1.953-2.171-2.492-3.973
									C129.954,178.981,130.329,179.729,130.791,180.461z"/>
							</g>
							<g>
								<path fill="#974B1C" d="M246.02,201.264c3.675-2.035,4.786-6.02,5.662-10.54c0.725-3.744,1.017-7.534,1.897-11.244
									c0.063-0.267,0.142-0.54,0.215-0.81c0.853-4.184,1.851-8.342,2.132-12.561c-0.552-3.652-2.271-6.599-5.543-8.11
									c-4.009-1.851-6.217,2.937-7.451,7.981c-5.367,9.354-7.326,20.301-4.896,31.981
									C238.91,202.18,243.083,202.891,246.02,201.264z"/>
								<path fill="#E9C6B0" d="M238.381,188.193c-0.297-6.956,1.249-12.973,3.792-18.592c0.504-1.803,1.127-3.58,1.892-5.32
									c0.226-0.514,0.449-0.977,0.671-1.398c1.206-2.887,3.391-5.295,6.125-3.596c0.712,0.444,1.264,1.089,1.695,1.854
									c5.048,4.65-0.638,19.631-1.422,25.474c-0.633,4.722-1.296,11.85-6.357,13.242
									C238.571,201.563,238.59,192.995,238.381,188.193z"/>
								<path fill="#ECCFBC" d="M238.381,188.193c-0.297-6.956,1.249-12.973,3.792-18.592c0.504-1.803,1.127-3.58,1.892-5.32
									c0.226-0.514,0.449-0.977,0.671-1.398c1.206-2.887,3.391-5.295,6.125-3.596c0.712,0.444,1.264,1.089,1.695,1.854
									c5.048,4.65-0.638,19.631-1.422,25.474c-0.633,4.722-1.296,11.85-6.357,13.242
									C238.571,201.563,238.59,192.995,238.381,188.193z"/>
								<path fill="#974B1C" d="M249.801,180.461c-0.337,0.534-1.028,0.548-1.381,0.061c-1.724-2.353-1.826-7.012-0.566-9.703
									c0.364-0.779,1.37-2.008,2.157-2.204c1.71-0.423,2.639,1.534,3.055,3.13c-0.15-0.58,0.139-1.565,0.08-2.209
									c-0.065-0.761-0.258-1.516-0.6-2.171c-0.558-1.066-1.785-1.872-2.908-1.26c-1.81,0.986-2.551,3.474-3.018,5.489
									c-0.484,2.093-0.78,4.243-0.817,6.402c-0.038,2.209,0.282,4.335,0.593,6.5c0.023,0.16,0.041,0.324,0.065,0.483
									c0.007,0.055,0.034,0.073,0.06,0.085c0.243,1.082,0.538,2.107,0.892,3.025c0.136,0.351,0.538-0.229,0.508-0.459
									c-0.321-2.536-0.447-5.105-0.491-7.674c0.193,0.833,0.49,1.991,1.106,2.268c1.278,0.572,1.953-2.171,2.49-3.973
									C250.637,178.981,250.26,179.729,249.801,180.461z"/>
							</g>
							<g>
								<path fill="#E9C6B0" d="M248.944,134.326c-0.235-7.848-0.082,11.108-0.985,3.315c-0.093-6.219-0.255-12.983-3.23-18.21
									c-3.118-5.486-8.616-8.899-13.485-11.609c-13.162-7.325-27.216-10.824-41.619-12.097
									c-11.65-1.027-22.463,0.378-33.013,6.789c-7.314,4.444-13.862,11.282-17.487,20.068c-0.055-0.148-0.272-0.167-0.326,0.034
									c-0.29,1.031-0.561,2.064-0.817,3.097c-0.51,1.609-0.929,3.276-1.23,5c-0.02,0.107,0.016,0.18,0.064,0.238
									c-1.002,5.098-1.631,10.266-1.851,15.6c-0.385,9.246-0.313-8.298-0.214,0.951c0.035,3.308,0.052,6.618,0.069,9.927
									c1.359,7.498,0.582,16.589,0.541,24.104c-0.023,4.016-0.145,8.069-0.17,12.118c0.149,2.631,0.385,5.251,0.782,7.849
									c2.335,15.434,11.365,27.516,22.763,34.634c2.836,1.769,20.071,16.278,38.61,14.611
									c10.86-4.664,20.472-13.259,30.364-21.003c4.025-3.55,7.951-7.572,10.762-12.529c3.11-5.476,4.997-11.556,6.143-18.015
									c0.311-1.766,0.546-3.542,0.753-5.326c-0.136-10.812,0.705-21.998,1.534-32.738c-0.023,0.045-0.048,0.088-0.068,0.133
									c0.037-0.635,0.077-1.269,0.122-1.904C247.556,150.874,249.199,142.916,248.944,134.326z"/>
								<path fill="#ECCFBC" d="M248.944,134.326c-0.235-7.848-0.082,11.108-0.985,3.315c-0.093-6.219-0.255-12.983-3.23-18.21
									c-3.118-5.486-8.616-8.899-13.485-11.609c-13.162-7.325-27.216-10.824-41.619-12.097
									c-11.65-1.027-22.463,0.378-33.013,6.789c-7.314,4.444-13.862,11.282-17.487,20.068c-0.055-0.148-0.272-0.167-0.326,0.034
									c-0.29,1.031-0.561,2.064-0.817,3.097c-0.51,1.609-0.929,3.276-1.23,5c-0.02,0.107,0.016,0.18,0.064,0.238
									c-1.002,5.098-1.631,10.266-1.851,15.6c-0.385,9.246-0.313-8.298-0.214,0.951c0.035,3.308,0.052,6.618,0.069,9.927
									c1.359,7.498,0.582,16.589,0.541,24.104c-0.023,4.016-0.145,8.069-0.17,12.118c0.149,2.631,0.385,5.251,0.782,7.849
									c2.335,15.434,11.365,27.516,22.763,34.634c2.836,1.769,20.071,16.278,38.61,14.611
									c10.86-4.664,20.472-13.259,30.364-21.003c4.025-3.55,7.951-7.572,10.762-12.529c3.11-5.476,4.997-11.556,6.143-18.015
									c0.311-1.766,0.546-3.542,0.753-5.326c-0.136-10.812,0.705-21.998,1.534-32.738c-0.023,0.045-0.048,0.088-0.068,0.133
									c0.037-0.635,0.077-1.269,0.122-1.904C247.556,150.874,249.199,142.916,248.944,134.326z M234.366,210.625
									c-4.768,8.494-11.18,15.071-17.947,21.181c-7.055,6.371-15.243,13.121-24.335,13.931
									c-8.979,0.801-18.169-3.803-25.831-9.063c-7.482-5.137-15.51-11.701-20.722-20.113c-9.606-15.503-9.303-37.561-5.416-55.485
									c0.193-0.889-1.263-22.706-1.04-21.906c0.615,2.198-1.611-11.162-0.753-9.128c-0.031-15.741,13.685-16.721,24.399-24.609
									c6.712-4.939,14.611,0.424,21.761-3.527c4.743-2.622,13.854,7.009,18.084,3.268c4.397-3.888,14.032,11.251,17.601,6.459
									c0.349-0.468,10.226,6.577,10.316,7.221c1.318,9.478,2.72,3.709,6.52,12.257c3.73,8.391-0.886,7.429,3.595,15.225
									c5.421,9.432,1.049,21.089,0.989,32.843C241.534,190.121,239.516,201.448,234.366,210.625z"/>
								<path fill="#974B1C" d="M248.944,134.326c-0.235-7.848-0.082,11.108-0.985,3.315c-0.093-6.219-0.255-12.983-3.23-18.21
									c-3.118-5.486-8.616-8.899-13.485-11.609c-13.162-7.325-27.216-10.824-41.619-12.097
									c-11.65-1.027-22.463,0.378-33.013,6.789c-7.314,4.444-13.862,11.282-17.487,20.068c-0.055-0.148-0.272-0.167-0.326,0.034
									c-0.29,1.031-0.561,2.064-0.817,3.097c-0.51,1.609-0.929,3.276-1.23,5c-0.02,0.107,0.016,0.18,0.064,0.238
									c-1.002,5.098-1.631,10.266-1.851,15.6c-0.385,9.246-0.313-8.298-0.214,0.951c0.035,3.308,0.052,6.618,0.069,9.927
									c1.359,7.498,0.582,16.589,0.541,24.104c-0.023,4.016-0.145,8.069-0.17,12.118c0.149,2.631,0.385,5.251,0.782,7.849
									c2.335,15.434,11.365,27.516,22.763,34.634c3.552,2.219,18.641,14.88,30.273,15.376c2.084,0.088,6.189,0.112,8.192-0.742
									c10.917-4.653,20.575-13.249,30.51-21.025c4.025-3.55,7.951-7.572,10.762-12.529c3.11-5.476,4.997-11.556,6.143-18.015
									c0.311-1.766,1.298-7.26,1.503-9.044c-0.124-10.063-0.157-16.737,0.612-26.788c0.006-0.126,0.007-0.252,0.014-0.378
									c0.006-0.012,0.011-0.024,0.017-0.036c0.048-0.609,0.093-1.211,0.142-1.819c-0.023,0.045-0.048,0.088-0.068,0.133
									c0.037-0.635,0.077-1.269,0.122-1.904C247.556,150.874,249.199,142.916,248.944,134.326z M246.178,155.605
									c-1.349,11.137-0.776,22.473-1.559,33.677c-0.061,0.145-0.081,0.311-0.04,0.48c-0.101,1.346-0.205,2.692-0.349,4.035
									c-0.688,6.379-2.078,12.619-4.516,18.364c-2.833,6.677-7.405,11.676-12.295,16.16c-4.863,4.46-10.129,8.278-15.358,12.078
									c-5.571,4.048-11.78,8.964-18.257,9.988c-2.034-0.009-4.02-0.417-6.145-0.529c-11.391-0.603-37.935-19.987-42.646-28.481
									c-4.191-7.56-7.257-14.899-8.183-23.832c-0.811-7.885-0.525-15.895-0.633-23.819c-0.124-9.227-0.092-18.454-0.207-27.68
									c-0.105-8.411-0.059,10.072,0.013,1.647c0.061-6.771,0.825-13.499,2.101-20.087c3.45-10.682,10.72-18.598,19.175-23.817
									c9.88-6.1,20.357-7.387,31.274-6.555c13.81,1.05,26.938,4.406,39.723,10.783c5.054,2.52,10.114,5.615,13.983,10.351
									c4.725,5.784,3.678,13.938,4.837,21.244c0.024,0.157,0.095,0.262,0.185,0.32c0.439,5.695,0.106-15.451,0.404-9.74
									C248.137,138.904,247.219,147.02,246.178,155.605z"/>
							</g>
						</g>
					</g>
				</g>
				<g>
					<g>
						<path fill="#886C36" d="M287.543,214.041c-2.158-8.211-5.217-16.146-8.352-24.071c-1.684-4.254-3.473-8.393-4.665-12.765
							c-5.546-16.188-6.945-33.081-9.914-50.078c-1.461-8.366-3.939-17.69-8.12-25.858c-2.26-3.757-4.87-7.239-8.168-10.192
							c-2.294-2.054-4.691-3.988-7.009-6.014c-0.807-0.485-1.618-0.966-2.428-1.447c-6.49-3.274-13.441-5.134-20.69-4.922
							c-5.279-2.494-10.636-4.415-16.798-5.269c-9.795-1.357-19.839-0.333-29.431,1.825c-14.637,3.293-27.927,11.415-38.814,21.551
							c-1.727,1.609-3.376,3.33-4.977,5.1c-1.367,2.168-2.813,4.289-3.9,6.614c-1.933,4.136-3.593,8.437-5.223,12.698
							c-0.077,0.201-0.147,0.406-0.224,0.609c-0.771,3.717-2.132,7.294-2.649,11.077c-0.728,5.318-1.162,10.562-1.103,15.932
							c0.05,4.431,0.21,8.859,0.283,13.284c0.35,5.212,0.531,10.415-0.065,15.816c-0.285,2.592-0.722,5.154-1.251,7.697
							c-0.451,3.514-0.815,7.098-1.857,10.478c-1.247,4.044-2.858,7.974-4.273,11.962c-0.036,0.101-0.07,0.201-0.106,0.301
							c-3.049,11.255-4.267,22.2-0.636,33.581c0.249,0.666,0.521,1.32,0.806,1.966c4.369,8.265,11.909,14.936,21.359,13.633
							c-4.202-0.992-7.362-3.98-10.107-7.272c-2.808-3.367-3.808-7.133-4.527-11.07c2.064,5.191,5.454,9.756,10.154,12.354
							c8.46,4.678,18.673,5.23,27.544,1.699c0.939,0.459,1.925,0.863,2.939,1.232c4.715,0.757,9.318,1.49,14.186,0.905
							c3.573-0.43,6.769-1.573,9.849-3.105c-0.876-0.242-1.715-0.479-2.449-0.652c-7.696-1.818-14.294-6.034-19.831-11.616
							c-5.835-5.882-9.843-12.635-13.168-20.193c-1.923-4.372-3.553-8.826-4.612-13.421c-0.618-1.758-1.174-3.542-1.587-5.326
							c-6,0.751-8.715-17.541-9.374-22.417c1.35-3.543,3.166-7.952,4.816-11.87c0.571,1.894,1.174,3.798,1.786,5.728
							c0.201,1.664,0.507,3.325,0.853,4.982c0.083,1.159,0.137,2.32,0.207,3.481c0.617,3.017,1.234,6.032,1.654,9.082
							c0.133-0.161,0.226-0.34,0.232-0.503c0.244-8.255,0.467-16.784,2.382-24.844c0.272-1.14,0.683-2.298,1.153-3.466
							c0.04,2.462,0.599,4.768,1.906,6.719c0.339,0.505,1.285-0.421,1.084-0.9c-0.095-0.225-0.173-0.463-0.25-0.7
							c0.173-0.115,0.326-0.273,0.368-0.438c5.514-20.794,31.464-27.326,48.153-36.609c7.165-3.987,16.567-10.671,20.983-18.851
							c-0.073,0.223-0.13,0.446-0.206,0.669c0.255,2.084,0.627,4.195,1.245,6.39c0.596,2.12,1.335,4.211,2.171,6.268
							c2.249,7.063,5.401,13.935,8.764,20.154c7.047,13.035,16.852,22.224,16.948,37.844c0.004,0.732,2.312-5.276,2.743-7.825
							c0.014,0.143,0.042,0.283,0.053,0.427c0.21,1.125,0.395,2.263,0.575,3.408c0.582-1.979,1.424-3.88,2.284-5.773
							c0.186-0.587,0.377-1.145,0.565-1.72c0.095-0.039,0.175-0.109,0.228-0.189c0,0,0,0.004,0.001,0.006
							c0.293-0.42,0.704-0.904,1.054-1.281c0.255-0.275,0.485-0.354,0.702-0.303c0.073,0.08,0.14,0.164,0.22,0.239
							c0.086,0.081,0.185,0.112,0.288,0.122c0.04,0.045,0.083,0.078,0.123,0.129c0.035,0.043,0.049,0.099,0.08,0.146
							c0.168,0.693,0.34,1.38,0.476,2.056c0.22,1.083,0.435,2.165,0.651,3.247c0.071,0.615,0.15,1.229,0.197,1.851
							c0.488,6.466,0.126,23.548-8.193,25.787c-0.003,0-0.004,0.003-0.006,0.003c-0.206,0.06-0.434,0.242-0.546,0.435
							c-0.123,0.173-0.201,0.362-0.193,0.519c-2.988,9.321-7.087,17.177-12.985,25.031c-6.151,8.193-16.015,17.535-26.551,19.204
							c-0.439,0.07-1.177,0.764-0.887,1.267c3.008,5.185,11.213,4.525,16.907,3.723c5.73-0.065,11.581-1.695,16.908-4.438
							c-0.165,0.226-0.319,0.455-0.483,0.68c-0.951,0.627-1.924,1.18-2.923,1.618c-0.521,0.229-1.636,1.597-0.628,1.965
							c6.052,2.212,12.524,1.106,18.418-1.489c-0.324,0.347-0.654,0.684-0.966,1.055c-0.139,0.164-0.28,0.402-0.361,0.642
							c9.479,0.986,19.41-0.95,26.861-6.433c3.25-2.999,5.875-6.677,7.739-10.913c0.439-0.949,0.825-1.923,1.148-2.922
							c0.009-0.025,0.019-0.047,0.028-0.073c0.029-0.09,0.05-0.179,0.08-0.269c0.088-0.29,0.18-0.578,0.259-0.871
							C288.123,225.304,288.304,219.647,287.543,214.041z"/>
						<path fill="#997D46" d="M284.84,230.148c-0.395,1.137-0.872,2.227-1.385,3.296c-0.102,0.214-0.208,0.426-0.313,0.638
							c-0.168,0.329-0.327,0.661-0.507,0.981c-0.951,1.78-2.01,3.444-3.023,4.905c-1.912,2.757-4.529,5.01-7.495,6.692
							c-1.394,0.859-2.907,1.581-4.479,2.165c-4.305,1.941-9.058,2.972-13.974,2.836c-0.139-0.004-0.256-0.053-0.359-0.119
							c-0.014,0.009-0.034,0.015-0.047,0.024c0.014-0.009,0.025-0.019,0.04-0.028c-0.41-0.272-0.501-0.935,0.014-1.217
							c2.435-1.332,4.378-3.209,6.239-5.182c-7.051,4.223-15.051,6.83-23.321,6.403c-0.596-0.031-0.984-0.773-0.507-1.223
							c2.248-2.116,4.736-3.934,6.898-6.147c0.769-0.787,2.642-2.47,3.775-4.121c-0.136,0.096-0.269,0.198-0.403,0.297
							c0.052-0.047,0.109-0.091,0.16-0.14c0.081-0.074,0.136-0.157,0.178-0.241c-5.314,3.907-11.33,6.828-17.74,8.758
							c-6.161,1.857-17.347,5.845-22.722,0.337c-0.396-0.406-0.186-1.032,0.325-1.199c11.782-3.875,21.859-12.538,28.677-22.763
							c3.254-4.883,7.154-10.447,8.291-16.302c0.291-1.501,0.448-3.969,1.686-5.122c0.015-0.123,0.045-0.246,0.058-0.371
							c3.37-0.571,5.464-4.152,6.842-7.797c1.02-4.375,1.896-8.915,2.319-13.404c0.403,2.36,0.773,4.726,1.054,7.112
							c1.37,11.635,0.726,23.282-1.921,34.669c2.708-5.536,2.988-12.295,3.693-18.262c0.614-5.209,0.631-10.389,0.501-15.578
							c-0.444-4.897-1.423-9.756-2.49-14.538c-0.188-0.848-0.476-1.767-0.796-2.718c-0.259-1.643-0.794-3.08-1.57-4.612
							c-0.597-1.896-1.037-3.767-0.973-5.438c0.211-0.659,0.439-1.316,0.633-1.979c0.017-0.031,0.035-0.062,0.053-0.091
							c0.092-0.34,0.163-0.687,0.249-1.027c0.646-2.375,1.148-4.783,1.526-7.214c0.165-6.845-0.124-13.669-2.298-20.269
							c-1.217-3.698-2.877-7.185-4.428-10.747c-0.306-0.702-0.641-1.529-1.022-2.375c2.474,7.616,5.637,14.671,6.435,22.87
							c1.013,10.411-2.79,19.763-5.402,29.587c-0.05,0.189,0.003,0.278,0.095,0.315c-0.383,0.157-0.918,0.009-0.999-0.457
							c-0.12-0.7-0.272-1.391-0.408-2.088c0.943-9.327-0.031-18.958-4.035-27.286c0.145,0.354,0.287,0.708,0.416,1.071
							c1.14,3.235,2.161,6.562,2.782,9.942c1.223,6.643-1.36,21.956-1.523,23.077c-0.21-3.913-1.61-7.597-3.297-11.11
							c-3.742-7.788-8.974-14.697-13.287-22.158c-3.706-5.871-7.045-12.003-9.22-18.594c-1.373-4.161-3.017-8.671-3.512-13.045
							c-0.252-2.217,0.266-4.343,0.705-6.495c-0.46,0.981-0.964,1.943-1.56,2.862c-3.66,7.259-10.996,13.158-17.288,17.538
							c-8.131,5.66-17.46,9.598-26.191,14.22c-10.608,5.617-23.038,13.232-26.167,25.656c-0.884-4.789,0.847-11.1,2.429-15.152
							c0.982-2.518,2.267-4.898,3.726-7.177c0.929-1.884,2.002-3.693,3.188-5.433c1.444-2.342,3.018-4.603,4.724-6.771
							c-2.821,2.772-5.487,5.743-7.93,9.033c-2.839,3.824-6.401,10.124-7.851,16.304c-0.618,1.22-1.24,2.442-1.805,3.688
							c-1.022,4.329-1.867,8.705-2.617,13.112c-0.123,0.717-1.237,0.677-1.387,0c-1.611-7.252-5.093-13.781-5.384-21.341
							c-0.146-3.787-0.182-7.702,0.244-11.474c0.14-1.252,0.588-2.592,0.97-3.924c-1.449,2.782-1.841,6.38-1.919,9.777
							c-0.592,6.285,0.439,12.144,2.049,18.02c-1.548,3.703-3.073,7.409-4.509,11.141c-0.772,3.321-1.631,6.628-2.457,9.949
							c-1.199,4.822-2.875,10.72-2.264,16.005c0.4-3.429,0.952-6.733,1.639-9.803c0.94-4.204,1.423-7.077,2.891-11.067
							c0.318,6.519,3.914,24.847,9.543,22.846c1.335,7.235,4.047,13.991,7.171,20.64c1.761,3.748,3.639,7.774,6.155,11.224
							c1.924,2.419,3.991,4.729,6.18,6.943c4.236,4.287,9.164,8.45,15.081,10.083c0.253,0.07,0.396,0.235,0.463,0.426
							c1.236,0.393,2.49,0.744,3.778,0.998c-4.316,1.002-8.649,1.265-12.87,0.701c-7.949-0.529-16.874-5.51-21.894-10.251
							c-1.635-1.545-3.066-3.231-4.304-5.023c1.226,2.424,2.734,4.724,4.477,6.845c1.918,2.333,4.641,4.498,7.672,6.008
							c0.4,0.278,0.807,0.551,1.233,0.81c-3.87,0.792-7.746,0.899-11.465,0.408c-11.105-0.275-21.135-7.119-25.784-17.121
							c0.414,5.988,0.788,11.288,4.666,16.488c0.847,1.134,1.894,2.399,3.083,3.556c-8.229-3.682-12.051-13.354-13.6-22.261
							c-1.027-5.907-0.556-11.851,0.587-17.741c0.123-0.979,0.265-1.953,0.441-2.923c0.621-3.401,1.69-6.618,2.857-9.802
							c-0.007-0.031-0.015-0.062-0.022-0.093c0.976-3.278,1.98-6.516,2.873-9.698c4.253-15.178,3.647-29.265,2.602-44.776
							c-0.665-9.879,0.819-19.348,4.149-28.639c0.518-1.443,4.112-8.953,5.66-13.027c0.309-0.388,0.636-0.763,0.952-1.146
							c1.889-3.412,5.198-6.345,7.949-8.667c0.438-0.371,0.901-0.707,1.349-1.065c10.001-8.884,22.145-15.24,35.094-18.581
							c6.185-1.595,12.527-2.337,18.886-2.409c4.453-0.764,9.252-0.402,13.287,0.521c6.244,1.429,12.63,3.11,18.58,5.682
							c-0.549-0.287-1.097-0.58-1.644-0.856c0.358,0.043,0.718,0.087,1.073,0.151c10.39,1.093,19.534,6.262,28.091,13.763
							c0.585,0.861,1.142,1.734,1.677,2.617c0.868,1.017,1.678,2.094,2.414,3.253c3.875,6.099,6.318,13.129,7.689,20.352
							c2.527,9.046,3.469,18.773,4.85,27.921c0.71,4.706,1.371,9.399,2.141,14.084c1.859,6.495,4.126,12.83,6.393,19.272
							c1.896,5.395,3.987,10.811,5.758,16.28C285.682,207.9,288.599,219.34,284.84,230.148z"/>
						<path fill="#886C36" d="M280.818,197.621c-1.77-5.469-3.861-10.885-5.758-16.28c-2.267-6.442-4.535-12.777-6.393-19.272
							c-0.77-4.686-1.432-9.378-2.141-14.084c-1.38-9.148-2.322-18.875-4.85-27.921c-1.37-7.223-3.814-14.252-7.689-20.352
							c-0.736-1.159-1.547-2.235-2.414-3.253c-0.534-0.883-1.091-1.756-1.677-2.617c-8.557-7.5-17.701-12.669-28.091-13.763
							c-0.355-0.064-0.715-0.108-1.073-0.151c0.547,0.277,1.096,0.569,1.644,0.856c-5.95-2.573-12.335-4.253-18.58-5.682
							c-4.035-0.922-8.833-1.285-13.287-0.521c-2.536,0.028-5.065,0.197-7.585,0.452c10.079-0.462,20.828,0.559,29.406,5.875
							c-2.119-0.063-4.245-0.001-6.252-0.012c-6.067-0.029-12.076,0.28-18.115,0.862c-8.365,0.805-16.593,2.557-23.604,6.958
							c1.605-0.636,3.231-1.167,4.971-1.639c5.715-1.548,11.437-2.215,17.215-2.508c4.783-0.551,9.598-0.794,14.408-0.949
							c1.449,0.147,2.898,0.346,4.347,0.63c1.118,0.22,2.277,0.462,3.45,0.723c-2.181,1.1-4.238,2.434-6.104,3.803
							c1.46-0.715,2.997-1.278,4.448-1.749c3.991-1.3,8.643-2.808,12.895-2.576c6.841,0.372,13.295,6.79,17.01,13.15
							c-1.501-3.243-3.676-6.141-5.937-9.045c-0.476-0.613,0.101-1.534,0.862-1.13c4.789,2.543,8.984,5.839,12.559,9.698
							c9.388,8.012,15.329,20.436,17.743,32.265c1.959,9.589,1.803,19.376,3.238,29.025c1.037,6.986,2.715,13.843,4.229,20.735
							c0.56,1.706,1.125,3.411,1.69,5.118c0.33,0.992,0.654,1.992,0.968,2.997c3.88,8.729,8.506,17.217,9.423,26.778
							c0.634,6.627,0.013,13.584-3.212,19.523c-2.339,4.312-5.808,9.657-11.105,10.366c-0.513,0.07-1.026-0.305-0.875-0.874
							c1.567-5.948,2.732-12.026,2.79-18.116c-0.536,1.851-1.242,3.658-2.179,5.399c-3.877,7.202-11.041,14.683-18.965,17.235
							c-0.568,0.183-1.152-0.537-0.805-1.047c1.819-2.67,4.261-4.617,6.568-6.84c2.499-2.413,4.291-5.289,5.44-8.575
							c0.213-0.608,0.405-1.219,0.589-1.833c-2.669,4.497-6.237,8.106-11.075,9.458c-0.676,0.189-1.212-0.711-0.689-1.199
							c7.86-7.332,10.801-18.941,11.94-29.286c1.408-12.802-0.633-25.448-3.767-37.857c-0.207-0.82,0.874-1.193,1.319-0.536
							c2.34,3.455,4.236,7.168,6.27,10.804c-0.442-1.464-0.902-2.923-1.366-4.384c-1.844-4.04-3.601-8.128-4.803-12.39
							c-2.046-7.262-1.941-14.636-2.827-22.073c-1.013-8.493-3.317-17.343-7.529-24.85c-2.385-4.246-5.763-7.636-9.098-11.09
							c2.47,4.386,4.415,9.007,5.889,13.775c4.673,11.14,6.389,23.67,4.718,35.453c-0.009,0.06-0.013,0.122-0.022,0.182
							c-0.126,0.869-1.331,0.56-1.409-0.182c-0.217-2.053-0.609-4.047-1.118-6.003c-0.145-0.08-0.257-0.222-0.291-0.444
							c-0.101-0.63-0.244-1.242-0.37-1.86c-1.971-6.274-5.136-12.138-8.211-18.016c1.02,4.224,1.577,8.536,1.631,12.766
							c0.006,0.487-0.408,0.735-0.8,0.687c-0.563-1.751-1.159-3.483-1.755-5.188c-0.656-1.881-1.344-3.966-2.147-6.009
							c-1.054-1.511-2.138-3-3.26-4.46c2.772,7.58,4.634,15.416,6.929,23.113c0.123,1.026,0.235,2.053,0.316,3.084
							c0.053,0.697-0.788,0.851-1.223,0.507c-3.507-2.764-5.577-6.914-7.396-10.898c-0.869-1.903-1.803-3.778-2.739-5.654
							c-6.488-10.885-10.667-23.366-11.711-35.988c-6.054,6.856-12.096,13.757-19.104,19.66
							c-7.624,6.421-16.549,12.243-26.855,12.31c-0.354,0.003-0.597-0.269-0.673-0.578c1.099-1.069,2.144-2.191,3.167-3.287
							c0.646-0.693,1.309-1.381,1.958-2.079c8.016-6.401,15.477-13.771,20.498-21.903c0.252-0.407-0.226-0.487-0.457-0.193
							c-3.535,4.517-8.217,8.48-12.861,12.218c-2.926,2.043-5.711,4.344-8.561,6.425c-3.213,2.344-6.538,4.829-10.596,5.279
							c-0.515,0.058-0.92-0.652-0.623-1.071c3.059-4.313,7.725-7.689,11.924-11.036c-4.996,2.638-10.179,5.123-14.739,8.483
							c-2.46,1.813-4.823,3.759-6.796,6.107c-1.622,1.933-3.163,3.903-5.146,5.489c0.928-2.923,2.052-5.753,3.926-8.621
							c3.568-5.465,8.711-9.583,13.892-13.426c0.25-0.186,0.306-0.785-0.129-0.562c-5.42,2.806-12.447,8.258-17.071,14.697
							c-6.166,6.398-10.507,13.956-12.096,23.407c-3.973-30.363,21.604-48.725,47.585-57.128c-1.692,0.267-3.381,0.553-5.049,0.936
							c-4.502,1.034-8.92,2.62-13.173,4.414c-1.226,0.516-2.422,1.086-3.627,1.641c-4.316,2.322-8.424,5.024-12.243,8.063
							c-8.767,6.971-16.226,15.731-19.4,26.655c-3.228,11.106-0.702,22.679-3.884,33.764c-3.335,11.624-6.052,22.707-4.74,34.927
							c1.251,11.65,5.042,22.678,10.368,33.074c0.38,0.745-0.518,1.374-1.131,0.861c-10.361-8.688-14.924-20.91-15.45-33.971
							c-1.915,6.989-1.925,14.286-2.673,21.523c-0.084,0.813-1.132,0.973-1.411,0.182c-2.253-6.418-1.453-13.322-0.523-19.92
							c0.05-0.37,0.095-0.739,0.146-1.109c-0.695,2.12-1.307,4.273-1.715,6.509c-0.176,0.97-0.318,1.946-0.441,2.923
							c-1.142,5.891-1.613,11.834-0.587,17.741c1.549,8.907,5.372,18.579,13.6,22.261c-1.19-1.158-2.237-2.422-3.083-3.556
							c-3.878-5.199-4.251-10.499-4.666-16.488c4.649,10.003,14.68,16.846,25.784,17.121c3.719,0.49,7.595,0.383,11.465-0.408
							c-0.426-0.259-0.833-0.532-1.233-0.81c-3.031-1.51-5.755-3.675-7.672-6.008c-1.744-2.12-3.251-4.421-4.477-6.845
							c0.732,1.06,1.555,2.069,2.425,3.047c-5.927-8.767-8.114-19.073-8.863-29.927c-0.058-0.831,1.199-0.949,1.409-0.182
							c2.168,7.927,4.663,16.056,9.448,22.848c2.598,3.688,5.277,7.723,9.067,10.289c2.046,1.385,4.309,2.729,5.419,5.026
							c0.224,0.462-0.05,1.091-0.623,1.071c-1.675-0.063-3.327-0.357-4.914-0.848c4.06,2.109,8.582,3.668,12.827,3.951
							c4.221,0.564,8.554,0.301,12.87-0.701c-1.288-0.253-2.542-0.605-3.778-0.998c-0.068-0.191-0.21-0.355-0.463-0.426
							c-5.917-1.633-10.844-5.796-15.081-10.083c-2.189-2.214-4.256-4.525-6.18-6.943c-2.516-3.45-4.394-7.476-6.155-11.224
							c-3.124-6.649-5.836-13.404-7.171-20.64c-5.629,2-9.225-16.328-9.543-22.846c-1.468,3.99-1.951,6.863-2.891,11.067
							c-0.687,3.07-1.239,6.375-1.639,9.803c-0.61-5.285,1.065-11.183,2.264-16.005c0.827-3.321,1.685-6.628,2.458-9.949
							c1.436-3.732,2.962-7.438,4.509-11.141c-1.609-5.876-2.641-11.735-2.049-18.02c0.078-3.396,0.47-6.995,1.919-9.777
							c-0.382,1.332-0.83,2.672-0.97,3.924c-0.426,3.773-0.389,7.687-0.244,11.474c0.291,7.56,3.773,14.089,5.384,21.341
							c0.15,0.677,1.264,0.717,1.387,0c0.75-4.407,1.595-8.783,2.617-13.112c0.565-1.245,1.187-2.467,1.805-3.688
							c1.449-6.18,5.013-12.481,7.851-16.304c2.442-3.29,5.108-6.26,7.93-9.033c-1.706,2.168-3.281,4.428-4.724,6.771
							c-1.187,1.74-2.259,3.549-3.188,5.433c-1.458,2.278-2.743,4.659-3.726,7.177c-1.582,4.051-3.314,10.363-2.429,15.152
							c3.129-12.423,15.56-20.038,26.167-25.656c8.731-4.622,18.06-8.561,26.191-14.22c6.292-4.38,13.628-10.279,17.288-17.538
							c0.596-0.92,1.1-1.881,1.56-2.862c-0.439,2.153-0.957,4.279-0.705,6.495c0.495,4.374,2.14,8.884,3.512,13.045
							c2.175,6.59,5.514,12.722,9.22,18.594c4.313,7.461,9.545,14.37,13.287,22.158c1.687,3.514,3.087,7.198,3.297,11.11
							c0.163-1.121,2.746-16.435,1.523-23.077c-0.621-3.38-1.641-6.707-2.782-9.942c-0.129-0.362-0.272-0.717-0.416-1.071
							c4.004,8.328,4.978,17.958,4.035,27.286c0.137,0.697,0.288,1.388,0.408,2.088c0.081,0.466,0.616,0.614,0.999,0.457
							c-0.093-0.037-0.146-0.126-0.095-0.315c2.611-9.823,6.415-19.176,5.402-29.587c-0.797-8.199-3.961-15.255-6.435-22.87
							c0.38,0.847,0.715,1.672,1.022,2.375c1.551,3.562,3.21,7.049,4.428,10.747c2.174,6.6,2.463,13.424,2.298,20.269
							c-0.377,2.431-0.879,4.839-1.526,7.214c-0.087,0.34-0.157,0.687-0.249,1.027c-0.018,0.029-0.037,0.06-0.053,0.091
							c-0.193,0.664-0.421,1.32-0.633,1.979c-0.065,1.671,0.375,3.542,0.973,5.438c0.777,1.531,1.311,2.969,1.57,4.612
							c0.321,0.951,0.609,1.87,0.796,2.718c1.066,4.782,2.046,9.641,2.49,14.538c0.13,5.19,0.114,10.368-0.501,15.578
							c-0.705,5.968-0.985,12.725-3.693,18.262c2.648-11.388,3.292-23.034,1.921-34.669c-0.281-2.386-0.651-4.752-1.054-7.112
							c-0.423,4.489-1.299,9.03-2.319,13.404c-1.378,3.645-3.472,7.226-6.842,7.797c-0.013,0.124-0.042,0.248-0.058,0.371
							c-1.239,1.153-1.396,3.622-1.686,5.122c-0.907,4.68-3.583,9.166-6.281,13.275c3.485-3.883,6.525-8.165,8.212-13.049
							c0.3-0.865,1.665-0.523,1.385,0.364c-1.149,3.642-1.689,7.542-3.202,11.062c-1.385,3.219-3.417,6.226-5.679,8.908
							c-0.435,0.753-0.865,1.508-1.234,2.295c4.446-2.376,7.325-7.459,10.528-11.13c0.48-0.549,1.378,0.027,1.199,0.689
							c-3.279,12.088-10.482,22.529-22.724,26.664c-0.602,0.203-1.1-0.534-0.805-1.047c1.637-2.844,3.717-5.364,5.743-7.928
							c-2.447,1.542-5.165,2.655-7.983,3.422c-0.062,0.017-0.114,0.009-0.171,0.012c-0.908,0.566-1.822,1.118-2.744,1.652
							c-3.871,2.235-8.56,3.905-12.937,4.724c-0.231,0.043-0.476,0.087-0.725,0.13c0.034,0.077,0.059,0.155,0.124,0.222
							c5.376,5.508,16.562,1.52,22.722-0.337c6.41-1.93,12.426-4.851,17.74-8.758c-0.042,0.084-0.096,0.167-0.178,0.241
							c-0.05,0.049-0.108,0.093-0.16,0.14c0.134-0.098,0.267-0.2,0.403-0.297c-1.132,1.652-3.006,3.335-3.775,4.121
							c-2.162,2.212-4.65,4.031-6.898,6.147c-0.477,0.451-0.09,1.192,0.507,1.223c8.271,0.427,16.271-2.181,23.321-6.403
							c-1.861,1.974-3.804,3.85-6.239,5.182c-0.515,0.281-0.424,0.945-0.014,1.217c-0.014,0.009-0.025,0.019-0.04,0.028
							c0.014-0.009,0.034-0.015,0.047-0.024c0.104,0.065,0.221,0.115,0.359,0.119c4.916,0.137,9.669-0.894,13.974-2.836
							c1.572-0.584,3.084-1.306,4.479-2.165c2.967-1.682,5.584-3.936,7.495-6.692c1.013-1.461,2.071-3.125,3.023-4.905
							c0.179-0.321,0.339-0.652,0.507-0.981c0.105-0.213,0.211-0.424,0.313-0.638c0.513-1.069,0.991-2.159,1.385-3.296
							C288.599,219.34,285.682,207.9,280.818,197.621z"/>
						<path fill="#7F642F" d="M141.331,245.26c-1.744-2.12-3.251-4.421-4.477-6.845c0.732,1.06,1.555,2.069,2.425,3.047
							c-4.257-6.295-6.577-13.388-7.829-20.905c-0.495-1.516-0.946-3.048-1.291-4.617c-0.897-4.095-1.73-8.433-1.889-12.681
							c-2.392,16.521,2.085,34.201,13.758,46.283c0.533,0.553-0.015,1.293-0.689,1.199c-12.191-1.699-26.599-10.26-30.297-22.203
							c-0.875,3.941-1.135,7.956-0.263,11.804c0.736,3.24,2.051,6.098,4.047,8.736c1.24,1.641,2.967,4.028,4.999,5.359
							c-0.806-0.872-1.557-1.758-2.173-2.583c-3.878-5.199-4.251-10.499-4.666-16.488c4.649,10.003,14.68,16.846,25.784,17.121
							c3.719,0.49,7.595,0.383,11.465-0.408c-0.426-0.259-0.833-0.532-1.233-0.81C145.972,249.758,143.248,247.593,141.331,245.26z"
							/>
						<path fill="#7F642F" d="M172.144,251.99c-0.068-0.191-0.21-0.355-0.463-0.426c-5.917-1.633-10.844-5.796-15.081-10.083
							c-2.189-2.214-4.256-4.525-6.18-6.943c-2.516-3.45-4.394-7.476-6.155-11.224c-3.124-6.649-5.836-13.404-7.171-20.64
							c-0.039,0.014-0.075,0.017-0.115,0.029c-0.714,8.741,1.836,17.709,6.137,25.382c2.655,4.737,5.809,9.536,9.666,13.388
							c3.46,3.45,7.43,6.256,11.308,9.206c0.464,0.354,0.505,1.149-0.172,1.316c-4.279,1.051-8.332,0.203-12.026-1.829
							c-0.563-0.122-1.119-0.259-1.668-0.429c4.06,2.109,8.582,3.668,12.827,3.951c4.221,0.564,8.554,0.301,12.87-0.701
							C174.634,252.734,173.38,252.383,172.144,251.99z"/>
						<path fill="#B29156" d="M213.17,108.066c-5.901,8.403-15.091,15.04-23.961,19.166c-13.522,6.29-29.222,7.992-39.119,20.321
							c-0.455,0.567-1.397-0.037-1.199-0.689c1.156-3.831,2.9-7.329,4.918-10.677c-0.213,0.334-0.445,0.656-0.652,0.994
							c-1.187,1.74-2.259,3.549-3.188,5.433c-1.458,2.278-2.743,4.659-3.726,7.177c-1.582,4.051-3.314,10.363-2.429,15.152
							c3.129-12.423,15.56-20.038,26.167-25.656c8.731-4.622,18.06-8.561,26.191-14.22
							C202.309,120.796,209.425,115.078,213.17,108.066z"/>
						<path fill="#7F642F" d="M280.818,197.621c-1.77-5.469-3.861-10.885-5.758-16.28c-1.462-4.156-2.914-8.271-4.267-12.41
							c0.495,4.408,1.295,8.779,2.473,13.055c2.866,10.394,8.698,19.827,10.971,30.399c3.124,14.528-7.34,32.93-22.688,35.491
							c-0.659,0.111-1.245-0.672-0.689-1.199c2.666-2.523,4.27-5.801,5.543-9.227c-2.225,2.526-4.781,4.745-7.655,6.471
							c-5.1,3.059-12.472,6.284-18.523,5.388c-0.315-0.046-0.535-0.398-0.535-0.693c0-0.946,1.02-1.244,1.652-1.829
							c1.457-1.349,2.808-2.808,3.92-4.461c1.36-2.024,2.534-4.146,3.395-6.39c-3.988,2.74-8.078,5.354-12.292,7.656
							c-3.458,1.889-7.078,3.206-10.8,4.207c-0.07,0.024-0.134,0.053-0.203,0.077c-0.071,0.024-0.139,0.032-0.206,0.032
							c-2.842,0.744-5.74,1.316-8.681,1.79c-3.29,0.532-7.729,1.319-10.656-0.715c0.016,0.027,0.021,0.056,0.045,0.08
							c5.376,5.508,16.562,1.52,22.722-0.337c6.41-1.93,12.426-4.851,17.74-8.758c-0.042,0.084-0.096,0.167-0.178,0.241
							c-0.05,0.049-0.108,0.093-0.16,0.14c0.134-0.098,0.267-0.2,0.403-0.297c-1.132,1.652-3.006,3.335-3.775,4.121
							c-2.162,2.212-4.65,4.031-6.898,6.147c-0.477,0.451-0.09,1.192,0.507,1.223c8.271,0.427,16.271-2.181,23.321-6.403
							c-1.861,1.974-3.804,3.85-6.239,5.182c-0.515,0.281-0.424,0.945-0.014,1.217c-0.014,0.009-0.025,0.019-0.04,0.028
							c0.014-0.009,0.034-0.015,0.047-0.024c0.104,0.065,0.221,0.115,0.359,0.119c4.916,0.137,9.669-0.894,13.974-2.836
							c1.572-0.584,3.084-1.306,4.479-2.165c2.967-1.682,5.584-3.936,7.495-6.692c1.013-1.461,2.071-3.125,3.023-4.905
							c0.179-0.321,0.339-0.652,0.507-0.981c0.105-0.213,0.211-0.424,0.313-0.638c0.513-1.069,0.991-2.159,1.385-3.296
							C288.599,219.34,285.682,207.9,280.818,197.621z"/>
						<path fill="#7F642F" d="M232.742,150.638c-3.352-4.957-6.525-10.058-9.21-15.413c-4.572-9.122-7.861-18.927-8.808-29.082
							c-0.331,1.656-0.6,3.309-0.407,5.019c0.495,4.374,2.14,8.884,3.512,13.045c2.175,6.59,5.514,12.722,9.22,18.594
							c4.313,7.461,9.545,14.37,13.287,22.158c1.687,3.514,3.087,7.198,3.297,11.11c0.163-1.121,2.746-16.435,1.523-23.077
							c-0.448-2.438-1.109-4.848-1.866-7.216c-0.54-0.954-1.107-1.899-1.685-2.839c0.501,1.696,1.002,3.394,1.36,5.125
							c1.005,4.841,0.974,10.089-0.073,14.93c-0.123,0.569-0.812,0.658-1.199,0.324c-1.794-1.536-2.826-3.588-4.077-5.556
							C236.072,155.335,234.353,153.02,232.742,150.638z"/>
						<path fill="#7F642F" d="M247.393,158.152c-0.211-4.146-1.64-7.805-3.509-11.291c2.345,7.101,2.872,14.846,2.107,22.403
							c0.137,0.697,0.288,1.388,0.408,2.088c0.081,0.466,0.616,0.614,0.999,0.457c-0.093-0.037-0.146-0.126-0.095-0.315
							c2.611-9.823,6.415-19.176,5.402-29.587c-0.022-0.227-0.064-0.444-0.09-0.669c-0.15,6.026-1.268,11.946-3.885,17.267
							C248.396,159.19,247.428,158.825,247.393,158.152z"/>
						<path fill="#7F642F" d="M156.903,131.404c1.075-1.57,2.179-3.127,3.279-4.686c-12.128,8.32-22.453,19.053-23.496,34.3
							c-0.037,0.56-0.791,1.03-1.223,0.507c-3.217-3.902-4.081-9.864-4.643-14.885c0.001,1.531,0.031,3.058,0.088,4.566
							c0.291,7.56,3.773,14.089,5.384,21.341c0.15,0.677,1.264,0.717,1.387,0c0.75-4.407,1.595-8.783,2.617-13.112
							c0.565-1.245,1.187-2.467,1.805-3.688c1.449-6.18,5.013-12.481,7.851-16.304C152.108,136.539,154.446,133.894,156.903,131.404
							z"/>
					</g>
					<path fill="#886C36" d="M186.896,88.021c-14.048,0.827-27.68,5.535-38.805,13.526c-7.429,4.456-15.478,14.554-15.193,13.856
						c5.125-12.431,16.17-21.544,27.708-27.872c6.162-3.38,12.607-6.293,19.441-8.015c5.206-1.311,10.491-2.175,15.799-2.88
						c-4.1-0.196-8.387-0.162-12.488,0.574c-21.634,1.982-40.945,13.114-54.091,31.018c-3.374,4.596-5.892,9.722-7.732,15.104
						c-2.397,10.208-2.56,20.93-2.376,31.483c0.154,8.919,1.669,18.252,0.21,27.056c0.336-0.894,0.664-1.791,0.98-2.69
						c1.297-6.61,0.971-13.167,1.001-20.551c0.024-6.099,0.581-12.131,1.353-18.16c-0.339,5.654-0.114,11.261,0.886,16.135
						c0.155,0.759,1.101,0.014,1.119-0.487c0.59-16.046,5.471-33.683,17.114-45.316c13.255-13.239,32.385-18.375,50.109-21.774
						c0.116-0.022,0.249-0.12,0.368-0.247C190.515,88.444,188.711,88.191,186.896,88.021z"/>
					<path fill="#886C36" d="M231.945,134.151c-0.01-0.055-0.022-0.109-0.034-0.165c-2.161-7.439-2.972-14.801-4.038-22.437
						c1.909,4.4,3.673,9.44,7.483,11.702c0.407,0.242,0.892-0.359,0.98-0.683c0.35-1.285,0.449-2.782,0.371-4.386
						c2.693,6.018,4.793,12.218,7.389,18.286c-1.565-8.398-2.887-16.934-5.546-25.012c-1.681-5.107-4.44-10.054-7.662-14.366
						c-1.767-2.368-3.796-6.226-6.709-7.522c3.962,6.159,7.778,13.231,7.868,20.457c0.009,0.641-0.779,0.929-1.223,0.507
						c-2.317-2.204-3.608-5.062-4.949-7.9c-0.003,3.34,0.059,6.68,0.2,10.021c0.037,0.858-1.155,0.914-1.409,0.182
						c-1.273-3.65-2.021-7.402-2.522-11.23c-0.216-1.653-0.299-3.417-0.475-5.159c-0.155-0.94-0.283-1.853-0.389-2.711
						c-0.136-0.682-0.297-1.35-0.516-1.992c-0.457-1.334-1.369-1.611-2.483-1.342c-0.557,0.403-1.023,0.81-1.134,0.904
						c-1.397,1.187-2.805,2.363-4.226,3.518c-1.829,1.483-3.573,3.044-5.379,4.548c-0.911,0.757-4.4,4.264-5.601,2.212
						c-1.153-1.969,1.164-4.649,2.278-6.075c1.643-2.107,3.754-4.014,5.466-6.124c-3.633,1.452-7.143,3.663-10.448,5.61
						c-2.676,1.576-5.461,3.426-8.631,3.686c-0.592,0.049-0.995-0.841-0.507-1.223c0.656-0.513,5.115-3.479,8.508-5.853
						c-1.076,0.318-2.163,0.612-3.259,0.881c-3.732,1.766-7.661,2.883-11.563,4.21c-3.087,1.05-6.21,2.324-9.281,3.772
						c-4.765,1.986-9.366,4.695-13.259,7.247c-3.756,2.462-8.506,5.689-12.369,9.437c-1.923,2.351-3.636,4.865-5.113,7.538
						c1.993-2.168,4.473-3.924,6.908-5.545c3.166-2.109,6.362-4.112,9.704-5.868c6.206-3.896,12.959-6.898,19.688-9.744
						c1.114-0.47,2.222-0.949,3.33-1.429c-5.876,4.038-11.315,8.804-17.089,12.878c-0.358,0.253-0.689,0.935-0.577,1.344
						c2.578-0.285,5.276-1.443,7.523-2.194c0.94-0.315,1.87-0.654,2.805-0.981c2.373-1.199,4.686-2.547,6.942-3.87
						c5.033-2.259,9.487-5.78,14.383-8.335c3.132-1.634-0.977,5.052-0.792,4.809c-1.23,1.636-2.342,3.36-3.471,5.065
						c-2.858,4.306-6.305,8.138-9.716,12.005c-0.093,0.106-0.179,0.283-0.229,0.463c0.784-0.158,1.565-0.33,2.332-0.578
						c2.074-0.672,4.075-1.594,5.983-2.66c3.402-2.431,6.49-5.493,9.363-8.172c1.148-1.069,2.204-2.204,3.219-3.37
						c2.573-2.172,4.98-4.579,7.239-6.985c2.094-2.23,4.52-4.578,6.449-7.154c-0.64,5.23,0.732,11.665,1.734,15.827
						c2.413,10.046,6.636,20.973,12.923,29.263c0.224,0.296,0.63,0.06,0.862-0.265C232.728,137.543,232.263,135.865,231.945,134.151
						z"/>
					<path fill="#886C36" d="M119.796,216.28c-0.831-3.931-1.324-7.914-1.19-11.939c0.145-4.325,0.537-8.642,0.018-12.923
						c-2.386,14.242-3.302,29.609,6.876,41.332c0.219,0.252,0.648,0.018,0.859-0.285
						C123.187,227.553,120.997,221.959,119.796,216.28z"/>
					<path fill="#886C36" d="M271.902,190.729c-2.491-7.031-4.943-14.332-7.129-21.767c-0.229-1.223-0.427-2.45-0.627-3.676
						c-1.38-6.291-2.25-12.643-2.793-19.18c-0.172-2.079-0.33-4.165-0.51-6.249c-0.564-4.193-1.212-8.379-2.091-12.543
						c-1.468-6.957-4.115-12.828-7.685-18.105c-1.928-2.68-4.103-5.159-6.5-7.437c5.571,8.011,9.898,16.97,11.832,26.421
						c1.444,7.056,1.895,14.25,1.885,21.44c-0.001,1.659-0.006,3.32,0.011,4.981c2.011,10.896,5.171,21.7,8.639,32.048
						c0.856,3.801,1.795,7.495,2.415,11.246c-1.248-6.257-4.187-12.15-6.966-17.961c-0.406-0.551-2.754-4.051-3.169-4.597
						c3.068,7.605,5.28,19.043,5.195,27.05c-0.105,9.732-1.828,18.901-5.658,27.693c3.473-4.003,6.185-7.654,8.072-11.743
						c-0.38,3.015-0.914,6.091-1.46,9.381c1.443-1.137,2.707-2.626,3.618-4.01c0.208-0.318,0.543-0.375,0.828-0.288
						c1.296-2.48,2.035-5.152,2.589-7.999c1.184,6.516,0.356,13.228,0.331,19.821c2.311-1.885,3.899-5.002,4.914-8.279
						C279.971,214.995,275.832,201.821,271.902,190.729z"/>
					<path fill="#886C36" d="M150.792,247.445c-11.579-7.112-15.508-19.096-18.886-31.61c-0.052-0.193-0.382,0.049-0.359,0.2
						c1.864,12.894,5.763,26.638,18.863,31.964C150.68,248.109,151.086,247.625,150.792,247.445z"/>
				</g>
				<g>
					<g>
						<g>
							<g>
								<path fill="#B29156" d="M228.729,157.96c-1.069-1.021-2.291-1.826-3.659-2.247c-3.19-1.33-6.952-1.58-10.843-0.825
									c-2.854,0.555-11.924,3.352-15.179,7.216c-0.025,0.356-0.004,0.7,0.031,1.042c0.281,1.02,0.765,2.018,1.425,2.834
									c6.015-3.495,11.087-7.068,18.423-6.605c5.17,0.326,10.519,1.741,14.117,5.319
									C232.131,161.821,230.627,159.598,228.729,157.96z"/>
								<path fill="#A28349" d="M224.845,158.265c-5.344-2.355-10.673-1.334-15.829,0.964c-1.969,0.877-4.067,1.754-5.723,3.169
									c-0.761,0.651-1.634,1.582-2.59,1.961c-0.39,0.155-0.756,0.183-1.109,0.158c0.249,0.528,0.554,1.021,0.911,1.463
									c6.015-3.495,11.087-7.068,18.423-6.605c3.939,0.249,7.979,1.138,11.272,3.128
									C228.708,160.788,227.066,159.243,224.845,158.265z"/>
							</g>
							<path fill="#B29156" d="M218.924,158.669c-3.376,0.329-6.474-0.567-9.662,0.524c-2.66,0.911-7.129,5.483-9.916,4.759
								c0.326,0.85,0.791,1.655,1.388,2.309c0.315,0.16,0.665,0.242,1.065,0.193c2.202-0.651,4.787-2.101,6.199-2.571
								c8.649-2.88,16.479-4.805,24.214,1.36c0.249,0.199,0.692-0.199,0.574-0.479C230.502,159.296,224.206,158.152,218.924,158.669
								z"/>
						</g>
						<g>
							<g>
								<path fill="#B29156" d="M181.237,164.442c0.232-0.434,0.48-1.011,0.618-1.601c0.014-0.242,0.019-0.486,0.001-0.737
									c-3.255-3.865-12.324-6.661-15.177-7.216c-3.89-0.756-7.655-0.505-10.846,0.825c-1.368,0.422-2.587,1.226-3.656,2.247
									c-1.901,1.638-3.403,3.861-4.317,6.734c3.596-3.577,8.947-4.992,14.117-5.319c7.069-0.446,12.037,2.855,17.768,6.224
									C180.336,165.318,180.939,165,181.237,164.442z"/>
								<path fill="#A28349" d="M181.163,164.531c-0.308-0.001-0.626-0.04-0.961-0.173c-0.955-0.38-1.831-1.311-2.59-1.961
									c-1.655-1.415-3.756-2.291-5.723-3.169c-5.157-2.299-10.487-3.32-15.831-0.964c-2.221,0.979-3.864,2.522-5.356,4.238
									c3.293-1.989,7.333-2.878,11.274-3.128c7.069-0.446,12.037,2.855,17.768,6.224
									C180.299,165.336,180.85,165.028,181.163,164.531z"/>
							</g>
							<path fill="#B29156" d="M161.358,158.669c3.224,0.329,6.183-0.567,9.224,0.524c3.012,1.079,8.458,7.333,10.768,3.776
								c0.171-0.264,0.747,0.299,0.49,0.513c-0.089,0.075-0.176,0.148-0.265,0.223c-0.081,0.066-0.205-0.038-0.217-0.127
								c0.838,6.49-6.776,1.279-9.568,0.306c-8.26-2.88-15.736-4.805-23.123,1.36c-0.242,0.199-0.662-0.199-0.552-0.479
								C150.297,159.296,156.311,158.152,161.358,158.669z"/>
						</g>
					</g>
					<g id="Capa_2_2_">
						<g>
							<g>
								<path fill="#ECCFBC" d="M234.715,177.999c-0.439,0.142-1.265,0.63-1.699,0.774c0.636-2.887-2.238-5.78-4.76-7.56
									c-2.275-1.604-4.992-2.897-8.035-2.892c1.163-0.16,2.354-0.276,3.555-0.383c-6.433-0.809-12.252,0.952-16.309,4.51
									c-2.191,2.473-3.552,5.869-2.877,8.869c0.777,3.455,9.084,2.549,11.888,2.328c5.029-0.397,12.085-1.347,16.718-3.879
									C233.807,179.247,234.322,178.662,234.715,177.999z"/>
								<g>
									<path fill="#7D401D" d="M232.553,178.813c-0.18-0.663-0.925-1.835-1.186-2.481c-1.046-2.198-2.268-3.942-5.345-5.428
										c-3.008-1.452-5.986-1.661-9.501-1.162c-7.2,1.017-10.437,5.914-10.305,10.488c-0.227,0.742-0.237,1.526,0.908,1.835
										c3.166,0.856,6.727,0.779,10.084,0.672c3.712-0.116,8.624-0.718,12.12-2.281
										C229.356,180.437,231.822,179.596,232.553,178.813z"/>
									<path fill="#FFFFFF" d="M210.811,182.242c-3.78-0.34-4.297-2.353-3.952-3.45c0.847-4.364,4.485-7.997,11.654-8.679
										c7.221-0.686,10.708,3.847,12.904,7.674c-0.882,2.77-9.822,4.421-14.866,4.519
										C215.118,182.331,212.572,182.369,210.811,182.242z"/>
									<path fill="#7D401D" d="M218.874,168.147c-1.068,0.07-2.112,0.183-3.132,0.336c-6.436,1.615-10.855,6.021-10.609,11.058
										c0.006,0.073,0.083,0.08,0.167,0.062c0.098-0.242,0.189-0.485,0.308-0.722c0.425-2.801,1.654-5.405,4.488-7.567
										c2.795-2.132,7.049-2.95,11.112-3.171C220.292,168.128,219.287,168.12,218.874,168.147z"/>
								</g>
							</g>
							<g>
								<g>
									<g>
										<g>
											<defs>
												<path id="SVGID_5_" d="M210.811,182.242c-3.78-0.34-4.297-2.353-3.952-3.45c0.847-4.364,4.485-7.997,11.654-8.679
													c7.221-0.686,10.708,3.847,12.904,7.674c-0.882,2.77-9.822,4.421-14.866,4.519
													C215.118,182.331,212.572,182.369,210.811,182.242z"/>
											</defs>
											<clipPath id="SVGID_6_">
												<use xlink:href="#SVGID_5_"  overflow="visible"/>
											</clipPath>
											<g clip-path="url(#SVGID_6_)">
												<g>
													<ellipse fill="#200F10" cx="218.937" cy="176.866" rx="7.399" ry="8.066"/>
													<ellipse fill="#7C4923" cx="218.938" cy="176.735" rx="6.771" ry="7.381"/>
													<ellipse fill="#0F0A0F" cx="218.854" cy="176.421" rx="4.668" ry="5.088"/>
													<path fill="#FCF7E0" d="M217.758,174.768c-0.335,1.252-1.368,2.13-2.309,1.958c-0.939-0.169-1.429-1.323-1.093-2.578
														c0.335-1.25,1.368-2.129,2.309-1.958C217.604,172.362,218.092,173.516,217.758,174.768z"/>
													<path fill="#7C4923" d="M222.629,180.482c-4.424,3.913-8.772,0.877-8.981-3.673c-0.004-0.126-0.989,0.607-0.983,0.694
														c0.205,2.514,1.444,4.784,4.372,5.828c2.529,0.9,4.821-0.419,6.211-2.031
														C223.362,181.171,222.747,180.38,222.629,180.482z"/>
												</g>
												<path fill="#7C4923" d="M224.172,174.322c0,0,0.799,2.915-0.951,5.442l0.656,0.321
													C223.878,180.085,226.09,177.766,224.172,174.322z"/>
											</g>
										</g>
									</g>
								</g>
							</g>
							<g>
								<g>
									<path fill="#ECCFBC" d="M147.49,177.999c0.439,0.142,1.265,0.63,1.699,0.774c-0.636-2.887,2.238-5.78,4.761-7.56
										c2.276-1.604,4.993-2.897,8.036-2.892c-1.163-0.16-2.355-0.276-3.557-0.383c6.433-0.809,12.252,0.952,16.311,4.51
										c2.19,2.473,3.552,5.869,2.877,8.869c-0.778,3.455-9.084,2.549-11.888,2.328c-5.029-0.397-12.085-1.347-16.718-3.879
										C148.398,179.247,147.882,178.662,147.49,177.999z"/>
									<g>
										<path fill="#7D401D" d="M152.877,180.455c3.498,1.563,8.409,2.166,12.12,2.281c3.359,0.106,6.92,0.183,10.084-0.672
											c1.145-0.308,1.137-1.092,0.91-1.835c0.132-4.574-3.105-9.47-10.305-10.488c-3.516-0.498-6.495-0.29-9.501,1.162
											c-3.079,1.485-4.3,3.23-5.345,5.428c-0.262,0.647-1.007,1.819-1.186,2.481
											C150.384,179.596,152.849,180.437,152.877,180.455z"/>
										<path fill="#7D401D" d="M163.33,168.147c1.069,0.07,2.112,0.183,3.132,0.336c6.436,1.615,10.855,6.021,10.609,11.058
											c-0.004,0.073-0.082,0.08-0.167,0.062c-0.096-0.242-0.188-0.485-0.306-0.722c-0.426-2.801-1.654-5.405-4.489-7.567
											c-2.796-2.132-7.049-2.95-11.114-3.171C161.914,168.128,162.917,168.12,163.33,168.147z"/>
										<path fill="#FFFFFF" d="M165.653,182.305c-5.045-0.098-13.984-1.749-14.865-4.519c2.196-3.826,5.682-8.359,12.902-7.674
											c7.169,0.682,10.808,4.315,11.654,8.679c0.346,1.097-0.17,3.11-3.951,3.45
											C169.632,182.369,167.086,182.331,165.653,182.305z"/>
									</g>
								</g>
								<g>
									<g>
										<g>
											<g>
												<defs>
													<path id="SVGID_7_" d="M165.653,182.305c-5.045-0.098-13.984-1.749-14.865-4.519c2.196-3.826,5.682-8.359,12.902-7.674
														c7.169,0.682,10.808,4.315,11.654,8.679c0.346,1.097-0.17,3.11-3.951,3.45
														C169.632,182.369,167.086,182.331,165.653,182.305z"/>
												</defs>
												<clipPath id="SVGID_8_">
													<use xlink:href="#SVGID_7_"  overflow="visible"/>
												</clipPath>
												<g clip-path="url(#SVGID_8_)">
													<g>
														<ellipse fill="#200F10" cx="163.929" cy="177.009" rx="7.399" ry="8.067"/>
														<ellipse fill="#7C4923" cx="163.928" cy="176.879" rx="6.769" ry="7.381"/>
														<ellipse fill="#0F0A0F" cx="163.844" cy="176.564" rx="4.668" ry="5.088"/>
														<path fill="#FCF7E0" d="M162.747,174.912c-0.334,1.252-1.368,2.13-2.307,1.958c-0.939-0.169-1.428-1.323-1.093-2.578
															c0.335-1.25,1.367-2.129,2.307-1.959C162.595,172.506,163.084,173.66,162.747,174.912z"/>
														<path fill="#7C4923" d="M167.619,180.626c-4.424,3.913-8.77,0.877-8.979-3.673c-0.006-0.125-0.99,0.607-0.983,0.694
															c0.205,2.514,1.444,4.784,4.372,5.828c2.528,0.9,4.822-0.419,6.211-2.031
															C168.353,181.315,167.736,180.523,167.619,180.626z"/>
													</g>
													<path fill="#7C4923" d="M169.164,174.466c0,0,0.799,2.915-0.952,5.442l0.658,0.321
														C168.869,180.229,171.081,177.909,169.164,174.466z"/>
												</g>
											</g>
										</g>
									</g>
								</g>
							</g>
							<g>
								<path fill="#A4621F" d="M186.429,181.188c0,0,2.376,3.183,2.681,5.438c0,0-0.757,6.873-4.117,10.904
									c0,0,3.038-6.11,2.436-10.96L186.429,181.188L186.429,181.188z"/>
								<path fill="#A4621F" d="M193.503,204.588c-1.541,0.462-3.883-0.586-6.293-1.705c-2.401-1.113-4.535-2.887-2.823-4.86
									c0,0-0.093,1.898,6.431,2.805c0,0,1.516,0.568,5.638-0.848c0,0-2.257,2.298-5.36,2.069
									c-3.105-0.234-5.136-1.594-5.136-1.594s1.644,1.928,5.92,3.3c0,0,1.328,0.95,4.562-1.528
									C196.443,202.226,195.048,204.115,193.503,204.588L193.503,204.588z"/>
								<path fill="#ECCFBC" d="M193.503,204.588c-1.541,0.462-3.883-0.586-6.293-1.705c-2.401-1.113-4.535-2.887-2.823-4.86
									c0,0-0.093,1.898,6.431,2.805c0,0,1.516,0.568,5.638-0.848c0,0,4.214-2.273-0.014,2.246
									C196.443,202.226,195.048,204.115,193.503,204.588L193.503,204.588z"/>
								<path fill="#F6EAE4" d="M188.964,194.339c0.727-2.191,1.786-4.345,1.8-6.666c0.014-2.922-1.209-4.691-2.935-6.675
									c-0.027,0.078-0.04,0.157-0.009,0.223c0.382,0.828,0.747,1.618,1.071,2.382c0.638,2.212,0.793,4.387,0.174,6.817
									c-0.57,2.246-1.933,4.125-2.645,6.262C187.32,195.932,188.178,195.164,188.964,194.339z"/>
								<path fill="#F6EAE4" d="M192.95,199.222c0.785-1.024-1.442-1.467-1.944-1.448c-0.687,0.027-1.349,0.2-2.02,0.328
									c-0.207,0.38-0.183,0.908,0.15,1.242c0.405,0.406,0.937,0.73,1.501,0.885C191.523,200.249,192.4,199.939,192.95,199.222z"/>
							</g>
							<g>
								<g>
									<path fill="#E9C6B0" d="M208.843,223.044c0.863-1.484,1.713-2.974,2.694-4.401c0.613-0.892,2.364-2.07,3.218-3.159
										c-0.521,0.122-1.05,0.22-1.597,0.261c-0.356,0.101-0.738,0.193-1.186,0.267c-6.533,1.081-13.613,0.102-20.224-0.544
										c-3.495-0.343-6.815-0.531-10.26-0.085c-2.615,0.335-5.202,0.764-7.875,0.872c-0.545,0.022-1.065,0.011-1.572-0.022
										c-1.237,0.234-2.962,1.01-4.246,0.736c-1.145-0.245-2.097-0.92-2.83-1.766c0.618,1.555,2.834,2.285,4.261,3.448
										c0.495,0.123,0.961,0.326,1.352,0.705c1.319,1.278,2.213,3.606,3.435,5.364c5.858,5.134,18.841,5.85,26.396,3.645
										C204.543,227.159,206.846,225.365,208.843,223.044z"/>
									<path fill="#B74648" d="M214.185,215.847c0.127-0.037,0.246-0.079,0.373-0.116c0.083-0.065,0.164-0.132,0.244-0.203
										c-2.447,0.372-4.959,0.316-7.474,0.217c-3.495,0.291-7.052,0.241-10.581,0.216c-5.208-0.037-10.711-1.248-15.808-0.452
										c-1.048,0.044-2.101,0.104-3.187,0.217c-1.422,0.147-3.435,0.631-5.367,0.835c-1.191,0.247-2.399,0.469-3.524,0.431
										c-1.068-0.037-2.038-0.28-2.811-0.759c0.897,1.059,2.152,1.39,3.847,1.418c3.684,2.394,5.067,6.49,9.614,8.129
										c4.339,1.565,9.753,2.386,14.518,2.249c4.118-0.115,8.436-1.224,11.382-3.225c1.532-1.037,2.312-2.383,3.06-3.766
										c1.272-2.353,2.936-3.637,5.663-5.134C214.16,215.889,214.169,215.867,214.185,215.847z M207.469,220.762
										c-2.156,3.971-6.053,5.874-12.011,6.286c-4.737,0.328-10.178-0.549-14.632-1.783c-4.835-1.338-6.344-5.428-10.329-7.607
										c0.346-0.005,0.715-0.022,1.096-0.044c5.18-0.297,9.949-1.897,15.237-2.002c0.044,0,0.062-0.024,0.052-0.052
										c4.101,0.283,8.32,1.055,12.271,1.196c3.505,0.124,8.068,0.269,12.004-0.28C209.353,217.5,208.294,219.24,207.469,220.762z
										"/>
									<path fill="#841A1E" d="M207.469,220.762c-2.156,3.971-6.053,5.874-12.011,6.286c-4.737,0.328-10.178-0.549-14.632-1.783
										c-4.835-1.338-6.344-5.428-10.329-7.607c0.346-0.005,0.715-0.022,1.096-0.044c5.18-0.297,9.949-1.897,15.237-2.002
										c0.044,0,0.062-0.024,0.052-0.052c4.101,0.283,8.32,1.055,12.271,1.196c3.505,0.124,8.068,0.269,12.004-0.28
										C209.353,217.5,208.294,219.24,207.469,220.762z"/>
									<path fill="#FFFFFF" d="M208.024,216.774c-3.078,0.178-6.267,0.076-8.871-0.017c-3.951-0.14-8.169-0.912-12.271-1.196
										c0.009,0.028-0.009,0.052-0.052,0.052c-4.013,0.081-7.728,1.018-11.552,1.596c1.132,1.605,2.347,2.846,5.479,3.343
										c2.992,0.471,5.956,0.998,9.009,1.129c5.174,0.214,10.066-0.299,14.831-1.388
										C205.967,219.256,207.074,218.048,208.024,216.774z"/>
									<path opacity="0.6" fill="#B5A795" enable-background="new    " d="M199.153,216.757c-3.951-0.14-8.169-0.912-12.271-1.196
										c0.009,0.028-0.009,0.052-0.052,0.052c-4.013,0.081-7.728,1.018-11.552,1.596c0.099,0.145,0.205,0.283,0.308,0.419
										c4.096-0.261,8.049-1.002,12.234-0.853c4.909,0.179,9.765,0.764,14.636,1.286c0.451,0.047,0.734,0.356,0.599,0.662
										c-0.394,0.911-1.099,1.651-2.002,2.265c1.192-0.195,2.37-0.426,3.543-0.695c1.371-1.039,2.477-2.248,3.428-3.521
										C204.946,216.953,201.757,216.85,199.153,216.757z"/>
									<path fill="#CD6F5C" d="M193.614,223.963c-4.667-0.389-8.367,0.186-11.988,1.511c4.302,1.119,9.372,1.884,13.831,1.575
										c2.146-0.148,4.016-0.498,5.643-1.062C198.825,224.964,196.374,224.195,193.614,223.963z"/>
								</g>
								<path fill="#CE7263" d="M177.481,214.655c-1.049,0.129-2.073,0.329-3.095,0.507c-0.618,0.214-1.232,0.438-1.844,0.669
									c0.71-0.105,1.401-0.236,1.998-0.331c6.733-1.075,13.273-1.186,20.071-1.063
									C188.944,213.165,183.347,213.93,177.481,214.655z"/>
								<path fill="#CE7263" d="M188.801,230.202c-1.26-0.041-3.504,0.065-4.934-0.574c0.882,1.355,4.181,1.889,5.495,2.177
									c3.17,0.699,6.456-0.441,9.28-1.654c0.18-0.078,0.36-0.286,0.452-0.491C195.818,230.594,192.28,230.313,188.801,230.202z"/>
							</g>
						</g>
					</g>
				</g>
				<circle fill="none" stroke="#4CAF50" stroke-width="18" stroke-miterlimit="10" cx="189.411" cy="190.882" r="163.828"/>
			</g>
		</g>
	</g>
</g>
</svg>
