<?xml version="1.0" encoding="utf-8"?>
<!-- Generator: Adobe Illustrator 17.0.0, SVG Export Plug-In . SVG Version: 6.00 Build 0)  -->
<!DOCTYPE svg PUBLIC "-//W3C//DTD SVG 1.1//EN" "http://www.w3.org/Graphics/SVG/1.1/DTD/svg11.dtd">
<svg version="1.1" id="Capa_1" xmlns="http://www.w3.org/2000/svg" xmlns:xlink="http://www.w3.org/1999/xlink" x="0px" y="0px"
	 width="378px" height="376px" viewBox="0 0 378 376" enable-background="new 0 0 378 376" xml:space="preserve">
<g>
	<g display="none">
		<path display="inline" fill="#947154" stroke="#694934" stroke-width="3" stroke-miterlimit="10" d="M255.638,646.691
			c-14.08-3.859-22.53-8.026-27.212-8.347c-1.47,2.292-0.257,5.341-0.803,7.77c-3.141,14.03-19.699,33.102-31.245,39.034
			c-11.542-5.932-28.104-25.004-31.244-39.034c-0.543-2.43,0.669-5.48-0.803-7.77c-4.679,0.322-13.129,4.487-27.212,8.347
			c-17.916,4.903-44.928,11.864-43.057,44.93h89.502h25.632h89.499C300.57,658.555,273.558,651.594,255.638,646.691z"/>
		<path display="inline" fill="#947154" stroke="#694934" stroke-width="3" stroke-miterlimit="10" d="M255.638,646.691
			c-14.08-3.859-22.53-8.026-27.212-8.347c-1.47,2.292-0.257,5.341-0.803,7.77c-3.141,14.03-19.699,33.102-31.245,39.034
			c-11.542-5.932-28.104-25.004-31.244-39.034c-0.543-2.43,0.669-5.48-0.803-7.77c-4.679,0.322-13.129,4.487-27.212,8.347
			c-17.916,4.903-44.928,11.864-43.057,44.93l-0.092,27.867l204.817-0.537l-0.093-27.33
			C300.57,658.555,273.558,651.594,255.638,646.691z"/>
	</g>
	<circle fill="#FFFFFF" cx="187.881" cy="190.002" r="163.828"/>
	<g>
		<g>
			<g>
				<defs>
					<ellipse id="SVGID_1_" cx="187.47" cy="190.356" rx="165.432" ry="165.094"/>
				</defs>
				<clipPath id="SVGID_2_">
					<use xlink:href="#SVGID_1_"  overflow="visible"/>
				</clipPath>
				<g clip-path="url(#SVGID_2_)">
					<g>
						<g>
							<path fill="#8B6854" d="M234.234,276.311c-7.246-2.211-13.671-5.348-17.881-10.739c-1.802-4.078-2.459-8.544-2.868-12.826
								c-0.358-3.735-0.583-7.471-0.768-11.214c0.016-0.431,0.01-0.846,0.041-1.277c0.308-4.24,1.25-7.895,0.251-11.704
								c-0.71-0.919-1.634-1.744-2.814-2.414c-5.752-3.313-13.881-3.327-20.851-2.758c-6.971-0.569-15.1-0.555-20.851,2.758
								c-1.18,0.671-2.101,1.495-2.811,2.414c-1.003,3.808-0.057,7.465,0.248,11.704c0.031,0.43,0.025,0.846,0.044,1.277
								c-0.187,3.742-0.41,7.477-0.768,11.214c-0.412,4.284-1.066,8.748-2.868,12.826c-3.198,4.094-7.681,6.888-12.824,8.966v39.99
								c18.227,0,36.454-0.015,54.675-0.015c10.014,0,20.026,0.029,30.046,0.066L234.234,276.311L234.234,276.311z"/>
							<path fill="#E9C6B0" d="M234.234,278.099c-4.477-1.437-8.636-3.232-12.12-5.648c-2.551-1.969-4.867-4.092-6.44-6.625
								c-1.409-2.277-2.544-4.764-3.474-7.332c-2.044-9.259-1.64-19.116-0.698-28.353c-0.231-0.343-0.488-0.671-0.809-0.963
								c-1.126-1.211-2.741-2.072-4.75-2.758c-3.984-1.372-8.259-1.934-12.539-2.094c-0.051,0.029-0.102,0.066-0.158,0.066
								c-0.368-0.022-0.745-0.022-1.117-0.037c-0.032,0.007-0.057,0.037-0.089,0.037c-0.888-0.044-1.793-0.066-2.697-0.088
								c-0.904,0.022-1.806,0.043-2.697,0.088c-0.029,0-0.057-0.029-0.086-0.037c-0.375,0.015-0.749,0.015-1.12,0.037
								c-0.054,0-0.105-0.037-0.158-0.066c-4.279,0.16-8.554,0.722-12.539,2.094c-2.005,0.685-3.624,1.546-4.746,2.758
								c-0.323,0.292-0.581,0.62-0.812,0.963c0.943,9.237,1.348,19.094-0.698,28.353c-0.927,2.568-2.063,5.056-3.475,7.332
								c-1.574,2.532-3.889,4.656-6.44,6.625c-2.125,1.474-4.511,2.714-7.059,3.787v37.071c18.43-0.007,37.391,10.905,55.818,10.905
								c9.807,0,19.089-10.927,28.903-10.963L234.234,278.099L234.234,278.099z"/>
							<path fill="#ECCFBC" d="M165.729,260.333c6.704,5.158,17.716,6.858,26.296,6.296c7.51-0.496,14.674-2.495,21.273-5.464
								c-0.396-0.876-0.768-1.758-1.097-2.67c-2.044-9.259-1.64-19.116-0.698-28.353c-0.231-0.343-0.488-0.671-0.809-0.963
								c-1.126-1.211-2.741-2.072-4.75-2.758c-3.984-1.372-8.259-1.934-12.539-2.094c-0.051,0.029-0.102,0.066-0.158,0.066
								c-0.368-0.022-0.745-0.022-1.117-0.037c-0.032,0.007-0.057,0.037-0.089,0.037c-0.888-0.044-1.793-0.066-2.697-0.088
								c-0.904,0.022-1.806,0.043-2.697,0.088c-0.029,0-0.057-0.029-0.086-0.037c-0.375,0.015-0.749,0.015-1.12,0.037
								c-0.054,0-0.105-0.037-0.158-0.066c-4.279,0.16-8.554,0.722-12.539,2.094c-2.005,0.685-3.624,1.546-4.746,2.758
								c-0.323,0.292-0.581,0.62-0.812,0.963c0.943,9.237,1.348,19.094-0.698,28.353
								C166.262,259.122,165.992,259.727,165.729,260.333z"/>
						</g>
						<g>
							<g id="XMLID_38_">
								<path id="XMLID_41_" fill="#D085B2" d="M162.514,263.281c-14.399,15.299-40.498,23.522-65.247,27.51
									s-25.199,30.744-25.199,38.515c0,7.771,0,36.569,0,36.569h117.444v-77.967L162.514,263.281z"/>
								<polygon id="XMLID_40_" fill="#DADAD9" points="162.514,265.531 144.824,276.256 171.23,322.228 189.513,287.909 								
									"/>
								<polygon id="XMLID_39_" fill="#F2F0F0" points="162.514,263.281 144.824,276.256 171.23,319.978 189.513,287.909 								
									"/>
							</g>
							<g id="XMLID_34_">
								<path id="XMLID_37_" fill="#D085B2" d="M216.511,263.281c14.399,15.299,40.498,23.522,65.247,27.51
									s25.199,30.744,25.199,38.515c0,7.771,0,36.569,0,36.569H189.513v-77.967L216.511,263.281z"/>
								<polygon id="XMLID_36_" fill="#DADAD9" points="216.511,265.531 234.202,276.256 207.796,322.228 189.513,287.909 								
									"/>
								<polygon id="XMLID_35_" fill="#EDECEB" points="216.511,263.281 234.202,276.256 207.796,319.978 189.513,287.909 								
									"/>
							</g>
							<g id="XMLID_31_">
								<path id="XMLID_33_" fill="#D085B2" d="M129.884,282.72c-10.378,3.689-21.628,6.301-32.616,8.071
									c-24.749,3.988-25.199,30.744-25.199,38.515c0,7.771,0,36.569,0,36.569h117.444l-59.619-83.155L129.884,282.72z"/>
							</g>
							<g id="XMLID_27_">
								<path id="XMLID_30_" fill="#D085B2" d="M249.142,282.72c10.378,3.689,21.628,6.301,32.616,8.071
									c24.749,3.988,25.199,30.744,25.199,38.515c0,7.771,0,36.569,0,36.569H189.513l59.619-83.155L249.142,282.72z"/>
							</g>
						</g>
					</g>
					<g>
						<path fill="#BCB4A6" d="M186.841,112.621c10.509-6.559,11.162-23.544,5.922-31.527
							c-13.789-20.857-40.218-15.444-42.074,11.312c-0.888,12.064,7.38,18.844,15.262,25.005L186.841,112.621z"/>
						<path fill="#ABA397" d="M183.67,72.854c-33.492-11.137-39.49,28.939-16.257,43.732l10.862-2.14
							C168.604,101.841,160.262,78.014,183.67,72.854z"/>
						<path fill="#D3CBBE" d="M177.986,70.905c-34.622,2.881-22.991,40.375-8.611,44.972
							C161.687,106.587,146.712,80.802,177.986,70.905z"/>
						<path fill="#D3CBBE" d="M182.612,72.398c-29.398-0.035-19.431,42.362-7.304,42.524
							C167.62,105.633,159.034,77.835,182.612,72.398z"/>
						<path fill="#D3CBBE" d="M177.583,72.186c-25.254,5.367-17.186,34.948-5.636,43.545
							C164.036,106.496,153.781,77.678,177.583,72.186z"/>
						<path fill="#D3CBBE" d="M193.871,88.65c-1.502-7.223-7.351-15.77-16.876-13.003c5.949,9.945,2.276,27.182,1.396,38.297
							C189.575,113.148,196.011,99.511,193.871,88.65z"/>
						<path fill="#BCB4A6" d="M177.234,73.692c12.836,2.125,14.823,11.365,14.515,20.919l2.747-7.297
							c-0.598,17.209-6.179,22.581-15.319,25.966C190.402,101.81,188.013,81.052,177.234,73.692z"/>
						<path fill="#D3CBBE" d="M175.757,76.418c-7.149,18.548-4.739,17.732,0.965,36.505
							C177.109,100.742,176.77,88.498,175.757,76.418z"/>
					</g>
					<g>
						<g>
							<g>
								<g>
									<path fill="#8B6854" d="M144.231,210.368c2.225-10.698,0.431-20.727-4.485-29.295c-1.13-4.619-3.155-9.005-6.824-7.311
										c-2.998,1.384-4.573,4.084-5.078,7.429c0.255,3.864,1.171,7.673,1.95,11.506c0.07,0.248,0.142,0.498,0.2,0.742
										c0.805,3.397,1.073,6.87,1.737,10.3c0.801,4.14,1.82,7.79,5.184,9.654C139.605,214.883,143.428,214.232,144.231,210.368z"
										/>
									<path fill="#E9C6B0" d="M138.057,212.104c-4.639-1.274-5.245-7.805-5.824-12.129c-0.718-5.353-5.927-19.075-1.305-23.334
										c0.394-0.701,0.899-1.292,1.554-1.698c2.505-1.557,4.507,0.648,5.609,3.293c0.205,0.386,0.41,0.811,0.615,1.281
										c0.701,1.594,1.272,3.222,1.733,4.873c2.331,5.147,3.747,10.659,3.472,17.03
										C143.723,205.819,143.74,213.666,138.057,212.104z"/>
									<path fill="#ECCFBC" d="M138.057,212.104c-4.639-1.274-5.245-7.805-5.824-12.129c-0.718-5.353-5.927-19.075-1.305-23.334
										c0.394-0.701,0.899-1.292,1.554-1.698c2.505-1.557,4.507,0.648,5.609,3.293c0.205,0.386,0.41,0.811,0.615,1.281
										c0.701,1.594,1.272,3.222,1.733,4.873c2.331,5.147,3.747,10.659,3.472,17.03
										C143.723,205.819,143.74,213.666,138.057,212.104z"/>
									<path fill="#8B6854" d="M133.453,194.337c0.306,0.489,0.941,0.502,1.265,0.056c1.579-2.155,1.671-6.423,0.517-8.888
										c-0.334-0.714-1.255-1.839-1.976-2.019c-1.567-0.388-2.416,1.405-2.799,2.867c0.14-0.532-0.127-1.434-0.073-2.024
										c0.059-0.697,0.237-1.389,0.551-1.989c0.511-0.976,1.636-1.714,2.662-1.154c1.659,0.904,2.34,3.183,2.764,5.028
										c0.443,1.917,0.716,3.887,0.749,5.864c0.035,2.023-0.26,3.971-0.545,5.953c-0.019,0.147-0.036,0.297-0.057,0.442
										c-0.007,0.05-0.031,0.067-0.057,0.077c-0.221,0.991-0.491,1.929-0.817,2.772c-0.124,0.322-0.49-0.209-0.464-0.421
										c0.296-2.323,0.41-4.676,0.449-7.03c-0.177,0.763-0.446,1.824-1.012,2.078c-1.169,0.523-1.789-1.989-2.282-3.64
										C132.687,192.982,133.03,193.667,133.453,194.337z"/>
								</g>
								<g>
									<path fill="#8B6854" d="M239.003,213.393c3.366-1.864,4.383-5.515,5.187-9.654c0.664-3.43,0.932-6.902,1.737-10.3
										c0.057-0.244,0.13-0.495,0.197-0.742c0.781-3.833,1.696-7.641,1.953-11.506c-0.506-3.345-2.08-6.045-5.078-7.429
										c-3.672-1.696-5.695,2.691-6.825,7.311c-4.916,8.568-6.711,18.596-4.485,29.295
										C232.491,214.232,236.313,214.883,239.003,213.393z"/>
									<path fill="#E9C6B0" d="M232.006,201.42c-0.272-6.372,1.144-11.884,3.474-17.03c0.462-1.652,1.032-3.279,1.733-4.873
										c0.207-0.471,0.411-0.895,0.615-1.281c1.105-2.645,3.106-4.85,5.611-3.293c0.652,0.407,1.158,0.998,1.552,1.698
										c4.624,4.26-0.585,17.982-1.303,23.334c-0.58,4.325-1.187,10.855-5.823,12.129
										C232.18,213.666,232.197,205.819,232.006,201.42z"/>
									<path fill="#ECCFBC" d="M232.006,201.42c-0.272-6.372,1.144-11.884,3.474-17.03c0.462-1.652,1.032-3.279,1.733-4.873
										c0.207-0.471,0.411-0.895,0.615-1.281c1.105-2.645,3.106-4.85,5.611-3.293c0.652,0.407,1.158,0.998,1.552,1.698
										c4.624,4.26-0.585,17.982-1.303,23.334c-0.58,4.325-1.187,10.855-5.823,12.129
										C232.18,213.666,232.197,205.819,232.006,201.42z"/>
									<path fill="#8B6854" d="M242.467,194.337c-0.308,0.489-0.941,0.502-1.265,0.056c-1.579-2.155-1.672-6.423-0.518-8.888
										c0.334-0.714,1.255-1.839,1.976-2.019c1.566-0.388,2.417,1.405,2.798,2.867c-0.137-0.532,0.127-1.434,0.073-2.024
										c-0.059-0.697-0.237-1.389-0.55-1.989c-0.511-0.976-1.635-1.714-2.663-1.154c-1.659,0.904-2.337,3.183-2.764,5.028
										c-0.443,1.917-0.715,3.887-0.748,5.864c-0.035,2.023,0.258,3.971,0.544,5.953c0.021,0.147,0.038,0.297,0.059,0.442
										c0.006,0.05,0.031,0.067,0.054,0.077c0.223,0.991,0.493,1.929,0.816,2.772c0.124,0.322,0.493-0.209,0.465-0.421
										c-0.294-2.323-0.41-4.676-0.45-7.03c0.177,0.763,0.449,1.824,1.013,2.078c1.17,0.523,1.789-1.989,2.281-3.64
										C243.232,192.982,242.887,193.667,242.467,194.337z"/>
								</g>
								<g>
									<path fill="#E9C6B0" d="M241.681,152.077c-0.216-7.188-0.075,10.175-0.902,3.037c-0.086-5.697-0.234-11.892-2.959-16.681
										c-2.856-5.025-7.893-8.151-12.352-10.634c-12.056-6.71-24.93-9.915-38.123-11.081c-10.671-0.941-20.577,0.346-30.24,6.219
										c-6.7,4.071-12.697,10.334-16.018,18.383c-0.05-0.135-0.249-0.153-0.299,0.031c-0.265,0.944-0.514,1.891-0.748,2.837
										c-0.467,1.474-0.851,3-1.127,4.58c-0.018,0.098,0.015,0.165,0.059,0.218c-0.918,4.669-1.494,9.403-1.696,14.29
										c-0.353,8.47-0.287-7.601-0.196,0.872c0.032,3.03,0.048,6.062,0.063,9.093c1.245,6.868,0.533,15.195,0.495,22.079
										c-0.021,3.678-0.133,7.392-0.156,11.101c0.136,2.41,0.353,4.81,0.716,7.19c2.139,14.138,10.41,25.205,20.851,31.725
										c2.598,1.621,18.385,14.911,35.367,13.384c9.948-4.272,18.752-12.145,27.813-19.239c3.687-3.252,7.283-6.937,9.858-11.476
										c2.848-5.016,4.577-10.585,5.627-16.502c0.285-1.617,0.5-3.245,0.689-4.878c-0.124-9.904,0.646-20.15,1.405-29.988
										c-0.021,0.041-0.044,0.081-0.062,0.122c0.033-0.581,0.07-1.163,0.112-1.744
										C240.411,167.236,241.915,159.946,241.681,152.077z"/>
									<path fill="#ECCFBC" d="M241.681,152.077c-0.216-7.188-0.075,10.175-0.902,3.037c-0.086-5.697-0.234-11.892-2.959-16.681
										c-2.856-5.025-7.893-8.151-12.352-10.634c-12.056-6.71-24.93-9.915-38.123-11.081c-10.671-0.941-20.577,0.346-30.24,6.219
										c-6.7,4.071-12.697,10.334-16.018,18.383c-0.05-0.135-0.249-0.153-0.299,0.031c-0.265,0.944-0.514,1.891-0.748,2.837
										c-0.467,1.474-0.851,3-1.127,4.58c-0.018,0.098,0.015,0.165,0.059,0.218c-0.918,4.669-1.494,9.403-1.696,14.29
										c-0.353,8.47-0.287-7.601-0.196,0.872c0.032,3.03,0.048,6.062,0.063,9.093c1.245,6.868,0.533,15.195,0.495,22.079
										c-0.021,3.678-0.133,7.392-0.156,11.101c0.136,2.41,0.353,4.81,0.716,7.19c2.139,14.138,10.41,25.205,20.851,31.725
										c2.598,1.621,18.385,14.911,35.367,13.384c9.948-4.272,18.752-12.145,27.813-19.239c3.687-3.252,7.283-6.937,9.858-11.476
										c2.848-5.016,4.577-10.585,5.627-16.502c0.285-1.617,0.5-3.245,0.689-4.878c-0.124-9.904,0.646-20.15,1.405-29.988
										c-0.021,0.041-0.044,0.081-0.062,0.122c0.033-0.581,0.07-1.163,0.112-1.744
										C240.411,167.236,241.915,159.946,241.681,152.077z M228.329,221.968c-4.367,7.781-10.241,13.805-16.439,19.402
										c-6.462,5.835-13.962,12.018-22.291,12.761c-8.225,0.733-16.643-3.484-23.661-8.301
										c-6.854-4.706-14.207-10.717-18.982-18.423c-8.8-14.2-8.521-34.405-4.961-50.824c0.177-0.814-1.157-20.799-0.952-20.066
										c0.564,2.013-1.475-10.224-0.689-8.361c-0.029-14.419,12.535-15.317,22.35-22.542c6.149-4.524,13.384,0.389,19.933-3.231
										c4.345-2.402,12.69,6.421,16.565,2.993c4.028-3.561,12.854,10.305,16.122,5.917c0.32-0.428,9.367,6.025,9.449,6.614
										c1.207,8.682,2.492,3.397,5.972,11.228c3.417,7.686-0.812,6.805,3.293,13.946c4.966,8.639,0.961,19.318,0.906,30.084
										C234.895,203.187,233.046,213.562,228.329,221.968z"/>
									<path fill="#8F6A55" d="M241.681,152.077c-0.216-7.188-0.075,10.175-0.902,3.037c-0.086-5.697-0.234-11.892-2.959-16.681
										c-2.856-5.025-7.893-8.151-12.352-10.634c-12.056-6.71-24.93-9.915-38.123-11.081c-10.671-0.941-20.577,0.346-30.24,6.219
										c-6.7,4.071-12.697,10.334-16.018,18.383c-0.05-0.135-0.249-0.153-0.299,0.031c-0.265,0.944-0.514,1.891-0.748,2.837
										c-0.467,1.474-0.851,3-1.127,4.58c-0.018,0.098,0.015,0.165,0.059,0.218c-0.918,4.669-1.494,9.403-1.696,14.29
										c-0.353,8.47-0.287-7.601-0.196,0.872c0.032,3.03,0.048,6.062,0.063,9.093c1.245,6.868,0.533,15.195,0.495,22.079
										c-0.021,3.678-0.133,7.392-0.156,11.101c0.136,2.41,0.353,4.81,0.716,7.19c2.139,14.138,10.41,25.205,20.851,31.725
										c3.254,2.033,17.075,13.63,27.73,14.084c1.908,0.081,5.669,0.103,7.504-0.68c10-4.262,18.847-12.136,27.947-19.259
										c3.687-3.252,7.283-6.937,9.858-11.476c2.848-5.016,4.577-10.585,5.627-16.502c0.285-1.617,1.189-6.65,1.377-8.285
										c-0.114-9.218-0.144-15.331,0.56-24.538c0.006-0.115,0.006-0.23,0.013-0.346c0.006-0.011,0.01-0.022,0.016-0.033
										c0.044-0.558,0.086-1.109,0.13-1.666c-0.021,0.041-0.044,0.081-0.062,0.122c0.033-0.581,0.07-1.163,0.112-1.744
										C240.411,167.236,241.915,159.946,241.681,152.077z M239.148,171.568c-1.236,10.201-0.71,20.585-1.428,30.849
										c-0.056,0.133-0.074,0.285-0.036,0.44c-0.092,1.233-0.188,2.466-0.32,3.696c-0.63,5.843-1.904,11.559-4.136,16.821
										c-2.595,6.116-6.783,10.695-11.263,14.803c-4.455,4.085-9.278,7.582-14.068,11.063c-5.104,3.708-10.79,8.211-16.723,9.149
										c-1.863-0.008-3.682-0.382-5.629-0.485c-10.434-0.552-34.748-18.308-39.063-26.089c-3.839-6.925-6.648-13.647-7.495-21.831
										c-0.743-7.223-0.481-14.56-0.58-21.819c-0.114-8.452-0.084-16.904-0.19-25.354c-0.096-7.704-0.054,9.226,0.012,1.509
										c0.056-6.202,0.756-12.365,1.924-18.4c3.16-9.785,9.82-17.035,17.564-21.817c9.05-5.588,18.647-6.766,28.647-6.004
										c12.65,0.962,24.675,4.036,36.386,9.877c4.629,2.308,9.264,5.143,12.808,9.482c4.328,5.298,3.369,12.766,4.43,19.46
										c0.022,0.144,0.087,0.24,0.17,0.293c0.403,5.217,0.097-14.153,0.37-8.922C240.942,156.27,240.102,163.706,239.148,171.568z
										"/>
								</g>
							</g>
							<g>
								<g>
									<g>
										<g>
											<path fill="#AB8C77" d="M148.158,189.129l0.08-1.007c-0.157-0.014-3.842-0.276-6.061,2.11l0.291,0.271
												C144.583,188.663,148.126,189.126,148.158,189.129z"/>
										</g>
										<g>
											<path fill="#AB8C77" d="M148.837,191.092l-0.219-0.986c-0.152,0.034-3.753,0.865-5.175,3.795l0.36,0.173
												C145.278,191.695,148.804,191.097,148.837,191.092z"/>
										</g>
									</g>
								</g>
								<g>
									<g>
										<g>
											<path fill="#AB8C77" d="M227.865,189.129l-0.078-1.007c0.154-0.014,3.839-0.276,6.062,2.11l-0.292,0.271
												C231.44,188.663,227.897,189.126,227.865,189.129z"/>
										</g>
										<g>
											<path fill="#AB8C77" d="M227.189,191.092l0.217-0.986c0.15,0.034,3.753,0.865,5.175,3.795l-0.361,0.173
												C230.746,191.695,227.221,191.097,227.189,191.092z"/>
										</g>
									</g>
								</g>
							</g>
							<g>
								<g>
									<path fill="#9C9589" d="M125.939,145.26c1.224-7.419,3.3-15.687,6.8-22.932c1.893-3.333,4.078-6.42,6.84-9.039
										c1.92-1.822,3.928-3.537,5.869-5.332c0.676-0.431,1.354-0.857,2.034-1.284c5.434-2.903,11.256-4.552,17.327-4.365
										c4.42-2.211,8.907-3.915,14.067-4.673c8.203-1.204,16.614-0.295,24.647,1.618c12.258,2.92,23.387,10.123,32.504,19.111
										c1.446,1.427,2.827,2.952,4.168,4.522c1.145,1.922,2.356,3.804,3.266,5.865c1.619,3.668,3.008,7.483,4.374,11.261
										c0.065,0.179,0.123,0.359,0.187,0.54c0.645,3.296,1.786,6.468,2.219,9.823c0.557,4.309,0.885,7.122,0.904,11.457
										c0,2.033-0.149,2.656-0.55,6.006c-0.077,1.557-1.254,3.515-1.889,4.579c-2.295,3.844-5.511,6.136-7.957,9.778
										c-0.77,1.145-2.056,2.345-2.622,3.636c-0.695-1.807-1.422-3.656-2.114-5.397c-0.478,1.68-0.983,3.368-1.495,5.08
										c-0.17,1.476-0.424,2.949-0.715,4.418c-0.069,1.027-0.114,2.058-0.173,3.087c-0.517,2.676-1.033,5.349-1.385,8.053
										c-0.112-0.142-0.19-0.301-0.194-0.445c-0.204-7.321-0.392-14.884-1.995-22.031c-0.227-1.012-0.572-2.038-0.966-3.074
										c-0.033,2.183-0.501,4.229-1.597,5.958c-0.284,0.448-1.076-0.373-0.907-0.798c0.08-0.2,0.145-0.41,0.209-0.62
										c-0.145-0.102-0.274-0.241-0.308-0.389c-4.282-17.098-23.442-23.361-40.483-33.59c-1.343-0.806-3.406-2.538-4.418-3.128
										c-2.36-1.482-4.745-2.544-6.861-2.031c-1.793,0.435-3.119,0.515-5.269,2.031c-6.925,4.796-8.075,11.711-10.892,17.227
										c-5.902,11.559-14.112,19.709-14.193,33.56c-0.003,0.649-1.936-4.679-2.297-6.939c-0.012,0.126-0.036,0.251-0.045,0.378
										c-0.176,0.998-0.331,2.007-0.481,3.022c-0.487-1.754-1.193-3.441-1.913-5.12c-0.132-0.44-0.266-0.863-0.401-1.292
										c-0.203-1.464-0.322-2.903-1.845-2.38c-1.357,0.465-1.158,0.194-3.046,0.358c-0.034-0.076-1.941-0.781-1.976-0.858
										c-1.655-3.649-2.366-4.418-3.936-8.133c-0.941-2.643-1.567-4.416-2.278-6.387c-0.727-5.051-1.171-8.736-1.171-14.962
										C125.284,149.377,125.599,147.319,125.939,145.26z"/>
									<path fill="#D3CBBE" d="M128.397,138.995c1.147-6.406,3.194-12.639,6.438-18.048c0.616-1.027,1.295-1.982,2.022-2.884
										c0.448-0.783,0.914-1.557,1.404-2.321c7.165-6.65,14.823-11.236,23.523-12.204c0.298-0.057,0.599-0.096,0.899-0.134
										c-0.458,0.246-0.918,0.505-1.377,0.759c4.982-2.281,10.33-3.771,15.559-5.039c3.379-0.818,7.397-1.139,11.127-0.462
										c5.325,0.063,10.635,0.721,15.816,2.136c10.843,2.963,21.013,8.6,29.388,16.478c0.375,0.318,0.763,0.616,1.13,0.944
										c2.304,2.058,5.074,4.66,6.657,7.687c0.264,0.341,0.538,0.673,0.797,1.016c1.296,3.612,4.306,10.273,4.74,11.552
										c2.79,8.239,4.441,16.191,3.885,24.952c-0.119,1.86-0.17,1.899-0.265,3.718c0.017,1.386-1.333,4.038-1.847,4.899
										c-2.295,3.844-5.725,6.473-8.172,10.115c-0.342,0.509-0.657,1.04-0.959,1.58c-0.778-2.048-1.573-4.091-2.379-6.133
										c1.347-5.212,2.211-10.407,1.716-15.98c-0.066-3.012-0.394-6.203-1.607-8.671c0.32,1.181,0.695,2.369,0.812,3.48
										c0.357,3.347,0.326,6.817,0.204,10.176c-0.244,6.704-3.16,12.494-4.508,18.925c-0.125,0.601-1.059,0.636-1.162,0
										c-0.628-3.909-1.336-7.789-2.192-11.628c-0.474-1.105-0.994-2.188-1.511-3.27c-1.214-5.481-4.198-11.068-6.574-14.459
										c-2.045-2.917-4.277-5.551-6.641-8.01c1.429,1.922,2.747,3.927,3.957,6.004c0.994,1.543,1.892,3.148,2.67,4.817
										c1.221,2.021,2.297,4.132,3.12,6.364c1.325,3.593,2.775,9.19,2.035,13.437c-2.621-11.018-13.03-17.769-21.914-22.752
										c-7.312-4.099-15.124-7.592-21.934-12.611c-5.27-3.884-11.413-9.116-14.478-15.553c-0.499-0.815-0.921-1.668-1.307-2.538
										c0.368,1.908,0.802,3.794,0.591,5.76c-0.415,3.878-1.792,7.878-2.941,11.568c-1.822,5.845-4.618,11.282-7.721,16.489
										c-3.612,6.616-7.992,12.743-11.127,19.65c-1.413,3.116-2.585,6.383-2.761,9.853c-0.136-0.994-2.299-14.574-1.275-20.465
										c0.521-2.997,1.375-5.948,2.329-8.816c0.108-0.322,0.227-0.636,0.347-0.949c-3.353,7.385-4.169,15.925-3.379,24.197
										c-0.114,0.618-0.241,1.231-0.343,1.852c-0.068,0.413-0.516,0.545-0.837,0.405c0.077-0.032,0.122-0.112,0.08-0.279
										c-2.188-8.711-5.372-17.005-4.524-26.238c0.668-7.271,3.316-13.528,5.389-20.282c-0.319,0.751-0.599,1.483-0.855,2.106
										c-1.299,3.159-2.689,6.251-3.709,9.53c-1.82,5.853-2.063,11.905-1.924,17.975c0.317,2.155,0.735,4.291,1.278,6.398
										c0.073,0.301,0.131,0.609,0.209,0.911c0.015,0.027,0.03,0.053,0.045,0.08c0.161,0.588,0.353,1.17,0.53,1.755
										c0.054,1.482,0.142,1.973-0.359,3.654c-0.003,0.006-1.382,0.138-2.167,0.498c-0.034-0.076-1.406-0.587-1.441-0.663
										c-1.655-3.649-2.546-4.371-4.116-8.086c-0.757-2.129-1.099-3.947-1.866-6.073c-0.193-3.615-0.797-7.083-1.128-10.686
										C126.527,149.915,126.982,144.36,128.397,138.995z"/>
									<path fill="#BEB5A7" d="M132.229,175.114c0.221-6.926,0.997-10.231,1.74-16.826c0.848-7.532,2.777-15.38,6.305-22.037
										c1.997-3.765,4.826-6.771,7.618-9.834c-2.068,3.889-3.697,7.987-4.932,12.215c-3.913,9.879-5.351,20.99-3.951,31.44
										c0.006,0.053,0.01,0.108,0.019,0.161c0.105,0.77,1.115,0.496,1.18-0.161c0.181-1.82,0.51-3.589,0.936-5.323
										c0.122-0.07,0.216-0.197,0.244-0.393c0.084-0.558,0.204-1.101,0.31-1.65c1.65-5.564,4.301-10.763,6.876-15.977
										c-0.854,3.746-1.321,7.569-1.366,11.321c-0.005,0.432,0.343,0.651,0.671,0.609c0.471-1.553,0.971-3.089,1.47-4.601
										c0.55-1.668,1.125-3.517,1.798-5.33c0.883-1.34,1.79-2.661,2.729-3.955c-2.322,6.722-3.88,13.67-5.803,20.496
										c-0.103,0.909-0.197,1.82-0.264,2.735c-0.045,0.618,0.66,0.755,1.024,0.449c2.938-2.451,4.671-6.131,6.194-9.664
										c0.728-1.688,1.509-3.351,2.294-5.014c5.434-9.653,11.43-14.971,12.305-26.164c5.07,6.08,7.632,6.45,13.501,11.685
										c6.385,5.694,13.858,10.857,22.489,10.916c0.297,0.003,0.5-0.239,0.564-0.512c-0.92-0.948-1.795-1.943-2.652-2.915
										c-0.541-0.615-1.096-1.225-1.639-1.844c-6.713-5.677-12.96-12.212-17.166-19.425c-0.211-0.361,0.19-0.431,0.382-0.171
										c2.961,4.006,6.88,7.52,10.771,10.834c2.451,1.812,4.783,3.853,7.17,5.698c2.691,2.079,5.475,4.283,8.873,4.681
										c0.431,0.051,0.77-0.578,0.522-0.949c-2.562-3.825-6.469-6.819-9.985-9.787c4.184,2.34,8.524,4.544,12.344,7.523
										c2.061,1.608,4.039,3.334,5.692,5.416c1.358,1.714,2.649,3.462,4.309,4.868c-0.777-2.593-1.718-5.102-3.288-7.645
										c-2.989-4.847-7.295-8.499-11.633-11.906c-0.209-0.165-0.257-0.696,0.108-0.498c4.539,2.489,10.423,7.324,14.295,13.034
										c5.164,5.674,8.8,12.376,10.13,20.757c3.327-26.926-18.092-43.21-39.849-50.662c1.416,0.237,2.832,0.491,4.229,0.83
										c3.771,0.917,7.47,2.324,11.031,3.914c1.026,0.458,2.028,0.963,3.038,1.456c3.614,2.058,7.054,4.455,10.252,7.149
										c7.341,6.182,13.588,13.95,16.246,23.638c2.365,8.619,1.041,17.555,2.459,26.241c-0.594,0.709-1.169,1.438-1.694,2.22
										c-0.342,0.509-0.657,1.04-0.959,1.58c-0.778-2.048-1.573-4.091-2.379-6.133c1.347-5.212,2.211-10.407,1.716-15.98
										c-0.066-3.012-0.394-6.203-1.607-8.671c0.32,1.181,0.695,2.369,0.812,3.48c0.357,3.347,0.326,6.817,0.204,10.176
										c-0.244,6.703-3.16,12.494-4.508,18.925c-0.125,0.601-1.059,0.636-1.162,0c-0.628-3.909-1.336-7.789-2.192-11.628
										c-0.474-1.105-0.994-2.188-1.511-3.27c-1.214-5.481-4.198-11.068-6.574-14.459c-2.045-2.917-4.277-5.551-6.641-8.01
										c1.429,1.922,2.747,3.927,3.957,6.004c0.994,1.543,1.892,3.148,2.67,4.817c1.221,2.021,2.297,4.132,3.12,6.364
										c1.325,3.593,2.775,9.19,2.035,13.437c-2.621-11.018-13.03-17.77-21.914-22.752c-7.312-4.099-15.124-7.592-21.934-12.611
										c-5.27-3.884-7.428-4.592-14.233-0.969c-4.974,3.319-8.521,11.488-11.624,16.695c-3.612,6.616-7.992,12.743-11.127,19.651
										c-1.413,3.116-2.585,6.383-2.761,9.853c-0.136-0.994-2.299-14.574-1.275-20.465c0.521-2.997,1.375-5.948,2.329-8.816
										c0.108-0.322,0.227-0.636,0.348-0.949c-3.353,7.385-4.169,15.925-3.379,24.197c-0.114,0.618-0.241,1.231-0.343,1.852
										c-0.068,0.413-0.516,0.545-0.837,0.405c0.077-0.032,0.122-0.112,0.08-0.279c-2.188-8.711-5.372-17.005-4.524-26.238
										c0.668-7.271,3.317-13.528,5.389-20.282c-0.319,0.751-0.599,1.483-0.855,2.106c-1.299,3.159-2.689,6.251-3.709,9.53
										c-1.82,5.853-2.063,11.905-1.924,17.975c0.317,2.156,0.735,4.291,1.278,6.398c0.073,0.301,0.131,0.609,0.209,0.911
										c0.015,0.027,0.03,0.053,0.045,0.08c0.161,0.588,0.353,1.17,0.53,1.755c0.054,1.482,0.142,0.786-0.358,2.469
										c-0.003,0.006-1.754,0.688-1.755,0.694c-1.004-0.694-1.142-0.812-1.888-2.388
										C132.98,177.227,132.125,175.504,132.229,175.114z"/>
									<path fill="#BEB5A7" d="M125.768,155.194c0.735-5.571,1.214-10.834,2.63-16.199c1.147-6.406,3.194-12.639,6.438-18.048
										c0.616-1.027,1.295-1.982,2.022-2.884c0.448-0.783,0.914-1.557,1.404-2.321c7.165-6.65,14.823-11.236,23.523-12.204
										c0.298-0.057,0.599-0.096,0.899-0.134c-0.458,0.246-0.918,0.505-1.377,0.759c4.982-2.281,10.33-3.771,15.559-5.039
										c3.379-0.818,7.397-1.139,11.127-0.462c2.123,0.024,4.241,0.174,6.352,0.401c-8.44-0.41-17.442,0.495-24.625,5.21
										c1.774-0.056,3.555-0.001,5.235-0.01c5.08-0.027,10.114,0.248,15.17,0.765c7.005,0.713,13.895,2.268,19.767,6.17
										c-1.344-0.563-2.705-1.035-4.163-1.453c-4.786-1.373-9.577-1.964-14.417-2.224c-4.006-0.488-8.038-0.704-12.065-0.842
										c-1.213,0.13-2.427,0.306-3.64,0.558c-0.936,0.195-1.906,0.41-2.889,0.641c1.827,0.975,3.548,2.158,5.112,3.372
										c-1.222-0.634-2.511-1.133-3.725-1.552c-3.343-1.153-7.238-2.491-10.798-2.285c-5.729,0.33-11.134,6.022-14.244,11.661
										c1.257-2.876,3.079-5.446,4.972-8.022c0.398-0.544-0.084-1.361-0.722-1.002c-4.011,2.255-7.524,5.178-10.517,8.601
										c-7.862,7.105-12.836,18.123-14.858,28.613c-1.118,5.792-1.227,9.131-1.682,14.992
										C126.086,159.179,126.05,158.265,125.768,155.194z"/>
									<path opacity="0.3" fill="#D1C9BC" enable-background="new    " d="M169.018,128.357
										c4.942,7.452,12.637,13.338,20.065,16.997c11.323,5.577,24.472,7.088,32.759,18.021c0.381,0.503,1.169-0.033,1.004-0.611
										c-0.968-3.397-2.428-6.5-4.118-9.469c0.178,0.297,0.373,0.582,0.546,0.881c0.994,1.543,1.892,3.148,2.67,4.817
										c1.221,2.021,2.297,4.132,3.12,6.364c1.325,3.593,2.775,9.19,2.035,13.437c-2.621-11.018-13.03-17.769-21.914-22.752
										c-7.312-4.099-15.124-7.592-21.934-12.611C178.113,139.645,172.154,134.575,169.018,128.357z"/>
									<path opacity="0.3" fill="#D1C9BC" enable-background="new    " d="M152.628,166.109c2.807-4.396,5.465-8.92,7.712-13.668
										c3.829-8.089,6.583-16.784,7.376-25.79c0.278,1.468,0.503,2.936,0.341,4.451c-0.415,3.878-1.792,7.878-2.941,11.568
										c-1.822,5.845-4.618,11.282-7.721,16.489c-3.612,6.616-7.992,12.743-11.127,19.651c-1.413,3.116-2.585,6.383-2.761,9.853
										c-0.136-0.994-2.299-14.574-1.275-20.465c0.375-2.162,0.929-4.299,1.564-6.399c0.452-0.846,0.927-1.684,1.411-2.516
										c-0.419,1.504-0.839,3.01-1.139,4.545c-0.841,4.293-0.815,8.947,0.061,13.24c0.103,0.505,0.68,0.583,1.004,0.287
										c1.502-1.363,2.366-3.183,3.414-4.927C149.838,170.275,151.279,168.221,152.628,166.109z"/>
									<path opacity="0.3" fill="#D1C9BC" enable-background="new    " d="M140.358,172.773c0.177-3.677,1.374-6.921,2.938-10.013
										c-1.964,6.297-2.405,13.166-1.765,19.867c-0.114,0.618-0.241,1.231-0.343,1.852c-0.068,0.413-0.516,0.545-0.837,0.405
										c0.077-0.032,0.122-0.112,0.08-0.279c-2.188-8.711-5.372-17.005-4.524-26.238c0.019-0.201,0.054-0.394,0.075-0.593
										c0.125,5.344,1.061,10.594,3.254,15.312C139.518,173.693,140.329,173.369,140.358,172.773z"/>
									<path fill="#D3CBBE" d="M216.137,149.053c-0.9-1.393-1.825-2.773-2.746-4.155c10.156,7.378,18.803,16.896,19.676,30.417
										c0.031,0.496,0.662,0.913,1.024,0.449c2.694-3.46,3.418-8.747,3.889-13.2c-0.001,1.358-0.026,2.712-0.074,4.048
										c-0.244,6.704-3.16,12.494-4.508,18.925c-0.125,0.601-1.059,0.636-1.162,0c-0.628-3.909-1.336-7.789-2.192-11.628
										c-0.474-1.105-0.994-2.188-1.511-3.27c-1.214-5.481-4.198-11.068-6.574-14.459
										C220.154,153.606,218.196,151.26,216.137,149.053z"/>
								</g>
								<path fill="#BCB4A6" d="M223.517,122.576c6.221,3.951,12.963,12.907,12.723,12.288
									c-4.292-11.023-13.541-19.105-23.204-24.717c-5.16-2.997-10.557-5.581-16.28-7.108c-4.36-1.163-8.786-1.929-13.23-2.554
									c3.434-0.174,7.024-0.144,10.458,0.509c18.116,1.757,32.987,12.254,43.997,28.131c2.826,4.075,3.859,7.576,5.401,12.348
									c2.008,9.052,4.519,18.981,4.365,28.34c-0.017,1.072-1.832,4.093-1.834,3.384c-0.02-5.409-0.486-10.758-1.133-16.105
									c0.284,5.014,0.096,9.987-0.742,14.309c-0.13,0.673-0.922,0.013-0.938-0.432c-0.495-14.23-4.581-29.87-14.332-40.187
									c-11.1-11.741-27.12-16.296-41.963-19.31c-0.098-0.02-0.209-0.107-0.308-0.218c1.493-0.299,3.004-0.523,4.524-0.674
									C202.785,111.314,214.2,115.489,223.517,122.576z"/>
								<path fill="#BCB4A6" d="M154.168,151.489c0.008-0.048,0.019-0.097,0.029-0.147c1.809-6.597,2.488-13.126,3.381-19.897
									c-1.599,3.901-3.075,8.37-6.267,10.377c-0.341,0.215-0.746-0.319-0.821-0.606c-0.293-1.139-0.376-2.467-0.311-3.889
									c-2.255,5.337-4.014,10.834-6.188,16.216c1.31-7.448,2.418-15.017,4.644-22.181c1.407-4.529,3.718-8.916,6.417-12.74
									c1.48-2.1,3.178-5.521,5.618-6.671c-3.317,5.462-6.514,11.733-6.588,18.141c-0.007,0.569,0.652,0.824,1.024,0.449
									c1.941-1.954,3.021-4.489,4.144-7.006c0.003,2.963-0.05,5.924-0.167,8.886c-0.03,0.761,0.967,0.81,1.18,0.161
									c1.066-3.237,1.692-6.564,2.112-9.959c0.181-1.465,0.251-3.031,0.397-4.575c0.13-0.834,0.237-1.643,0.326-2.404
									c0.114-0.604,0.248-1.198,0.432-1.765c0.382-1.183,1.146-1.428,2.079-1.19c0.466,0.357,0.857,0.719,0.949,0.802
									c1.169,1.052,2.349,2.095,3.539,3.12c1.532,1.315,2.993,2.7,4.505,4.033c0.763,0.672,3.685,3.782,4.69,1.961
									c0.966-1.747-0.975-4.123-1.908-5.388c-1.376-1.869-3.143-3.559-4.578-5.431c3.043,1.287,5.982,3.247,8.75,4.976
									c2.241,1.398,4.573,3.038,7.228,3.269c0.496,0.043,0.833-0.745,0.424-1.085c-0.55-0.456-4.284-3.086-7.125-5.19
									c0.901,0.282,1.812,0.542,2.729,0.782c3.125,1.566,6.415,2.557,9.682,3.733c2.585,0.931,5.201,2.061,7.772,3.344
									c3.991,1.761,7.843,4.164,11.103,6.426c3.146,2.183,7.124,5.045,10.358,8.368c1.61,2.085,3.044,4.314,4.282,6.685
									c-1.669-1.922-3.746-3.48-5.785-4.917c-2.651-1.871-5.328-3.647-8.126-5.203c-5.197-3.455-10.853-6.117-16.487-8.641
									c-0.932-0.417-1.861-0.842-2.788-1.267c4.921,3.58,9.476,7.807,14.311,11.42c0.3,0.225,0.576,0.829,0.483,1.191
									c-2.159-0.253-4.418-1.28-6.301-1.945c-0.788-0.279-1.566-0.58-2.349-0.87c-1.988-1.063-3.924-2.259-5.812-3.432
									c-4.215-2.003-7.946-5.126-12.044-7.392c-2.623-1.449,0.818,4.48,0.663,4.264c1.03,1.451,1.961,2.979,2.906,4.491
									c2.393,3.818,5.28,7.217,8.137,10.646c0.078,0.094,0.15,0.251,0.193,0.41c-0.657-0.14-1.31-0.292-1.953-0.512
									c-1.737-0.595-3.413-1.414-5.011-2.359c-2.849-2.156-5.434-4.871-7.84-7.247c-0.961-0.948-1.846-1.954-2.696-2.988
									c-2.154-1.927-4.17-4.061-6.062-6.195c-1.753-1.977-3.785-4.06-5.401-6.344c0.536,4.638-0.613,10.344-1.452,14.035
									c-2.021,8.908-5.558,18.599-10.822,25.951c-0.188,0.262-0.528,0.053-0.722-0.234
									C153.513,154.497,153.902,153.008,154.168,151.489z"/>
								<path fill="#BCB4A6" d="M131.238,165.218c0.001,1.471,0.005,2.944-0.009,4.417c-1.167-1.283-1.686-1.841-1.917-2.49
									c-0.409-3.168-0.876-2.102-0.644-5.054c0.144-1.844,0.276-3.693,0.428-5.542c0.472-3.718,1.015-7.43,1.751-11.124
									c1.229-6.17,3.445-11.376,6.435-16.056c1.615-2.377,3.436-4.575,5.443-6.595c-4.665,7.103-8.288,15.05-9.908,23.431
									C131.608,152.463,131.23,158.841,131.238,165.218z"/>
							</g>
						</g>
					</g>
					<g>
						<g>
							<g>
								<g>
									<path fill="#A19B94" d="M222.419,170.345c-0.98-0.935-2.099-1.672-3.351-2.058c-2.922-1.218-6.368-1.448-9.932-0.756
										c-2.614,0.509-10.922,3.07-13.904,6.609c-0.023,0.326-0.004,0.641,0.029,0.955c0.257,0.934,0.701,1.848,1.306,2.596
										c5.51-3.201,10.156-6.474,16.876-6.05c4.735,0.299,9.635,1.595,12.93,4.873
										C225.535,173.882,224.158,171.845,222.419,170.345z"/>
									<path fill="#B8B0AD" d="M218.861,170.624c-4.895-2.158-9.776-1.223-14.5,0.883c-1.803,0.803-3.725,1.606-5.242,2.903
										c-0.697,0.596-1.496,1.449-2.372,1.797c-0.357,0.142-0.692,0.168-1.015,0.145c0.228,0.484,0.507,0.935,0.835,1.34
										c5.51-3.201,10.156-6.474,16.876-6.05c3.608,0.228,7.308,1.042,10.326,2.865
										C222.4,172.935,220.895,171.521,218.861,170.624z"/>
								</g>
								<path fill="#A19B94" d="M213.437,170.995c-3.093,0.301-5.93-0.52-8.85,0.48c-2.437,0.835-6.53,5.023-9.083,4.359
									c0.299,0.779,0.724,1.516,1.272,2.115c0.288,0.146,0.609,0.221,0.975,0.177c2.017-0.596,4.385-1.924,5.678-2.355
									c7.923-2.638,15.095-4.402,22.18,1.245c0.228,0.182,0.634-0.182,0.526-0.439
									C224.042,171.569,218.276,170.521,213.437,170.995z"/>
							</g>
							<g>
								<g>
									<path fill="#A19B94" d="M178.916,176.283c0.212-0.397,0.44-0.926,0.567-1.467c0.013-0.221,0.017-0.445,0.001-0.675
										c-2.982-3.54-11.289-6.101-13.902-6.609c-3.564-0.692-7.012-0.463-9.935,0.756c-1.253,0.387-2.37,1.123-3.349,2.058
										c-1.742,1.5-3.117,3.536-3.954,6.168c3.294-3.277,8.195-4.572,12.93-4.873c6.475-0.409,11.026,2.615,16.276,5.702
										C178.09,177.085,178.643,176.794,178.916,176.283z"/>
									<path fill="#B8B1AD" d="M178.849,176.365c-0.282-0.001-0.573-0.036-0.881-0.158c-0.874-0.347-1.677-1.201-2.372-1.797
										c-1.516-1.296-3.441-2.098-5.242-2.903c-4.724-2.105-9.606-3.041-14.501-0.883c-2.035,0.897-3.539,2.31-4.906,3.882
										c3.016-1.823,6.717-2.636,10.326-2.865c6.475-0.409,11.026,2.615,16.276,5.702
										C178.057,177.102,178.561,176.82,178.849,176.365z"/>
								</g>
								<path fill="#A19B94" d="M160.706,170.995c2.953,0.301,5.664-0.52,8.449,0.48c2.759,0.989,7.747,6.717,9.864,3.459
									c0.157-0.241,0.685,0.274,0.449,0.47c-0.082,0.068-0.161,0.135-0.243,0.204c-0.074,0.061-0.188-0.035-0.199-0.117
									c0.768,5.944-6.207,1.172-8.765,0.28c-7.567-2.638-14.415-4.402-21.18,1.245c-0.221,0.182-0.606-0.182-0.506-0.439
									C150.576,171.569,156.084,170.521,160.706,170.995z"/>
							</g>
						</g>
						<g id="Capa_2">
							<g>
								<g>
									<path fill="#ECCFBC" d="M227.902,188.702c-0.403,0.13-1.159,0.577-1.556,0.709c0.582-2.645-2.05-5.295-4.36-6.925
										c-2.084-1.47-4.572-2.654-7.359-2.649c1.065-0.147,2.156-0.253,3.257-0.35c-5.893-0.741-11.223,0.872-14.939,4.132
										c-2.007,2.266-3.254,5.376-2.635,8.124c0.711,3.165,8.321,2.335,10.889,2.132c4.606-0.364,11.069-1.234,15.313-3.553
										C227.07,189.844,227.542,189.309,227.902,188.702z"/>
									<g>
										<path fill="#8B6854" d="M225.921,189.447c-0.165-0.607-0.847-1.681-1.086-2.273c-0.958-2.013-2.077-3.611-4.896-4.972
											c-2.755-1.33-5.483-1.521-8.703-1.064c-6.595,0.932-9.56,5.417-9.439,9.607c-0.208,0.68-0.217,1.398,0.832,1.681
											c2.9,0.784,6.162,0.713,9.236,0.616c3.4-0.106,7.899-0.658,11.102-2.09C222.994,190.934,225.252,190.164,225.921,189.447z
											"/>
										<path fill="#FFFFFF" d="M206.006,192.587c-3.463-0.311-3.935-2.155-3.62-3.161c0.776-3.998,4.108-7.325,10.675-7.95
											c6.615-0.628,9.809,3.524,11.82,7.029c-0.808,2.538-8.997,4.05-13.618,4.139
											C209.951,192.669,207.619,192.703,206.006,192.587z"/>
										<path fill="#8B6854" d="M213.391,179.676c-0.978,0.064-1.935,0.167-2.869,0.308c-5.895,1.479-9.943,5.516-9.717,10.129
											c0.006,0.066,0.076,0.073,0.153,0.057c0.089-0.221,0.173-0.445,0.282-0.661c0.389-2.566,1.515-4.951,4.111-6.931
											c2.56-1.953,6.456-2.702,10.178-2.905C214.691,179.66,213.77,179.652,213.391,179.676z"/>
									</g>
								</g>
								<g id="Capa_4">
									<g>
										<g>
											<g>
												<g>
													<defs>
														<path id="SVGID_3_" d="M206.006,192.587c-3.463-0.311-3.935-2.155-3.62-3.161c0.776-3.998,4.108-7.325,10.675-7.95
															c6.615-0.628,9.809,3.524,11.82,7.029c-0.808,2.538-8.997,4.05-13.618,4.139
															C209.951,192.669,207.619,192.703,206.006,192.587z"/>
													</defs>
													<clipPath id="SVGID_4_">
														<use xlink:href="#SVGID_3_"  overflow="visible"/>
													</clipPath>
													<g clip-path="url(#SVGID_4_)">
														<g>
															<ellipse fill="#200F10" cx="213.449" cy="187.663" rx="6.777" ry="7.389"/>
															<ellipse fill="#373637" cx="213.45" cy="187.543" rx="6.202" ry="6.761"/>
															<ellipse fill="#0F0A0F" cx="213.373" cy="187.256" rx="4.275" ry="4.661"/>
															<path fill="#FCF7E0" d="M212.369,185.742c-0.307,1.147-1.253,1.952-2.115,1.793c-0.86-0.155-1.308-1.212-1.001-2.362
																c0.307-1.145,1.253-1.95,2.115-1.793C212.228,183.537,212.675,184.594,212.369,185.742z"/>
															<path fill="#373637" d="M216.832,190.976c-4.052,3.584-8.035,0.803-8.227-3.364c-0.004-0.115-0.906,0.556-0.9,0.636
																c0.188,2.303,1.323,4.382,4.005,5.339c2.317,0.825,4.416-0.384,5.69-1.86
																C217.503,191.607,216.94,190.882,216.832,190.976z"/>
														</g>
													</g>
												</g>
											</g>
										</g>
									</g>
									<g>
										<g>
											<path fill="#ECCFBC" d="M148.004,188.702c0.403,0.13,1.159,0.577,1.556,0.709c-0.582-2.645,2.05-5.295,4.361-6.925
												c2.085-1.47,4.574-2.654,7.361-2.649c-1.065-0.147-2.158-0.253-3.258-0.35c5.893-0.741,11.223,0.872,14.941,4.132
												c2.006,2.266,3.254,5.376,2.635,8.124c-0.712,3.165-8.321,2.335-10.889,2.132c-4.606-0.364-11.069-1.234-15.313-3.553
												C148.836,189.844,148.363,189.309,148.004,188.702z"/>
											<g>
												<path fill="#8B6854" d="M152.939,190.951c3.204,1.432,7.702,1.984,11.102,2.09c3.077,0.098,6.339,0.168,9.236-0.615
													c1.049-0.282,1.041-1.001,0.833-1.681c0.121-4.19-2.844-8.675-9.439-9.607c-3.22-0.456-5.95-0.265-8.703,1.064
													c-2.82,1.361-3.938,2.959-4.896,4.972c-0.24,0.592-0.922,1.666-1.086,2.273
													C150.655,190.164,152.913,190.934,152.939,190.951z"/>
												<path fill="#8B6854" d="M162.513,179.676c0.98,0.064,1.935,0.167,2.869,0.308c5.895,1.479,9.943,5.516,9.717,10.129
													c-0.004,0.066-0.075,0.073-0.153,0.057c-0.088-0.221-0.172-0.445-0.281-0.661c-0.391-2.566-1.515-4.951-4.111-6.931
													c-2.562-1.953-6.456-2.702-10.18-2.905C161.216,179.66,162.135,179.652,162.513,179.676z"/>
												<path fill="#FFFFFF" d="M164.642,192.645c-4.621-0.089-12.809-1.601-13.616-4.139c2.011-3.505,5.205-7.657,11.818-7.029
													c6.567,0.625,9.9,3.952,10.675,7.95c0.317,1.005-0.156,2.849-3.619,3.161
													C168.286,192.703,165.954,192.669,164.642,192.645z"/>
											</g>
										</g>
										<g>
											<g>
												<g>
													<g>
														<g>
															<defs>
																<path id="SVGID_5_" d="M164.642,192.645c-4.621-0.089-12.809-1.601-13.616-4.139
																	c2.011-3.505,5.205-7.657,11.818-7.029c6.567,0.625,9.9,3.952,10.675,7.95c0.317,1.005-0.156,2.849-3.619,3.161
																	C168.286,192.703,165.954,192.669,164.642,192.645z"/>
															</defs>
															<clipPath id="SVGID_6_">
																<use xlink:href="#SVGID_5_"  overflow="visible"/>
															</clipPath>
															<g clip-path="url(#SVGID_6_)">
																<g>
																	<ellipse fill="#200F10" cx="163.063" cy="187.794" rx="6.777" ry="7.389"/>
																	<ellipse fill="#373637" cx="163.061" cy="187.675" rx="6.2" ry="6.761"/>
																	<ellipse fill="#0F0A0F" cx="162.984" cy="187.387" rx="4.276" ry="4.661"/>
																	<path fill="#FCF7E0" d="M161.98,185.873c-0.306,1.147-1.253,1.952-2.114,1.793
																		c-0.86-0.155-1.308-1.212-1.001-2.362c0.307-1.145,1.252-1.95,2.114-1.795
																		C161.84,183.669,162.289,184.726,161.98,185.873z"/>
																	<path fill="#373637" d="M166.442,191.107c-4.052,3.584-8.033,0.803-8.225-3.364
																		c-0.006-0.114-0.907,0.556-0.9,0.636c0.188,2.303,1.323,4.382,4.005,5.339c2.316,0.825,4.417-0.384,5.689-1.86
																		C167.114,191.739,166.549,191.013,166.442,191.107z"/>
																</g>
															</g>
														</g>
													</g>
												</g>
											</g>
										</g>
										<g>
											<path fill="#8B6854" d="M183.672,191.622c0,0,2.176,2.915,2.456,4.981c0,0-0.694,6.295-3.771,9.988
												c0,0,2.783-5.597,2.231-10.039L183.672,191.622L183.672,191.622z"/>
											<path fill="#A4621F" d="M190.153,213.057c-1.412,0.424-3.558-0.537-5.764-1.562c-2.199-1.019-4.154-2.645-2.586-4.451
												c0,0-0.086,1.739,5.891,2.569c0,0,1.389,0.521,5.165-0.777c0,0-2.068,2.105-4.91,1.894
												c-2.844-0.215-4.705-1.46-4.705-1.46s1.506,1.766,5.423,3.023c0,0,1.216,0.87,4.179-1.4
												C192.845,210.893,191.567,212.623,190.153,213.057L190.153,213.057z"/>
											<path fill="#ECCFBC" d="M190.153,213.057c-1.412,0.424-3.558-0.537-5.764-1.562c-2.199-1.019-4.154-2.645-2.586-4.451
												c0,0-0.086,1.739,5.891,2.569c0,0,1.389,0.521,5.165-0.777c0,0,3.86-2.082-0.013,2.058
												C192.845,210.893,191.567,212.623,190.153,213.057L190.153,213.057z"/>
											<path fill="#F6EAE4" d="M185.994,203.668c0.666-2.007,1.636-3.98,1.648-6.106c0.013-2.677-1.108-4.298-2.689-6.115
												c-0.025,0.071-0.036,0.144-0.008,0.204c0.35,0.758,0.685,1.482,0.981,2.182c0.584,2.026,0.726,4.018,0.159,6.245
												c-0.522,2.058-1.77,3.778-2.423,5.736C184.488,205.127,185.274,204.424,185.994,203.668z"/>
										</g>
										<g>
											<g>
												<path fill="#E9C6B0" d="M204.203,229.962c0.791-1.359,1.569-2.725,2.468-4.031c0.561-0.817,2.165-1.896,2.948-2.893
													c-0.477,0.112-0.962,0.202-1.463,0.239c-0.326,0.092-0.676,0.177-1.086,0.245c-5.985,0.991-12.469,0.093-18.524-0.498
													c-3.201-0.314-6.242-0.486-9.398-0.077c-2.395,0.307-4.765,0.699-7.214,0.799c-0.499,0.02-0.975,0.01-1.44-0.02
													c-1.132,0.215-2.714,0.925-3.889,0.674c-1.049-0.225-1.921-0.843-2.592-1.617c0.567,1.425,2.596,2.093,3.903,3.159
													c0.454,0.112,0.881,0.299,1.239,0.646c1.208,1.17,2.027,3.303,3.147,4.913c5.366,4.703,17.258,5.359,24.179,3.339
													C200.265,233.731,202.374,232.088,204.203,229.962z"/>
												<path fill="#B74648" d="M209.097,223.37c0.117-0.033,0.225-0.073,0.342-0.107c0.076-0.059,0.15-0.121,0.224-0.186
													c-2.242,0.34-4.542,0.29-6.846,0.199c-3.201,0.267-6.459,0.22-9.692,0.197c-4.77-0.034-9.811-1.144-14.48-0.414
													c-0.959,0.04-1.924,0.096-2.919,0.199c-1.303,0.135-3.147,0.578-4.917,0.765c-1.091,0.227-2.198,0.43-3.229,0.395
													c-0.978-0.033-1.867-0.257-2.575-0.695c0.821,0.97,1.971,1.273,3.524,1.299c3.374,2.192,4.641,5.945,8.806,7.446
													c3.975,1.433,8.934,2.186,13.298,2.06c3.771-0.105,7.727-1.121,10.425-2.954c1.403-0.95,2.117-2.183,2.803-3.45
													c1.165-2.155,2.689-3.332,5.187-4.703C209.074,223.408,209.082,223.388,209.097,223.37z M202.944,227.872
													c-1.975,3.637-5.545,5.381-11.002,5.758c-4.339,0.3-9.323-0.503-13.403-1.633c-4.429-1.226-5.811-4.972-9.461-6.968
													c0.317-0.005,0.655-0.02,1.003-0.04c4.744-0.272,9.114-1.737,13.958-1.834c0.04,0,0.057-0.022,0.048-0.047
													c3.757,0.26,7.621,0.966,11.24,1.096c3.21,0.114,7.391,0.246,10.996-0.257
													C204.67,224.884,203.7,226.478,202.944,227.872z"/>
												<path fill="#841A1E" d="M202.944,227.872c-1.975,3.637-5.545,5.381-11.002,5.758c-4.339,0.3-9.323-0.503-13.403-1.633
													c-4.429-1.226-5.811-4.972-9.461-6.968c0.317-0.005,0.655-0.02,1.003-0.04c4.744-0.272,9.114-1.737,13.958-1.834
													c0.04,0,0.057-0.022,0.048-0.047c3.757,0.26,7.621,0.966,11.24,1.096c3.21,0.114,7.391,0.246,10.996-0.257
													C204.67,224.884,203.7,226.478,202.944,227.872z"/>
												<path fill="#FFFFFF" d="M203.453,224.219c-2.82,0.163-5.741,0.069-8.126-0.016c-3.619-0.128-7.483-0.836-11.24-1.096
													c0.008,0.026-0.008,0.047-0.048,0.047c-3.677,0.074-7.079,0.932-10.582,1.462c1.038,1.471,2.15,2.607,5.018,3.063
													c2.741,0.431,5.456,0.914,8.252,1.034c4.739,0.196,9.221-0.274,13.586-1.271
													C201.569,226.492,202.582,225.386,203.453,224.219z"/>
												<path opacity="0.6" fill="#B5A795" enable-background="new    " d="M195.328,224.203
													c-3.619-0.128-7.483-0.836-11.24-1.096c0.008,0.026-0.008,0.047-0.048,0.047c-3.677,0.074-7.079,0.932-10.582,1.462
													c0.091,0.133,0.188,0.26,0.282,0.384c3.752-0.239,7.373-0.918,11.206-0.781c4.496,0.164,8.944,0.699,13.407,1.179
													c0.413,0.043,0.673,0.326,0.548,0.606c-0.361,0.835-1.006,1.512-1.834,2.074c1.092-0.179,2.171-0.391,3.245-0.637
													c1.256-0.952,2.269-2.059,3.14-3.225C200.634,224.383,197.713,224.288,195.328,224.203z"/>
												<path fill="#CD6F5C" d="M190.253,230.804c-4.275-0.357-7.664,0.17-10.982,1.384c3.941,1.025,8.585,1.726,12.669,1.443
													c1.966-0.135,3.679-0.456,5.168-0.973C195.027,231.721,192.782,231.017,190.253,230.804z"/>
											</g>
											<path fill="#CE7263" d="M175.475,222.278c-0.961,0.119-1.899,0.301-2.835,0.464c-0.567,0.196-1.128,0.401-1.689,0.613
												c0.651-0.096,1.283-0.216,1.83-0.303c6.167-0.985,12.158-1.086,18.385-0.973
												C185.976,220.913,180.849,221.613,175.475,222.278z"/>
											<path fill="#CE7263" d="M185.845,236.519c-1.154-0.038-3.21,0.059-4.519-0.526c0.808,1.241,3.829,1.73,5.033,1.994
												c2.903,0.64,5.914-0.404,8.5-1.516c0.165-0.072,0.33-0.262,0.414-0.45C192.272,236.878,189.032,236.621,185.845,236.519z
												"/>
										</g>
										<g display="none">
											<g display="inline">
												<g>
													<g>
														<path fill="#A68975" d="M149.754,187.42l0.055-0.694c-0.108-0.009-2.65-0.19-4.18,1.455l0.201,0.187
															C147.289,187.099,149.732,187.418,149.754,187.42z"/>
													</g>
													<g>
														<path fill="#A68975" d="M150.223,188.774l-0.151-0.68c-0.105,0.023-2.588,0.596-3.569,2.617l0.248,0.12
															C147.768,189.19,150.2,188.777,150.223,188.774z"/>
													</g>
												</g>
											</g>
											<g display="inline">
												<g>
													<g>
														<path fill="#A68975" d="M226.788,187.42l-0.054-0.694c0.106-0.009,2.648-0.19,4.181,1.455l-0.202,0.187
															C229.254,187.099,226.81,187.418,226.788,187.42z"/>
													</g>
													<g>
														<path fill="#A68975" d="M226.322,188.774l0.15-0.68c0.104,0.023,2.588,0.596,3.569,2.617l-0.249,0.12
															C228.776,189.19,226.344,188.777,226.322,188.774z"/>
													</g>
												</g>
											</g>
										</g>
										<path fill="#AB8C77" d="M196.246,242.203c-5.53,1.983-11.68,2.313-17.233,0.293c-0.223-0.081-0.533,0.104-0.321,0.251
											c4.561,3.155,12.969,1.875,18.157,0.322C197.664,242.825,197.04,241.919,196.246,242.203z"/>
										<path fill="#AB8C77" d="M196.246,246.218c-5.53,1.984-11.68,2.314-17.233,0.293c-0.223-0.082-0.533,0.104-0.321,0.25
											c4.561,3.155,12.969,1.876,18.157,0.322C197.664,246.84,197.04,245.934,196.246,246.218z"/>
										<path fill="#B6886F" d="M153.369,195.036c3.372,3.685,8.052,3.733,12.229,1.298c0.319-0.186,0.611,0.289,0.297,0.481
											c-4.215,2.579-9.735,2.857-13.086-1.221C152.494,195.209,153.018,194.652,153.369,195.036z"/>
										<path fill="#B6886F" d="M153.232,198.802c3.22,3.817,8.22,2.638,12.426,1.337c0.42-0.13,0.594,0.499,0.183,0.638
											c-4.511,1.521-9.777,2.697-13.375-1.212C151.988,199.046,152.788,198.275,153.232,198.802z"/>
										<path fill="#B6886F" d="M221.779,195.069c-3.391,3.668-8.072,3.691-12.236,1.234c-0.318-0.188-0.611,0.285-0.299,0.479
											c4.201,2.601,9.72,2.908,13.091-1.153C222.653,195.246,222.132,194.686,221.779,195.069z"/>
										<path fill="#B6886F" d="M222.066,199.831c-3.239,3.801-8.232,2.595-12.433,1.273c-0.42-0.132-0.596,0.496-0.186,0.637
											c4.504,1.544,9.763,2.748,13.382-1.142C223.309,200.081,222.513,199.306,222.066,199.831z"/>
									</g>
								</g>
							</g>
							<circle fill="none" stroke="#4CAF50" stroke-width="18" stroke-miterlimit="10" cx="187.881" cy="190.002" r="163.828"/>
							<g>
								<g>
									<path fill="#A68975" d="M161.59,226.44l0.409-0.145c-1.157-3.851,2.693-5.685,2.707-5.688l-0.658-0.729
										c-0.067,0.019-1.631,0.516-2.442,2.116C160.987,223.208,160.985,224.704,161.59,226.44z"/>
								</g>
								<g>
									<path fill="#A68975" d="M213.364,226.44l-0.416-0.145c1.16-3.851-2.691-5.685-2.705-5.688l0.658-0.729
										c0.068,0.019,1.635,0.516,2.442,2.116C213.961,223.208,213.97,224.704,213.364,226.44z"/>
								</g>
							</g>
						</g>
					</g>
				</g>
			</g>
		</g>
	</g>
</g>
</svg>
