<?xml version="1.0" encoding="utf-8"?>
<!-- Generator: Adobe Illustrator 17.0.0, SVG Export Plug-In . SVG Version: 6.00 Build 0)  -->
<!DOCTYPE svg PUBLIC "-//W3C//DTD SVG 1.1//EN" "http://www.w3.org/Graphics/SVG/1.1/DTD/svg11.dtd">
<svg version="1.1" id="Capa_1" xmlns="http://www.w3.org/2000/svg" xmlns:xlink="http://www.w3.org/1999/xlink" x="0px" y="0px"
	 width="378px" height="376px" viewBox="0 0 378 376" enable-background="new 0 0 378 376" xml:space="preserve">
<g>
	<g display="none">
		<path display="inline" fill="#2B446A" stroke="#243959" stroke-width="3" stroke-miterlimit="10" d="M662.443,649.244
			c-16.241-3.871-25.984-8.049-31.385-8.371c-1.694,2.298-0.297,5.357-0.922,7.793c-3.622,14.071-22.721,33.198-36.03,39.148
			c-13.31-5.949-32.412-25.077-36.03-39.148c-0.63-2.437,0.768-5.495-0.926-7.793c-5.4,0.323-15.143,4.5-31.38,8.371
			c-20.664,4.917-51.814,11.898-49.655,45.06h103.211h29.558h103.214C714.249,661.143,683.107,654.163,662.443,649.244z"/>
		<path display="inline" fill="#2B446A" stroke="#243959" stroke-width="3" stroke-miterlimit="10" d="M662.443,649.244
			c-16.241-3.871-25.984-8.049-31.385-8.371c-1.694,2.298-0.297,5.357-0.922,7.793c-3.622,14.071-22.721,33.198-36.03,39.148
			c-13.31-5.949-32.412-25.077-36.03-39.148c-0.63-2.437,0.768-5.495-0.926-7.793c-5.4,0.323-15.143,4.5-31.38,8.371
			c-20.664,4.917-51.814,11.898-49.655,45.06l-0.106,19.155h236.196l-0.106-19.155C714.249,661.143,683.107,654.163,662.443,649.244
			z"/>
	</g>
	<circle fill="#FFFFFF" cx="188.873" cy="189.444" r="163.828"/>
	<g>
		<g>
			<defs>
				<circle id="SVGID_1_" cx="188.873" cy="189.917" r="163.828"/>
			</defs>
			<clipPath id="SVGID_2_">
				<use xlink:href="#SVGID_1_"  overflow="visible"/>
			</clipPath>
			<g id="Capa_3" clip-path="url(#SVGID_2_)">
				<g>
					<g>
						<g>
							<path fill="#974B1C" d="M242.144,277.93c-8.357-2.217-15.765-5.364-20.621-10.771c-2.078-4.09-2.832-8.568-3.308-12.864
								c-0.413-3.747-0.669-7.493-0.885-11.246c0.022-0.432,0.01-0.849,0.047-1.281c0.355-4.252,1.441-7.918,0.289-11.738
								c-0.82-0.922-1.885-1.748-3.245-2.422c-6.63-3.323-16.003-3.336-24.041-2.766c-8.042-0.571-17.415-0.556-24.048,2.766
								c-1.36,0.673-2.422,1.5-3.241,2.422c-1.152,3.82-0.066,7.486,0.285,11.738c0.037,0.432,0.029,0.848,0.051,1.281
								c-0.216,3.753-0.473,7.499-0.885,11.246c-0.476,4.296-1.23,8.773-3.308,12.864c-3.687,4.105-8.858,6.908-14.784,8.993v40.107
								c21.016,0,42.035-0.015,63.05-0.015c11.543,0,23.094,0.029,34.643,0.066L242.144,277.93L242.144,277.93z"/>
							<path fill="#E9C6B0" d="M242.144,279.722c-5.159-1.441-9.959-3.241-13.973-5.664c-2.941-1.975-5.616-4.105-7.427-6.644
								c-1.629-2.283-2.938-4.778-4.006-7.353c-2.36-9.286-1.892-19.171-0.805-28.435c-0.267-0.344-0.566-0.673-0.937-0.965
								c-1.298-1.215-3.16-2.078-5.476-2.766c-4.596-1.376-9.524-1.939-14.456-2.1c-0.062,0.029-0.121,0.065-0.183,0.065
								c-0.429-0.022-0.864-0.022-1.292-0.037c-0.033,0.007-0.066,0.037-0.103,0.037c-1.025-0.044-2.067-0.065-3.106-0.088
								c-1.046,0.022-2.085,0.044-3.11,0.088c-0.035,0-0.069-0.029-0.102-0.037c-0.429,0.015-0.864,0.015-1.292,0.037
								c-0.062,0-0.121-0.037-0.179-0.065c-4.94,0.161-9.863,0.725-14.463,2.1c-2.313,0.688-4.178,1.551-5.474,2.766
								c-0.369,0.293-0.669,0.622-0.937,0.965c1.087,9.264,1.556,19.15-0.805,28.435c-1.069,2.576-2.378,5.07-4.006,7.353
								c-1.811,2.539-4.483,4.669-7.428,6.644c-2.447,1.478-5.202,2.722-8.137,3.798v37.179c21.249-0.007,36.744,9.572,57.993,9.572
								c11.313,0,28.388-9.594,39.701-9.631L242.144,279.722L242.144,279.722z"/>
							<path fill="#ECCFBC" d="M163.146,261.905c7.731,5.173,20.43,6.878,30.327,6.314c8.657-0.498,16.918-2.503,24.527-5.481
								c-0.453-0.878-0.882-1.764-1.262-2.678c-2.36-9.286-1.892-19.171-0.805-28.435c-0.267-0.344-0.566-0.673-0.937-0.965
								c-1.298-1.215-3.16-2.078-5.476-2.766c-4.596-1.376-9.524-1.939-14.456-2.1c-0.062,0.029-0.121,0.066-0.183,0.066
								c-0.429-0.022-0.864-0.022-1.292-0.037c-0.033,0.007-0.066,0.037-0.103,0.037c-1.025-0.044-2.067-0.066-3.106-0.088
								c-1.046,0.022-2.085,0.044-3.11,0.088c-0.035,0-0.069-0.029-0.102-0.037c-0.429,0.015-0.864,0.015-1.292,0.037
								c-0.062,0-0.12-0.037-0.179-0.066c-4.94,0.161-9.863,0.725-14.463,2.1c-2.313,0.688-4.178,1.551-5.474,2.766
								c-0.369,0.293-0.669,0.622-0.937,0.965c1.087,9.264,1.556,19.15-0.805,28.435
								C163.761,260.689,163.449,261.297,163.146,261.905z"/>
						</g>
						<g>
							<g id="XMLID_62_">
								<path id="XMLID_65_" fill="#B6B6B6" d="M163.423,262.013c-14.399,15.299-40.498,23.522-65.247,27.51
									s-25.199,30.744-25.199,38.515c0,7.771,0,36.569,0,36.569h117.444V286.64L163.423,262.013z"/>
								<polygon id="XMLID_64_" fill="#DADAD9" points="163.423,264.263 145.733,274.988 172.138,320.96 190.421,286.64 								"/>
								<polygon id="XMLID_63_" fill="#F2F0F0" points="163.423,262.013 145.733,274.988 172.138,318.71 190.421,286.64 								"/>
							</g>
							<g id="XMLID_58_">
								<path id="XMLID_61_" fill="#B6B6B6" d="M217.42,262.013c14.399,15.299,40.498,23.522,65.247,27.51
									s25.199,30.744,25.199,38.515c0,7.771,0,36.569,0,36.569H190.421V286.64L217.42,262.013z"/>
								<polygon id="XMLID_60_" fill="#DADAD9" points="217.42,264.263 235.11,274.988 208.705,320.96 190.421,286.64 								"/>
								<polygon id="XMLID_59_" fill="#EDECEB" points="217.42,262.013 235.11,274.988 208.705,318.71 190.421,286.64 								"/>
							</g>
							<g id="XMLID_56_">
								<path id="XMLID_57_" fill="#0F5F34" d="M130.792,281.452c-10.378,3.689-21.628,6.301-32.616,8.071
									c-24.749,3.988-25.199,30.744-25.199,38.515c0,7.771,0,36.569,0,36.569h117.444l-59.619-83.155L130.792,281.452z"/>
							</g>
							<g id="XMLID_54_">
								<path id="XMLID_55_" fill="#0F5F34" d="M250.051,281.452c10.378,3.689,21.628,6.301,32.616,8.071
									c24.749,3.988,25.199,30.744,25.199,38.515c0,7.771,0,36.569,0,36.569H190.421l59.619-83.155L250.051,281.452z"/>
							</g>
						</g>
					</g>
					<g>
						<g>
							<path fill="#EAC8B2" d="M134.048,195.478c-0.677-3.739-1.932-7.588-4.054-10.793c-1.149-3.022-2.821-5.876-4.529-8.605
								c-1.149-1.83-3.026-4.756-5.492-4.859c-4.94-0.212-7.391,8.481-7.27,12.308c0.088,2.81,1.957,5.385,3.414,7.625
								c2.206,3.395,3.172,7.485,5.008,11.071c2.038,3.995,7.021,7.39,11.525,5.319c0.253,0.255,0.699,0.255,0.937-0.125
								C135.541,204.23,134.664,198.917,134.048,195.478z"/>
							<path fill="#EAC8B2" d="M134.048,195.478c-0.677-3.739-1.932-7.588-4.054-10.793c-1.149-3.022-2.821-5.876-4.529-8.605
								c-1.072-1.713-2.798-4.361-5.038-4.778c2.701,2.883,3.868,6.725,3.333,11.305c-0.041,0.351-0.447,0.593-0.78,0.52
								c-2.437-0.542-6.07-2.927-8.203-0.052c-0.925,1.245-1.156,2.547-1.145,3.931c0.695,1.478,1.65,2.868,2.484,4.149
								c2.206,3.395,3.172,7.485,5.008,11.071c2.038,3.995,7.021,7.391,11.525,5.319c0.253,0.255,0.699,0.255,0.937-0.125
								C135.541,204.23,134.664,198.917,134.048,195.478z"/>
							<path fill="#E2B296" d="M118.748,187.239c0.248,0.614,2.755,8.664,3.052,8.445c1.558-1.2,3.15,3.292,3.544,4.039
								c1.459,2.729,2.638,5.59,3.901,8.408c1.046,0.088,2.111-0.051,3.158-0.483c-1.823-4.822-4.402-9.278-6.535-13.983
								c-1.127-2.495-1.917-6.687-4.032-8.473c-1.759-1.5-3.904-1.516-5.982-1.025C117.142,184.773,118.149,185.768,118.748,187.239
								z"/>
							<path fill="#8B6854" d="M115.576,184.1c-0.059,0.029-0.007,0.102,0.044,0.088c4.146-0.907,6.432,2.283,8.122,6.11
								c-0.131-0.037-0.278-0.007-0.395,0.14c-1.061,1.36-1.654,2.941-2.17,4.566c-0.051,0.154,0.176,0.197,0.253,0.089
								c0.871-1.354,1.669-2.759,2.565-4.084c0.011-0.022,0.015-0.044,0.022-0.059c1.262,3.015,2.202,6.293,3.403,8.218
								c0.095,0.154,0.321,0.029,0.274-0.139C126.255,194.212,123.643,179.951,115.576,184.1z"/>
							<path fill="#8B6854" d="M134.048,195.478c-0.677-3.739-1.932-7.588-4.054-10.793c-1.149-3.022-2.821-5.876-4.529-8.605
								c-1.149-1.83-3.026-4.756-5.492-4.859c-4.94-0.212-7.391,8.481-7.27,12.308c0.088,2.81,1.957,5.385,3.414,7.625
								c2.206,3.395,3.172,7.485,5.008,11.071c2.038,3.995,7.021,7.39,11.525,5.319c0.253,0.255,0.699,0.255,0.937-0.125
								C135.541,204.23,134.664,198.917,134.048,195.478z M132.541,206.593c-1.518-0.103-2.999,0-4.528-0.323
								c-3.008-0.637-4.76-3.219-6.034-5.765c-2.045-4.098-3.929-8.034-6.49-11.853c-1.581-2.356-2.36-4.786-1.863-7.61
								c0.473-2.657,2.817-7.947,5.802-8.408c2.594-0.402,5.28,4.295,6.553,6.007c1.12,1.5,1.998,3.169,2.886,4.83
								c-0.047,0.051-0.074,0.116-0.018,0.191C133.222,190.37,133.459,198.968,132.541,206.593z"/>
						</g>
						<g>
							<path fill="#EAC8B2" d="M253.208,208.203c0.282,0.351,0.731,0.278,0.937,0c4.745,1.448,9.23-2.59,10.716-6.82
								c1.339-3.805,1.742-7.983,3.476-11.642c1.149-2.415,2.648-5.217,2.363-8.012c-0.395-3.813-3.988-12.103-8.861-11.225
								c-2.429,0.432-3.901,3.585-4.792,5.546c-1.325,2.934-2.594,5.986-3.333,9.14c-1.672,3.461-2.396,7.441-2.561,11.246
								C250.994,199.92,250.844,205.298,253.208,208.203z"/>
							<path fill="#EAC8B2" d="M251.151,196.436c0.165-3.805,0.889-7.785,2.561-11.246c0.739-3.154,2.009-6.205,3.333-9.14
								c0.834-1.836,2.194-4.69,4.361-5.407c-2.297,3.22-2.941,7.178-1.793,11.649c0.089,0.344,0.527,0.527,0.842,0.402
								c2.349-0.856,5.627-3.711,8.122-1.142c1.083,1.113,1.492,2.371,1.661,3.732c-0.49,1.558-1.244,3.073-1.902,4.456
								c-1.734,3.659-2.137,7.837-3.476,11.642c-1.485,4.229-5.97,8.269-10.716,6.82c-0.205,0.278-0.655,0.351-0.937,0
								C250.844,205.298,250.994,199.92,251.151,196.436z"/>
							<path fill="#E2B296" d="M265.205,186.207c-0.167,0.644-1.566,8.964-1.887,8.773c-1.72-0.974-2.685,3.696-2.978,4.485
								c-1.083,2.898-1.858,5.891-2.736,8.854c-1.025,0.227-2.093,0.234-3.186-0.059c1.152-5.012,3.113-9.784,4.592-14.729
								c0.79-2.621,1.009-6.879,2.868-8.942c1.537-1.72,3.659-2.019,5.789-1.815C266.463,183.55,265.607,184.677,265.205,186.207z"
								/>
							<path fill="#8B6854" d="M267.927,182.672c0.066,0.022,0.022,0.095-0.029,0.095c-4.229-0.344-6.066,3.124-7.229,7.142
								c0.125-0.052,0.27-0.044,0.417,0.088c1.222,1.2,2.02,2.692,2.752,4.229c0.074,0.147-0.146,0.227-0.242,0.118
								c-1.032-1.222-2.013-2.496-3.08-3.696c-0.015-0.015-0.022-0.037-0.03-0.059c-0.848,3.154-1.339,6.534-2.275,8.597
								c-0.066,0.176-0.315,0.074-0.285-0.095C258.699,194.125,259.372,179.65,267.927,182.672z"/>
							<path fill="#8B6854" d="M253.208,208.203c0.282,0.351,0.731,0.278,0.937,0c4.745,1.448,9.23-2.59,10.716-6.82
								c1.339-3.805,1.742-7.983,3.476-11.642c1.149-2.415,2.648-5.217,2.363-8.012c-0.395-3.813-3.988-12.103-8.861-11.225
								c-2.429,0.432-3.901,3.585-4.792,5.546c-1.325,2.934-2.594,5.986-3.333,9.14c-1.672,3.461-2.396,7.441-2.561,11.246
								C250.994,199.92,250.844,205.298,253.208,208.203z M254.715,184.026c0.041-0.088,0.003-0.146-0.047-0.191
								c0.658-1.763,1.309-3.541,2.218-5.173c1.039-1.866,3.073-6.886,5.693-6.842c3.015,0.059,6.045,4.982,6.871,7.559
								c0.871,2.729,0.432,5.247-0.819,7.792c-2.027,4.127-3.367,8.276-4.844,12.615c-0.923,2.693-2.313,5.495-5.203,6.527
								c-1.478,0.519-2.956,0.614-4.453,0.923C252.194,199.81,251.279,191.249,254.715,184.026z"/>
						</g>
						<path fill="#EAC8B2" d="M244.919,129.787c-1.858-3.175-9.333-3.981-12.139-6.249c-3.311-2.678-10.058-1.326-13.754-3.433
							c-6.845-3.886-9.46-1.937-17.351-2.457c-8.554-0.563-9.016-0.045-17.508,0.892c-8.609,0.944-10.057,0.624-18.37,3.207
							c-8.491,2.642-9.447,0.16-16.637,5.422c-7.039,5.144-8.138,1.996-16.123,8.445c-3.615,5.108-11.219,11.292-9.583,17.014
							c1.975,14.042,2.784,28.194,3.556,42.367c0.432,7.837,0.655,16.127,3.436,23.554c2.231,5.963,6.443,10.998,11.049,15.301
							c5.107,4.764,11.25,8.474,17.079,12.293c6.662,4.376,13.5,8.569,20.956,11.445c6.714,2.59,13.281,3.168,20.232,1.236
							c3.344-0.929,6.498-2.466,9.571-4.046c3.304-1.697,6.856-3.439,9.976-5.547c3.937-1.748,7.427-4.214,10.87-6.856
							c4.189-3.227,8.484-6.234,12.757-9.345c7.519-5.466,12.14-12.534,13.296-21.805c1.543-12.483,0.775-25.179,1.221-37.721
							c0.302-8.238,0.73-16.462,1.26-24.679c0.318-4.927-6.369-10.546-5.983-15.469
							C242.013,129.093,249.737,133.355,244.919,129.787z"/>
						<path fill="#E6BCA4" d="M253.672,202.349c-1.328,5.422-2.865,13.266-5.868,18.044c-2.543,4.032-41.138,38.606-62.095,34.494
							c-11.269-2.21-22.406-9.505-31.652-16.237c-7.704-5.612-15.052-11.956-19.222-20.722c-7.464-15.703-5.221-33.886-9.666-50.241
							c0.827,9.08,1.343,18.191,1.84,27.309c0.432,7.837,0.655,16.127,3.436,23.554c2.231,5.963,6.443,10.998,11.049,15.301
							c5.107,4.764,11.25,8.474,17.079,12.293c6.662,4.376,13.5,8.569,20.956,11.445c6.714,2.59,13.281,3.168,20.232,1.236
							c3.344-0.929,6.498-2.466,9.571-4.046c3.304-1.697,6.856-3.439,9.976-5.547c3.937-1.748,7.427-4.214,10.87-6.856
							c4.189-3.227,8.484-6.234,12.757-9.345c7.519-5.466,12.14-12.534,13.296-21.805c1.265-10.208,0.988-20.547,1.09-30.828
							C256.475,187.78,255.436,195.149,253.672,202.349z"/>
						<path fill="#E2B296" d="M259.362,132.89c-1.858-3.175-5.638-5.861-8.444-8.129c-3.311-2.678-6.907-5.006-10.603-7.113
							c-6.844-3.886-14.258-6.542-22.149-7.062c-8.554-0.563-17.094,0.344-25.585,1.281c-8.609,0.944-16.947,1.924-25.259,4.507
							c-8.491,2.642-16.818,6.651-24.009,11.913c-7.039,5.144-13.416,11.883-18.439,18.996c-3.615,5.108-2.055,11.379-0.42,17.101
							c0.72,5.129,1.287,10.273,1.748,15.424c4.884-10.736,16.42-21.169,28.226-20.167c14.671,3.615,29.566-0.03,43.655-4.208
							c11.174,2.086,21.363,1.332,32.094-3.16c-1.789,2.319-4.032,3.907-6.483,5.232c11.119,1.185,22.859-0.256,31.977-8.107
							c-0.667,8.905-2.627,16.691-5.781,24.506c0.321-0.212,0.658-0.293,0.995-0.227c2.711-2.444,5.674-4.815,8.484-7.397
							c0.402-6.834,0.871-13.654,1.405-20.474C261.47,141.356,261.586,136.695,259.362,132.89z"/>
						<path fill="#8B6854" d="M258.362,121.134c-1.858-3.175-5.638-5.861-8.444-8.129c-3.311-2.678-6.907-5.006-10.603-7.113
							c-6.844-3.886-14.258-6.542-22.149-7.062c-8.554-0.563-17.094,0.344-25.585,1.281c-8.609,0.944-16.947,1.924-25.259,4.507
							c-8.491,2.642-16.818,6.651-24.009,11.913c-7.039,5.144-13.416,11.883-18.439,18.995c-3.615,5.108-2.055,11.379-0.42,17.101
							c1.975,14.042,2.784,28.194,3.556,42.367c0.432,7.837,0.655,16.127,3.436,23.554c2.231,5.963,6.443,10.998,11.049,15.301
							c5.107,4.764,11.25,8.474,17.079,12.293c6.662,4.376,13.5,8.569,20.956,11.445c6.714,2.59,13.281,3.168,20.232,1.236
							c3.344-0.929,6.498-2.466,9.571-4.046c3.304-1.697,6.856-3.439,9.976-5.547c3.937-1.748,7.427-4.214,10.87-6.856
							c4.189-3.227,8.484-6.234,12.757-9.345c7.519-5.466,12.14-12.534,13.296-21.805c1.543-12.483,0.775-25.179,1.221-37.721
							c0.483-13.178,1.288-26.32,2.32-39.455C260.47,129.6,260.586,124.939,258.362,121.134z M256.277,167.226
							c-0.797,12.147-0.344,24.316-1.002,36.455c-0.3,5.554-0.706,11.247-3.022,16.377c-2.034,4.508-5.663,8.041-9.479,11.064
							c-3.791,3.007-7.892,5.612-11.704,8.59c-3.787,2.957-7.61,5.978-11.781,8.394c-0.757,0.402-1.507,0.812-2.264,1.229
							c-0.069,0.037-0.147,0.081-0.216,0.116c0,0-0.003,0.007-0.014,0.007c-5.635,3.117-11.254,6.366-17.401,8.291
							c-8.103,2.525-15.981,0.519-23.488-2.825c-6.919-3.08-13.281-7.324-19.501-11.597c-5.381-3.696-10.672-7.406-15.392-11.956
							c-4.892-4.712-8.664-10.501-10.46-17.086c-2.122-7.779-1.994-16.508-2.385-24.513c-0.542-11.247-1.603-22.516-3.451-33.645
							c0.099-0.052,0.191-0.154,0.157-0.3c-0.831-4.024-1.87-8.203-1.99-12.33c-0.129-4.332,2.122-7.325,4.738-10.53
							c5.305-6.49,11.379-12.439,18.351-17.114c6.692-4.493,14.334-7.706,22.01-10.069c7.761-2.392,15.685-3.11,23.716-3.922
							c7.113-0.725,14.239-1.405,21.403-1.288c7.965,0.132,15.205,2.034,22.336,5.546c6.951,3.425,13.353,8.064,18.861,13.501
							c2.849,2.824,3.728,5.407,3.881,9.366c0.132,3.505-0.351,7.039-0.622,10.53c-0.051,0.702,0.965,0.958,1.12,0.219l0,0
							C257.689,148.881,256.885,158.049,256.277,167.226z"/>
						<path fill="#D3CBBE" d="M269.219,125.076c-1.413-5.488-2.858-8.476-8-13.62c-5.803-4.905-5.569-6.006-16.949-13.479
							c-11.67-5.684-4.114-1.816-12.723-5.836c-9.919-4.844-27.749-6.623-38.685-6.426c-11.975,0.212-24.659,2.473-35.95,6.469
							c-7.141,2.525-16.779,6.688-20.905,13.699c-4.178,3.059-7.86,6.864-10.519,10.975c-5.506,8.51-7.094,18.564-8.525,28.405
							c-0.04,0.278,0.337,0.344,0.413,0.088c0.129-0.417,0.238-0.834,0.362-1.244c2.147-4.603,4.386-8.773,7.862-12.542
							c-4.585,6.607-7.131,14.561-7.211,22.91c-0.304,1.325-0.429,2.701,0.095,3.461c0,0.015,0,0.029,0,0.044
							c0.007,0.08,0.062,0.124,0.129,0.154c0.014,0.014,0.018,0.037,0.033,0.051c0.047,0.052,0.116,0.015,0.131-0.037
							c0-0.007,0-0.007,0-0.007c0.052-0.022,0.099-0.059,0.11-0.14c0.01-0.161,0.041-0.323,0.059-0.49
							c1.595-6.045,3.399-11.489,6.999-16.786c1.284-1.88,2.719-3.519,4.265-4.991c-2.491,2.876-4.691,6.03-6.417,9.703
							c-1.965,4.164-3.374,8.738-3.952,13.303c-0.673,5.283,0.468,10.757,1.263,15.966c0.041,0.264,0.387,0.227,0.402-0.029
							c0.007-0.088,0-0.183,0.003-0.278c0.135,0.044,0.3-0.007,0.348-0.176c1.792-6.819,4.394-13.251,8.869-18.776
							c1.221-1.516,2.55-2.868,3.958-4.127c-3.326,3.725-6.538,8.342-7.541,13.134c-0.01,0.074,0,0.14,0.041,0.191
							c-0.084,0.147-0.191,0.285-0.263,0.439c-0.116,0.235,0.212,0.454,0.385,0.256c3.403-4.039,8.818-5.488,13.705-6.885
							c5.74-1.647,11.298-3.725,16.929-5.693c4.792-1.683,9.677-3.088,14.44-4.852c-5.016,3.49-10.288,6.439-16.588,7.23
							c-0.212,0.022-0.197,0.336,0.018,0.33c0.52-0.044,1.043-0.11,1.566-0.183c13.475,1.874,27.985-0.423,41.105-3.754
							c10.252-2.597,19.369-7.647,27.451-14.166c-1.668,1.588-3.431,3.08-5.243,4.485c-5.063,3.915-10.661,6.907-16.541,9.389
							c-0.31,0.059-0.626,0.102-0.933,0.175c-0.176,0.037-0.165,0.242-0.059,0.336c-0.007,0.095,0.062,0.197,0.183,0.161
							c0.124-0.037,0.245-0.08,0.369-0.116c5.418-0.147,10.665,0.256,16.094-0.432c4.867-0.615,9.659-1.8,14.239-3.542
							c4.142-1.573,8.177-3.988,11.642-7.025c-3.728,5.481-8.323,10.332-14.119,13.727c-0.074,0.037-0.081,0.118-0.055,0.191
							c-0.336,0.095-0.669,0.191-1.006,0.285c-0.069,0.022-0.062,0.132,0.007,0.146c6.889,0.776,14.306-2.832,19.805-6.644
							c2.582-1.792,4.862-3.892,6.791-6.263c0.417,4.858,1.002,9.417,0.658,14.437c-0.315,4.735-0.674,9.498-2.671,13.874
							c-0.051,0.116,0.033,0.227,0.132,0.27c-0.586,0.528-1.182,1.046-1.789,1.537c-0.26,0.212,0.003,0.622,0.297,0.439
							c10.12-6.366,16.177-17.686,17.935-29.379C272.658,136.879,271.772,130.607,269.219,125.076z"/>
						<path fill="#BCB4A6" d="M269.219,125.076c-1.413-5.488-4.545-10.34-9.915-13.149c-0.651-0.344-1.332-0.63-2.019-0.893
							c0.234,0.183,0.483,0.351,0.709,0.549c3.241,2.795,5.43,6.776,7.165,10.647c4.464,9.863,3.893,19.494,0.381,29.548
							c0,0,0,0.007,0,0.014l0,0c-0.029,0.044-0.044,0.103-0.059,0.161c-0.255,0.717-1.405,0.285-1.244-0.432
							c1.764-8.144,0.79-19.039-5.158-25.457c0.007,3.461-0.168,6.995-2.042,10.025c-2.023,3.249-4.968,5.744-7.05,8.949
							c-0.374,0.571-1.49,0.351-1.24-0.423c2.349-7.456,3.077-14.701,1.686-22.208c-0.947,5.43-2.63,10.779-6.743,14.701
							c-6.227,5.934-14.796,8.613-22.837,11.086c-0.6,0.183-1.204-0.57-0.713-1.061c4.306-4.405,8.934-8.92,10.701-15.015
							c1.354-4.668,1.679-9.38,1.346-14.1c-3.892,8.817-12.418,15.499-20.265,20.642c-11.51,7.551-24.659,12.776-38.482,13.632
							c-0.611,0.037-1.029-0.893-0.413-1.207c10.527-5.445,20.013-13.237,26.43-23.247c-3.768,3.205-7.628,6.307-12.11,8.466
							c-6.216,3-12.849,4.64-19.537,6.235c-11.836,2.824-24.14,5.839-33.521,14.071c-0.498,0.439-1.288-0.293-0.963-0.842
							c5.817-9.703,13.889-17.35,23.372-22.962c-13.021,4.669-26.408,10.34-32.16,23.116c-0.355,0.79-1.478,0.197-1.185-0.586
							c5.001-13.253,12.743-24.967,24.238-32.782c-10.134,4.383-19.866,10.786-24.561,20.876c-0.369,0.79-1.459,0.191-1.182-0.593
							c2.825-8.02,7.017-16.113,13.127-22.106c-4.749,3.241-8.997,7.178-12.561,11.825c-0.392,0.512-1.328,0.066-1.145-0.571
							c1.847-6.322,3.468-12.783,7.35-18.234c1.387-1.939,2.92-3.762,4.485-5.554c-2.978,2.583-5.594,5.533-7.617,8.664
							c-5.506,8.51-7.094,18.564-8.525,28.405c-0.04,0.278,0.337,0.344,0.413,0.088c0.129-0.417,0.238-0.834,0.362-1.244
							c2.147-4.603,4.386-8.773,7.862-12.542c-4.585,6.607-7.131,14.561-7.211,22.91c-0.304,1.325-0.429,2.701,0.095,3.461
							c0,0.015,0,0.029,0,0.044c0.007,0.08,0.062,0.124,0.129,0.154c0.014,0.014,0.018,0.037,0.033,0.051
							c0.047,0.052,0.116,0.015,0.131-0.037c0-0.007,0-0.007,0-0.007c0.052-0.022,0.099-0.059,0.11-0.14
							c0.01-0.161,0.041-0.323,0.059-0.49c1.595-6.045,3.399-11.489,6.999-16.786c1.284-1.88,2.719-3.519,4.265-4.991
							c-2.491,2.876-4.691,6.03-6.417,9.703c-1.965,4.164-3.374,8.738-3.952,13.303c-0.673,5.283,0.468,10.757,1.263,15.966
							c0.041,0.264,0.387,0.227,0.402-0.029c0.007-0.088,0-0.183,0.003-0.278c0.135,0.044,0.3-0.007,0.348-0.176
							c1.792-6.819,4.394-13.251,8.869-18.776c1.221-1.516,2.55-2.868,3.958-4.127c-3.326,3.725-6.538,8.342-7.541,13.134
							c-0.01,0.074,0,0.14,0.041,0.191c-0.084,0.147-0.191,0.285-0.263,0.439c-0.116,0.235,0.212,0.454,0.385,0.256
							c3.403-4.039,8.818-5.488,13.705-6.885c5.74-1.647,11.298-3.725,16.929-5.693c4.792-1.683,9.677-3.088,14.44-4.852
							c-5.016,3.49-10.288,6.439-16.588,7.23c-0.212,0.022-0.197,0.336,0.018,0.33c0.52-0.044,1.043-0.11,1.566-0.183
							c13.475,1.873,27.985-0.423,41.105-3.754c10.252-2.597,19.369-7.647,27.451-14.166c-1.668,1.588-3.431,3.08-5.243,4.485
							c-5.063,3.915-10.661,6.907-16.541,9.389c-0.31,0.059-0.626,0.102-0.933,0.175c-0.176,0.037-0.165,0.242-0.059,0.336
							c-0.007,0.095,0.062,0.197,0.183,0.161c0.124-0.037,0.245-0.08,0.369-0.116c5.418-0.147,10.665,0.256,16.094-0.432
							c4.867-0.615,9.659-1.8,14.239-3.542c4.142-1.573,8.177-3.988,11.642-7.025c-3.728,5.481-8.323,10.332-14.119,13.727
							c-0.074,0.037-0.081,0.118-0.055,0.191c-0.336,0.095-0.669,0.191-1.006,0.285c-0.069,0.022-0.062,0.132,0.007,0.146
							c6.889,0.776,14.306-2.832,19.805-6.644c2.582-1.792,4.862-3.892,6.791-6.263c0.417,4.858,1.002,9.417,0.658,14.437
							c-0.315,4.735-0.674,9.498-2.671,13.874c-0.051,0.116,0.033,0.227,0.132,0.27c-0.586,0.528-1.182,1.046-1.789,1.537
							c-0.26,0.212,0.003,0.622,0.297,0.439c10.12-6.366,16.178-17.686,17.935-29.379
							C272.658,136.879,271.772,130.607,269.219,125.076z"/>
						<path fill="#BCB4A6" d="M225.311,113.485c-5.243,8.041-12.249,16.018-21.696,18.944c-0.838,0.256-1.314-0.805-0.797-1.39
							c6.15-6.951,12.129-15.213,14.031-24.447c-4.858,4.631-11.719,8.195-16.131,10.259c-13.095,6.132-27.228,10.749-41.815,10.633
							c-0.775-0.007-1.203-1.2-0.41-1.544c7.259-3.19,13.841-7.303,19.932-12.374c3.351-2.787,7.043-5.912,9.37-9.731
							c-4.084,1.742-8.214,3.374-12.411,4.8c-4.866,1.654-9.889,2.803-14.715,4.545c-3.38,1.207-6.857,2.503-10.464,1.654
							c-0.512-0.116-0.783-0.761-0.512-1.207c3.896-6.403,11.397-9.652,16.493-15.133c-7.252,1.712-15.034,4.003-21.495,7.947
							c3.582-3.439,7.087-6.849,10.921-10.025c-15.183,5.627-27.604,16.069-31.596,31.713c3.537-4.763,7.711-8.071,13.196-10.917
							c2.264-1.179,4.647-2.217,7.013-3.293c-1.002,0.878-1.962,1.8-2.851,2.678c-2.89,2.876-5.974,6.205-7.642,9.974
							c-0.029,0.074-0.01,0.132,0.022,0.191c0.914-0.425,1.851-0.798,2.784-1.134c3.293-1.193,6.616-2.275,9.966-3.271
							c1.051-0.323,2.108-0.622,3.175-0.915c2.057-0.578,4.116-1.134,6.191-1.661c0.216-0.051,0.41-0.051,0.589-0.022
							c3.344-0.805,6.721-1.676,9.908-2.941c-3.816,3.703-7.815,7.149-12.001,10.354c-2.03,1.411-4.079,2.832-6.072,4.332
							c-0.048,0.037-0.062,0.088-0.066,0.146c-1.039,0.703-2.1,1.398-3.161,2.079c-3.666,1.573-7.097,3.636-10.072,6.542
							c0.882-0.41,1.786-0.775,2.689-1.141c7.998-4.749,17.229-6.432,26.229-8.577c-3.216,1.603-6.403,3.249-9.345,5.364
							c-4.405,3.175-8.583,6.776-12.597,10.441c4.007-3.066,8.759-5.012,13.827-6.505c3.263-0.951,6.549-1.8,9.849-2.583
							c3.476-0.974,7.025-1.836,10.606-2.692c8.869-2.115,18.663-4.603,26.266-9.966c-4.888,8.496-11.356,16.273-19.23,21.886
							c-0.116,0.088-0.078,0.249,0.018,0.315c-1.482,0.637-2.971,1.236-4.47,1.815c-0.161,0.059-0.122,0.336,0.065,0.314
							c4.617-0.651,9.166-2.194,13.534-4.28c10.354-3.344,20.346-9.982,27.755-17.613c6.805-7.018,10.296-15.33,11.356-24.513
							C229.826,106.547,227.354,110.352,225.311,113.485z"/>
						<path fill="#BCB4A6" d="M266.928,144.503c2.561-7.895,2.313-16.361-2.078-24.608c-0.981-1.836-2.299-3.725-3.835-5.561
							c-3.219-3.512-6.93-6.527-11.239-8.839c3.779,5.37,5.316,12.227,5.134,18.746c-0.003,0.118-0.018,0.242-0.025,0.359
							c-0.593-7.83-3.538-16.018-8.894-21.359c-0.53-0.278-1.057-0.571-1.581-0.863c-0.33-0.11-0.658-0.191-0.988-0.278
							c4.054,5.561,1.079,15.388-1.211,20.869c-0.249-6.139-2.66-12.528-6.461-16.881c3.11,10.844,2.839,25.896-4.211,34.845
							c2.173-1.002,4.324-2.019,6.286-3.593c2.759-2.21,5.006-4.947,6.882-7.939c2.814-4.471,4.123-10.12,3.735-15.542
							c0.14,1.953,1.661,4.398,2.275,6.292c0.78,2.43,1.453,4.903,1.834,7.42c0.772,5.049,0.098,9.563-1.955,14.195
							c1.196-1.42,2.265-3.366,2.832-4.324c0.487-0.827,0.926-1.676,1.336-2.539c2.74-7.369,2.857-15.695,0.348-23.151
							c0.607,1.814,2.657,3.38,3.798,4.91C260.167,118.351,268.436,129.392,266.928,144.503z"/>
						<path fill="#A8A094" d="M257.05,107.433c-0.078-0.065-6.723-6.897-21.617-14.114c-1.067-0.517-5.985-2.483-10.492-4.05
							c-3.977-1.383-8.43-2.365-8.873-2.29c-0.393,0.066-3.297-0.069,3.231,1.33c0.251,0.053,5.048,1.474,5.394,1.593
							c0.493,0.17,10.179,3.826,13.609,5.567c4.654,2.362,15.616,9.863,15.736,9.959c14.701,11.598,17.986,25.003,17.261,35.709
							c-0.402,6-2.392,11.964-5.13,17.291c-1.492,2.89-3.395,5.539-5.531,7.984c-1.076,1.236-2.275,2.349-3.505,3.424
							c-0.725,0.614-1.471,1.2-2.239,1.748c-2.207,1.617,0.75-0.571,0.922-0.725c0.048-0.037,0.069-0.088,0.066-0.146
							c-0.263-0.556,0.893-2.941,1.076-3.556c0.344-1.12,0.541-2.29,0.746-3.447c0.358-1.968,0.49-3.973,0.643-5.964
							c0.388-5.239-0.124-10.398-0.578-15.615c0-0.022-0.015-0.036-0.03-0.051c1.904-2.905,2.503-6.454,2.65-10.068
							c0.007-0.103-0.147-0.103-0.176-0.007c-0.658,2.356-1.302,4.771-2.181,7.054c-0.746,1.962-2.192,3.424-3.344,5.122
							c-2.491,2.517-5.28,4.61-8.371,6.446c-2.418,1.434-4.983,2.547-7.654,3.396c-1.584,0.505-3.23,0.76-4.884,0.907
							c3.091-0.278-2.798,0.337-1.899-0.044c2.433-1.032,5.027-3.564,6.981-5.326c2.378-2.137,4.43-4.61,6.319-7.201
							c4.445-4.515,6.524-12.864,5.323-18.746c-0.029-0.154-0.27-0.095-0.263,0.051c0.387,6.22-2.701,12.33-5.861,17.679
							c-5.202,4.208-11.075,6.769-17.561,8.451c-6.78,1.756-13.552,1.639-20.489,1.691c-0.64,0-1.405-0.044-2.1,0
							c0.132-0.029,0.246-0.051,0.289-0.074c2.606-1.112,5.151-2.319,7.662-3.644c5.243-2.773,10.017-6.323,14.341-10.369
							c0.367-0.344,9.634-10.441,7.811-22.691c-1.039,23.935-21.556,31.406-28.735,34.267c-7.936,3.154-16.698,4.698-25.128,5.832
							c-4.357,0.593-8.751,0.871-13.148,0.871c-2.027,0-4.047-0.11-6.062-0.263c-0.991-0.08-2.115-0.358-3.154-0.395
							c0.743-0.147,1.467-0.351,2.192-0.549c1.427-0.387,2.802-0.958,4.159-1.537c2.99-1.281,14.295-5.531,30.133-19.749
							c0.534-0.476-14.594,11.379-22.574,14.562c-11.382,4.544-23.236,7.968-34.944,11.59c-3.374,1.039-6.56,2.481-9.212,4.83
							c0.047-0.219,0.106-0.468,0.183-0.775c0.336-1.398,0.808-2.796,1.573-4.003c10.881-17.255,20.994-21.484,23.141-23.935
							c0.351-0.395-7.811,3.842-15.93,11.239c-3.117,2.839-8.338,10.64-10.445,14.283c-1.098,1.895-1.976,3.907-2.796,5.934
							c-0.413,1.025-0.76,2.064-1.115,3.102c-0.183,0.542-0.552,2.759-0.999,3.747c-0.33-1.265-0.366-3.285-0.479-4.031
							c-0.256-1.639-0.447-3.286-0.586-4.94c-0.358-3.995,0.219-7.903,1.219-11.766c1.654-6.425,5.17-14.159,20.979-27.162
							c0.413-0.337-8.436,4.324-12.973,9.835c-2.851,3.461-5.602,6.718-7.534,10.756c-0.915,1.902-1.624,3.907-2.29,5.912
							c-0.143,0.432-0.59,2.678-0.992,4.208c-0.08-1.076,0.231-2.21,0.256-3.286c0.062-2.839,0.527-5.649,1.168-8.407
							c1.115-4.793,4.998-12.418,7.73-16.486c0.194-0.279-2.755,2.912-2.952,3.139c-1.686,1.888-3.15,3.878-4.479,6.037
							c-0.743,1.185-1.39,2.429-2.03,3.681c-0.161,0.307-0.41,1.009-0.684,1.748c0.197-1.179,0.483-2.393,0.517-2.59
							c0.249-1.617,0.545-3.212,0.852-4.807c0.615-3.198,1.449-6.344,2.477-9.432c1.786-5.386,4.789-10.178,8.378-14.533
							c6.229-7.572,16.232-14.67,25.666-18.854c0.381-0.169,10.573-3.656,19.429-5.297c4.286-0.794,12.666-1.629,20.013-1.586
							c8.633,0.05,16.044,1.134,16.258,1.049c0.048-0.019,3.971,0.763,5.538,0.812c1.622,0.051,1.351-0.473,0.116-0.651
							c-2.989-0.432-15.154-1.932-22.218-1.926c-7.009,0.005-16.196,1.011-19.962,1.638c-2.471,0.411-11.212,2.7-11.107,2.661
							c0.801-0.292-6.858,2.406-7.227,2.538c-10.712,3.907-20.295,10.896-27.678,19.545c-3.717,4.361-6.56,9.292-8.488,14.678
							c-1.233,3.447-2.016,7.047-2.708,10.633c-0.304,1.588-2.079,7.448-1.164,8.818c0.183,0.27,0.903,0.051,1.108-0.074
							c1.153-0.717,1.976-4.083,2.65-5.386c0.242-0.468,0.505-0.921,0.764-1.383c-1.104,2.62-1.949,5.349-2.535,8.187
							c-0.574,2.796-0.41,5.686-0.933,8.474c-0.194,1.032-0.091,1.998,0.464,2.861c0.165,0.249,0.79,0.066,0.992-0.007
							c0.125-0.052,0.216-0.118,0.304-0.184c-0.289,2.262-0.366,4.529-0.231,6.835c0.129,2.062,0.464,4.12,0.78,6.168
							c0.15,0.951,0.069,3.234,0.827,3.885c0.274,0.235,0.974,0.11,1.203-0.139c0.135-0.146,0.553-0.579,0.593-0.739
							c0.773-2.846,1.676-5.635,2.781-8.371c0.476-1.193,1.028-2.349,1.614-3.483c-0.468,1.179-0.769,2.341-0.538,3.154
							c0.072,0.242,0.53,0.168,0.699,0.154c0.26-0.036,0.648-0.051,0.838-0.27c1.742-1.91,3.743-3.22,6.081-4.295
							c3.834-1.756,8.133-2.613,12.143-3.901c7.998-2.576,16.003-5.298,23.928-8.145c-2.334,1.507-4.73,2.876-7.303,3.981
							c-2.235,0.958-4.595,1.514-6.992,1.858c-0.31,0.052-0.498,0.176-0.692,0.41c-0.047,0.066-0.106,0.147-0.029,0.212
							c0.852,0.747,3.429,0.248,4.449,0.367c3.274,0.366,6.574,0.417,9.867,0.358c7.438-0.11,14.858-1.265,22.127-2.773
							c9.527-1.983,18.231-5.181,26.309-10.003c-1.471,1.032-2.96,2.028-4.511,2.957c-2.353,1.383-4.815,2.582-7.295,3.717
							c-1.046,0.49-2.683,0.541-3.476,1.411c-0.048,0.037-0.066,0.081-0.062,0.147c0.11,0.285,0.285,0.498,0.622,0.519
							c1.73,0.11,3.568-0.146,5.323-0.139c4.669,0.029,9.274-0.059,13.896-0.783c7.559-1.179,14.828-3.783,21.052-8.167
							c-0.018,0.029-0.033,0.052-0.051,0.081c-0.019,0.029-0.011,0.059-0.019,0.088c-1.693,2.21-3.53,4.289-5.571,6.212
							c-1.991,1.887-4.709,4.522-7.397,5.298c-0.135,0.037-0.447,0.14-0.436,0.336l0.01,0.132c0.011,0.146,0.268,0.161,0.362,0.176
							c9.38,0.761,19.028-4.405,25.577-11.086c0.26-0.249,0.53-0.483,0.765-0.739c0.439,5.203,0.775,10.31,0.381,15.557
							c-0.235,3.124-0.703,6.205-1.621,9.212c-0.019,0.051-0.875,2.297-0.882,2.297c0.242,0.498-1.599,1.413-1.708,2.093
							c-0.018,0.147,0.076,0.205,0.216,0.227c1.507,0.3,2.692-0.974,3.819-1.844c2.606-2.034,4.984-4.346,6.966-7.002
							c4.581-6.139,7.369-13.222,8.577-20.759C274.144,132.004,270.192,118.921,257.05,107.433z"/>
						<path fill="#BCB4A6" d="M173.134,91.289l-9.059,4.31l22.421-0.582c0,0-3.864,2.482-12.705,8.619l26.686-5.162
							c0,0-0.036,3.272-6.012,8.651c0,0-10.228,8.273-0.073,5.643c0,0,8.266-1.938,26.154-13.588c0,0,1.242-0.047,0.146,8.694
							c-0.014,0.115-3.577,10.612-3.506,10.52c5.408-7.043,7.088-8.521,8.621-11.269c0,0-1.388,2.11,5.914-9.261l2.638-3.982
							c0,0-4.912-2.974-16.567-5.818c-6.787-1.656-15.782-2.241-26.832-1.889c-2.092,0.066-7.863,1.675-11.455,3.069L173.134,91.289
							z"/>
					</g>
				</g>
				<g>
					<path fill="#E9C6B0" d="M184.688,233.756c0,0,9.042,2.4,14.213-0.605c0,0-0.503,3.097-5.985,3.658
						C187.43,237.371,184.688,233.756,184.688,233.756z"/>
					<g id="Capa_3_2_">
						<g>
							<path fill="#D3CBBE" d="M237.722,167.098c-5.351-4.389-11.063-3.843-17.498-2.382c-3.218,0.734-6.251,1.949-9.148,3.513
								c-1.464,0.786-4.423,2.884-5.855,0.617c-0.512-0.805-1.379-2.551-1.175-3.538c0.035-0.166-0.145-0.178-0.248-0.111
								c-3.117,2.017-0.847,8.371,3.018,7.141c4.949-1.579,9.118-4.343,14.287-5.524c5.322-1.215,11.258-1.848,16.245,0.731
								C237.545,167.647,237.914,167.255,237.722,167.098z"/>
							<g>
								<g>
									<g>
										<path fill="#D3CBBE" d="M235.693,161.823c-1.331-1.129-3.222-2.462-4.423-2.863c-1.507-0.667-6.087-0.524-11.122,0.204
											c-0.888,0.223-1.778,0.432-2.662,0.679c-3.35,0.95-6.874,1.855-10.002,3.406c-1.263,0.626-2.476,1.37-3.763,1.931
											c0.043,1.036,0.234,3.097,0.317,3.578c-0.052-0.056-0.11-0.108-0.16-0.166c-0.284-0.358-0.607-0.848-0.981-1.166
											c0.093,0.88,0.307,1.759,0.671,2.532c0.692,0.487,1.424,1.033,2.215,1.36c6.58-3.85,13.806-7.122,21.82-6.493
											c4.711,0.374,8.338,1.151,11.721,3.73c0.105-0.102,0.223-0.185,0.33-0.284C239.451,166.111,237.297,163.6,235.693,161.823
											z"/>
									</g>
								</g>
								<g>
									<g>
										<path fill="#BCB4A6" d="M239.633,168.097c-6.65-5.266-14.97-7.175-22.855-4.472c-4.019,1.376-7.519,3.634-11.323,5.527
											c-0.716,0.355-1.445,0.376-2.141,0.191c0.072,0.216,0.17,0.417,0.262,0.617c0.693,0.487,1.421,1.03,2.209,1.358
											c6.58-3.85,13.806-7.122,21.82-6.493c4.711,0.374,8.338,1.151,11.721,3.73c0.105-0.102,0.219-0.191,0.33-0.284
											C239.649,168.212,239.64,168.153,239.633,168.097z"/>
									</g>
								</g>
							</g>
						</g>
						<g>
							<path fill="#EAC8B2" d="M185.737,204.708c-0.524-0.083-1.047-0.145-1.57-0.197c2.332,2.351,3.751,5.827,6.888,7.184
								c5.895,2.557,7.878-4.069,9.926-8.026c-2.685,0.71-6.719,1.644-9.492,1.752C188.988,205.52,188.174,205.113,185.737,204.708z
								"/>
							<path fill="#E2B296" d="M196.169,206.886c1.826-0.762,3.357-1.928,4.805-3.202c0.002-0.009,0.002-0.012,0.008-0.016
								c-2.685,0.71-6.719,1.644-9.492,1.752c-2.501,0.099-3.316-0.308-5.752-0.712c-0.524-0.083-1.047-0.145-1.57-0.197
								c0.302,0.302,0.591,0.626,0.865,0.959C188.536,207.133,192.47,208.432,196.169,206.886z"/>
							<path fill="#8B6854" d="M190.705,206.142c3.162-0.25,6.059-1.027,9.024-1.887c0.028-0.031,0.048-0.059,0.077-0.093
								c0.219-0.278-5.394,0.743-7.985,1.196c-2.409,0.423-4.821-0.75-7.23-0.941c0.284-5.663,1.954-20.137,2.35-23.862
								c-0.003,0.012-0.01,0.022-0.017,0.031c-0.99,2.203-1.169,4.343-1.527,6.687c-0.285,1.866-2.143,14.458-2.606,16.564
								c-0.221,0.999,1.552,1.453,1.691,1.394c3.57,2.375,4.496,2.733,7.344,2.81c2.333,0.065,3.984,0.395,6.604-2.304
								c-1.46,0.919-2.369,1.953-7.648,1.471c-0.426-0.037-3.549-0.953-3.517-1.259
								C187.294,205.723,190.383,206.167,190.705,206.142z"/>
							<path fill="#F5E8E0" d="M187.538,180.368c-0.812,7.348-3.131,15.636-1.881,23.002c0.166,0.987,3.452,1.49,3.388,0.456
								c-0.478-7.397-1.11-16.012-1.044-23.427C188.006,180.155,187.563,180.124,187.538,180.368z"/>
						</g>
						<g>
							<path fill="#EAC8B2" d="M147.661,178.681c1.932,1.055,3.802,3.054,7.542,4.549c3.173,1.271,5.59,1.675,9.003,1.9
								c4.721,0.311,9.502,0,13.785-1.872c-0.114-0.481-0.374-1.024-0.598-1.453c-0.842-3.088-2.102-5.885-3.958-8.097
								c-4.502-3.951-10.265-5.987-16.505-4.587c-2.224,0.5-3.834,1.132-5.156,2.952c-1.605,2.209-1.403,3.167-1.993,5.546
								C149.655,178.119,148.802,178.341,147.661,178.681z M151.222,177.919c0.057-0.25-0.098-0.568-0.319-0.812
								c1.093-2.489,2.807-5.031,5.099-5.84c2.979-1.057,6.35-0.879,9.411-0.228c5.518,1.166,7.992,4.648,10.347,8.967
								c0.191,2.286-0.612,2.628-2.992,2.872c-2.438,0.25-4.912,0.438-7.369,0.305c-1.515-0.084-9.238-0.929-12.624-2.912
								c-0.014-0.043-0.02-0.084-0.046-0.139c-0.227-0.45-1.36-1.403-1.509-1.987C151.227,178.07,151.204,177.999,151.222,177.919z"
								/>
							<g>
								<path fill="#8B6854" d="M150.211,178.1c2.941,4.75,9.799,5.821,13.579,6.04c2.344,0.135,10.224-0.876,11.697-1.358
									c0.04-0.022,0.077-0.046,0.114-0.071c0.43-0.29,0.595-0.651,0.611-1.049c0.09,0.142,0.646,0.574,0.549,0.367
									c-0.885-1.885-1.516-3.893-2.58-5.707c-1.92-3.273-6.382-5.565-10.247-6.326c-0.889-0.176-1.789-0.311-2.715-0.386
									c-3.092-0.25-6.492,0.108-8.498,2.595C151.635,173.56,150.54,176.318,150.211,178.1z"/>
								<path fill="#FFFFFF" d="M151.426,177.749c1.445-3.742,2.732-7.218,7.884-7.304c4.071-0.068,9.663,1.57,12.864,4.343
									c0.7,0.793,3.959,5.953,2.943,6.879c-0.409,0.374-2.181,0.947-2.576,1.046c-2.322,0.568-4.986,0.617-7.386,0.673
									C160.658,183.49,153.34,182.503,151.426,177.749z"/>
							</g>
							<g>
								<g>
									<g>
										<g>
											<g>
												<g>
													<defs>
														<path id="SVGID_3_" d="M151.426,177.749c1.445-3.742,2.732-7.218,7.884-7.304c4.071-0.068,9.663,1.57,12.864,4.343
															c0.7,0.793,3.959,5.953,2.943,6.879c-0.409,0.374-2.181,0.947-2.576,1.046c-2.322,0.568-4.986,0.617-7.386,0.673
															C160.658,183.49,153.34,182.503,151.426,177.749z"/>
													</defs>
													<clipPath id="SVGID_4_">
														<use xlink:href="#SVGID_3_"  overflow="visible"/>
													</clipPath>
													<g clip-path="url(#SVGID_4_)">
														<g>
															<path fill="#200F10" d="M169.768,177.456c0,4.494-2.753,8.144-6.152,8.144c-3.398,0-6.149-3.649-6.149-8.144
																s2.752-8.14,6.149-8.14C167.015,169.316,169.768,172.962,169.768,177.456z"/>
															<path fill="#363536" d="M163.616,169.88c-3.108,0-5.626,3.331-5.626,7.446c0,4.112,2.519,7.446,5.626,7.446
																c3.11,0,5.629-3.334,5.629-7.446C169.246,173.212,166.726,169.88,163.616,169.88z"/>
															<path fill="#0F0A0F" d="M167.427,177.012c0,2.832-1.733,5.133-3.882,5.133c-2.141,0-3.879-2.301-3.879-5.133
																c0-2.838,1.738-5.139,3.879-5.139C165.693,171.873,167.427,174.175,167.427,177.012z"/>
															<path fill="#FCF7E0" d="M162.072,173.983c-0.276,1.262-1.138,2.15-1.919,1.974c-0.779-0.17-1.186-1.335-0.91-2.6
																c0.279-1.264,1.138-2.15,1.92-1.977C161.945,171.553,162.352,172.718,162.072,173.983z"/>
															<path fill="#363536" d="M166.685,181.108c-3.678,3.948-7.292,0.882-7.467-3.708c-0.002-0.127-0.822,0.611-0.814,0.7
																c0.172,2.539,1.2,4.827,3.636,5.882c2.1,0.91,4.009-0.423,5.162-2.048
																C167.295,181.803,166.782,181.003,166.685,181.108z"/>
														</g>
													</g>
												</g>
											</g>
										</g>
									</g>
								</g>
							</g>
							<g>
								<path fill="#D3CBBE" d="M179.973,165.951c-0.993-0.734-2.868,1.037-1.965,1.962c-0.045,1.836-0.624,2.134-1.732,0.895
									c-0.449-0.308-0.918-0.58-1.409-0.82c-1.521-0.863-3.045-1.614-4.655-2.295c-3.267-1.388-6.675-2.092-10.211-2.233
									c-3.556-0.139-7.124,0.752-10.56,1.542c-2.275,0.527-4.752,1.283-6.404,2.998c-0.135,0.135-0.301,0.432-0.118,0.605
									c0.014,0.016,0.031,0.031,0.047,0.043c0.093,0.09,0.231,0.077,0.338,0.031c0.057-0.028,0.113-0.055,0.168-0.08
									c0.108-0.049,0.235-0.163,0.246-0.29c0.003-0.031,0.003-0.065,0.007-0.098c0.006-0.08-0.037-0.154-0.131-0.129
									c4.394-0.99,9.476-1.876,14.002-2.143c5.519-0.324,10.947,1.671,15.659,4.389c1.876,1.083,4.215,3.109,6.249,1.083
									C181.005,169.911,181.997,167.449,179.973,165.951z"/>
								<g>
									<g>
										<g>
											<path fill="#D3CBBE" d="M147.214,161.823c1.334-1.129,3.222-2.462,4.425-2.863c1.503-0.667,6.085-0.524,11.12,0.204
												c0.89,0.223,1.781,0.432,2.663,0.679c3.35,0.95,6.872,1.855,10.002,3.406c1.263,0.626,2.474,1.37,3.762,1.931
												c-0.043,1.036-0.231,3.097-0.317,3.578c0.051-0.056,0.111-0.108,0.157-0.166c0.285-0.358,0.609-0.848,0.982-1.166
												c-0.094,0.88-0.305,1.759-0.671,2.532c-0.692,0.487-1.424,1.033-2.215,1.36c-6.58-3.85-13.805-7.122-21.82-6.493
												c-4.71,0.374-8.338,1.151-11.72,3.73c-0.108-0.102-0.223-0.185-0.332-0.284
												C143.457,166.111,145.611,163.6,147.214,161.823z"/>
										</g>
									</g>
									<g>
										<g>
											<path fill="#BCB4A6" d="M143.276,168.097c6.649-5.266,14.97-7.175,22.854-4.472c4.02,1.376,7.522,3.634,11.323,5.527
												c0.718,0.355,1.447,0.376,2.143,0.191c-0.072,0.216-0.168,0.417-0.265,0.617c-0.691,0.487-1.418,1.03-2.207,1.358
												c-6.58-3.85-13.805-7.122-21.82-6.493c-4.71,0.374-8.338,1.151-11.72,3.73c-0.108-0.102-0.221-0.191-0.332-0.284
												C143.256,168.212,143.269,168.153,143.276,168.097z"/>
										</g>
									</g>
								</g>
							</g>
							<g>
								<g>
									<path fill="#E9C6B0" d="M216.891,219.761c0.148,0.425,0.043,0.829-0.767,1.02c-0.592,0.351-1.563,0.62-3.067,0.786
										c-6.578,0.718-13.588,0.06-20.149-0.376c-3.411-0.228-6.667-0.353-10.074-0.075c-1.487,0.148-4.504,0.551-7.492,0.731
										c-0.945,0.086-1.892,0.161-2.852,0.21c-1.129,0.057-1.993,0.007-2.702-0.137c-1.359-0.077-2.491-0.31-3.126-0.804
										c-0.323,0.336-0.393,0.701,0.118,1.121c0.446,0.363,1.014,0.656,1.665,0.912c1.089,0.078,2.304,0.073,3.11,0.631
										c1.24,0.856,3.067,2.29,4.187,3.465c5.545,3.44,17.388,4.049,25.056,2.576c5.674-1.089,8.073-2.89,10.938-5.323
										c0.47-0.397,0.967-0.756,1.499-1.085C216.01,220.833,218.96,221.763,216.891,219.761z"/>
									<path fill="#974B1C" d="M216.713,219.389c0.366,0.601,0.486,1.271-0.957,1.458c-0.579,0.075-1.166,0.121-1.76,0.156
										c-1.665,0.208-3.425,0.261-5.153,0.365c-3.634,0.217-7.318,0.174-10.97,0.153c-5.194-0.028-10.612-0.839-15.749-0.309
										c-0.472,0.013-0.94,0.029-1.419,0.049c-2.713,0.325-5.424,0.656-8.214,0.796c-1.129,0.057-1.993,0.007-2.702-0.137
										c-1.303-0.073-2.392-0.293-3.04-0.745c0.799,1.126,2.188,1.439,4.227,1.463c3.54,1.603,4.679,4.345,9.118,5.444
										c4.241,1.048,9.596,1.601,14.357,1.514c4.116-0.077,8.49-0.815,11.545-2.151c1.592-0.694,2.446-1.591,3.276-2.516
										c1.409-1.574,3.143-2.433,5.946-3.432c0.029-0.01,0.042-0.026,0.059-0.039c0.412-0.078,0.83-0.153,1.213-0.248
										c0.202-0.005,0.401-0.041,0.549-0.116c0.013-0.007,0.016-0.013,0.027-0.018c0.003-0.002,0.013-0.002,0.013-0.002
										c0.193-0.059,0.285-0.138,0.317-0.226C217.893,220.37,217.525,219.751,216.713,219.389z M208.287,224.741
										c-2.382,2.656-6.384,3.926-12.354,4.199c-4.745,0.217-10.125-0.374-14.497-1.202c-4.746-0.897-6.012-3.634-9.861-5.093
										c0.347-0.005,0.716-0.015,1.096-0.031c5.183-0.193,10.039-1.261,15.321-1.328c0.043,0,0.065-0.018,0.059-0.036
										c4.075,0.194,8.24,0.711,12.173,0.807c3.492,0.085,8.034,0.185,11.996-0.18
										C210.358,222.561,209.202,223.723,208.287,224.741z"/>
									<path fill="#841A1E" d="M208.287,224.741c-2.382,2.656-6.384,3.926-12.354,4.199c-4.745,0.217-10.125-0.374-14.497-1.202
										c-4.746-0.897-6.012-3.634-9.861-5.093c0.347-0.005,0.716-0.015,1.096-0.031c5.183-0.193,10.039-1.261,15.321-1.328
										c0.043,0,0.065-0.018,0.059-0.036c4.075,0.194,8.24,0.711,12.173,0.807c3.492,0.085,8.034,0.185,11.996-0.18
										C210.358,222.561,209.202,223.723,208.287,224.741z"/>
									<path fill="#FFFFFF" d="M207.005,223.561c0.756-0.47,1.445-0.968,2.068-1.488c-3.084,0.119-6.256,0.047-8.85-0.016
										c-3.933-0.096-8.099-0.613-12.173-0.807c0.006,0.018-0.016,0.036-0.059,0.036c-4.01,0.052-7.772,0.677-11.62,1.059
										c1.034,1.076,2.175,1.905,5.273,2.241c2.958,0.316,5.882,0.672,8.924,0.76c3.698,0.103,7.271-0.044,10.779-0.404
										C203.412,224.633,205.399,224.22,207.005,223.561z"/>
									<path opacity="0.6" fill="#B5A795" enable-background="new    " d="M204.001,223.377c-0.432,0.588-1.145,1.068-2.038,1.47
										c1.844-0.298,3.597-0.693,5.043-1.285c0.756-0.47,1.445-0.968,2.068-1.488c-3.084,0.119-6.256,0.047-8.85-0.016
										c-3.933-0.096-8.099-0.613-12.173-0.807c0.006,0.018-0.016,0.036-0.059,0.036c-4.01,0.052-7.772,0.677-11.62,1.059
										c0.093,0.097,0.187,0.189,0.283,0.281c4.101-0.172,8.091-0.666,12.261-0.563c4.888,0.123,9.695,0.517,14.529,0.869
										C203.89,222.965,204.156,223.17,204.001,223.377z"/>
									<path fill="#CD6F5C" d="M194.277,226.873c-4.638-0.262-8.363,0.118-12.053,1.004c4.227,0.75,9.244,1.266,13.709,1.063
										c2.15-0.097,4.037-0.332,5.693-0.708C199.417,227.546,197.016,227.03,194.277,226.873z"/>
								</g>
							</g>
							<g>
								<path fill="#EAC8B2" d="M234.087,177.746c-0.592-2.382-0.39-3.337-1.993-5.545c-1.324-1.82-2.934-2.456-5.157-2.955
									c-6.24-1.397-12.003,0.636-16.505,4.59c-1.859,2.209-3.117,5.006-3.959,8.097c-0.223,0.426-0.481,0.969-0.598,1.453
									c4.283,1.869,9.069,2.184,13.786,1.872c3.411-0.225,5.831-0.633,9.007-1.903c3.739-1.496,5.606-3.495,7.54-4.549
									C235.063,178.468,234.209,178.245,234.087,177.746z M232.644,178.274c-0.15,0.583-1.28,1.536-1.509,1.987
									c-0.029,0.052-0.031,0.093-0.046,0.139c-3.386,1.981-11.111,2.826-12.627,2.909c-2.454,0.135-4.927-0.052-7.367-0.305
									c-2.375-0.244-3.185-0.583-2.992-2.872c2.355-4.315,4.829-7.801,10.349-8.967c3.061-0.648,6.43-0.827,9.413,0.229
									c2.29,0.808,4.002,3.353,5.097,5.839c-0.223,0.244-0.377,0.562-0.317,0.814
									C232.662,178.123,232.638,178.196,232.644,178.274z"/>
								<g>
									<g>
										<path fill="#8B6854" d="M230.838,172.206c-2.004-2.486-5.404-2.844-8.495-2.595c-0.924,0.074-1.826,0.21-2.715,0.386
											c-3.865,0.762-8.327,3.054-10.249,6.326c-1.063,1.814-1.695,3.822-2.58,5.707c-0.095,0.206,0.46-0.225,0.552-0.367
											c0.016,0.398,0.182,0.759,0.607,1.049c0.039,0.025,0.077,0.049,0.117,0.071c1.473,0.481,9.353,1.493,11.696,1.358
											c3.783-0.219,10.637-1.29,13.579-6.04C233.023,176.318,231.928,173.56,230.838,172.206z"/>
										<path fill="#FFFFFF" d="M218.408,183.384c-2.398-0.056-5.06-0.105-7.384-0.673c-0.392-0.099-2.168-0.673-2.577-1.046
											c-1.016-0.925,2.244-6.085,2.941-6.879c3.202-2.773,8.794-4.411,12.867-4.343c5.153,0.086,6.441,3.562,7.887,7.304
											C230.225,182.503,222.903,183.49,218.408,183.384z"/>
									</g>
									<g>
										<g>
											<g>
												<g>
													<g>
														<g>
															<defs>
																<path id="SVGID_5_" d="M218.408,183.384c-2.398-0.056-5.06-0.105-7.384-0.673c-0.392-0.099-2.168-0.673-2.577-1.046
																	c-1.016-0.925,2.244-6.085,2.941-6.879c3.202-2.773,8.794-4.411,12.867-4.343c5.153,0.086,6.441,3.562,7.887,7.304
																	C230.225,182.503,222.903,183.49,218.408,183.384z"/>
															</defs>
															<clipPath id="SVGID_6_">
																<use xlink:href="#SVGID_5_"  overflow="visible"/>
															</clipPath>
															<g clip-path="url(#SVGID_6_)">
																<g>
																	<path fill="#200F10" d="M226.1,177.456c0,4.494-2.756,8.144-6.154,8.144c-3.399,0-6.152-3.649-6.152-8.144
																		s2.753-8.14,6.152-8.14C223.344,169.316,226.1,172.962,226.1,177.456z"/>
																	<path fill="#363536" d="M219.946,169.88c-3.107,0-5.629,3.331-5.629,7.446c0,4.112,2.522,7.446,5.629,7.446
																		c3.109,0,5.628-3.334,5.628-7.446C225.575,173.212,223.055,169.88,219.946,169.88z"/>
																	<path fill="#0F0A0F" d="M223.757,177.012c0,2.832-1.736,5.133-3.884,5.133c-2.141,0-3.879-2.301-3.879-5.133
																		c0-2.838,1.738-5.139,3.879-5.139C222.021,171.873,223.757,174.175,223.757,177.012z"/>
																	<path fill="#FCF7E0" d="M218.401,173.983c-0.278,1.262-1.135,2.15-1.919,1.974c-0.781-0.17-1.186-1.335-0.908-2.6
																		s1.136-2.15,1.919-1.977C218.273,171.553,218.679,172.718,218.401,173.983z"/>
																	<path fill="#363536" d="M223.014,181.108c-3.677,3.948-7.292,0.882-7.465-3.708
																		c-0.003-0.127-0.822,0.611-0.816,0.7c0.17,2.539,1.202,4.827,3.635,5.882c2.1,0.91,4.01-0.423,5.166-2.048
																		C223.625,181.803,223.115,181.003,223.014,181.108z"/>
																</g>
															</g>
														</g>
													</g>
												</g>
											</g>
										</g>
									</g>
								</g>
								<path display="none" fill="#272627" d="M219.23,166.362c-10.471,0-19.114,5.18-20.277,11.824
									c-5.374-1.58-10.982-0.658-13.803,0.019c-1.149-6.653-9.799-11.843-20.278-11.843c-11.263,0-20.422,5.988-20.422,13.347
									c0,7.363,9.159,13.352,20.422,13.352c11.186,0,20.29-5.913,20.406-13.211c2.224-0.587,8.265-1.84,13.547,0.046
									c0.155,7.276,9.242,13.165,20.406,13.165c11.257,0,20.424-5.989,20.424-13.352
									C239.654,172.35,230.487,166.362,219.23,166.362z M164.873,191.501c-9.944,0-18.036-5.29-18.036-11.792
									c0-6.499,8.092-11.787,18.036-11.787c9.941,0,18.031,5.287,18.031,11.787C182.903,186.211,174.814,191.501,164.873,191.501z
									 M219.23,191.501c-9.941,0-18.031-5.29-18.031-11.792c0-6.499,8.089-11.787,18.031-11.787
									c9.948,0,18.031,5.287,18.031,11.787C237.261,186.211,229.178,191.501,219.23,191.501z"/>
								<g>
									<g>
										<g>
											<g>
												<path fill="#AB8C77" d="M144.158,181.129l0.08-1.007c-0.157-0.014-3.842-0.276-6.061,2.11l0.291,0.271
													C140.583,180.663,144.126,181.126,144.158,181.129z"/>
											</g>
											<g>
												<path fill="#AB8C77" d="M144.837,183.092l-0.219-0.986c-0.152,0.034-3.753,0.865-5.175,3.795l0.36,0.173
													C141.278,183.695,144.804,183.097,144.837,183.092z"/>
											</g>
										</g>
									</g>
									<g>
										<g>
											<g>
												<path fill="#AB8C77" d="M239.865,181.129l-0.078-1.007c0.154-0.014,3.839-0.276,6.062,2.11l-0.292,0.271
													C243.44,180.663,239.897,181.126,239.865,181.129z"/>
											</g>
											<g>
												<path fill="#AB8C77" d="M239.189,183.092l0.217-0.986c0.15,0.034,3.753,0.865,5.175,3.795l-0.361,0.173
													C242.746,183.695,239.221,183.097,239.189,183.092z"/>
											</g>
										</g>
									</g>
								</g>
								<path fill="#AB8C77" d="M200.246,237.531c-5.53,2.493-11.68,2.908-17.233,0.368c-0.223-0.102-0.533,0.13-0.321,0.315
									c4.561,3.966,12.969,2.357,18.157,0.405C201.664,238.313,201.04,237.175,200.246,237.531z"/>
								<path fill="#AB8C77" d="M200.246,242.578c-5.53,2.494-11.68,2.908-17.233,0.369c-0.223-0.103-0.533,0.13-0.321,0.314
									c4.561,3.966,12.969,2.358,18.157,0.405C201.664,243.36,201.04,242.222,200.246,242.578z"/>
								<path fill="#B6886F" d="M157.149,186.407c3.593,3.47,8.267,3.228,12.286,0.539c0.307-0.205,0.627,0.25,0.326,0.461
									c-4.048,2.835-9.54,3.454-13.136-0.409C156.286,186.634,156.775,186.046,157.149,186.407z"/>
								<path fill="#B6886F" d="M157.246,193.175c3.45,3.611,8.367,2.124,12.485,0.566c0.411-0.155,0.624,0.461,0.222,0.625
									c-4.409,1.797-9.591,3.297-13.424-0.382C156.019,193.495,156.769,192.677,157.246,193.175z"/>
								<path fill="#B6886F" d="M226.065,186.407c-3.593,3.47-8.268,3.228-12.286,0.539c-0.307-0.205-0.626,0.25-0.325,0.461
									c4.047,2.835,9.54,3.454,13.136-0.409C226.927,186.634,226.439,186.046,226.065,186.407z"/>
								<path fill="#B6886F" d="M225.968,193.175c-3.449,3.611-8.366,2.124-12.485,0.566c-0.412-0.155-0.624,0.461-0.222,0.625
									c4.409,1.797,9.592,3.297,13.425-0.382C227.195,193.495,226.444,192.677,225.968,193.175z"/>
								<g>
									<path fill="#221D1F" d="M179.836,192.78h-30.251c-2.949,0-5.347-2.16-5.347-4.816v-21.745c0-2.656,2.398-4.816,5.347-4.816
										h30.251c2.947,0,5.347,2.16,5.347,4.816v21.745C185.182,190.62,182.783,192.78,179.836,192.78z M149.585,163.812
										c-1.474,0-2.674,1.08-2.674,2.408v21.745c0,1.328,1.2,2.408,2.674,2.408h30.251c1.474,0,2.673-1.08,2.673-2.408V166.22
										c0-1.328-1.199-2.408-2.673-2.408H149.585z"/>
								</g>
								<g>
									<path fill="#221D1F" d="M234.528,192.78h-30.251c-2.949,0-5.348-2.16-5.348-4.816v-21.745c0-2.656,2.399-4.816,5.348-4.816
										h30.251c2.948,0,5.347,2.16,5.347,4.816v21.745C239.875,190.62,237.476,192.78,234.528,192.78z M204.277,163.812
										c-1.474,0-2.674,1.08-2.674,2.408v21.745c0,1.328,1.2,2.408,2.674,2.408h30.251c1.474,0,2.673-1.08,2.673-2.408V166.22
										c0-1.328-1.199-2.408-2.673-2.408H204.277z"/>
								</g>
								<g>
									<path fill="#221D1F" d="M185.017,178.556l-1.745-1.014c0.123-0.171,2.634-4.139,7.679-4.708
										c3.374-0.38,6.327,0.21,9.728,3.056l-0.505,1.973c-2.929-2.452-5.803-3.538-8.536-3.231
										C187.543,175.093,185.041,178.521,185.017,178.556z"/>
								</g>
							</g>
						</g>
					</g>
				</g>
				<circle fill="none" stroke="#4CAF50" stroke-width="18" stroke-miterlimit="10" cx="188.873" cy="189.444" r="163.828"/>
				<g>
					<g>
						<path fill="#AB8C77" d="M164.053,224.042l0.409-0.145c-1.157-3.851,2.693-5.685,2.707-5.688l-0.658-0.729
							c-0.067,0.019-1.631,0.516-2.442,2.116C163.45,220.811,163.448,222.306,164.053,224.042z"/>
					</g>
					<g>
						<path fill="#AB8C77" d="M220.827,224.042l-0.416-0.145c1.16-3.851-2.691-5.685-2.705-5.688l0.658-0.729
							c0.068,0.019,1.635,0.516,2.442,2.116C221.425,220.811,221.433,222.306,220.827,224.042z"/>
					</g>
				</g>
				<polyline fill="#272627" points="239.654,179.71 257.415,174.674 257.516,171.834 239.189,176.884 				"/>
				<polyline fill="#272627" points="144.45,179.71 125.725,174.319 125.507,171.562 144.893,176.943 				"/>
			</g>
			<use xlink:href="#SVGID_1_"  overflow="visible" fill="none" stroke="#4CAF50" stroke-miterlimit="10"/>
		</g>
	</g>
</g>
</svg>
