<?xml version="1.0" encoding="utf-8"?>
<!-- Generator: Adobe Illustrator 17.0.0, SVG Export Plug-In . SVG Version: 6.00 Build 0)  -->
<!DOCTYPE svg PUBLIC "-//W3C//DTD SVG 1.1//EN" "http://www.w3.org/Graphics/SVG/1.1/DTD/svg11.dtd">
<svg version="1.1" id="Capa_1" xmlns="http://www.w3.org/2000/svg" xmlns:xlink="http://www.w3.org/1999/xlink" x="0px" y="0px"
	 width="612px" height="792px" viewBox="0 0 612 792" enable-background="new 0 0 612 792" xml:space="preserve">
<title>Mesa de trabajo 1</title>
<g>
	<circle opacity="0.2" enable-background="new    " cx="310.59" cy="624.735" r="105.57"/>
	<circle fill="#FFFFFF" cx="304.852" cy="621.675" r="104.805"/>
	
		<radialGradient id="SVGID_1_" cx="80.0693" cy="760.3693" r="24.6678" gradientTransform="matrix(3.825 0 0 3.825 -1.4125 -2286.7375)" gradientUnits="userSpaceOnUse">
		<stop  offset="0" style="stop-color:#FFFFFF"/>
		<stop  offset="0.4846" style="stop-color:#F5F5F5"/>
		<stop  offset="1" style="stop-color:#E6E6E6"/>
	</radialGradient>
	<circle fill="url(#SVGID_1_)" cx="304.852" cy="621.675" r="94.477"/>
	<circle fill="#FAFAFA" stroke="#E0E0E0" stroke-width="0.4413" stroke-miterlimit="10" cx="304.852" cy="621.675" r="50.873"/>
	<circle fill="none" stroke="#FFC107" stroke-width="1.738" stroke-miterlimit="10" cx="304.852" cy="621.675" r="94.095"/>
	<path opacity="0.5" fill="#FFFFFF" enable-background="new    " d="M379.057,547.47L231.03,695.497
		c-40.928-40.927-40.928-107.1,0-148.027S338.13,506.542,379.057,547.47z"/>
	<path opacity="0.1" enable-background="new    " d="M261.248,621.675c0-27.158,21.037-48.96,47.813-50.49c-1.148,0-2.295,0-3.443,0
		c-27.923,0-50.873,22.568-50.873,50.872c0,28.305,22.568,50.873,50.873,50.873c1.147,0,2.295,0,3.443,0
		C282.285,670.635,261.248,648.833,261.248,621.675z"/>
	<g id="XMLID_12_">
		<g opacity="0.6">
			<path id="XMLID_27_" d="M416.16,719.595h2.295l0.382-35.19c0-0.383,0-0.765,0.383-0.765c0.383-0.383,1.148-0.383,1.53,0
				l-0.382,35.955h2.295l0.383-35.19l0,0c0.382-0.765,1.53-0.383,1.53,0.383v34.808h2.677l0.382-34.808
				c0-0.765,1.148-1.148,1.53-0.383l0,0v35.19h2.295l-0.383-35.955c0.383-0.383,1.148-0.383,1.53,0
				c0.382,0.383,0.382,0.383,0.382,0.765v35.19h2.295V666.81c0-1.148-0.382-2.295-0.765-3.06l-4.59-9.563
				c-0.383-1.148-0.765-2.295-0.765-3.443l3.825-115.133c0-2.295-0.765-4.207-2.677-5.737l0,0c-2.677-2.295-6.502-2.295-9.18,0l0,0
				c-1.53,1.53-2.677,3.443-2.677,5.737l3.06,115.133c0,1.148-0.382,2.295-0.765,3.443l-4.59,9.18
				c-0.382,1.147-0.765,1.912-0.765,3.06L416.16,719.595z"/>
			<polygon id="XMLID_26_" points="421.515,612.495 422.28,638.888 430.695,633.533 431.46,606.375 			"/>
			<path id="XMLID_25_" d="M420.368,569.273l12.622-8.033l0.765-25.245c0-0.765,0-1.148,0-1.913l-14.152,8.798L420.368,569.273z"/>
			<polygon id="XMLID_24_" points="416.16,675.99 434.138,661.073 432.608,658.013 416.543,671.783 			"/>
			<polygon id="XMLID_23_" points="416.16,698.175 418.837,695.88 418.837,688.612 416.16,690.525 			"/>
			<path id="XMLID_22_" d="M424.575,684.787v6.12l3.06-2.677v-3.825c0-0.765,1.148-1.148,1.53-0.383l0,0v2.295l1.913-1.912v-1.53
				c0.383-0.383,1.148-0.383,1.53,0c0,0,0,0,0,0.383l2.677-2.295v-7.267l-12.24,9.945
				C424.193,684.405,424.575,684.405,424.575,684.787z"/>
			<polygon id="XMLID_21_" points="423.045,692.438 423.045,685.17 420.75,686.7 420.75,694.35 			"/>
		</g>
		<g>
			<g>
				<path id="XMLID_20_" fill="#CCCCCA" d="M413.865,717.3h2.295l0.383-35.19c0-0.383,0-0.765,0.383-0.765
					c0.382-0.383,1.147-0.383,1.53,0l-0.383,35.955h2.295l0.382-35.19l0,0c0.383-0.765,1.53-0.383,1.53,0.383V717.3h2.677
					l0.383-34.807c0-0.765,1.148-1.148,1.53-0.383l0,0v35.19h2.295l-0.383-35.955c0.383-0.383,1.148-0.383,1.53,0
					c0.383,0.383,0.383,0.383,0.383,0.765v35.19h2.295v-52.785c0-1.147-0.382-2.295-0.765-3.06l-4.59-9.563
					c-0.382-1.148-0.765-2.295-0.765-3.442l3.825-115.133c0-2.295-0.765-4.208-2.677-5.737l0,0c-2.677-2.295-6.503-2.295-9.18,0l0,0
					c-1.53,1.53-2.677,3.443-2.677,5.737l3.06,115.133c0,1.147-0.383,2.295-0.765,3.442l-4.59,9.18
					c-0.383,1.148-0.765,1.912-0.765,3.06L413.865,717.3z"/>
				<polygon id="XMLID_19_" fill="#F2F2F2" points="419.22,610.2 419.985,636.592 428.4,631.237 429.165,604.08 				"/>
				<path id="XMLID_18_" fill="#F2F2F2" d="M418.073,566.977l12.623-8.033l0.765-25.245c0-0.765,0-1.148,0-1.912l-14.152,8.797
					L418.073,566.977z"/>
				<polygon id="XMLID_17_" fill="#F2F2F2" points="413.865,673.695 431.842,658.777 430.313,655.717 413.865,669.105 				"/>
				<g id="XMLID_13_">
					<polygon id="XMLID_16_" fill="#F2F2F2" points="413.865,695.88 416.543,693.585 416.543,686.317 413.865,688.23 					"/>
					<path id="XMLID_15_" fill="#F2F2F2" d="M422.28,682.492v6.12l3.06-2.677v-3.825c0-0.765,1.148-1.148,1.53-0.383l0,0v2.295
						l1.913-1.913v-1.53c0.382-0.383,1.148-0.383,1.53,0c0,0,0,0,0,0.383l2.677-2.295V671.4l-12.24,9.945
						C421.898,682.11,422.28,682.11,422.28,682.492z"/>
					<polygon id="XMLID_14_" fill="#F2F2F2" points="420.75,690.142 420.75,682.875 418.455,684.405 418.455,692.055 					"/>
				</g>
			</g>
		</g>
	</g>
	<g id="XMLID_1_">
		<g opacity="0.6">
			<path id="XMLID_11_" d="M175.185,531.405L175.95,717.3c0,2.677,3.443,3.443,4.973,1.148l0,0
				c5.355-9.945,9.18-21.038,10.71-32.513l1.53-10.71c1.147-8.415-0.382-17.212-4.973-24.862l0,0
				c-3.825-6.503-5.738-14.152-5.355-21.802l4.972-80.325c0.382-4.972,0-9.563-1.53-14.152l0,0c-1.148-3.825-4.208-6.12-8.033-6.12
				l0,0C176.715,528.345,175.185,529.875,175.185,531.405z"/>
			<polygon id="XMLID_10_" points="175.568,589.545 175.568,615.938 183.982,610.583 185.895,582.66 			"/>
			<path id="XMLID_9_" d="M178.245,528.345c-1.913,0-3.06,1.53-3.06,3.443v13.77l12.24-7.65c-0.382-1.148-0.382-1.913-0.765-3.06
				C185.512,530.64,182.07,528.345,178.245,528.345z"/>
			<path id="XMLID_8_" d="M182.835,630.472l-7.268,6.12v4.59l7.65-6.12C182.835,633.533,182.835,632.003,182.835,630.472z"/>
			<path id="XMLID_7_" d="M175.95,697.41v7.268l14.535-11.858c0.382-2.295,0.765-4.59,1.147-6.885l0.382-1.912L175.95,697.41z"/>
		</g>
		<g>
			<g>
				<path id="XMLID_6_" fill="#CCCCCA" d="M172.89,529.11l0.765,185.513c0,2.677,3.443,3.443,4.972,1.148l0,0
					c5.355-9.945,9.18-21.038,10.71-32.513l1.53-10.71c1.147-8.415-0.382-17.212-4.973-24.862l0,0
					c-3.825-6.503-5.737-14.152-5.355-21.802l4.972-80.325c0.382-4.972,0-9.563-1.53-14.152l0,0c-1.147-3.825-4.207-6.12-8.033-6.12
					l0,0C174.42,526.05,172.89,527.58,172.89,529.11z"/>
				<polygon id="XMLID_5_" fill="#F2F2F2" points="172.89,586.867 173.273,613.642 181.688,608.287 183.6,580.365 				"/>
				<path id="XMLID_4_" fill="#F2F2F2" d="M175.95,526.05c-1.912,0-3.06,1.53-3.06,3.443v13.77l12.24-7.65
					c-0.382-1.148-0.382-1.912-0.765-3.06C183.218,528.345,179.775,526.05,175.95,526.05z"/>
				<path id="XMLID_3_" fill="#F2F2F2" d="M180.54,628.177l-7.268,6.12v4.59l7.65-6.12
					C180.54,631.237,180.54,629.708,180.54,628.177z"/>
				<path id="XMLID_2_" fill="#F2F2F2" d="M173.273,695.115v7.267l14.535-11.858c0.382-2.295,0.765-4.59,1.147-6.885l0.383-1.912
					L173.273,695.115z"/>
			</g>
		</g>
	</g>
</g>
<g>
	<g>
		<defs>
			<rect id="SVGID_2_" x="21.42" y="62.077" width="569.542" height="400.477"/>
		</defs>
		<clipPath id="SVGID_3_">
			<use xlink:href="#SVGID_2_"  overflow="visible"/>
		</clipPath>
		<g clip-path="url(#SVGID_3_)">
			<path fill="#21211D" d="M170.978,288.9c8.032-12.622,74.587-21.42,140.378-19.508c60.052,1.913,119.722,13.005,135.405,39.015
				c26.393,44.37,47.048,226.823-35.19,231.03c-85.298,4.59-144.203,2.677-229.5-4.208
				C110.16,520.313,139.995,337.095,170.978,288.9z"/>
			<path d="M192.398,288.9c8.032-11.858,59.288-21.42,115.897-19.508c51.638,1.913,106.718,13.005,120.105,39.015
				c22.95,44.37,48.96,229.117-21.802,233.325c-73.44,4.208-151.852-5.737-224.91-12.622
				C119.34,514.575,159.12,337.095,192.398,288.9z"/>
			<path fill="#363632" d="M174.803,285.457c16.447-10.71,76.883-17.978,136.935-16.065c60.052,1.912,119.723,13.387,135.405,39.015
				c25.245,42.075,44.753,208.845-23.715,229.117c55.462-34.042,36.72-184.365,12.623-224.145
				c-15.682-26.01-75.353-37.103-135.405-39.015C250.155,272.452,199.283,277.425,174.803,285.457z"/>
			<path d="M100.597,190.597c3.825-14.917,10.328-33.66,9.18-63.112c-1.912-48.577,21.42-57.375,80.708-53.933
				c47.813,3.06,80.708,0,117.428,0c34.043,0,79.943,3.06,113.985,1.913c40.927-1.53,77.648,8.798,76.5,47.048
				c-0.383,16.83-6.503,47.43,0.383,66.173c31.365,88.74-142.673,134.257-214.2,127.372
				C221.085,316.823,79.178,277.042,100.597,190.597z"/>
			<path fill="#21211D" d="M420.75,75.847h1.148c40.927-1.53,77.648,8.798,76.5,47.048c-0.383,16.83-6.503,47.43,0.383,66.555
				c30.217,85.68-131.198,131.198-206.55,127.755c79.943-3.06,219.173-47.813,190.867-127.755
				c-6.885-18.742-0.765-49.725-0.382-66.555C483.863,89.235,455.557,77.377,420.75,75.847z"/>
			<path fill="#5C5C69" d="M91.418,259.065h12.24c13.388,0,24.098,10.71,24.098,23.715v237.533c0,13.388-10.71,24.097-24.097,24.097
				h-12.24c-13.387,0-24.097-10.71-24.097-24.097v-237.15C67.703,269.775,78.412,259.065,91.418,259.065z"/>
			<path fill="#7C7C8A" d="M93.713,259.065h8.415c9.18,0,16.448,7.268,16.448,16.448v252.45c0,9.18-7.268,16.448-16.448,16.448
				h-8.415c-9.18,0-16.447-7.267-16.447-16.448v-252.45C77.265,266.332,84.533,259.065,93.713,259.065z"/>
			<path fill="#A2A2AB" d="M102.128,542.497h-8.415c-4.59,0-8.798-1.912-11.857-5.355c2.295,1.147,4.59,1.53,7.267,1.53h8.415
				c9.18,0,16.448-7.268,16.448-16.448v-252.45c-0.765-5.355-4.208-9.563-9.563-11.093c8.033,1.53,14.535,8.415,14.535,14.535
				v252.45C118.575,535.23,110.925,542.497,102.128,542.497z"/>
			<path fill="#5C5C69" d="M497.25,259.065h12.24c13.388,0,24.098,10.71,24.098,23.715v237.533c0,13.388-10.71,24.097-24.098,24.097
				h-12.24c-13.387,0-23.715-10.71-23.715-24.097v-237.15C473.152,269.775,483.863,259.065,497.25,259.065z"/>
			<path fill="#7C7C8A" d="M499.163,259.065h8.415c9.18,0,16.448,7.268,16.448,16.448v252.45c0,9.18-7.268,16.448-16.448,16.448
				h-8.415c-9.18,0-16.448-7.267-16.448-16.448v-252.45C482.715,266.332,489.983,259.065,499.163,259.065z"/>
			<path fill="#A2A2AB" d="M507.577,542.497h-8.415c-4.59,0-8.798-1.912-12.24-5.355c2.295,1.147,4.59,1.53,7.267,1.53h8.415
				c9.18,0,16.448-7.268,16.448-16.448v-252.45c-0.765-5.355-4.208-9.563-9.563-11.093c8.033,1.53,14.535,8.415,14.535,14.535
				v252.45C524.025,535.23,516.758,542.497,507.577,542.497z"/>
			<path fill="#21211D" d="M110.543,145.08c-11.475-60.435,12.622-86.063,71.527-81.09c48.195,3.825,89.122,6.502,125.843,6.502
				c34.043,0,83.002-4.972,117.045-6.502c59.288-2.678,82.238,11.475,73.44,76.883c-5.738,41.692-101.363-18.36-203.49-15.3
				C200.43,127.867,113.985,163.057,110.543,145.08z"/>
			<path fill="#363632" d="M307.913,70.11c34.043,0,83.002-4.973,117.045-6.503c59.288-2.678,82.238,11.475,73.44,76.883
				c-1.53,9.945-7.65,14.152-17.977,14.535l0,0c4.59-33.66,0.765-53.55-12.24-64.642C445.23,70.875,364.905,84.262,307.913,70.11z"
				/>
			<path d="M299.88,70.11c-34.043,0-83.003-4.973-117.045-6.503c-59.287-2.678-82.237,11.475-73.44,76.883
				c1.53,9.945,7.65,14.152,17.978,14.535l0,0c-4.59-33.66-0.765-53.55,12.24-64.642C162.563,70.875,242.887,84.262,299.88,70.11z"
				/>
			<path fill="#E8A477" d="M245.948,647.685c-1.912-31.747-18.36-46.283-28.305-72.292c-11.475-29.452-8.032-72.293-19.125-110.925
				l51.638,62.348l11.857,39.397l1.147,49.725L245.948,647.685z"/>
			<path fill="#D69265" d="M241.357,623.587c-7.65-22.185,1.147-53.167,2.678-68.85c-16.065-28.305-32.13-48.577-43.223-87.21
				l-0.765-3.443c14.918,31.365,32.13,61.583,52.02,89.887c-4.207,16.065-7.268,32.513-9.18,49.343
				C241.74,609.817,241.357,616.702,241.357,623.587z"/>
			<path fill="#F1B287" d="M372.555,606.758c-9.563,34.042-42.458,46.283-86.445-7.267s-79.56-113.985-104.805-178.628
				c-11.857-30.983-13.005-69.998,11.857-87.592c13.005-9.18,32.13-6.503,61.582-6.503c35.955,0,35.573,18.742,49.342,51.255
				c18.36,43.605,43.988,108.248,56.993,144.967C371.79,553.208,379.057,583.807,372.555,606.758z"/>
			<path fill="#F4BC97" d="M372.555,606.758c-3.443,11.858-9.563,21.037-17.978,26.01c1.148-2.677,2.295-5.737,3.06-8.797
				c6.502-22.568-0.765-53.55-11.475-84.15c-13.005-36.72-39.015-101.362-56.993-144.967c-13.387-32.13-13.005-51.255-49.342-51.255
				c-29.07,0-47.813-2.295-60.818,6.12c3.06-6.503,8.033-12.24,14.153-16.448c13.005-9.18,32.13-6.503,61.583-6.503
				c35.955,0,35.573,18.743,49.342,51.255c17.978,43.988,43.988,108.248,56.993,144.967
				C371.79,553.208,379.057,583.807,372.555,606.758z"/>
			<path fill="#E8A477" d="M361.08,627.412c-15.3,14.917-42.075,11.475-74.97-28.305c-43.988-53.55-79.56-113.985-104.805-178.627
				c-11.857-30.982-13.005-69.997,11.857-87.592c3.825-2.677,8.032-4.207,12.622-5.355c-21.42,18.743-19.89,55.462-8.415,84.915
				c25.245,64.642,60.818,125.077,104.805,178.628C325.508,619.763,345.78,629.708,361.08,627.412z"/>
			<path fill="#F1B287" d="M399.712,338.242c32.13,32.895,26.775,59.67,16.065,100.215c-9.563,35.955-24.48,68.85-35.19,95.625
				c-12.24,29.835-29.07,60.817-43.223,92.565c-32.13,52.402-55.462,59.287-80.707,42.075c-14.535-9.945-17.213-36.72-13.77-65.79
				c5.355-46.665,18.36-76.883,25.627-113.985c8.033-39.398,8.033-92.948,9.563-133.875L399.712,338.242z"/>
			<path fill="#F4BC97" d="M399.712,338.242c32.13,32.895,26.775,59.67,16.065,100.215c-9.563,35.955-24.48,68.85-35.19,95.625
				c-12.24,29.835-29.07,60.817-43.223,92.565c-22.568,37.102-40.927,51.255-58.905,50.49
				c39.015-36.338,73.44-120.488,84.915-148.793c12.623-30.982,23.332-63.112,31.748-95.625c9.18-35.19,3.825-56.992-19.125-91.418
				L399.712,338.242z"/>
			<path fill="#E8A477" d="M267.75,674.842c-4.207-1.53-8.033-3.443-11.475-6.12c-14.535-9.945-17.212-36.72-13.77-65.79
				c5.355-46.665,18.36-76.882,25.628-113.985c8.032-39.398,8.032-92.948,9.563-133.875l24.098-3.443
				c-1.148,40.545-1.53,92.565-9.563,131.58c-7.268,37.103-20.273,67.32-25.628,113.985
				C263.16,624.735,256.275,662.602,267.75,674.842z"/>
			<path fill="#997356" d="M399.712,338.242c32.13,32.895,26.775,59.67,16.065,100.215c-1.148,4.59-6.503,21.42-8.033,26.01
				c-41.693,15.682-89.888,5.737-131.962,3.06c-28.688-1.913-48.578,8.033-73.822-0.382c-4.208-9.563-16.448-37.103-20.273-46.665
				c-11.857-30.982-13.005-69.997,11.857-87.592c13.005-9.18,32.13-6.503,61.582-6.503c25.627,0,32.895,9.563,39.78,26.393
				L399.712,338.242z"/>
			<path fill="#87654A" d="M201.577,467.145c-4.207-9.563-16.83-37.103-20.272-46.665c-11.857-30.982-13.005-69.997,11.857-87.592
				c3.825-2.677,8.032-4.207,12.622-5.355c-21.42,18.743-19.89,55.463-8.415,84.915c5.355,13.77,19.507,43.987,26.01,58.14
				C215.73,469.44,208.845,469.44,201.577,467.145z"/>
			<path fill="#A67D5D" d="M399.712,338.242c32.13,32.895,26.775,59.67,16.065,100.215c-1.148,4.59-8.415,26.775-9.563,31.365
				c-7.65,3.06-15.682,5.355-24.098,6.885c2.677-8.415,10.71-34.807,13.005-43.605c9.18-35.19,3.825-56.993-19.125-91.418
				L399.712,338.242z"/>
			<path fill="#87654A" d="M271.193,470.205c3.825-34.425,5.738-83.385,6.503-114.75l23.715-3.443
				c-1.147,33.277-3.06,84.533-7.267,119.723l-20.273-1.53H271.193z"/>
		</g>
	</g>
</g>
<g>
	<path fill="#E8A477" d="M443.318,651.128l-1.147-1.148l0.382-5.737l2.295-9.18l0.383-4.208l0.765,4.972c0,0-0.382,6.12-0.382,6.885
		C445.612,643.477,443.318,651.128,443.318,651.128z"/>
	<path fill="#F1B287" d="M442.935,514.575c-3.825,8.797-8.033,21.802-12.623,28.688c-5.737,8.415-5.737,11.092-9.18,18.742
		c-2.677,5.738-3.825,12.623-5.355,18.742l-1.913,9.563c-1.148,6.503-0.765,5.355,0.383,12.24l3.06,15.3l2.295-0.383l-0.383,11.092
		c-0.765,11.858,3.06,14.535,4.973,14.535s3.06-1.148,4.207-7.268c1.148-4.972,1.148-11.475,1.913-16.065
		c1.148-7.65,0.765-14.917,3.443-21.802c1.913-4.59,1.148-2.295,0.765,2.295c-0.382,3.825-0.382,7.65-0.765,11.858
		c-0.382,4.208-0.765,10.71-1.147,14.535c-0.383,4.972-1.148,14.535-1.148,19.125c0,4.59,0.765,8.797,5.355,8.033
		c2.677-0.383,4.207-3.443,4.973-8.033c1.53-7.268,1.53-14.917,2.677-22.568c1.148-7.267,1.53-14.917,1.53-22.567
		c0-1.913,0.765-3.06,0.765-0.765c0.383,8.415,0,17.213-1.53,25.628c-1.148,6.885-2.295,13.005-3.06,20.273
		c-0.765,4.208-1.913,4.208-1.148,4.972c6.502,7.268,9.18-6.885,11.857-12.24c2.677-6.12,8.415-17.212,8.798-22.95l1.148-21.802
		c1.53-6.885,2.295-14.152,2.295-21.42c-0.382-7.268-1.913-13.388-1.53-20.273c0.765-11.093,5.355-20.655,9.563-34.425
		L442.935,514.575z"/>
	<path fill="#E8A477" d="M436.05,595.665c0.382,0,0,2.295-0.383,4.973c-0.383,3.825-0.383,7.65-0.765,11.857
		c-0.383,4.208-0.765,10.71-1.148,14.535c-0.382,4.973-1.147,14.535-1.147,19.125s0.765,7.65,3.443,8.033
		c-3.06-6.12-1.148-20.273,0-32.513C437.198,612.112,439.11,591.84,436.05,595.665L436.05,595.665L436.05,595.665z M447.908,599.107
		c0,0,0.383,0.383,0.383,1.148c0.382,8.415,0,17.213-1.53,25.628c-1.147,6.885-2.295,13.005-3.06,20.273
		c-0.383,1.148-0.765,2.677-1.148,3.825v0.383c0,0.383,0,0.383,0.383,0.765c2.295,2.295,3.825,2.295,5.355,1.147
		c-0.765-0.383-1.148-1.147-1.148-1.912c-0.383-9.18,4.207-21.42,5.737-30.6c-0.382-6.12-1.147-15.683-2.295-19.89
		C449.82,596.813,448.673,596.813,447.908,599.107L447.908,599.107z"/>
	<path fill="#E8A477" d="M442.935,514.575c-3.825,8.797-8.033,21.802-12.623,28.688c-5.737,8.032-6.12,11.857-9.563,19.125
		c-2.677,5.737-3.443,12.24-4.973,18.36l-1.913,9.563c-1.148,6.503-0.765,5.355,0.383,12.24l3.06,15.3l2.295-0.383l-0.383,11.092
		c-0.383,4.208,0,8.415,1.913,12.24c-0.383-8.033-0.383-15.682,0-23.715c0-4.973,0.382-9.945,1.147-14.535
		c1.913-6.885,3.06-13.77,3.825-21.037c0-3.06-0.765-6.12-1.53-8.798c0,14.917-4.59,23.333-5.738,36.338
		c-0.765-5.355-1.147-10.328-1.147-15.683c0-5.737,1.147-11.092,3.06-16.448c5.738-17.212,8.415-21.42,17.595-35.573
		c5.737-9.563,9.563-16.065,13.005-26.775L442.935,514.575z"/>
	<path fill="#E8A477" d="M456.323,632.385l3.443-12.24c0-7.267-0.382-16.065,0-22.568c0-1.912,1.53-2.295,1.53,0.383
		c0.382,7.65,0.382,15.3-0.765,22.95L456.323,632.385z"/>
	<path fill="#EDA580" d="M422.28,642.712l0.383-7.267c0-1.53,1.148-2.677,2.677-3.06l0,0c1.53,0,2.295,1.53,2.295,3.06l0,0
		l-0.382,7.267c0,1.53-1.148,2.677-2.677,3.06l0,0C423.045,645.39,422.28,644.242,422.28,642.712L422.28,642.712z"/>
	<path fill="#F2B292" d="M423.81,644.625l0.382-10.328c0-0.765,0.383-1.148,1.148-1.53l0,0c0.765,0,1.148,0.765,1.148,1.148l0,0
		l-0.383,10.328c0,0.765-0.383,1.147-1.148,1.53l0,0C424.193,645.773,423.81,645.008,423.81,644.625L423.81,644.625z"/>
	<path fill="#F7BFA3" d="M424.957,643.095l0.383-9.18c0-0.383,0-0.383,0.382-0.383l0,0c0.383,0,0.383,0.383,0.383,0.383l0,0
		l-0.383,9.18c0,0.383,0,0.383-0.382,0.383l0,0C425.34,643.477,424.957,643.095,424.957,643.095L424.957,643.095z"/>
	<path fill="#FFFFFF" d="M427.253,642.712c-0.383,1.53-1.148,3.06-2.677,3.06l0,0c-1.148,0-2.295-1.148-2.295-3.06
		c0.383,0.383,1.148,0.765,1.913,0.765h1.148C426.105,643.477,426.488,643.477,427.253,642.712z"/>
	<path fill="#FCE3D6" d="M425.723,639.652l0.383-5.355l0,0l0,0l0,0L425.723,639.652L425.723,639.652L425.723,639.652
		L425.723,639.652z"/>
	<path fill="#EDA580" d="M434.902,652.658l0.382-7.268c0-1.53,1.148-3.06,3.06-3.06l0,0c1.53,0,2.677,1.148,2.677,2.677l0,0
		l-0.383,7.267c0,1.53-1.147,3.06-3.06,3.06l0,0C435.668,655.717,434.52,654.57,434.902,652.658
		C434.52,653.04,434.52,652.658,434.902,652.658z"/>
	<path fill="#F2B292" d="M436.432,654.57l0.383-10.327c0-0.765,0.765-1.148,1.147-1.53l0,0c0.765,0,1.148,0.765,1.148,1.148l0,0
		l-0.383,10.328c0,0.765-0.765,1.148-1.147,1.53l0,0C436.815,655.717,436.432,655.335,436.432,654.57L436.432,654.57z"/>
	<path fill="#F7BFA3" d="M437.962,653.04l0.383-9.18c0-0.383,0.383-0.383,0.383-0.383l0,0c0.382,0,0.382,0.383,0.382,0.383l0,0
		l-0.382,9.18c0,0.383-0.383,0.383-0.383,0.383l0,0C438.345,653.422,437.962,653.422,437.962,653.04L437.962,653.04z"/>
	<path fill="#FFFFFF" d="M440.258,653.04c0,1.53-1.148,2.677-3.06,3.06l0,0c-1.53,0-2.677-1.53-2.677-3.06
		c0.765,0.383,1.53,0.765,2.295,0.765h1.147C438.728,653.805,439.493,653.422,440.258,653.04z"/>
	<path fill="#FCE3D6" d="M438.728,649.597l0.382-5.355l0,0l0,0l0,0L438.728,649.597L438.728,649.597L438.728,649.597
		L438.728,649.597z"/>
	<path fill="#EDA580" d="M443.7,651.128l1.913-6.885c0.382-1.53,1.912-2.677,3.06-2.295l0,0c1.53,0.383,2.295,1.912,1.53,3.442l0,0
		l-1.913,6.885c-0.382,1.53-1.912,2.677-3.06,2.295l0,0C444.082,653.805,443.318,652.275,443.7,651.128L443.7,651.128z"/>
	<path fill="#F2B292" d="M444.848,653.04l2.677-9.945c0-0.765,0.765-1.148,1.53-1.148l0,0c0.765,0.383,1.147,0.765,0.765,1.53l0,0
		l-2.677,9.945c0,0.765-0.765,1.148-1.53,1.148l0,0C444.848,654.188,444.465,653.422,444.848,653.04z"/>
	<path fill="#F7BFA3" d="M446.378,651.892l2.295-8.797c0-0.383,0.383-0.383,0.383-0.383l0,0l0,0c0.382,0,0.382,0.383,0.382,0.383
		l0,0l-2.295,8.797c0,0.383-0.383,0.383-0.765,0.383l0,0V651.892L446.378,651.892z"/>
	<path fill="#FFFFFF" d="M448.673,652.275c-0.383,1.53-1.53,2.295-3.06,2.295l0,0c-1.148-0.383-1.913-1.912-1.53-3.442
		c0.383,0.765,1.148,1.147,1.53,1.147l1.147,0.383C447.143,652.658,447.908,652.658,448.673,652.275z"/>
	<path fill="#FCE3D6" d="M447.908,648.833l1.53-5.355l0,0l0,0l0,0L447.908,648.833L447.908,648.833L447.908,648.833L447.908,648.833
		z"/>
	<path fill="#EDA580" d="M418.073,618.232l-1.147-5.737c-0.383-1.53,0.382-2.677,1.147-2.677l0,0
		c0.765-0.383,1.53,0.765,1.913,1.913l1.148,5.737c0.382,1.53-0.383,2.677-1.148,2.677l0,0
		C419.22,620.527,418.073,619.763,418.073,618.232z"/>
	<path fill="#F2B292" d="M419.22,619.763l-1.53-8.415c0-0.383,0-1.147,0.382-1.147l0,0c0.383,0,0.765,0.383,0.765,0.765l1.53,8.415
		c0,0.765,0,1.148-0.383,1.148l0,0C419.603,620.527,419.22,620.145,419.22,619.763z"/>
	<path fill="#F7BFA3" d="M419.603,618.232l-1.53-7.267c0-0.383,0-0.383,0-0.383l0,0c0,0,0.383,0,0.383,0.383L419.603,618.232
		C419.985,618.232,419.985,618.615,419.603,618.232L419.603,618.232C419.985,618.615,419.985,618.232,419.603,618.232z"/>
	<path fill="#FFFFFF" d="M421.133,617.85c0,1.53-0.383,2.677-1.148,2.677l0,0c-0.765,0-1.53-0.765-1.913-1.912
		c0.383,0.383,0.765,0.383,1.148,0.383h0.765C420.368,618.615,420.75,618.232,421.133,617.85z"/>
	<path fill="#FCE3D6" d="M413.1,615.555l-0.765-4.208l0,0l0,0l0,0L413.1,615.555L413.1,615.555L413.1,615.555L413.1,615.555z"/>
	<path fill="#D085B2" d="M299.115,231.525c-37.867-1.53-75.735-0.765-113.603,3.06c-46.283,5.738-63.495,30.983-61.965,56.61
		c1.147,17.977,14.152,26.393,29.835,37.868c10.71,8.032,16.83,24.48,22.95,34.425c10.327,17.977,19.89,53.932,66.555,54.698
		c14.918,0,28.688-7.65,54.698-7.65s39.78,4.973,54.698,4.59c47.048-0.765,53.168-30.6,67.32-54.698
		c4.207-6.885,17.212-13.387,28.305-21.42c15.3-11.475,25.245-28.688,26.775-47.813c1.53-25.628-15.682-50.872-61.965-56.61
		C375.233,231.142,336.983,229.995,299.115,231.525z"/>
	<path fill="#D085B2" d="M489.983,360.81c0,60.052-4.973,120.487-14.918,179.775c-14.535-3.825-31.365-7.268-47.048-1.148
		c7.267-58.523,0-89.888,2.677-148.41c-2.295-18.36-4.207-47.43-8.415-65.408l37.485-69.997
		C481.568,266.332,481.95,327.15,489.983,360.81z"/>
	<path fill="#AD7398" d="M436.432,537.143c-2.677,0.765-5.355,1.53-8.033,2.295c7.268-58.523,0-89.888,2.677-148.41
		c-1.147-16.448-0.765-33.277-8.798-35.19c6.503-11.093,11.858-22.95,15.682-35.573l6.12,65.025
		c6.885-11.475,16.83-17.977,26.393-16.065c-9.563,3.06-24.48,18.743-25.628,41.31C442.935,456.435,442.552,487.035,436.432,537.143
		z"/>
	<path fill="#DD94C3" d="M489.983,360.81c0,60.052-4.973,120.487-14.918,179.775c-2.677-0.765-4.973-1.53-7.65-1.913
		c9.18-56.992,13.77-114.75,13.77-172.507c-7.268-29.07-8.415-78.413-22.568-97.92c-0.765-1.53-1.913-3.06-3.06-4.207l4.207-8.033
		C481.568,266.332,481.95,327.15,489.983,360.81z"/>
	<path fill="#D085B2" d="M79.178,365.4l37.868,21.42c12.623-15.3,47.812-47.048,57.757-52.785L146.88,249.12
		c-19.89,4.207-43.605,57.375-60.052,91.8C82.62,348.57,79.942,356.985,79.178,365.4z"/>
	<path fill="#DD94C3" d="M110.16,382.995l6.885,3.825c8.415-9.945,31.747-30.6,45.518-45.135
		c-10.71,4.973-20.655,10.71-30.217,17.595C124.313,366.165,116.662,374.198,110.16,382.995z"/>
	<path fill="#F1B287" d="M230.648,589.162c-3.825-9.18-11.475-21.802-14.918-31.747c-1.53-3.825-3.825-8.415-2.678-9.563
		s10.71,33.277,24.863,29.07c-3.825-8.415-6.503-16.448-9.945-24.48c-0.765-1.148-1.148-2.677-1.913-3.825
		c-6.12-10.327-6.12-12.622-13.005-21.42c-4.59-4.972-9.18-9.18-14.535-13.005c-8.797-7.65-13.005-14.917-20.655-28.305
		l-26.775,13.77c7.65,15.683,10.71,21.42,12.24,27.923c1.148,4.973,0.383,9.945,3.06,21.42c2.295,9.945,6.12,22.95,9.18,35.955
		c1.913,2.677,4.208,5.355,6.503,7.65c2.295,2.295,4.973,4.208,8.033,5.355c2.678,1.147,5.738,1.147,8.798,0.765
		c4.59,3.825,7.268,5.355,9.945,5.355c0.765-1.53,1.147-3.06,1.53-4.59c-1.912-2.295-3.825-4.208-5.738-6.885
		c-2.295-3.443-4.207-7.268-6.12-11.092c-1.912-3.825-3.825-7.268-6.12-11.093c-2.678-4.59-1.53-4.208,0.765-0.765
		c2.295,3.442,4.59,7.267,6.503,11.092c1.912,3.825,3.443,7.65,6.12,11.475c1.53,1.913,4.59,5.738,8.032,9.945
		c4.59,6.12,9.945,12.622,12.24,12.622c1.147,0,2.295-0.383,3.06-1.53c1.147-1.148,0.765-4.208-0.765-7.268
		c-1.53-3.06-3.443-6.12-5.738-10.327s-4.207-6.885-6.12-10.71c-3.06-5.355-5.738-10.71-8.798-16.065
		c-2.295-4.59-1.147-4.972,1.148-0.383c2.678,5.355,4.972,10.71,8.032,16.065c1.913,3.442,3.825,6.885,5.738,10.327
		c1.913,3.443,3.06,5.738,5.355,8.798c1.53,2.295,2.678,3.825,5.355,3.442c2.678-0.383,3.443-3.442,2.295-7.267
		C233.708,596.047,232.56,592.605,230.648,589.162z M191.632,591.075c-2.295-2.295-4.207-4.208-6.503-6.503
		c-2.295-5.355-3.443-10.71-3.825-16.448c2.678,5.355,5.355,12.622,8.033,18.36c1.147,2.295,1.912,2.295,3.06,4.208L191.632,591.075
		z"/>
	<path fill="#E8A477" d="M212.67,547.852c1.913-1.53,1.913-1.53,7.268,10.328c3.443,7.65,8.415,17.212,17.213,18.742
		c-4.208,1.148-8.798-0.383-11.093-3.825C220.702,567.36,214.2,548.235,212.67,547.852L212.67,547.852z M154.913,497.362
		l-4.208,2.295c7.65,15.682,10.71,21.42,12.24,27.923c1.148,4.972,0.382,9.945,3.06,21.42c2.295,9.945,6.12,22.95,9.18,35.955
		c1.913,2.677,4.207,5.355,6.503,7.65c2.295,2.295,4.973,4.208,8.033,5.355c2.677,1.148,5.737,1.148,8.797,0.765
		c4.973,4.208,7.65,5.737,10.71,4.973c1.147,0,2.295-3.06,0.765-4.59c-1.53-1.53-3.825-4.208-5.738-6.885
		c-2.295-3.442-4.207-7.267-6.12-11.092c-1.912-3.825-3.825-7.267-6.12-11.092c-2.677-4.59-1.53-4.208,0.765-0.765
		c2.295,3.442,4.59,7.267,6.503,11.092c1.912,3.825,3.443,7.65,6.12,11.475c1.53,1.913,4.59,5.737,8.032,9.945
		c4.973,6.12,9.945,12.623,12.24,12.623c1.147,0,2.295-0.383,3.06-1.53c1.147-1.148,0.765-4.208-0.765-7.268
		c-0.765-1.912-1.913-3.442-3.06-5.355l2.678,4.973c1.53,3.06,1.53,5.355,0.382,6.503c-1.148,1.147-3.443,0-6.12-2.677
		c-2.295-2.295-5.355-6.503-8.415-10.328c-1.913-2.295-3.825-4.973-5.738-7.65c-2.295-3.443-4.207-7.268-5.738-10.71
		c-2.295-4.59-5.355-9.18-8.415-13.388c-1.53-1.913-4.973-6.503-3.06,0c0.765,1.912,1.53,3.825,2.295,5.355
		c4.207,10.327,9.563,19.89,16.065,28.688c-2.678,0.765-6.885-2.677-11.475-7.268c-2.678-2.677-4.973-5.355-6.885-8.032
		c-4.59-11.858-8.415-20.273-10.327-21.42c-1.913-1.148,0.765,8.797,3.443,20.655c2.295,5.355,9.18,9.563,9.18,10.328
		c0,2.295-6.12-1.53-7.65-2.677c-3.06-2.295-5.355-5.355-7.65-8.415c-2.678-4.59-6.12-28.305-8.798-44.37
		C164.475,517.635,163.327,510.367,154.913,497.362L154.913,497.362z M205.785,565.065c0.382,0,1.147,0.765,2.295,3.06
		c2.678,5.355,4.973,10.71,8.033,16.065c1.913,3.442,3.825,6.885,5.738,10.327c1.912,3.443,3.06,5.737,5.355,8.798
		c1.53,2.295,2.678,3.825,5.355,3.442s3.443-3.442,2.295-7.267c-0.382,4.208-1.913,4.972-3.825,3.06
		c-3.443-2.677-11.093-17.595-14.153-22.568c-3.06-6.12-6.885-12.24-10.71-17.595C205.02,561.622,204.255,561.622,205.785,565.065
		L205.785,565.065z M191.632,591.075c-2.295-2.295-4.207-4.208-6.503-6.503c-2.295-5.355-3.443-10.71-3.825-16.448
		c2.678,5.355,5.355,12.622,8.033,18.36c1.147,2.295,1.912,2.295,3.06,4.208L191.632,591.075z"/>
	<path fill="#EDA580" d="M237.15,576.158l-2.678-6.12c-0.382-1.148-1.913-1.912-3.06-1.53l0,0c-1.148,0.765-1.53,2.295-0.765,3.443
		l2.677,6.12c0.383,1.148,1.913,1.912,3.06,1.53l0,0C237.533,578.835,237.915,577.305,237.15,576.158z"/>
	<path fill="#F2B292" d="M236.768,578.07l-4.207-8.797c-0.382-0.383-0.765-0.765-1.53-0.765l0,0
		c-0.382,0.383-0.765,1.148-0.382,1.53l4.207,8.798c0.382,0.765,0.765,0.765,1.53,0.765l0,0
		C236.768,579.6,236.768,578.835,236.768,578.07z"/>
	<path fill="#F7BFA3" d="M234.855,577.688l-3.443-7.65c0-0.383-0.382-0.383-0.382-0.383l0,0l0,0c0,0,0,0.383,0,0.765l3.443,7.65
		c0,0.383,0.382,0.383,0.382,0.383l0,0C235.238,578.07,235.238,577.688,234.855,577.688L234.855,577.688z"/>
	<path fill="#FFFFFF" d="M233.325,578.07c0.765,1.148,2.295,1.912,3.06,1.53l0,0c1.148-0.765,1.53-2.295,0.765-3.442
		c-0.383,0.765-0.765,1.148-1.148,1.53l-0.765,0.383C234.473,578.452,234.09,578.452,233.325,578.07z"/>
	<path fill="#FCE3D6" d="M233.325,574.628l-1.912-4.59l0,0l0,0l0,0L233.325,574.628L233.325,574.628L233.325,574.628
		L233.325,574.628z"/>
	<path fill="#EDA580" d="M231.413,607.14l-2.295-5.737c-0.765-1.148-0.382-2.677,0.765-3.442l0,0c1.148-0.383,2.678,0.383,3.06,1.53
		l0,0l2.678,5.737c0.765,1.148,0.382,2.677-0.765,3.443l0,0C232.943,609.052,231.795,608.67,231.413,607.14
		C231.413,607.523,231.413,607.523,231.413,607.14z"/>
	<path fill="#F2B292" d="M233.325,608.287l-3.825-8.415c-0.382-0.383,0-1.148,0.382-1.53l0,0c0.382,0,1.148,0,1.148,0.765l0,0
		l3.825,8.415c0.382,0.383,0,1.147-0.382,1.53l0,0C233.708,609.052,233.325,608.67,233.325,608.287L233.325,608.287z"/>
	<path fill="#F7BFA3" d="M233.708,606.375l-3.06-7.268v-0.383l0,0c0.382,0,0.382,0,0.382,0.383l0,0l3.06,7.268v0.383l0,0
		C233.708,606.758,233.708,606.758,233.708,606.375L233.708,606.375z"/>
	<path fill="#FFFFFF" d="M235.238,605.61c0.382,1.148,0,2.677-0.765,3.443l0,0c-0.765,0.383-2.295,0-3.06-1.53
		c0.382,0.383,1.147,0.383,1.912,0l0.765-0.383C234.473,606.758,234.855,605.992,235.238,605.61z"/>
	<path fill="#FCE3D6" d="M232.56,603.698l-1.912-4.208l0,0l0,0l0,0L232.56,603.698L232.56,603.698L232.56,603.698L232.56,603.698z"
		/>
	<path fill="#EDA580" d="M224.91,614.79l-3.06-5.355c-0.765-1.148-0.382-3.06,0.765-3.825l0,0l0,0
		c1.147-0.765,2.678-0.383,3.443,0.765l0,0l3.06,5.355c0.765,1.148,0.382,3.06-0.765,3.825l0,0
		C227.588,616.32,226.057,616.32,224.91,614.79C225.293,615.172,225.293,614.79,224.91,614.79z"/>
	<path fill="#F2B292" d="M227.205,615.172l-4.59-8.033c-0.382-0.383,0-1.147,0.382-1.53l0,0c0.382-0.383,1.148,0,1.53,0.383l0,0
		l4.59,8.032c0.382,0.383,0,1.148-0.382,1.53l0,0C228.353,615.938,227.588,615.938,227.205,615.172L227.205,615.172z"/>
	<path fill="#F7BFA3" d="M227.588,613.26l-4.208-6.885c0,0,0-0.383,0-0.765l0,0c0,0,0.382,0,0.765,0l0,0l4.208,6.885
		c0,0,0,0.383,0,0.765l0,0l0,0C227.97,613.642,227.97,613.642,227.588,613.26L227.588,613.26z"/>
	<path fill="#FFFFFF" d="M229.5,612.112c0.765,1.148,0.382,2.677-0.765,3.443l0,0c-1.147,0.765-2.678,0.383-3.443-0.765
		c0.765,0,1.53,0,1.912-0.383l0.765-0.383C228.735,613.642,229.118,612.878,229.5,612.112z"/>
	<path fill="#FCE3D6" d="M226.44,610.583l-2.295-4.208l0,0l0,0l0,0L226.44,610.583L226.44,610.583L226.44,610.583L226.44,610.583z"
		/>
	<path fill="#EDA580" d="M207.697,604.08l-3.06-3.06c-0.765-0.765-0.382-1.912,0.383-2.295l0,0l0,0c0.765-0.765,1.912-0.765,2.677,0
		l3.06,3.06c0.765,0.765,0.382,1.913-0.382,2.295l0,0l0,0C209.61,604.845,208.463,604.845,207.697,604.08z"/>
	<path fill="#F2B292" d="M209.61,604.08l-4.207-4.59c-0.383-0.383-0.383-0.765,0-1.148l0,0l0,0c0.382-0.383,0.765-0.383,1.147,0
		l4.207,4.59c0.382,0.383,0.382,0.765,0,1.148l0,0l0,0C210.375,604.08,209.993,604.08,209.61,604.08z"/>
	<path fill="#F7BFA3" d="M209.61,602.55l-3.825-3.825v-0.383l0,0l0,0h0.382l3.825,3.825v0.383l0,0l0,0
		C209.993,602.932,209.61,602.932,209.61,602.55z"/>
	<path fill="#FFFFFF" d="M210.757,601.402c0.382,0.765,0.382,1.913-0.382,2.677l0,0c-0.765,0.765-1.912,0.765-2.678,0
		c0.382,0,1.148-0.383,1.53-0.765l0.765-0.383C210.375,602.55,210.757,602.167,210.757,601.402z"/>
	<path fill="#FCE3D6" d="M208.463,601.02l-1.913-2.295l0,0l0,0L208.463,601.02L208.463,601.02L208.463,601.02z"/>
	<path fill="#EDA580" d="M196.988,599.49l-4.207-1.148c-1.148-0.383-1.53-1.148-1.53-1.912l0,0c0-0.765,1.148-1.148,1.913-0.765
		l4.207,1.148c1.147,0.383,1.53,1.148,1.53,1.912l0,0C198.9,599.49,198.135,599.49,196.988,599.49z"/>
	<path fill="#F2B292" d="M198.518,598.725l-6.12-1.912c-0.382,0-0.765-0.383-0.765-0.765l0,0c0-0.383,0.382-0.383,0.765-0.383
		l6.12,1.912c0.383,0,0.765,0.383,0.765,0.765l0,0C199.283,598.725,198.9,599.107,198.518,598.725z"/>
	<path fill="#F7BFA3" d="M197.753,597.96l-5.355-1.53c0,0-0.383,0-0.383-0.383l0,0c0,0,0,0,0.383,0L197.753,597.96
		C197.753,597.577,198.135,597.577,197.753,597.96L197.753,597.96C198.135,597.96,197.753,597.96,197.753,597.96z"/>
	<path fill="#FFFFFF" d="M197.753,597.195c0.765,0.383,1.53,1.148,1.148,1.53l0,0c0,0.383-1.148,0.765-1.913,0.765
		c0.382,0,0.765-0.383,0.765-0.765v-0.383C198.135,597.577,198.135,597.195,197.753,597.195z"/>
	<path fill="#FCE3D6" d="M195.84,597.195l-3.06-1.148l0,0l0,0L195.84,597.195L195.84,597.195L195.84,597.195z"/>
	<path fill="#D085B2" d="M78.412,366.165c21.803,56.227,48.195,110.543,78.795,162.563c12.24-9.18,26.393-18.36,43.605-17.977
		c-27.923-52.02-50.107-110.925-73.44-164.475C105.57,325.237,79.56,336.712,78.412,366.165z"/>
	<path fill="#DD94C3" d="M190.868,511.897c3.06-0.765,6.503-0.765,9.945-0.765c-25.628-48.195-47.048-102.127-68.467-152.235
		c-2.295,2.295-32.13,5.738-34.425,8.033c19.125-0.765,29.452,3.06,30.6,5.355C147.262,416.272,170.213,469.823,190.868,511.897z"/>
	<path fill="#AD7398" d="M299.115,231.525c-37.867-1.53-75.735-0.765-113.603,3.06c-44.752,5.738-62.347,29.452-61.965,54.315
		c6.12-10.328,13.387-19.89,21.803-28.305c9.563-10.71,26.01-20.272,51.637-22.185L299.115,231.525L299.115,231.525z
		 M147.645,325.62c9.563,7.268,22.95,29.07,28.305,38.25c10.328,17.978,19.89,53.932,66.555,54.698
		c5.355,0,10.71-0.765,15.682-1.913c-3.443,0.382-7.268,0.765-10.71,0.765c-47.048-0.765-49.725-34.043-60.435-52.02
		C184.365,358.897,162.563,326.767,147.645,325.62z"/>
	<path fill="#AD7398" d="M79.178,365.4l8.797,4.973l-1.147-3.06c0-5.355,1.53-10.71,3.825-15.682
		c1.147-3.443,2.678-6.885,4.208-9.563c13.387-27.923,32.895-65.408,50.49-81.473c1.147-1.53,2.295-2.678,3.825-3.825l-2.678-7.65
		c-19.89,4.207-43.605,57.375-60.053,91.8C82.238,348.57,79.942,356.985,79.178,365.4z"/>
	<path fill="#AD7398" d="M78.412,366.165c21.803,56.227,48.195,110.543,78.795,162.563c2.678-1.912,4.973-3.825,7.65-5.355
		c-28.305-48.578-59.288-105.953-78.03-156.06c0-5.355,1.53-10.71,3.825-15.682c1.147-3.443,2.678-6.885,4.208-9.563l2.677-5.355
		C87.21,339.39,79.178,350.1,78.412,366.165z"/>
	<path fill="#DD94C3" d="M299.115,231.525l104.805,8.798c28.305,3.443,45.9,14.153,54.698,27.922
		c6.502,8.798,9.945,23.333,13.005,39.398c1.912-5.355,3.06-10.71,3.443-16.065c1.53-25.628-15.682-50.872-61.965-56.61
		C375.233,230.76,336.983,229.995,299.115,231.525L299.115,231.525z M361.462,414.36c35.955-1.912,47.43-34.425,56.993-51.255
		l21.802-43.987c-16.83,16.83-28.688,50.107-43.223,68.85C387.855,400.207,375.615,409.387,361.462,414.36z"/>
	<path fill="#F1B287" d="M290.283,412.212c-4.71-6.12-9.419-11.858-14.491-17.595l42.75,1.53c-3.985,4.973-7.608,9.945-11.231,15.3
		c-2.898,3.825-6.159,7.65-9.057,8.032C295.355,419.862,292.819,415.272,290.283,412.212z"/>
	<path fill="#F4BC97" d="M301.152,418.332c2.898-3.06,2.898-9.563,1.449-17.978l2.174,1.53c0.362,5.355,3.261,8.032,0.725,11.475
		C304.05,415.272,302.601,416.802,301.152,418.332z"/>
	<path fill="#F1B287" d="M230.506,354.837c-24.273-46.665-14.129-90.27,0.362-128.138c23.911-61.583,98.179-68.085,128.611-18.743
		C380.492,242,396.07,297.08,371.435,347.952c-10.144,20.655-18.839,38.25-33.33,47.43c-10.506,6.885-28.258,7.268-39.489,7.65
		c-11.231,0.383-26.085,0-39.851-9.563C248.258,385.438,239.563,371.667,230.506,354.837z"/>
	<path fill="#E8A477" d="M230.506,354.837c-24.273-46.665-15.216-92.565-0.725-130.433c11.593-30.217,43.112-44.37,70.283-47.43
		c-22.099,6.12-47.459,19.508-57.241,45.135c-14.491,37.867-23.549,83.767,0.725,130.432c8.695,16.83,17.39,30.6,28.258,38.25
		c6.883,4.59,14.491,7.65,22.462,8.798l-9.057,3.06c-9.419-0.765-18.477-3.825-26.447-9.18
		C248.258,385.438,239.563,371.667,230.506,354.837z"/>
	<path fill="#F4BC97" d="M319.266,175.827c18.114,4.207,34.417,15.3,44.923,31.747c21.013,34.043,32.243,89.122,7.97,139.995
		c-10.144,20.655-18.839,38.25-33.33,47.43c-7.97,4.973-19.201,6.502-29.345,7.267l-6.883-4.207
		c8.695-0.383,17.39-2.677,25.36-6.885c14.491-9.18,23.186-26.775,33.33-47.43c24.273-50.872,13.405-105.952-7.97-139.995
		C344.988,191.127,333.033,181.182,319.266,175.827z"/>
	<path fill="#E8A477" d="M339.916,394.235L338.829,395c-9.057,5.737-23.186,6.885-34.417,7.267c-1.811-0.765-3.623-1.147-5.797-1.53
		c-2.174,0.383-3.985,0.765-6.159,1.53c-9.419,0-18.839-1.913-27.534-6.12c17.39,4.973,26.447,1.148,33.33,1.148
		C308.397,397.295,313.107,402.65,339.916,394.235z"/>
	<path fill="#E8A477" d="M285.573,406.092c-1.811-2.295-3.623-4.59-5.797-6.885h13.042h0.725h13.405h0.362h8.695
		c-1.449,1.913-2.898,4.207-4.71,6.502h-0.362l0,0l0,0h-0.362h-0.362l0,0h-0.362l0,0l0,0l-0.362-0.382l0,0h-0.362l0,0l0,0l0,0l0,0
		h-0.362l0,0h-0.362l0,0l0,0l0,0h-0.362l0,0h-0.362h-0.362l0,0h-0.362l0,0l0,0l0,0l0,0h-0.362l0,0h-0.362l0,0l0,0l0,0l0,0h1.811l0,0
		l0,0h-0.362l0,0l0,0h-0.362l0,0l0,0h-2.898h-0.362l0,0h-0.362h-0.362h-0.362l0,0h-0.362h-0.362h-0.362h-0.725h-0.362h-6.883h-0.362
		l0,0h-0.362l0,0h-0.362l0,0h-0.362h1.087h-0.362l0,0h-0.362l0,0h-0.362l0,0l0,0h-0.362l0,0l0,0h-0.362h-0.362l0,0h-0.362l0,0l0,0
		h-0.362h-0.362l0,0h-0.362l0,0h-0.362l0,0h-0.362l0,0l0,0l0,0l0,0h-0.362l0,0h-0.362l0,0h1.449l0,0l0,0l0,0l0,0l0,0l0,0h-0.362l0,0
		h-0.362l0,0h-0.362l0,0h-0.362l0,0l0,0h-0.362l0,0h-0.362l0,0h-0.362l0,0L285.573,406.092z"/>
	<path fill="#F1B287" d="M383.753,309.702c6.159-5.738,6.159-12.24,8.333-18.36c1.811-5.355,5.797-12.24,6.159-19.125
		c0.725-11.857-11.593-18.742-14.854-3.825C378.681,288.282,376.869,292.107,383.753,309.702z"/>
	<path fill="#F1B287" d="M215.652,309.702c-6.159-5.738-6.159-12.24-8.333-18.36c-1.811-5.355-5.797-12.24-6.159-19.125
		c-0.725-11.857,11.593-18.742,14.854-3.825C220.362,288.282,222.173,292.107,215.652,309.702z"/>
	<path fill="#BDB4A5" d="M275.429,396.912c-11.593-3.825-22.462-9.945-31.881-17.977c6.883,10.71,17.39,18.742,29.345,22.185
		C279.414,402.267,281.951,398.825,275.429,396.912z"/>
	<path fill="#BDB4A5" d="M322.526,396.912c11.593-3.825,22.462-9.945,31.881-17.977c-6.883,10.71-17.39,18.742-29.345,22.185
		C318.904,402.267,316.005,398.825,322.526,396.912z"/>
	<path fill="#E8A477" d="M296.08,418.332c-2.898-3.06-2.898-9.563-1.449-17.978l-2.174,1.53c-0.362,5.355-3.261,8.032-0.725,11.475
		C293.181,415.272,294.631,417.185,296.08,418.332z"/>
	<g>
		<path fill="#BDB4A5" d="M372.522,346.422c19.563-43.987,15.216-87.592,1.087-123.165
			c-23.549-61.583-107.961-65.025-138.393-15.683c-22.099,36.72-27.534,81.855-14.491,123.165
			c7.608,13.388,18.477,24.48,31.519,32.13c-5.797-1.147-11.593-3.825-15.941-8.032c8.695,11.092,16.665,14.918,30.794,10.71
			c17.752,31.748,52.169,27.54,76.805,8.798c-14.854,6.885-25.36,9.945-35.866,9.945
			C338.105,377.022,353.683,366.313,372.522,346.422z"/>
		<path fill="#BDB4A5" d="M316.73,177.357c9.782-13.005,19.926-27.158,14.129-46.283c-12.68-42.458-55.067-40.927-68.472-1.913
			c-5.072,14.918,2.174,42.075,20.65,48.578L316.73,177.357z"/>
		<path fill="#D3CBBE" d="M266.372,358.28c7.246,17.977,22.099,33.277,52.169,27.158c-9.057,0.382-18.477-1.148-27.171-4.208
			c16.665,0.765,33.33-3.825,47.822-12.622c57.241-33.66,45.648-133.493,14.491-174.038c21.737,49.725,28.258,100.98-12.68,145.35
			l10.144-27.158C335.207,344.127,291.008,372.05,266.372,358.28z"/>
		<path fill="#D3CBBE" d="M270.72,357.897c-1.087-3.825-3.261-6.502-3.623-11.475c1.449-5.355,2.174-11.092,2.536-16.83
			c0-8.798-2.898-11.858-2.536-16.83c0.725-8.798,3.985-13.387,4.347-18.36c0.362-7.268-2.536-7.268-2.898-12.24
			c-2.174-28.687,9.782-79.56,21.375-97.92c-5.072,18.36-12.68,37.102-13.042,59.287c4.347-18.36,17.027-53.55,18.477-68.085
			c36.229,6.885,54.343,8.033,62.675,43.223c7.97,33.277,2.174,56.227-17.752,90.27c14.129-15.682,18.839-30.6,22.824-49.725
			C360.566,316.587,322.889,356.367,270.72,357.897z"/>
		<path fill="#BDB4A5" d="M272.893,367.842c43.112,29.835,96.368-6.12,109.773-61.965
			C355.857,362.87,322.889,381.612,272.893,367.842z"/>
		<path fill="#BDB4A5" d="M267.821,362.487c11.231,30.217,41.301,27.923,54.705,23.332
			C308.397,388.88,280.501,388.497,267.821,362.487z"/>
		<path fill="#D3CBBE" d="M277.965,367.842c51.082,8.033,88.035-19.125,96.006-87.21c-11.231,56.992-44.199,78.412-95.281,83.003
			c-2.174,0-3.985,0-6.159,0.382C270.72,364.782,271.082,366.695,277.965,367.842z"/>
		<path fill="#BDB4A5" d="M360.566,339.537c31.157-57.375,25.722-80.707,2.174-136.552
			C381.217,258.447,383.028,284.075,360.566,339.537z"/>
		<path fill="#BDB4A5" d="M271.444,356.75c36.591,5.737,73.906-24.48,89.122-77.648C350.06,297.845,323.976,343.745,271.444,356.75z
			"/>
		<path fill="#D3CBBE" d="M289.921,355.22c24.635-5.355,49.271-27.54,60.864-51.255C335.569,326.532,314.194,344.51,289.921,355.22z
			"/>
		<path fill="#BDB4A5" d="M346.8,330.74c21.737-23.715,30.432-65.025,13.767-116.28C371.073,253.475,366.001,295.55,346.8,330.74z"
			/>
		<path fill="#BDB4A5" d="M275.792,369.372c26.447,13.77,63.4,5.737,80.065-16.83C337.018,370.52,309.484,380.465,275.792,369.372z"
			/>
		<path fill="#BDB4A5" d="M269.995,349.865c18.114,1.148,94.194-71.91,67.385-158.737
			C350.785,281.397,287.022,330.74,269.995,349.865z"/>
		<path fill="#D3CBBE" d="M305.137,333.8c37.315-18.36,82.963-99.068,26.809-154.148C374.333,240.47,335.207,301.287,305.137,333.8z
			"/>
		<path fill="#D3CBBE" d="M270.72,352.925c24.273-7.65,55.067-43.605,60.864-74.205C322.526,301.67,301.876,335.33,270.72,352.925z"
			/>
		<path fill="#D3CBBE" d="M277.241,352.542c35.504-9.563,68.472-40.927,81.877-82.237
			C350.785,289.812,328.323,333.417,277.241,352.542z"/>
		<path fill="#D3CBBE" d="M287.022,370.137c32.606,5.355,66.298-4.59,81.152-53.55C346.8,372.05,302.963,368.99,287.022,370.137z"/>
		<path fill="#BDB4A5" d="M272.169,365.165c40.938,5.737,74.269-6.12,88.035-37.485
			C344.626,354.455,319.628,366.313,272.169,365.165z"/>
		<path fill="#BDB4A5" d="M327.236,303.2c21.737-23.715,30.432-65.025,13.767-116.28C351.509,225.935,346.437,268.01,327.236,303.2z
			"/>
		<path fill="#BDB4A5" d="M269.633,346.805c18.114-29.07,85.499-99.833,59.415-164.475
			C340.641,250.797,273.98,301.287,269.633,346.805z"/>
		<path fill="#BDB4A5" d="M279.414,326.15c16.665-29.07,68.11-84.533,49.633-143.438C343.539,253.475,288.472,286.37,279.414,326.15
			z"/>
		<path fill="#D3CBBE" d="M278.328,337.625c21.375-18.36,59.415-69.615,56.154-117.81
			C333.395,259.212,313.832,289.047,278.328,337.625z"/>
		<path fill="#BDB4A5" d="M273.618,316.587c37.315-65.025,80.427-118.958,28.621-138.083c24.635,24.098,2.898,59.67-13.405,94.477
			c8.695-38.25,34.417-71.91,8.333-94.477c4.347,13.387-12.318,53.168-16.665,72.675
			C276.154,273.365,272.169,284.075,273.618,316.587z"/>
		<path fill="#D3CBBE" d="M275.429,311.232c15.216-30.217,76.08-108.247,28.258-131.963
			C343.539,207.957,287.385,273.747,275.429,311.232z"/>
		<path fill="#D3CBBE" d="M284.124,285.605c7.97-51.637,26.447-76.117,14.491-104.422
			C319.266,203.75,293.906,239.322,284.124,285.605z"/>
		<path fill="#BDB4A5" d="M292.819,257.3c21.737-30.6,28.258-60.818,8.695-76.882C310.933,193.422,317.454,214.46,292.819,257.3z"/>
		<path fill="#BDB4A5" d="M274.705,292.107c-1.449-34.425-1.087-43.605,3.623-78.03c-3.261,33.66-3.623,35.572,1.087,69.615
			L274.705,292.107z"/>
		<path fill="#BDB4A5" d="M258.764,189.597c-30.07,20.273-38.402,50.49-36.229,105.57l-3.623-23.715
			c-8.333,34.042,22.824,64.26,51.445,82.237c-13.042-32.13-2.174-51.255-4.71-74.587l-4.71,19.89
			c0-32.513,14.854-91.8,31.157-121.253c-32.968,7.268-43.112,35.955-46.01,61.2C244.997,224.405,247.533,213.695,258.764,189.597z"
			/>
		<path fill="#D3CBBE" d="M217.826,285.222c1.449,36.72,43.474,64.26,54.343,71.91c-17.752,15.682-39.489-1.53-46.735-17.595
			c5.072,6.12,10.869,10.71,17.752,13.77C223.623,338.39,212.754,318.882,217.826,285.222z"/>
		<path fill="#BDB4A5" d="M273.618,185.39c-26.085,30.218-28.258,71.145-19.563,115.515
			C256.953,258.065,256.953,219.432,273.618,185.39z"/>
		<path fill="#BDB4A5" d="M232.317,221.727c-21.013,67.702,20.288,118.958,38.04,131.962
			C256.228,336.86,224.709,284.457,232.317,221.727z"/>
		<path fill="#BDB4A5" d="M231.23,348.335c14.854,17.212,26.809,22.185,38.04,10.327
			C258.402,365.165,241.374,355.602,231.23,348.335z"/>
		<path fill="#D3CBBE" d="M225.434,263.037c0.362,32.895,10.506,66.173,36.229,80.707
			C235.94,320.412,230.144,293.637,225.434,263.037z"/>
		<path fill="#D3CBBE" d="M248.983,200.69c-28.983,64.26,0.362,117.045,16.665,144.585
			C260.576,319.265,233.767,261.89,248.983,200.69z"/>
		<path fill="#BDB4A5" d="M238.476,234.732c-3.985,36.72,4.71,73.44,24.635,104.04C247.171,307.025,238.476,271.07,238.476,234.732z
			"/>
		<path fill="#D3CBBE" d="M268.184,350.247c-27.534-27.158-33.33-60.052-29.707-92.182
			C241.012,292.107,245.722,317.735,268.184,350.247z"/>
		<path fill="#BDB4A5" d="M272.531,358.662c-20.65,1.148-44.561-20.272-52.894-51.255
			C243.548,347.188,251.156,343.362,272.531,358.662z"/>
		<path fill="#D3CBBE" d="M268.184,360.193c-18.114,1.147-39.127-17.595-46.01-44.753
			C242.824,350.247,249.345,347.188,268.184,360.193z"/>
		<path fill="#BDB4A5" d="M292.457,174.68c-28.983,27.158-35.142,67.702-30.794,112.455
			C268.546,244.677,272.531,206.427,292.457,174.68z"/>
		<path fill="#D3CBBE" d="M288.472,178.887c-40.938,36.338-38.402,116.663-26.085,151.087
			C253.33,289.812,256.228,216.372,288.472,178.887z"/>
		<path fill="#BDB4A5" d="M296.804,177.357l17.39-0.765c30.07-32.895,6.159-95.242-40.938-64.26
			C310.933,111.567,306.948,153.26,296.804,177.357z"/>
		<path fill="#D3CBBE" d="M310.933,176.21c20.288-13.005,24.273-78.03-29.707-69.232
			C332.671,110.802,319.266,158.232,310.933,176.21z"/>
		<path fill="#BDB4A5" d="M301.514,176.975c18.477-4.972,18.114-77.265-26.809-65.79
			C312.745,110.802,309.846,158.997,301.514,176.975z"/>
		<path fill="#D3CBBE" d="M306.948,176.975c14.491-18.36,15.941-69.232-24.635-68.085
			C320.715,108.507,315.643,158.997,306.948,176.975z"/>
		<path fill="#BDB4A5" d="M296.442,176.592c-5.434-17.595-17.39-43.988-11.955-62.347c-15.578-0.765-21.375,15.3-21.013,27.54
			C264.199,160.145,279.052,179.652,296.442,176.592z"/>
		<path fill="#D3CBBE" d="M294.993,175.827c-15.216-1.912-25.722-8.415-32.968-35.955l6.883,10.71
			c-3.985-15.3-4.347-30.983,14.491-39.398C269.633,127.25,273.618,161.675,294.993,175.827z"/>
		<path fill="#D3CBBE" d="M298.616,174.297c1.811-32.513,5.797-32.13-11.955-59.288C289.559,134.9,293.544,154.79,298.616,174.297z"
			/>
	</g>
</g>
</svg>
