<?xml version="1.0" encoding="utf-8"?>
<!-- Generator: Adobe Illustrator 17.0.0, SVG Export Plug-In . SVG Version: 6.00 Build 0)  -->
<!DOCTYPE svg PUBLIC "-//W3C//DTD SVG 1.1//EN" "http://www.w3.org/Graphics/SVG/1.1/DTD/svg11.dtd">
<svg version="1.1" id="Capa_1" xmlns="http://www.w3.org/2000/svg" xmlns:xlink="http://www.w3.org/1999/xlink" x="0px" y="0px"
	 width="612px" height="792px" viewBox="0 0 612 792" enable-background="new 0 0 612 792" xml:space="preserve">
<title>Mesa de trabajo 1</title>
<g>
	<circle opacity="0.2" enable-background="new    " cx="310.59" cy="624.735" r="105.57"/>
	<circle fill="#FFFFFF" cx="304.852" cy="621.675" r="104.805"/>
	
		<radialGradient id="SVGID_1_" cx="80.8077" cy="760.1078" r="24.6679" gradientTransform="matrix(3.825 0 0 3.825 -4.2375 -2285.7375)" gradientUnits="userSpaceOnUse">
		<stop  offset="0" style="stop-color:#FFFFFF"/>
		<stop  offset="0.4846" style="stop-color:#F5F5F5"/>
		<stop  offset="1" style="stop-color:#E6E6E6"/>
	</radialGradient>
	<circle fill="url(#SVGID_1_)" cx="304.852" cy="621.675" r="94.477"/>
	<circle fill="#FAFAFA" stroke="#E0E0E0" stroke-width="0.4413" stroke-miterlimit="10" cx="304.852" cy="621.675" r="50.873"/>
	<circle fill="none" stroke="#FFC107" stroke-width="1.738" stroke-miterlimit="10" cx="304.852" cy="621.675" r="94.095"/>
	<path opacity="0.5" fill="#FFFFFF" enable-background="new    " d="M379.057,547.47L231.03,695.497
		c-40.928-40.927-40.928-107.1,0-148.027S338.13,506.542,379.057,547.47z"/>
	<path opacity="0.1" enable-background="new    " d="M261.248,621.675c0-27.158,21.037-48.96,47.813-50.49c-1.148,0-2.295,0-3.443,0
		c-27.923,0-50.873,22.568-50.873,50.872c0,28.305,22.568,50.873,50.873,50.873c1.147,0,2.295,0,3.443,0
		C282.285,670.635,261.248,648.833,261.248,621.675z"/>
	<g id="XMLID_219_">
		<g opacity="0.6">
			<path id="XMLID_267_" d="M416.16,719.595h2.295l0.382-35.19c0-0.383,0-0.765,0.383-0.765c0.383-0.383,1.148-0.383,1.53,0
				l-0.382,35.955h2.295l0.383-35.19l0,0c0.382-0.765,1.53-0.383,1.53,0.383v34.808h2.677l0.382-34.808
				c0-0.765,1.148-1.148,1.53-0.383l0,0v35.19h2.295l-0.383-35.955c0.383-0.383,1.148-0.383,1.53,0s0.382,0.383,0.382,0.765v35.19
				h2.295V666.81c0-1.148-0.382-2.295-0.765-3.06l-4.59-9.563c-0.383-1.148-0.765-2.295-0.765-3.443l3.825-115.133
				c0-2.295-0.765-4.207-2.677-5.737l0,0c-2.677-2.295-6.502-2.295-9.18,0l0,0c-1.53,1.53-2.677,3.443-2.677,5.737l3.06,115.133
				c0,1.148-0.382,2.295-0.765,3.443l-4.59,9.18c-0.382,1.147-0.765,1.912-0.765,3.06L416.16,719.595z"/>
			<polygon id="XMLID_266_" points="421.515,612.495 422.28,638.888 430.695,633.533 431.46,606.375 			"/>
			<path id="XMLID_265_" d="M420.368,569.273l12.622-8.033l0.765-25.245c0-0.765,0-1.148,0-1.913l-14.152,8.798L420.368,569.273z"/>
			<polygon id="XMLID_264_" points="416.16,675.99 434.138,661.073 432.608,658.013 416.543,671.783 			"/>
			<polygon id="XMLID_263_" points="416.16,698.175 418.837,695.88 418.837,688.612 416.16,690.525 			"/>
			<path id="XMLID_262_" d="M424.575,684.787v6.12l3.06-2.677v-3.825c0-0.765,1.148-1.148,1.53-0.383l0,0v2.295l1.913-1.912v-1.53
				c0.383-0.383,1.148-0.383,1.53,0c0,0,0,0,0,0.383l2.677-2.295v-7.267l-12.24,9.945
				C424.193,684.405,424.575,684.405,424.575,684.787z"/>
			<polygon id="XMLID_261_" points="423.045,692.438 423.045,685.17 420.75,686.7 420.75,694.35 			"/>
		</g>
		<g>
			<g>
				<path id="XMLID_253_" fill="#CCCCCA" d="M413.865,717.3h2.295l0.383-35.19c0-0.383,0-0.765,0.383-0.765
					c0.382-0.383,1.147-0.383,1.53,0l-0.383,35.955h2.295l0.382-35.19l0,0c0.383-0.765,1.53-0.383,1.53,0.383V717.3h2.677
					l0.383-34.807c0-0.765,1.148-1.148,1.53-0.383l0,0v35.19h2.295l-0.383-35.955c0.383-0.383,1.148-0.383,1.53,0
					c0.383,0.383,0.383,0.383,0.383,0.765v35.19h2.295v-52.785c0-1.147-0.382-2.295-0.765-3.06l-4.59-9.563
					c-0.382-1.148-0.765-2.295-0.765-3.442l3.825-115.133c0-2.295-0.765-4.208-2.677-5.737l0,0c-2.677-2.295-6.503-2.295-9.18,0l0,0
					c-1.53,1.53-2.677,3.443-2.677,5.737l3.06,115.133c0,1.147-0.383,2.295-0.765,3.442l-4.59,9.18
					c-0.383,1.148-0.765,1.912-0.765,3.06L413.865,717.3z"/>
				<polygon id="XMLID_252_" fill="#F2F2F2" points="419.22,610.2 419.985,636.592 428.4,631.237 429.165,604.08 				"/>
				<path id="XMLID_251_" fill="#F2F2F2" d="M418.073,566.977l12.623-8.033l0.765-25.245c0-0.765,0-1.148,0-1.912l-14.152,8.797
					L418.073,566.977z"/>
				<polygon id="XMLID_246_" fill="#F2F2F2" points="413.865,673.695 431.842,658.777 430.313,655.717 413.865,669.105 				"/>
				<g id="XMLID_220_">
					<polygon id="XMLID_238_" fill="#F2F2F2" points="413.865,695.88 416.543,693.585 416.543,686.317 413.865,688.23 					"/>
					<path id="XMLID_222_" fill="#F2F2F2" d="M422.28,682.492v6.12l3.06-2.677v-3.825c0-0.765,1.148-1.148,1.53-0.383l0,0v2.295
						l1.913-1.913v-1.53c0.382-0.383,1.148-0.383,1.53,0c0,0,0,0,0,0.383l2.677-2.295V671.4l-12.24,9.945
						C421.898,682.11,422.28,682.11,422.28,682.492z"/>
					<polygon id="XMLID_221_" fill="#F2F2F2" points="420.75,690.142 420.75,682.875 418.455,684.405 418.455,692.055 					"/>
				</g>
			</g>
		</g>
	</g>
	<g id="XMLID_159_">
		<g opacity="0.6">
			<path id="XMLID_218_" d="M175.185,531.405L175.95,717.3c0,2.677,3.443,3.443,4.973,1.148l0,0
				c5.355-9.945,9.18-21.038,10.71-32.513l1.53-10.71c1.147-8.415-0.382-17.212-4.973-24.862l0,0
				c-3.825-6.503-5.738-14.152-5.355-21.802l4.972-80.325c0.382-4.972,0-9.563-1.53-14.152l0,0c-1.148-3.825-4.208-6.12-8.033-6.12
				l0,0C176.715,528.345,175.185,529.875,175.185,531.405z"/>
			<polygon id="XMLID_217_" points="175.568,589.545 175.568,615.938 183.982,610.583 185.895,582.66 			"/>
			<path id="XMLID_216_" d="M178.245,528.345c-1.913,0-3.06,1.53-3.06,3.443v13.77l12.24-7.65c-0.382-1.148-0.382-1.913-0.765-3.06
				C185.512,530.64,182.07,528.345,178.245,528.345z"/>
			<path id="XMLID_195_" d="M182.835,630.472l-7.268,6.12v4.59l7.65-6.12C182.835,633.533,182.835,632.003,182.835,630.472z"/>
			<path id="XMLID_194_" d="M175.95,697.41v7.268l14.535-11.858c0.382-2.295,0.765-4.59,1.147-6.885l0.382-1.912L175.95,697.41z"/>
		</g>
		<g>
			<g>
				<path id="XMLID_193_" fill="#CCCCCA" d="M172.89,529.11l0.765,185.513c0,2.677,3.443,3.443,4.972,1.148l0,0
					c5.355-9.945,9.18-21.038,10.71-32.513l1.53-10.71c1.147-8.415-0.382-17.212-4.973-24.862l0,0
					c-3.825-6.503-5.737-14.152-5.355-21.802l4.972-80.325c0.382-4.972,0-9.563-1.53-14.152l0,0c-1.147-3.825-4.207-6.12-8.033-6.12
					l0,0C174.42,526.05,172.89,527.58,172.89,529.11z"/>
				<polygon id="XMLID_192_" fill="#F2F2F2" points="172.89,586.867 173.273,613.642 181.688,608.287 183.6,580.365 				"/>
				<path id="XMLID_163_" fill="#F2F2F2" d="M175.95,526.05c-1.912,0-3.06,1.53-3.06,3.443v13.77l12.24-7.65
					c-0.382-1.148-0.382-1.912-0.765-3.06C183.218,528.345,179.775,526.05,175.95,526.05z"/>
				<path id="XMLID_162_" fill="#F2F2F2" d="M180.54,628.177l-7.268,6.12v4.59l7.65-6.12
					C180.54,631.237,180.54,629.708,180.54,628.177z"/>
				<path id="XMLID_161_" fill="#F2F2F2" d="M173.273,695.115v7.267l14.535-11.858c0.382-2.295,0.765-4.59,1.147-6.885l0.383-1.912
					L173.273,695.115z"/>
			</g>
		</g>
	</g>
</g>
<g>
	<g>
		<g>
			<g>
				<g>
					<defs>
						<rect id="SVGID_2_" y="55.575" width="612" height="406.98"/>
					</defs>
					<clipPath id="SVGID_3_">
						<use xlink:href="#SVGID_2_"  overflow="visible"/>
					</clipPath>
					<g clip-path="url(#SVGID_3_)">
						<g>
							<path fill="#21211D" d="M170.213,290.43c8.415-12.622,74.97-21.802,141.525-19.508
								c60.435,1.913,120.487,13.388,136.17,39.398c26.775,44.753,47.43,228.352-35.573,232.56
								c-85.68,4.59-145.35,2.677-231.03-4.207C108.63,523.755,138.465,339.007,170.213,290.43z"/>
							<path d="M191.25,290.43c8.033-12.24,59.67-21.802,116.663-19.508c52.02,1.913,107.482,13.388,120.87,39.398
								c22.95,44.753,49.342,230.648-22.185,235.237c-73.822,4.59-153-5.737-226.822-12.622
								C117.81,517.635,157.973,339.007,191.25,290.43z"/>
							<path fill="#363632" d="M173.655,286.987c16.447-11.092,77.265-18.36,137.7-16.065
								c60.435,1.913,120.487,13.387,136.17,39.397c25.245,42.457,45.135,210.375-23.715,230.647
								c55.845-34.043,36.72-185.895,13.005-225.675c-15.682-26.01-75.735-37.485-136.17-39.397
								C249.773,273.982,198.518,278.955,173.655,286.987z"/>
							<path d="M99.067,191.745c3.825-14.917,10.328-34.042,9.18-63.495c-1.912-48.96,21.803-58.14,81.09-54.315
								c48.195,3.06,81.09,0,118.575,0c34.043,0,80.707,3.06,115.133,1.912c40.927-1.53,78.03,8.798,77.265,47.43
								c-0.383,16.83-6.503,47.812,0.383,66.937c31.748,89.123-143.82,135.023-215.73,128.137
								C220.32,318.735,77.265,278.572,99.067,191.745z"/>
							<path fill="#21211D" d="M421.515,75.847h1.148c40.927-1.53,78.03,8.798,77.265,47.43c-0.383,16.83-6.502,47.812,0.383,66.937
								c30.6,86.063-132.345,131.962-208.08,128.903c80.325-3.06,221.085-48.195,192.397-128.903
								c-6.885-19.125-0.765-50.107-0.383-66.937C485.01,89.617,456.323,77.377,421.515,75.847z"/>
							<g>
								<g>
									<path fill="#5C5C69" d="M102.51,547.852H89.888c-13.388,0-24.098-10.71-24.098-24.098V284.692
										c0-13.388,10.71-24.098,24.098-24.098h12.622c13.387,0,24.097,10.71,24.097,24.098v239.062
										C126.607,536.76,115.515,547.852,102.51,547.852z"/>
									<path fill="#7C7C8A" d="M100.597,547.852H91.8c-9.18,0-16.448-7.268-16.448-16.448V277.042
										c0-9.18,7.268-16.447,16.448-16.447h8.415c9.18,0,16.447,7.267,16.447,16.447v254.363
										C117.045,540.202,109.395,547.852,100.597,547.852z"/>
									<path fill="#A2A2AB" d="M103.658,541.732h-8.415c-4.972,0-9.18-1.912-12.24-5.355c2.295,1.147,4.59,1.53,7.268,1.53h8.415
										c9.18,0,16.447-7.268,16.447-16.065V276.277c0-4.207-1.53-8.033-4.207-10.71c5.355,2.677,9.18,8.032,9.18,14.152v245.948
										C120.105,534.465,112.838,541.732,103.658,541.732z"/>
								</g>
								<g>
									<path fill="#5C5C69" d="M511.02,547.852h-12.622c-13.388,0-24.098-10.71-24.098-24.098V284.693
										c0-13.388,10.71-24.098,24.098-24.098h12.622c13.388,0,24.098,10.71,24.098,24.098v239.063
										C535.117,536.76,524.408,547.852,511.02,547.852z"/>
									<path fill="#7C7C8A" d="M509.108,547.852h-8.415c-9.18,0-16.448-7.268-16.448-16.448V277.042
										c0-9.18,7.267-16.447,16.448-16.447h8.415c9.18,0,16.448,7.267,16.448,16.447v254.363
										C525.555,540.202,517.905,547.852,509.108,547.852z"/>
									<path fill="#A2A2AB" d="M512.167,541.732h-8.415c-4.973,0-9.18-1.912-12.24-5.355c2.295,1.147,4.59,1.53,7.267,1.53h8.415
										c9.18,0,16.447-7.268,16.447-16.065V275.895c0-4.208-1.53-8.033-4.208-10.71c5.355,2.678,9.18,8.033,9.18,14.153v246.33
										C528.615,534.465,521.348,541.732,512.167,541.732z"/>
								</g>
							</g>
							<path fill="#21211D" d="M109.013,145.462c-11.858-61.2,12.622-86.445,71.91-81.855c48.195,3.825,89.888,6.503,126.99,6.503
								c34.043,0,83.768-4.973,118.193-6.503c59.67-2.678,83.003,11.475,73.822,77.265c-5.737,41.693-102.127-18.36-205.02-15.3
								C199.665,128.632,112.455,163.822,109.013,145.462z"/>
							<path fill="#363632" d="M307.913,70.492c34.043,0,83.768-4.973,118.193-6.503c59.67-2.678,83.003,11.475,73.822,77.265
								c-1.53,9.945-8.033,14.152-18.36,14.917l0,0c4.59-33.66,0.765-53.933-12.24-65.025
								C446.378,70.875,365.288,84.262,307.913,70.492z"/>
							<path d="M299.88,70.492c-34.043,0-83.768-4.973-118.193-6.503c-59.67-2.678-83.003,11.475-73.822,77.265
								c1.53,9.945,7.65,14.152,18.36,14.917l0,0c-4.59-33.66-0.765-53.933,12.24-65.025
								C161.415,70.875,242.505,84.262,299.88,70.492z"/>
						</g>
						<g>
							<g>
								<path fill="#606087" d="M202.725,333.652l100.598,39.015c58.905-17.212,63.113-24.098,84.15-15.3
									c41.31,17.595,44.753,81.09,57.758,140.76c13.388,61.2,35.19,101.745,21.038,143.055
									c-25.245,73.44-61.582,44.37-76.118,13.77c-13.387-27.922-30.982-87.21-49.725-133.11
									c-9.945-24.863-11.475-47.813-26.01-54.698c-13.005-6.12-21.42-4.59-26.01,1.147c-1.53,1.913-7.267,30.6-14.152,65.79
									c-19.125,98.302-27.923,133.11-48.96,143.055c-33.66,15.682-48.577,4.208-60.053-14.917
									c-19.125-31.365,5.738-183.6,20.272-274.635C190.485,353.925,183.6,346.657,202.725,333.652z"/>
								<path fill="#4F6A78" d="M202.725,333.652l100.598,39.015c58.905-17.212,63.113-24.098,84.15-15.3
									c41.31,17.595,44.753,81.09,57.758,140.76c13.388,61.2,35.19,101.745,21.038,143.055
									c-25.245,73.44-61.582,44.37-76.118,13.77c-13.387-27.922-30.982-87.21-49.725-133.11
									c-9.945-24.863-11.475-47.813-26.01-54.698c-13.005-6.12-21.42-4.59-26.01,1.147c-1.53,1.913-7.267,30.6-14.152,65.79
									c-19.125,98.302-27.923,133.11-48.96,143.055c-33.66,15.682-48.577,4.208-60.053-14.917
									c-19.125-31.365,5.738-183.6,20.272-274.635C190.485,353.925,183.6,346.657,202.725,333.652z"/>
								<path fill="#3A4D57" d="M359.168,355.455c11.475-3.06,17.595-2.677,28.305,1.913c41.31,17.595,44.753,81.09,57.758,140.76
									c13.388,61.2,35.19,101.745,21.038,143.055c-14.152,40.927-31.748,50.108-47.048,44.753
									c9.945-4.973,19.89-18.36,28.305-43.223c6.12-17.595-6.502-83.385-20.272-142.29
									c-12.623-52.785-26.01-100.215-34.425-102.127c-31.365-7.65-119.34,10.71-189.337-16.83
									C200.048,379.552,362.227,355.837,359.168,355.455L359.168,355.455z M316.71,466.762
									c-6.885-11.475-21.42-12.622-32.513-8.415c-23.332,8.798-24.48,55.08-28.688,76.882
									c-19.125,98.303-27.922,133.11-48.96,143.055c-5.355,2.677-10.327,4.59-14.918,5.738c8.798,1.53,19.507-0.383,33.66-6.885
									c21.037-9.945,29.835-44.753,48.96-143.055c6.885-35.572,12.622-63.878,14.152-65.79
									C288.788,467.527,297.967,458.73,316.71,466.762z"/>
								<path fill="#587280" d="M202.725,333.652l17.212,7.268c-19.125,13.005-12.622,20.273-17.977,54.315
									c-14.153,91.035-39.398,243.27-20.273,274.635c3.443,5.737,7.268,10.71,11.857,14.535
									c-13.387-1.53-22.185-10.328-29.07-22.185c-19.125-31.365,5.738-183.6,20.272-274.635
									C190.485,353.925,183.6,346.657,202.725,333.652z"/>
							</g>
						</g>
					</g>
				</g>
			</g>
		</g>
	</g>
	<g>
		<g>
			<g>
				<path fill="#E8A477" d="M173.655,707.737l1.53-1.148l-0.382-6.503l-2.678-10.71l-0.382-4.973l-0.765,5.737
					c0,0,0.382,7.268,0.382,7.65C171.743,698.557,173.655,707.737,173.655,707.737z"/>
				<path fill="#F1B287" d="M175.568,547.852c4.208,9.945,9.18,25.245,14.535,32.895c6.503,9.563,9.945,11.858,14.917,21.037
					c3.825,6.503,4.973,13.005,7.268,21.038l2.295,15.3c1.53,7.267,0.765,6.12-0.765,13.77l-3.443,17.595l-2.678-0.383l1.148,13.005
					c0.765,13.77-3.825,15.683-6.503,15.3c-2.295,0-4.973,0.383-6.503-6.885c-1.148-5.355-1.148-13.005-2.295-18.742
					c-2.295-12.24-1.147-15.3-5.355-25.245c-2.295-5.355-6.12-2.677-5.738,2.295c0.383,4.59,1.53,8.415,1.913,13.77
					c0.382,4.973,1.147,12.24,1.147,16.83c0.383,5.737,1.913,15.683,1.53,20.655c-0.382,5.355-1.148,9.945-6.12,9.18
					c-2.678-0.383-6.12-2.677-7.268-8.033c-1.913-8.415-1.913-17.212-3.06-26.01c-1.148-9.945-1.913-15.3-1.913-25.628
					c0-2.295-0.765-3.442-1.147-1.147c-0.382,11.475,0,17.595,1.912,29.452c1.148,8.033,2.678,15.3,3.825,23.333
					c0.765,4.59,2.295,4.973,1.147,5.738c-10.327,8.415-10.327-8.033-13.77-14.153c-3.06-7.267-12.24-19.89-12.622-26.392
					l-1.53-25.245c-1.147-7.65-3.06-16.83-2.678-24.48c0.382-8.415,2.295-15.682,1.913-23.333
					c-1.148-12.622-6.12-23.715-11.093-39.78L175.568,547.852z"/>
				<path fill="#E8A477" d="M184.747,644.242c-1.147,0.383-2.295,2.677-2.295,5.355c0.383,4.59,1.53,7.65,1.913,12.623
					c0.382,4.972,1.147,12.24,1.53,16.83c0.383,5.737,1.53,16.83,1.148,21.802c-0.382,4.59-0.382,9.563-5.355,9.18
					c3.443-6.885,1.148-23.333,0-37.102C180.923,661.837,176.332,641.565,184.747,644.242L184.747,644.242L184.747,644.242z
					 M168.3,647.685c-0.382,0-0.382,0.383-0.382,1.148c-0.382,11.475,0,17.595,1.912,29.452c1.148,8.033,2.678,15.3,3.825,23.333
					c0.382,2.295,1.147,3.442,1.147,4.208v0.765c0,0.383,0,0.383-0.382,0.765c-2.295,2.677-4.208,2.677-6.12,1.53
					c1.147,0,1.53-1.148,1.53-1.913c0.765-10.71-4.59-24.862-6.503-35.19c0.765-7.268,1.53-17.977,2.295-22.95
					C166.387,645.39,167.918,645.39,168.3,647.685z"/>
				<path fill="#E8A477" d="M175.568,547.852c4.208,9.945,9.18,25.245,14.535,32.895c6.503,9.563,9.563,11.092,14.535,19.89
					c3.825,6.885,4.973,13.005,7.268,21.037l2.295,16.448c1.53,7.267,0.765,6.12-0.765,13.77l-3.443,17.595l-2.678-0.383
					l1.148,13.005c0.382,7.268-0.765,11.858-2.678,14.153c0.765-9.945,0.382-18.36,0-27.158c-0.382-6.503,0-11.475-1.148-16.83
					c-1.53-8.032-4.59-16.065-4.59-24.097c0-3.443,0.765-6.503,1.913-9.945c-0.383,17.212,5.355,26.775,6.503,41.692
					c1.53-10.71,1.53-13.77,1.53-17.977c0-4.59-1.53-18.36-3.443-24.48c-6.503-19.89-14.152-17.595-24.48-34.042
					c-6.503-10.328-11.857-23.715-15.682-35.19L175.568,547.852z"/>
				<path fill="#E8A477" d="M158.738,686.317l-3.825-14.152c0-8.033,0.382-18.36,0-25.628c0-2.295-1.913-2.295-1.913,0.383
					c-0.765,9.945-0.382,15.3,0.765,26.393L158.738,686.317z"/>
				<path fill="#F7BE98" d="M205.403,694.732c0.382-2.295,0-6.502-0.383-8.032c-1.53-1.148-5.737-0.383-6.12,0.383
					c-0.765,0.765-0.383,2.295-0.383,4.208c0.383,1.912,0.383,3.825,1.148,4.59C199.665,696.263,203.872,696.645,205.403,694.732z"
					/>
				<path fill="#F7BE98" d="M184.365,706.59c0.382-2.295,0-6.503-0.765-8.033c-1.53-1.147-6.503-0.383-7.268,0.383
					c-0.765,0.765-0.765,2.295-0.382,4.208c0.382,1.912,0.382,3.825,1.53,4.59C178.245,708.12,182.835,708.503,184.365,706.59z"/>
				<path fill="#F7BE98" d="M171.36,707.355c0-2.295-0.765-6.503-1.147-8.033c-1.148-1.148-4.208-0.383-4.59,0.383
					c-0.382,0.765,0,2.295,0,4.208c0.382,1.913,0.765,3.825,1.53,4.59C167.535,708.503,170.595,709.267,171.36,707.355z"/>
				<path fill="#F7BE98" d="M206.55,666.81c0-2.295,0.382-6.503,0.765-8.033c0.765-1.148,3.443-0.383,3.443,0.383
					c0.382,0.765,0,2.295,0,4.208c-0.382,1.912-0.382,3.825-1.147,4.59C209.61,668.34,207.315,668.722,206.55,666.81z"/>
			</g>
			<path fill="#125F33" d="M139.613,583.807c-8.033-41.693-52.02-148.793-47.813-178.245c11.475,0,58.522-19.125,69.232,5.737
				c12.622,35.19,7.268,118.575,26.393,162.945h-0.382c-13.005,0-29.452,3.06-43.988,10.328L139.613,583.807z"/>
			<path fill="#197C41" d="M147.262,582.66c-0.382-1.53-0.765-3.06-1.147-4.972c1.913-0.383-32.895-123.165-37.485-162.945
				c-7.65,0-10.327-1.53-16.83-2.677l0,0c1.53,31.365,29.835,107.482,43.222,152.617c1.913,6.885,3.825,14.535,5.355,21.42
				C142.29,584.955,144.968,583.807,147.262,582.66z"/>
			<path fill="#0E4926" d="M160.268,409.77c12.622,33.66,9.945,119.723,26.775,164.475h-1.53l-3.825-1.148
				c-18.743-44.37-21.803-126.99-34.425-162.18C152.235,410.535,156.06,410.535,160.268,409.77z"/>
			<g>
				<g>
					<path fill="#E8A477" d="M331.245,635.445c0-0.765-1.148-1.53-1.913-1.53c-3.06,0.383-10.71,6.885-11.475,7.267
						c1.53,0.383,2.677,1.53,4.208,1.53c1.912-0.383,4.59-1.53,6.12-2.677C330.098,638.505,331.245,636.592,331.245,635.445z"/>
					<path fill="#E8A477" d="M316.327,621.292c0-1.148-1.147-1.913-1.913-1.53c-3.06,0.765-10.327,8.415-11.092,9.18
						c1.53,0.383,2.677,1.53,4.207,1.148c1.913-0.383,4.59-1.912,6.12-3.442C315.18,625.117,316.327,622.823,316.327,621.292z"/>
					<path fill="#F1B287" d="M418.837,560.857c-14.152,22.95-10.327,25.628-20.272,48.195c-3.06,6.885-7.65,13.005-13.005,21.42
						c-4.208,6.12-9.563,14.153-13.77,18.36c-3.443,3.442-8.032,4.59-11.475,0.383c-3.06,3.06-6.885,9.945-10.71,9.945
						c-3.06,0-7.65-1.912-9.945-5.737c-3.06,3.06-4.973,4.208-6.885,4.59c-3.06,0.383-9.945-3.443-13.005-4.973
						c-5.737-3.06-3.825-7.65-2.295-13.005c-3.06,0.765-8.033,1.148-11.475-0.765c-2.677-1.53-4.973-5.355-2.677-10.328
						c6.12-2.677,9.945-3.825,15.682-8.797c-4.973,1.53-6.885,2.677-13.005-3.06c4.207-4.59,7.65-9.945,11.092-16.065
						c6.885-11.858,7.268-18.742,13.388-24.48c21.42-21.038,40.927-11.092,52.785-40.163L418.837,560.857L418.837,560.857z
						 M319.388,640.417c3.06,0.383,5.737,0,8.033-1.913c4.973-3.442,10.327-10.327,15.682-16.065
						c-4.973,2.677-12.24,10.327-16.065,12.622C321.3,638.505,319.388,640.417,319.388,640.417z"/>
					<path fill="#F1B287" d="M418.837,560.857c-14.152,22.95-10.327,25.628-20.272,48.195c-3.06,6.885-7.65,13.005-13.005,21.42
						c-4.208,6.12-9.563,14.153-13.77,18.36c-3.443,3.442-8.032,4.59-11.475,0.383c-3.06,3.06-6.885,9.945-10.71,9.945
						c-3.06,0-7.65-1.912-9.945-5.737c-3.06,3.06-4.973,4.208-6.885,4.59c-3.06,0.383-9.945-3.443-13.005-4.973
						c-5.737-3.06-3.825-7.65-2.295-13.005c-3.06,0.765-8.033,1.148-11.475-0.765c-2.677-1.53-4.973-5.355-2.677-10.328
						c6.12-2.677,9.945-3.825,15.682-8.797c-4.973,1.53-6.885,2.677-13.005-3.06c4.207-4.59,7.65-9.945,11.092-16.065
						c6.885-11.858,7.268-18.742,13.388-24.48c21.42-21.038,40.927-11.092,52.785-40.163L418.837,560.857L418.837,560.857z
						 M319.388,640.417c3.06,0.383,5.737,0,8.033-1.913c4.973-3.442,10.327-10.327,15.682-16.065
						c-4.973,2.677-12.24,10.327-16.065,12.622C321.3,638.505,319.388,640.417,319.388,640.417z"/>
					<path fill="#E8A477" d="M411.57,574.245c-5.738,11.858-4.973,17.595-12.623,34.808c-3.06,6.885-7.65,13.005-13.005,21.42
						c-3.825,5.738-16.83,29.07-25.245,18.742c1.148-0.765,6.12,4.208,11.475-2.677c5.355-6.503,17.212-24.48,23.332-38.25
						c9.945-22.567,0.383-24.48,14.918-47.43c0,0,0.765-1.912,2.295-4.972l5.738,6.503C415.395,566.212,413.1,570.42,411.57,574.245
						z"/>
					<path fill="#E8A477" d="M367.582,651.51c-2.677,1.148-5.355,0.765-7.65-1.913c-1.53,1.53-3.06,3.443-4.59,5.355
						c2.677-4.59,3.443-8.032,6.885-12.24c0.765-0.765,6.503-7.65,6.503-7.65c1.913-0.765-1.148,3.06-3.443,6.503
						c-1.913,2.677-3.443,4.972-3.443,5.737c-0.383,2.295,1.913,3.825,3.06,4.208C366.052,651.128,366.818,651.51,367.582,651.51
						L367.582,651.51z M340.807,655.335c0-0.383,0-0.383,0.383-0.765c3.06-6.885,8.798-13.388,12.622-17.595
						c2.295-2.677,4.59-4.59,4.207-5.355c-0.382-0.765-3.443,1.913-6.502,4.973c-4.973,5.355-11.092,13.388-13.77,17.977
						c0,0-0.383,0.765-0.765,1.912c0.765-0.765,1.913-1.53,3.06-2.677C340.043,654.188,340.425,654.952,340.807,655.335
						L340.807,655.335z M317.092,642.712l0.765-2.295h-0.382l0,0c2.677-1.148,4.59-3.06,8.415-4.208l-6.502,4.59
						c3.443-0.383,5.355,0,7.65-1.148c3.825-2.295,6.12-6.885,9.18-9.945c2.295-2.295,7.65-7.65,9.563-7.267
						c0.383,0-4.973,5.355-8.032,9.18c-3.825,4.59-7.65,10.71-10.71,11.858c-1.53,0.765-2.677-0.383-4.207-0.383
						c-1.148,0-2.677,1.148-3.825,0.765C318.24,643.477,317.475,643.095,317.092,642.712L317.092,642.712z M319.005,620.527
						c8.798-4.59,10.71-11.475,16.065-24.48c1.147-3.06,0.382-6.885-1.53-1.912c-3.06,6.885-7.65,18.742-14.152,22.95
						c-2.677,1.53-6.885,1.912-9.945-0.383c0.383-0.383,4.973-4.972,11.475-16.065c7.268-11.475,12.622-18.36,18.36-23.333
						c12.24-11.093,32.512-10.71,44.752-36.72l-2.677-3.06c-15.682,26.393-28.688,17.595-50.107,38.633
						c-5.737,5.737-6.12,12.24-13.388,24.48c-3.443,5.737-7.267,11.475-11.092,16.065c5.738,5.738,8.033,4.59,13.005,3.06
						L319.005,620.527z"/>
					<path fill="#F4BC97" d="M307.913,618.232c-0.383-0.383-0.765-0.765-1.148-1.147c4.207-4.59,7.65-9.945,11.092-16.065
						c6.885-11.858,7.268-18.742,13.388-24.48c21.42-21.037,34.043-12.24,49.725-38.633l3.06,3.06
						c-12.24,26.01-32.512,25.628-44.752,36.72c-5.738,4.972-11.092,11.857-18.36,23.333c-6.503,10.71-11.092,15.682-11.475,16.065
						l0,0L307.913,618.232z"/>
				</g>
				<path fill="#125F33" d="M415.395,570.037c20.273-37.102,94.095-126.225,99.068-155.677c-10.71-3.443-50.108-35.955-67.703-15.3
					c-22.568,29.835-42.457,110.925-73.823,147.645l0.383,0.383c12.24,4.208,27.158,11.858,39.015,23.333L415.395,570.037z"/>
				<path fill="#0E4926" d="M408.51,566.595c0.765-1.53,1.53-2.677,2.677-4.208c-1.53-1.148,64.26-110.16,80.708-146.498
					c7.267,2.295,14.535,4.207,21.038,4.973l0,0c-10.71,29.452-60.818,93.713-86.828,132.345
					c-3.825,6.12-8.033,12.622-11.475,19.125C412.335,570.42,410.423,568.508,408.51,566.595z"/>
				<path fill="#197C41" d="M447.908,397.912c-22.185,28.305-45.518,111.307-74.97,148.792l1.53,0.383h4.208
					c31.365-36.72,58.905-114.75,81.473-144.202C455.557,401.355,451.733,399.825,447.908,397.912z"/>
			</g>
			<path fill="#125F33" d="M127.372,260.977C93.33,281.25,90.27,360.81,92.182,422.01c8.033,3.06,39.015-4.973,66.938-13.388
				c9.18-35.955,13.387-80.325,7.65-108.63L127.372,260.977z"/>
			<path fill="#197C41" d="M127.372,260.977C93.33,281.25,90.27,360.81,92.182,422.01c3.06,1.147,8.798,0.765,16.83-0.383
				c-6.885-59.67-9.945-135.405,21.038-157.59L127.372,260.977z"/>
			<path fill="#0E4926" d="M127.372,260.977c-4.59,2.678-8.797,6.503-12.24,11.475l27.158,25.245
				c-7.268,52.402,13.77,78.795,4.59,114.75l12.622-3.443c9.18-35.955,13.387-80.325,7.65-108.63L127.372,260.977z"/>
			<path fill="#125F33" d="M490.365,272.07c34.042,20.272,35.955,85.68,22.95,149.94c-20.655-1.913-52.402-16.065-64.643-21.802
				c-3.06-26.775,3.443-60.435,9.18-88.74L490.365,272.07z"/>
			<path fill="#0E4926" d="M497.25,277.425c27.54,24.48,27.923,85.298,16.065,144.967c-6.503-0.765-14.152-2.677-21.42-4.973
				l0.383-0.383C505.283,374.58,507.577,322.177,497.25,277.425z"/>
			<path fill="#125F33" d="M436.432,392.557c-96.772,17.212-162.945,21.42-265.455-11.093
				c-55.08-17.595-55.845-50.872-55.845-95.242c0.383-39.397,101.745-58.522,200.43-57.375
				c94.095,0.765,184.748,21.037,183.983,58.522C498.78,322.177,503.37,381.082,436.432,392.557z"/>
			<path fill="#197C41" d="M234.473,396c-38.633-5.355-75.353-27.54-94.478-31.365C158.355,387.202,213.435,396,234.473,396z"/>
			<path fill="#197C41" d="M297.202,226.935c-79.56,0.765-157.59,14.535-179.775,41.692c-10.71,13.005-11.092,55.845,9.945,84.15
				c-18.36-35.955-13.005-66.172,2.295-77.647c21.037-16.065,76.5-19.507,133.11-21.42L297.202,226.935z"/>
			<path fill="#0E4926" d="M374.85,400.59c26.393-8.798,74.205-12.622,101.745-27.158C451.733,397.53,411.952,394.852,374.85,400.59
				z"/>
			<path fill="#0E4926" d="M315.563,228.847c79.56,0.765,157.59,14.535,179.775,41.692c10.71,13.005,12.24,58.14-8.797,86.445
				c18.36-35.955,11.475-68.467-3.443-79.943c-21.038-16.065-76.5-19.507-133.11-21.42L315.563,228.847z"/>
			<path fill="#F7BE98" d="M308.295,616.32c0.765-1.912,3.443-5.737,4.208-6.885c1.53-0.383,4.973,2.295,4.973,3.06
				c0.382,1.148-0.765,2.295-1.53,3.825c-1.148,1.53-2.295,3.06-3.443,3.443C312.12,620.145,308.295,618.615,308.295,616.32z"/>
			<g>
				<path fill="#F1B287" d="M309.398,419.715c0.428-0.382,2.989-3.443,5.98-6.502c10.679-10.327,10.251-6.885,8.542-22.185
					l-17.939-5.355v-1.147l-1.708,0.382l-1.281-0.382v1.147l-17.939,5.738c-1.281,15.3-2.136,11.857,8.542,22.185
					c2.989,3.06,5.553,6.12,5.98,6.503C301.283,420.48,307.69,420.862,309.398,419.715z"/>
				<g>
					<path fill="#E8A477" d="M305.981,420.48c2.136,0,3.417-0.382,4.271-1.912c1.282-2.295,0.854-4.973,0.428-7.65
						c-0.854-7.65,3.845-17.212,7.26-24.098h-8.115c-1.708,10.327-3.417,13.388-2.989,24.48
						C306.835,414.742,306.835,418.568,305.981,420.48z"/>
					<path fill="#F4BC97" d="M302.992,420.48c-2.136,0-3.417-0.382-4.271-1.912c-1.281-2.295-0.854-4.973-0.427-7.65
						c0.854-7.65-3.845-17.212-7.262-24.098h8.116c1.708,10.327,3.417,13.388,2.989,24.48
						C302.138,414.742,302.138,418.568,302.992,420.48z"/>
				</g>
				<path fill="#E8A477" d="M324.774,399.06c0-1.53-0.427-5.737-0.854-8.033l-17.939-5.355v-1.147l-1.708,0.382l-1.281-0.382v1.147
					l-17.939,5.738c0,2.295-0.427,6.12-0.427,7.65c4.698-0.765,8.115-3.06,18.793-3.443
					C314.096,395.617,315.806,397.912,324.774,399.06z"/>
				<g>
					<path fill="#E8A477" d="M394.396,293.872c6.834-5.355,6.406-11.475,8.969-17.212c2.136-4.973,6.407-11.092,6.407-17.595
						c0.427-11.092-12.814-17.595-16.231-3.442C388.842,273.982,386.707,277.425,394.396,293.872z"/>
					<path fill="#F1B287" d="M214.577,293.872c-6.834-5.355-6.407-11.475-8.97-17.212c-2.135-4.973-6.407-11.092-6.407-17.595
						c-0.427-11.092,12.814-17.595,16.231-3.442C220.131,273.982,222.266,277.425,214.577,293.872z"/>
				</g>
				<path fill="#F1B287" d="M332.463,392.175c15.803-1.913,25.201-6.503,33.315-16.448c19.22-23.332,28.618-62.73,30.753-94.095
					c2.136-29.452-6.834-76.5-30.325-99.068c-12.814-12.622-41.004-17.978-61.933-15.682c-20.928-2.295-49.118,3.06-61.932,15.682
					c-23.064,22.568-32.461,69.615-30.326,99.068c2.136,31.365,11.532,70.38,30.753,94.095c8.542,10.327,18.367,14.918,35.878,16.83
					C296.585,394.47,314.95,394.47,332.463,392.175z"/>
				<path fill="#F4BC97" d="M301.71,166.5c-20.502-1.53-46.983,3.825-59.369,16.065c-23.064,22.568-32.461,69.615-30.326,99.067
					c2.136,31.365,11.532,70.38,30.753,94.095c8.542,10.327,18.367,14.918,35.878,16.83c15.376,1.53,31.607,1.912,46.983,0.382
					c-8.116,0-16.231-0.382-24.345-1.53c-17.511-1.913-27.336-6.503-35.878-16.83c-18.793-23.332-27.763-62.73-30.326-93.712
					c-2.135-29.452,6.834-76.5,30.326-99.068C273.52,173.767,287.188,168.795,301.71,166.5z"/>
				<path fill="#E8A477" d="M332.463,392.175c15.803-1.913,25.201-6.503,33.315-16.448c19.22-23.332,28.618-62.73,30.753-94.095
					c2.136-29.452-6.834-76.5-30.325-99.068c-12.814-12.622-41.004-17.978-61.933-15.682c-8.542-0.765-17.939-0.765-27.336,1.147
					l0,0c20.928-2.295,49.118,3.06,61.932,15.682c23.064,22.568,32.461,69.615,30.326,99.068
					c-2.136,31.365-11.532,70.38-30.753,94.095c-8.115,9.945-17.511,14.152-33.315,16.448c-2.136,0.382-3.845,0.382-5.98,0.765
					C310.68,394.087,321.784,393.705,332.463,392.175z"/>
				<path fill="#E8A477" d="M332.463,392.175c9.397-1.148,16.658-3.443,22.638-6.885c-34.596,5.737-82.861,6.12-108.488-5.355
					c7.688,7.65,17.085,11.092,32.461,12.623C296.585,394.47,314.95,394.47,332.463,392.175L332.463,392.175z M220.557,329.827
					c1.708,6.12,3.845,11.857,5.98,17.595L220.557,329.827z"/>
				<path fill="#666666" d="M386.28,338.242c6.406-18.36,9.824-38.633,11.105-56.228c2.135-29.835-6.834-77.265-30.326-99.833
					c-13.241-12.622-41.431-18.36-62.787-16.065c-20.929-2.295-49.546,3.06-62.36,15.683c-23.491,22.95-32.461,70.38-30.325,99.832
					c1.281,18.36,5.125,39.398,11.959,58.523c13.668,9.18,20.928,23.332,37.587,34.807l-3.845-9.18
					c18.793,13.77,17.939,14.535,41.858,18.36l-15.376-8.033c22.21,4.208,36.305,6.12,58.943,8.033l-9.824-3.443
					c8.97,0,17.511,0,26.481,0c-2.563-14.152-3.845-15.3-10.251-28.688l15.376,6.503c-7.688-6.503-13.668-12.24-20.928-19.125
					C374.748,347.04,375.602,339.007,386.28,338.242z"/>
				<g>
					<path fill="#7F7F7F" d="M351.256,382.612c10.251-6.12,16.658-12.24,25.627-20.655c-0.428,13.005-24.345,27.157-31.18,30.217
						c-5.553,2.295-8.542-1.148-8.542-2.677C337.161,388.732,349.547,383.76,351.256,382.612z"/>
					<path fill="#7F7F7F" d="M258.998,382.612c-10.251-6.12-16.657-12.24-25.627-20.655c0.427,13.005,24.345,27.157,31.18,30.217
						c5.553,2.295,8.542-1.148,8.542-2.677C273.094,388.732,260.706,383.76,258.998,382.612z"/>
				</g>
				<path fill="#7F7F7F" d="M351.684,293.872c-7.688-20.272-11.105-31.747-20.075-45.9c10.251,37.867,14.95,45.9,19.221,86.445
					l-12.387-25.627c-10.251,34.043-0.854,45.9,16.658,69.997c-38.014-4.973-94.394-2.677-93.112-68.085l-6.407,24.098
					c-4.699-31.748-5.98-49.342,14.522-77.265L247.465,273.6c11.959-55.845,36.732-52.02,54.671-81.855
					C320.077,212.017,345.276,226.552,351.684,293.872z"/>
				<path fill="#7F7F7F" d="M375.175,332.505c14.095-22.95,31.18-40.928,2.989-97.155l13.668,16.447
					c-7.688-39.78-50.827-55.08-87.133-60.053c28.19,26.775,38.014,38.25,44.421,72.675l1.282-18.743
					c8.116,35.955,6.834,67.702,3.845,92.565c25.627-21.802,24.773-52.785,23.064-64.643
					C383.717,296.932,382.863,310.702,375.175,332.505z"/>
				<path fill="#666666" d="M279.072,359.28c-3.417-22.185-2.563-58.905,2.136-90.652c4.698-31.365,13.668-57.375,19.648-68.085
					c-32.461,16.83-43.566,48.577-46.129,61.965c10.251-6.12,12.814-14.918,21.783-19.125
					c-11.105,22.185-13.24,45.518-18.793,71.145c6.834-17.212,3.417-21.802,14.095-37.103
					C267.54,307.26,273.948,329.445,279.072,359.28z"/>
				<path fill="#666666" d="M345.704,374.962c-13.241-11.858-19.22-19.89-25.627-52.02c0,0,8.97,9.563,10.251,11.857
					c2.563-35.19-1.708-48.195-26.909-73.057c-4.271,10.328-11.105,24.098-14.522,34.043c-10.251,27.54-19.648,55.08,19.648,72.675
					c-10.679-11.092-12.814-22.95-9.824-38.632C301.283,353.16,309.826,372.285,345.704,374.962z"/>
				<path fill="#7F7F7F" d="M225.256,337.477c-7.262-25.245-19.221-55.845,4.271-111.307l-10.679,15.682
					c8.542-49.725,47.837-54.315,83.716-58.905c-34.17,23.715-53.817,55.463-59.369,94.86c-1.708,13.388,5.125,3.825,11.105-1.147
					c-10.679,36.72-8.97,74.205,1.282,92.565c-19.221-20.272-23.064-21.802-23.919-53.168
					C228.245,321.03,226.11,325.237,225.256,337.477z"/>
				<path fill="#666666" d="M331.608,369.99c-18.793-11.857-30.753-23.715-32.461-50.107c-7.262,11.475-8.542,15.3-5.98,33.277
					c-17.939-30.983,9.397-74.97,11.532-83.385c2.136,6.12,14.096,15.682,14.522,61.583c-5.553-14.535-6.834-18.743-8.97-20.273
					C310.68,330.975,315.806,351.63,331.608,369.99z"/>
				<path fill="#666666" d="M349.12,330.592c-11.105-70.38-23.919-96.773-46.983-130.433c-2.136,28.305-17.085,63.113-19.221,97.538
					c5.553-16.065,19.221-42.84,20.075-54.698c10.251,17.978,29.044,34.807,31.607,77.265c3.417-18.743,0.854-22.185-2.136-36.72
					L349.12,330.592z"/>
				<path fill="#666666" d="M390.551,234.967c-18.793-37.485-73.892-43.605-88.414-45.518c10.679-26.01,40.576-19.508,55.526-6.503
					c-11.959-4.59-14.096-4.59-24.345-4.973C359.798,182.565,379.874,197.482,390.551,234.967z"/>
				<path fill="#666666" d="M382.436,294.255c-3.845-22.95-4.698-52.403-26.481-77.265c9.824,4.972,11.532,1.912,21.356,7.65
					c-21.783-25.245-53.817-31.747-72.183-33.277c25.627,10.71,39.723,33.277,51.254,68.467l-6.834-30.982
					C360.653,242.617,370.476,261.36,382.436,294.255z"/>
				<g>
					<path fill="#666666" d="M383.717,239.175c-13.668-27.54-35.878-40.163-59.797-43.605
						C346.13,204.75,361.933,213.547,383.717,239.175z"/>
					<path fill="#666666" d="M361.08,291.96c4.698-30.6-5.553-55.845-23.064-74.588C350.829,239.94,358.518,257.535,361.08,291.96z"
						/>
					<path fill="#666666" d="M387.134,223.875c-13.668-27.54-35.878-40.163-59.797-43.605
						C349.547,189.45,365.778,198.247,387.134,223.875z"/>
				</g>
				<g>
					<path fill="#7F7F7F" d="M390.551,329.445c6.406-40.163,1.708-68.085-17.511-92.947
						C379.446,268.628,385.426,289.665,390.551,329.445z"/>
					<path fill="#7F7F7F" d="M353.819,338.625c9.397-31.748,19.221-49.725,1.708-82.238
						C361.507,290.047,357.236,303.818,353.819,338.625z"/>
					<path fill="#7F7F7F" d="M359.372,340.155c27.336-16.83,23.492-39.015,19.22-63.495
						C375.175,304.965,375.175,325.62,359.372,340.155z"/>
					<path fill="#7F7F7F" d="M363.215,232.29c-13.241-27.54-33.742-36.338-57.662-40.163
						C327.764,201.69,341.433,212.017,363.215,232.29z"/>
					<path fill="#7F7F7F" d="M347.411,176.827c-23.064-10.327-37.159-8.798-43.14,9.563
						C312.389,173.385,333.745,174.532,347.411,176.827z"/>
				</g>
				<path fill="#666666" d="M224.402,334.8c-1.281-26.393-0.854-37.485,11.532-71.91l-2.99,31.365
					c14.522-68.468,26.908-82.238,59.369-107.1c-26.481,4.973-50.828,17.595-66.204,40.545l11.959-7.268
					c-8.969,9.563-9.397,17.595-17.939,43.605l9.397-8.415C218.422,282.78,217.994,298.08,224.402,334.8z"/>
				<path fill="#666666" d="M304.699,182.182c-31.607-1.913-60.223,9.18-73.037,24.097c16.231-30.217,45.701-35.572,62.786-31.365
					l-9.397-4.973C293.168,166.882,305.127,174.532,304.699,182.182z"/>
				<path fill="#666666" d="M328.619,380.318c-39.723-11.093-49.118-11.858-63.214-49.343c-3.845,24.48-4.271,37.103,17.085,49.725
					c-5.125-5.355-10.251-13.387-10.679-19.89C282.49,371.902,296.585,378.787,328.619,380.318z"/>
				<g>
					<path fill="#7F7F7F" d="M358.09,340.92c23.064-39.398,24.773-50.49,14.522-86.445C374.32,298.08,376.457,302.287,358.09,340.92
						z"/>
					<path fill="#7F7F7F" d="M368.767,296.932c2.563-19.89,5.98-35.19-17.085-63.112C364.07,253.71,363.642,270.922,368.767,296.932
						z"/>
					<path fill="#7F7F7F" d="M363.642,203.22c-14.949-11.857-27.762-24.097-61.079-14.917
						C324.348,189.067,345.276,194.422,363.642,203.22z"/>
				</g>
				<g>
					<path fill="#7F7F7F" d="M257.29,329.063c-2.989-47.813,1.708-53.168,21.356-73.823
						C266.26,281.632,259.852,299.227,257.29,329.063z"/>
					<path fill="#7F7F7F" d="M319.221,286.987c-1.282,16.448,7.688,28.688,8.116,54.698
						C334.171,314.527,322.212,303.818,319.221,286.987z"/>
					<path fill="#7F7F7F" d="M301.283,195.187c1.281,19.125-17.511,22.568-34.17,46.282
						C270.103,220.432,290.178,207.045,301.283,195.187z"/>
					<path fill="#7F7F7F" d="M273.948,353.542c5.553,17.213,18.367,23.333,43.139,25.245
						C289.324,372.285,284.199,365.4,273.948,353.542z"/>
					<path fill="#7F7F7F" d="M323.494,337.477c5.553,11.092,11.105,26.01,23.919,37.102
						C331.608,365.4,323.494,352.777,323.494,337.477z"/>
					<path fill="#7F7F7F" d="M266.26,309.938c13.24,13.77,7.26,37.102,30.325,56.61C270.53,352.777,264.551,341.685,266.26,309.938z
						"/>
					<path fill="#7F7F7F" d="M343.14,274.747c-4.698-47.812-10.251-52.02-32.461-68.467
						C326.055,229.612,335.452,245.677,343.14,274.747z"/>
					<path fill="#7F7F7F" d="M346.13,320.265c-4.698-47.813-20.928-79.178-37.587-106.718
						C319.649,239.94,338.442,291.577,346.13,320.265z"/>
					<path fill="#7F7F7F" d="M291.886,274.365c0-29.452,4.271-44.37,12.386-71.145C300.428,226.935,304.273,239.557,291.886,274.365
						z"/>
					<path fill="#7F7F7F" d="M329.473,287.37c-14.95-40.545-25.627-42.84-25.201-72.292
						C312.815,242.617,323.066,250.267,329.473,287.37z"/>
					<path fill="#7F7F7F" d="M287.188,284.31c-11.532-46.283-5.98-44.37,9.397-68.467
						C287.616,232.672,284.625,254.092,287.188,284.31z"/>
					<path fill="#7F7F7F" d="M279.5,330.21c-12.386-32.895-15.376-32.512-3.417-65.025C273.52,288.135,273.52,300.375,279.5,330.21z
						"/>
					<path fill="#7F7F7F" d="M276.509,378.022c-9.824-18.36-17.511-30.217-16.658-50.49
						C253.873,354.69,261.134,365.782,276.509,378.022z"/>
					<path fill="#7F7F7F" d="M253.445,357.75c-17.939-43.988-14.95-50.49-3.417-77.265
						C247.039,309.938,246.612,328.68,253.445,357.75z"/>
				</g>
				<g>
					<path fill="#7F7F7F" d="M350.829,378.405c-26.909-2.295-45.701-2.677-61.933-23.332
						C306.835,368.077,317.941,371.137,350.829,378.405z"/>
					<path fill="#7F7F7F" d="M330.754,368.46c-14.094-10.327-24.345-17.212-25.201-35.573
						C310.252,347.04,315.378,352.777,330.754,368.46z"/>
					<path fill="#7F7F7F" d="M293.168,257.535c0-29.452,2.989-27.922,11.105-54.697
						C299.147,223.875,302.564,216.225,293.168,257.535z"/>
					<path fill="#7F7F7F" d="M341.005,300.757c-10.679-39.015-20.502-40.927-25.201-72.293
						C324.348,256.005,334.598,263.655,341.005,300.757z"/>
					<path fill="#7F7F7F" d="M258.144,319.882c2.563-23.715,5.553-33.277,15.376-57.375
						C274.374,273.217,264.551,284.693,258.144,319.882z"/>
					<path fill="#7F7F7F" d="M251.31,348.952c-5.125-23.333-5.553-33.277-3.845-59.67
						C251.737,298.845,246.612,313.38,251.31,348.952z"/>
					<path fill="#7F7F7F" d="M303.846,339.007c-6.834-21.42-8.116-34.807,0.427-69.232
						C307.69,280.102,298.293,300.757,303.846,339.007z"/>
					<path fill="#7F7F7F" d="M297.439,346.657c-11.105-21.802-14.095-37.867-2.563-65.408
						C292.313,291.96,285.052,316.44,297.439,346.657z"/>
					<path fill="#7F7F7F" d="M220.557,302.287c0-22.95,3.417-35.955,21.784-65.025C242.341,247.972,227.391,264.037,220.557,302.287
						z"/>
					<path fill="#7F7F7F" d="M231.662,223.11c13.668-17.213,23.919-24.863,55.526-34.042
						C280.354,197.1,259.426,198.63,231.662,223.11z"/>
					<path fill="#7F7F7F" d="M252.164,212.017c-8.542,13.005-12.386,29.452-28.19,47.047
						C231.235,238.41,239.35,220.432,252.164,212.017z"/>
					<path fill="#7F7F7F" d="M239.35,199.777c13.668-17.212,34.17-25.245,62.36-18.743
						C285.907,180.652,257.716,185.625,239.35,199.777z"/>
				</g>
			</g>
		</g>
	</g>
</g>
</svg>
