<?xml version="1.0" encoding="utf-8"?>
<!-- Generator: Adobe Illustrator 17.0.0, SVG Export Plug-In . SVG Version: 6.00 Build 0)  -->
<!DOCTYPE svg PUBLIC "-//W3C//DTD SVG 1.1//EN" "http://www.w3.org/Graphics/SVG/1.1/DTD/svg11.dtd">
<svg version="1.1" id="Ring_Bell" xmlns="http://www.w3.org/2000/svg" xmlns:xlink="http://www.w3.org/1999/xlink" x="0px" y="0px"
	 width="50px" height="50px" viewBox="0 0 50 50" style="enable-background:new 0 0 50 50;" xml:space="preserve">
<style type="text/css">
	.st0{fill:#A8A5A4;stroke:#000000;stroke-width:2;stroke-miterlimit:10;}
	.st1{opacity:0.3;}
	.st2{fill:#FC933D;stroke:#000000;stroke-width:1.5;stroke-miterlimit:10;}
	.st3{fill:#FF7900;}
	.st4{fill:#FF6E4A;}
	.st5{fill:#FDD93B;stroke:#000000;stroke-width:1.5;stroke-miterlimit:10;}
	.st6{fill:#FFB829;stroke:#000000;stroke-width:1.5;stroke-miterlimit:10;}
	.st7{fill:#C68502;}
	.st8{fill:#FDD93B;}
</style>
<g id="gCircle">
	<path id="circle" class="st0" d="M25,49.009C11.761,49.009,0.991,38.239,0.991,25S11.761,0.991,25,0.991S49.009,11.761,49.009,25
		S38.239,49.009,25,49.009z"/>
	<path id="shdwCircle" class="st1" d="M28.839,47.682C39.705,45.849,48.009,36.379,48.009,25c0-11.38-8.305-20.851-19.172-22.683
		C38.238,5.572,45.009,14.506,45.009,25C45.009,35.493,38.239,44.426,28.839,47.682z"/>
</g>
<g id="Bell">
	<path id="shdwB" class="st1" d="M34.745,34.272h-1.283c0-0.534-0.107-0.321-0.107-0.428c0-4.81-3.42,0.053-4.489-11.491v-2.084
		c0-4.222-3.26-7.696-7.482-7.696s-7.482,3.42-7.482,7.696v2.084c-1.069,11.597-4.489,6.681-4.489,11.544
		c0,0.107-0.107-0.107-0.107,0.428H8.022c-0.641,0-1.069,0.267-1.069,0.909v0.802c0,0.588,0.428,0.909,1.069,0.909h26.722
		c0.641,0,1.069-0.321,1.069-0.962V35.18C35.813,34.539,35.386,34.272,34.745,34.272z"/>
	<path id="clapper" class="st2" d="M29.396,35.169v1.099c0,2.428-1.968,4.396-4.396,4.396c-0.566,0.004-1.128-0.108-1.648-0.33
		c-1.657-0.67-2.744-2.278-2.747-4.066v-1.099H29.396z"/>
	<path id="shdwCl" class="st3" d="M28.646,36.269v-0.35h-2.547v0.349c-0.003,1.439-0.715,2.752-1.854,3.563
		c0.238,0.052,0.48,0.083,0.726,0.083h0.023C27.01,39.914,28.646,38.278,28.646,36.269z"/>
	<path id="shdwCl2" class="st4" d="M21.426,36.934c0.084,0.44,0.242,0.856,0.472,1.23h6.201c0.229-0.372,0.39-0.788,0.476-1.23
		H21.426z"/>
	<path id="asa" class="st5" d="M25.06,8.515c-1.294,0-2.372,1.078-2.372,2.372s0,2.662,2.372,2.662s2.372-1.368,2.372-2.662
		S26.354,8.515,25.06,8.515z"/>
	<path id="mdB" class="st6" d="M37.945,33.595h-1.243c0-0.518-0.104-0.311-0.104-0.414c0-4.66-3.314,0.052-4.349-11.132v-2.019
		c0-4.09-3.158-7.456-7.249-7.456s-7.249,3.314-7.249,7.456v2.019c-1.036,11.236-4.349,6.472-4.349,11.184
		c0,0.104-0.104-0.104-0.104,0.414h-1.243c-0.621,0-1.036,0.259-1.036,0.88v0.777c0,0.57,0.414,0.88,1.036,0.88h25.889
		c0.621,0,1.036-0.311,1.036-0.932v-0.777C38.98,33.854,38.566,33.595,37.945,33.595z"/>
	<path id="shdwMd" class="st7" d="M14.048,33.855v0.542h-1.993c-0.18,0-0.259,0.032-0.281,0.043
		c0.001,0.007-0.004,0.035-0.004,0.087v0.776c0.021,0.085,0.101,0.131,0.286,0.131h25.889c0.286,0,0.286-0.061,0.286-0.183v-0.776
		c0-0.059-0.008-0.087-0.011-0.097h-0.001c-0.012,0-0.091-0.033-0.274-0.033h-1.992v-0.517l-0.015-0.422H14.047L14.048,33.855z"/>
	<path id="lghtMd" class="st8" d="M18.501,20.029v2.02c-0.647,7.057-2.221,8.224-3.391,9.03c7.845-1.553,11.899-6.905,12.168-12.81
		c0.066-1.224,0.104-3.116,0.091-4.495c-0.732-0.288-1.528-0.451-2.369-0.451C21.355,13.323,18.501,16.269,18.501,20.029z"/>
</g>
</svg>
