<?xml version="1.0" encoding="utf-8"?>
<!-- Generator: Adobe Illustrator 17.0.0, SVG Export Plug-In . SVG Version: 6.00 Build 0)  -->
<!DOCTYPE svg PUBLIC "-//W3C//DTD SVG 1.1//EN" "http://www.w3.org/Graphics/SVG/1.1/DTD/svg11.dtd">
<svg version="1.1" xmlns="http://www.w3.org/2000/svg" xmlns:xlink="http://www.w3.org/1999/xlink" x="0px" y="0px" width="24px"
	 height="24px" viewBox="0 0 24 24" enable-background="new 0 0 24 24" xml:space="preserve">
<g id="Capa_1" display="none">
	<path display="inline" fill="none" d="M0,0h24v24H0V0z"/>
	
		<image display="inline" overflow="visible" width="222" height="108" xlink:href="4C7E7743.jpg"  transform="matrix(1 0 0 1 -86.8959 18.9317)">
	</image>
</g>
<g id="Capa_2">
	<circle fill="#A8A5A4" stroke="#000000" stroke-miterlimit="10" cx="12" cy="12" r="11.062"/>
</g>
<g id="Capa_3">
	<path opacity="0.1" d="M6.615,11.5l-3.99,4l3.99,4v-3h7.01v-2h-7.01V11.5z M20.625,9.5l-3.99-4v3h-7.01v2h7.01v3L20.625,9.5z"/>
	<path d="M6.99,11L3,15l3.99,4v-3H14v-2H6.99V11z M21,9l-3.99-4v3H10v2h7.01v3L21,9z"/>
</g>
</svg>
