<?xml version="1.0" encoding="utf-8"?>
<!-- Generator: Adobe Illustrator 17.0.0, SVG Export Plug-In . SVG Version: 6.00 Build 0)  -->
<!DOCTYPE svg PUBLIC "-//W3C//DTD SVG 1.1//EN" "http://www.w3.org/Graphics/SVG/1.1/DTD/svg11.dtd">
<svg version="1.1" id="Capa_1" xmlns="http://www.w3.org/2000/svg" xmlns:xlink="http://www.w3.org/1999/xlink" x="0px" y="0px"
	 width="228px" height="244px" viewBox="-31.5 -45.59 228 244" enable-background="new -31.5 -45.59 228 244" xml:space="preserve">
<path fill="#FFFFFF" d="M-0.202,124.054c-10.838-15.973-17.172-35.249-17.172-56.006c0-55.159,44.715-99.874,99.874-99.874
	c55.159,0,99.874,44.715,99.874,99.874c0,20.757-6.334,40.034-17.172,56.007v21.349c18.943-20.244,30.546-47.443,30.546-77.355
	C195.748,5.503,145.045-45.2,82.5-45.2C19.955-45.2-30.748,5.503-30.748,68.048c0,29.912,11.603,57.111,30.546,77.355V124.054z"/>
<g>
	<g>
		<path fill="#FFFFFF" d="M16.875,182.813c3.376-0.93,5.875-4.008,5.875-7.672v-48.093H11v48.093
			C11,178.805,13.499,181.883,16.875,182.813z"/>
		<g>
			<path fill="#FFFFFF" d="M94,81.048H27v48h67V81.048z M83.969,118.798H35.806c-1.561,0-2.836-1.275-2.836-2.836
				c0-1.561,1.274-2.836,2.836-2.836h48.163c1.561,0,2.818,1.275,2.819,2.836C86.788,117.523,85.531,118.798,83.969,118.798z
				 M33.04,101.799c0-0.733,0.319-1.48,0.832-2.004c1.009-1.023,2.971-1.052,4.008,0c0.513,0.524,0.832,1.271,0.832,2.004
				c0,0.733-0.319,1.466-0.832,2.004c-0.538,0.513-1.243,0.832-2.004,0.832c-0.762,0-1.509-0.319-2.004-0.857
				C33.359,103.265,33.04,102.532,33.04,101.799z M47.203,101.799c0-1.561,1.274-2.836,2.836-2.836h28.327
				c1.561,0,2.836,1.275,2.836,2.836c0,1.561-1.275,2.836-2.836,2.836H50.039C48.478,104.635,47.203,103.36,47.203,101.799z
				 M84.039,89.918H35.876c-1.561,0-2.836-1.275-2.836-2.836c0-1.561,1.274-2.836,2.836-2.836h48.163
				c1.562,0,2.818,1.274,2.819,2.836C86.858,88.643,85.601,89.918,84.039,89.918z"/>
			<path fill="#FFFFFF" d="M96,79.048h58v-17H96V79.048z M103.064,65.949h45.573c1.562,0,2.819,1.275,2.819,2.836
				c0,1.561-1.257,2.836-2.819,2.836h-45.573c-1.561,0-2.836-1.275-2.836-2.836C100.228,67.224,101.502,65.949,103.064,65.949z"/>
			<path fill="#FFFFFF" d="M27,131.048v42.093c0,4.4-2.668,9.907-7.068,9.907h7.967H94v-52H27z M54.324,138.62
				c1.009-1.023,2.971-1.052,4.008,0c0.513,0.524,0.832,1.271,0.832,2.004c0,0.733-0.319,1.466-0.832,2.004
				c-0.538,0.513-1.243,0.832-2.004,0.832c-0.761,0-1.508-0.319-2.004-0.857c-0.513-0.513-0.832-1.246-0.832-1.979
				C53.492,139.891,53.811,139.144,54.324,138.62z M47,175.048H32v-15h15V175.048z M47,154.048H32v-15h15V154.048z M84.655,173.731
				H56.328c-1.562,0-2.836-1.275-2.836-2.836c0-1.561,1.274-2.836,2.836-2.836h28.327c1.561,0,2.836,1.275,2.836,2.836
				C87.491,172.456,86.216,173.731,84.655,173.731z M53.492,161.933c0-0.733,0.319-1.48,0.832-2.004
				c1.009-1.023,2.971-1.052,4.008,0c0.513,0.524,0.832,1.271,0.832,2.004c0,0.733-0.319,1.466-0.832,2.004
				c-0.538,0.513-1.243,0.832-2.004,0.832c-0.761,0-1.508-0.318-2.004-0.857C53.811,163.399,53.492,162.666,53.492,161.933z
				 M84.655,152.421H56.328c-1.562,0-2.836-1.274-2.836-2.836c0-1.561,1.274-2.836,2.836-2.836h28.327
				c1.561,0,2.836,1.275,2.836,2.836C87.491,151.146,86.216,152.421,84.655,152.421z"/>
			<path fill="#FFFFFF" d="M122,97.048h32v-16h-32V97.048z M128.801,84.246h19.836c1.562,0,2.819,1.275,2.819,2.836
				s-1.257,2.836-2.819,2.836h-19.836c-1.561,0-2.836-1.274-2.836-2.836C125.965,85.521,127.239,84.246,128.801,84.246z"/>
			<path fill="#FFFFFF" d="M96,81.048v16h23v-16H96z M114.703,89.918h-11.638c-1.561,0-2.836-1.274-2.836-2.836
				c0-1.561,1.274-2.836,2.836-2.836h11.638c1.561,0,2.818,1.398,2.819,2.836C117.522,88.643,116.265,89.918,114.703,89.918z"/>
			<path fill="#FFFFFF" d="M96,129.048h58v-30H96V129.048z M142.796,102.609c1.08-1.051,2.947-1.051,4.026,0
				c0.51,0.524,0.814,1.271,0.814,2.004c0,0.733-0.276,1.437-0.814,1.979c-0.538,0.538-1.271,0.857-2.004,0.857
				c-0.747,0-1.48-0.318-2.022-0.832c-0.538-0.538-0.814-1.243-0.814-2.004C141.982,103.838,142.286,103.133,142.796,102.609z
				 M131.581,102.609c1.08-1.051,2.946-1.051,4.026,0c0.509,0.524,0.814,1.271,0.814,2.004c0,0.761-0.276,1.466-0.814,2.004
				c-0.538,0.513-1.271,0.832-2.004,0.832c-0.747,0-1.48-0.318-2.022-0.832c-0.538-0.538-0.814-1.243-0.814-2.004
				C130.767,103.838,131.071,103.133,131.581,102.609z M103.064,101.799H122.9c1.562,0,2.819,1.275,2.819,2.836
				c0,1.561-1.257,2.836-2.819,2.836h-19.836c-1.561,0-2.836-1.274-2.836-2.836C100.228,103.074,101.502,101.799,103.064,101.799z
				 M102.586,113.127h28.327c1.561,0,2.836,1.275,2.836,2.836c0,1.561-1.275,2.836-2.836,2.836h-28.327
				c-1.562,0-2.836-1.275-2.836-2.836C99.75,114.402,101.024,113.127,102.586,113.127z"/>
			<path fill="#FFFFFF" d="M96,131.048v23h9.473c0-0.005,0-0.01,0-0.015c0-12.525,10.15-22.672,22.673-22.672
				c12.525-0.001,22.673,10.146,22.673,22.672c0,0.005,0,0.01,0,0.015H154v-23H96z"/>
			<g>
				<path fill="#FFFFFF" d="M150.725,156.048c-0.462,5.245-2.707,9.973-6.127,13.579v13.421h2.807c4.4,0,6.595-5.507,6.595-9.907
					v-17.093H150.725z"/>
				<path fill="#FFFFFF" d="M105.567,156.048H96v27h15.694v-13.422C108.274,166.019,106.029,161.292,105.567,156.048z"/>
			</g>
			<path fill="#FFFFFF" d="M115.717,17.048H76.02c1.011,2.105,1.848,4.333,2.487,6.663h30.582c1.562,0,2.819,1.274,2.819,2.836
				c0,1.561-1.257,2.836-2.819,2.836H79.633c0.221,1.742,0.341,3.522,0.341,5.334c0,9.82-3.373,18.735-8.86,25.331H154v-3.576
				L115.717,17.048z M111.907,55.048H80v-20h31.907V55.048z M115.8,56.517l-0.083-34.169l34.43,34.169H115.8z"/>
			<path fill="#FFFFFF" d="M69.324,62.048c-1.439,1.481-2.995,2.815-4.651,3.983h19.365c1.562,0,2.818,1.275,2.819,2.836
				c0,1.561-1.257,2.836-2.819,2.836H35.876c-0.798,0-1.518-0.336-2.035-0.871c-2.385-0.521-4.675-1.342-6.841-2.428v10.644h67v-17
				H69.324z"/>
		</g>
		<g>
			<path fill="#FFFFFF" d="M128.146,171.205c-4.399,0-8.404-1.667-11.452-4.399v29.214l11.452-11.452l11.452,11.452v-29.214
				C136.562,169.538,132.554,171.205,128.146,171.205L128.146,171.205z"/>
			<path fill="#FFFFFF" d="M128.146,136.861c-9.485,0-17.173,7.685-17.173,17.172s7.689,17.173,17.173,17.173
				c9.487,0,17.173-7.686,17.173-17.173S137.633,136.86,128.146,136.861z M128.146,163.575c-5.265,0-9.542-4.267-9.542-9.542
				c0-5.274,4.277-9.542,9.542-9.542c5.274,0,9.542,4.268,9.542,9.542S133.421,163.575,128.146,163.575z"/>
		</g>
	</g>
	<g>
		<g>
			<path fill="#FFFFFF" d="M34.472,5.557c-0.091,0.053-0.177,0.114-0.268,0.168c2.954-1.753,6.207-2.938,9.651-3.42
				c-1.151-0.159-2.313-0.251-3.497-0.251c-4.635,0-9.007,1.267-12.878,3.503H34.472z"/>
			<path fill="#FFFFFF" d="M27.341,11.39c-0.666,0.741-1.299,1.521-1.897,2.33h-6.979c-1.069,1.454-2.026,3.018-2.863,4.672h6.976
				c-0.084,0.168-0.154,0.346-0.237,0.515c2.224-4.582,5.387-8.484,9.189-11.378c-0.161,0.122-0.328,0.232-0.487,0.358H24.06
				c-1.32,1.049-2.56,2.221-3.705,3.503H27.341z"/>
			<path fill="#FFFFFF" d="M18.774,35.885c0.022,0.786,0.068,1.566,0.142,2.336h-6.977c0.111,1.186,0.28,2.352,0.499,3.497h6.973
				c0.155,0.792,0.325,1.572,0.524,2.336h-6.971c0.311,1.195,0.677,2.363,1.102,3.497h6.98c0.175,0.471,0.38,0.921,0.575,1.378
				c-1.821-4.297-2.847-9.117-2.847-14.212c0-5.206,1.067-10.127,2.963-14.494c-0.073,0.169-0.158,0.328-0.229,0.499h-6.983
				c-0.47,1.131-0.88,2.299-1.235,3.497h6.964c-0.222,0.77-0.421,1.55-0.598,2.336h-6.984c-0.257,1.142-0.456,2.31-0.604,3.497
				h6.967c-0.096,0.774-0.159,1.55-0.21,2.336h-6.972c-0.047,0.77-0.08,1.544-0.08,2.328c0,0.392,0.014,0.78,0.026,1.169H18.774z"/>
			<path fill="#FFFFFF" d="M29.66,60.386c0.658,0.595,1.35,1.142,2.056,1.668c-2.087-1.562-3.984-3.428-5.644-5.542
				c0.096,0.122,0.18,0.256,0.277,0.376h-6.98c1.022,1.264,2.133,2.432,3.317,3.498H29.66z"/>
			<path fill="#FFFFFF" d="M32.622,62.722h-6.988c4.3,2.959,9.337,4.664,14.724,4.664c1.184,0,2.346-0.092,3.497-0.251
				c-4.378-0.612-8.45-2.358-11.986-4.968C32.12,62.352,32.366,62.545,32.622,62.722z"/>
			<path fill="#FFFFFF" d="M17.649,54.552h6.98c0.112,0.167,0.24,0.318,0.355,0.482c-1.239-1.779-2.322-3.705-3.219-5.758
				c0.088,0.201,0.162,0.412,0.255,0.611h-6.978C15.797,51.529,16.67,53.089,17.649,54.552z"/>
		</g>
		<g>
			<path fill="#FFFFFF" d="M52.975,36.592c-0.866-0.394-1.748-0.713-2.621-0.958l-1.84-0.512v10.692
				c2.364-0.035,4.193-0.559,5.435-1.556c1.27-1.019,1.886-2.301,1.886-3.918c0-0.855-0.262-1.572-0.792-2.205
				C54.484,37.474,53.789,36.957,52.975,36.592z"/>
			<path fill="#FFFFFF" d="M54.791,45.079c0.15-0.125,0.285-0.25,0.422-0.382c-0.151,0.147-0.319,0.291-0.49,0.429
				C54.744,45.109,54.77,45.097,54.791,45.079z"/>
			<path fill="#FFFFFF" d="M41.229,23.433c-1.11,0.952-1.652,2.08-1.652,3.458c0,0.849,0.257,1.566,0.792,2.199
				c0.559,0.661,1.254,1.186,2.068,1.55c0.866,0.386,1.693,0.7,2.456,0.916c0.478,0.137,0.923,0.268,1.321,0.382v-9.952h-0.001
				C43.969,22.031,42.295,22.515,41.229,23.433z"/>
			<path fill="#FFFFFF" d="M47.352,2.055c-15.785,0-28.578,14.622-28.578,32.662c0,18.042,12.794,32.67,28.578,32.67
				c15.791,0,28.585-14.628,28.585-32.67C75.937,16.677,63.144,2.055,47.352,2.055z M67.438,24.452
				c0.615-0.21,1.27,0.12,1.486,0.729c0.257,0.752,0.49,1.533,0.684,2.307c0.155,0.627-0.222,1.26-0.849,1.419
				c-0.096,0.024-0.194,0.035-0.284,0.035c-0.525,0-0.997-0.354-1.134-0.884c-0.176-0.712-0.387-1.425-0.626-2.119
				C66.504,25.329,66.829,24.663,67.438,24.452z M47.301,8.44h0.051c0.798,0,1.601,0.051,2.393,0.143
				c0.639,0.073,1.099,0.655,1.025,1.292c-0.069,0.594-0.575,1.031-1.162,1.031c-0.039,0-0.085,0-0.131-0.006
				c-0.706-0.085-1.417-0.125-2.125-0.125c-0.643,0-1.19-0.524-1.19-1.167C46.162,8.963,46.658,8.44,47.301,8.44z M37.873,10.741
				c0.729-0.37,1.482-0.706,2.234-0.986c0.61-0.227,1.276,0.08,1.503,0.684c0.222,0.604-0.08,1.276-0.684,1.503
				c-0.672,0.251-1.345,0.547-1.994,0.878c-0.17,0.086-0.346,0.126-0.528,0.126c-0.427,0-0.833-0.227-1.043-0.633
				C37.071,11.738,37.298,11.037,37.873,10.741z M24.213,34.746v-0.029c0-0.786,0.035-1.582,0.098-2.374
				c0.051-0.639,0.62-1.111,1.253-1.072c0.643,0.051,1.123,0.615,1.07,1.259c-0.057,0.725-0.085,1.464-0.085,2.187
				c0,0.645-0.525,1.18-1.168,1.18S24.213,35.39,24.213,34.746z M27.25,44.936c-0.126,0.047-0.251,0.063-0.377,0.063
				c-0.484,0-0.939-0.302-1.104-0.792c-0.257-0.751-0.484-1.533-0.684-2.307c-0.155-0.626,0.228-1.259,0.855-1.413
				c0.621-0.159,1.253,0.223,1.413,0.85c0.176,0.712,0.386,1.423,0.626,2.119C28.19,44.066,27.859,44.732,27.25,44.936z
				 M27.963,26.03c-0.167,0.484-0.616,0.792-1.106,0.792c-0.12,0-0.251-0.022-0.37-0.063c-0.61-0.204-0.941-0.871-0.729-1.48
				c0.257-0.764,0.547-1.515,0.872-2.25c0.255-0.588,0.939-0.86,1.531-0.598c0.594,0.261,0.86,0.945,0.604,1.537
				C28.469,24.634,28.202,25.33,27.963,26.03z M32.062,52.792c-0.215,0.177-0.477,0.263-0.74,0.263c-0.341,0-0.672-0.143-0.9-0.427
				c-0.507-0.61-0.992-1.264-1.447-1.937c-0.365-0.537-0.222-1.26,0.314-1.625c0.535-0.359,1.258-0.216,1.617,0.319
				c0.416,0.61,0.86,1.207,1.321,1.766C32.632,51.647,32.564,52.382,32.062,52.792z M33.664,16.693
				c-0.513,0.513-1.003,1.066-1.476,1.635c-0.227,0.285-0.564,0.428-0.899,0.428c-0.262,0-0.519-0.085-0.741-0.262
				c-0.496-0.41-0.57-1.139-0.165-1.641c0.512-0.626,1.059-1.235,1.623-1.8c0.456-0.461,1.19-0.461,1.646-0.012
				C34.113,15.497,34.119,16.238,33.664,16.693z M39.491,58.21c-0.205,0.404-0.615,0.637-1.042,0.637
				c-0.176,0-0.359-0.039-0.529-0.125c-0.717-0.365-1.431-0.774-2.109-1.224c-0.541-0.354-0.688-1.078-0.335-1.613
				c0.353-0.541,1.076-0.69,1.611-0.335c0.61,0.398,1.242,0.763,1.891,1.094C39.554,56.934,39.782,57.634,39.491,58.21z
				 M47.455,60.995h-0.104c-0.814,0-1.635-0.045-2.443-0.143c-0.639-0.079-1.094-0.655-1.021-1.298
				c0.074-0.639,0.639-1.082,1.299-1.021c0.712,0.086,1.441,0.131,2.164,0.131c0.645,0,1.219,0.519,1.219,1.168
				C48.571,60.477,48.098,60.995,47.455,60.995z M56.882,58.67c-0.723,0.376-1.476,0.707-2.234,0.992
				c-0.135,0.051-0.272,0.08-0.409,0.08c-0.472,0-0.917-0.292-1.094-0.758c-0.227-0.604,0.08-1.276,0.678-1.503
				c0.678-0.251,1.35-0.553,1.993-0.884c0.576-0.296,1.276-0.069,1.572,0.507C57.678,57.674,57.456,58.38,56.882,58.67z
				 M55.544,45.974c-1.646,1.384-4.01,2.109-7.03,2.142v1.503c0,0.696-0.449,1.151-1.151,1.151c-0.7,0-1.151-0.455-1.151-1.151
				v-1.641c-2.392-0.33-3.873-0.723-5.89-2.341v1.537c0,0.701-0.449,1.151-1.151,1.151c-0.7,0-1.151-0.455-1.151-1.151v-7.2
				c0-0.701,0.455-1.151,1.151-1.151c0.701,0,1.151,0.449,1.151,1.151v2.621c1.237,1.333,2.154,1.823,4.222,2.615
				c0.5,0.188,1.065,0.335,1.668,0.439V34.495c-2.233-0.621-3.924-1.213-5.035-1.76c-1.225-0.61-2.187-1.372-2.86-2.278
				c-0.694-0.935-1.043-2.017-1.043-3.23c0-2.279,0.764-4.13,2.273-5.504c1.435-1.31,3.679-1.993,6.664-2.045v-1.503
				c0-0.696,0.456-1.151,1.151-1.151c0.701,0,1.151,0.455,1.151,1.151v1.668c2.119,0.394,3.932,1.123,5.4,2.176
				c0.382,0.274,0.206,0.513,0.474,0.725l-0.006-1.538c0-0.696,0.455-1.151,1.151-1.151c0.7,0,1.156,0.455,1.156,1.151v7.2
				c0,0.701-0.456,1.151-1.156,1.151c-0.696,0-1.151-0.449-1.151-1.151v-2.433c-1.299-1.435-2.432-2.562-4.359-3.354
				c-0.473-0.2-0.979-0.36-1.509-0.462v10.425c0.359,0.096,0.952,0.249,1.783,0.467c1.429,0.376,2.758,0.86,3.936,1.447
				c1.225,0.604,2.187,1.374,2.86,2.273c0.696,0.933,1.043,2.062,1.043,3.344C58.135,42.556,57.263,44.527,55.544,45.974z
				 M59.195,13.526c-0.222,0.343-0.599,0.53-0.979,0.53c-0.217,0-0.439-0.061-0.639-0.187c-0.61-0.4-1.241-0.77-1.886-1.089
				c-0.575-0.29-0.809-0.996-0.518-1.572c0.29-0.575,0.99-0.802,1.566-0.512c0.717,0.359,1.429,0.769,2.113,1.219
				C59.393,12.262,59.548,12.985,59.195,13.526z M64.357,52.547c-0.513,0.633-1.054,1.237-1.619,1.805
				c-0.228,0.23-0.529,0.349-0.825,0.349c-0.302,0-0.598-0.115-0.821-0.337c-0.461-0.455-0.467-1.196-0.012-1.652
				c0.508-0.512,1.003-1.065,1.47-1.641c0.405-0.496,1.14-0.569,1.635-0.165C64.692,51.31,64.761,52.045,64.357,52.547z
				 M64.743,20.528c-0.376,0-0.747-0.176-0.968-0.507c-0.416-0.61-0.855-1.202-1.321-1.766c-0.41-0.5-0.337-1.235,0.159-1.646
				c0.502-0.404,1.231-0.335,1.646,0.16c0.507,0.621,0.992,1.276,1.447,1.942c0.359,0.535,0.217,1.258-0.312,1.617
				C65.194,20.465,64.966,20.528,64.743,20.528z M68.977,44.112c-0.263,0.757-0.553,1.515-0.866,2.25
				c-0.195,0.438-0.628,0.699-1.077,0.699c-0.155,0-0.314-0.034-0.462-0.096c-0.592-0.257-0.86-0.946-0.604-1.538
				c0.29-0.672,0.559-1.366,0.792-2.062c0.211-0.61,0.872-0.939,1.482-0.735C68.852,42.836,69.181,43.502,68.977,44.112z
				 M70.405,37.041c-0.051,0.616-0.558,1.077-1.162,1.077c-0.028,0-0.063,0-0.09,0c-0.645-0.051-1.129-0.608-1.078-1.253
				c0.057-0.706,0.086-1.423,0.086-2.148c0-0.643,0.518-1.202,1.162-1.202c0.649,0,1.168,0.484,1.168,1.129v0.073
				C70.491,35.499,70.462,36.285,70.405,37.041z"/>
		</g>
	</g>
</g>
</svg>
