<?xml version="1.0" encoding="utf-8"?>
<!-- Generator: Adobe Illustrator 17.0.0, SVG Export Plug-In . SVG Version: 6.00 Build 0)  -->
<!DOCTYPE svg PUBLIC "-//W3C//DTD SVG 1.1//EN" "http://www.w3.org/Graphics/SVG/1.1/DTD/svg11.dtd">
<svg version="1.1" id="Capa_1" xmlns="http://www.w3.org/2000/svg" xmlns:xlink="http://www.w3.org/1999/xlink" x="0px" y="0px"
	 width="352px" height="209.81px" viewBox="0 0 352 209.81" enable-background="new 0 0 352 209.81" xml:space="preserve">
<g>
	<g>
		<path fill="#EEF1F8" d="M209.217,28.405H120.5v156.093c0,4.4-2.668,9.907-7.068,9.907h7.967h119.506
			c4.4,0,6.595-5.507,6.595-9.907V67.829L209.217,28.405z"/>
		<path fill="#D7DCEB" d="M104.5,138.405v48.093c0,4.4,3.6,7.967,8,7.967s8-3.567,8-7.967v-48.093H104.5z"/>
		<path fill="#AFB7CF" d="M177.469,124.483h-48.163c-1.562,0-2.836,1.275-2.836,2.836c0,1.561,1.275,2.836,2.836,2.836h48.163
			c1.562,0,2.819-1.275,2.819-2.836C180.287,125.758,179.03,124.483,177.469,124.483L177.469,124.483z M177.469,124.483"/>
		<path fill="#AFB7CF" d="M242.137,77.306h-45.573c-1.562,0-2.836,1.275-2.836,2.836c0,1.561,1.275,2.836,2.836,2.836h45.573
			c1.562,0,2.819-1.275,2.819-2.836C244.956,78.581,243.699,77.306,242.137,77.306L242.137,77.306z M242.137,77.306"/>
		<path fill="#AFB7CF" d="M177.539,95.603h-48.163c-1.562,0-2.836,1.275-2.836,2.836c0,1.561,1.275,2.836,2.836,2.836h48.163
			c1.562,0,2.819-1.275,2.819-2.836C180.357,96.877,179.101,95.603,177.539,95.603L177.539,95.603z M177.539,95.603"/>
		<path fill="#C7CDDF" d="M177.539,77.388h-48.163c-1.562,0-2.836,1.275-2.836,2.836c0,1.561,1.275,2.836,2.836,2.836h48.163
			c1.562,0,2.819-1.275,2.819-2.836C180.357,78.663,179.101,77.388,177.539,77.388L177.539,77.388z M177.539,77.388"/>
		<path fill="#C7CDDF" d="M132.668,35.068c-1.562,0-2.836,1.275-2.836,2.836c0,1.561,1.275,2.836,2.836,2.836h71.797
			c1.562,0,2.819-1.275,2.819-2.836c0-1.562-1.257-2.836-2.819-2.836H132.668z M180.831,35.068"/>
		<path fill="#C7CDDF" d="M244.956,98.439c0-1.561-1.257-2.836-2.819-2.836h-19.836c-1.562,0-2.836,1.275-2.836,2.836
			c0,1.562,1.275,2.836,2.836,2.836h19.836C243.699,101.275,244.956,100,244.956,98.439L244.956,98.439z M244.956,98.439"/>
		<path fill="#C7CDDF" d="M219.219,115.992c0-1.561-1.257-2.836-2.819-2.836h-19.836c-1.562,0-2.836,1.275-2.836,2.836
			c0,1.562,1.275,2.836,2.836,2.836h19.836C217.962,118.828,219.219,117.553,219.219,115.992L219.219,115.992z M219.219,115.992"/>
		<path fill="#C7CDDF" d="M208.203,95.603h-11.638c-1.562,0-2.836,1.275-2.836,2.836c0,1.562,1.275,2.836,2.836,2.836h11.638
			c1.562,0,2.819-1.275,2.819-2.836C211.021,97.001,209.764,95.603,208.203,95.603z M212.93,98.439"/>
		<path fill="#C7CDDF" d="M143.539,115.992h28.327c1.561,0,2.836-1.275,2.836-2.836c0-1.561-1.275-2.836-2.836-2.836h-28.327
			c-1.562,0-2.836,1.275-2.836,2.836C140.703,114.717,141.978,115.992,143.539,115.992L143.539,115.992z M143.539,115.992"/>
		<path fill="#C7CDDF" d="M149.828,163.778h28.327c1.561,0,2.836-1.275,2.836-2.836c0-1.561-1.275-2.836-2.836-2.836h-28.327
			c-1.562,0-2.836,1.275-2.836,2.836C146.992,162.504,148.266,163.778,149.828,163.778L149.828,163.778z M149.828,163.778"/>
		<path fill="#C7CDDF" d="M196.086,130.156h28.327c1.561,0,2.836-1.275,2.836-2.836c0-1.561-1.275-2.836-2.836-2.836h-28.327
			c-1.562,0-2.836,1.275-2.836,2.836C193.25,128.881,194.524,130.156,196.086,130.156L196.086,130.156z M196.086,130.156"/>
		<path fill="#D7DCEB" d="M129.376,115.992c0.761,0,1.466-0.319,2.004-0.832c0.513-0.538,0.832-1.271,0.832-2.004
			c0-0.733-0.319-1.48-0.832-2.004c-1.037-1.052-2.999-1.023-4.008,0c-0.513,0.524-0.832,1.271-0.832,2.004
			c0,0.733,0.319,1.466,0.832,1.979C127.867,115.673,128.614,115.992,129.376,115.992L129.376,115.992z M129.376,115.992"/>
		<path fill="#D7DCEB" d="M149.828,154.817c0.761,0,1.466-0.319,2.004-0.832c0.513-0.538,0.832-1.271,0.832-2.004
			c0-0.733-0.319-1.48-0.832-2.004c-1.037-1.052-2.999-1.023-4.008,0c-0.513,0.524-0.832,1.271-0.832,2.004
			c0,0.733,0.319,1.466,0.832,1.979C148.32,154.498,149.067,154.817,149.828,154.817L149.828,154.817z M149.828,154.817"/>
		<path fill="#C7CDDF" d="M149.828,185.088h28.327c1.561,0,2.836-1.275,2.836-2.836c0-1.561-1.275-2.836-2.836-2.836h-28.327
			c-1.562,0-2.836,1.275-2.836,2.836C146.992,183.813,148.266,185.088,149.828,185.088L149.828,185.088z M149.828,185.088"/>
		<path fill="#D7DCEB" d="M149.828,176.126c0.761,0,1.466-0.319,2.004-0.832c0.513-0.538,0.832-1.271,0.832-2.004
			c0-0.733-0.319-1.48-0.832-2.004c-1.037-1.052-2.999-1.023-4.008,0c-0.513,0.524-0.832,1.271-0.832,2.004
			c0,0.733,0.319,1.466,0.832,1.979C148.32,175.808,149.067,176.126,149.828,176.126L149.828,176.126z M149.828,176.126"/>
		<path fill="#D7DCEB" d="M225.081,113.966c-0.51,0.524-0.814,1.229-0.814,2.004c0,0.761,0.276,1.466,0.814,2.004
			c0.542,0.514,1.275,0.832,2.022,0.832c0.733,0,1.466-0.319,2.004-0.832c0.538-0.538,0.814-1.243,0.814-2.004
			c0-0.733-0.305-1.48-0.814-2.004C228.027,112.915,226.161,112.915,225.081,113.966L225.081,113.966z M225.081,113.966"/>
		<path fill="#D7DCEB" d="M236.296,113.966c-0.51,0.524-0.814,1.229-0.814,2.004c0,0.761,0.276,1.466,0.814,2.004
			c0.542,0.514,1.275,0.832,2.022,0.832c0.733,0,1.466-0.319,2.004-0.857c0.538-0.542,0.814-1.246,0.814-1.979
			c0-0.733-0.304-1.48-0.814-2.004C239.243,112.915,237.376,112.915,236.296,113.966L236.296,113.966z M236.296,113.966"/>
		<path display="none" fill="#AFB7CF" d="M157.312,71.538l-12.935-6.602c-0.881-0.456-1.434-1.356-1.434-2.366V58.63
			c6.635-2.861,10.447-8.409,12.305-15.346c2.79-0.875,4.847-3.465,4.847-6.526v-3.414c0-2.642-1.504-4.899-3.69-6.056
			c-1.504-12.884-10.042-18.104-23.729-18.104c-0.656,0-1.305,0.026-1.909,0.071c-4.674,0.379-9.367-0.501-13.237-3.112
			c-1.633-1.08-2.989-2.237-3.941-3.439c-0.424-0.553-1.305-0.199-1.202,0.476c0.122,1.209,0.321,2.61,0.624,4.147
			c1.132,5.696,0.476,4.847-1.729,10.222c-1.234,2.983-2.012,6.274-2.366,9.765c-2.179,1.157-3.69,3.414-3.69,6.03v3.414
			c0,3.086,2.064,5.677,4.873,6.526c1.832,6.936,5.651,12.485,12.279,15.346v3.922c0,1.003-0.579,1.929-1.479,2.385l-13.237,6.5
			c-2.237,1.234-3.864,3.189-4.847,5.452c8.415,6.03,18.708,9.592,29.836,9.592c11.096,0,21.344-3.542,29.759-9.515
			C161.356,74.676,159.645,72.696,157.312,71.538L157.312,71.538z M157.312,71.538"/>
		<rect x="173.5" y="46.405" fill="#AFB7CF" width="45" height="20"/>
		<path fill="#D7DCEB" d="M209.217,28.405l0.033,39.469h38.25L209.217,28.405z"/>
		<path opacity="0.3" fill="#AFB7CF" d="M247.5,73.405v-2h-127v2h67v17h-67v2h67v48h-67v2h67v52h2v-27h58v-2h-58v-23h58v-2h-58v-30
			h58v-2h-32v-16h32v-2h-58v-17H247.5z M212.5,92.405v16h-23v-16H212.5z"/>
		<rect x="125.5" y="150.405" fill="#AFB7CF" width="15" height="15"/>
		<rect x="125.5" y="171.405" fill="#AFB7CF" width="15" height="15"/>
		<g>
			<path fill="#DA7B1D" d="M238.819,165.39c0,9.487-7.686,17.173-17.173,17.173c-9.484,0-17.173-7.686-17.173-17.173
				c0-9.487,7.688-17.172,17.173-17.172C231.133,148.217,238.819,155.903,238.819,165.39L238.819,165.39z M238.819,165.39"/>
			<path fill="#E79723" d="M221.646,182.562c-4.399,0-8.404-1.667-11.452-4.399v29.214l11.452-11.452l11.452,11.452v-29.214
				C230.062,180.895,226.054,182.562,221.646,182.562L221.646,182.562z M221.646,182.562"/>
			<path fill="#EDB656" d="M231.188,165.39c0,5.274-4.267,9.542-9.542,9.542c-5.265,0-9.542-4.267-9.542-9.542
				c0-5.274,4.277-9.542,9.542-9.542C226.92,155.848,231.188,160.116,231.188,165.39L231.188,165.39z M231.188,165.39"/>
		</g>
	</g>
	<g>
		<g>
			<defs>
				<rect id="SVGID_1_" x="105.273" y="13.295" width="64.047" height="66.847"/>
			</defs>
			<clipPath id="SVGID_2_">
				<use xlink:href="#SVGID_1_"  overflow="visible"/>
			</clipPath>
			<path clip-path="url(#SVGID_2_)" fill="#F4D749" d="M140.852,78.744c-15.784,0-28.578-14.628-28.578-32.67
				c0-18.04,12.793-32.662,28.578-32.662c15.792,0,28.585,14.622,28.585,32.662C169.437,64.116,156.643,78.744,140.852,78.744"/>
		</g>
		<path fill="#EEBD2C" d="M112.274,46.074c0-16.684,10.949-30.436,25.081-32.412c-1.151-0.159-2.313-0.251-3.497-0.251
			c-15.792,0-28.585,14.622-28.585,32.662c0,18.042,12.793,32.67,28.585,32.67c1.184,0,2.346-0.092,3.497-0.251
			C123.223,76.515,112.274,62.76,112.274,46.074"/>
		<path fill="#DAA627" d="M112.274,47.242h-7.001c0.023,0.786,0.068,1.566,0.143,2.336h7
			C112.342,48.808,112.296,48.028,112.274,47.242"/>
		<path fill="#DAA627" d="M112.535,41.409h-6.994c-0.098,0.77-0.166,1.55-0.211,2.336h6.995
			C112.376,42.959,112.439,42.183,112.535,41.409"/>
		<path fill="#DAA627" d="M112.911,53.075h-7c0.153,0.792,0.33,1.566,0.529,2.336h6.995
			C113.236,54.647,113.066,53.867,112.911,53.075"/>
		<path fill="#DAA627" d="M114.546,58.908h-7.006c0.296,0.798,0.626,1.572,0.98,2.336h7
			C115.167,60.486,114.842,59.706,114.546,58.908"/>
		<path fill="#DAA627" d="M113.754,35.576h-6.99c-0.227,0.77-0.438,1.544-0.614,2.336h7.006
			C113.333,37.126,113.532,36.346,113.754,35.576"/>
		<path fill="#DAA627" d="M116.078,29.749h-7.001c-0.381,0.758-0.745,1.533-1.076,2.33h7.007
			C115.338,31.281,115.696,30.507,116.078,29.749"/>
		<path fill="#DAA627" d="M120.841,22.747h-7.007c-0.666,0.741-1.299,1.521-1.891,2.33h7.001
			C119.542,24.268,120.175,23.488,120.841,22.747"/>
		<path fill="#DAA627" d="M127.972,16.914h-7.011c-1.191,0.684-2.336,1.464-3.43,2.33h7.013
			C125.632,18.378,126.776,17.604,127.972,16.914"/>
		<path fill="#DAA627" d="M118.129,65.909h-7.006c0.547,0.809,1.116,1.59,1.719,2.336h7.007
			C119.246,67.499,118.671,66.719,118.129,65.909"/>
		<path fill="#DAA627" d="M116.165,71.743c0.933,0.843,1.913,1.629,2.944,2.336h7.013c-1.031-0.713-2.023-1.487-2.962-2.336H116.165
			z M116.165,71.743"/>
		<path fill="#EEBD2C" d="M140.955,72.352h-0.104c-0.814,0-1.635-0.045-2.443-0.143c-0.639-0.079-1.094-0.655-1.021-1.298
			c0.074-0.639,0.639-1.082,1.299-1.021c0.712,0.086,1.441,0.131,2.164,0.131c0.645,0,1.219,0.519,1.219,1.168
			C142.071,71.834,141.598,72.352,140.955,72.352 M147.739,71.099c-0.472,0-0.917-0.292-1.094-0.758
			c-0.227-0.604,0.08-1.276,0.678-1.503c0.678-0.251,1.35-0.553,1.993-0.884c0.576-0.296,1.276-0.069,1.572,0.507
			c0.29,0.57,0.068,1.276-0.506,1.566c-0.723,0.376-1.476,0.707-2.234,0.992C148.013,71.07,147.876,71.099,147.739,71.099
			 M131.949,70.204c-0.176,0-0.359-0.039-0.529-0.125c-0.717-0.365-1.431-0.774-2.109-1.224c-0.541-0.354-0.688-1.078-0.335-1.613
			c0.353-0.541,1.076-0.69,1.611-0.335c0.61,0.398,1.242,0.763,1.891,1.094c0.576,0.29,0.804,0.99,0.513,1.566
			C132.786,69.971,132.376,70.204,131.949,70.204 M155.413,66.058c-0.302,0-0.598-0.115-0.821-0.337
			c-0.461-0.455-0.467-1.196-0.012-1.652c0.508-0.512,1.003-1.065,1.47-1.641c0.405-0.496,1.14-0.569,1.635-0.165
			c0.507,0.404,0.576,1.139,0.172,1.641c-0.513,0.633-1.054,1.237-1.619,1.805C156.01,65.939,155.709,66.058,155.413,66.058
			 M124.822,64.412c-0.341,0-0.672-0.143-0.9-0.427c-0.507-0.61-0.992-1.264-1.447-1.937c-0.365-0.537-0.222-1.26,0.314-1.625
			c0.535-0.359,1.258-0.216,1.617,0.319c0.416,0.61,0.86,1.207,1.321,1.766c0.405,0.496,0.337,1.231-0.165,1.641
			C125.347,64.326,125.085,64.412,124.822,64.412 M160.534,58.418c-0.155,0-0.314-0.034-0.462-0.096
			c-0.592-0.257-0.86-0.946-0.604-1.538c0.29-0.672,0.559-1.366,0.792-2.062c0.211-0.61,0.872-0.939,1.482-0.735
			c0.61,0.206,0.939,0.872,0.735,1.482c-0.263,0.757-0.553,1.515-0.866,2.25C161.416,58.157,160.983,58.418,160.534,58.418
			 M120.373,56.356c-0.484,0-0.939-0.302-1.104-0.792c-0.257-0.751-0.484-1.533-0.684-2.307c-0.155-0.626,0.228-1.259,0.855-1.413
			c0.621-0.159,1.253,0.223,1.413,0.85c0.176,0.712,0.386,1.423,0.626,2.119c0.211,0.61-0.12,1.276-0.729,1.48
			C120.624,56.34,120.499,56.356,120.373,56.356 M162.743,49.475c-0.028,0-0.063,0-0.09,0c-0.645-0.051-1.129-0.608-1.078-1.253
			c0.057-0.706,0.086-1.423,0.086-2.148c0-0.643,0.518-1.202,1.162-1.202c0.649,0,1.168,0.484,1.168,1.129v0.073
			c0,0.782-0.029,1.568-0.086,2.324C163.854,49.014,163.347,49.475,162.743,49.475 M118.881,47.254
			c-0.643,0-1.168-0.507-1.168-1.151v-0.029c0-0.786,0.035-1.582,0.098-2.374c0.051-0.639,0.62-1.111,1.253-1.072
			c0.643,0.051,1.123,0.615,1.07,1.259c-0.057,0.725-0.085,1.464-0.085,2.187C120.049,46.719,119.524,47.254,118.881,47.254
			 M161.975,40.299c-0.525,0-0.997-0.354-1.134-0.884c-0.176-0.712-0.387-1.425-0.626-2.119c-0.211-0.61,0.114-1.276,0.723-1.487
			c0.615-0.21,1.27,0.12,1.486,0.729c0.257,0.752,0.49,1.533,0.684,2.307c0.155,0.627-0.222,1.26-0.849,1.419
			C162.163,40.288,162.065,40.299,161.975,40.299 M120.357,38.179c-0.12,0-0.251-0.022-0.37-0.063
			c-0.61-0.204-0.941-0.871-0.729-1.48c0.257-0.764,0.547-1.515,0.872-2.25c0.255-0.588,0.939-0.86,1.531-0.598
			c0.594,0.261,0.86,0.945,0.604,1.537c-0.296,0.666-0.563,1.362-0.802,2.062C121.296,37.871,120.847,38.179,120.357,38.179
			 M158.243,31.885c-0.376,0-0.747-0.176-0.968-0.507c-0.416-0.61-0.855-1.202-1.321-1.766c-0.41-0.5-0.337-1.235,0.159-1.646
			c0.502-0.404,1.231-0.335,1.646,0.16c0.507,0.621,0.992,1.276,1.447,1.942c0.359,0.535,0.217,1.258-0.312,1.617
			C158.694,31.822,158.466,31.885,158.243,31.885 M124.789,30.113c-0.262,0-0.519-0.085-0.741-0.262
			c-0.496-0.41-0.57-1.139-0.165-1.641c0.512-0.626,1.059-1.235,1.623-1.8c0.456-0.461,1.19-0.461,1.646-0.012
			c0.461,0.456,0.467,1.197,0.012,1.652c-0.513,0.513-1.003,1.066-1.476,1.635C125.461,29.97,125.124,30.113,124.789,30.113
			 M151.716,25.413c-0.217,0-0.439-0.061-0.639-0.187c-0.61-0.4-1.241-0.77-1.886-1.089c-0.575-0.29-0.809-0.996-0.518-1.572
			c0.29-0.575,0.99-0.802,1.566-0.512c0.717,0.359,1.429,0.769,2.113,1.219c0.541,0.347,0.696,1.07,0.343,1.611
			C152.473,25.226,152.096,25.413,151.716,25.413 M131.904,24.303c-0.427,0-0.833-0.227-1.043-0.633
			c-0.29-0.575-0.063-1.276,0.512-1.572c0.729-0.37,1.482-0.706,2.234-0.986c0.61-0.227,1.276,0.08,1.503,0.684
			c0.222,0.604-0.08,1.276-0.684,1.503c-0.672,0.251-1.345,0.547-1.994,0.878C132.262,24.263,132.086,24.303,131.904,24.303
			 M143.108,22.263c-0.039,0-0.085,0-0.131-0.006c-0.706-0.085-1.417-0.125-2.125-0.125c-0.643,0-1.19-0.524-1.19-1.167
			c0-0.645,0.496-1.168,1.139-1.168h0.051c0.798,0,1.601,0.051,2.393,0.143c0.639,0.073,1.099,0.655,1.025,1.292
			C144.201,21.826,143.695,22.263,143.108,22.263"/>
		<path fill="#EEBD2C" d="M140.863,62.127c-0.7,0-1.151-0.455-1.151-1.151v-1.641c-2.392-0.33-3.873-0.723-5.89-2.341v1.537
			c0,0.701-0.449,1.151-1.151,1.151c-0.7,0-1.151-0.455-1.151-1.151v-7.2c0-0.701,0.455-1.151,1.151-1.151
			c0.701,0,1.151,0.449,1.151,1.151v2.621c1.237,1.333,2.154,1.823,4.222,2.615c0.5,0.188,1.065,0.335,1.668,0.439V45.852
			c-2.233-0.621-3.924-1.213-5.035-1.76c-1.225-0.61-2.187-1.372-2.86-2.278c-0.694-0.935-1.043-2.017-1.043-3.23
			c0-2.279,0.764-4.13,2.273-5.504c1.435-1.31,3.679-1.993,6.664-2.045v-1.503c0-0.696,0.456-1.151,1.151-1.151
			c0.701,0,1.151,0.455,1.151,1.151v1.668c2.119,0.394,3.932,1.123,5.4,2.176c0.382,0.274,0.206,0.513,0.474,0.725l-0.006-1.538
			c0-0.696,0.455-1.151,1.151-1.151c0.7,0,1.156,0.455,1.156,1.151v7.2c0,0.701-0.456,1.151-1.156,1.151
			c-0.696,0-1.151-0.449-1.151-1.151V37.33c-1.299-1.435-2.432-2.562-4.359-3.354c-0.473-0.2-0.979-0.36-1.509-0.462v10.425
			c0.359,0.096,0.952,0.249,1.783,0.467c1.429,0.376,2.758,0.86,3.936,1.447c1.225,0.604,2.187,1.374,2.86,2.273
			c0.696,0.933,1.043,2.062,1.043,3.344c0,2.443-0.872,4.414-2.591,5.861c-1.646,1.384-4.01,2.109-7.03,2.142v1.503
			C142.014,61.672,141.565,62.127,140.863,62.127 M136.324,57.103c0.194,0.09,0.388,0.176,0.58,0.262
			C136.712,57.279,136.518,57.189,136.324,57.103 M142.014,46.479v10.692c2.364-0.035,4.193-0.559,5.435-1.556
			c1.27-1.019,1.886-2.301,1.886-3.918c0-0.855-0.262-1.572-0.792-2.205c-0.559-0.661-1.254-1.178-2.068-1.543
			c-0.866-0.394-1.748-0.713-2.621-0.958L142.014,46.479z M148.713,56.054c-0.165,0.16-0.347,0.319-0.535,0.468
			c-0.28,0.227-0.582,0.432-0.906,0.614c0.37-0.204,0.712-0.437,1.019-0.7C148.441,56.311,148.576,56.186,148.713,56.054
			 M139.713,33.343c-2.244,0.045-3.918,0.529-4.984,1.447c-1.11,0.952-1.652,2.08-1.652,3.458c0,0.849,0.257,1.566,0.792,2.199
			c0.559,0.661,1.254,1.186,2.068,1.55c0.866,0.386,1.693,0.7,2.456,0.916c0.478,0.137,0.923,0.268,1.321,0.382V33.343z
			 M139.713,33.343"/>
	</g>
</g>
</svg>
