<?xml version="1.0" encoding="utf-8"?>
<!-- Generator: Adobe Illustrator 17.0.0, SVG Export Plug-In . SVG Version: 6.00 Build 0)  -->
<!DOCTYPE svg PUBLIC "-//W3C//DTD SVG 1.1//EN" "http://www.w3.org/Graphics/SVG/1.1/DTD/svg11.dtd">
<svg version="1.1" id="Capa_1" xmlns="http://www.w3.org/2000/svg" xmlns:xlink="http://www.w3.org/1999/xlink" x="0px" y="0px"
	 width="352px" height="209.81px" viewBox="0 0 352 209.81" enable-background="new 0 0 352 209.81" xml:space="preserve">
<g>
	<g>
		<g>
			<path fill="#EEF1F8" d="M197.914,54.896h-81.662v146.931c0,4.139-3.478,7.495-7.617,7.495l119.11-0.062
				c4.139,0,8.002-3.295,8.002-7.434V92.072L197.914,54.896z"/>
			<path fill="#D7DCEB" d="M101.316,154.786v47.04c0,4.139,3.329,7.495,7.468,7.495s7.468-3.355,7.468-7.495v-47.04H101.316z"/>
			<path fill="#D7DCEB" d="M197.914,54.984l0.09,37.11h37.304L197.914,54.984z"/>
		</g>
		<path fill="#AFB7CF" d="M188.008,145.369h-45.309c-1.469,0-2.668,1.2-2.668,2.668c0,1.468,1.199,2.668,2.668,2.668h45.309
			c1.469,0,2.651-1.199,2.651-2.668C190.659,146.568,189.477,145.369,188.008,145.369L188.008,145.369z"/>
		<path fill="#AFB7CF" d="M188.008,118.199h-45.309c-1.469,0-2.668,1.2-2.668,2.668s1.199,2.668,2.668,2.668h45.309
			c1.469,0,2.651-1.199,2.651-2.668C190.659,119.399,189.477,118.199,188.008,118.199L188.008,118.199z"/>
		<path fill="#C7CDDF" d="M217.307,134.713c0-1.468-1.183-2.668-2.651-2.668h-18.661c-1.469,0-2.668,1.199-2.668,2.668
			s1.2,2.668,2.668,2.668h18.661C216.125,137.381,217.307,136.182,217.307,134.713L217.307,134.713z"/>
		<path fill="#C7CDDF" d="M217.307,120.867c0-1.468-1.183-2.668-2.651-2.668h-12.745c-1.469,0-2.668,1.199-2.668,2.668
			c0,1.469,1.2,2.668,2.668,2.668h12.745C216.125,123.536,217.307,122.337,217.307,120.867L217.307,120.867z"/>
		<path fill="#C7CDDF" d="M156.023,137.381h26.648c1.468,0,2.668-1.199,2.668-2.668c0-1.468-1.199-2.668-2.668-2.668h-26.648
			c-1.469,0-2.668,1.199-2.668,2.668C153.355,136.182,154.554,137.381,156.023,137.381L156.023,137.381z"/>
		<path fill="#D7DCEB" d="M142.699,137.381c0.716,0,1.379-0.3,1.885-0.782c0.483-0.506,0.782-1.196,0.782-1.886
			c0-0.689-0.3-1.392-0.782-1.885c-0.976-0.99-2.821-0.962-3.771,0c-0.483,0.493-0.782,1.196-0.782,1.885
			c0,0.69,0.3,1.379,0.782,1.862C141.28,137.081,141.982,137.381,142.699,137.381L142.699,137.381z"/>
		<path fill="#D7DCEB" d="M199.43,146.151c-0.48,0.493-0.766,1.156-0.766,1.886c0,0.716,0.26,1.379,0.766,1.885
			c0.51,0.483,1.199,0.782,1.902,0.782c0.69,0,1.379-0.3,1.886-0.782c0.506-0.506,0.766-1.169,0.766-1.885
			c0-0.69-0.287-1.393-0.766-1.886C202.201,145.162,200.446,145.162,199.43,146.151L199.43,146.151z"/>
		<path fill="#D7DCEB" d="M212.754,146.151c-0.48,0.493-0.766,1.156-0.766,1.886c0,0.716,0.26,1.379,0.766,1.885
			c0.51,0.483,1.199,0.782,1.902,0.782c0.689,0,1.379-0.3,1.885-0.807c0.506-0.51,0.766-1.173,0.766-1.862
			c0-0.69-0.287-1.393-0.766-1.886C215.525,145.162,213.77,145.162,212.754,146.151L212.754,146.151z"/>
		<path fill="#7381BD" d="M157.429,159.136c-5.842,3.044-7.808,8.847-8.524,14.873c-1.106-0.922-2.212-1.848-3.304-2.772
			c-2.615-2.185-6.415,1.563-3.774,3.774c2.498,2.095,4.983,4.178,7.482,6.269c1.759,1.472,4.463,0.559,4.544-1.886
			c0.193-5.776,0.48-12.635,6.259-15.653C163.168,162.154,160.46,157.56,157.429,159.136L157.429,159.136z"/>
		<path fill="#7381BD" d="M198.297,172.68c-1.13-1.536-2.288-2.821-4.344-2.978c-3.891-0.3-10.553,5.256-13.311,0.35
			c-0.703-1.249-2.422-1.702-3.644-0.963c-3.774,2.318-8.704,5.65-12.675,1.342c-2.328-2.538-6.09,1.236-3.774,3.76
			c4.996,5.423,11.426,3.758,17.085,0.689c1.186,1.286,2.615,2.158,4.517,2.848c2.419,0.873,10.889-3.254,11.542-2.355
			C195.695,178.12,200.33,175.465,198.297,172.68L198.297,172.68z"/>
		<path display="none" fill="#AFB7CF" d="M149.002,95.562l-12.168-6.211c-0.828-0.429-1.349-1.276-1.349-2.226v-3.707
			c6.242-2.691,9.828-7.911,11.575-14.437c2.625-0.822,4.56-3.26,4.56-6.139v-3.211c0-2.485-1.415-4.608-3.472-5.697
			c-1.415-12.12-9.447-17.031-22.322-17.031c-0.617,0-1.228,0.024-1.796,0.066c-4.397,0.357-8.812-0.471-12.453-2.928
			c-1.536-1.016-2.812-2.104-3.707-3.236c-0.399-0.52-1.228-0.188-1.131,0.447c0.115,1.137,0.302,2.455,0.586,3.9
			c1.064,5.359,0.447,4.559-1.627,9.616c-1.161,2.806-1.892,5.903-2.226,9.186c-2.05,1.089-3.471,3.211-3.471,5.673v3.211
			c0,2.903,1.941,5.34,4.584,6.139c1.723,6.526,5.316,11.745,11.552,14.437v3.689c0,0.944-0.544,1.814-1.391,2.243l-12.453,6.115
			c-2.104,1.161-3.634,3-4.559,5.129c7.917,5.673,17.599,9.024,28.068,9.024c10.438,0,20.079-3.332,27.995-8.951
			C152.805,98.513,151.196,96.651,149.002,95.562L149.002,95.562z"/>
		<g>
			<g>
				<defs>
					<circle id="SVGID_1_" cx="126.903" cy="69.939" r="43.753"/>
				</defs>
				<clipPath id="SVGID_2_">
					<use xlink:href="#SVGID_1_"  overflow="visible"/>
				</clipPath>
				<g clip-path="url(#SVGID_2_)">
					<polygon fill="#E4AD78" points="139.088,86.443 139.088,76.903 114.552,76.903 114.552,86.443 126.82,97.349 					"/>
					<path fill="#707485" d="M158.058,90.907l-16.867-3.969c-0.255-0.06-0.489-0.161-0.709-0.285l-13.662,7.969l-13.129-8.354
						c-0.34,0.32-0.762,0.558-1.241,0.67l-16.868,3.969c-2.463,0.58-4.204,2.777-4.204,5.307v19.258
						c0,1.506,1.221,2.726,2.726,2.726h65.43c1.506,0,2.726-1.221,2.726-2.726V96.215C162.262,93.684,160.521,91.487,158.058,90.907
						z"/>
					<path fill="#D0996E" d="M114.552,76.903V86.97c15.454,5.568,24.536-8.367,24.536-8.367v-1.7H114.552L114.552,76.903z"/>
					<path fill="#EEBE85" d="M109.1,45.55l1.187,26.133c0.111,2.441,1.308,4.705,3.263,6.172l5.636,4.227
						c1.415,1.061,3.138,1.636,4.907,1.636h5.453c1.769,0,3.492-0.574,4.907-1.636l5.636-4.227c1.955-1.467,3.152-3.73,3.263-6.172
						l1.187-26.133H109.1z"/>
					<path fill="#E4AD78" d="M122.731,51.003c5.453,0,13.631-1.363,15.571-5.453H109.1l1.187,26.133
						c0.111,2.441,1.308,4.705,3.263,6.172l5.636,4.227c1.415,1.061,3.138,1.636,4.907,1.636h2.727
						c-2.726,0-8.179-5.453-8.179-12.268c0-3.334,0-12.268,0-16.358C118.641,53.729,120.005,51.003,122.731,51.003z"/>
					<g>
						<path fill="#5B5D6E" d="M152.254,100.77l8.832-7.934c0.74,0.937,1.174,2.116,1.174,3.379v19.258
							c0,1.506-1.221,2.726-2.726,2.726h-9.542v-12.358C149.993,103.907,150.816,102.063,152.254,100.77z"/>
						<path fill="#5B5D6E" d="M101.387,100.77l-8.832-7.934c-0.74,0.937-1.174,2.116-1.174,3.379v19.258
							c0,1.506,1.221,2.726,2.726,2.726h9.542v-12.358C103.648,103.907,102.825,102.063,101.387,100.77z"/>
						<polygon fill="#5B5D6E" points="130.851,118.199 122.762,118.199 124.264,97.349 129.376,97.349 						"/>
					</g>
					<path fill="#515262" d="M130.229,94.622h-6.816v1.51c0,1.425,1.155,2.579,2.579,2.579h1.656c1.425,0,2.579-1.155,2.579-2.579
						L130.229,94.622L130.229,94.622z"/>
					<g>
						<path fill="#5B5D6E" d="M114.361,83.409l12.459,11.214c0,0-3.49,1.762-7.795,5.312c-0.889,0.732-2.232,0.436-2.708-0.612
							l-5.853-12.878l1.852-2.777C112.776,82.974,113.743,82.853,114.361,83.409z"/>
						<path fill="#5B5D6E" d="M139.281,83.409l-12.46,11.213c0,0,3.49,1.762,7.795,5.312c0.889,0.732,2.232,0.436,2.708-0.612
							l5.853-12.878l-1.852-2.777C140.865,82.974,139.898,82.853,139.281,83.409z"/>
					</g>
					<path fill="#775550" d="M135.084,36.52l1.278,9.03c5.834,1.167,6.674,10.321,6.795,12.936c0.021,0.474,0.174,0.933,0.431,1.332
						l2.226,3.452c0,0-0.762-5.708,2.726-9.542C148.54,53.729,149.738,31.068,135.084,36.52z"/>
					<path fill="#EEBE85" d="M147.181,62.687l-1.539,6.158c-0.182,0.729-0.838,1.242-1.59,1.242l0,0
						c-0.826,0-1.524-0.615-1.626-1.436l-0.787-6.298c-0.211-1.684,1.103-3.171,2.8-3.171h0.006
						C146.28,59.182,147.627,60.907,147.181,62.687z"/>
					<path fill="#694B4B" d="M110.407,34.077l2.016,1.377c-9.116,6.73-7.412,18.274-7.412,18.274
						c2.726,2.726,2.726,9.542,2.726,9.542l2.726-2.726c0,0-1.052-7.875,4.09-10.905c4.771-2.811,8.945-1.363,13.205-1.363
						c11.416,0,14.611-4.303,14.058-9.542c-0.287-2.711-4.432-8.358-14.995-8.179C122.558,30.629,114.552,31.919,110.407,34.077z"/>
					<path fill="#5A4146" d="M109.611,47.084c0,0-1.448-5.708,2.811-11.629c-9.116,6.73-7.412,18.274-7.412,18.274
						c2.726,2.726,2.726,9.542,2.726,9.542l2.726-2.726c0,0-1.052-7.875,4.09-10.905c4.771-2.811,8.945-1.363,13.205-1.363
						c1.857,0,3.475-0.124,4.915-0.337C123.882,48.234,118.698,41.575,109.611,47.084z"/>
					<path fill="#E4AD78" d="M106.459,62.687l1.539,6.158c0.182,0.729,0.838,1.242,1.59,1.242l0,0c0.826,0,1.524-0.615,1.626-1.436
						l0.787-6.298c0.211-1.684-1.103-3.171-2.8-3.171h-0.006C107.361,59.182,106.014,60.907,106.459,62.687z"/>
					<path fill="#5B5D6E" d="M143.775,106.89h-8.008c-1.176,0-2.13,0.953-2.13,2.13v9.179h12.268v-9.179
						C145.904,107.844,144.95,106.89,143.775,106.89z"/>
				</g>
			</g>
		</g>
	</g>
	<g>
		<g>
			<circle fill="#697C89" cx="282.129" cy="59.285" r="36.928"/>
			<path fill="#FFFFFF" d="M282.128,99.207c-22.012,0-39.922-17.908-39.922-39.922s17.909-39.922,39.922-39.922
				c22.012,0,39.922,17.908,39.922,39.922S304.141,99.207,282.128,99.207z M282.128,25.352c-18.711,0-33.933,15.223-33.933,33.934
				s15.222,33.933,33.933,33.933s33.933-15.223,33.933-33.934S300.84,25.352,282.128,25.352z"/>
		</g>
		<path fill="#FAED64" d="M297.946,68.025c0-6.196-3.655-9.993-10.964-11.592l-2.573-0.505V45.279
			c1.964,0.412,3.514,1.575,4.288,3.127c0.654,1.313,1.989,2.146,3.457,2.146c2.989,0,4.927-3.295,3.337-5.824
			c-2.077-3.303-5.971-5.517-11.08-6.085v-1.839c0-1.449-1.174-2.622-2.623-2.622s-2.622,1.174-2.622,2.622v1.838
			c-8.109,0.883-12.853,5.321-12.853,12.11c0,5.939,3.683,9.908,10.564,11.506l2.289,0.54V73.99
			c-2.317-0.431-4.081-1.619-4.951-3.287c-0.676-1.297-1.989-2.134-3.451-2.134h-0.386c-2.991,0-4.907,3.284-3.336,5.829
			c2.141,3.466,6.366,5.651,12.124,6.133v1.237c0,1.449,1.174,2.622,2.622,2.622c1.449,0,2.623-1.174,2.623-2.622v-1.264
			C293.067,79.613,297.946,75.144,297.946,68.025z M274.562,50.037c0-2.492,1.882-4.377,4.602-4.8v9.589
			C276.159,54.006,274.562,52.366,274.562,50.037z M284.409,74.091V63.791c3.717,0.836,5.457,2.493,5.457,5.149
			C289.866,71.832,287.853,73.729,284.409,74.091z"/>
	</g>
	<g>
		<g>
			<circle fill="#697C89" cx="319.056" cy="115.203" r="18.785"/>
			<path fill="#FFFFFF" d="M319.068,135.517c-1.757,0-3.516-0.231-5.228-0.686c-10.822-2.876-17.287-14.021-14.411-24.843
				c2.362-8.888,10.429-15.097,19.615-15.097c1.757,0,3.516,0.232,5.228,0.686c5.242,1.393,9.63,4.744,12.351,9.436
				c2.721,4.692,3.453,10.164,2.06,15.406C336.321,129.309,328.255,135.517,319.068,135.517z M319.043,97.937
				c-7.808,0-14.662,5.277-16.671,12.834c-2.445,9.199,3.05,18.672,12.249,21.117c1.457,0.387,2.953,0.583,4.446,0.583
				c7.807,0,14.662-5.277,16.671-12.834c1.185-4.456,0.563-9.107-1.751-13.095c-2.313-3.989-6.042-6.837-10.499-8.021
				C322.031,98.133,320.535,97.937,319.043,97.937z"/>
		</g>
		<path fill="#FAED64" d="M325.69,121.567c0.809-3.046-0.491-5.39-3.876-7.131l-1.199-0.584l1.391-5.235
			c0.912,0.459,1.522,1.233,1.699,2.098c0.15,0.731,0.697,1.315,1.419,1.507c1.469,0.39,2.853-0.976,2.401-2.428
			c-0.59-1.895-2.214-3.492-4.653-4.439l0.24-0.905c0.19-0.712-0.234-1.443-0.947-1.632c-0.712-0.19-1.443,0.234-1.632,0.947
			l-0.24,0.904c-4.102-0.625-7.014,0.936-7.902,4.275c-0.776,2.92,0.516,5.352,3.69,7.037l1.055,0.565l-1.462,5.502
			c-1.083-0.514-1.795-1.329-2.004-2.263c-0.163-0.726-0.699-1.309-1.418-1.5l-0.19-0.05c-1.47-0.391-2.842,0.974-2.401,2.43
			c0.599,1.984,2.392,3.61,5.159,4.6l-0.161,0.608c-0.19,0.712,0.234,1.443,0.947,1.632c0.712,0.19,1.443-0.234,1.632-0.947
			l0.165-0.621C321.778,126.626,324.76,125.067,325.69,121.567z M316.543,109.668c0.326-1.225,1.497-1.906,2.889-1.759l-1.253,4.714
			C316.81,111.829,316.24,110.813,316.543,109.668z M318.242,122.781l1.346-5.065c1.719,0.897,2.357,1.938,2.01,3.244
			C321.22,122.383,319.983,123.053,318.242,122.781z"/>
	</g>
	<g>
		<circle fill="#FFFFFF" cx="155.522" cy="28.964" r="10.278"/>
		<g>
			<path fill="#5B5D6E" d="M150.8,26.676c-0.061-0.536,0.051-1.1,0.334-1.689c0.282-0.589,0.734-1.101,1.355-1.537
				c0.62-0.435,1.37-0.702,2.252-0.801c0.818-0.091,1.557-0.021,2.218,0.21c0.661,0.232,1.192,0.589,1.591,1.07
				c0.4,0.481,0.634,1.026,0.702,1.636c0.053,0.48,0.004,0.912-0.151,1.295c-0.153,0.383-0.351,0.722-0.589,1.014
				c-0.239,0.292-0.671,0.788-1.296,1.487c-0.172,0.197-0.309,0.367-0.41,0.513c-0.101,0.146-0.174,0.277-0.218,0.393
				c-0.045,0.118-0.076,0.232-0.094,0.346c-0.019,0.113-0.043,0.311-0.075,0.596c-0.042,0.599-0.344,0.931-0.909,0.994
				c-0.294,0.033-0.551-0.035-0.773-0.205c-0.221-0.17-0.355-0.443-0.397-0.822c-0.053-0.474-0.025-0.892,0.083-1.256
				c0.108-0.364,0.269-0.691,0.482-0.98c0.213-0.29,0.505-0.639,0.878-1.046c0.325-0.358,0.56-0.625,0.703-0.804
				c0.144-0.179,0.259-0.374,0.346-0.583c0.088-0.211,0.119-0.431,0.092-0.663c-0.05-0.451-0.26-0.814-0.632-1.087
				c-0.37-0.274-0.822-0.38-1.351-0.32c-0.621,0.07-1.061,0.277-1.319,0.624c-0.259,0.346-0.456,0.836-0.591,1.468
				c-0.12,0.659-0.45,1.019-0.985,1.079c-0.316,0.035-0.596-0.046-0.837-0.246C150.964,27.165,150.829,26.937,150.8,26.676z
				 M155.973,35.496c-0.344,0.038-0.656-0.039-0.939-0.233c-0.281-0.195-0.444-0.491-0.489-0.892
				c-0.04-0.355,0.05-0.669,0.272-0.939c0.221-0.271,0.512-0.426,0.873-0.467c0.356-0.04,0.668,0.048,0.939,0.263
				c0.269,0.215,0.425,0.501,0.464,0.857c0.045,0.396-0.048,0.72-0.276,0.975C156.587,35.313,156.307,35.458,155.973,35.496z"/>
		</g>
	</g>
	<g>
		<circle fill="#EEF1F8" cx="39.852" cy="93.85" r="24.794"/>
		<g>
			<path fill="#7381BD" d="M31.908,86.655c-3.732,1.945-4.987,5.651-5.445,9.5c-0.707-0.589-1.412-1.181-2.111-1.77
				c-1.67-1.396-4.098,0.998-2.41,2.41c1.595,1.339,3.182,2.668,4.779,4.004c1.123,0.94,2.851,0.358,2.902-1.204
				c0.123-3.689,0.306-8.071,3.997-9.998C35.574,88.583,33.844,85.649,31.908,86.655L31.908,86.655z"/>
			<path fill="#7381BD" d="M58.012,95.307c-0.722-0.981-1.462-1.802-2.775-1.902c-2.485-0.191-6.74,3.357-8.502,0.223
				c-0.449-0.798-1.547-1.088-2.327-0.615c-2.41,1.481-5.559,3.608-8.096,0.858c-1.487-1.622-3.889,0.79-2.41,2.402
				c3.192,3.463,7.298,2.4,10.913,0.441c0.757,0.822,1.67,1.379,2.885,1.819c1.545,0.557,6.955-2.079,7.372-1.504
				C56.35,98.781,59.309,97.085,58.012,95.307L58.012,95.307z"/>
		</g>
		<path fill="#9D2222" d="M39.852,66.626c-15.012,0-27.224,12.213-27.224,27.224s12.213,27.225,27.224,27.225
			c15.013,0,27.225-12.213,27.225-27.225S54.865,66.626,39.852,66.626z M17.489,93.85c0-12.331,10.032-22.363,22.363-22.363
			c5.249,0,10.079,1.822,13.899,4.862l-31.399,31.398C19.312,103.929,17.489,99.1,17.489,93.85z M39.852,116.214
			c-5.333,0-10.236-1.879-14.083-5.008l31.438-31.438c3.128,3.848,5.009,8.749,5.009,14.084
			C62.215,106.182,52.183,116.214,39.852,116.214z"/>
	</g>
</g>
</svg>
