<?xml version="1.0" encoding="utf-8"?>
<!-- Generator: Adobe Illustrator 17.0.0, SVG Export Plug-In . SVG Version: 6.00 Build 0)  -->
<!DOCTYPE svg PUBLIC "-//W3C//DTD SVG 1.1//EN" "http://www.w3.org/Graphics/SVG/1.1/DTD/svg11.dtd">
<svg version="1.1" id="Capa_1" xmlns="http://www.w3.org/2000/svg" xmlns:xlink="http://www.w3.org/1999/xlink" x="0px" y="0px"
	 width="228px" height="244px" viewBox="-31.5 -45.59 228 244" enable-background="new -31.5 -45.59 228 244" xml:space="preserve">
<g>
	<g>
		<path fill="#FFFFFF" d="M16.229,133.699v50.388c0,2.387,1.04,4.525,2.686,5.995c0.214,0.017,0.429,0.033,0.647,0.033
			c4.434,0,8-3.594,8-8.028v-48.388H16.229z"/>
		<g>
			<g>
				<g>
					<defs>
						<circle id="SVGID_1_" cx="43.638" cy="42.813" r="46.867"/>
					</defs>
					<clipPath id="SVGID_2_">
						<use xlink:href="#SVGID_1_"  overflow="visible"/>
					</clipPath>
					<g clip-path="url(#SVGID_2_)">
						<g>
							<path fill="#FFFFFF" d="M68.371,81.27v13.237h10.222c0.806,0,1.536-0.327,2.064-0.855s0.855-1.258,0.855-2.064V70.959
								c0-1.353-0.465-2.616-1.258-3.62l-9.461,8.499C69.252,77.223,68.371,79.198,68.371,81.27z"/>
							<path fill="#FFFFFF" d="M16.305,75.838l-9.461-8.499c-0.595,0.753-1.005,1.652-1.173,2.625
								c-0.008,0.045-0.005,0.094-0.012,0.139c-0.042,0.281-0.073,0.565-0.073,0.856v20.628c0,1.613,1.308,2.92,2.92,2.92h10.221
								V81.27C18.728,79.198,17.846,77.223,16.305,75.838z"/>
							<g>
								<path fill="#FFFFFF" d="M44.437,74.633h-1.774c-0.731,0-1.408-0.218-1.986-0.58l-1.474,20.454h8.664l-1.446-20.453
									C45.842,74.415,45.166,74.633,44.437,74.633z"/>
							</g>
							<g>
								<path fill="#FFFFFF" d="M53.101,75.376c0.699,0,1.381-0.387,1.7-1.089l5.847-12.864l-1.705-0.401
									c-0.273-0.064-0.524-0.173-0.759-0.305l-12.821,7.479l1.691,1.524l-0.897,0.455h0.131h1.864l0.131,1.859l0.012,0.168
									c1.093,0.766,2.312,1.676,3.605,2.742C52.256,75.237,52.681,75.376,53.101,75.376z"/>
								<path fill="#FFFFFF" d="M33.998,75.377c0.419,0,0.844-0.139,1.201-0.433c1.293-1.066,2.512-1.976,3.605-2.742l0.012-0.172
									l0.134-1.856h1.861h0.124l-0.897-0.453l1.759-1.583l-12.312-7.835c-0.364,0.343-0.816,0.598-1.329,0.718l-1.706,0.401
									l5.847,12.865C32.618,74.99,33.299,75.377,33.998,75.377z"/>
								<path fill="#FFFFFF" d="M36.47,76.488c-0.696,0.573-1.574,0.889-2.473,0.889c-1.515,0-2.897-0.888-3.52-2.262L24.466,61.89
									L10.09,65.273c-0.631,0.148-1.213,0.401-1.741,0.729l9.293,8.349c1.961,1.762,3.085,4.284,3.085,6.919v13.237h16.47
									l0.01-0.143l1.409-19.557C37.933,75.317,37.215,75.875,36.47,76.488z"/>
								<path fill="#FFFFFF" d="M77.011,65.273L62.632,61.89l-6.01,13.224c-0.624,1.374-2.006,2.262-3.521,2.262
									c-0.898,0-1.776-0.316-2.474-0.89c-0.744-0.614-1.463-1.172-2.149-1.683l1.383,19.564l0.01,0.14h0.979v-9.831
									c0-1.261,1.022-2.282,2.282-2.282h8.578c1.259,0,2.281,1.022,2.281,2.282v9.831h2.38V81.27c0-2.635,1.124-5.157,3.085-6.92
									l9.293-8.349C78.224,65.674,77.64,65.421,77.011,65.273z"/>
							</g>
						</g>
						<g>
							<path fill="#FFFFFF" d="M30.203,57.242l13.346,12.012c0,0-3.738,1.887-8.35,5.69c-0.952,0.784-2.391,0.467-2.901-0.656
								l-6.27-13.795l1.984-2.975C28.506,56.776,29.541,56.646,30.203,57.242z"/>
							<path fill="#FFFFFF" d="M56.897,57.242L43.549,69.253c0,0,3.738,1.887,8.35,5.69c0.952,0.784,2.391,0.467,2.901-0.656
								l6.27-13.795l-1.984-2.975C58.593,56.776,57.558,56.646,56.897,57.242z"/>
						</g>
						<path fill="#FFFFFF" d="M25.967,4.399l2.16,1.475c-9.765,7.209-7.939,19.575-7.939,19.575
							c1.129,1.129,1.791,2.641,2.175,4.405c1.448-1.448,3.633-0.38,3.633-0.38s-1.095-5.16,4.413-8.405
							c5.111-3.011,9.582-1.46,14.145-1.46c12.229,0,15.651-4.609,15.058-10.221c-0.307-2.904-4.747-8.953-16.062-8.761
							C38.983,0.705,30.409,2.087,25.967,4.399z"/>
						<g>
							<path fill="#FFFFFF" d="M47.2,69.253h-0.664l0.517,0.466l-1.428,0.724c0.45,0.276,0.958,0.598,1.519,0.971
								c0.035-0.176,0.055-0.358,0.055-0.545v-1.616H47.2z"/>
							<path fill="#FFFFFF" d="M40.039,69.721l0.52-0.468h-0.66v1.617c0,0.187,0.02,0.369,0.055,0.546
								c0.561-0.373,1.069-0.695,1.518-0.971L40.039,69.721z"/>
							<path fill="#FFFFFF" d="M43.55,71.537c-0.596,0.343-1.46,0.864-2.51,1.561c0.456,0.333,1.014,0.535,1.622,0.535h1.774
								c0.609,0,1.166-0.203,1.623-0.536C45.01,72.4,44.146,71.879,43.55,71.537z"/>
						</g>
						<g>
							<path fill="#FFFFFF" d="M40.628,57.572h5.841c1.895,0,3.74-0.615,5.256-1.752l4.966-3.725v-1.823H30.409v1.826l4.963,3.722
								C36.887,56.957,38.732,57.572,40.628,57.572z"/>
							<path fill="#FFFFFF" d="M52.925,57.42c-1.85,1.388-4.143,2.152-6.456,2.152h-5.841c-2.313,0-4.606-0.764-6.456-2.152
								l-3.763-2.822v0.482c0.413,0.151,0.799,0.375,1.133,0.676L43.55,66.563l12.008-10.806c0.334-0.301,0.72-0.526,1.133-0.677
								v-0.484L52.925,57.42z"/>
						</g>
						<g>
							<path fill="#FFFFFF" d="M59.422,34.687l0.843,6.746c0.081,0.645,0.506,1.168,1.075,1.403l0.522-11.485
								C60.326,31.639,59.22,33.074,59.422,34.687z"/>
							<path fill="#FFFFFF" d="M63.851,31.653l-0.484,10.643c0.153-0.192,0.281-0.405,0.344-0.655l1.649-6.596
								C65.711,33.644,65.019,32.281,63.851,31.653z"/>
						</g>
						<g>
							<path fill="#FFFFFF" d="M25.116,18.331c0,0-1.551-6.114,3.011-12.457c-9.765,7.209-7.939,19.575-7.939,19.575
								c1.071,1.071,1.747,2.732,2.176,4.405c0.702-0.364,1.488-0.564,2.308-0.564h0.006c0.451,0,0.892,0.067,1.319,0.184
								c0.218-2.734,1.144-6.479,4.412-8.405c5.111-3.011,9.582-1.46,14.145-1.46c1.989,0,3.722-0.133,5.265-0.361
								C40.401,19.563,34.85,12.43,25.116,18.331z"/>
						</g>
						<g>
							<path fill="#FFFFFF" d="M26.833,41.433l0.843-6.746c0.202-1.614-0.906-3.05-2.443-3.336l0.522,11.487
								C26.326,42.603,26.753,42.079,26.833,41.433z"/>
							<path fill="#FFFFFF" d="M23.245,31.655c-1.167,0.629-1.856,1.99-1.506,3.39l1.649,6.596c0.062,0.248,0.189,0.46,0.34,0.651
								L23.245,31.655z"/>
						</g>
						<g>
							<path fill="#FFFFFF" d="M52.401,7.015l1.369,9.673c0.701,0.14,1.335,0.388,1.908,0.722c3.264-1.877,4.277-4.779,3.934-8.022
								c-0.091-0.861-0.554-2-1.444-3.17C56.558,5.973,54.66,6.174,52.401,7.015z"/>
							<path fill="#FFFFFF" d="M61.073,7.309c0.29,0.684,0.471,1.325,0.529,1.869c0.335,3.17-0.438,5.825-2.297,7.892
								c-0.563,0.626-1.247,1.172-2.003,1.669c2.691,2.926,3.46,8.066,3.679,10.768c0.464-0.139,0.948-0.217,1.441-0.217h0.006
								c0.714,0,1.402,0.155,2.032,0.433c0.44-1.454,1.165-2.966,2.356-4.274C66.815,25.449,67.545,11.521,61.073,7.309z"/>
						</g>
						<g>
							<path fill="#FFFFFF" d="M61.955,29.326l0.574-12.638h-2.917c-0.103,0.127-0.197,0.259-0.307,0.381
								c-0.054,0.06-0.122,0.111-0.179,0.17c-0.092,0.096-0.196,0.184-0.292,0.278c-0.16,0.151-0.308,0.31-0.481,0.452
								c-0.114,0.097-0.23,0.192-0.351,0.285c-0.096,0.074-0.206,0.139-0.305,0.211c-0.129,0.093-0.26,0.184-0.395,0.273l0,0
								c2.691,2.926,3.46,8.066,3.679,10.768C61.295,29.412,61.623,29.359,61.955,29.326z"/>
							<path fill="#FFFFFF" d="M61.554,31.423l-2.368,0.71l-0.2-2.464c-0.164-2.025-0.801-7.013-3.158-9.576L55.5,19.735
								c-2.761,1.241-6.414,1.875-10.945,1.875c-1.238,0-2.45-0.104-3.621-0.206c-1.156-0.1-2.248-0.194-3.35-0.194
								c-2.402,0-4.301,0.488-6.159,1.583c-4.067,2.396-3.541,5.897-3.472,6.266l0.874,4.024l-3.594-1.756l0.607,13.355
								c0.119,2.615,1.401,5.04,3.495,6.611l6.037,4.528c1.516,1.137,3.361,1.752,5.256,1.752h5.841c1.895,0,3.74-0.615,5.256-1.752
								l6.037-4.528c2.094-1.571,3.376-3.996,3.495-6.611l0.606-13.328C61.759,31.373,61.657,31.392,61.554,31.423z"/>
						</g>
					</g>
				</g>
			</g>
		</g>
		<path fill="#FFFFFF" d="M119.703,26.699H87.819c2.772,5.984,4.33,12.645,4.33,19.674c0,25.884-20.983,46.867-46.867,46.867
			c-4.532,0-8.908-0.656-13.054-1.856v92.703c0,4.434-3.725,8.028-8.159,8.028l127.587-0.066c4.434,0,8.572-3.529,8.572-7.963
			V66.521L119.703,26.699z M60.558,94.508h48.534c1.574,0,2.84,1.285,2.84,2.858c0,1.574-1.266,2.858-2.84,2.858H60.558
			c-1.574,0-2.858-1.285-2.858-2.858S58.983,94.508,60.558,94.508z M106.233,112.197c0,1.574-1.285,2.858-2.858,2.858H74.83
			c-1.574,0-2.858-1.285-2.858-2.858c0-1.574,1.284-2.858,2.858-2.858h28.545C104.95,109.339,106.233,110.624,106.233,112.197z
			 M63.416,112.197c0,0.739-0.321,1.478-0.838,2.02c-0.542,0.517-1.252,0.838-2.019,0.838c-0.768,0-1.52-0.322-2.02-0.863
			c-0.517-0.518-0.838-1.256-0.838-1.995c0-0.738,0.321-1.491,0.838-2.019c1.017-1.031,2.994-1.06,4.039,0
			C63.095,110.706,63.416,111.459,63.416,112.197z M57.7,126.469c0-1.573,1.284-2.858,2.858-2.858h48.534
			c1.574,0,2.84,1.285,2.84,2.858c0,1.574-1.266,2.858-2.84,2.858H60.558C58.983,129.327,57.7,128.042,57.7,126.469z
			 M72.504,160.059c-0.086,2.619-2.983,3.597-4.867,2.02c-2.676-2.24-5.338-4.471-8.014-6.715c-2.829-2.369,1.242-6.384,4.043-4.043
			c1.17,0.989,2.354,1.981,3.539,2.969c0.767-6.455,2.873-12.671,9.131-15.932c3.247-1.688,6.148,3.233,2.872,4.934
			C73.019,146.525,72.711,153.872,72.504,160.059z M115.183,155.752c-0.7-0.963-9.773,3.458-12.364,2.523
			c-2.037-0.739-3.568-1.674-4.838-3.051c-6.062,3.287-12.949,5.071-18.301-0.738c-2.48-2.704,1.549-6.747,4.043-4.028
			c4.253,4.614,9.534,1.045,13.577-1.438c1.309-0.792,3.15-0.307,3.903,1.031c2.954,5.255,10.09-0.696,14.258-0.375
			c2.202,0.168,3.443,1.545,4.653,3.19C122.291,155.849,117.326,158.693,115.183,155.752z M125.384,128.488
			c-0.543,0.517-1.281,0.838-2.02,0.838c-0.753,0-1.491-0.321-2.037-0.838c-0.543-0.542-0.821-1.252-0.821-2.019
			c0-0.782,0.307-1.492,0.821-2.02c1.089-1.059,2.969-1.059,4.057,0c0.514,0.528,0.821,1.281,0.821,2.02
			C126.205,127.236,125.925,127.946,125.384,128.488z M139.655,128.462c-0.542,0.543-1.281,0.864-2.019,0.864
			c-0.753,0-1.491-0.321-2.037-0.838c-0.543-0.542-0.821-1.252-0.821-2.019c0-0.782,0.307-1.492,0.821-2.02
			c1.088-1.059,2.968-1.059,4.056-0.001c0.514,0.528,0.821,1.281,0.821,2.02C140.477,127.206,140.198,127.916,139.655,128.462z
			 M137.637,115.055h-19.989c-1.573,0-2.858-1.284-2.858-2.858c0-1.574,1.284-2.858,2.858-2.858h19.989
			c1.573,0,2.84,1.285,2.84,2.858S139.211,115.055,137.637,115.055z M137.637,100.224h-13.652c-1.573,0-2.858-1.284-2.858-2.858
			s1.284-2.858,2.858-2.858h13.652c1.573,0,2.84,1.285,2.84,2.858C140.477,98.94,139.211,100.224,137.637,100.224z M119.787,66.544
			l-0.083-34.169l34.43,34.169H119.787z"/>
	</g>
	<path fill="#FFFFFF" d="M5.527,131.689c-14.304-17.28-22.901-39.456-22.901-63.641c0-55.159,44.715-99.874,99.874-99.874
		c55.159,0,99.874,44.715,99.874,99.874c0,16.77-4.14,32.571-11.443,46.447v24.293c15.526-19.383,24.817-43.975,24.817-70.741
		C195.748,5.503,145.045-45.2,82.5-45.2C19.955-45.2-30.748,5.503-30.748,68.048c0,32.82,13.967,62.374,36.275,83.058V131.689z"/>
</g>
</svg>
