<?xml version="1.0" encoding="utf-8"?>
<!-- Generator: Adobe Illustrator 17.0.0, SVG Export Plug-In . SVG Version: 6.00 Build 0)  -->
<!DOCTYPE svg PUBLIC "-//W3C//DTD SVG 1.1//EN" "http://www.w3.org/Graphics/SVG/1.1/DTD/svg11.dtd">
<svg version="1.1" id="Capa_1" xmlns="http://www.w3.org/2000/svg" xmlns:xlink="http://www.w3.org/1999/xlink" x="0px" y="0px"
	 width="149.333px" height="149.333px" viewBox="0 0 149.333 149.333" enable-background="new 0 0 149.333 149.333"
	 xml:space="preserve">
<path opacity="0.1" fill="#FFFFFF" d="M141.637,3.667c1.298,0,2.597,0.494,3.585,1.483c1.977,1.977,1.977,5.194,0,7.171
	l-19.431,19.431c-1.235,1.235-2.878,1.916-4.625,1.916s-3.39-0.68-4.625-1.916c-2.55-2.55-2.55-6.7,0-9.25L130.5,8.542
	c0.3-0.3,0.787-0.3,1.087,0c0.3,0.3,0.3,0.787,0,1.087l-13.959,13.959c-1.951,1.951-1.951,5.126,0,7.077
	c0.945,0.945,2.202,1.466,3.538,1.466s2.593-0.52,3.538-1.466l19.431-19.431c0.667-0.667,1.035-1.555,1.035-2.499
	s-0.368-1.831-1.035-2.499c-1.378-1.378-3.619-1.378-4.997,0L123.835,21.54c-0.803,0.803-0.803,2.11,0,2.912
	c0.803,0.803,2.109,0.803,2.912,0l9.832-9.831c0.3-0.3,0.787-0.3,1.087,0c0.3,0.3,0.3,0.787,0,1.087l-9.832,9.831
	c-1.402,1.402-3.684,1.402-5.086,0c-1.402-1.402-1.402-3.684,0-5.086L138.051,5.15C139.04,4.161,140.338,3.667,141.637,3.667z"/>
<path opacity="0.1" fill="#FFFFFF" d="M141.637,41c1.298,0,2.597,0.494,3.585,1.483c1.977,1.977,1.977,5.194,0,7.171l-19.431,19.431
	C124.556,70.32,122.913,71,121.166,71s-3.39-0.68-4.625-1.916c-2.55-2.55-2.55-6.7,0-9.25L130.5,45.876c0.3-0.3,0.787-0.3,1.087,0
	c0.3,0.3,0.3,0.787,0,1.087l-13.959,13.959c-1.951,1.951-1.951,5.126,0,7.077c0.945,0.945,2.202,1.466,3.538,1.466
	s2.593-0.52,3.538-1.466l19.431-19.431c0.667-0.667,1.035-1.555,1.035-2.499c0-0.944-0.368-1.831-1.035-2.499
	c-1.378-1.378-3.619-1.378-4.997,0l-15.303,15.303c-0.803,0.803-0.803,2.11,0,2.912c0.803,0.803,2.109,0.803,2.912,0l9.832-9.831
	c0.3-0.3,0.787-0.3,1.087,0c0.3,0.3,0.3,0.787,0,1.087l-9.832,9.831c-1.402,1.402-3.684,1.402-5.086,0
	c-1.402-1.402-1.402-3.684,0-5.086l15.304-15.303C139.04,41.495,140.338,41,141.637,41z"/>
<path opacity="0.1" fill="#FFFFFF" d="M141.637,78.334c1.298,0,2.597,0.494,3.585,1.483c1.977,1.977,1.977,5.194,0,7.171
	l-19.431,19.431c-1.235,1.235-2.878,1.916-4.625,1.916s-3.39-0.68-4.625-1.916c-2.55-2.55-2.55-6.7,0-9.25L130.5,83.209
	c0.3-0.3,0.787-0.3,1.087,0s0.3,0.787,0,1.087l-13.959,13.959c-1.951,1.951-1.951,5.126,0,7.077
	c0.945,0.945,2.202,1.466,3.538,1.466s2.593-0.52,3.538-1.466l19.431-19.431c0.667-0.667,1.035-1.555,1.035-2.499
	c0-0.944-0.368-1.831-1.035-2.499c-1.378-1.378-3.619-1.378-4.997,0l-15.303,15.303c-0.803,0.803-0.803,2.11,0,2.912
	c0.803,0.803,2.109,0.803,2.912,0l9.832-9.831c0.3-0.3,0.787-0.3,1.087,0s0.3,0.787,0,1.087l-9.832,9.831
	c-1.402,1.402-3.684,1.402-5.086,0c-1.402-1.402-1.402-3.684,0-5.086l15.304-15.303C139.04,78.828,140.338,78.334,141.637,78.334z"
	/>
<path opacity="0.1" fill="#FFFFFF" d="M141.637,115.667c1.298,0,2.597,0.494,3.585,1.483c1.977,1.977,1.977,5.194,0,7.171
	l-19.431,19.431c-1.235,1.235-2.878,1.916-4.625,1.916s-3.39-0.68-4.625-1.916c-2.55-2.55-2.55-6.7,0-9.25l13.959-13.959
	c0.3-0.3,0.787-0.3,1.087,0s0.3,0.787,0,1.087l-13.959,13.959c-1.951,1.951-1.951,5.126,0,7.077
	c0.945,0.945,2.202,1.466,3.538,1.466s2.593-0.52,3.538-1.466l19.431-19.431c0.667-0.667,1.035-1.555,1.035-2.499
	s-0.368-1.831-1.035-2.499c-1.378-1.378-3.619-1.378-4.997,0l-15.303,15.303c-0.803,0.803-0.803,2.11,0,2.912
	c0.803,0.803,2.109,0.803,2.912,0l9.832-9.831c0.3-0.3,0.787-0.3,1.087,0s0.3,0.787,0,1.087l-9.832,9.831
	c-1.402,1.402-3.684,1.402-5.086,0c-1.402-1.402-1.402-3.684,0-5.086l15.304-15.303C139.04,116.161,140.338,115.667,141.637,115.667
	z"/>
<path opacity="0.1" fill="#FFFFFF" d="M104.303,3.667c1.298,0,2.597,0.494,3.585,1.483c1.977,1.977,1.977,5.194,0,7.171
	L88.458,31.751c-1.235,1.235-2.878,1.916-4.625,1.916s-3.39-0.68-4.625-1.916c-2.55-2.55-2.55-6.7,0-9.25L93.167,8.542
	c0.3-0.3,0.787-0.3,1.087,0c0.3,0.3,0.3,0.787,0,1.087L80.294,23.588c-1.951,1.951-1.951,5.126,0,7.077
	c0.945,0.945,2.202,1.466,3.538,1.466s2.593-0.52,3.538-1.466l19.431-19.431c0.667-0.667,1.035-1.555,1.035-2.499
	s-0.368-1.831-1.035-2.499c-1.378-1.378-3.619-1.378-4.997,0L86.501,21.54c-0.803,0.803-0.803,2.11,0,2.912
	c0.803,0.803,2.109,0.803,2.912,0l9.832-9.831c0.3-0.3,0.787-0.3,1.087,0c0.3,0.3,0.3,0.787,0,1.087L90.5,25.539
	c-1.402,1.402-3.684,1.402-5.086,0c-1.402-1.402-1.402-3.684,0-5.086L100.718,5.15C101.706,4.161,103.005,3.667,104.303,3.667z"/>
<path opacity="0.1" fill="#FFFFFF" d="M104.303,41c1.298,0,2.597,0.494,3.585,1.483c1.977,1.977,1.977,5.194,0,7.171L88.458,69.085
	C87.222,70.32,85.58,71,83.833,71s-3.39-0.68-4.625-1.916c-2.55-2.55-2.55-6.7,0-9.25l13.959-13.959c0.3-0.3,0.787-0.3,1.087,0
	c0.3,0.3,0.3,0.787,0,1.087L80.294,60.921c-1.951,1.951-1.951,5.126,0,7.077c0.945,0.945,2.202,1.466,3.538,1.466
	s2.593-0.52,3.538-1.466l19.431-19.431c0.667-0.667,1.035-1.555,1.035-2.499c0-0.944-0.368-1.831-1.035-2.499
	c-1.378-1.378-3.619-1.378-4.997,0L86.501,58.873c-0.803,0.803-0.803,2.11,0,2.912c0.803,0.803,2.109,0.803,2.912,0l9.832-9.831
	c0.3-0.3,0.787-0.3,1.087,0c0.3,0.3,0.3,0.787,0,1.087L90.5,62.872c-1.402,1.402-3.684,1.402-5.086,0
	c-1.402-1.402-1.402-3.684,0-5.086l15.303-15.303C101.706,41.495,103.005,41,104.303,41z"/>
<path opacity="0.1" fill="#FFFFFF" d="M104.303,78.334c1.298,0,2.597,0.494,3.585,1.483c1.977,1.977,1.977,5.194,0,7.171
	l-19.431,19.431c-1.235,1.235-2.878,1.916-4.625,1.916s-3.39-0.68-4.625-1.916c-2.55-2.55-2.55-6.7,0-9.25l13.959-13.959
	c0.3-0.3,0.787-0.3,1.087,0s0.3,0.787,0,1.087L80.294,98.255c-1.951,1.951-1.951,5.126,0,7.077c0.945,0.945,2.202,1.466,3.538,1.466
	s2.593-0.52,3.538-1.466l19.431-19.431c0.667-0.667,1.035-1.555,1.035-2.499c0-0.944-0.368-1.831-1.035-2.499
	c-1.378-1.378-3.619-1.378-4.997,0L86.501,96.207c-0.803,0.803-0.803,2.11,0,2.912c0.803,0.803,2.109,0.803,2.912,0l9.832-9.831
	c0.3-0.3,0.787-0.3,1.087,0s0.3,0.787,0,1.087l-9.832,9.831c-1.402,1.402-3.684,1.402-5.086,0c-1.402-1.402-1.402-3.684,0-5.086
	l15.303-15.303C101.706,78.828,103.005,78.334,104.303,78.334z"/>
<path opacity="0.1" fill="#FFFFFF" d="M104.303,115.667c1.298,0,2.597,0.494,3.585,1.483c1.977,1.977,1.977,5.194,0,7.171
	l-19.431,19.431c-1.235,1.235-2.878,1.916-4.625,1.916s-3.39-0.68-4.625-1.916c-2.55-2.55-2.55-6.7,0-9.25l13.959-13.959
	c0.3-0.3,0.787-0.3,1.087,0s0.3,0.787,0,1.087l-13.959,13.959c-1.951,1.951-1.951,5.126,0,7.077
	c0.945,0.945,2.202,1.466,3.538,1.466s2.593-0.52,3.538-1.466l19.431-19.431c0.667-0.667,1.035-1.555,1.035-2.499
	s-0.368-1.831-1.035-2.499c-1.378-1.378-3.619-1.378-4.997,0L86.501,133.54c-0.803,0.803-0.803,2.11,0,2.912
	c0.803,0.803,2.109,0.803,2.912,0l9.832-9.831c0.3-0.3,0.787-0.3,1.087,0s0.3,0.787,0,1.087l-9.832,9.831
	c-1.402,1.402-3.684,1.402-5.086,0c-1.402-1.402-1.402-3.684,0-5.086l15.303-15.303
	C101.706,116.161,103.005,115.667,104.303,115.667z"/>
<path opacity="0.1" fill="#FFFFFF" d="M66.97,3.667c1.298,0,2.597,0.494,3.585,1.483c1.977,1.977,1.977,5.194,0,7.171L51.124,31.751
	c-1.235,1.235-2.878,1.916-4.625,1.916s-3.39-0.68-4.625-1.916c-2.55-2.55-2.55-6.7,0-9.25L55.833,8.542c0.3-0.3,0.787-0.3,1.087,0
	c0.3,0.3,0.3,0.787,0,1.087L42.961,23.588c-1.951,1.951-1.951,5.126,0,7.077c0.945,0.945,2.202,1.466,3.538,1.466
	s2.593-0.52,3.538-1.466l19.431-19.431c0.667-0.667,1.035-1.555,1.035-2.499s-0.368-1.831-1.035-2.499
	c-1.378-1.378-3.619-1.378-4.997,0L49.168,21.54c-0.803,0.803-0.803,2.11,0,2.912c0.803,0.803,2.109,0.803,2.912,0l9.832-9.831
	c0.3-0.3,0.787-0.3,1.087,0c0.3,0.3,0.3,0.787,0,1.087l-9.832,9.831c-1.402,1.402-3.684,1.402-5.086,0
	c-1.402-1.402-1.402-3.684,0-5.086L63.385,5.15C64.373,4.161,65.671,3.667,66.97,3.667z"/>
<path opacity="0.1" fill="#FFFFFF" d="M66.97,41c1.298,0,2.597,0.494,3.585,1.483c1.977,1.977,1.977,5.194,0,7.171L51.124,69.085
	C49.889,70.32,48.247,71,46.499,71s-3.39-0.68-4.625-1.916c-2.55-2.55-2.55-6.7,0-9.25l13.959-13.959c0.3-0.3,0.787-0.3,1.087,0
	c0.3,0.3,0.3,0.787,0,1.087L42.961,60.921c-1.951,1.951-1.951,5.126,0,7.077c0.945,0.945,2.202,1.466,3.538,1.466
	s2.593-0.52,3.538-1.466l19.431-19.431c0.667-0.667,1.035-1.555,1.035-2.499c0-0.944-0.368-1.831-1.035-2.499
	c-1.378-1.378-3.619-1.378-4.997,0L49.168,58.873c-0.803,0.803-0.803,2.11,0,2.912c0.803,0.803,2.109,0.803,2.912,0l9.832-9.831
	c0.3-0.3,0.787-0.3,1.087,0c0.3,0.3,0.3,0.787,0,1.087l-9.832,9.831c-1.402,1.402-3.684,1.402-5.086,0
	c-1.402-1.402-1.402-3.684,0-5.086l15.303-15.303C64.373,41.495,65.671,41,66.97,41z"/>
<path opacity="0.1" fill="#FFFFFF" d="M66.97,78.334c1.298,0,2.597,0.494,3.585,1.483c1.977,1.977,1.977,5.194,0,7.171
	l-19.431,19.431c-1.235,1.235-2.878,1.916-4.625,1.916s-3.39-0.68-4.625-1.916c-2.55-2.55-2.55-6.7,0-9.25l13.959-13.959
	c0.3-0.3,0.787-0.3,1.087,0s0.3,0.787,0,1.087L42.961,98.255c-1.951,1.951-1.951,5.126,0,7.077c0.945,0.945,2.202,1.466,3.538,1.466
	s2.593-0.52,3.538-1.466l19.431-19.431c0.667-0.667,1.035-1.555,1.035-2.499c0-0.944-0.368-1.831-1.035-2.499
	c-1.378-1.378-3.619-1.378-4.997,0L49.168,96.207c-0.803,0.803-0.803,2.11,0,2.912c0.803,0.803,2.109,0.803,2.912,0l9.832-9.831
	c0.3-0.3,0.787-0.3,1.087,0s0.3,0.787,0,1.087l-9.832,9.831c-1.402,1.402-3.684,1.402-5.086,0c-1.402-1.402-1.402-3.684,0-5.086
	l15.303-15.303C64.373,78.828,65.671,78.334,66.97,78.334z"/>
<path opacity="0.1" fill="#FFFFFF" d="M66.97,115.667c1.298,0,2.597,0.494,3.585,1.483c1.977,1.977,1.977,5.194,0,7.171
	l-19.431,19.431c-1.235,1.235-2.878,1.916-4.625,1.916s-3.39-0.68-4.625-1.916c-2.55-2.55-2.55-6.7,0-9.25l13.959-13.959
	c0.3-0.3,0.787-0.3,1.087,0s0.3,0.787,0,1.087l-13.959,13.959c-1.951,1.951-1.951,5.126,0,7.077
	c0.945,0.945,2.202,1.466,3.538,1.466s2.593-0.52,3.538-1.466l19.431-19.431c0.667-0.667,1.035-1.555,1.035-2.499
	s-0.368-1.831-1.035-2.499c-1.378-1.378-3.619-1.378-4.997,0L49.168,133.54c-0.803,0.803-0.803,2.11,0,2.912
	c0.803,0.803,2.109,0.803,2.912,0l9.832-9.831c0.3-0.3,0.787-0.3,1.087,0s0.3,0.787,0,1.087l-9.832,9.831
	c-1.402,1.402-3.684,1.402-5.086,0c-1.402-1.402-1.402-3.684,0-5.086l15.303-15.303C64.373,116.161,65.671,115.667,66.97,115.667z"
	/>
<path opacity="0.1" fill="#FFFFFF" d="M29.637,3.667c1.298,0,2.597,0.494,3.585,1.483c1.977,1.977,1.977,5.194,0,7.171
	L13.791,31.751c-1.235,1.235-2.878,1.916-4.625,1.916s-3.39-0.68-4.625-1.916c-2.55-2.55-2.55-6.7,0-9.25L18.5,8.542
	c0.3-0.3,0.787-0.3,1.087,0c0.3,0.3,0.3,0.787,0,1.087L5.628,23.588c-1.951,1.951-1.951,5.126,0,7.077
	c0.945,0.945,2.202,1.466,3.538,1.466s2.593-0.52,3.538-1.466l19.431-19.431c0.667-0.667,1.035-1.555,1.035-2.499
	s-0.368-1.831-1.035-2.499c-1.378-1.378-3.619-1.378-4.997,0L11.835,21.54c-0.803,0.803-0.803,2.11,0,2.912
	c0.803,0.803,2.109,0.803,2.912,0l9.832-9.831c0.3-0.3,0.787-0.3,1.087,0c0.3,0.3,0.3,0.787,0,1.087l-9.832,9.831
	c-1.402,1.402-3.684,1.402-5.086,0c-1.402-1.402-1.402-3.684,0-5.086L26.051,5.15C27.04,4.161,28.338,3.667,29.637,3.667z"/>
<path opacity="0.1" fill="#FFFFFF" d="M29.637,41c1.298,0,2.597,0.494,3.585,1.483c1.977,1.977,1.977,5.194,0,7.171L13.791,69.085
	C12.556,70.32,10.913,71,9.166,71s-3.39-0.68-4.625-1.916c-2.55-2.55-2.55-6.7,0-9.25L18.5,45.876c0.3-0.3,0.787-0.3,1.087,0
	c0.3,0.3,0.3,0.787,0,1.087L5.628,60.921c-1.951,1.951-1.951,5.126,0,7.077c0.945,0.945,2.202,1.466,3.538,1.466
	s2.593-0.52,3.538-1.466l19.431-19.431c0.667-0.667,1.035-1.555,1.035-2.499c0-0.944-0.368-1.831-1.035-2.499
	c-1.378-1.378-3.619-1.378-4.997,0L11.835,58.873c-0.803,0.803-0.803,2.11,0,2.912c0.803,0.803,2.109,0.803,2.912,0l9.832-9.831
	c0.3-0.3,0.787-0.3,1.087,0c0.3,0.3,0.3,0.787,0,1.087l-9.832,9.831c-1.402,1.402-3.684,1.402-5.086,0
	c-1.402-1.402-1.402-3.684,0-5.086l15.303-15.303C27.04,41.495,28.338,41,29.637,41z"/>
<path opacity="0.1" fill="#FFFFFF" d="M29.637,78.334c1.298,0,2.597,0.494,3.585,1.483c1.977,1.977,1.977,5.194,0,7.171
	l-19.431,19.431c-1.235,1.235-2.878,1.916-4.625,1.916s-3.39-0.68-4.625-1.916c-2.55-2.55-2.55-6.7,0-9.25L18.5,83.209
	c0.3-0.3,0.787-0.3,1.087,0c0.3,0.3,0.3,0.787,0,1.087L5.628,98.255c-1.951,1.951-1.951,5.126,0,7.077
	c0.945,0.945,2.202,1.466,3.538,1.466s2.593-0.52,3.538-1.466l19.431-19.431c0.667-0.667,1.035-1.555,1.035-2.499
	c0-0.944-0.368-1.831-1.035-2.499c-1.378-1.378-3.619-1.378-4.997,0L11.835,96.207c-0.803,0.803-0.803,2.11,0,2.912
	c0.803,0.803,2.109,0.803,2.912,0l9.832-9.831c0.3-0.3,0.787-0.3,1.087,0s0.3,0.787,0,1.087l-9.832,9.831
	c-1.402,1.402-3.684,1.402-5.086,0c-1.402-1.402-1.402-3.684,0-5.086l15.303-15.303C27.04,78.828,28.338,78.334,29.637,78.334z"/>
<path opacity="0.1" fill="#FFFFFF" d="M29.637,115.667c1.298,0,2.597,0.494,3.585,1.483c1.977,1.977,1.977,5.194,0,7.171
	l-19.431,19.431c-1.235,1.235-2.878,1.916-4.625,1.916s-3.39-0.68-4.625-1.916c-2.55-2.55-2.55-6.7,0-9.25L18.5,120.542
	c0.3-0.3,0.787-0.3,1.087,0c0.3,0.3,0.3,0.787,0,1.087L5.628,135.588c-1.951,1.951-1.951,5.126,0,7.077
	c0.945,0.945,2.202,1.466,3.538,1.466s2.593-0.52,3.538-1.466l19.431-19.431c0.667-0.667,1.035-1.555,1.035-2.499
	s-0.368-1.831-1.035-2.499c-1.378-1.378-3.619-1.378-4.997,0L11.835,133.54c-0.803,0.803-0.803,2.11,0,2.912
	c0.803,0.803,2.109,0.803,2.912,0l9.832-9.831c0.3-0.3,0.787-0.3,1.087,0s0.3,0.787,0,1.087l-9.832,9.831
	c-1.402,1.402-3.684,1.402-5.086,0c-1.402-1.402-1.402-3.684,0-5.086l15.303-15.303C27.04,116.161,28.338,115.667,29.637,115.667z"
	/>
</svg>
