<?xml version="1.0" encoding="utf-8"?>
<!-- Generator: Adobe Illustrator 17.0.0, SVG Export Plug-In . SVG Version: 6.00 Build 0)  -->
<!DOCTYPE svg PUBLIC "-//W3C//DTD SVG 1.1//EN" "http://www.w3.org/Graphics/SVG/1.1/DTD/svg11.dtd">
<svg version="1.1" id="Capa_1" xmlns="http://www.w3.org/2000/svg" xmlns:xlink="http://www.w3.org/1999/xlink" x="0px" y="0px"
	 width="352px" height="209.81px" viewBox="0 0 352 209.81" enable-background="new 0 0 352 209.81" xml:space="preserve">
<g>
	<path fill="#E2E5E5" d="M258.848,123.819c4.714,0,8.572,3.858,8.572,8.572v57.182c0,4.714-3.858,8.572-8.572,8.572H93.149
		c-4.714,0-8.572-3.858-8.572-8.572v-57.182c0-4.714,3.858-8.572,8.572-8.572C93.149,123.819,258.848,123.819,258.848,123.819z"/>
	<path fill="#D6D9D9" d="M84.578,189.573c0,4.714,3.858,8.572,8.572,8.572h165.699c4.714,0,8.572-3.858,8.572-8.572v-35.777H84.578
		V189.573z"/>
	<path fill="#324D5B" d="M108.861,116.797h134.273c4.714,0,8.572,3.858,8.572,8.572v11.426c0,4.714-3.858,8.572-8.572,8.572H108.861
		c-4.714,0-8.57-3.858-8.57-8.572v-11.426C100.292,120.653,104.147,116.797,108.861,116.797L108.861,116.797z"/>
	<path fill="#283E49" d="M114.576,126.795h122.845c2.428,0,4.286,1.858,4.286,4.286c0,2.428-1.858,4.286-4.286,4.286H114.576
		c-2.43,0-4.286-1.858-4.286-4.286C110.291,128.795,112.147,126.795,114.576,126.795L114.576,126.795z"/>
	<path fill="#64B09C" d="M106.719,168.188c3.572,0,6.428,2.856,6.428,6.426c0,3.572-2.856,6.428-6.428,6.428
		c-3.57,0-6.426-2.856-6.426-6.428C100.292,171.046,103.148,168.188,106.719,168.188L106.719,168.188z"/>
	<path fill="#D44539" d="M128.146,168.188c3.572,0,6.428,2.856,6.428,6.426c0,3.572-2.856,6.428-6.428,6.428
		c-3.57,0-6.426-2.856-6.426-6.428C121.719,171.046,124.575,168.188,128.146,168.188L128.146,168.188z"/>
	<path fill="#324D5B" d="M267.42,188.369c4.714,0,8.572,3.858,8.572,8.572v2.893c0,4.714-3.858,8.572-8.572,8.572H84.578
		c-4.714,0-8.57-3.858-8.57-8.572v-2.893c0-4.714,3.856-8.572,8.57-8.572H267.42z"/>
	<g>
		<g>
			<defs>
				<rect id="SVGID_1_" x="115.814" y="90.832" width="120.373" height="41.057"/>
			</defs>
			<clipPath id="SVGID_2_">
				<use xlink:href="#SVGID_1_"  overflow="visible"/>
			</clipPath>
			<g clip-path="url(#SVGID_2_)">
				<rect x="115.959" y="89.683" fill="#EEF1F8" width="120.107" height="65.032"/>
				<path fill="#C7CDDF" d="M194.639,115.925h-6.21c-1.141,0-2.073-0.944-2.073-2.1c0-1.159,0.932-2.1,2.073-2.1h6.21
					c1.141,0,2.071,0.942,2.071,2.1C196.711,114.981,195.781,115.925,194.639,115.925"/>
				<path fill="#C7CDDF" d="M163.576,107.523h-6.21c-1.141,0-2.073-0.931-2.073-2.087c0-1.169,0.932-2.1,2.073-2.1h6.21
					c1.141,0,2.071,0.931,2.071,2.1C165.647,106.593,164.718,107.523,163.576,107.523"/>
				<path fill="#C7CDDF" d="M194.639,107.523h-14.491c-1.144,0-2.073-0.931-2.073-2.087c0-1.169,0.929-2.1,2.073-2.1h14.491
					c1.141,0,2.071,0.931,2.071,2.1C196.711,106.593,195.781,107.523,194.639,107.523"/>
				<path fill="#D7DCEB" d="M171.857,107.523c-0.557,0-1.071-0.226-1.468-0.603c-0.373-0.398-0.595-0.942-0.595-1.484
					c0-0.553,0.222-1.096,0.595-1.498c0.769-0.779,2.154-0.779,2.943,0c0.375,0.401,0.598,0.944,0.598,1.498
					c0,0.543-0.223,1.085-0.598,1.484C172.939,107.298,172.393,107.523,171.857,107.523"/>
				<path fill="#C7CDDF" d="M180.149,115.925h-14.502c-1.141,0-2.071-0.944-2.071-2.1c0-1.159,0.929-2.1,2.071-2.1h14.502
					c1.141,0,2.063,0.942,2.063,2.1C182.212,114.981,181.29,115.925,180.149,115.925"/>
				<path fill="#D7DCEB" d="M157.367,115.925c-0.567,0-1.082-0.236-1.475-0.616c-0.375-0.398-0.598-0.942-0.598-1.485
					c0-0.574,0.223-1.096,0.598-1.498c0.769-0.768,2.154-0.768,2.94,0c0.375,0.401,0.608,0.923,0.608,1.498
					c0,0.543-0.233,1.085-0.608,1.485C158.438,115.689,157.902,115.925,157.367,115.925"/>
				<path fill="#C7CDDF" d="M225.881,115.925h-14.502c-1.141,0-2.071-0.944-2.071-2.1c0-1.159,0.929-2.1,2.071-2.1h14.502
					c1.141,0,2.063,0.942,2.063,2.1C227.944,114.981,227.022,115.925,225.881,115.925"/>
				<path fill="#D7DCEB" d="M203.098,115.925c-0.567,0-1.082-0.236-1.475-0.616c-0.375-0.398-0.598-0.942-0.598-1.485
					c0-0.574,0.223-1.096,0.598-1.498c0.769-0.768,2.154-0.768,2.94,0c0.375,0.401,0.608,0.923,0.608,1.498
					c0,0.543-0.233,1.085-0.608,1.485C204.17,115.689,203.634,115.925,203.098,115.925"/>
				<path fill="#C7CDDF" d="M225.881,107.539h-14.502c-1.141,0-2.071-0.944-2.071-2.1c0-1.159,0.929-2.1,2.071-2.1h14.502
					c1.141,0,2.063,0.942,2.063,2.1C227.944,106.596,227.022,107.539,225.881,107.539"/>
				<path fill="#D7DCEB" d="M203.098,107.539c-0.567,0-1.082-0.236-1.475-0.616c-0.375-0.398-0.598-0.942-0.598-1.485
					c0-0.574,0.223-1.096,0.598-1.498c0.769-0.768,2.154-0.768,2.94,0c0.375,0.401,0.608,0.923,0.608,1.498
					c0,0.543-0.233,1.085-0.608,1.485C204.17,107.304,203.634,107.539,203.098,107.539"/>
				<path fill="#65B16F" d="M134.583,139.461c-5.714,0-10.355-4.701-10.355-10.488c0-1.156,0.932-2.1,2.073-2.1
					c1.144,0,2.073,0.944,2.073,2.1c0,3.472,2.78,6.29,6.207,6.29c1.83,0,3.56-0.81,4.742-2.224
					c0.536-0.635,0.779-1.466,0.689-2.326c-0.09-0.92-0.567-1.773-1.284-2.344l-10.831-8.532c-1.608-1.272-2.658-3.175-2.871-5.224
					c-0.202-2.008,0.384-3.955,1.649-5.459c1.97-2.368,4.854-3.718,7.905-3.718c5.714,0,10.355,4.701,10.355,10.488
					c0,1.156-0.929,2.087-2.071,2.087c-1.144,0-2.073-0.931-2.073-2.087c0-3.474-2.78-6.301-6.21-6.301
					c-1.83,0-3.559,0.821-4.742,2.234c-0.536,0.635-0.779,1.453-0.686,2.315c0.09,0.92,0.554,1.78,1.284,2.354l10.828,8.532
					c1.608,1.269,2.661,3.165,2.873,5.212c0.202,2.008-0.385,3.955-1.649,5.47C140.519,138.108,137.638,139.461,134.583,139.461"/>
				<path fill="#65B16F" d="M134.583,143.19c-1.141,0-2.071-0.942-2.071-2.1v-37.754c0-1.159,0.929-2.1,2.071-2.1
					c1.144,0,2.073,0.942,2.073,2.1v37.754C136.657,142.249,135.728,143.19,134.583,143.19"/>
				<path fill="#7381BD" d="M163.879,127.252c-4.541,2.386-6.068,6.954-6.624,11.708c-0.859-0.729-1.709-1.456-2.568-2.182
					c-2.032-1.731-4.986,1.227-2.933,2.961c1.942,1.647,3.872,3.286,5.814,4.935c1.367,1.159,3.468,0.44,3.531-1.485
					c0.15-4.547,0.372-9.946,4.862-12.322C168.336,129.618,166.245,126.002,163.879,127.252"/>
				<path fill="#7381BD" d="M183.211,137.914c-1.071-1.956-3.397-2.919-5.56-2.305c-2.832,0.81-6.179,4.282-8.149,0.226
					c-1.183-2.425-4.763-0.296-3.58,2.121c1.061,2.182,3.104,3.768,5.532,4.046c1.253,0.145,2.304-0.021,3.487-0.472
					c0.849-0.317,3.983-2.796,4.704-1.505C180.938,142.39,184.516,140.271,183.211,137.914"/>
			</g>
		</g>
		<g>
			<defs>
				<rect id="SVGID_3_" x="115.814" y="90.832" width="120.373" height="41.057"/>
			</defs>
			<clipPath id="SVGID_4_">
				<use xlink:href="#SVGID_3_"  overflow="visible"/>
			</clipPath>
			<g clip-path="url(#SVGID_4_)">
				<path fill="#AFB7CF" d="M223.533,92.602c-0.567,0-1.082-0.236-1.475-0.615c-0.375-0.398-0.598-0.94-0.598-1.482
					c0-0.573,0.223-1.095,0.598-1.495c0.769-0.767,2.154-0.767,2.94,0c0.375,0.4,0.608,0.922,0.608,1.495
					c0,0.542-0.233,1.084-0.608,1.482C224.605,92.367,224.069,92.602,223.533,92.602"/>
				<path fill="#AFB7CF" d="M215.613,92.602c-0.567,0-1.082-0.236-1.475-0.615c-0.375-0.398-0.598-0.94-0.598-1.482
					c0-0.573,0.223-1.095,0.598-1.495c0.769-0.767,2.154-0.767,2.94,0c0.375,0.4,0.608,0.922,0.608,1.495
					c0,0.542-0.233,1.084-0.608,1.482C216.685,92.367,216.149,92.602,215.613,92.602"/>
				<path fill="#AFB7CF" d="M207.693,92.602c-0.567,0-1.082-0.236-1.475-0.615c-0.375-0.398-0.598-0.94-0.598-1.482
					c0-0.573,0.223-1.095,0.598-1.495c0.769-0.767,2.154-0.767,2.94,0c0.375,0.4,0.608,0.922,0.608,1.495
					c0,0.542-0.233,1.084-0.608,1.482C208.765,92.367,208.229,92.602,207.693,92.602"/>
				<path fill="#AFB7CF" d="M199.773,92.602c-0.567,0-1.082-0.236-1.475-0.615c-0.375-0.398-0.598-0.94-0.598-1.482
					c0-0.573,0.223-1.095,0.598-1.495c0.769-0.767,2.154-0.767,2.94,0c0.375,0.4,0.608,0.922,0.608,1.495
					c0,0.542-0.233,1.084-0.608,1.482C200.844,92.367,200.309,92.602,199.773,92.602"/>
				<path fill="#AFB7CF" d="M191.853,92.602c-0.567,0-1.082-0.236-1.475-0.615c-0.375-0.398-0.598-0.94-0.598-1.482
					c0-0.573,0.223-1.095,0.598-1.495c0.769-0.767,2.154-0.767,2.94,0c0.375,0.4,0.608,0.922,0.608,1.495
					c0,0.542-0.233,1.084-0.608,1.482C192.924,92.367,192.388,92.602,191.853,92.602"/>
				<path fill="#AFB7CF" d="M183.932,92.602c-0.567,0-1.082-0.236-1.475-0.615c-0.375-0.398-0.598-0.94-0.598-1.482
					c0-0.573,0.223-1.095,0.598-1.495c0.769-0.767,2.154-0.767,2.94,0c0.375,0.4,0.608,0.922,0.608,1.495
					c0,0.542-0.233,1.084-0.608,1.482C185.004,92.367,184.468,92.602,183.932,92.602"/>
				<path fill="#AFB7CF" d="M176.012,92.602c-0.567,0-1.082-0.236-1.475-0.615c-0.375-0.398-0.598-0.94-0.598-1.482
					c0-0.573,0.223-1.095,0.598-1.495c0.769-0.767,2.154-0.767,2.94,0c0.375,0.4,0.608,0.922,0.608,1.495
					c0,0.542-0.233,1.084-0.608,1.482C177.083,92.367,176.548,92.602,176.012,92.602"/>
				<path fill="#AFB7CF" d="M168.092,92.602c-0.567,0-1.082-0.236-1.475-0.615c-0.375-0.398-0.598-0.94-0.598-1.482
					c0-0.573,0.223-1.095,0.598-1.495c0.769-0.767,2.154-0.767,2.94,0c0.375,0.4,0.608,0.922,0.608,1.495
					c0,0.542-0.233,1.084-0.608,1.482C169.163,92.367,168.627,92.602,168.092,92.602"/>
				<path fill="#AFB7CF" d="M160.171,92.602c-0.567,0-1.082-0.236-1.475-0.615c-0.375-0.398-0.598-0.94-0.598-1.482
					c0-0.573,0.223-1.095,0.598-1.495c0.769-0.767,2.154-0.767,2.94,0c0.375,0.4,0.608,0.922,0.608,1.495
					c0,0.542-0.233,1.084-0.608,1.482C161.244,92.367,160.707,92.602,160.171,92.602"/>
				<path fill="#AFB7CF" d="M152.251,92.602c-0.567,0-1.082-0.236-1.475-0.615c-0.375-0.398-0.598-0.94-0.598-1.482
					c0-0.573,0.223-1.095,0.598-1.495c0.769-0.767,2.154-0.767,2.94,0c0.375,0.4,0.608,0.922,0.608,1.495
					c0,0.542-0.233,1.084-0.608,1.482C153.323,92.367,152.787,92.602,152.251,92.602"/>
				<path fill="#AFB7CF" d="M144.331,92.602c-0.567,0-1.082-0.236-1.475-0.615c-0.375-0.398-0.598-0.94-0.598-1.482
					c0-0.573,0.223-1.095,0.598-1.495c0.769-0.767,2.154-0.767,2.94,0c0.375,0.4,0.608,0.922,0.608,1.495
					c0,0.542-0.233,1.084-0.608,1.482C145.403,92.367,144.866,92.602,144.331,92.602"/>
				<path fill="#AFB7CF" d="M136.41,92.602c-0.567,0-1.082-0.236-1.475-0.615c-0.375-0.398-0.598-0.94-0.598-1.482
					c0-0.573,0.223-1.095,0.598-1.495c0.769-0.767,2.154-0.767,2.94,0c0.375,0.4,0.608,0.922,0.608,1.495
					c0,0.542-0.233,1.084-0.608,1.482C137.483,92.367,136.946,92.602,136.41,92.602"/>
				<path fill="#AFB7CF" d="M128.49,92.602c-0.567,0-1.082-0.236-1.475-0.615c-0.375-0.398-0.598-0.94-0.598-1.482
					c0-0.573,0.223-1.095,0.598-1.495c0.769-0.767,2.154-0.767,2.94,0c0.375,0.4,0.608,0.922,0.608,1.495
					c0,0.542-0.233,1.084-0.608,1.482C129.562,92.367,129.027,92.602,128.49,92.602"/>
			</g>
		</g>
	</g>
	<g>
		<g>
			<defs>
				
					<rect id="SVGID_5_" x="119.811" y="21.348" transform="matrix(0.9945 0.1047 -0.1047 0.9945 6.5768 -18.5158)" width="119.673" height="64.073"/>
			</defs>
			<clipPath id="SVGID_6_">
				<use xlink:href="#SVGID_5_"  overflow="visible"/>
			</clipPath>
			<g clip-path="url(#SVGID_6_)">
				
					<rect x="119.811" y="21.348" transform="matrix(0.9945 0.1047 -0.1047 0.9945 6.5768 -18.5158)" fill="#EEF1F8" width="119.673" height="64.073"/>
				<path fill="#C7CDDF" d="M198.755,49.175l-6.154-0.649c-1.131-0.119-1.958-1.141-1.838-2.274c0.119-1.136,1.14-1.96,2.271-1.842
					l6.154,0.649c1.131,0.119,1.955,1.138,1.835,2.274C200.905,48.465,199.887,49.293,198.755,49.175"/>
				<path fill="#C7CDDF" d="M168.841,37.7l-6.154-0.649c-1.131-0.119-1.959-1.128-1.839-2.262c0.12-1.146,1.14-1.96,2.271-1.842
					l6.154,0.649c1.131,0.119,1.956,1.128,1.835,2.274C170.989,37.004,169.972,37.819,168.841,37.7"/>
				<path fill="#C7CDDF" d="M199.622,40.943l-14.36-1.513c-1.134-0.119-1.959-1.128-1.839-2.262c0.12-1.146,1.137-1.961,2.271-1.842
					l14.36,1.513c1.131,0.119,1.956,1.128,1.835,2.274C201.77,40.246,200.754,41.061,199.622,40.943"/>
				<path fill="#D7DCEB" d="M177.047,38.565c-0.551-0.058-1.039-0.333-1.392-0.744c-0.328-0.429-0.493-0.984-0.437-1.516
					c0.057-0.542,0.334-1.051,0.745-1.405c0.842-0.683,2.214-0.538,2.916,0.307c0.33,0.432,0.495,0.987,0.438,1.529
					c-0.056,0.532-0.333,1.04-0.746,1.392C178.142,38.457,177.578,38.621,177.047,38.565"/>
				<path fill="#C7CDDF" d="M184.396,47.662l-14.37-1.514c-1.131-0.119-1.955-1.141-1.835-2.274
					c0.119-1.136,1.137-1.961,2.268-1.842l14.37,1.514c1.131,0.119,1.947,1.137,1.828,2.273
					C186.538,46.952,185.527,47.781,184.396,47.662"/>
				<path fill="#D7DCEB" d="M161.82,45.284c-0.562-0.059-1.048-0.344-1.399-0.758c-0.331-0.43-0.495-0.984-0.439-1.516
					c0.06-0.563,0.334-1.051,0.747-1.404c0.841-0.673,2.213-0.528,2.914,0.307c0.33,0.432,0.508,0.968,0.448,1.53
					c-0.056,0.532-0.342,1.039-0.756,1.39C162.906,45.165,162.351,45.34,161.82,45.284"/>
				<path fill="#C7CDDF" d="M229.712,52.435l-14.37-1.514c-1.131-0.119-1.955-1.141-1.835-2.274
					c0.119-1.136,1.137-1.961,2.268-1.842l14.37,1.514c1.131,0.119,1.947,1.137,1.828,2.273
					C231.855,51.726,230.844,52.554,229.712,52.435"/>
				<path fill="#D7DCEB" d="M207.137,50.057c-0.562-0.059-1.048-0.344-1.399-0.758c-0.331-0.43-0.495-0.984-0.439-1.516
					c0.06-0.563,0.334-1.051,0.747-1.404c0.841-0.673,2.213-0.528,2.914,0.307c0.33,0.432,0.508,0.968,0.448,1.53
					c-0.056,0.532-0.342,1.039-0.756,1.39C208.223,49.938,207.668,50.113,207.137,50.057"/>
				<path fill="#C7CDDF" d="M230.578,44.219l-14.37-1.514c-1.131-0.119-1.955-1.141-1.835-2.274
					c0.119-1.136,1.137-1.961,2.268-1.842l14.37,1.514c1.131,0.119,1.947,1.137,1.828,2.273
					C232.72,43.509,231.709,44.338,230.578,44.219"/>
				<path fill="#D7DCEB" d="M208.002,41.841c-0.562-0.059-1.048-0.344-1.399-0.758c-0.331-0.43-0.495-0.984-0.439-1.516
					c0.06-0.563,0.334-1.051,0.747-1.404c0.841-0.673,2.213-0.528,2.914,0.307c0.33,0.432,0.508,0.968,0.448,1.53
					c-0.056,0.532-0.342,1.039-0.756,1.39C209.088,41.722,208.533,41.897,208.002,41.841"/>
				<path fill="#65B16F" d="M136.815,65.969c-5.661-0.596-9.775-5.687-9.178-11.358c0.119-1.133,1.14-1.96,2.271-1.841
					c1.134,0.119,1.957,1.141,1.838,2.274c-0.358,3.402,2.106,6.454,5.502,6.812c1.814,0.191,3.611-0.423,4.929-1.683
					c0.596-0.565,0.924-1.355,0.922-2.207c0.005-0.912-0.379-1.796-1.03-2.431l-9.851-9.493c-1.461-1.414-2.307-3.389-2.306-5.418
					c0.007-1.989,0.788-3.834,2.198-5.177c2.197-2.114,5.194-3.137,8.217-2.818c5.661,0.596,9.775,5.687,9.178,11.358
					c-0.119,1.133-1.137,1.948-2.267,1.829c-1.134-0.119-1.959-1.128-1.839-2.262c0.358-3.404-2.105-6.464-5.504-6.822
					c-1.814-0.191-3.612,0.433-4.93,1.694c-0.596,0.565-0.922,1.342-0.918,2.197c-0.006,0.912,0.365,1.803,1.029,2.441l9.849,9.491
					c1.462,1.411,2.31,3.379,2.309,5.407c-0.007,1.989-0.79,3.834-2.198,5.187C142.837,65.262,139.843,66.287,136.815,65.969"/>
				<path fill="#65B16F" d="M136.431,69.622c-1.131-0.119-1.955-1.138-1.835-2.274l3.896-36.993
					c0.119-1.136,1.137-1.961,2.268-1.842c1.134,0.119,1.958,1.138,1.838,2.274l-3.896,36.993
					C138.583,68.916,137.565,69.741,136.431,69.622"/>
				<path fill="#7381BD" d="M167.106,57.063c-4.746,1.864-6.731,6.18-7.772,10.78c-0.776-0.804-1.542-1.604-2.32-2.406
					c-1.835-1.908-5.067,0.682-3.212,2.595c1.754,1.816,3.498,3.623,5.252,5.442c1.235,1.278,3.392,0.793,3.652-1.086
					c0.618-4.44,1.396-9.706,6.089-11.566C171.278,59.846,169.579,56.084,167.106,57.063"/>
				<path fill="#7381BD" d="M185.161,69.528c-0.86-2.029-3.064-3.214-5.272-2.839c-2.89,0.498-6.565,3.551-8.099-0.63
					c-0.922-2.5-4.689-0.788-3.766,1.705c0.827,2.249,2.686,4.016,5.064,4.542c1.227,0.272,2.285,0.22,3.504-0.099
					c0.874-0.222,4.236-2.323,4.816-0.984C182.447,73.676,186.21,71.973,185.161,69.528"/>
			</g>
		</g>
		<g>
			<defs>
				
					<rect id="SVGID_7_" x="119.811" y="21.348" transform="matrix(0.9945 0.1047 -0.1047 0.9945 6.5768 -18.5158)" width="119.673" height="64.073"/>
			</defs>
			<clipPath id="SVGID_8_">
				<use xlink:href="#SVGID_7_"  overflow="visible"/>
			</clipPath>
			<g clip-path="url(#SVGID_8_)">
				<path fill="#AFB7CF" d="M223.375,92.311c-0.564-0.06-1.052-0.347-1.403-0.766c-0.332-0.435-0.496-0.998-0.439-1.536
					c0.06-0.57,0.336-1.066,0.751-1.424c0.844-0.683,2.222-0.537,2.924,0.307c0.331,0.438,0.509,0.98,0.449,1.551
					c-0.057,0.539-0.345,1.053-0.76,1.41C224.466,92.189,223.908,92.367,223.375,92.311"/>
				<path fill="#AFB7CF" d="M215.499,91.483c-0.564-0.06-1.052-0.347-1.403-0.766c-0.332-0.435-0.496-0.998-0.439-1.536
					c0.06-0.57,0.336-1.066,0.751-1.424c0.844-0.683,2.222-0.537,2.924,0.307c0.331,0.438,0.509,0.98,0.449,1.551
					c-0.057,0.539-0.345,1.053-0.76,1.41C216.589,91.36,216.032,91.539,215.499,91.483"/>
				<path fill="#AFB7CF" d="M207.622,90.655c-0.564-0.06-1.052-0.347-1.403-0.766c-0.332-0.435-0.496-0.998-0.439-1.536
					c0.06-0.57,0.336-1.066,0.751-1.424c0.844-0.683,2.222-0.537,2.924,0.307c0.331,0.438,0.509,0.98,0.449,1.551
					c-0.057,0.539-0.345,1.053-0.76,1.41C208.712,90.532,208.154,90.711,207.622,90.655"/>
				<path fill="#AFB7CF" d="M199.745,89.827c-0.564-0.059-1.052-0.347-1.403-0.766c-0.332-0.435-0.496-0.998-0.439-1.536
					c0.06-0.57,0.336-1.066,0.751-1.424c0.844-0.683,2.222-0.537,2.924,0.307c0.331,0.438,0.509,0.98,0.449,1.551
					c-0.057,0.539-0.345,1.053-0.76,1.41C200.836,89.705,200.278,89.883,199.745,89.827"/>
				<path fill="#AFB7CF" d="M191.869,88.999c-0.564-0.059-1.052-0.347-1.403-0.766c-0.332-0.435-0.496-0.998-0.439-1.536
					c0.06-0.57,0.336-1.066,0.751-1.424c0.844-0.683,2.222-0.537,2.924,0.307c0.331,0.438,0.509,0.98,0.449,1.551
					c-0.057,0.539-0.345,1.053-0.76,1.41C192.959,88.877,192.401,89.055,191.869,88.999"/>
				<path fill="#AFB7CF" d="M183.991,88.171c-0.564-0.06-1.052-0.347-1.403-0.766c-0.332-0.435-0.496-0.998-0.439-1.536
					c0.06-0.57,0.336-1.066,0.751-1.424c0.844-0.683,2.222-0.537,2.924,0.307c0.331,0.438,0.509,0.98,0.449,1.551
					c-0.057,0.539-0.345,1.053-0.76,1.41C185.082,88.049,184.524,88.227,183.991,88.171"/>
				<path fill="#AFB7CF" d="M176.115,87.343c-0.564-0.06-1.052-0.347-1.403-0.766c-0.332-0.435-0.496-0.998-0.439-1.536
					c0.06-0.57,0.336-1.066,0.751-1.424c0.844-0.683,2.222-0.537,2.924,0.307c0.331,0.438,0.509,0.98,0.449,1.551
					c-0.057,0.539-0.345,1.053-0.76,1.41C177.205,87.221,176.648,87.399,176.115,87.343"/>
				<path fill="#AFB7CF" d="M168.237,86.515c-0.564-0.06-1.052-0.347-1.403-0.766c-0.332-0.435-0.496-0.998-0.439-1.536
					c0.06-0.57,0.336-1.066,0.751-1.424c0.844-0.683,2.222-0.537,2.924,0.307c0.331,0.438,0.509,0.98,0.449,1.551
					c-0.057,0.539-0.345,1.053-0.76,1.41C169.328,86.393,168.77,86.571,168.237,86.515"/>
				<path fill="#AFB7CF" d="M160.361,85.688c-0.564-0.059-1.052-0.347-1.403-0.766c-0.332-0.435-0.496-0.998-0.439-1.536
					c0.06-0.57,0.336-1.066,0.751-1.424c0.844-0.683,2.222-0.537,2.924,0.307c0.331,0.438,0.509,0.98,0.449,1.551
					c-0.057,0.539-0.345,1.053-0.76,1.41C161.452,85.565,160.894,85.744,160.361,85.688"/>
				<path fill="#AFB7CF" d="M152.484,84.86c-0.564-0.059-1.052-0.347-1.403-0.766c-0.332-0.435-0.496-0.998-0.439-1.536
					c0.06-0.57,0.336-1.066,0.751-1.424c0.844-0.683,2.222-0.537,2.924,0.307c0.331,0.438,0.509,0.98,0.449,1.551
					c-0.057,0.539-0.345,1.053-0.76,1.41C153.574,84.738,153.017,84.916,152.484,84.86"/>
				<path fill="#AFB7CF" d="M144.607,84.031c-0.564-0.06-1.052-0.347-1.403-0.766c-0.332-0.435-0.496-0.998-0.439-1.536
					c0.06-0.57,0.336-1.066,0.751-1.424c0.844-0.683,2.222-0.537,2.924,0.307c0.331,0.438,0.509,0.98,0.449,1.551
					c-0.057,0.539-0.345,1.053-0.76,1.41C145.698,83.909,145.14,84.087,144.607,84.031"/>
				<path fill="#AFB7CF" d="M136.731,83.204c-0.564-0.06-1.052-0.347-1.403-0.766c-0.332-0.435-0.496-0.998-0.439-1.536
					c0.06-0.57,0.336-1.066,0.751-1.424c0.844-0.683,2.222-0.537,2.924,0.307c0.331,0.438,0.509,0.98,0.449,1.551
					c-0.057,0.539-0.345,1.053-0.76,1.41C137.82,83.081,137.263,83.26,136.731,83.204"/>
				<path fill="#AFB7CF" d="M128.853,82.376c-0.564-0.06-1.052-0.347-1.403-0.766c-0.332-0.435-0.496-0.998-0.44-1.536
					c0.06-0.57,0.336-1.066,0.751-1.424c0.844-0.683,2.222-0.537,2.924,0.307c0.331,0.438,0.509,0.98,0.449,1.551
					c-0.057,0.539-0.345,1.053-0.76,1.41C129.944,82.254,129.386,82.432,128.853,82.376"/>
			</g>
		</g>
	</g>
</g>
</svg>
