<?xml version="1.0" encoding="utf-8"?>
<!-- Generator: Adobe Illustrator 17.0.0, SVG Export Plug-In . SVG Version: 6.00 Build 0)  -->
<!DOCTYPE svg PUBLIC "-//W3C//DTD SVG 1.1//EN" "http://www.w3.org/Graphics/SVG/1.1/DTD/svg11.dtd">
<svg version="1.1" id="Capa_1" xmlns="http://www.w3.org/2000/svg" xmlns:xlink="http://www.w3.org/1999/xlink" x="0px" y="0px"
	 width="168px" height="42px" viewBox="0 0 168 42" enable-background="new 0 0 168 42" xml:space="preserve">
<g id="Capa_2">
</g>
<g id="Capa_1_1_">
	<g>
		<g>
			<g>
				<path fill="#FFFFFF" d="M50.855,28.365l6.393-14.76h1.541l6.478,14.76h-2.184l-1.899-4.347h-6.288l-1.877,4.347H50.855z
					 M55.719,22.119h4.6l-2.331-5.317L55.719,22.119z"/>
				<path fill="#FFFFFF" d="M72.4,27.173c-0.486,0.464-0.97,0.804-1.451,1.018c-0.481,0.215-1.001,0.322-1.557,0.322
					c-1.061,0-1.899-0.306-2.511-0.918s-0.918-1.449-0.918-2.511v-6.468h1.963v5.971c0,0.788,0.167,1.37,0.5,1.746
					c0.335,0.377,0.854,0.565,1.557,0.565c0.5,0,0.937-0.096,1.314-0.29c0.376-0.194,0.742-0.515,1.102-0.965v-7.027h1.941v9.749
					H72.4V27.173z"/>
				<path fill="#FFFFFF" d="M82.19,28.059c-0.303,0.169-0.628,0.294-0.975,0.374c-0.349,0.08-0.723,0.121-1.125,0.121
					c-1.096,0-1.869-0.26-2.315-0.781c-0.448-0.52-0.671-1.47-0.671-2.849v-4.621h-1.655v-0.19l3.408-3.766h0.221v2.268h3.048v1.688
					h-3.048v4.474c0,0.809,0.099,1.331,0.3,1.567c0.201,0.236,0.575,0.353,1.125,0.353c0.295,0,0.583-0.038,0.865-0.116
					c0.28-0.077,0.554-0.197,0.822-0.359V28.059z"/>
				<path fill="#FFFFFF" d="M83.128,23.48c0-1.414,0.503-2.613,1.509-3.598c1.007-0.985,2.234-1.477,3.683-1.477
					c0.682,0,1.334,0.128,1.956,0.386c0.623,0.257,1.181,0.624,1.673,1.102c0.499,0.506,0.878,1.062,1.139,1.666
					c0.26,0.605,0.39,1.245,0.39,1.921c0,0.668-0.134,1.318-0.401,1.952c-0.268,0.633-0.644,1.185-1.128,1.656
					c-0.492,0.486-1.047,0.852-1.662,1.098c-0.617,0.246-1.271,0.369-1.968,0.369c-1.45,0-2.677-0.492-3.683-1.477
					C83.632,26.093,83.128,24.894,83.128,23.48z M85.166,23.48c0,0.907,0.306,1.681,0.918,2.321c0.612,0.64,1.349,0.96,2.215,0.96
					c0.859,0,1.595-0.322,2.211-0.965c0.615-0.644,0.922-1.416,0.922-2.316c0-0.893-0.306-1.66-0.918-2.3s-1.351-0.961-2.216-0.961
					c-0.865,0-1.603,0.32-2.215,0.961C85.472,21.82,85.166,22.587,85.166,23.48z"/>
				<path fill="#FFFFFF" d="M113.682,21.127v6.246c-0.97,0.422-1.89,0.737-2.758,0.944c-0.87,0.208-1.697,0.311-2.485,0.311
					c-0.886,0-1.719-0.109-2.5-0.327s-1.499-0.542-2.152-0.971c-1.098-0.718-1.95-1.634-2.559-2.748
					c-0.609-1.114-0.913-2.333-0.913-3.656c0-0.992,0.201-1.954,0.602-2.886c0.4-0.932,0.97-1.746,1.708-2.442
					c0.781-0.752,1.66-1.311,2.638-1.678c0.977-0.366,2.071-0.548,3.28-0.548c0.824,0,1.647,0.098,2.474,0.296
					c0.827,0.197,1.673,0.492,2.538,0.886v2.289c-0.935-0.507-1.815-0.881-2.638-1.123c-0.822-0.243-1.62-0.364-2.395-0.364
					c-1.724,0-3.148,0.536-4.273,1.608c-1.125,1.073-1.687,2.418-1.687,4.036c0,1.597,0.554,2.931,1.666,4.004
					c1.11,1.072,2.508,1.608,4.189,1.608c0.507,0,1.013-0.054,1.518-0.163c0.507-0.109,1.031-0.276,1.572-0.501V23.09h-2.774v-1.963
					H113.682z"/>
				<path fill="#FFFFFF" d="M124.623,27.331c-0.647,0.415-1.313,0.726-1.998,0.934c-0.687,0.208-1.396,0.311-2.127,0.311
					c-1.541,0-2.769-0.476-3.687-1.43c-0.918-0.953-1.378-2.224-1.378-3.814c0-1.455,0.441-2.638,1.326-3.545
					c0.883-0.907,2.035-1.361,3.454-1.361c1.407,0,2.522,0.46,3.346,1.382c0.822,0.922,1.233,2.166,1.233,3.734v0.285h-7.3
					c0.056,0.922,0.358,1.64,0.907,2.157c0.55,0.517,1.284,0.776,2.205,0.776c0.62,0,1.265-0.115,1.937-0.343
					c0.671-0.228,1.365-0.574,2.082-1.039V27.331z M117.492,22.446h5.159c-0.064-0.711-0.32-1.28-0.77-1.709
					c-0.451-0.429-1.013-0.644-1.689-0.644c-0.746,0-1.346,0.199-1.803,0.597C117.931,21.087,117.632,21.673,117.492,22.446z"/>
				<path fill="#FFFFFF" d="M125.974,27.701v-2.079c0.585,0.387,1.147,0.683,1.689,0.887s1.037,0.306,1.488,0.306
					c0.499,0,0.891-0.093,1.176-0.28s0.427-0.441,0.427-0.765c0-0.408-0.531-0.875-1.593-1.404
					c-0.309-0.155-0.548-0.277-0.717-0.369c-0.907-0.464-1.529-0.913-1.867-1.345c-0.338-0.433-0.507-0.961-0.507-1.588
					c0-0.816,0.292-1.463,0.876-1.941c0.583-0.478,1.384-0.718,2.406-0.718c0.548,0,1.075,0.065,1.582,0.195
					c0.507,0.131,1.002,0.332,1.488,0.607v1.899c-0.599-0.331-1.146-0.575-1.641-0.734c-0.495-0.158-0.965-0.237-1.408-0.237
					c-0.408,0-0.723,0.071-0.945,0.211c-0.221,0.141-0.331,0.345-0.331,0.612c0,0.493,0.679,1.073,2.036,1.741l0.178,0.084
					c1.063,0.535,1.756,1.004,2.079,1.408c0.323,0.405,0.484,0.916,0.484,1.535c0,0.858-0.322,1.544-0.965,2.058
					c-0.642,0.513-1.496,0.77-2.557,0.77c-0.613,0-1.195-0.07-1.746-0.21C127.052,28.203,126.509,27.989,125.974,27.701z"/>
				<path fill="#FFFFFF" d="M140.112,28.059c-0.303,0.169-0.628,0.294-0.975,0.374c-0.349,0.08-0.723,0.121-1.125,0.121
					c-1.096,0-1.869-0.26-2.315-0.781c-0.448-0.52-0.671-1.47-0.671-2.849v-4.621h-1.655v-0.19l3.408-3.766H137v2.268h3.048v1.688
					H137v4.474c0,0.809,0.099,1.331,0.3,1.567s0.575,0.353,1.125,0.353c0.295,0,0.583-0.038,0.865-0.116
					c0.28-0.077,0.554-0.197,0.822-0.359L140.112,28.059L140.112,28.059z"/>
				<path fill="#FFFFFF" d="M141.621,15.747c0-0.31,0.105-0.57,0.317-0.781c0.21-0.211,0.47-0.317,0.781-0.317
					c0.309,0,0.569,0.106,0.781,0.317c0.21,0.21,0.315,0.471,0.315,0.781c0,0.309-0.105,0.57-0.315,0.781
					c-0.212,0.211-0.472,0.316-0.781,0.316c-0.311,0-0.57-0.105-0.781-0.316C141.726,16.317,141.621,16.056,141.621,15.747z
					 M141.748,28.365v-9.749h1.941v9.749H141.748z"/>
				<path fill="#FFFFFF" d="M145.607,23.48c0-1.414,0.503-2.613,1.509-3.598c1.007-0.985,2.234-1.477,3.683-1.477
					c0.682,0,1.334,0.128,1.956,0.386c0.623,0.257,1.181,0.624,1.673,1.102c0.499,0.506,0.878,1.062,1.139,1.666
					c0.26,0.605,0.39,1.245,0.39,1.921c0,0.668-0.134,1.318-0.401,1.952c-0.268,0.633-0.644,1.185-1.128,1.656
					c-0.492,0.486-1.047,0.852-1.662,1.098c-0.617,0.246-1.271,0.369-1.968,0.369c-1.45,0-2.677-0.492-3.683-1.477
					C146.11,26.093,145.607,24.894,145.607,23.48z M147.644,23.48c0,0.907,0.306,1.681,0.918,2.321
					c0.612,0.64,1.349,0.96,2.215,0.96c0.859,0,1.595-0.322,2.211-0.965c0.615-0.644,0.922-1.416,0.922-2.316
					c0-0.893-0.306-1.66-0.918-2.3s-1.351-0.961-2.216-0.961s-1.603,0.32-2.215,0.961C147.95,21.82,147.644,22.587,147.644,23.48z
					 M149.352,17.234l2.205-3.672h1.878l-2.965,3.672H149.352z"/>
				<path fill="#FFFFFF" d="M157.804,28.365v-9.749h1.941v1.193c0.486-0.464,0.969-0.804,1.451-1.018
					c0.481-0.215,1.001-0.322,1.557-0.322c1.055,0,1.886,0.306,2.495,0.918c0.609,0.612,0.913,1.452,0.913,2.521v6.457h-1.942
					v-5.961c0-0.788-0.167-1.37-0.5-1.746c-0.335-0.376-0.854-0.565-1.557-0.565c-0.5,0-0.938,0.097-1.314,0.291
					c-0.376,0.194-0.744,0.511-1.102,0.954v7.027H157.804z"/>
			</g>
		</g>
		<g>
			<g>
				<path opacity="0.2" fill="#E58F22" enable-background="new    " d="M35.992,31.978c0,2.438-1.976,4.415-4.415,4.415H9.621
					c-2.438,0-4.415-1.976-4.415-4.415V10.022c0-2.438,1.976-4.415,4.415-4.415h21.957c2.438,0,4.415,1.976,4.415,4.415
					L35.992,31.978L35.992,31.978z"/>
				<path opacity="0.4" fill="#DC4410" enable-background="new    " d="M36.632,10.98c2.253,0.933,3.322,3.515,2.389,5.768
					l-8.402,20.285c-0.933,2.253-3.515,3.322-5.768,2.389L4.566,31.02c-2.253-0.933-3.322-3.515-2.389-5.768l8.402-20.285
					c0.933-2.253,3.515-3.322,5.768-2.389L36.632,10.98z"/>
				<path opacity="0.8" fill="#FFFFFF" enable-background="new    " d="M39.022,25.252c0.933,2.253-0.137,4.835-2.389,5.768
					l-20.285,8.402c-2.253,0.933-4.835-0.137-5.768-2.389L2.177,16.748c-0.933-2.253,0.137-4.835,2.389-5.768l20.285-8.402
					c2.253-0.933,4.835,0.137,5.768,2.389L39.022,25.252z"/>
			</g>
			<g>
				<g>
					<path fill="#E58F22" d="M13.527,12.003h5.716l6.729,17.773h-5.066l-1.263-3.765h-6.842l-1.326,3.765h-4.69L13.527,12.003z
						 M16.291,15.968l-2.301,6.666h4.528L16.291,15.968z"/>
				</g>
				<g>
					<path fill="#DC4410" d="M34.079,14.168l-0.367,3.284c-0.646-0.364-1.321-0.636-2.026-0.818
						c-0.705-0.182-1.429-0.273-2.171-0.273c-1.729,0-3.093,0.479-4.091,1.436s-1.497,2.264-1.497,3.918
						c0,1.596,0.445,2.865,1.336,3.807c0.891,0.943,2.089,1.414,3.595,1.414c0.319,0,0.612-0.015,0.879-0.045
						s0.519-0.074,0.757-0.134v-3.306h-2.438v-2.983h6.356v8.816c-0.831,0.238-1.696,0.416-2.594,0.534
						c-0.898,0.119-1.818,0.178-2.761,0.178c-3.08,0-5.419-0.694-7.018-2.082c-1.599-1.388-2.399-3.414-2.399-6.078
						s0.811-4.736,2.432-6.217c1.621-1.48,3.898-2.221,6.829-2.221c0.876,0,1.746,0.065,2.61,0.195
						C32.377,13.724,33.233,13.915,34.079,14.168z"/>
				</g>
				<path fill="#E58F22" d="M21.858,27.915c1.008,0.875,2.311,1.473,3.908,1.797l-4.895-12.929c-0.94,1.342-1.411,3.027-1.411,5.055
					C19.459,24.501,20.259,26.527,21.858,27.915z"/>
			</g>
		</g>
	</g>
</g>
</svg>
