<?xml version="1.0" encoding="utf-8"?>
<!-- Generator: Adobe Illustrator 17.0.0, SVG Export Plug-In . SVG Version: 6.00 Build 0)  -->
<!DOCTYPE svg PUBLIC "-//W3C//DTD SVG 1.1//EN" "http://www.w3.org/Graphics/SVG/1.1/DTD/svg11.dtd">
<svg version="1.1" id="vista_mesas" xmlns="http://www.w3.org/2000/svg" xmlns:xlink="http://www.w3.org/1999/xlink" x="0px"
	 y="0px" width="684.29px" height="348.701px" viewBox="0 0 684.29 348.701" enable-background="new 0 0 684.29 348.701"
	 xml:space="preserve">
<g id="Vista_mesa_y_puestos_1_">
</g>
<g id="Vista_mesa_y_puestos">
	<path fill="#BF4046" d="M655.417,270.017c0-20,3-50.667,3-66s-3-29.333-3-45.667s3.25-47.667,3.25-56.333
		c0-8.666-3.25-31.333-3.25-36.333s4.138-15.737,7.642-21.877c2.854-4.999-4.642-21.123-11.309-14.457
		c-6.667,6.667-13.278-12.183-13.278-12.183s-7.389,7.85-37.722,7.85s-32.25-2.5-48.583-2.5s-29.083,2.5-42.75,2.5
		s-52.667-2.5-73-2.5s-30.333,2.5-41,2.5s-32.772-8.341-51.001-7.85c-12.958,0-40.541,7.85-70.874,7.85
		c-30.333,0-32.25-2.5-48.583-2.5s-29.083,2.5-42.75,2.5s-52.667-2.5-73-2.5s-30.333,2.5-41,2.5s-15.32-0.175-20.656-5.512
		s-9.66,5.429-16.083,8.081c-13.002,5.369-8.273,19.412-8.273,19.412S28,50.158,28,68.018c0,19.57,0,19.996,0,20
		c0,0-3.146,12-3.146,41s2.705,38.314,2.705,61.981c0,13.327-3.377,44.019,0.623,76.019c3.564,28.514-2.911,32.711-6.647,37.423
		c-8.551,10.788,10,15.91,10,15.91l14.387,11.11c0,0,7.618-6.443,41.618-6.443s26.917,3.25,45.917,3.25s28.417-3.25,40.417-3.25
		s33.334,2.5,40.334,2.5s36.333-2.5,46-2.5c11.125,0,54.104,7.504,71,7.504c13.208,0.896,49.54-7.504,83.54-7.504
		s26.917,3.25,45.917,3.25s28.417-3.25,40.417-3.25s33.334,2.5,40.334,2.5s36.333-2.5,46-2.5c11.125,0,41.25,0.75,51.506,6.812
		c6.963,4.116,12.828-11.479,12.828-11.479s6.12-11.787,12.353-14.02C664.103,306.331,655.417,290.017,655.417,270.017z"/>
	
		<radialGradient id="SVGID_1_" cx="405.811" cy="517.379" r="18.333" gradientTransform="matrix(1 0 0 1 -370.27 -484.029)" gradientUnits="userSpaceOnUse">
		<stop  offset="0" style="stop-color:#8F3035"/>
		<stop  offset="0.1395" style="stop-color:#973338"/>
		<stop  offset="0.6862" style="stop-color:#B43C42"/>
		<stop  offset="1" style="stop-color:#BF4046"/>
	</radialGradient>
	<circle fill="url(#SVGID_1_)" cx="35.541" cy="33.35" r="18.333"/>
	
		<radialGradient id="SVGID_2_" cx="405.811" cy="800.379" r="18.333" gradientTransform="matrix(1 0 0 1 -370.27 -484.029)" gradientUnits="userSpaceOnUse">
		<stop  offset="0" style="stop-color:#8F3035"/>
		<stop  offset="0.1395" style="stop-color:#973338"/>
		<stop  offset="0.6862" style="stop-color:#B43C42"/>
		<stop  offset="1" style="stop-color:#BF4046"/>
	</radialGradient>
	<circle fill="url(#SVGID_2_)" cx="35.541" cy="316.35" r="18.333"/>
	<g id="XMLID_2_">
		<path display="none" fill="#BF4046" d="M325.708,28.417c6.34-3.89,12.83,10.68,10.14,15.39c-3.5,6.14-7.64,16.88-7.64,21.88
			v-30.67C328.208,32.487,327.268,30.177,325.708,28.417z"/>
		<path display="none" fill="#BF4046" d="M328.208,270.017c0,20,8.69,36.31,8.69,36.31c-3.2,1.15-6.36,4.8-8.69,8.09V270.017z"/>
		<path display="none" fill="#BF4046" d="M318.208,325.017c1.72,0,3.35-0.44,4.77-1.21c-2.19,4.33-6.46,10.86-11.26,8.02
			c-10.26-6.06-40.39-6.81-51.51-6.81H318.208z"/>
		<path display="none" fill="#BF4046" d="M314.948,25.017h-41.41c30.34,0,37.73-7.85,37.73-7.85S312.718,21.307,314.948,25.017z"/>
		
			<linearGradient id="SVGID_3_" gradientUnits="userSpaceOnUse" x1="598.143" y1="509.6711" x2="598.143" y2="507.1711" gradientTransform="matrix(1 0 0 1 -370.27 -484.029)">
			<stop  offset="0" style="stop-color:#8F3035"/>
			<stop  offset="0.1395" style="stop-color:#973338"/>
			<stop  offset="0.6862" style="stop-color:#B43C42"/>
			<stop  offset="1" style="stop-color:#BF4046"/>
		</linearGradient>
		<path fill="url(#SVGID_3_)" d="M273.538,25.017h-91.33c13.67,0,26.42-2.5,42.75-2.5C241.288,22.517,243.208,25.017,273.538,25.017
			z"/>
		
			<linearGradient id="SVGID_4_" gradientUnits="userSpaceOnUse" x1="587.313" y1="811.546" x2="587.313" y2="808.2957" gradientTransform="matrix(1 0 0 1 -370.27 -484.029)">
			<stop  offset="0" style="stop-color:#BF4046"/>
			<stop  offset="0.3138" style="stop-color:#B43C42"/>
			<stop  offset="0.8605" style="stop-color:#973338"/>
			<stop  offset="1" style="stop-color:#8F3035"/>
		</linearGradient>
		<path fill="url(#SVGID_4_)" d="M173.878,325.017h86.33c-9.67,0-39,2.5-46,2.5S185.878,325.017,173.878,325.017z"/>
		
			<linearGradient id="SVGID_5_" gradientUnits="userSpaceOnUse" x1="495.478" y1="509.6711" x2="495.478" y2="507.1711" gradientTransform="matrix(1 0 0 1 -370.27 -484.029)">
			<stop  offset="0" style="stop-color:#8F3035"/>
			<stop  offset="0.1395" style="stop-color:#973338"/>
			<stop  offset="0.6862" style="stop-color:#B43C42"/>
			<stop  offset="1" style="stop-color:#BF4046"/>
		</linearGradient>
		<path fill="url(#SVGID_5_)" d="M182.208,25.017h-114c10.67,0,20.67-2.5,41-2.5S168.538,25.017,182.208,25.017z"/>
		
			<linearGradient id="SVGID_6_" gradientUnits="userSpaceOnUse" x1="500.978" y1="812.296" x2="500.978" y2="807.9205" gradientTransform="matrix(1 0 0 1 -370.27 -484.029)">
			<stop  offset="0" style="stop-color:#BF4046"/>
			<stop  offset="0.3138" style="stop-color:#B43C42"/>
			<stop  offset="0.8605" style="stop-color:#973338"/>
			<stop  offset="1" style="stop-color:#8F3035"/>
		</linearGradient>
		<path fill="url(#SVGID_6_)" d="M87.538,325.017h86.34c-12,0-21.42,3.25-40.42,3.25S121.538,325.017,87.538,325.017z"/>
		<path display="none" fill="#BF4046" d="M38.208,325.017h49.33c-34,0-41.61,6.44-41.61,6.44l-8.37-6.46
			C37.768,325.007,37.988,325.017,38.208,325.017z"/>
		<path display="none" fill="#BF4046" d="M68.208,25.017h-30c-1.3,0-2.54,0.25-3.68,0.7c4.85-3.88,8.57-10.67,13.02-6.21
			C52.888,24.837,57.538,25.017,68.208,25.017z"/>
		<path display="none" fill="#BF4046" d="M31.518,27.587c-2.03,1.83-3.31,4.48-3.31,7.43v33c0-17.86-4.91-21.02-4.91-21.02
			S18.518,32.957,31.518,27.587z"/>
		<path display="none" fill="#BF4046" d="M28.208,315.017c0,1.65,0.4,3.2,1.11,4.57c-4.64-1.78-14.43-6.74-7.77-15.15
			c2.12-2.66,5.11-5.17,6.66-11.99V315.017z"/>
		
			<linearGradient id="SVGID_7_" gradientUnits="userSpaceOnUse" x1="396.5301" y1="713.0359" x2="399.8588" y2="713.0359" gradientTransform="matrix(1 0 0 1 -370.27 -484.029)">
			<stop  offset="0" style="stop-color:#BF4046"/>
			<stop  offset="0.3138" style="stop-color:#B43C42"/>
			<stop  offset="0.8605" style="stop-color:#973338"/>
			<stop  offset="1" style="stop-color:#8F3035"/>
		</linearGradient>
		<path fill="url(#SVGID_7_)" d="M28.208,190.997v76.02c-4-32-0.6-62.69-0.6-76.02L28.208,190.997L28.208,190.997z"/>
		
			<linearGradient id="SVGID_8_" gradientUnits="userSpaceOnUse" x1="395.228" y1="623.536" x2="399.98" y2="623.536" gradientTransform="matrix(1 0 0 1 -370.27 -484.029)">
			<stop  offset="0" style="stop-color:#BF4046"/>
			<stop  offset="0.3138" style="stop-color:#B43C42"/>
			<stop  offset="0.8605" style="stop-color:#973338"/>
			<stop  offset="1" style="stop-color:#8F3035"/>
		</linearGradient>
		<path fill="url(#SVGID_8_)" d="M28.208,88.017v102.98h-0.6c0-23.67-2.65-32.98-2.65-61.98S28.208,88.017,28.208,88.017z"/>
		<linearGradient id="SVGID_9_" gradientUnits="userSpaceOnUse" x1="334.4796" y1="25.402" x2="334.4796" y2="17.1471">
			<stop  offset="0" style="stop-color:#8F3035"/>
			<stop  offset="0.1297" style="stop-color:#973338"/>
			<stop  offset="0.4033" style="stop-color:#B43C42"/>
			<stop  offset="1" style="stop-color:#BF4046"/>
		</linearGradient>
		<path fill="url(#SVGID_9_)" d="M344.416,17.167c-12.958,0-40.541,8.235-70.874,8.235h121.875
			C384.75,25.402,362.645,16.676,344.416,17.167z"/>
		<linearGradient id="SVGID_10_" gradientUnits="userSpaceOnUse" x1="333.9599" y1="332.5887" x2="333.9599" y2="325.402">
			<stop  offset="0" style="stop-color:#BF4046"/>
			<stop  offset="0.5138" style="stop-color:#B43C42"/>
			<stop  offset="0.8751" style="stop-color:#973338"/>
			<stop  offset="1" style="stop-color:#8F3035"/>
		</linearGradient>
		<path fill="url(#SVGID_10_)" d="M266.403,325.402c16.179,1.526,50.212,7.12,64.805,7.12c11.503,0.78,40.544-5.488,70.309-7.12
			H266.403z"/>
	</g>
	<g>
		
			<radialGradient id="SVGID_11_" cx="1019.019" cy="516.379" r="18.333" gradientTransform="matrix(1 0 0 1 -370.27 -484.029)" gradientUnits="userSpaceOnUse">
			<stop  offset="0" style="stop-color:#8F3035"/>
			<stop  offset="0.1395" style="stop-color:#973338"/>
			<stop  offset="0.6862" style="stop-color:#B43C42"/>
			<stop  offset="1" style="stop-color:#BF4046"/>
		</radialGradient>
		<circle fill="url(#SVGID_11_)" cx="648.749" cy="32.35" r="18.333"/>
		
			<radialGradient id="SVGID_12_" cx="1019.019" cy="800.379" r="18.333" gradientTransform="matrix(1 0 0 1 -370.27 -484.029)" gradientUnits="userSpaceOnUse">
			<stop  offset="0" style="stop-color:#8F3035"/>
			<stop  offset="0.1395" style="stop-color:#973338"/>
			<stop  offset="0.6862" style="stop-color:#B43C42"/>
			<stop  offset="1" style="stop-color:#BF4046"/>
		</radialGradient>
		<circle fill="url(#SVGID_12_)" cx="648.749" cy="316.35" r="18.333"/>
		<g id="XMLID_137_">
			<path display="none" fill="#BF4046" d="M652.916,28.417c6.34-3.89,12.83,10.68,10.14,15.39c-3.5,6.14-7.64,16.88-7.64,21.88
				v-30.67C655.416,32.487,654.476,30.177,652.916,28.417z"/>
			<path display="none" fill="#BF4046" d="M655.416,270.017c0,20,8.69,36.31,8.69,36.31c-3.2,1.15-6.36,4.8-8.69,8.09V270.017z"/>
			
				<linearGradient id="SVGID_13_" gradientUnits="userSpaceOnUse" x1="1024.9355" y1="698.211" x2="1027.9355" y2="698.211" gradientTransform="matrix(1 0 0 1 -370.27 -484.029)">
				<stop  offset="0" style="stop-color:#8F3035"/>
				<stop  offset="0.1395" style="stop-color:#973338"/>
				<stop  offset="0.6862" style="stop-color:#B43C42"/>
				<stop  offset="1" style="stop-color:#BF4046"/>
			</linearGradient>
			<path fill="url(#SVGID_13_)" d="M655.416,158.347c0,16.34,3,30.34,3,45.67s-3,46-3,66V158.347z"/>
			
				<linearGradient id="SVGID_14_" gradientUnits="userSpaceOnUse" x1="1024.6855" y1="596.046" x2="1028.8181" y2="596.046" gradientTransform="matrix(1 0 0 1 -370.27 -484.029)">
				<stop  offset="0" style="stop-color:#8F3035"/>
				<stop  offset="0.1395" style="stop-color:#973338"/>
				<stop  offset="0.6862" style="stop-color:#B43C42"/>
				<stop  offset="1" style="stop-color:#BF4046"/>
			</linearGradient>
			<path fill="url(#SVGID_14_)" d="M655.416,65.687c0,5,3.25,27.66,3.25,36.33s-3.25,40-3.25,56.33V65.687z"/>
			<path display="none" fill="#BF4046" d="M645.416,325.017c1.72,0,3.35-0.44,4.77-1.21c-2.19,4.33-6.46,10.86-11.26,8.02
				c-10.26-6.06-40.39-6.81-51.51-6.81H645.416z"/>
			<path display="none" fill="#BF4046" d="M642.156,25.017h-41.41c30.34,0,37.73-7.85,37.73-7.85S639.926,21.307,642.156,25.017z"/>
			
				<linearGradient id="SVGID_15_" gradientUnits="userSpaceOnUse" x1="925.351" y1="509.6711" x2="925.351" y2="507.1711" gradientTransform="matrix(1 0 0 1 -370.27 -484.029)">
				<stop  offset="0" style="stop-color:#8F3035"/>
				<stop  offset="0.1395" style="stop-color:#973338"/>
				<stop  offset="0.6862" style="stop-color:#B43C42"/>
				<stop  offset="1" style="stop-color:#BF4046"/>
			</linearGradient>
			<path fill="url(#SVGID_15_)" d="M600.746,25.017h-91.33c13.67,0,26.42-2.5,42.75-2.5S570.416,25.017,600.746,25.017z"/>
			
				<linearGradient id="SVGID_16_" gradientUnits="userSpaceOnUse" x1="914.521" y1="811.546" x2="914.521" y2="808.2957" gradientTransform="matrix(1 0 0 1 -370.27 -484.029)">
				<stop  offset="0" style="stop-color:#BF4046"/>
				<stop  offset="0.3138" style="stop-color:#B43C42"/>
				<stop  offset="0.8605" style="stop-color:#973338"/>
				<stop  offset="1" style="stop-color:#8F3035"/>
			</linearGradient>
			<path fill="url(#SVGID_16_)" d="M501.086,325.017h86.33c-9.67,0-39,2.5-46,2.5S513.086,325.017,501.086,325.017z"/>
			
				<linearGradient id="SVGID_17_" gradientUnits="userSpaceOnUse" x1="822.686" y1="509.6711" x2="822.686" y2="507.1711" gradientTransform="matrix(1 0 0 1 -370.27 -484.029)">
				<stop  offset="0" style="stop-color:#8F3035"/>
				<stop  offset="0.1395" style="stop-color:#973338"/>
				<stop  offset="0.6862" style="stop-color:#B43C42"/>
				<stop  offset="1" style="stop-color:#BF4046"/>
			</linearGradient>
			<path fill="url(#SVGID_17_)" d="M509.416,25.017h-114c10.67,0,20.67-2.5,41-2.5C456.746,22.517,495.746,25.017,509.416,25.017z"
				/>
			
				<linearGradient id="SVGID_18_" gradientUnits="userSpaceOnUse" x1="828.186" y1="812.296" x2="828.186" y2="807.9205" gradientTransform="matrix(1 0 0 1 -370.27 -484.029)">
				<stop  offset="0" style="stop-color:#BF4046"/>
				<stop  offset="0.3138" style="stop-color:#B43C42"/>
				<stop  offset="0.8605" style="stop-color:#973338"/>
				<stop  offset="1" style="stop-color:#8F3035"/>
			</linearGradient>
			<path fill="url(#SVGID_18_)" d="M414.746,325.017h86.34c-12,0-21.42,3.25-40.42,3.25S448.746,325.017,414.746,325.017z"/>
			<path display="none" fill="#BF4046" d="M365.416,325.017h49.33c-34,0-41.61,6.44-41.61,6.44l-8.37-6.46
				C364.976,325.007,365.196,325.017,365.416,325.017z"/>
			<path display="none" fill="#BF4046" d="M395.416,25.017h-30c-1.3,0-2.54,0.25-3.68,0.7c4.85-3.88,8.57-10.67,13.02-6.21
				C380.096,24.837,384.746,25.017,395.416,25.017z"/>
			<path display="none" fill="#BF4046" d="M358.726,27.587c-2.03,1.83-3.31,4.48-3.31,7.43v33c0-17.86-4.91-21.02-4.91-21.02
				S345.726,32.957,358.726,27.587z"/>
			<path display="none" fill="#BF4046" d="M355.416,315.017c0,1.65,0.4,3.2,1.11,4.57c-4.64-1.78-14.43-6.74-7.77-15.15
				c2.12-2.66,5.11-5.17,6.66-11.99V315.017z"/>
		</g>
	</g>
	<path fill="#BF4046" d="M655.208,315.402c0,5.523-4.477,10-10,10H38c-5.523,0-10-4.477-10-10v-280c0-5.523,4.477-10,10-10h607.208
		c5.523,0,10,4.477,10,10V315.402z"/>
</g>
</svg>
