<?xml version="1.0" encoding="utf-8"?>
<!-- Generator: Adobe Illustrator 17.0.0, SVG Export Plug-In . SVG Version: 6.00 Build 0)  -->
<!DOCTYPE svg PUBLIC "-//W3C//DTD SVG 1.1//EN" "http://www.w3.org/Graphics/SVG/1.1/DTD/svg11.dtd">
<svg version="1.1" id="Capa_1" xmlns="http://www.w3.org/2000/svg" xmlns:xlink="http://www.w3.org/1999/xlink" x="0px" y="0px"
	 width="105px" height="95px" viewBox="0 0 105 95" enable-background="new 0 0 105 95" xml:space="preserve">
<g id="XMLID_10831_">
	<g id="XMLID_11315_">
		<g id="XMLID_11550_">
			<polygon id="XMLID_11551_" fill="#A9AB9F" points="91.448,69.321 52.373,91.828 13.479,69.136 52.243,46.686 			"/>
		</g>
		<g id="XMLID_11502_">
			<g id="XMLID_11548_">
				<polygon id="XMLID_11549_" fill="#A9AB9F" points="26.106,61.934 45.835,50.487 28.172,40.29 8.592,51.822 				"/>
			</g>
			<g id="XMLID_11503_">
				<g id="XMLID_11532_">
					<g id="XMLID_11533_" enable-background="new    ">
						<g id="XMLID_11546_">
							<polygon id="XMLID_11547_" fill="#B9BBBC" points="29.22,37.965 29.865,37.59 29.855,41.067 29.21,41.442 							"/>
						</g>
						<g id="XMLID_11544_">
							<polygon id="XMLID_11545_" fill="#B9BBBC" points="29.258,24.311 29.903,23.936 29.869,36.093 29.224,36.468 							"/>
						</g>
						<g id="XMLID_11542_">
							<polygon id="XMLID_11543_" fill="#F0F0F1" points="29.224,36.468 29.869,36.093 44.789,44.707 44.144,45.081 							"/>
						</g>
						<g id="XMLID_11540_">
							<polygon id="XMLID_11541_" fill="#B9BBBC" points="45.479,32.183 46.124,31.809 46.071,50.43 45.426,50.804 							"/>
						</g>
						<g id="XMLID_11538_">
							<polygon id="XMLID_11539_" fill="#F0F0F1" points="27.966,22.072 28.611,21.697 46.124,31.809 45.479,32.183 							"/>
						</g>
						<g id="XMLID_11534_">
							<path id="XMLID_11535_" fill="#CED0D1" d="M27.966,22.072l17.513,10.111l-0.053,18.621l-1.297-0.749l0.01-3.477l-14.92-8.614
								l-0.01,3.477l-1.297-0.749L27.966,22.072z M44.144,45.081l0.034-12.157l-14.92-8.614l-0.034,12.157L44.144,45.081
								L44.144,45.081z"/>
						</g>
					</g>
				</g>
				<g id="XMLID_11520_">
					<g id="XMLID_11521_" enable-background="new    ">
						<g id="XMLID_11530_">
							<polygon id="XMLID_11531_" fill="#121212" points="11.592,34.147 30.149,23.363 45.433,32.188 26.876,42.972 							"/>
						</g>
						<g id="XMLID_11528_">
							<polygon id="XMLID_11529_" fill="#404040" points="26.876,42.972 45.433,32.188 45.426,34.714 26.869,45.498 							"/>
						</g>
						<g id="XMLID_11526_">
							<polygon id="XMLID_11527_" fill="#252525" points="9.174,12.205 27.731,1.421 30.149,23.363 11.592,34.147 							"/>
						</g>
						<g id="XMLID_11524_">
							<polygon id="XMLID_11525_" fill="#454545" points="6.988,11.137 25.545,0.353 27.731,1.421 9.174,12.205 							"/>
						</g>
						<g id="XMLID_11522_">
							<polygon id="XMLID_11523_" fill="#404040" points="9.174,12.205 11.592,34.147 26.876,42.972 26.869,45.498 9.548,35.497 
								6.988,11.137 							"/>
						</g>
					</g>
				</g>
				<g id="XMLID_11504_">
					<g id="XMLID_11505_" enable-background="new    ">
						<g id="XMLID_11518_">
							<polygon id="XMLID_11519_" fill="#B9BBBC" points="9.899,49.119 10.544,48.745 10.534,52.222 9.889,52.596 							"/>
						</g>
						<g id="XMLID_11516_">
							<polygon id="XMLID_11517_" fill="#B9BBBC" points="9.938,35.466 10.583,35.091 10.548,47.248 9.903,47.622 							"/>
						</g>
						<g id="XMLID_11514_">
							<polygon id="XMLID_11515_" fill="#F0F0F1" points="9.903,47.622 10.548,47.248 25.468,55.861 24.823,56.236 							"/>
						</g>
						<g id="XMLID_11512_">
							<polygon id="XMLID_11513_" fill="#B9BBBC" points="26.159,43.338 26.803,42.963 26.751,61.584 26.106,61.959 							"/>
						</g>
						<g id="XMLID_11510_">
							<polygon id="XMLID_11511_" fill="#F0F0F1" points="8.645,33.227 9.29,32.852 26.803,42.963 26.159,43.338 							"/>
						</g>
						<g id="XMLID_11506_">
							<path id="XMLID_11507_" fill="#CED0D1" d="M8.645,33.227l17.513,10.111l-0.053,18.621l-1.297-0.749l0.01-3.477l-14.92-8.614
								l-0.01,3.477l-1.297-0.749L8.645,33.227z M24.823,56.236l0.034-12.157l-14.92-8.614L9.903,47.622L24.823,56.236
								L24.823,56.236z"/>
						</g>
					</g>
				</g>
			</g>
		</g>
		<g id="XMLID_11454_">
			<g id="XMLID_11500_">
				<polygon id="XMLID_11501_" fill="#A9AB9F" points="78.957,62.077 59.228,50.63 76.891,40.433 96.471,51.966 				"/>
			</g>
			<g id="XMLID_11455_">
				<g id="XMLID_11484_">
					<g id="XMLID_11485_" enable-background="new    ">
						<g id="XMLID_11498_">
							<polygon id="XMLID_11499_" fill="#B9BBBC" points="75.843,38.108 75.198,37.733 75.208,41.21 75.853,41.585 							"/>
						</g>
						<g id="XMLID_11496_">
							<polygon id="XMLID_11497_" fill="#B9BBBC" points="75.805,24.454 75.16,24.079 75.194,36.236 75.839,36.611 							"/>
						</g>
						<g id="XMLID_11494_">
							<polygon id="XMLID_11495_" fill="#F0F0F1" points="75.839,36.611 75.194,36.236 60.275,44.85 60.919,45.225 							"/>
						</g>
						<g id="XMLID_11492_">
							<polygon id="XMLID_11493_" fill="#B9BBBC" points="59.584,32.327 58.939,31.952 58.992,50.573 59.637,50.947 							"/>
						</g>
						<g id="XMLID_11490_">
							<polygon id="XMLID_11491_" fill="#F0F0F1" points="77.097,22.215 76.452,21.841 58.939,31.952 59.584,32.327 							"/>
						</g>
						<g id="XMLID_11486_">
							<path id="XMLID_11487_" fill="#CED0D1" d="M77.15,40.836l-1.297,0.749l-0.01-3.477l-14.92,8.614l0.01,3.477l-1.297,0.749
								l-0.053-18.621l17.513-10.111L77.15,40.836z M60.919,45.225l14.92-8.614l-0.034-12.157l-14.92,8.614L60.919,45.225
								L60.919,45.225z"/>
						</g>
					</g>
				</g>
				<g id="XMLID_11472_">
					<g id="XMLID_11473_" enable-background="new    ">
						<g id="XMLID_11482_">
							<polygon id="XMLID_11483_" fill="#121212" points="93.471,34.29 74.914,23.507 59.63,32.331 78.187,43.115 							"/>
						</g>
						<g id="XMLID_11480_">
							<polygon id="XMLID_11481_" fill="#404040" points="78.187,43.115 59.63,32.331 59.637,34.857 78.194,45.641 							"/>
						</g>
						<g id="XMLID_11478_">
							<polygon id="XMLID_11479_" fill="#252525" points="95.889,12.348 77.333,1.564 74.914,23.507 93.471,34.29 							"/>
						</g>
						<g id="XMLID_11476_">
							<polygon id="XMLID_11477_" fill="#454545" points="98.075,11.28 79.518,0.496 77.333,1.564 95.889,12.348 							"/>
						</g>
						<g id="XMLID_11474_">
							<polygon id="XMLID_11475_" fill="#404040" points="95.889,12.348 93.471,34.29 78.187,43.115 78.194,45.641 95.515,35.641 
								98.075,11.28 							"/>
						</g>
					</g>
				</g>
				<g id="XMLID_11456_">
					<g id="XMLID_11457_" enable-background="new    ">
						<g id="XMLID_11470_">
							<polygon id="XMLID_11471_" fill="#B9BBBC" points="95.164,49.263 94.519,48.888 94.529,52.365 95.174,52.74 							"/>
						</g>
						<g id="XMLID_11468_">
							<polygon id="XMLID_11469_" fill="#B9BBBC" points="95.125,35.609 94.48,35.234 94.515,47.391 95.16,47.766 							"/>
						</g>
						<g id="XMLID_11466_">
							<polygon id="XMLID_11467_" fill="#F0F0F1" points="95.16,47.766 94.515,47.391 79.595,56.005 80.24,56.379 							"/>
						</g>
						<g id="XMLID_11464_">
							<polygon id="XMLID_11465_" fill="#B9BBBC" points="78.905,43.481 78.26,43.107 78.313,61.728 78.957,62.102 							"/>
						</g>
						<g id="XMLID_11462_">
							<polygon id="XMLID_11463_" fill="#F0F0F1" points="96.418,33.37 95.773,32.995 78.26,43.107 78.905,43.481 							"/>
						</g>
						<g id="XMLID_11458_">
							<path id="XMLID_11459_" fill="#CED0D1" d="M96.471,51.991l-1.297,0.749l-0.01-3.477l-14.92,8.614l0.01,3.477l-1.297,0.749
								l-0.053-18.621L96.418,33.37L96.471,51.991z M80.24,56.379l14.92-8.614l-0.034-12.157l-14.92,8.614L80.24,56.379
								L80.24,56.379z"/>
						</g>
					</g>
				</g>
			</g>
		</g>
		<g id="XMLID_11408_">
			<g id="XMLID_11446_">
				<g id="XMLID_11447_" enable-background="new    ">
					<g id="XMLID_11452_">
						<polygon id="XMLID_11453_" fill="#B9BBBC" points="54.325,57.391 54.316,90.699 52.373,91.828 52.382,58.52 						"/>
					</g>
					<g id="XMLID_11450_">
						<polygon id="XMLID_11451_" fill="#CED0D1" points="52.382,58.52 52.373,91.828 50.417,90.699 50.426,57.391 						"/>
					</g>
					<g id="XMLID_11448_">
						<polygon id="XMLID_11449_" fill="#A7A7CD" points="54.325,57.391 52.382,58.52 50.426,57.391 52.369,56.262 						"/>
					</g>
				</g>
			</g>
			<g id="XMLID_11438_">
				<g id="XMLID_11439_" enable-background="new    ">
					<g id="XMLID_11444_">
						<polygon id="XMLID_11445_" fill="#B9BBBC" points="17.202,36.086 17.193,69.393 15.25,70.523 15.258,37.215 						"/>
					</g>
					<g id="XMLID_11442_">
						<polygon id="XMLID_11443_" fill="#CED0D1" points="15.258,37.215 15.25,70.523 13.294,69.393 13.303,36.086 						"/>
					</g>
					<g id="XMLID_11440_">
						<polygon id="XMLID_11441_" fill="#A7A7CD" points="17.202,36.086 15.258,37.215 13.303,36.086 15.246,34.957 						"/>
					</g>
				</g>
			</g>
			<g id="XMLID_11430_">
				<g id="XMLID_11431_" enable-background="new    ">
					<g id="XMLID_11436_">
						<polygon id="XMLID_11437_" fill="#B9BBBC" points="91.448,35.992 91.439,69.299 89.496,70.428 89.505,37.121 						"/>
					</g>
					<g id="XMLID_11434_">
						<polygon id="XMLID_11435_" fill="#CED0D1" points="89.505,37.121 89.496,70.428 87.54,69.299 87.549,35.992 						"/>
					</g>
					<g id="XMLID_11432_">
						<polygon id="XMLID_11433_" fill="#A7A7CD" points="91.448,35.992 89.505,37.121 87.549,35.992 89.492,34.863 						"/>
					</g>
				</g>
			</g>
			<g id="XMLID_11409_">
				<g id="XMLID_11423_" enable-background="new    ">
					<g id="XMLID_11428_">
						<polygon id="XMLID_11429_" fill="#301012" points="91.448,35.992 91.433,44.919 52.483,67.554 52.498,58.627 						"/>
					</g>
					<g id="XMLID_11426_">
						<polygon id="XMLID_11427_" fill="#8F3035" points="52.498,58.627 52.483,67.579 13.278,44.945 13.294,35.992 						"/>
					</g>
					<g id="XMLID_11424_">
						<polygon id="XMLID_11425_" fill="#BF4046" points="91.448,35.992 52.498,58.627 13.294,35.992 52.243,13.357 						"/>
					</g>
				</g>
				<g id="XMLID_11421_">
					<polygon id="XMLID_11422_" fill="#E5E5E6" points="52.498,65.286 52.483,66.413 13.278,43.778 13.294,42.651 					"/>
				</g>
				<g id="XMLID_11419_">
					<polygon id="XMLID_11420_" fill="#E5E5E6" points="52.355,65.286 52.371,66.413 91.575,43.778 91.56,42.651 					"/>
				</g>
				<g id="XMLID_11416_">
					<path id="XMLID_11418_" fill="#BF4046" d="M55.213,69.048c0,0-1.094,1.367-2.714,1.367c-1.62,0-2.663-1.367-2.663-1.367
						l0.699-2.613l0.294-1.073l1.671-6.238l1.681,6.147l0.294,1.063L55.213,69.048z"/>
					<path id="XMLID_11417_" fill="#F0F0F1" d="M54.474,65.836c-0.284,0.304-1.023,0.952-2.096,0.952
						c-1.023,0-1.6-0.557-1.843-0.851l0.294-1.073c0.263,0.233,0.891,0.678,1.549,0.678c0.689,0,1.489-0.537,1.803-0.77
						L54.474,65.836z"/>
				</g>
				<g id="XMLID_11413_">
					<path id="XMLID_11415_" fill="#BF4046" d="M15.991,46.993c0,0-1.094,1.367-2.714,1.367s-2.663-1.367-2.663-1.367l0.699-2.613
						l0.294-1.073l1.671-6.817l1.681,6.726l0.294,1.063L15.991,46.993z"/>
					<path id="XMLID_11414_" fill="#F0F0F1" d="M15.252,43.781c-0.284,0.304-1.023,0.952-2.096,0.952
						c-1.023,0-1.6-0.557-1.843-0.851l0.294-1.073c0.263,0.233,0.891,0.679,1.549,0.679c0.689,0,1.489-0.537,1.802-0.77
						L15.252,43.781z"/>
				</g>
				<g id="XMLID_11410_">
					<path id="XMLID_11412_" fill="#BF4046" d="M94.264,46.993c0,0-1.094,1.367-2.714,1.367c-1.62,0-2.663-1.367-2.663-1.367
						l0.699-2.613l0.294-1.073l1.671-6.817l1.681,6.726l0.294,1.063L94.264,46.993z"/>
					<path id="XMLID_11411_" fill="#F0F0F1" d="M93.525,43.781c-0.284,0.304-1.023,0.952-2.096,0.952
						c-1.023,0-1.6-0.557-1.843-0.851l0.294-1.073c0.263,0.233,0.891,0.679,1.549,0.679c0.689,0,1.489-0.537,1.803-0.77
						L93.525,43.781z"/>
				</g>
			</g>
		</g>
		<g id="XMLID_11362_">
			<g id="XMLID_11406_">
				<polygon id="XMLID_11407_" fill="#A9AB9F" points="83.214,94.647 102.943,83.201 85.281,73.004 65.701,84.536 				"/>
			</g>
			<g id="XMLID_11363_">
				<g id="XMLID_11390_">
					<g id="XMLID_11391_" enable-background="new    ">
						<g id="XMLID_11404_">
							<polygon id="XMLID_11405_" fill="#B9BBBC" points="86.042,70.818 86.687,70.443 86.677,73.92 86.032,74.295 							"/>
						</g>
						<g id="XMLID_11402_">
							<polygon id="XMLID_11403_" fill="#B9BBBC" points="86.081,57.164 86.726,56.79 86.691,68.946 86.046,69.321 							"/>
						</g>
						<g id="XMLID_11400_">
							<polygon id="XMLID_11401_" fill="#F0F0F1" points="86.046,69.321 86.691,68.946 101.611,77.56 100.966,77.935 							"/>
						</g>
						<g id="XMLID_11398_">
							<polygon id="XMLID_11399_" fill="#B9BBBC" points="102.302,65.037 102.946,64.662 102.894,83.283 102.249,83.658 							"/>
						</g>
						<g id="XMLID_11396_">
							<polygon id="XMLID_11397_" fill="#F0F0F1" points="84.788,54.926 85.433,54.551 102.946,64.662 102.302,65.037 							"/>
						</g>
						<g id="XMLID_11392_">
							<path id="XMLID_11393_" fill="#CED0D1" d="M84.788,54.926l17.513,10.111l-0.053,18.621l-1.297-0.749l0.01-3.477l-14.92-8.614
								l-0.01,3.477l-1.297-0.749L84.788,54.926z M100.966,77.935L101,65.778l-14.92-8.614l-0.034,12.157L100.966,77.935
								L100.966,77.935z"/>
						</g>
					</g>
				</g>
				<g id="XMLID_11380_">
					<g id="XMLID_11381_" enable-background="new    ">
						<g id="XMLID_11388_">
							<polygon id="XMLID_11389_" fill="#121212" points="81.682,74.355 100.239,63.571 84.954,54.747 66.397,65.531 							"/>
						</g>
						<g id="XMLID_11386_">
							<polygon id="XMLID_11387_" fill="#252525" points="83.711,78.05 102.268,67.266 104.958,45.943 86.401,56.727 							"/>
						</g>
						<g id="XMLID_11384_">
							<polygon id="XMLID_11385_" fill="#454545" points="86.401,56.727 104.958,45.943 102.773,44.489 84.216,55.272 							"/>
						</g>
						<g id="XMLID_11382_">
							<polygon id="XMLID_11383_" fill="#404040" points="84.216,55.272 81.682,74.355 66.397,65.531 66.39,68.049 83.711,78.05 
								86.401,56.727 							"/>
						</g>
					</g>
				</g>
				<g id="XMLID_11364_">
					<g id="XMLID_11365_" enable-background="new    ">
						<g id="XMLID_11378_">
							<polygon id="XMLID_11379_" fill="#B9BBBC" points="67.007,81.808 67.652,81.433 67.642,84.91 66.998,85.285 							"/>
						</g>
						<g id="XMLID_11376_">
							<polygon id="XMLID_11377_" fill="#B9BBBC" points="67.046,68.154 67.691,67.779 67.657,79.936 67.012,80.311 							"/>
						</g>
						<g id="XMLID_11374_">
							<polygon id="XMLID_11375_" fill="#F0F0F1" points="67.012,80.311 67.657,79.936 82.576,88.55 81.931,88.925 							"/>
						</g>
						<g id="XMLID_11372_">
							<polygon id="XMLID_11373_" fill="#B9BBBC" points="83.267,76.027 83.912,75.652 83.859,94.273 83.214,94.647 							"/>
						</g>
						<g id="XMLID_11370_">
							<polygon id="XMLID_11371_" fill="#F0F0F1" points="65.754,65.915 66.398,65.54 83.912,75.652 83.267,76.027 							"/>
						</g>
						<g id="XMLID_11366_">
							<path id="XMLID_11367_" fill="#CED0D1" d="M65.754,65.915l17.513,10.111l-0.053,18.621l-1.297-0.749l0.01-3.477l-14.92-8.614
								l-0.01,3.477l-1.297-0.749L65.754,65.915z M81.931,88.925l0.034-12.157l-14.92-8.614l-0.034,12.157L81.931,88.925
								L81.931,88.925z"/>
						</g>
					</g>
				</g>
			</g>
		</g>
		<g id="XMLID_11316_">
			<g id="XMLID_11360_">
				<polygon id="XMLID_11361_" fill="#A9AB9F" points="21.786,94.401 2.057,82.954 19.719,72.757 39.299,84.289 				"/>
			</g>
			<g id="XMLID_11317_">
				<g id="XMLID_11344_">
					<g id="XMLID_11345_" enable-background="new    ">
						<g id="XMLID_11358_">
							<polygon id="XMLID_11359_" fill="#B9BBBC" points="18.958,70.571 18.313,70.196 18.323,73.674 18.968,74.048 							"/>
						</g>
						<g id="XMLID_11356_">
							<polygon id="XMLID_11357_" fill="#B9BBBC" points="18.919,56.918 18.274,56.543 18.309,68.699 18.953,69.074 							"/>
						</g>
						<g id="XMLID_11354_">
							<polygon id="XMLID_11355_" fill="#F0F0F1" points="18.953,69.074 18.309,68.699 3.389,77.313 4.034,77.688 							"/>
						</g>
						<g id="XMLID_11352_">
							<polygon id="XMLID_11353_" fill="#B9BBBC" points="2.698,64.79 2.053,64.415 2.106,83.036 2.751,83.411 							"/>
						</g>
						<g id="XMLID_11350_">
							<polygon id="XMLID_11351_" fill="#F0F0F1" points="20.212,54.679 19.567,54.304 2.053,64.415 2.698,64.79 							"/>
						</g>
						<g id="XMLID_11346_">
							<path id="XMLID_11347_" fill="#CED0D1" d="M20.264,73.3l-1.297,0.749l-0.01-3.477l-14.92,8.614l0.01,3.477l-1.297,0.749
								L2.698,64.79l17.513-10.111L20.264,73.3z M4.034,77.688l14.92-8.614l-0.034-12.157l-14.92,8.614L4.034,77.688L4.034,77.688z"
								/>
						</g>
					</g>
				</g>
				<g id="XMLID_11334_">
					<g id="XMLID_11335_" enable-background="new    ">
						<g id="XMLID_11342_">
							<polygon id="XMLID_11343_" fill="#121212" points="23.318,74.108 4.761,63.324 20.046,54.5 38.603,65.284 							"/>
						</g>
						<g id="XMLID_11340_">
							<polygon id="XMLID_11341_" fill="#252525" points="21.289,77.803 2.732,67.019 0.042,45.697 18.599,56.481 							"/>
						</g>
						<g id="XMLID_11338_">
							<polygon id="XMLID_11339_" fill="#454545" points="18.599,56.481 0.042,45.697 2.227,44.242 20.784,55.026 							"/>
						</g>
						<g id="XMLID_11336_">
							<polygon id="XMLID_11337_" fill="#404040" points="20.784,55.026 23.318,74.108 38.603,65.284 38.61,67.802 21.289,77.803 
								18.599,56.481 							"/>
						</g>
					</g>
				</g>
				<g id="XMLID_11318_">
					<g id="XMLID_11319_" enable-background="new    ">
						<g id="XMLID_11332_">
							<polygon id="XMLID_11333_" fill="#B9BBBC" points="37.992,81.561 37.348,81.186 37.357,84.663 38.002,85.038 							"/>
						</g>
						<g id="XMLID_11330_">
							<polygon id="XMLID_11331_" fill="#B9BBBC" points="37.954,67.907 37.309,67.533 37.343,79.689 37.988,80.064 							"/>
						</g>
						<g id="XMLID_11328_">
							<polygon id="XMLID_11329_" fill="#F0F0F1" points="37.988,80.064 37.343,79.689 22.424,88.303 23.069,88.678 							"/>
						</g>
						<g id="XMLID_11326_">
							<polygon id="XMLID_11327_" fill="#B9BBBC" points="21.733,75.78 21.088,75.405 21.141,94.026 21.786,94.401 							"/>
						</g>
						<g id="XMLID_11324_">
							<polygon id="XMLID_11325_" fill="#F0F0F1" points="39.246,65.668 38.602,65.294 21.088,75.405 21.733,75.78 							"/>
						</g>
						<g id="XMLID_11320_">
							<path id="XMLID_11321_" fill="#CED0D1" d="M39.299,84.289l-1.297,0.749l-0.01-3.477l-14.92,8.614l0.01,3.477l-1.297,0.749
								L21.733,75.78l17.513-10.111L39.299,84.289z M23.069,88.678l14.92-8.614l-0.034-12.157l-14.92,8.614L23.069,88.678
								L23.069,88.678z"/>
						</g>
					</g>
				</g>
			</g>
		</g>
	</g>
	<g id="XMLID_11305_">
		<g id="XMLID_11313_">
			<path id="XMLID_11314_" fill="#DCE8F5" d="M69.322,26.3c2.182,1.26,2.196,3.303,0.028,4.563c-2.168,1.26-5.699,1.26-7.881,0
				c-2.182-1.26-2.191-3.303-0.023-4.563C63.615,25.04,67.14,25.04,69.322,26.3z"/>
		</g>
		<g id="XMLID_11311_">
			<path id="XMLID_11312_" fill="#FFFFFF" d="M70.119,24.626c2.625,1.516,2.642,3.974,0.034,5.49c-2.608,1.516-6.856,1.516-9.481,0
				c-2.625-1.516-2.635-3.974-0.027-5.49C63.253,23.111,67.494,23.111,70.119,24.626z"/>
		</g>
		<g id="XMLID_11306_">
			<g id="XMLID_11309_">
				<path id="XMLID_11310_" fill="#DCE8F5" d="M70.425,27.63c-0.091,0.661-0.577,1.302-1.445,1.808c-1.963,1.14-5.164,1.14-7.14,0
					c-0.881-0.505-1.373-1.16-1.471-1.827c-0.117-0.823,0.363-1.678,1.451-2.306c1.963-1.14,5.157-1.14,7.133,0
					C70.055,25.939,70.548,26.795,70.425,27.63z"/>
			</g>
			<g id="XMLID_11307_">
				<path id="XMLID_11308_" fill="#EEF5FB" d="M70.425,27.63c-0.091,0.661-0.577,1.302-1.445,1.808c-1.963,1.14-5.164,1.14-7.14,0
					c-0.881-0.505-1.373-1.16-1.471-1.827c0.091-0.661,0.577-1.309,1.451-1.821c1.963-1.14,5.157-1.14,7.133,0
					C69.842,26.302,70.334,26.957,70.425,27.63z"/>
			</g>
		</g>
	</g>
	<g id="XMLID_11295_">
		<g id="XMLID_11303_">
			<path id="XMLID_11304_" fill="#DCE8F5" d="M69.322,42.049c2.182,1.26,2.196,3.303,0.028,4.563c-2.168,1.26-5.699,1.26-7.881,0
				c-2.182-1.26-2.191-3.303-0.023-4.563C63.615,40.79,67.14,40.79,69.322,42.049z"/>
		</g>
		<g id="XMLID_11301_">
			<path id="XMLID_11302_" fill="#FFFFFF" d="M70.119,40.376c2.625,1.516,2.642,3.974,0.034,5.49c-2.608,1.516-6.856,1.516-9.481,0
				c-2.625-1.516-2.635-3.974-0.027-5.49C63.253,38.86,67.494,38.86,70.119,40.376z"/>
		</g>
		<g id="XMLID_11296_">
			<g id="XMLID_11299_">
				<path id="XMLID_11300_" fill="#DCE8F5" d="M70.424,43.38c-0.091,0.661-0.577,1.302-1.445,1.808c-1.963,1.14-5.164,1.14-7.14,0
					c-0.881-0.505-1.374-1.16-1.471-1.827c-0.117-0.823,0.363-1.678,1.451-2.307c1.963-1.14,5.157-1.14,7.133,0
					C70.055,41.689,70.548,42.544,70.424,43.38z"/>
			</g>
			<g id="XMLID_11297_">
				<path id="XMLID_11298_" fill="#EEF5FB" d="M70.424,43.38c-0.091,0.661-0.577,1.302-1.445,1.808c-1.963,1.14-5.164,1.14-7.14,0
					c-0.881-0.505-1.374-1.16-1.471-1.827c0.091-0.661,0.577-1.309,1.451-1.821c1.963-1.14,5.157-1.14,7.133,0
					C69.841,42.052,70.334,42.706,70.424,43.38z"/>
			</g>
		</g>
	</g>
	<g id="XMLID_11285_">
		<g id="XMLID_11293_">
			<path id="XMLID_11294_" fill="#DCE8F5" d="M43.241,26.647c2.182,1.26,2.196,3.303,0.029,4.563c-2.168,1.26-5.699,1.26-7.881,0
				c-2.182-1.26-2.191-3.303-0.023-4.563C37.534,25.387,41.059,25.387,43.241,26.647z"/>
		</g>
		<g id="XMLID_11291_">
			<path id="XMLID_11292_" fill="#FFFFFF" d="M44.038,24.973c2.625,1.516,2.642,3.974,0.034,5.49c-2.608,1.516-6.856,1.516-9.481,0
				c-2.625-1.516-2.635-3.974-0.028-5.49S41.413,23.458,44.038,24.973z"/>
		</g>
		<g id="XMLID_11286_">
			<g id="XMLID_11289_">
				<path id="XMLID_11290_" fill="#DCE8F5" d="M44.344,27.977c-0.091,0.661-0.577,1.302-1.445,1.808c-1.963,1.14-5.164,1.14-7.14,0
					c-0.881-0.505-1.374-1.16-1.471-1.827c-0.117-0.823,0.363-1.678,1.451-2.306c1.963-1.14,5.157-1.14,7.133,0
					C43.975,26.286,44.467,27.142,44.344,27.977z"/>
			</g>
			<g id="XMLID_11287_">
				<path id="XMLID_11288_" fill="#EEF5FB" d="M44.344,27.977c-0.091,0.661-0.577,1.302-1.445,1.808c-1.963,1.14-5.164,1.14-7.14,0
					c-0.881-0.505-1.374-1.16-1.471-1.827c0.091-0.661,0.577-1.309,1.451-1.821c1.963-1.14,5.157-1.14,7.133,0
					C43.761,26.649,44.253,27.304,44.344,27.977z"/>
			</g>
		</g>
	</g>
	<g id="XMLID_11275_">
		<g id="XMLID_11283_">
			<path id="XMLID_11284_" fill="#DCE8F5" d="M43.241,41.807c2.182,1.26,2.196,3.303,0.028,4.563c-2.168,1.26-5.699,1.26-7.881,0
				c-2.182-1.26-2.191-3.303-0.023-4.563C37.534,40.547,41.059,40.547,43.241,41.807z"/>
		</g>
		<g id="XMLID_11281_">
			<path id="XMLID_11282_" fill="#FFFFFF" d="M44.038,40.133c2.625,1.516,2.642,3.974,0.034,5.49c-2.608,1.516-6.856,1.516-9.481,0
				c-2.625-1.516-2.635-3.974-0.028-5.49S41.413,38.617,44.038,40.133z"/>
		</g>
		<g id="XMLID_11276_">
			<g id="XMLID_11279_">
				<path id="XMLID_11280_" fill="#DCE8F5" d="M44.344,43.137c-0.091,0.661-0.577,1.302-1.445,1.808c-1.963,1.14-5.164,1.14-7.14,0
					c-0.881-0.505-1.373-1.16-1.471-1.827c-0.117-0.823,0.363-1.678,1.451-2.306c1.963-1.14,5.157-1.14,7.133,0
					C43.974,41.446,44.467,42.301,44.344,43.137z"/>
			</g>
			<g id="XMLID_11277_">
				<path id="XMLID_11278_" fill="#EEF5FB" d="M44.344,43.137c-0.091,0.661-0.577,1.302-1.445,1.808c-1.963,1.14-5.164,1.14-7.14,0
					c-0.881-0.505-1.373-1.16-1.471-1.827c0.091-0.661,0.577-1.309,1.451-1.821c1.963-1.14,5.157-1.14,7.133,0
					C43.76,41.809,44.253,42.463,44.344,43.137z"/>
			</g>
		</g>
	</g>
	<g id="XMLID_11232_">
		<g id="XMLID_11249_">
			<g id="XMLID_11267_">
				<g id="XMLID_11268_" enable-background="new    ">
					<g id="XMLID_11273_">
						<polygon id="XMLID_11274_" fill="#CDEFF3" points="54.87,35.755 54.869,35.975 52.684,37.245 52.685,37.025 						"/>
					</g>
					<g id="XMLID_11271_">
						<polygon id="XMLID_11272_" fill="#9ED2F5" points="52.685,37.025 52.684,37.245 50.556,36.016 50.557,35.796 						"/>
					</g>
					<g id="XMLID_11269_">
						<polygon id="XMLID_11270_" fill="#CBE6F8" points="54.87,35.755 52.685,37.025 50.557,35.796 52.742,34.526 						"/>
					</g>
				</g>
			</g>
			<g id="XMLID_11250_">
				<g id="XMLID_11253_">
					<polygon id="XMLID_11266_" opacity="0.5" fill="#CDEFF3" points="53.817,30.12 52.725,29.485 52.684,30.774 					"/>
					<polygon id="XMLID_11265_" opacity="0.5" fill="#9ED2F5" points="52.725,29.485 52.684,30.774 51.592,30.14 					"/>
					<g id="XMLID_11257_" enable-background="new    ">
						<g id="XMLID_11262_">
							<g id="XMLID_11263_">
								<path id="XMLID_11264_" fill="#564B44" d="M52.678,36.051c-0.081,0-0.147-0.066-0.147-0.147v-7.423
									c0-0.081,0.066-0.147,0.147-0.147c0.081,0,0.147,0.066,0.147,0.147v7.423C52.825,35.985,52.759,36.051,52.678,36.051z"/>
							</g>
						</g>
						<g id="XMLID_11260_" opacity="0.5">
							<polygon id="XMLID_11261_" fill="#9ED2F5" points="52.673,37.031 50.557,35.8 51.301,30.142 52.678,30.943 							"/>
						</g>
						<g id="XMLID_11258_" opacity="0.5">
							<polygon id="XMLID_11259_" fill="#CDEFF3" points="54.108,30.117 54.87,35.765 52.673,37.031 52.678,30.943 							"/>
						</g>
					</g>
					<path id="XMLID_11254_" fill="#CCE9FD" d="M52.731,29.317l-1.43,0.826l1.377,0.8l1.43-0.826L52.731,29.317z M51.592,30.14
						l1.134-0.655l1.092,0.635l-1.134,0.655L51.592,30.14z"/>
				</g>
				<polygon id="XMLID_11252_" opacity="0.3" fill="#FFFFFF" points="54.419,32.472 52.673,37.01 52.673,34.708 54.232,31.047 				
					"/>
				<polygon id="XMLID_11251_" opacity="0.3" fill="#FFFFFF" points="54.195,30.765 52.678,34.314 52.678,33.744 54.149,30.417 				
					"/>
			</g>
		</g>
		<g id="XMLID_11234_">
			<ellipse id="XMLID_11248_" fill="#8596C9" cx="52.598" cy="23.527" rx="0.436" ry="1.751"/>
			
				<ellipse id="XMLID_11247_" transform="matrix(0.866 -0.5 0.5 0.866 -4.9513 29.0427)" fill="#B0C5E5" cx="51.723" cy="23.761" rx="0.436" ry="1.751"/>
			
				<ellipse id="XMLID_11246_" transform="matrix(0.5 -0.866 0.866 0.5 4.4073 56.4385)" fill="#8596C9" cx="51.082" cy="24.402" rx="0.436" ry="1.751"/>
			<ellipse id="XMLID_11245_" fill="#B0C5E5" cx="50.847" cy="25.278" rx="1.751" ry="0.436"/>
			
				<ellipse id="XMLID_11244_" transform="matrix(-0.5 -0.866 0.866 -0.5 53.9705 83.4686)" fill="#8596C9" cx="51.082" cy="26.154" rx="0.436" ry="1.751"/>
			
				<ellipse id="XMLID_11243_" transform="matrix(-0.866 -0.5 0.5 -0.866 83.1203 75.8595)" fill="#B0C5E5" cx="51.723" cy="26.795" rx="0.436" ry="1.751"/>
			<ellipse id="XMLID_11242_" fill="#8596C9" cx="52.598" cy="27.029" rx="0.436" ry="1.751"/>
			
				<ellipse id="XMLID_11241_" transform="matrix(-0.866 0.5 -0.5 -0.866 113.1812 23.2648)" fill="#B0C5E5" cx="53.474" cy="26.795" rx="0.436" ry="1.751"/>
			
				<ellipse id="XMLID_11240_" transform="matrix(-0.5 0.866 -0.866 -0.5 103.8206 -7.6365)" fill="#8596C9" cx="54.115" cy="26.154" rx="0.436" ry="1.751"/>
			<ellipse id="XMLID_11239_" fill="#B0C5E5" cx="54.349" cy="25.278" rx="1.751" ry="0.436"/>
			
				<ellipse id="XMLID_11238_" transform="matrix(0.5 0.866 -0.866 0.5 48.1896 -34.6636)" fill="#8596C9" cx="54.115" cy="24.402" rx="0.436" ry="1.751"/>
			
				<ellipse id="XMLID_11237_" transform="matrix(0.866 0.5 -0.5 0.866 19.0429 -23.5521)" fill="#B0C5E5" cx="53.474" cy="23.761" rx="0.436" ry="1.751"/>
			<circle id="XMLID_11236_" fill="#FAEF99" cx="52.598" cy="25.278" r="1.128"/>
			<circle id="XMLID_11235_" fill="#F9EA69" cx="52.598" cy="25.278" r="0.822"/>
		</g>
		<path id="XMLID_11233_" fill="#9CC34C" d="M52.863,28.99L52.7,29.053c-1.234,0.483-2.627-0.126-3.11-1.36l-0.063-0.162
			l0.162-0.063c1.235-0.484,2.628,0.125,3.111,1.36L52.863,28.99z"/>
	</g>
	<g id="XMLID_11222_">
		<g id="XMLID_11230_" opacity="0.23">
			<path id="XMLID_11231_" opacity="0.72" fill="#F5F8F2" d="M76.266,33.782c-0.041,0.263-0.243,0.537-0.597,0.739
				c-0.81,0.476-2.137,0.476-2.957,0c-0.365-0.202-0.567-0.476-0.608-0.749c0-0.02,0.01-0.051,0.02-0.071
				c0.061-0.253,0.253-0.496,0.587-0.689c0.81-0.466,2.127-0.466,2.947,0c0.334,0.192,0.527,0.435,0.587,0.689
				C76.256,33.731,76.266,33.752,76.266,33.782z"/>
		</g>
		<g id="XMLID_11228_" opacity="0.6">
			<path id="XMLID_11229_" fill="#F5F8F2" d="M76.246,33.701c-0.061,0.253-0.253,0.496-0.577,0.679c-0.81,0.476-2.137,0.476-2.957,0
				c-0.334-0.182-0.527-0.425-0.587-0.679c0.061-0.253,0.253-0.496,0.587-0.689c0.81-0.466,2.127-0.466,2.947,0
				C75.992,33.205,76.185,33.448,76.246,33.701z"/>
		</g>
		<g id="XMLID_11223_">
			<path id="XMLID_11225_" opacity="0.6" fill="#F5F8F2" d="M75.656,26.756c-0.817-0.472-2.138-0.472-2.949,0
				c-0.362,0.212-0.563,0.479-0.6,0.753c0.04,0.276,0.244,0.546,0.608,0.755c0.817,0.472,2.14,0.472,2.952,0
				c0.359-0.209,0.56-0.474,0.597-0.747C76.226,27.238,76.023,26.967,75.656,26.756z M75.379,28.117c-0.654,0.38-1.72,0.38-2.379,0
				c-0.293-0.168-0.458-0.386-0.49-0.609c0.03-0.22,0.192-0.436,0.484-0.607c0.654-0.38,1.718-0.38,2.377,0
				c0.296,0.171,0.46,0.389,0.49,0.613C75.83,27.735,75.668,27.949,75.379,28.117z"/>
			<path id="XMLID_11224_" opacity="0.72" fill="#F5F8F2" d="M76.264,27.517c0,0-0.281-1.114-2.08-1.114
				c-1.83,0-2.077,1.106-2.077,1.106s-0.219,2.9,1.632,3.292c0.141,0.03,0.251,0.142,0.251,0.286v2.451c0,0,0.047,0.158,0.194,0.158
				c0.201,0,0.194-0.158,0.194-0.158v-2.458c0-0.143,0.107-0.254,0.246-0.286C76.451,30.381,76.264,27.517,76.264,27.517z"/>
		</g>
	</g>
	<g id="XMLID_11212_">
		<g id="XMLID_11220_" opacity="0.23">
			<path id="XMLID_11221_" opacity="0.72" fill="#F5F8F2" d="M58.971,48.367c-0.04,0.263-0.243,0.537-0.597,0.739
				c-0.81,0.476-2.137,0.476-2.957,0c-0.365-0.202-0.567-0.476-0.608-0.749c0-0.02,0.01-0.051,0.02-0.071
				c0.061-0.253,0.253-0.496,0.587-0.689c0.81-0.466,2.127-0.466,2.947,0c0.334,0.192,0.527,0.435,0.587,0.689
				C58.961,48.316,58.971,48.336,58.971,48.367z"/>
		</g>
		<g id="XMLID_11218_" opacity="0.6">
			<path id="XMLID_11219_" fill="#F5F8F2" d="M58.951,48.286c-0.061,0.253-0.253,0.496-0.577,0.679c-0.81,0.476-2.137,0.476-2.957,0
				c-0.334-0.182-0.527-0.425-0.587-0.679c0.061-0.253,0.253-0.496,0.587-0.689c0.81-0.466,2.127-0.466,2.947,0
				C58.698,47.789,58.89,48.032,58.951,48.286z"/>
		</g>
		<g id="XMLID_11213_">
			<path id="XMLID_11215_" opacity="0.6" fill="#F5F8F2" d="M58.361,41.34c-0.817-0.472-2.138-0.472-2.949,0
				c-0.362,0.212-0.563,0.48-0.6,0.753c0.04,0.276,0.244,0.547,0.608,0.756c0.817,0.471,2.14,0.471,2.952,0
				c0.359-0.209,0.56-0.474,0.597-0.748C58.932,41.822,58.728,41.552,58.361,41.34z M58.084,42.702c-0.654,0.38-1.72,0.38-2.379,0
				c-0.294-0.168-0.458-0.386-0.49-0.609c0.03-0.22,0.192-0.436,0.484-0.607c0.654-0.38,1.718-0.38,2.377,0
				c0.296,0.171,0.46,0.389,0.49,0.613C58.535,42.32,58.374,42.534,58.084,42.702z"/>
			<path id="XMLID_11214_" opacity="0.72" fill="#F5F8F2" d="M58.969,42.101c0,0-0.281-1.114-2.08-1.114
				c-1.83,0-2.077,1.106-2.077,1.106s-0.219,2.9,1.632,3.292c0.141,0.03,0.251,0.142,0.251,0.286v2.451c0,0,0.047,0.158,0.194,0.158
				c0.201,0,0.194-0.158,0.194-0.158v-2.458c0-0.143,0.107-0.254,0.246-0.286C59.156,44.966,58.969,42.101,58.969,42.101z"/>
		</g>
	</g>
	<g id="XMLID_11202_">
		<g id="XMLID_11210_" opacity="0.23">
			<path id="XMLID_11211_" opacity="0.72" fill="#F5F8F2" d="M31.292,38.938c-0.041,0.263-0.243,0.537-0.597,0.739
				c-0.81,0.476-2.137,0.476-2.957,0c-0.365-0.202-0.567-0.476-0.608-0.749c0-0.02,0.01-0.051,0.02-0.071
				c0.061-0.253,0.253-0.496,0.587-0.689c0.81-0.466,2.127-0.466,2.947,0c0.334,0.192,0.527,0.435,0.587,0.689
				C31.282,38.887,31.292,38.908,31.292,38.938z"/>
		</g>
		<g id="XMLID_11208_" opacity="0.6">
			<path id="XMLID_11209_" fill="#F5F8F2" d="M31.272,38.857c-0.061,0.253-0.253,0.496-0.577,0.678c-0.81,0.476-2.137,0.476-2.957,0
				c-0.334-0.182-0.527-0.425-0.587-0.678c0.061-0.253,0.253-0.496,0.587-0.689c0.81-0.466,2.127-0.466,2.947,0
				C31.018,38.361,31.211,38.604,31.272,38.857z"/>
		</g>
		<g id="XMLID_11203_">
			<path id="XMLID_11205_" opacity="0.6" fill="#F5F8F2" d="M30.682,31.912c-0.817-0.472-2.138-0.472-2.949,0
				c-0.362,0.212-0.563,0.479-0.6,0.753c0.04,0.276,0.244,0.546,0.608,0.755c0.817,0.472,2.14,0.472,2.952,0
				c0.359-0.209,0.56-0.474,0.597-0.747C31.252,32.394,31.049,32.123,30.682,31.912z M30.405,33.273c-0.654,0.38-1.72,0.38-2.379,0
				c-0.294-0.168-0.458-0.386-0.49-0.609c0.03-0.22,0.192-0.436,0.483-0.607c0.654-0.38,1.718-0.38,2.377,0
				c0.296,0.171,0.46,0.389,0.49,0.613C30.856,32.891,30.694,33.105,30.405,33.273z"/>
			<path id="XMLID_11204_" opacity="0.72" fill="#F5F8F2" d="M31.29,32.672c0,0-0.281-1.114-2.08-1.114
				c-1.83,0-2.077,1.106-2.077,1.106s-0.219,2.9,1.633,3.292c0.141,0.03,0.25,0.142,0.25,0.286v2.451c0,0,0.047,0.158,0.194,0.158
				c0.2,0,0.194-0.158,0.194-0.158v-2.458c0-0.143,0.107-0.254,0.246-0.286C31.477,35.537,31.29,32.672,31.29,32.672z"/>
		</g>
	</g>
	<g id="XMLID_11192_">
		<g id="XMLID_11200_" opacity="0.23">
			<path id="XMLID_11201_" opacity="0.72" fill="#F5F8F2" d="M49.054,23.191c-0.041,0.263-0.243,0.537-0.597,0.739
				c-0.81,0.476-2.137,0.476-2.957,0c-0.365-0.202-0.567-0.476-0.608-0.749c0-0.02,0.01-0.051,0.02-0.071
				c0.061-0.253,0.253-0.496,0.587-0.689c0.81-0.466,2.127-0.466,2.947,0c0.334,0.192,0.527,0.435,0.587,0.689
				C49.044,23.141,49.054,23.161,49.054,23.191z"/>
		</g>
		<g id="XMLID_11198_" opacity="0.6">
			<path id="XMLID_11199_" fill="#F5F8F2" d="M49.034,23.11c-0.061,0.253-0.253,0.496-0.577,0.679c-0.81,0.476-2.137,0.476-2.957,0
				c-0.334-0.182-0.527-0.425-0.587-0.679c0.061-0.253,0.253-0.496,0.587-0.689c0.81-0.466,2.127-0.466,2.947,0
				C48.781,22.614,48.973,22.857,49.034,23.11z"/>
		</g>
		<g id="XMLID_11193_">
			<path id="XMLID_11195_" opacity="0.6" fill="#F5F8F2" d="M48.444,16.165c-0.817-0.471-2.138-0.471-2.949,0
				c-0.362,0.212-0.563,0.479-0.6,0.753c0.04,0.276,0.244,0.546,0.608,0.755c0.817,0.472,2.14,0.472,2.952,0
				c0.359-0.209,0.56-0.474,0.597-0.747C49.015,16.647,48.811,16.377,48.444,16.165z M48.167,17.527c-0.654,0.38-1.72,0.38-2.379,0
				c-0.294-0.168-0.458-0.386-0.49-0.609c0.03-0.22,0.192-0.436,0.484-0.607c0.654-0.38,1.718-0.38,2.376,0
				c0.296,0.171,0.46,0.389,0.49,0.613C48.618,17.145,48.457,17.358,48.167,17.527z"/>
			<path id="XMLID_11194_" opacity="0.72" fill="#F5F8F2" d="M49.052,16.926c0,0-0.281-1.114-2.08-1.114
				c-1.83,0-2.077,1.106-2.077,1.106s-0.219,2.9,1.633,3.292c0.141,0.03,0.25,0.142,0.25,0.286v2.451c0,0,0.047,0.158,0.194,0.158
				c0.201,0,0.194-0.158,0.194-0.158V20.49c0-0.143,0.107-0.254,0.246-0.286C49.239,19.79,49.052,16.926,49.052,16.926z"/>
		</g>
	</g>
</g>
</svg>
