<?xml version="1.0" encoding="utf-8"?>
<!-- Generator: Adobe Illustrator 17.0.0, SVG Export Plug-In . SVG Version: 6.00 Build 0)  -->
<!DOCTYPE svg PUBLIC "-//W3C//DTD SVG 1.1//EN" "http://www.w3.org/Graphics/SVG/1.1/DTD/svg11.dtd">
<svg version="1.1" id="vista_mesas" xmlns="http://www.w3.org/2000/svg" xmlns:xlink="http://www.w3.org/1999/xlink" x="0px"
	 y="0px" width="357.082px" height="348.701px" viewBox="0 0 357.082 348.701" enable-background="new 0 0 357.082 348.701"
	 xml:space="preserve">
<symbol  id="sysbar_x5F_status_x5F_used_x5F_light" viewBox="0 -24 360 24">
	<polygon fill-opacity="0" points="360,-24 0,-24 0,0 360,0 	"/>
	<g>
		<g opacity="0.9">
			<polygon fill="none" points="352,-21 312,-21 312,-5 352,-5 			"/>
			<text transform="matrix(1 0 0 -1 316.46 -17)" fill="#FFFFFF" font-family="'Roboto-Medium'" font-size="14">12:30</text>
		</g>
		<g>
			<g opacity="0.9">
				<path opacity="0.9" fill="#FFFFFF" d="M266.006-18.992l8.802,10.907C274.467-7.828,271.081-5,266-5s-8.467-2.828-8.808-3.084
					l8.802-10.907L266-19l0,0l0,0L266.006-18.992z"/>
			</g>
			<polygon fill="none" points="274,-20 258,-20 258,-4 274,-4 			"/>
		</g>
		<g>
			<polygon opacity="0.9" fill="#FFFFFF" points="277,-18.997 291,-18.997 291,-4.997 			"/>
			<polygon fill="none" points="292,-20 276,-20 276,-4 292,-4 			"/>
		</g>
		<g>
			<polygon fill="none" points="312,-20 296,-20 296,-4 312,-4 			"/>
			<path opacity="0.9" fill="#FFFFFF" d="M306-6v1h-3v-1h-3v-13h9v13H306z"/>
		</g>
	</g>
</symbol>
<g id="Vista_mesa_y_puestos">
	<g display="none">
		<circle display="inline" opacity="0.5" cx="191" cy="92.402" r="42.167"/>
		<circle display="inline" fill="#FFFFFF" cx="183" cy="92.402" r="44.5"/>
		<radialGradient id="SVGID_1_" cx="183" cy="92.4017" r="43.2083" gradientUnits="userSpaceOnUse">
			<stop  offset="0.7592" style="stop-color:#FFFFFF"/>
			<stop  offset="0.8231" style="stop-color:#F7F7F7"/>
			<stop  offset="0.92" style="stop-color:#E2E2E2"/>
			<stop  offset="1" style="stop-color:#CCCCCC"/>
		</radialGradient>
		<circle display="inline" fill="url(#SVGID_1_)" cx="183" cy="92.402" r="43.208"/>
		
			<circle display="inline" fill="#FFFFFF" stroke="#EEEEEE" stroke-width="0.7196" stroke-miterlimit="10" cx="183" cy="92.402" r="30.583"/>
		<path display="inline" opacity="0.1" d="M183,61.818c-1.161,0-2.303,0.078-3.43,0.204c15.274,1.707,27.153,14.65,27.153,30.379
			c0,15.73-11.879,28.672-27.153,30.379c1.127,0.126,2.269,0.204,3.43,0.204c16.891,0,30.583-13.693,30.583-30.583
			C213.583,75.511,199.891,61.818,183,61.818z"/>
	</g>
	<g display="none">
		<circle display="inline" opacity="0.5" cx="111" cy="177.402" r="42.167"/>
		<circle display="inline" fill="#FFFFFF" cx="103" cy="177.402" r="44.5"/>
		<radialGradient id="SVGID_2_" cx="103" cy="177.4017" r="43.2083" gradientUnits="userSpaceOnUse">
			<stop  offset="0" style="stop-color:#FFFFFF"/>
			<stop  offset="0.2838" style="stop-color:#F5F5F5"/>
			<stop  offset="0.7567" style="stop-color:#DCDCDC"/>
			<stop  offset="1" style="stop-color:#CCCCCC"/>
		</radialGradient>
		<circle display="inline" fill="url(#SVGID_2_)" cx="103" cy="177.402" r="43.208"/>
		
			<circle display="inline" fill="#FAFAFA" stroke="#EEEEEE" stroke-width="0.4196" stroke-miterlimit="10" cx="103" cy="177.402" r="17.833"/>
		<path display="inline" opacity="0.1" d="M103,159.568c-0.677,0-1.343,0.046-2,0.119c8.906,0.995,15.833,8.542,15.833,17.714
			c0,9.172-6.927,16.719-15.833,17.714c0.657,0.073,1.323,0.119,2,0.119c9.849,0,17.833-7.984,17.833-17.833
			C120.833,167.553,112.849,159.568,103,159.568z"/>
	</g>
	<g display="none">
		<circle display="inline" opacity="0.5" cx="272" cy="177.402" r="42.167"/>
		<circle display="inline" fill="#FFFFFF" cx="264" cy="177.402" r="44.5"/>
		<radialGradient id="SVGID_3_" cx="264" cy="177.4017" r="43.2083" gradientUnits="userSpaceOnUse">
			<stop  offset="0" style="stop-color:#FFFFFF"/>
			<stop  offset="0.2838" style="stop-color:#F5F5F5"/>
			<stop  offset="0.7567" style="stop-color:#DCDCDC"/>
			<stop  offset="1" style="stop-color:#CCCCCC"/>
		</radialGradient>
		<circle display="inline" fill="url(#SVGID_3_)" cx="264" cy="177.402" r="43.208"/>
		
			<circle display="inline" fill="#FAFAFA" stroke="#EEEEEE" stroke-width="0.4196" stroke-miterlimit="10" cx="264" cy="177.402" r="17.833"/>
		<path display="inline" opacity="0.1" d="M264,159.568c-0.677,0-1.343,0.046-2,0.119c8.906,0.995,15.833,8.542,15.833,17.714
			c0,9.172-6.927,16.719-15.833,17.714c0.657,0.073,1.323,0.119,2,0.119c9.849,0,17.833-7.984,17.833-17.833
			C281.833,167.553,273.849,159.568,264,159.568z"/>
	</g>
	<g>
		<path fill="#BF4046" d="M23.197,46.998c0,0,4.803,3.16,4.803,21.02c0,20.333,0,20,0,20s-3.146,12-3.146,41
			s2.705,38.314,2.705,61.981c0,13.327-3.377,44.019,0.623,76.019c3.564,28.514-2.911,32.711-6.647,37.423
			c-8.551,10.788,10,15.91,10,15.91l14.387,11.11c0,0,7.618-6.443,41.618-6.443s26.917,3.25,45.917,3.25s28.417-3.25,40.417-3.25
			s33.334,2.5,40.334,2.5s36.333-2.5,46-2.5c11.125,0,41.25,0.75,51.506,6.812c6.963,4.116,12.828-11.479,12.828-11.479
			s6.12-11.787,12.353-14.02c0,0-8.686-16.314-8.686-36.314s3-50.667,3-66s-3-29.333-3-45.667s3.25-47.667,3.25-56.333
			s-3.25-31.333-3.25-36.333s4.138-15.737,7.642-21.877c2.854-4.999-4.642-21.123-11.309-14.457
			c-6.667,6.667-13.278-12.183-13.278-12.183s-7.389,7.85-37.722,7.85s-32.25-2.5-48.583-2.5s-29.083,2.5-42.75,2.5
			c-13.667,0-52.667-2.5-73-2.5s-30.333,2.5-41,2.5s-15.32-0.175-20.656-5.512s-9.66,5.429-16.083,8.081
			C18.468,32.955,23.197,46.998,23.197,46.998z"/>
		<radialGradient id="SVGID_4_" cx="35.5409" cy="33.3504" r="18.3333" gradientUnits="userSpaceOnUse">
			<stop  offset="0" style="stop-color:#8F3035"/>
			<stop  offset="0.1395" style="stop-color:#973338"/>
			<stop  offset="0.6862" style="stop-color:#B43C42"/>
			<stop  offset="1" style="stop-color:#BF4046"/>
		</radialGradient>
		<circle fill="url(#SVGID_4_)" cx="35.541" cy="33.35" r="18.333"/>
		<radialGradient id="SVGID_5_" cx="35.5409" cy="316.3504" r="18.3333" gradientUnits="userSpaceOnUse">
			<stop  offset="0" style="stop-color:#8F3035"/>
			<stop  offset="0.1395" style="stop-color:#973338"/>
			<stop  offset="0.6862" style="stop-color:#B43C42"/>
			<stop  offset="1" style="stop-color:#BF4046"/>
		</radialGradient>
		<circle fill="url(#SVGID_5_)" cx="35.541" cy="316.35" r="18.333"/>
		<radialGradient id="SVGID_6_" cx="321.5409" cy="32.3504" r="18.3333" gradientUnits="userSpaceOnUse">
			<stop  offset="0" style="stop-color:#8F3035"/>
			<stop  offset="0.1395" style="stop-color:#973338"/>
			<stop  offset="0.6862" style="stop-color:#B43C42"/>
			<stop  offset="1" style="stop-color:#BF4046"/>
		</radialGradient>
		<circle fill="url(#SVGID_6_)" cx="321.541" cy="32.35" r="18.333"/>
		<radialGradient id="SVGID_7_" cx="321.5409" cy="316.3504" r="18.3333" gradientUnits="userSpaceOnUse">
			<stop  offset="0" style="stop-color:#8F3035"/>
			<stop  offset="0.1395" style="stop-color:#973338"/>
			<stop  offset="0.6862" style="stop-color:#B43C42"/>
			<stop  offset="1" style="stop-color:#BF4046"/>
		</radialGradient>
		<circle fill="url(#SVGID_7_)" cx="321.541" cy="316.35" r="18.333"/>
		<path fill="#BF4046" d="M328,315.402c0,5.523-4.477,10-10,10H38c-5.523,0-10-4.477-10-10v-280c0-5.523,4.477-10,10-10h280
			c5.523,0,10,4.477,10,10V315.402z"/>
		<g id="XMLID_2_">
			<path display="none" fill="#BF4046" d="M325.708,28.417c6.34-3.89,12.83,10.68,10.14,15.39c-3.5,6.14-7.64,16.88-7.64,21.88
				v-30.67C328.208,32.487,327.268,30.177,325.708,28.417z"/>
			<path display="none" fill="#BF4046" d="M328.208,270.017c0,20,8.69,36.31,8.69,36.31c-3.2,1.15-6.36,4.8-8.69,8.09V270.017z"/>
			<linearGradient id="SVGID_8_" gradientUnits="userSpaceOnUse" x1="327.4576" y1="214.1821" x2="330.4576" y2="214.1821">
				<stop  offset="0" style="stop-color:#8F3035"/>
				<stop  offset="0.1395" style="stop-color:#973338"/>
				<stop  offset="0.6862" style="stop-color:#B43C42"/>
				<stop  offset="1" style="stop-color:#BF4046"/>
			</linearGradient>
			<path fill="url(#SVGID_8_)" d="M328.208,158.347c0,16.34,3,30.34,3,45.67s-3,46-3,66V158.347z"/>
			<linearGradient id="SVGID_9_" gradientUnits="userSpaceOnUse" x1="327.2076" y1="112.0171" x2="331.3401" y2="112.0171">
				<stop  offset="0" style="stop-color:#8F3035"/>
				<stop  offset="0.1395" style="stop-color:#973338"/>
				<stop  offset="0.6862" style="stop-color:#B43C42"/>
				<stop  offset="1" style="stop-color:#BF4046"/>
			</linearGradient>
			<path fill="url(#SVGID_9_)" d="M328.208,65.687c0,5,3.25,27.66,3.25,36.33s-3.25,40-3.25,56.33V65.687z"/>
			<path display="none" fill="#BF4046" d="M318.208,325.017c1.72,0,3.35-0.44,4.77-1.21c-2.19,4.33-6.46,10.86-11.26,8.02
				c-10.26-6.06-40.39-6.81-51.51-6.81H318.208z"/>
			<path display="none" fill="#BF4046" d="M314.948,25.017h-41.41c30.34,0,37.73-7.85,37.73-7.85S312.718,21.307,314.948,25.017z"/>
			<linearGradient id="SVGID_10_" gradientUnits="userSpaceOnUse" x1="227.8725" y1="25.6421" x2="227.8725" y2="23.1421">
				<stop  offset="0" style="stop-color:#8F3035"/>
				<stop  offset="0.1395" style="stop-color:#973338"/>
				<stop  offset="0.6862" style="stop-color:#B43C42"/>
				<stop  offset="1" style="stop-color:#BF4046"/>
			</linearGradient>
			<path fill="url(#SVGID_10_)" d="M273.538,25.017h-91.33c13.67,0,26.42-2.5,42.75-2.5S243.208,25.017,273.538,25.017z"/>
			<linearGradient id="SVGID_11_" gradientUnits="userSpaceOnUse" x1="217.0425" y1="327.5171" x2="217.0425" y2="324.2668">
				<stop  offset="0" style="stop-color:#BF4046"/>
				<stop  offset="0.3138" style="stop-color:#B43C42"/>
				<stop  offset="0.8605" style="stop-color:#973338"/>
				<stop  offset="1" style="stop-color:#8F3035"/>
			</linearGradient>
			<path fill="url(#SVGID_11_)" d="M173.878,325.017h86.33c-9.67,0-39,2.5-46,2.5S185.878,325.017,173.878,325.017z"/>
			<linearGradient id="SVGID_12_" gradientUnits="userSpaceOnUse" x1="125.2075" y1="25.6421" x2="125.2075" y2="23.1421">
				<stop  offset="0" style="stop-color:#8F3035"/>
				<stop  offset="0.1395" style="stop-color:#973338"/>
				<stop  offset="0.6862" style="stop-color:#B43C42"/>
				<stop  offset="1" style="stop-color:#BF4046"/>
			</linearGradient>
			<path fill="url(#SVGID_12_)" d="M182.208,25.017h-114c10.67,0,20.67-2.5,41-2.5S168.538,25.017,182.208,25.017z"/>
			<linearGradient id="SVGID_13_" gradientUnits="userSpaceOnUse" x1="130.7075" y1="328.2671" x2="130.7075" y2="323.8916">
				<stop  offset="0" style="stop-color:#BF4046"/>
				<stop  offset="0.3138" style="stop-color:#B43C42"/>
				<stop  offset="0.8605" style="stop-color:#973338"/>
				<stop  offset="1" style="stop-color:#8F3035"/>
			</linearGradient>
			<path fill="url(#SVGID_13_)" d="M87.538,325.017h86.34c-12,0-21.42,3.25-40.42,3.25S121.538,325.017,87.538,325.017z"/>
			<path display="none" fill="#BF4046" d="M38.208,325.017h49.33c-34,0-41.61,6.44-41.61,6.44l-8.37-6.46
				C37.768,325.007,37.988,325.017,38.208,325.017z"/>
			<path display="none" fill="#BF4046" d="M68.208,25.017h-30c-1.3,0-2.54,0.25-3.68,0.7c4.85-3.88,8.57-10.67,13.02-6.21
				C52.888,24.837,57.538,25.017,68.208,25.017z"/>
			<path display="none" fill="#BF4046" d="M31.518,27.587c-2.03,1.83-3.31,4.48-3.31,7.43v33c0-17.86-4.91-21.02-4.91-21.02
				S18.518,32.957,31.518,27.587z"/>
			<path display="none" fill="#BF4046" d="M28.208,315.017c0,1.65,0.4,3.2,1.11,4.57c-4.64-1.78-14.43-6.74-7.77-15.15
				c2.12-2.66,5.11-5.17,6.66-11.99V315.017z"/>
			<linearGradient id="SVGID_14_" gradientUnits="userSpaceOnUse" x1="26.2597" y1="229.0071" x2="29.5884" y2="229.0071">
				<stop  offset="0" style="stop-color:#BF4046"/>
				<stop  offset="0.3138" style="stop-color:#B43C42"/>
				<stop  offset="0.8605" style="stop-color:#973338"/>
				<stop  offset="1" style="stop-color:#8F3035"/>
			</linearGradient>
			<path fill="url(#SVGID_14_)" d="M28.208,190.997v76.02c-4-32-0.6-62.69-0.6-76.02H28.208z"/>
			<linearGradient id="SVGID_15_" gradientUnits="userSpaceOnUse" x1="24.9575" y1="139.5071" x2="29.7095" y2="139.5071">
				<stop  offset="0" style="stop-color:#BF4046"/>
				<stop  offset="0.3138" style="stop-color:#B43C42"/>
				<stop  offset="0.8605" style="stop-color:#973338"/>
				<stop  offset="1" style="stop-color:#8F3035"/>
			</linearGradient>
			<path fill="url(#SVGID_15_)" d="M28.208,88.017v102.98h-0.6c0-23.67-2.65-32.98-2.65-61.98S28.208,88.017,28.208,88.017z"/>
		</g>
	</g>
</g>
</svg>
