<?xml version="1.0" encoding="utf-8"?>
<!-- Generator: Adobe Illustrator 17.0.0, SVG Export Plug-In . SVG Version: 6.00 Build 0)  -->
<!DOCTYPE svg PUBLIC "-//W3C//DTD SVG 1.1//EN" "http://www.w3.org/Graphics/SVG/1.1/DTD/svg11.dtd">
<svg version="1.1" id="vista_mesas" xmlns="http://www.w3.org/2000/svg" xmlns:xlink="http://www.w3.org/1999/xlink" x="0px"
	 y="0px" width="357.082px" height="348.701px" viewBox="0 0 357.082 348.701" enable-background="new 0 0 357.082 348.701"
	 xml:space="preserve">
<symbol  id="sysbar_x5F_status_x5F_used_x5F_light" viewBox="0 -24 360 24">
	<polygon fill-opacity="0" points="360,-24 0,-24 0,0 360,0 	"/>
	<g>
		<g opacity="0.9">
			<polygon fill="none" points="352,-21 312,-21 312,-5 352,-5 			"/>
			<text transform="matrix(1 0 0 -1 316.46 -17)" fill="#FFFFFF" font-family="'Roboto-Medium'" font-size="14">12:30</text>
		</g>
		<g>
			<g opacity="0.9">
				<path opacity="0.9" fill="#FFFFFF" d="M266.006-18.992l8.802,10.907C274.467-7.828,271.081-5,266-5s-8.467-2.828-8.808-3.084
					l8.802-10.907L266-19l0,0l0,0L266.006-18.992z"/>
			</g>
			<polygon fill="none" points="274,-20 258,-20 258,-4 274,-4 			"/>
		</g>
		<g>
			<polygon opacity="0.9" fill="#FFFFFF" points="277,-18.997 291,-18.997 291,-4.997 			"/>
			<polygon fill="none" points="292,-20 276,-20 276,-4 292,-4 			"/>
		</g>
		<g>
			<polygon fill="none" points="312,-20 296,-20 296,-4 312,-4 			"/>
			<path opacity="0.9" fill="#FFFFFF" d="M306-6v1h-3v-1h-3v-13h9v13H306z"/>
		</g>
	</g>
</symbol>
<g id="Vista_mesa_y_puestos">
	<g display="none">
		<circle display="inline" opacity="0.5" cx="191" cy="92.402" r="42.167"/>
		<circle display="inline" fill="#FFFFFF" cx="183" cy="92.402" r="44.5"/>
		<radialGradient id="SVGID_1_" cx="183" cy="92.4017" r="43.2083" gradientUnits="userSpaceOnUse">
			<stop  offset="0.7592" style="stop-color:#FFFFFF"/>
			<stop  offset="0.8231" style="stop-color:#F7F7F7"/>
			<stop  offset="0.92" style="stop-color:#E2E2E2"/>
			<stop  offset="1" style="stop-color:#CCCCCC"/>
		</radialGradient>
		<circle display="inline" fill="url(#SVGID_1_)" cx="183" cy="92.402" r="43.208"/>
		
			<circle display="inline" fill="#FFFFFF" stroke="#EEEEEE" stroke-width="0.7196" stroke-miterlimit="10" cx="183" cy="92.402" r="30.583"/>
		<path display="inline" opacity="0.1" d="M183,61.818c-1.161,0-2.303,0.078-3.43,0.204c15.274,1.707,27.153,14.65,27.153,30.379
			c0,15.73-11.879,28.672-27.153,30.379c1.127,0.126,2.269,0.204,3.43,0.204c16.891,0,30.583-13.693,30.583-30.583
			C213.583,75.511,199.891,61.818,183,61.818z"/>
	</g>
	<g display="none">
		<circle display="inline" opacity="0.5" cx="111" cy="177.402" r="42.167"/>
		<circle display="inline" fill="#FFFFFF" cx="103" cy="177.402" r="44.5"/>
		<radialGradient id="SVGID_2_" cx="103" cy="177.4017" r="43.2083" gradientUnits="userSpaceOnUse">
			<stop  offset="0" style="stop-color:#FFFFFF"/>
			<stop  offset="0.2838" style="stop-color:#F5F5F5"/>
			<stop  offset="0.7567" style="stop-color:#DCDCDC"/>
			<stop  offset="1" style="stop-color:#CCCCCC"/>
		</radialGradient>
		<circle display="inline" fill="url(#SVGID_2_)" cx="103" cy="177.402" r="43.208"/>
		
			<circle display="inline" fill="#FAFAFA" stroke="#EEEEEE" stroke-width="0.4196" stroke-miterlimit="10" cx="103" cy="177.402" r="17.833"/>
		<path display="inline" opacity="0.1" d="M103,159.568c-0.677,0-1.343,0.046-2,0.119c8.906,0.995,15.833,8.542,15.833,17.714
			c0,9.172-6.927,16.719-15.833,17.714c0.657,0.073,1.323,0.119,2,0.119c9.849,0,17.833-7.984,17.833-17.833
			C120.833,167.553,112.849,159.568,103,159.568z"/>
	</g>
	<g display="none">
		<circle display="inline" opacity="0.5" cx="272" cy="177.402" r="42.167"/>
		<circle display="inline" fill="#FFFFFF" cx="264" cy="177.402" r="44.5"/>
		<radialGradient id="SVGID_3_" cx="264" cy="177.4017" r="43.2083" gradientUnits="userSpaceOnUse">
			<stop  offset="0" style="stop-color:#FFFFFF"/>
			<stop  offset="0.2838" style="stop-color:#F5F5F5"/>
			<stop  offset="0.7567" style="stop-color:#DCDCDC"/>
			<stop  offset="1" style="stop-color:#CCCCCC"/>
		</radialGradient>
		<circle display="inline" fill="url(#SVGID_3_)" cx="264" cy="177.402" r="43.208"/>
		
			<circle display="inline" fill="#FAFAFA" stroke="#EEEEEE" stroke-width="0.4196" stroke-miterlimit="10" cx="264" cy="177.402" r="17.833"/>
		<path display="inline" opacity="0.1" d="M264,159.568c-0.677,0-1.343,0.046-2,0.119c8.906,0.995,15.833,8.542,15.833,17.714
			c0,9.172-6.927,16.719-15.833,17.714c0.657,0.073,1.323,0.119,2,0.119c9.849,0,17.833-7.984,17.833-17.833
			C281.833,167.553,273.849,159.568,264,159.568z"/>
	</g>
	<g>
		<path fill="#BF4046" d="M23.197,46.998c0,0,4.803,3.16,4.803,21.02c0,20.333,0,20,0,20s-3.146,12-3.146,41
			s2.705,38.314,2.705,61.981c0,13.327-3.377,44.019,0.623,76.019c3.564,28.514-2.911,32.711-6.647,37.423
			c-8.551,10.788,10,15.91,10,15.91l14.387,11.11c0,0,7.618-6.443,41.618-6.443s26.917,3.25,45.917,3.25s28.417-3.25,40.417-3.25
			s33.334,2.5,40.334,2.5s36.333-2.5,46-2.5c11.125,0,41.25,0.75,51.506,6.812c6.963,4.116,12.828-11.479,12.828-11.479
			s6.12-11.787,12.353-14.02c0,0-8.686-16.314-8.686-36.314s3-50.667,3-66s-3-29.333-3-45.667s3.25-47.667,3.25-56.333
			s-3.25-31.333-3.25-36.333s4.138-15.737,7.642-21.877c2.854-4.999-4.642-21.123-11.309-14.457
			c-6.667,6.667-13.278-12.183-13.278-12.183s-7.389,7.85-37.722,7.85s-32.25-2.5-48.583-2.5s-29.083,2.5-42.75,2.5
			c-13.667,0-52.667-2.5-73-2.5s-30.333,2.5-41,2.5s-15.32-0.175-20.656-5.512s-9.66,5.429-16.083,8.081
			C18.468,32.955,23.197,46.998,23.197,46.998z"/>
		<radialGradient id="SVGID_4_" cx="35.5409" cy="33.3504" r="18.3333" gradientUnits="userSpaceOnUse">
			<stop  offset="0" style="stop-color:#8F3035"/>
			<stop  offset="0.1395" style="stop-color:#973338"/>
			<stop  offset="0.6862" style="stop-color:#B43C42"/>
			<stop  offset="1" style="stop-color:#BF4046"/>
		</radialGradient>
		<circle fill="url(#SVGID_4_)" cx="35.541" cy="33.35" r="18.333"/>
		<radialGradient id="SVGID_5_" cx="35.5409" cy="316.3504" r="18.3333" gradientUnits="userSpaceOnUse">
			<stop  offset="0" style="stop-color:#8F3035"/>
			<stop  offset="0.1395" style="stop-color:#973338"/>
			<stop  offset="0.6862" style="stop-color:#B43C42"/>
			<stop  offset="1" style="stop-color:#BF4046"/>
		</radialGradient>
		<circle fill="url(#SVGID_5_)" cx="35.541" cy="316.35" r="18.333"/>
		<radialGradient id="SVGID_6_" cx="321.5409" cy="32.3504" r="18.3333" gradientUnits="userSpaceOnUse">
			<stop  offset="0" style="stop-color:#8F3035"/>
			<stop  offset="0.1395" style="stop-color:#973338"/>
			<stop  offset="0.6862" style="stop-color:#B43C42"/>
			<stop  offset="1" style="stop-color:#BF4046"/>
		</radialGradient>
		<circle fill="url(#SVGID_6_)" cx="321.541" cy="32.35" r="18.333"/>
		<radialGradient id="SVGID_7_" cx="321.5409" cy="316.3504" r="18.3333" gradientUnits="userSpaceOnUse">
			<stop  offset="0" style="stop-color:#8F3035"/>
			<stop  offset="0.1395" style="stop-color:#973338"/>
			<stop  offset="0.6862" style="stop-color:#B43C42"/>
			<stop  offset="1" style="stop-color:#BF4046"/>
		</radialGradient>
		<circle fill="url(#SVGID_7_)" cx="321.541" cy="316.35" r="18.333"/>
		<path fill="#BF4046" d="M328,315.402c0,5.523-4.477,10-10,10H38c-5.523,0-10-4.477-10-10v-280c0-5.523,4.477-10,10-10h280
			c5.523,0,10,4.477,10,10V315.402z"/>
		<g id="XMLID_2_">
			<path display="none" fill="#BF4046" d="M325.708,28.417c6.34-3.89,12.83,10.68,10.14,15.39c-3.5,6.14-7.64,16.88-7.64,21.88
				v-30.67C328.208,32.487,327.268,30.177,325.708,28.417z"/>
			<path display="none" fill="#BF4046" d="M328.208,270.017c0,20,8.69,36.31,8.69,36.31c-3.2,1.15-6.36,4.8-8.69,8.09V270.017z"/>
			<linearGradient id="SVGID_8_" gradientUnits="userSpaceOnUse" x1="327.4576" y1="214.1821" x2="330.4576" y2="214.1821">
				<stop  offset="0" style="stop-color:#8F3035"/>
				<stop  offset="0.1395" style="stop-color:#973338"/>
				<stop  offset="0.6862" style="stop-color:#B43C42"/>
				<stop  offset="1" style="stop-color:#BF4046"/>
			</linearGradient>
			<path fill="url(#SVGID_8_)" d="M328.208,158.347c0,16.34,3,30.34,3,45.67s-3,46-3,66V158.347z"/>
			<linearGradient id="SVGID_9_" gradientUnits="userSpaceOnUse" x1="327.2076" y1="112.0171" x2="331.3401" y2="112.0171">
				<stop  offset="0" style="stop-color:#8F3035"/>
				<stop  offset="0.1395" style="stop-color:#973338"/>
				<stop  offset="0.6862" style="stop-color:#B43C42"/>
				<stop  offset="1" style="stop-color:#BF4046"/>
			</linearGradient>
			<path fill="url(#SVGID_9_)" d="M328.208,65.687c0,5,3.25,27.66,3.25,36.33s-3.25,40-3.25,56.33V65.687z"/>
			<path display="none" fill="#BF4046" d="M318.208,325.017c1.72,0,3.35-0.44,4.77-1.21c-2.19,4.33-6.46,10.86-11.26,8.02
				c-10.26-6.06-40.39-6.81-51.51-6.81H318.208z"/>
			<path display="none" fill="#BF4046" d="M314.948,25.017h-41.41c30.34,0,37.73-7.85,37.73-7.85S312.718,21.307,314.948,25.017z"/>
			<linearGradient id="SVGID_10_" gradientUnits="userSpaceOnUse" x1="227.8725" y1="25.6421" x2="227.8725" y2="23.1421">
				<stop  offset="0" style="stop-color:#8F3035"/>
				<stop  offset="0.1395" style="stop-color:#973338"/>
				<stop  offset="0.6862" style="stop-color:#B43C42"/>
				<stop  offset="1" style="stop-color:#BF4046"/>
			</linearGradient>
			<path fill="url(#SVGID_10_)" d="M273.538,25.017h-91.33c13.67,0,26.42-2.5,42.75-2.5S243.208,25.017,273.538,25.017z"/>
			<linearGradient id="SVGID_11_" gradientUnits="userSpaceOnUse" x1="217.0425" y1="327.5171" x2="217.0425" y2="324.2668">
				<stop  offset="0" style="stop-color:#BF4046"/>
				<stop  offset="0.3138" style="stop-color:#B43C42"/>
				<stop  offset="0.8605" style="stop-color:#973338"/>
				<stop  offset="1" style="stop-color:#8F3035"/>
			</linearGradient>
			<path fill="url(#SVGID_11_)" d="M173.878,325.017h86.33c-9.67,0-39,2.5-46,2.5S185.878,325.017,173.878,325.017z"/>
			<linearGradient id="SVGID_12_" gradientUnits="userSpaceOnUse" x1="125.2075" y1="25.6421" x2="125.2075" y2="23.1421">
				<stop  offset="0" style="stop-color:#8F3035"/>
				<stop  offset="0.1395" style="stop-color:#973338"/>
				<stop  offset="0.6862" style="stop-color:#B43C42"/>
				<stop  offset="1" style="stop-color:#BF4046"/>
			</linearGradient>
			<path fill="url(#SVGID_12_)" d="M182.208,25.017h-114c10.67,0,20.67-2.5,41-2.5S168.538,25.017,182.208,25.017z"/>
			<linearGradient id="SVGID_13_" gradientUnits="userSpaceOnUse" x1="130.7075" y1="328.2671" x2="130.7075" y2="323.8916">
				<stop  offset="0" style="stop-color:#BF4046"/>
				<stop  offset="0.3138" style="stop-color:#B43C42"/>
				<stop  offset="0.8605" style="stop-color:#973338"/>
				<stop  offset="1" style="stop-color:#8F3035"/>
			</linearGradient>
			<path fill="url(#SVGID_13_)" d="M87.538,325.017h86.34c-12,0-21.42,3.25-40.42,3.25S121.538,325.017,87.538,325.017z"/>
			<path display="none" fill="#BF4046" d="M38.208,325.017h49.33c-34,0-41.61,6.44-41.61,6.44l-8.37-6.46
				C37.768,325.007,37.988,325.017,38.208,325.017z"/>
			<path display="none" fill="#BF4046" d="M68.208,25.017h-30c-1.3,0-2.54,0.25-3.68,0.7c4.85-3.88,8.57-10.67,13.02-6.21
				C52.888,24.837,57.538,25.017,68.208,25.017z"/>
			<path display="none" fill="#BF4046" d="M31.518,27.587c-2.03,1.83-3.31,4.48-3.31,7.43v33c0-17.86-4.91-21.02-4.91-21.02
				S18.518,32.957,31.518,27.587z"/>
			<path display="none" fill="#BF4046" d="M28.208,315.017c0,1.65,0.4,3.2,1.11,4.57c-4.64-1.78-14.43-6.74-7.77-15.15
				c2.12-2.66,5.11-5.17,6.66-11.99V315.017z"/>
			<linearGradient id="SVGID_14_" gradientUnits="userSpaceOnUse" x1="26.2597" y1="229.0071" x2="29.5884" y2="229.0071">
				<stop  offset="0" style="stop-color:#BF4046"/>
				<stop  offset="0.3138" style="stop-color:#B43C42"/>
				<stop  offset="0.8605" style="stop-color:#973338"/>
				<stop  offset="1" style="stop-color:#8F3035"/>
			</linearGradient>
			<path fill="url(#SVGID_14_)" d="M28.208,190.997v76.02c-4-32-0.6-62.69-0.6-76.02H28.208z"/>
			<linearGradient id="SVGID_15_" gradientUnits="userSpaceOnUse" x1="24.9575" y1="139.5071" x2="29.7095" y2="139.5071">
				<stop  offset="0" style="stop-color:#BF4046"/>
				<stop  offset="0.3138" style="stop-color:#B43C42"/>
				<stop  offset="0.8605" style="stop-color:#973338"/>
				<stop  offset="1" style="stop-color:#8F3035"/>
			</linearGradient>
			<path fill="url(#SVGID_15_)" d="M28.208,88.017v102.98h-0.6c0-23.67-2.65-32.98-2.65-61.98S28.208,88.017,28.208,88.017z"/>
		</g>
		<g>
			<circle opacity="0.2" cx="180.187" cy="267.321" r="38.923"/>
			<circle fill="#FFFFFF" cx="178.123" cy="266.126" r="38.67"/>
			<radialGradient id="SVGID_16_" cx="178.1229" cy="266.1263" r="34.8319" gradientUnits="userSpaceOnUse">
				<stop  offset="0" style="stop-color:#FFFFFF"/>
				<stop  offset="0.4846" style="stop-color:#F5F5F5"/>
				<stop  offset="1" style="stop-color:#E6E6E6"/>
			</radialGradient>
			<circle fill="url(#SVGID_16_)" cx="178.123" cy="266.126" r="34.832"/>
			<circle fill="#FAFAFA" stroke="#E0E0E0" stroke-width="0.4413" stroke-miterlimit="10" cx="178.123" cy="266.126" r="18.756"/>
			<circle fill="none" stroke="#FFC107" stroke-width="1.738" stroke-miterlimit="10" cx="178.123" cy="266.126" r="34.796"/>
			<path opacity="0.5" fill="#FFFFFF" d="M205.467,238.783l-54.688,54.687c-15.102-15.102-15.102-39.586,0-54.687
				S190.365,223.681,205.467,238.783z"/>
			<path opacity="0.1" d="M161.974,266.126c0-9.976,7.794-18.109,17.621-18.699c-0.44-0.033-0.882-0.057-1.33-0.057
				c-10.359,0-18.756,8.397-18.756,18.756c0,10.359,8.397,18.756,18.756,18.756c0.448,0,0.89-0.024,1.329-0.057
				C169.767,284.235,161.974,276.102,161.974,266.126z"/>
		</g>
		<g>
			<circle opacity="0.2" cx="180.187" cy="85.321" r="38.923"/>
			<circle fill="#FFFFFF" cx="178.123" cy="84.126" r="38.67"/>
			<radialGradient id="SVGID_17_" cx="178.1229" cy="84.1263" r="34.8319" gradientUnits="userSpaceOnUse">
				<stop  offset="0" style="stop-color:#FFFFFF"/>
				<stop  offset="0.4846" style="stop-color:#F5F5F5"/>
				<stop  offset="1" style="stop-color:#E6E6E6"/>
			</radialGradient>
			<circle fill="url(#SVGID_17_)" cx="178.123" cy="84.126" r="34.832"/>
			<circle fill="#FAFAFA" stroke="#E0E0E0" stroke-width="0.4413" stroke-miterlimit="10" cx="178.123" cy="84.126" r="18.756"/>
			<circle fill="none" stroke="#FFC107" stroke-width="1.738" stroke-miterlimit="10" cx="178.123" cy="84.126" r="34.796"/>
			<path opacity="0.5" fill="#FFFFFF" d="M205.467,56.783l-54.688,54.688c-15.102-15.102-15.102-39.586,0-54.688
				S190.365,41.681,205.467,56.783z"/>
			<path opacity="0.1" d="M161.974,84.126c0-9.976,7.794-18.109,17.621-18.699c-0.44-0.033-0.882-0.057-1.33-0.057
				c-10.359,0-18.756,8.397-18.756,18.756c0,10.359,8.397,18.756,18.756,18.756c0.448,0,0.89-0.024,1.329-0.057
				C169.767,102.235,161.974,94.102,161.974,84.126z"/>
			<g id="XMLID_20_">
				<g opacity="0.6">
					<path id="XMLID_255_" d="M219.231,120.312l0.868,0.003l0.134-13.02c0.001-0.112,0.048-0.219,0.13-0.296
						c0.173-0.162,0.446-0.152,0.606,0.024l-0.195,13.294l0.868,0.003l0.087-12.955l0.033-0.042
						c0.176-0.228,0.539-0.142,0.594,0.141l0.058,12.859l0.965,0.003l0.135-12.859c0.057-0.282,0.42-0.366,0.595-0.137l0.032,0.042
						l0.009,12.955l0.916,0.003l-0.163-13.295c0.161-0.175,0.434-0.184,0.606-0.02c0.081,0.077,0.128,0.184,0.128,0.297
						l0.056,13.021l0.868,0.003l0.059-19.51c0.001-0.413-0.094-0.82-0.277-1.189l-1.721-3.469c-0.198-0.398-0.292-0.84-0.275-1.284
						l1.408-42.466c0.031-0.809-0.307-1.587-0.92-2.116l0,0c-0.992-0.855-2.46-0.86-3.458-0.01l0,0
						c-0.616,0.525-0.96,1.301-0.933,2.11l1.153,42.474c0.015,0.444-0.083,0.885-0.283,1.282l-1.742,3.458
						c-0.186,0.368-0.283,0.775-0.284,1.188L219.231,120.312z"/>
					<polygon id="XMLID_254_" points="221.216,80.791 221.48,90.521 224.557,88.57 224.893,78.459 					"/>
					<path id="XMLID_253_" d="M220.78,64.749l4.665-2.958l0.311-9.374c0.009-0.231-0.016-0.459-0.065-0.68l-5.175,3.282
						L220.78,64.749z"/>
					<polygon id="XMLID_252_" points="219.279,104.196 225.887,98.714 225.314,97.558 219.284,102.561 					"/>
					<polygon id="XMLID_251_" points="219.255,112.34 220.189,111.565 220.217,108.807 219.263,109.599 					"/>
					<path id="XMLID_246_" d="M222.356,107.463l0.01,2.295l1.133-0.94l0.014-1.352c0.057-0.282,0.42-0.366,0.595-0.137l0.032,0.042
						l0.001,0.914l0.769-0.638l-0.008-0.613c0.161-0.175,0.434-0.184,0.606-0.02c0.026,0.024,0.047,0.053,0.065,0.083l1.03-0.854
						l0.008-2.741l-4.475,3.713C222.243,107.25,222.331,107.335,222.356,107.463z"/>
					<polygon id="XMLID_238_" points="221.71,110.303 221.728,107.554 220.952,108.198 220.911,110.965 					"/>
				</g>
				<g>
					<g>
						<path id="XMLID_199_" fill="#CCCCCA" d="M218.362,119.443l0.868,0.003l0.134-13.02c0.001-0.112,0.048-0.219,0.13-0.296
							c0.173-0.162,0.446-0.152,0.606,0.024l-0.195,13.294l0.868,0.003l0.087-12.955l0.033-0.042
							c0.176-0.228,0.539-0.142,0.594,0.141l0.058,12.859l0.965,0.003l0.135-12.859c0.057-0.282,0.42-0.366,0.595-0.137l0.032,0.042
							l0.009,12.955l0.916,0.003l-0.163-13.295c0.161-0.175,0.434-0.184,0.606-0.02c0.081,0.077,0.128,0.184,0.128,0.297
							l0.056,13.021l0.868,0.003l0.059-19.51c0.001-0.413-0.094-0.82-0.277-1.189l-1.721-3.469c-0.198-0.398-0.292-0.84-0.275-1.284
							l1.408-42.466c0.031-0.809-0.307-1.587-0.92-2.116l0,0c-0.992-0.855-2.46-0.86-3.458-0.01l0,0
							c-0.616,0.525-0.96,1.301-0.933,2.11l1.153,42.474c0.015,0.444-0.083,0.885-0.283,1.282l-1.742,3.458
							c-0.186,0.368-0.283,0.775-0.284,1.188L218.362,119.443z"/>
						<polygon id="XMLID_198_" fill="#F2F2F2" points="220.347,79.922 220.611,89.652 223.688,87.701 224.024,77.59 						"/>
						<path id="XMLID_197_" fill="#F2F2F2" d="M219.911,63.88l4.665-2.958l0.311-9.374c0.009-0.231-0.016-0.459-0.065-0.68
							l-5.175,3.282L219.911,63.88z"/>
						<polygon id="XMLID_196_" fill="#F2F2F2" points="218.41,103.327 225.018,97.845 224.445,96.689 218.415,101.692 						"/>
						<g id="XMLID_192_">
							<polygon id="XMLID_195_" fill="#F2F2F2" points="218.386,111.471 219.32,110.696 219.348,107.938 218.394,108.73 							"/>
							<path id="XMLID_194_" fill="#F2F2F2" d="M221.487,106.594l0.01,2.295l1.133-0.94l0.014-1.352
								c0.057-0.282,0.42-0.366,0.595-0.137l0.032,0.042l0.001,0.914l0.769-0.638l-0.008-0.613c0.161-0.175,0.434-0.184,0.606-0.02
								c0.026,0.024,0.047,0.053,0.065,0.083l1.03-0.854l0.008-2.741l-4.475,3.713C221.374,106.381,221.462,106.466,221.487,106.594
								z"/>
							<polygon id="XMLID_193_" fill="#F2F2F2" points="220.841,109.434 220.859,106.685 220.083,107.329 220.042,110.096 							
								"/>
						</g>
					</g>
				</g>
			</g>
			<g id="XMLID_3_">
				<g opacity="0.6">
					<path id="XMLID_144_" d="M130.24,50.854l0.25,68.535c0.004,0.983,1.313,1.316,1.786,0.454l0,0
						c2.044-3.73,3.404-7.794,4.018-12.003l0.567-3.887c0.462-3.165-0.18-6.392-1.818-9.14l0,0
						c-1.439-2.413-2.114-5.205-1.936-8.009l1.872-29.59c0.112-1.775-0.069-3.557-0.537-5.273l0,0
						c-0.37-1.356-1.603-2.295-3.009-2.289l0,0C130.772,49.654,130.238,50.192,130.24,50.854z"/>
					<polygon id="XMLID_143_" points="130.318,72.202 130.354,82.077 133.533,80.061 134.186,69.749 					"/>
					<path id="XMLID_142_" d="M131.433,49.652c-0.661,0.002-1.195,0.54-1.193,1.202l0.019,5.068l4.451-2.823
						c-0.076-0.388-0.164-0.775-0.268-1.157C134.072,50.586,132.838,49.647,131.433,49.652z"/>
					<path id="XMLID_141_" d="M133.083,87.429l-2.701,2.241l0.006,1.626l2.756-2.286C133.094,88.485,133.073,87.958,133.083,87.429z
						"/>
					<path id="XMLID_140_" d="M130.464,112.107l0.01,2.726l5.351-4.439c0.187-0.844,0.344-1.696,0.47-2.554l0.095-0.648
						L130.464,112.107z"/>
				</g>
				<g>
					<g>
						<path id="XMLID_119_" fill="#CCCCCA" d="M129.371,49.985l0.25,68.535c0.004,0.983,1.313,1.316,1.786,0.454l0,0
							c2.044-3.73,3.404-7.794,4.018-12.003l0.567-3.887c0.462-3.165-0.18-6.392-1.818-9.14l0,0
							c-1.439-2.413-2.114-5.205-1.936-8.009l1.872-29.59c0.112-1.775-0.069-3.557-0.537-5.273l0,0
							c-0.37-1.356-1.603-2.295-3.009-2.289l0,0C129.903,48.786,129.369,49.323,129.371,49.985z"/>
						<polygon id="XMLID_118_" fill="#F2F2F2" points="129.449,71.333 129.485,81.208 132.664,79.192 133.317,68.88 						"/>
						<path id="XMLID_117_" fill="#F2F2F2" d="M130.564,48.783c-0.661,0.002-1.195,0.54-1.193,1.202l0.019,5.068l4.451-2.823
							c-0.076-0.388-0.164-0.775-0.268-1.157C133.203,49.717,131.969,48.778,130.564,48.783z"/>
						<path id="XMLID_116_" fill="#F2F2F2" d="M132.214,86.56l-2.701,2.241l0.006,1.626l2.756-2.286
							C132.225,87.616,132.204,87.089,132.214,86.56z"/>
						<path id="XMLID_115_" fill="#F2F2F2" d="M129.595,111.238l0.01,2.726l5.351-4.439c0.187-0.844,0.344-1.696,0.47-2.554
							l0.095-0.648L129.595,111.238z"/>
					</g>
				</g>
			</g>
		</g>
		<g id="XMLID_623_">
			<g opacity="0.6">
				<path id="XMLID_237_" d="M137.631,231.688l-0.868-0.003l-0.134,13.02c-0.001,0.112-0.048,0.219-0.13,0.296
					c-0.173,0.162-0.446,0.152-0.606-0.024l0.195-13.294l-0.868-0.003l-0.087,12.955l-0.033,0.042
					c-0.176,0.228-0.539,0.142-0.594-0.141l-0.058-12.859l-0.965-0.003l-0.135,12.859c-0.057,0.282-0.42,0.366-0.595,0.137
					l-0.032-0.042l-0.009-12.955l-0.916-0.003l0.163,13.295c-0.161,0.175-0.434,0.184-0.606,0.02
					c-0.081-0.077-0.128-0.184-0.128-0.297l-0.056-13.021l-0.868-0.003l-0.059,19.51c-0.001,0.413,0.094,0.82,0.277,1.189
					l1.721,3.469c0.198,0.398,0.292,0.84,0.275,1.284l-1.408,42.466c-0.031,0.809,0.307,1.587,0.92,2.116l0,0
					c0.992,0.855,2.46,0.86,3.458,0.01l0,0c0.616-0.525,0.96-1.301,0.933-2.11l-1.153-42.474c-0.015-0.444,0.083-0.885,0.283-1.282
					l1.742-3.458c0.186-0.368,0.283-0.775,0.284-1.188L137.631,231.688z"/>
				<polygon id="XMLID_236_" points="135.646,271.209 135.381,261.479 132.304,263.43 131.969,273.541 				"/>
				<path id="XMLID_235_" d="M136.081,287.251l-4.665,2.958l-0.311,9.374c-0.009,0.231,0.016,0.459,0.065,0.68l5.175-3.282
					L136.081,287.251z"/>
				<polygon id="XMLID_234_" points="137.582,247.805 130.974,253.287 131.548,254.442 137.577,249.44 				"/>
				<polygon id="XMLID_233_" points="137.607,239.66 136.672,240.436 136.644,243.193 137.599,242.401 				"/>
				<path id="XMLID_232_" d="M134.505,244.538l-0.01-2.295l-1.133,0.94l-0.014,1.352c-0.057,0.282-0.42,0.366-0.595,0.137
					l-0.032-0.042l-0.001-0.914l-0.769,0.638l0.008,0.613c-0.161,0.175-0.434,0.184-0.606,0.02
					c-0.026-0.025-0.047-0.053-0.065-0.083l-1.03,0.854l-0.008,2.741l4.475-3.713C134.619,244.75,134.53,244.665,134.505,244.538z"
					/>
				<polygon id="XMLID_231_" points="135.152,241.697 135.133,244.447 135.909,243.803 135.95,241.035 				"/>
			</g>
			<g>
				<g>
					<path id="XMLID_191_" fill="#CCCCCA" d="M136.762,230.819l-0.868-0.003l-0.134,13.02c-0.001,0.112-0.048,0.219-0.13,0.296
						c-0.173,0.162-0.446,0.152-0.606-0.024l0.195-13.294l-0.868-0.003l-0.087,12.955l-0.033,0.042
						c-0.176,0.228-0.539,0.142-0.594-0.141l-0.058-12.859l-0.965-0.003l-0.135,12.859c-0.057,0.282-0.42,0.366-0.595,0.137
						l-0.032-0.042l-0.009-12.955l-0.916-0.003l0.163,13.295c-0.161,0.175-0.434,0.184-0.606,0.02
						c-0.081-0.077-0.128-0.184-0.128-0.297l-0.056-13.021l-0.868-0.003l-0.059,19.51c-0.001,0.413,0.094,0.82,0.277,1.189
						l1.721,3.469c0.198,0.398,0.292,0.84,0.275,1.284l-1.408,42.466c-0.031,0.809,0.307,1.587,0.92,2.116l0,0
						c0.992,0.855,2.46,0.86,3.458,0.01l0,0c0.616-0.525,0.96-1.301,0.933-2.11l-1.153-42.474c-0.015-0.444,0.083-0.885,0.283-1.282
						l1.742-3.458c0.186-0.368,0.283-0.775,0.284-1.188L136.762,230.819z"/>
					<polygon id="XMLID_190_" fill="#F2F2F2" points="134.777,270.34 134.512,260.61 131.435,262.561 131.1,272.672 					"/>
					<path id="XMLID_189_" fill="#F2F2F2" d="M135.212,286.382l-4.665,2.958l-0.311,9.374c-0.009,0.231,0.016,0.459,0.065,0.68
						l5.175-3.282L135.212,286.382z"/>
					<polygon id="XMLID_188_" fill="#F2F2F2" points="136.713,246.936 130.105,252.418 130.679,253.573 136.709,248.571 					"/>
					<g id="XMLID_184_">
						<polygon id="XMLID_187_" fill="#F2F2F2" points="136.738,238.791 135.803,239.567 135.775,242.324 136.73,241.532 						"/>
						<path id="XMLID_186_" fill="#F2F2F2" d="M133.636,243.669l-0.01-2.295l-1.133,0.94l-0.014,1.352
							c-0.057,0.282-0.42,0.366-0.595,0.137l-0.032-0.042l-0.001-0.914l-0.769,0.638l0.008,0.613
							c-0.161,0.175-0.434,0.184-0.606,0.02c-0.026-0.025-0.047-0.053-0.065-0.083l-1.03,0.854l-0.008,2.741l4.475-3.713
							C133.75,243.881,133.661,243.796,133.636,243.669z"/>
						<polygon id="XMLID_185_" fill="#F2F2F2" points="134.283,240.828 134.264,243.578 135.04,242.934 135.081,240.166 						"/>
					</g>
				</g>
			</g>
		</g>
		<g id="XMLID_42_">
			<g opacity="0.6">
				<path id="XMLID_152_" d="M226.621,301.131l-0.25-68.535c-0.004-0.983-1.313-1.316-1.786-0.454l0,0
					c-2.044,3.73-3.404,7.794-4.018,12.003L220,248.032c-0.462,3.165,0.18,6.392,1.818,9.14l0,0
					c1.439,2.413,2.114,5.205,1.936,8.009l-1.872,29.59c-0.112,1.775,0.069,3.557,0.537,5.273l0,0
					c0.37,1.356,1.603,2.295,3.009,2.289l0,0C226.09,302.331,226.624,301.793,226.621,301.131z"/>
				<polygon id="XMLID_151_" points="226.543,279.783 226.507,269.908 223.328,271.924 222.676,282.236 				"/>
				<path id="XMLID_150_" d="M225.429,302.333c0.661-0.002,1.195-0.54,1.193-1.202l-0.019-5.068l-4.451,2.823
					c0.076,0.388,0.164,0.775,0.268,1.157C222.79,301.399,224.023,302.338,225.429,302.333z"/>
				<path id="XMLID_149_" d="M223.778,264.556l2.701-2.241l-0.006-1.626l-2.756,2.286
					C223.768,263.5,223.788,264.027,223.778,264.556z"/>
				<path id="XMLID_148_" d="M226.397,239.878l-0.01-2.726l-5.351,4.439c-0.187,0.844-0.344,1.696-0.47,2.554l-0.095,0.648
					L226.397,239.878z"/>
			</g>
			<g>
				<g>
					<path id="XMLID_114_" fill="#CCCCCA" d="M225.752,300.262l-0.25-68.535c-0.004-0.983-1.313-1.316-1.786-0.454l0,0
						c-2.044,3.73-3.404,7.794-4.018,12.003l-0.567,3.887c-0.462,3.165,0.18,6.392,1.818,9.14l0,0
						c1.439,2.413,2.114,5.205,1.936,8.009l-1.872,29.59c-0.112,1.775,0.069,3.557,0.537,5.273l0,0
						c0.37,1.356,1.603,2.295,3.009,2.289l0,0C225.221,301.462,225.755,300.924,225.752,300.262z"/>
					<polygon id="XMLID_113_" fill="#F2F2F2" points="225.674,278.914 225.638,269.039 222.459,271.055 221.807,281.367 					"/>
					<path id="XMLID_112_" fill="#F2F2F2" d="M224.56,301.464c0.661-0.002,1.195-0.54,1.193-1.202l-0.019-5.068l-4.451,2.823
						c0.076,0.388,0.164,0.775,0.268,1.157C221.921,300.53,223.154,301.469,224.56,301.464z"/>
					<path id="XMLID_111_" fill="#F2F2F2" d="M222.91,263.687l2.701-2.241l-0.006-1.626l-2.756,2.286
						C222.899,262.631,222.919,263.158,222.91,263.687z"/>
					<path id="XMLID_110_" fill="#F2F2F2" d="M225.528,239.009l-0.01-2.726l-5.351,4.439c-0.187,0.844-0.344,1.696-0.47,2.554
						l-0.095,0.648L225.528,239.009z"/>
				</g>
			</g>
		</g>
		<g>
			<circle opacity="0.2" cx="91.187" cy="175.321" r="38.923"/>
			<circle fill="#FFFFFF" cx="89.123" cy="174.126" r="38.67"/>
			<radialGradient id="SVGID_18_" cx="89.1229" cy="174.1263" r="34.8319" gradientUnits="userSpaceOnUse">
				<stop  offset="0" style="stop-color:#FFFFFF"/>
				<stop  offset="0.4846" style="stop-color:#F5F5F5"/>
				<stop  offset="1" style="stop-color:#E6E6E6"/>
			</radialGradient>
			<circle fill="url(#SVGID_18_)" cx="89.123" cy="174.126" r="34.832"/>
			<circle fill="#FAFAFA" stroke="#E0E0E0" stroke-width="0.4413" stroke-miterlimit="10" cx="89.123" cy="174.126" r="18.756"/>
			<circle fill="none" stroke="#FFC107" stroke-width="1.738" stroke-miterlimit="10" cx="89.123" cy="174.126" r="34.796"/>
			<path opacity="0.5" fill="#FFFFFF" d="M116.467,146.783L61.779,201.47c-15.102-15.102-15.102-39.586,0-54.688
				S101.365,131.681,116.467,146.783z"/>
			<path opacity="0.1" d="M72.974,174.126c0-9.976,7.794-18.109,17.621-18.699c-0.44-0.033-0.882-0.057-1.33-0.057
				c-10.359,0-18.756,8.397-18.756,18.756c0,10.359,8.397,18.756,18.756,18.756c0.448,0,0.89-0.024,1.329-0.057
				C80.767,192.235,72.974,184.102,72.974,174.126z"/>
		</g>
		<g id="XMLID_28_">
			<g opacity="0.6">
				<path id="XMLID_245_" d="M124.738,134.195l0.003-0.868l-13.02-0.134c-0.112-0.001-0.219-0.048-0.296-0.13
					c-0.162-0.173-0.152-0.446,0.024-0.606l13.294,0.195l0.003-0.868l-12.955-0.087l-0.042-0.033
					c-0.228-0.176-0.142-0.539,0.141-0.594l12.859-0.058l0.003-0.965l-12.859-0.135c-0.282-0.057-0.366-0.42-0.137-0.595
					l0.042-0.032l12.955-0.009l0.003-0.916l-13.295,0.163c-0.175-0.161-0.184-0.434-0.02-0.606c0.077-0.081,0.184-0.128,0.297-0.128
					l13.021-0.056l0.003-0.868l-19.51-0.059c-0.413-0.001-0.82,0.094-1.189,0.277l-3.469,1.721c-0.398,0.198-0.84,0.292-1.284,0.275
					l-42.466-1.408c-0.809-0.031-1.587,0.307-2.116,0.92l0,0c-0.855,0.992-0.86,2.46-0.01,3.458l0,0
					c0.525,0.616,1.301,0.96,2.11,0.933l42.474-1.153c0.444-0.015,0.885,0.083,1.282,0.283l3.458,1.742
					c0.368,0.186,0.775,0.283,1.188,0.284L124.738,134.195z"/>
				<polygon id="XMLID_244_" points="85.217,132.21 94.947,131.946 92.996,128.869 82.885,128.533 				"/>
				<path id="XMLID_243_" d="M69.175,132.646l-2.958-4.665l-9.374-0.311c-0.231-0.009-0.459,0.016-0.68,0.065l3.282,5.175
					L69.175,132.646z"/>
				<polygon id="XMLID_242_" points="108.621,134.147 103.139,127.539 101.984,128.112 106.986,134.142 				"/>
				<polygon id="XMLID_241_" points="116.766,134.171 115.99,133.237 113.233,133.208 114.025,134.163 				"/>
				<path id="XMLID_240_" d="M111.888,131.07l2.295-0.01l-0.94-1.133l-1.352-0.014c-0.282-0.057-0.366-0.42-0.137-0.595l0.042-0.032
					l0.914-0.001l-0.638-0.769l-0.613,0.008c-0.175-0.161-0.184-0.434-0.02-0.606c0.024-0.026,0.053-0.047,0.083-0.065l-0.854-1.03
					l-2.741-0.008l3.713,4.475C111.676,131.183,111.761,131.095,111.888,131.07z"/>
				<polygon id="XMLID_239_" points="114.729,131.716 111.979,131.698 112.623,132.474 115.391,132.515 				"/>
			</g>
			<g>
				<g>
					<path id="XMLID_207_" fill="#CCCCCA" d="M123.869,133.326l0.003-0.868l-13.02-0.134c-0.112-0.001-0.219-0.048-0.296-0.13
						c-0.162-0.173-0.152-0.446,0.024-0.606l13.294,0.195l0.003-0.868l-12.955-0.087l-0.042-0.033
						c-0.228-0.176-0.142-0.539,0.141-0.594l12.859-0.058l0.003-0.965l-12.859-0.135c-0.282-0.057-0.366-0.42-0.137-0.595
						l0.042-0.032l12.955-0.009l0.003-0.916l-13.295,0.163c-0.175-0.161-0.184-0.434-0.02-0.606
						c0.077-0.081,0.184-0.128,0.297-0.128l13.021-0.056l0.003-0.868l-19.51-0.059c-0.413-0.001-0.82,0.094-1.189,0.277
						l-3.469,1.721c-0.398,0.198-0.84,0.292-1.284,0.275l-42.466-1.408c-0.809-0.031-1.587,0.307-2.116,0.92l0,0
						c-0.855,0.992-0.86,2.46-0.01,3.458l0,0c0.525,0.616,1.301,0.96,2.11,0.933l42.474-1.153c0.444-0.015,0.885,0.083,1.282,0.283
						l3.458,1.742c0.368,0.186,0.775,0.283,1.188,0.284L123.869,133.326z"/>
					<polygon id="XMLID_206_" fill="#F2F2F2" points="84.348,131.341 94.078,131.077 92.127,128 82.016,127.664 					"/>
					<path id="XMLID_205_" fill="#F2F2F2" d="M68.306,131.777l-2.958-4.665l-9.374-0.311c-0.231-0.009-0.459,0.016-0.68,0.065
						l3.282,5.175L68.306,131.777z"/>
					<polygon id="XMLID_204_" fill="#F2F2F2" points="107.752,133.278 102.27,126.67 101.115,127.243 106.117,133.273 					"/>
					<g id="XMLID_200_">
						<polygon id="XMLID_203_" fill="#F2F2F2" points="115.897,133.302 115.121,132.368 112.364,132.34 113.156,133.294 						"/>
						<path id="XMLID_202_" fill="#F2F2F2" d="M111.019,130.201l2.295-0.01l-0.94-1.133l-1.352-0.014
							c-0.282-0.057-0.366-0.42-0.137-0.595l0.042-0.032l0.914-0.001l-0.638-0.769l-0.613,0.008
							c-0.175-0.161-0.184-0.434-0.02-0.606c0.024-0.026,0.053-0.047,0.083-0.065l-0.854-1.03l-2.741-0.008l3.713,4.475
							C110.807,130.314,110.892,130.226,111.019,130.201z"/>
						<polygon id="XMLID_201_" fill="#F2F2F2" points="113.86,130.847 111.11,130.829 111.754,131.605 114.522,131.646 						"/>
					</g>
				</g>
			</g>
		</g>
		<g id="XMLID_4_">
			<g opacity="0.6">
				<path id="XMLID_160_" d="M55.295,223.186l68.535-0.25c0.983-0.004,1.316-1.313,0.454-1.786l0,0
					c-3.73-2.044-7.794-3.404-12.003-4.018l-3.887-0.567c-3.165-0.462-6.392,0.18-9.14,1.818l0,0
					c-2.413,1.439-5.205,2.114-8.009,1.936l-29.59-1.872c-1.775-0.112-3.557,0.069-5.273,0.537l0,0
					c-1.356,0.37-2.295,1.603-2.289,3.009l0,0C54.095,222.654,54.633,223.188,55.295,223.186z"/>
				<polygon id="XMLID_157_" points="76.643,223.108 86.518,223.072 84.502,219.893 74.19,219.24 				"/>
				<path id="XMLID_156_" d="M54.093,221.993c0.002,0.661,0.54,1.195,1.202,1.193l5.068-0.019l-2.823-4.451
					c-0.388,0.076-0.775,0.164-1.157,0.268C55.027,219.354,54.088,220.588,54.093,221.993z"/>
				<path id="XMLID_155_" d="M91.87,220.343l2.241,2.701l1.626-0.006l-2.286-2.756C92.926,220.332,92.399,220.353,91.87,220.343z"/>
				<path id="XMLID_154_" d="M116.548,222.962l2.726-0.01l-4.439-5.351c-0.844-0.187-1.696-0.344-2.554-0.47l-0.648-0.095
					L116.548,222.962z"/>
			</g>
			<g>
				<g>
					<path id="XMLID_125_" fill="#CCCCCA" d="M54.426,222.317l68.535-0.25c0.983-0.004,1.316-1.313,0.454-1.786l0,0
						c-3.73-2.044-7.794-3.404-12.003-4.018l-3.887-0.567c-3.165-0.462-6.392,0.18-9.14,1.818l0,0
						c-2.413,1.439-5.205,2.114-8.009,1.936l-29.59-1.872c-1.775-0.112-3.557,0.069-5.273,0.537l0,0
						c-1.356,0.37-2.295,1.603-2.289,3.009l0,0C53.226,221.785,53.764,222.319,54.426,222.317z"/>
					<polygon id="XMLID_124_" fill="#F2F2F2" points="75.774,222.239 85.649,222.203 83.633,219.024 73.321,218.371 					"/>
					<path id="XMLID_123_" fill="#F2F2F2" d="M53.224,221.124c0.002,0.661,0.54,1.195,1.202,1.193l5.068-0.019l-2.823-4.451
						c-0.388,0.076-0.775,0.164-1.157,0.268C54.158,218.485,53.219,219.719,53.224,221.124z"/>
					<path id="XMLID_122_" fill="#F2F2F2" d="M91.001,219.474l2.241,2.701l1.626-0.006l-2.286-2.756
						C92.057,219.463,91.53,219.484,91.001,219.474z"/>
					<path id="XMLID_121_" fill="#F2F2F2" d="M115.679,222.093l2.726-0.01l-4.439-5.351c-0.844-0.187-1.696-0.344-2.554-0.47
						l-0.648-0.095L115.679,222.093z"/>
				</g>
			</g>
		</g>
		<g>
			<circle opacity="0.2" cx="268.187" cy="175.321" r="38.923"/>
			<circle fill="#FFFFFF" cx="266.123" cy="174.126" r="38.67"/>
			<radialGradient id="SVGID_19_" cx="266.1229" cy="174.1263" r="34.8319" gradientUnits="userSpaceOnUse">
				<stop  offset="0" style="stop-color:#FFFFFF"/>
				<stop  offset="0.4846" style="stop-color:#F5F5F5"/>
				<stop  offset="1" style="stop-color:#E6E6E6"/>
			</radialGradient>
			<circle fill="url(#SVGID_19_)" cx="266.123" cy="174.126" r="34.832"/>
			<circle fill="#FAFAFA" stroke="#E0E0E0" stroke-width="0.4413" stroke-miterlimit="10" cx="266.123" cy="174.126" r="18.756"/>
			<circle fill="none" stroke="#FFC107" stroke-width="1.738" stroke-miterlimit="10" cx="266.123" cy="174.126" r="34.796"/>
			<path opacity="0.5" fill="#FFFFFF" d="M293.467,146.783l-54.688,54.688c-15.102-15.102-15.102-39.586,0-54.688
				S278.365,131.681,293.467,146.783z"/>
			<path opacity="0.1" d="M249.974,174.126c0-9.976,7.794-18.109,17.621-18.699c-0.44-0.033-0.882-0.057-1.33-0.057
				c-10.359,0-18.756,8.397-18.756,18.756c0,10.359,8.397,18.756,18.756,18.756c0.448,0,0.89-0.024,1.329-0.057
				C257.767,192.235,249.974,184.102,249.974,174.126z"/>
		</g>
		<g id="XMLID_35_">
			<g opacity="0.6">
				<path id="XMLID_258_" d="M231.124,215.795l-0.003,0.868l13.02,0.134c0.112,0.001,0.219,0.048,0.296,0.13
					c0.162,0.173,0.152,0.446-0.024,0.606l-13.294-0.195l-0.003,0.868l12.955,0.087l0.042,0.033
					c0.228,0.176,0.142,0.539-0.141,0.594l-12.859,0.058l-0.003,0.965l12.859,0.135c0.282,0.057,0.366,0.42,0.137,0.595
					l-0.042,0.032l-12.955,0.009l-0.003,0.916l13.295-0.163c0.175,0.161,0.184,0.434,0.02,0.606
					c-0.077,0.081-0.184,0.128-0.297,0.128l-13.021,0.056l-0.003,0.868l19.51,0.059c0.413,0.001,0.82-0.094,1.189-0.277l3.469-1.721
					c0.398-0.198,0.84-0.292,1.284-0.275l42.466,1.408c0.809,0.031,1.587-0.307,2.116-0.92l0,0c0.855-0.992,0.86-2.46,0.01-3.458v0
					c-0.525-0.616-1.301-0.96-2.11-0.933l-42.474,1.153c-0.444,0.015-0.885-0.083-1.282-0.283l-3.458-1.742
					c-0.368-0.186-0.775-0.283-1.188-0.284L231.124,215.795z"/>
				<polygon id="XMLID_257_" points="270.645,217.78 260.914,218.045 262.866,221.122 272.976,221.457 				"/>
				<path id="XMLID_256_" d="M286.687,217.345l2.958,4.665l9.374,0.311c0.231,0.009,0.459-0.016,0.68-0.065l-3.282-5.175
					L286.687,217.345z"/>
				<polygon id="XMLID_250_" points="247.24,215.844 252.722,222.452 253.877,221.878 248.875,215.848 				"/>
				<polygon id="XMLID_249_" points="239.096,215.819 239.871,216.754 242.629,216.782 241.837,215.827 				"/>
				<path id="XMLID_248_" d="M243.973,218.921l-2.295,0.01l0.94,1.133l1.352,0.014c0.282,0.057,0.366,0.42,0.137,0.595l-0.042,0.032
					l-0.914,0.001l0.638,0.769l0.613-0.008c0.175,0.161,0.184,0.434,0.02,0.606c-0.025,0.026-0.053,0.047-0.083,0.065l0.854,1.03
					l2.741,0.008l-3.713-4.475C244.185,218.807,244.101,218.896,243.973,218.921z"/>
				<polygon id="XMLID_247_" points="241.133,218.274 243.882,218.293 243.238,217.516 240.47,217.476 				"/>
			</g>
			<g>
				<g>
					<path id="XMLID_215_" fill="#CCCCCA" d="M230.255,214.926l-0.003,0.868l13.02,0.134c0.112,0.001,0.219,0.048,0.296,0.13
						c0.162,0.173,0.152,0.446-0.024,0.606l-13.294-0.195l-0.003,0.868l12.955,0.087l0.042,0.033
						c0.228,0.176,0.142,0.539-0.141,0.594l-12.859,0.058l-0.003,0.965l12.859,0.135c0.282,0.057,0.366,0.42,0.137,0.595
						l-0.042,0.032l-12.955,0.009l-0.003,0.916l13.295-0.163c0.175,0.161,0.184,0.434,0.02,0.606
						c-0.077,0.081-0.184,0.128-0.297,0.128l-13.021,0.056l-0.003,0.868l19.51,0.059c0.413,0.001,0.82-0.094,1.189-0.277
						l3.469-1.721c0.398-0.198,0.84-0.292,1.284-0.275l42.466,1.408c0.809,0.031,1.587-0.307,2.116-0.92l0,0
						c0.855-0.992,0.86-2.46,0.01-3.458l0,0c-0.525-0.616-1.301-0.96-2.11-0.933l-42.474,1.153
						c-0.444,0.015-0.885-0.083-1.282-0.283l-3.458-1.742c-0.368-0.186-0.775-0.283-1.188-0.284L230.255,214.926z"/>
					<polygon id="XMLID_214_" fill="#F2F2F2" points="269.776,216.911 260.045,217.176 261.997,220.253 272.107,220.588 					"/>
					<path id="XMLID_213_" fill="#F2F2F2" d="M285.818,216.476l2.958,4.665l9.374,0.311c0.231,0.009,0.459-0.016,0.68-0.065
						l-3.282-5.175L285.818,216.476z"/>
					<polygon id="XMLID_212_" fill="#F2F2F2" points="246.371,214.975 251.853,221.583 253.008,221.009 248.006,214.979 					"/>
					<g id="XMLID_208_">
						<polygon id="XMLID_211_" fill="#F2F2F2" points="238.227,214.95 239.002,215.885 241.76,215.913 240.968,214.958 						"/>
						<path id="XMLID_210_" fill="#F2F2F2" d="M243.104,218.052l-2.295,0.01l0.94,1.133l1.352,0.014
							c0.282,0.057,0.366,0.42,0.137,0.595l-0.042,0.032l-0.914,0.001l0.638,0.769l0.613-0.008c0.175,0.161,0.184,0.434,0.02,0.606
							c-0.024,0.026-0.053,0.047-0.083,0.065l0.854,1.03l2.741,0.008l-3.713-4.475C243.316,217.938,243.232,218.027,243.104,218.052
							z"/>
						<polygon id="XMLID_209_" fill="#F2F2F2" points="240.264,217.405 243.013,217.424 242.369,216.647 239.601,216.607 						"/>
					</g>
				</g>
			</g>
		</g>
		<g id="XMLID_5_">
			<g opacity="0.6">
				<path id="XMLID_158_" d="M300.567,126.805l-68.535,0.25c-0.983,0.004-1.316,1.313-0.454,1.786l0,0
					c3.73,2.044,7.794,3.404,12.003,4.018l3.887,0.567c3.165,0.462,6.392-0.18,9.14-1.818l0,0c2.413-1.439,5.205-2.114,8.009-1.936
					l29.59,1.872c1.775,0.112,3.557-0.069,5.273-0.537l0,0c1.356-0.37,2.295-1.603,2.289-3.009l0,0
					C301.766,127.336,301.228,126.802,300.567,126.805z"/>
				<polygon id="XMLID_153_" points="279.218,126.883 269.343,126.919 271.36,130.098 281.671,130.75 				"/>
				<path id="XMLID_147_" d="M301.768,127.997c-0.002-0.661-0.54-1.195-1.202-1.193l-5.068,0.019l2.823,4.451
					c0.388-0.076,0.775-0.164,1.157-0.268C300.835,130.636,301.774,129.403,301.768,127.997z"/>
				<path id="XMLID_146_" d="M263.992,129.647l-2.241-2.701l-1.626,0.006l2.286,2.756
					C262.935,129.658,263.463,129.638,263.992,129.647z"/>
				<path id="XMLID_145_" d="M239.313,127.028l-2.726,0.01l4.439,5.351c0.844,0.187,1.696,0.344,2.554,0.47l0.648,0.095
					L239.313,127.028z"/>
			</g>
			<g>
				<g>
					<path id="XMLID_129_" fill="#CCCCCA" d="M299.698,125.936l-68.535,0.25c-0.983,0.004-1.316,1.313-0.454,1.786l0,0
						c3.73,2.044,7.794,3.404,12.003,4.018l3.887,0.567c3.165,0.462,6.392-0.18,9.14-1.818l0,0c2.413-1.439,5.205-2.114,8.009-1.936
						l29.59,1.872c1.775,0.112,3.557-0.069,5.273-0.537l0,0c1.356-0.37,2.295-1.603,2.289-3.009l0,0
						C300.897,126.467,300.359,125.933,299.698,125.936z"/>
					<polygon id="XMLID_128_" fill="#F2F2F2" points="278.349,126.014 268.474,126.05 270.491,129.229 280.802,129.881 					"/>
					<path id="XMLID_127_" fill="#F2F2F2" d="M300.899,127.128c-0.002-0.661-0.54-1.195-1.202-1.193l-5.068,0.019l2.823,4.451
						c0.388-0.076,0.775-0.164,1.157-0.268C299.966,129.767,300.905,128.534,300.899,127.128z"/>
					<path id="XMLID_126_" fill="#F2F2F2" d="M263.123,128.778l-2.241-2.701l-1.626,0.006l2.286,2.756
						C262.066,128.789,262.594,128.769,263.123,128.778z"/>
					<path id="XMLID_120_" fill="#F2F2F2" d="M238.444,126.159l-2.726,0.01l4.439,5.351c0.844,0.187,1.696,0.344,2.554,0.47
						l0.648,0.095L238.444,126.159z"/>
				</g>
			</g>
		</g>
	</g>
</g>
</svg>
