<?xml version="1.0" encoding="utf-8"?>
<!-- Generator: Adobe Illustrator 17.0.0, SVG Export Plug-In . SVG Version: 6.00 Build 0)  -->
<!DOCTYPE svg PUBLIC "-//W3C//DTD SVG 1.1//EN" "http://www.w3.org/Graphics/SVG/1.1/DTD/svg11.dtd">
<svg version="1.1" id="vista_mesas" xmlns="http://www.w3.org/2000/svg" xmlns:xlink="http://www.w3.org/1999/xlink" x="0px"
	 y="0px" width="1011.498px" height="348.701px" viewBox="0 0 1011.498 348.701"
	 style="enable-background:new 0 0 1011.498 348.701;" xml:space="preserve">
<style type="text/css">
	.st0{fill:#BF4046;}
	.st1{fill:url(#SVGID_1_);}
	.st2{fill:url(#SVGID_2_);}
	.st3{fill:url(#SVGID_3_);}
	.st4{fill:url(#SVGID_4_);}
	.st5{display:none;fill:#BF4046;}
	.st6{fill:url(#SVGID_5_);}
	.st7{fill:url(#SVGID_6_);}
	.st8{fill:url(#SVGID_7_);}
	.st9{fill:url(#SVGID_8_);}
	.st10{fill:url(#SVGID_9_);}
	.st11{fill:url(#SVGID_10_);}
	.st12{fill:url(#SVGID_11_);}
	.st13{fill:url(#SVGID_12_);}
	.st14{fill:url(#SVGID_13_);}
	.st15{fill:url(#SVGID_14_);}
	.st16{fill:url(#SVGID_15_);}
	.st17{fill:url(#SVGID_16_);}
	.st18{fill:url(#SVGID_17_);}
	.st19{fill:url(#SVGID_18_);}
	.st20{fill:url(#SVGID_19_);}
	.st21{fill:url(#SVGID_20_);}
	.st22{fill:url(#SVGID_21_);}
	.st23{fill:url(#SVGID_22_);}
	.st24{fill:url(#SVGID_23_);}
	.st25{fill:url(#SVGID_24_);}
	.st26{fill:url(#SVGID_25_);}
	.st27{fill:url(#SVGID_26_);}
	.st28{fill:url(#SVGID_27_);}
	.st29{fill:url(#SVGID_28_);}
	.st30{fill:url(#SVGID_29_);}
	.st31{fill:url(#SVGID_30_);}
	.st32{fill:url(#SVGID_31_);}
	.st33{fill:url(#SVGID_32_);}
	.st34{fill:url(#SVGID_33_);}
	.st35{fill:url(#SVGID_34_);}
	.st36{fill:url(#SVGID_35_);}
	.st37{fill:url(#SVGID_36_);}
</style>
<g id="Vista_mesa_y_puestos_1_">
	<g>
		<path class="st0" d="M350.405,46.998c0,0,4.803,3.16,4.803,21.02c0,20.333,0,20,0,20s-3.146,12-3.146,41
			s2.705,38.314,2.705,61.981c0,13.327-3.377,44.019,0.623,76.019c3.564,28.514-2.911,32.711-6.647,37.423
			c-8.551,10.788,10,15.91,10,15.91l14.387,11.11c0,0,7.618-6.443,41.618-6.443s26.917,3.25,45.917,3.25s28.417-3.25,40.417-3.25
			s33.334,2.5,40.334,2.5s36.333-2.5,46-2.5c11.125,0,41.25,0.75,51.506,6.812c6.963,4.116,12.828-11.479,12.828-11.479
			s6.12-11.787,12.353-14.02c0,0-8.686-16.314-8.686-36.314s3-50.667,3-66s-3-29.333-3-45.667s3.25-47.667,3.25-56.333
			s-3.25-31.333-3.25-36.333s4.138-15.737,7.642-21.877c2.854-4.999-4.642-21.123-11.309-14.457
			c-6.667,6.667-13.278-12.183-13.278-12.183s-7.389,7.85-37.722,7.85s-32.25-2.5-48.583-2.5s-29.083,2.5-42.75,2.5
			s-52.667-2.5-73-2.5s-30.333,2.5-41,2.5s-15.32-0.175-20.656-5.512s-9.66,5.429-16.083,8.081
			C345.676,32.955,350.405,46.998,350.405,46.998z"/>
		
			<radialGradient id="SVGID_1_" cx="774.749" cy="475.649" r="18.333" gradientTransform="matrix(1 0 0 1 -412 -442.299)" gradientUnits="userSpaceOnUse">
			<stop  offset="0" style="stop-color:#8F3035"/>
			<stop  offset="0.1395" style="stop-color:#973338"/>
			<stop  offset="0.6862" style="stop-color:#B43C42"/>
			<stop  offset="1" style="stop-color:#BF4046"/>
		</radialGradient>
		<circle class="st1" cx="362.749" cy="33.35" r="18.333"/>
		
			<radialGradient id="SVGID_2_" cx="774.749" cy="758.649" r="18.333" gradientTransform="matrix(1 0 0 1 -412 -442.299)" gradientUnits="userSpaceOnUse">
			<stop  offset="0" style="stop-color:#8F3035"/>
			<stop  offset="0.1395" style="stop-color:#973338"/>
			<stop  offset="0.6862" style="stop-color:#B43C42"/>
			<stop  offset="1" style="stop-color:#BF4046"/>
		</radialGradient>
		<circle class="st2" cx="362.749" cy="316.35" r="18.333"/>
		
			<radialGradient id="SVGID_3_" cx="1060.749" cy="474.649" r="18.333" gradientTransform="matrix(1 0 0 1 -412 -442.299)" gradientUnits="userSpaceOnUse">
			<stop  offset="0" style="stop-color:#8F3035"/>
			<stop  offset="0.1395" style="stop-color:#973338"/>
			<stop  offset="0.6862" style="stop-color:#B43C42"/>
			<stop  offset="1" style="stop-color:#BF4046"/>
		</radialGradient>
		<circle class="st3" cx="648.749" cy="32.35" r="18.333"/>
		
			<radialGradient id="SVGID_4_" cx="1060.749" cy="758.649" r="18.333" gradientTransform="matrix(1 0 0 1 -412 -442.299)" gradientUnits="userSpaceOnUse">
			<stop  offset="0" style="stop-color:#8F3035"/>
			<stop  offset="0.1395" style="stop-color:#973338"/>
			<stop  offset="0.6862" style="stop-color:#B43C42"/>
			<stop  offset="1" style="stop-color:#BF4046"/>
		</radialGradient>
		<circle class="st4" cx="648.749" cy="316.35" r="18.333"/>
		<path class="st0" d="M655.208,315.402c0,5.523-4.477,10-10,10h-280c-5.523,0-10-4.477-10-10v-280c0-5.523,4.477-10,10-10h280
			c5.523,0,10,4.477,10,10V315.402z"/>
		<g id="XMLID_137_">
			<path class="st5" d="M652.916,28.417c6.34-3.89,12.83,10.68,10.14,15.39c-3.5,6.14-7.64,16.88-7.64,21.88v-30.67
				C655.416,32.487,654.476,30.177,652.916,28.417z"/>
			<path class="st5" d="M655.416,270.017c0,20,8.69,36.31,8.69,36.31c-3.2,1.15-6.36,4.8-8.69,8.09V270.017z"/>
			
				<linearGradient id="SVGID_5_" gradientUnits="userSpaceOnUse" x1="1066.6655" y1="656.481" x2="1069.6655" y2="656.481" gradientTransform="matrix(1 0 0 1 -412 -442.299)">
				<stop  offset="0" style="stop-color:#8F3035"/>
				<stop  offset="0.1395" style="stop-color:#973338"/>
				<stop  offset="0.6862" style="stop-color:#B43C42"/>
				<stop  offset="1" style="stop-color:#BF4046"/>
			</linearGradient>
			<path class="st6" d="M655.416,158.347c0,16.34,3,30.34,3,45.67s-3,46-3,66V158.347z"/>
			
				<linearGradient id="SVGID_6_" gradientUnits="userSpaceOnUse" x1="1066.4155" y1="554.316" x2="1070.5481" y2="554.316" gradientTransform="matrix(1 0 0 1 -412 -442.299)">
				<stop  offset="0" style="stop-color:#8F3035"/>
				<stop  offset="0.1395" style="stop-color:#973338"/>
				<stop  offset="0.6862" style="stop-color:#B43C42"/>
				<stop  offset="1" style="stop-color:#BF4046"/>
			</linearGradient>
			<path class="st7" d="M655.416,65.687c0,5,3.25,27.66,3.25,36.33s-3.25,40-3.25,56.33V65.687z"/>
			<path class="st5" d="M645.416,325.017c1.72,0,3.35-0.44,4.77-1.21c-2.19,4.33-6.46,10.86-11.26,8.02
				c-10.26-6.06-40.39-6.81-51.51-6.81H645.416z"/>
			<path class="st5" d="M642.156,25.017h-41.41c30.34,0,37.73-7.85,37.73-7.85S639.926,21.307,642.156,25.017z"/>
			
				<linearGradient id="SVGID_7_" gradientUnits="userSpaceOnUse" x1="967.0809" y1="467.9411" x2="967.081" y2="465.4411" gradientTransform="matrix(1 0 0 1 -412 -442.299)">
				<stop  offset="0" style="stop-color:#8F3035"/>
				<stop  offset="0.1395" style="stop-color:#973338"/>
				<stop  offset="0.6862" style="stop-color:#B43C42"/>
				<stop  offset="1" style="stop-color:#BF4046"/>
			</linearGradient>
			<path class="st8" d="M600.746,25.017h-91.33c13.67,0,26.42-2.5,42.75-2.5S570.416,25.017,600.746,25.017z"/>
			
				<linearGradient id="SVGID_8_" gradientUnits="userSpaceOnUse" x1="956.251" y1="769.816" x2="956.251" y2="766.5657" gradientTransform="matrix(1 0 0 1 -412 -442.299)">
				<stop  offset="0" style="stop-color:#BF4046"/>
				<stop  offset="0.3138" style="stop-color:#B43C42"/>
				<stop  offset="0.8605" style="stop-color:#973338"/>
				<stop  offset="1" style="stop-color:#8F3035"/>
			</linearGradient>
			<path class="st9" d="M501.086,325.017h86.33c-9.67,0-39,2.5-46,2.5S513.086,325.017,501.086,325.017z"/>
			
				<linearGradient id="SVGID_9_" gradientUnits="userSpaceOnUse" x1="864.416" y1="467.9411" x2="864.416" y2="465.4411" gradientTransform="matrix(1 0 0 1 -412 -442.299)">
				<stop  offset="0" style="stop-color:#8F3035"/>
				<stop  offset="0.1395" style="stop-color:#973338"/>
				<stop  offset="0.6862" style="stop-color:#B43C42"/>
				<stop  offset="1" style="stop-color:#BF4046"/>
			</linearGradient>
			<path class="st10" d="M509.416,25.017h-114c10.67,0,20.67-2.5,41-2.5C456.746,22.517,495.746,25.017,509.416,25.017z"/>
			
				<linearGradient id="SVGID_10_" gradientUnits="userSpaceOnUse" x1="869.916" y1="770.566" x2="869.916" y2="766.1905" gradientTransform="matrix(1 0 0 1 -412 -442.299)">
				<stop  offset="0" style="stop-color:#BF4046"/>
				<stop  offset="0.3138" style="stop-color:#B43C42"/>
				<stop  offset="0.8605" style="stop-color:#973338"/>
				<stop  offset="1" style="stop-color:#8F3035"/>
			</linearGradient>
			<path class="st11" d="M414.746,325.017h86.34c-12,0-21.42,3.25-40.42,3.25S448.746,325.017,414.746,325.017z"/>
			<path class="st5" d="M365.416,325.017h49.33c-34,0-41.61,6.44-41.61,6.44l-8.37-6.46
				C364.976,325.007,365.196,325.017,365.416,325.017z"/>
			<path class="st5" d="M395.416,25.017h-30c-1.3,0-2.54,0.25-3.68,0.7c4.85-3.88,8.57-10.67,13.02-6.21
				C380.096,24.837,384.746,25.017,395.416,25.017z"/>
			<path class="st5" d="M358.726,27.587c-2.03,1.83-3.31,4.48-3.31,7.43v33c0-17.86-4.91-21.02-4.91-21.02
				S345.726,32.957,358.726,27.587z"/>
			<path class="st5" d="M355.416,315.017c0,1.65,0.4,3.2,1.11,4.57c-4.64-1.78-14.43-6.74-7.77-15.15
				c2.12-2.66,5.11-5.17,6.66-11.99V315.017z"/>
			
				<linearGradient id="SVGID_11_" gradientUnits="userSpaceOnUse" x1="765.4681" y1="671.306" x2="768.7969" y2="671.306" gradientTransform="matrix(1 0 0 1 -412 -442.299)">
				<stop  offset="0" style="stop-color:#BF4046"/>
				<stop  offset="0.3138" style="stop-color:#B43C42"/>
				<stop  offset="0.8605" style="stop-color:#973338"/>
				<stop  offset="1" style="stop-color:#8F3035"/>
			</linearGradient>
			<path class="st12" d="M355.416,190.997v76.02c-4-32-0.6-62.69-0.6-76.02L355.416,190.997L355.416,190.997z"/>
			
				<linearGradient id="SVGID_12_" gradientUnits="userSpaceOnUse" x1="764.166" y1="581.806" x2="768.918" y2="581.806" gradientTransform="matrix(1 0 0 1 -412 -442.299)">
				<stop  offset="0" style="stop-color:#BF4046"/>
				<stop  offset="0.3138" style="stop-color:#B43C42"/>
				<stop  offset="0.8605" style="stop-color:#973338"/>
				<stop  offset="1" style="stop-color:#8F3035"/>
			</linearGradient>
			<path class="st13" d="M355.416,88.017v102.98h-0.6c0-23.67-2.65-32.98-2.65-61.98S355.416,88.017,355.416,88.017z"/>
		</g>
	</g>
</g>
<g id="Vista_mesa_y_puestos">
	<g>
		<path class="st0" d="M23.197,46.998c0,0,4.803,3.16,4.803,21.02c0,20.333,0,20,0,20s-3.146,12-3.146,41s2.705,38.314,2.705,61.981
			c0,13.327-3.377,44.019,0.623,76.019c3.564,28.514-2.911,32.711-6.647,37.423c-8.551,10.788,10,15.91,10,15.91l14.387,11.11
			c0,0,7.618-6.443,41.618-6.443s26.917,3.25,45.917,3.25s28.417-3.25,40.417-3.25s33.334,2.5,40.334,2.5s36.333-2.5,46-2.5
			c11.125,0,41.25,0.75,51.506,6.812c6.963,4.116,12.828-11.479,12.828-11.479s6.12-11.787,12.353-14.02
			c0,0-8.686-16.314-8.686-36.314s3-50.667,3-66s-3-29.333-3-45.667s3.25-47.667,3.25-56.333s-3.25-31.333-3.25-36.333
			s4.138-15.737,7.642-21.877c2.854-4.999-4.642-21.123-11.309-14.457c-6.667,6.667-13.278-12.183-13.278-12.183
			s-7.389,7.85-37.722,7.85s-32.25-2.5-48.583-2.5s-29.083,2.5-42.75,2.5s-52.667-2.5-73-2.5s-30.333,2.5-41,2.5
			s-15.32-0.175-20.656-5.512s-9.66,5.429-16.083,8.081C18.468,32.955,23.197,46.998,23.197,46.998z"/>
		
			<radialGradient id="SVGID_13_" cx="447.541" cy="475.649" r="18.333" gradientTransform="matrix(1 0 0 1 -412 -442.299)" gradientUnits="userSpaceOnUse">
			<stop  offset="0" style="stop-color:#8F3035"/>
			<stop  offset="0.1395" style="stop-color:#973338"/>
			<stop  offset="0.6862" style="stop-color:#B43C42"/>
			<stop  offset="1" style="stop-color:#BF4046"/>
		</radialGradient>
		<circle class="st14" cx="35.541" cy="33.35" r="18.333"/>
		
			<radialGradient id="SVGID_14_" cx="447.541" cy="758.649" r="18.333" gradientTransform="matrix(1 0 0 1 -412 -442.299)" gradientUnits="userSpaceOnUse">
			<stop  offset="0" style="stop-color:#8F3035"/>
			<stop  offset="0.1395" style="stop-color:#973338"/>
			<stop  offset="0.6862" style="stop-color:#B43C42"/>
			<stop  offset="1" style="stop-color:#BF4046"/>
		</radialGradient>
		<circle class="st15" cx="35.541" cy="316.35" r="18.333"/>
		
			<radialGradient id="SVGID_15_" cx="733.541" cy="474.649" r="18.333" gradientTransform="matrix(1 0 0 1 -412 -442.299)" gradientUnits="userSpaceOnUse">
			<stop  offset="0" style="stop-color:#8F3035"/>
			<stop  offset="0.1395" style="stop-color:#973338"/>
			<stop  offset="0.6862" style="stop-color:#B43C42"/>
			<stop  offset="1" style="stop-color:#BF4046"/>
		</radialGradient>
		<circle class="st16" cx="321.541" cy="32.35" r="18.333"/>
		
			<radialGradient id="SVGID_16_" cx="733.541" cy="758.649" r="18.333" gradientTransform="matrix(1 0 0 1 -412 -442.299)" gradientUnits="userSpaceOnUse">
			<stop  offset="0" style="stop-color:#8F3035"/>
			<stop  offset="0.1395" style="stop-color:#973338"/>
			<stop  offset="0.6862" style="stop-color:#B43C42"/>
			<stop  offset="1" style="stop-color:#BF4046"/>
		</radialGradient>
		<circle class="st17" cx="321.541" cy="316.35" r="18.333"/>
		<path class="st0" d="M328,315.402c0,5.523-4.477,10-10,10H38c-5.523,0-10-4.477-10-10v-280c0-5.523,4.477-10,10-10h280
			c5.523,0,10,4.477,10,10V315.402z"/>
		<g id="XMLID_2_">
			<path class="st5" d="M325.708,28.417c6.34-3.89,12.83,10.68,10.14,15.39c-3.5,6.14-7.64,16.88-7.64,21.88v-30.67
				C328.208,32.487,327.268,30.177,325.708,28.417z"/>
			<path class="st5" d="M328.208,270.017c0,20,8.69,36.31,8.69,36.31c-3.2,1.15-6.36,4.8-8.69,8.09V270.017z"/>
			
				<linearGradient id="SVGID_17_" gradientUnits="userSpaceOnUse" x1="739.4576" y1="656.481" x2="742.4576" y2="656.481" gradientTransform="matrix(1 0 0 1 -412 -442.299)">
				<stop  offset="0" style="stop-color:#8F3035"/>
				<stop  offset="0.1395" style="stop-color:#973338"/>
				<stop  offset="0.6862" style="stop-color:#B43C42"/>
				<stop  offset="1" style="stop-color:#BF4046"/>
			</linearGradient>
			<path class="st18" d="M328.208,158.347c0,16.34,3,30.34,3,45.67s-3,46-3,66V158.347z"/>
			
				<linearGradient id="SVGID_18_" gradientUnits="userSpaceOnUse" x1="739.2076" y1="554.316" x2="743.3401" y2="554.316" gradientTransform="matrix(1 0 0 1 -412 -442.299)">
				<stop  offset="0" style="stop-color:#8F3035"/>
				<stop  offset="0.1395" style="stop-color:#973338"/>
				<stop  offset="0.6862" style="stop-color:#B43C42"/>
				<stop  offset="1" style="stop-color:#BF4046"/>
			</linearGradient>
			<path class="st19" d="M328.208,65.687c0,5,3.25,27.66,3.25,36.33s-3.25,40-3.25,56.33V65.687z"/>
			<path class="st5" d="M318.208,325.017c1.72,0,3.35-0.44,4.77-1.21c-2.19,4.33-6.46,10.86-11.26,8.02
				c-10.26-6.06-40.39-6.81-51.51-6.81H318.208z"/>
			<path class="st5" d="M314.948,25.017h-41.41c30.34,0,37.73-7.85,37.73-7.85S312.718,21.307,314.948,25.017z"/>
			
				<linearGradient id="SVGID_19_" gradientUnits="userSpaceOnUse" x1="639.873" y1="467.9411" x2="639.873" y2="465.4411" gradientTransform="matrix(1 0 0 1 -412 -442.299)">
				<stop  offset="0" style="stop-color:#8F3035"/>
				<stop  offset="0.1395" style="stop-color:#973338"/>
				<stop  offset="0.6862" style="stop-color:#B43C42"/>
				<stop  offset="1" style="stop-color:#BF4046"/>
			</linearGradient>
			<path class="st20" d="M273.538,25.017h-91.33c13.67,0,26.42-2.5,42.75-2.5S243.208,25.017,273.538,25.017z"/>
			
				<linearGradient id="SVGID_20_" gradientUnits="userSpaceOnUse" x1="629.043" y1="769.816" x2="629.043" y2="766.5657" gradientTransform="matrix(1 0 0 1 -412 -442.299)">
				<stop  offset="0" style="stop-color:#BF4046"/>
				<stop  offset="0.3138" style="stop-color:#B43C42"/>
				<stop  offset="0.8605" style="stop-color:#973338"/>
				<stop  offset="1" style="stop-color:#8F3035"/>
			</linearGradient>
			<path class="st21" d="M173.878,325.017h86.33c-9.67,0-39,2.5-46,2.5S185.878,325.017,173.878,325.017z"/>
			
				<linearGradient id="SVGID_21_" gradientUnits="userSpaceOnUse" x1="537.208" y1="467.9411" x2="537.208" y2="465.4411" gradientTransform="matrix(1 0 0 1 -412 -442.299)">
				<stop  offset="0" style="stop-color:#8F3035"/>
				<stop  offset="0.1395" style="stop-color:#973338"/>
				<stop  offset="0.6862" style="stop-color:#B43C42"/>
				<stop  offset="1" style="stop-color:#BF4046"/>
			</linearGradient>
			<path class="st22" d="M182.208,25.017h-114c10.67,0,20.67-2.5,41-2.5S168.538,25.017,182.208,25.017z"/>
			
				<linearGradient id="SVGID_22_" gradientUnits="userSpaceOnUse" x1="542.708" y1="770.566" x2="542.708" y2="766.1905" gradientTransform="matrix(1 0 0 1 -412 -442.299)">
				<stop  offset="0" style="stop-color:#BF4046"/>
				<stop  offset="0.3138" style="stop-color:#B43C42"/>
				<stop  offset="0.8605" style="stop-color:#973338"/>
				<stop  offset="1" style="stop-color:#8F3035"/>
			</linearGradient>
			<path class="st23" d="M87.538,325.017h86.34c-12,0-21.42,3.25-40.42,3.25S121.538,325.017,87.538,325.017z"/>
			<path class="st5" d="M38.208,325.017h49.33c-34,0-41.61,6.44-41.61,6.44l-8.37-6.46
				C37.768,325.007,37.988,325.017,38.208,325.017z"/>
			<path class="st5" d="M68.208,25.017h-30c-1.3,0-2.54,0.25-3.68,0.7c4.85-3.88,8.57-10.67,13.02-6.21
				C52.888,24.837,57.538,25.017,68.208,25.017z"/>
			<path class="st5" d="M31.518,27.587c-2.03,1.83-3.31,4.48-3.31,7.43v33c0-17.86-4.91-21.02-4.91-21.02
				S18.518,32.957,31.518,27.587z"/>
			<path class="st5" d="M28.208,315.017c0,1.65,0.4,3.2,1.11,4.57c-4.64-1.78-14.43-6.74-7.77-15.15c2.12-2.66,5.11-5.17,6.66-11.99
				V315.017z"/>
			
				<linearGradient id="SVGID_23_" gradientUnits="userSpaceOnUse" x1="438.2601" y1="671.306" x2="441.5888" y2="671.306" gradientTransform="matrix(1 0 0 1 -412 -442.299)">
				<stop  offset="0" style="stop-color:#BF4046"/>
				<stop  offset="0.3138" style="stop-color:#B43C42"/>
				<stop  offset="0.8605" style="stop-color:#973338"/>
				<stop  offset="1" style="stop-color:#8F3035"/>
			</linearGradient>
			<path class="st24" d="M28.208,190.997v76.02c-4-32-0.6-62.69-0.6-76.02L28.208,190.997L28.208,190.997z"/>
			
				<linearGradient id="SVGID_24_" gradientUnits="userSpaceOnUse" x1="436.958" y1="581.806" x2="441.71" y2="581.806" gradientTransform="matrix(1 0 0 1 -412 -442.299)">
				<stop  offset="0" style="stop-color:#BF4046"/>
				<stop  offset="0.3138" style="stop-color:#B43C42"/>
				<stop  offset="0.8605" style="stop-color:#973338"/>
				<stop  offset="1" style="stop-color:#8F3035"/>
			</linearGradient>
			<path class="st25" d="M28.208,88.017v102.98h-0.6c0-23.67-2.65-32.98-2.65-61.98S28.208,88.017,28.208,88.017z"/>
		</g>
	</g>
</g>
<g id="Vista_mesa_y_puestos_2_">
	<g>
		<path class="st0" d="M677.613,46.998c0,0,4.803,3.16,4.803,21.02c0,20.333,0,20,0,20s-3.146,12-3.146,41
			s2.705,38.314,2.705,61.981c0,13.327-3.377,44.019,0.623,76.019c3.564,28.514-2.911,32.711-6.647,37.423
			c-8.551,10.788,10,15.91,10,15.91l14.387,11.11c0,0,7.618-6.443,41.618-6.443s26.917,3.25,45.917,3.25s28.417-3.25,40.417-3.25
			s33.334,2.5,40.334,2.5s36.333-2.5,46-2.5c11.125,0,41.25,0.75,51.506,6.812c6.963,4.116,12.828-11.479,12.828-11.479
			s6.12-11.787,12.353-14.02c0,0-8.686-16.314-8.686-36.314s3-50.667,3-66s-3-29.333-3-45.667s3.25-47.667,3.25-56.333
			s-3.25-31.333-3.25-36.333s4.138-15.737,7.642-21.877c2.854-4.999-4.642-21.123-11.309-14.457
			c-6.667,6.667-13.278-12.183-13.278-12.183s-7.389,7.85-37.722,7.85s-32.25-2.5-48.583-2.5s-29.083,2.5-42.75,2.5
			s-52.667-2.5-73-2.5s-30.333,2.5-41,2.5s-15.32-0.175-20.656-5.512c-5.336-5.337-9.66,5.429-16.083,8.081
			C672.884,32.955,677.613,46.998,677.613,46.998z"/>
		
			<radialGradient id="SVGID_25_" cx="1101.957" cy="475.649" r="18.333" gradientTransform="matrix(1 0 0 1 -412 -442.299)" gradientUnits="userSpaceOnUse">
			<stop  offset="0" style="stop-color:#8F3035"/>
			<stop  offset="0.1395" style="stop-color:#973338"/>
			<stop  offset="0.6862" style="stop-color:#B43C42"/>
			<stop  offset="1" style="stop-color:#BF4046"/>
		</radialGradient>
		<circle class="st26" cx="689.957" cy="33.35" r="18.333"/>
		
			<radialGradient id="SVGID_26_" cx="1101.957" cy="758.649" r="18.333" gradientTransform="matrix(1 0 0 1 -412 -442.299)" gradientUnits="userSpaceOnUse">
			<stop  offset="0" style="stop-color:#8F3035"/>
			<stop  offset="0.1395" style="stop-color:#973338"/>
			<stop  offset="0.6862" style="stop-color:#B43C42"/>
			<stop  offset="1" style="stop-color:#BF4046"/>
		</radialGradient>
		<circle class="st27" cx="689.957" cy="316.35" r="18.333"/>
		
			<radialGradient id="SVGID_27_" cx="1387.957" cy="474.649" r="18.333" gradientTransform="matrix(1 0 0 1 -412 -442.299)" gradientUnits="userSpaceOnUse">
			<stop  offset="0" style="stop-color:#8F3035"/>
			<stop  offset="0.1395" style="stop-color:#973338"/>
			<stop  offset="0.6862" style="stop-color:#B43C42"/>
			<stop  offset="1" style="stop-color:#BF4046"/>
		</radialGradient>
		<circle class="st28" cx="975.957" cy="32.35" r="18.333"/>
		
			<radialGradient id="SVGID_28_" cx="1387.957" cy="758.649" r="18.333" gradientTransform="matrix(1 0 0 1 -412 -442.299)" gradientUnits="userSpaceOnUse">
			<stop  offset="0" style="stop-color:#8F3035"/>
			<stop  offset="0.1395" style="stop-color:#973338"/>
			<stop  offset="0.6862" style="stop-color:#B43C42"/>
			<stop  offset="1" style="stop-color:#BF4046"/>
		</radialGradient>
		<circle class="st29" cx="975.957" cy="316.35" r="18.333"/>
		<path class="st0" d="M982.416,315.402c0,5.523-4.477,10-10,10h-280c-5.523,0-10-4.477-10-10v-280c0-5.523,4.477-10,10-10h280
			c5.523,0,10,4.477,10,10V315.402z"/>
		<g id="XMLID_1_">
			<path class="st5" d="M980.124,28.417c6.34-3.89,12.83,10.68,10.14,15.39c-3.5,6.14-7.64,16.88-7.64,21.88v-30.67
				C982.624,32.487,981.684,30.177,980.124,28.417z"/>
			<path class="st5" d="M982.624,270.017c0,20,8.69,36.31,8.69,36.31c-3.2,1.15-6.36,4.8-8.69,8.09V270.017z"/>
			
				<linearGradient id="SVGID_29_" gradientUnits="userSpaceOnUse" x1="1393.8737" y1="656.481" x2="1396.8737" y2="656.481" gradientTransform="matrix(1 0 0 1 -412 -442.299)">
				<stop  offset="0" style="stop-color:#8F3035"/>
				<stop  offset="0.1395" style="stop-color:#973338"/>
				<stop  offset="0.6862" style="stop-color:#B43C42"/>
				<stop  offset="1" style="stop-color:#BF4046"/>
			</linearGradient>
			<path class="st30" d="M982.624,158.347c0,16.34,3,30.34,3,45.67s-3,46-3,66V158.347z"/>
			
				<linearGradient id="SVGID_30_" gradientUnits="userSpaceOnUse" x1="1393.6237" y1="554.316" x2="1397.7561" y2="554.316" gradientTransform="matrix(1 0 0 1 -412 -442.299)">
				<stop  offset="0" style="stop-color:#8F3035"/>
				<stop  offset="0.1395" style="stop-color:#973338"/>
				<stop  offset="0.6862" style="stop-color:#B43C42"/>
				<stop  offset="1" style="stop-color:#BF4046"/>
			</linearGradient>
			<path class="st31" d="M982.624,65.687c0,5,3.25,27.66,3.25,36.33s-3.25,40-3.25,56.33V65.687z"/>
			<path class="st5" d="M972.624,325.017c1.72,0,3.35-0.44,4.77-1.21c-2.19,4.33-6.46,10.86-11.26,8.02
				c-10.26-6.06-40.39-6.81-51.51-6.81H972.624z"/>
			<path class="st5" d="M969.364,25.017h-41.41c30.34,0,37.73-7.85,37.73-7.85S967.134,21.307,969.364,25.017z"/>
			
				<linearGradient id="SVGID_31_" gradientUnits="userSpaceOnUse" x1="1294.2889" y1="467.9411" x2="1294.2891" y2="465.4411" gradientTransform="matrix(1 0 0 1 -412 -442.299)">
				<stop  offset="0" style="stop-color:#8F3035"/>
				<stop  offset="0.1395" style="stop-color:#973338"/>
				<stop  offset="0.6862" style="stop-color:#B43C42"/>
				<stop  offset="1" style="stop-color:#BF4046"/>
			</linearGradient>
			<path class="st32" d="M927.954,25.017h-91.33c13.67,0,26.42-2.5,42.75-2.5C895.704,22.517,897.624,25.017,927.954,25.017z"/>
			
				<linearGradient id="SVGID_32_" gradientUnits="userSpaceOnUse" x1="1283.459" y1="769.816" x2="1283.4591" y2="766.5657" gradientTransform="matrix(1 0 0 1 -412 -442.299)">
				<stop  offset="0" style="stop-color:#BF4046"/>
				<stop  offset="0.3138" style="stop-color:#B43C42"/>
				<stop  offset="0.8605" style="stop-color:#973338"/>
				<stop  offset="1" style="stop-color:#8F3035"/>
			</linearGradient>
			<path class="st33" d="M828.294,325.017h86.33c-9.67,0-39,2.5-46,2.5S840.294,325.017,828.294,325.017z"/>
			
				<linearGradient id="SVGID_33_" gradientUnits="userSpaceOnUse" x1="1191.624" y1="467.9411" x2="1191.624" y2="465.4411" gradientTransform="matrix(1 0 0 1 -412 -442.299)">
				<stop  offset="0" style="stop-color:#8F3035"/>
				<stop  offset="0.1395" style="stop-color:#973338"/>
				<stop  offset="0.6862" style="stop-color:#B43C42"/>
				<stop  offset="1" style="stop-color:#BF4046"/>
			</linearGradient>
			<path class="st34" d="M836.624,25.017h-114c10.67,0,20.67-2.5,41-2.5C783.954,22.517,822.954,25.017,836.624,25.017z"/>
			
				<linearGradient id="SVGID_34_" gradientUnits="userSpaceOnUse" x1="1197.124" y1="770.566" x2="1197.124" y2="766.1905" gradientTransform="matrix(1 0 0 1 -412 -442.299)">
				<stop  offset="0" style="stop-color:#BF4046"/>
				<stop  offset="0.3138" style="stop-color:#B43C42"/>
				<stop  offset="0.8605" style="stop-color:#973338"/>
				<stop  offset="1" style="stop-color:#8F3035"/>
			</linearGradient>
			<path class="st35" d="M741.954,325.017h86.34c-12,0-21.42,3.25-40.42,3.25C768.874,328.267,775.954,325.017,741.954,325.017z"/>
			<path class="st5" d="M692.624,325.017h49.33c-34,0-41.61,6.44-41.61,6.44l-8.37-6.46
				C692.184,325.007,692.404,325.017,692.624,325.017z"/>
			<path class="st5" d="M722.624,25.017h-30c-1.3,0-2.54,0.25-3.68,0.7c4.85-3.88,8.57-10.67,13.02-6.21
				C707.304,24.837,711.954,25.017,722.624,25.017z"/>
			<path class="st5" d="M685.934,27.587c-2.03,1.83-3.31,4.48-3.31,7.43v33c0-17.86-4.91-21.02-4.91-21.02
				S672.934,32.957,685.934,27.587z"/>
			<path class="st5" d="M682.624,315.017c0,1.65,0.4,3.2,1.11,4.57c-4.64-1.78-14.43-6.74-7.77-15.15
				c2.12-2.66,5.11-5.17,6.66-11.99V315.017z"/>
			
				<linearGradient id="SVGID_35_" gradientUnits="userSpaceOnUse" x1="1092.6761" y1="671.306" x2="1096.0049" y2="671.306" gradientTransform="matrix(1 0 0 1 -412 -442.299)">
				<stop  offset="0" style="stop-color:#BF4046"/>
				<stop  offset="0.3138" style="stop-color:#B43C42"/>
				<stop  offset="0.8605" style="stop-color:#973338"/>
				<stop  offset="1" style="stop-color:#8F3035"/>
			</linearGradient>
			<path class="st36" d="M682.624,190.997v76.02c-4-32-0.6-62.69-0.6-76.02L682.624,190.997L682.624,190.997z"/>
			
				<linearGradient id="SVGID_36_" gradientUnits="userSpaceOnUse" x1="1091.374" y1="581.806" x2="1096.126" y2="581.806" gradientTransform="matrix(1 0 0 1 -412 -442.299)">
				<stop  offset="0" style="stop-color:#BF4046"/>
				<stop  offset="0.3138" style="stop-color:#B43C42"/>
				<stop  offset="0.8605" style="stop-color:#973338"/>
				<stop  offset="1" style="stop-color:#8F3035"/>
			</linearGradient>
			<path class="st37" d="M682.624,88.017v102.98h-0.6c0-23.67-2.65-32.98-2.65-61.98S682.624,88.017,682.624,88.017z"/>
		</g>
	</g>
</g>
</svg>
