<?xml version="1.0" encoding="utf-8"?>
<svg version="1.1" id="notifications-icons" xmlns="http://www.w3.org/2000/svg" xmlns:xlink="http://www.w3.org/1999/xlink" x="0px" y="0px"
	 viewBox="0 0 50 60" style="enable-background:new 0 0 50 60;" xml:space="preserve">
<g id="not1">
	<path class="st0" d="M42.5,2.3h-35c-2.8,0-5,2.3-5,5l0,0v32.6c0,1.7,0.8,3.3,2.2,4.2L25,57.7l20.3-13.6c1.4-0.9,2.2-2.5,2.2-4.2
		V7.3C47.5,4.6,45.3,2.3,42.5,2.3z"/>
	<text transform="matrix(1 0 0 1 13.1107 42.2332)" fill="#ffffff" stroke="#ffffff" stroke-width="1" class="st1 st2 st3">1</text>
</g>
<g id="not2">
	<path class="st0" d="M42.5,2.3h-35c-2.8,0-5,2.3-5,5l0,0v32.6c0,1.7,0.8,3.3,2.2,4.2L25,57.7l20.3-13.6c1.4-0.9,2.2-2.5,2.2-4.2
		V7.3C47.5,4.6,45.3,2.3,42.5,2.3z"/>
	<text transform="matrix(1 0 0 1 13.1107 42.2332)" fill="#ffffff" stroke="#ffffff" stroke-width="1" class="st1 st2 st3">2</text>
</g>
<g id="not3">
	<path class="st0" d="M42.5,2.3h-35c-2.8,0-5,2.3-5,5l0,0v32.6c0,1.7,0.8,3.3,2.2,4.2L25,57.7l20.3-13.6c1.4-0.9,2.2-2.5,2.2-4.2
		V7.3C47.5,4.6,45.3,2.3,42.5,2.3z"/>
	<text transform="matrix(1 0 0 1 13.1107 42.2332)" fill="#ffffff" stroke="#ffffff" stroke-width="1" class="st1 st2 st3">3</text>
</g>
<g id="not4">
	<path class="st0" d="M42.5,2.3h-35c-2.8,0-5,2.3-5,5l0,0v32.6c0,1.7,0.8,3.3,2.2,4.2L25,57.7l20.3-13.6c1.4-0.9,2.2-2.5,2.2-4.2
		V7.3C47.5,4.6,45.3,2.3,42.5,2.3z"/>
	<text transform="matrix(1 0 0 1 13.1107 42.2332)" fill="#ffffff" stroke="#ffffff" stroke-width="1" class="st1 st2 st3">4</text>
</g>
<g id="not5">
	<path class="st0" d="M42.5,2.3h-35c-2.8,0-5,2.3-5,5l0,0v32.6c0,1.7,0.8,3.3,2.2,4.2L25,57.7l20.3-13.6c1.4-0.9,2.2-2.5,2.2-4.2
		V7.3C47.5,4.6,45.3,2.3,42.5,2.3z"/>
	<text transform="matrix(1 0 0 1 13.1107 42.2332)" fill="#ffffff" stroke="#ffffff" stroke-width="1" class="st1 st2 st3">5</text>
</g>
<g id="not6">
	<path class="st0" d="M42.5,2.3h-35c-2.8,0-5,2.3-5,5l0,0v32.6c0,1.7,0.8,3.3,2.2,4.2L25,57.7l20.3-13.6c1.4-0.9,2.2-2.5,2.2-4.2
		V7.3C47.5,4.6,45.3,2.3,42.5,2.3z"/>
	<text transform="matrix(1 0 0 1 13.1107 42.2332)" fill="#ffffff" stroke="#ffffff" stroke-width="1" class="st1 st2 st3">6</text>
</g>
<g id="not7">
	<path class="st0" d="M42.5,2.3h-35c-2.8,0-5,2.3-5,5l0,0v32.6c0,1.7,0.8,3.3,2.2,4.2L25,57.7l20.3-13.6c1.4-0.9,2.2-2.5,2.2-4.2
		V7.3C47.5,4.6,45.3,2.3,42.5,2.3z"/>
	<text transform="matrix(1 0 0 1 13.1107 42.2332)" fill="#ffffff" stroke="#ffffff" stroke-width="1" class="st1 st2 st3">7</text>
</g>
<g id="not8">
	<path class="st0" d="M42.5,2.3h-35c-2.8,0-5,2.3-5,5l0,0v32.6c0,1.7,0.8,3.3,2.2,4.2L25,57.7l20.3-13.6c1.4-0.9,2.2-2.5,2.2-4.2
		V7.3C47.5,4.6,45.3,2.3,42.5,2.3z"/>
	<text transform="matrix(1 0 0 1 13.1107 42.2332)" fill="#ffffff" stroke="#ffffff" stroke-width="1" class="st1 st2 st3">8</text>
</g>
<g id="not9">
	<path class="st0" d="M42.5,2.3h-35c-2.8,0-5,2.3-5,5l0,0v32.6c0,1.7,0.8,3.3,2.2,4.2L25,57.7l20.3-13.6c1.4-0.9,2.2-2.5,2.2-4.2
		V7.3C47.5,4.6,45.3,2.3,42.5,2.3z"/>
	<text transform="matrix(1 0 0 1 13.1107 42.2332)" fill="#ffffff" stroke="#ffffff" stroke-width="1" class="st1 st2 st3">9</text>
</g>
<g id="not10">
	<path class="st0" d="M42.5,2.3h-35c-2.8,0-5,2.3-5,5l0,0v32.6c0,1.7,0.8,3.3,2.2,4.2L25,57.7l20.3-13.6c1.4-0.9,2.2-2.5,2.2-4.2
		V7.3C47.5,4.6,45.3,2.3,42.5,2.3z"/>
	<text transform="matrix(1 0 0 1 5 40)" fill="#ffffff" stroke="#ffffff" stroke-width="1" class="st1 st2 st4">10</text>
</g>
<g id="not11">
	<path class="st0" d="M42.5,2.3h-35c-2.8,0-5,2.3-5,5l0,0v32.6c0,1.7,0.8,3.3,2.2,4.2L25,57.7l20.3-13.6c1.4-0.9,2.2-2.5,2.2-4.2
		V7.3C47.5,4.6,45.3,2.3,42.5,2.3z"/>
	<text transform="matrix(1 0 0 1 5 40)" fill="#ffffff" stroke="#ffffff" stroke-width="1" class="st1 st2 st4">11</text>
</g>
<g id="not12">
	<path class="st0" d="M42.5,2.3h-35c-2.8,0-5,2.3-5,5l0,0v32.6c0,1.7,0.8,3.3,2.2,4.2L25,57.7l20.3-13.6c1.4-0.9,2.2-2.5,2.2-4.2
		V7.3C47.5,4.6,45.3,2.3,42.5,2.3z"/>
	<text transform="matrix(1 0 0 1 5 40)" fill="#ffffff" stroke="#ffffff" stroke-width="1" class="st1 st2 st4">12</text>
</g>
<g id="not13">
	<path class="st0" d="M42.5,2.3h-35c-2.8,0-5,2.3-5,5l0,0v32.6c0,1.7,0.8,3.3,2.2,4.2L25,57.7l20.3-13.6c1.4-0.9,2.2-2.5,2.2-4.2
		V7.3C47.5,4.6,45.3,2.3,42.5,2.3z"/>
	<text transform="matrix(1 0 0 1 5 40)" fill="#ffffff" stroke="#ffffff" stroke-width="1" class="st1 st2 st4">13</text>
</g>
<g id="not14">
	<path class="st0" d="M42.5,2.3h-35c-2.8,0-5,2.3-5,5l0,0v32.6c0,1.7,0.8,3.3,2.2,4.2L25,57.7l20.3-13.6c1.4-0.9,2.2-2.5,2.2-4.2
		V7.3C47.5,4.6,45.3,2.3,42.5,2.3z"/>
	<text transform="matrix(1 0 0 1 5 40)" fill="#ffffff" stroke="#ffffff" stroke-width="1" class="st1 st2 st4">14</text>
</g>
<g id="not15">
	<path class="st0" d="M42.5,2.3h-35c-2.8,0-5,2.3-5,5l0,0v32.6c0,1.7,0.8,3.3,2.2,4.2L25,57.7l20.3-13.6c1.4-0.9,2.2-2.5,2.2-4.2
		V7.3C47.5,4.6,45.3,2.3,42.5,2.3z"/>
	<text transform="matrix(1 0 0 1 5 40)" fill="#ffffff" stroke="#ffffff" stroke-width="1" class="st1 st2 st4">15</text>
</g>
<g id="not16">
	<path class="st0" d="M42.5,2.3h-35c-2.8,0-5,2.3-5,5l0,0v32.6c0,1.7,0.8,3.3,2.2,4.2L25,57.7l20.3-13.6c1.4-0.9,2.2-2.5,2.2-4.2
		V7.3C47.5,4.6,45.3,2.3,42.5,2.3z"/>
	<text transform="matrix(1 0 0 1 5 40)" fill="#ffffff" stroke="#ffffff" stroke-width="1" class="st1 st2 st4">16</text>
</g>
<g id="not17">
	<path class="st0" d="M42.5,2.3h-35c-2.8,0-5,2.3-5,5l0,0v32.6c0,1.7,0.8,3.3,2.2,4.2L25,57.7l20.3-13.6c1.4-0.9,2.2-2.5,2.2-4.2
		V7.3C47.5,4.6,45.3,2.3,42.5,2.3z"/>
	<text transform="matrix(1 0 0 1 5 40)" fill="#ffffff" stroke="#ffffff" stroke-width="1" class="st1 st2 st4">17</text>
</g>
<g id="not18">
	<path class="st0" d="M42.5,2.3h-35c-2.8,0-5,2.3-5,5l0,0v32.6c0,1.7,0.8,3.3,2.2,4.2L25,57.7l20.3-13.6c1.4-0.9,2.2-2.5,2.2-4.2
		V7.3C47.5,4.6,45.3,2.3,42.5,2.3z"/>
	<text transform="matrix(1 0 0 1 5 40)" fill="#ffffff" stroke="#ffffff" stroke-width="1" class="st1 st2 st4">18</text>
</g>
<g id="not19">
	<path class="st0" d="M42.5,2.3h-35c-2.8,0-5,2.3-5,5l0,0v32.6c0,1.7,0.8,3.3,2.2,4.2L25,57.7l20.3-13.6c1.4-0.9,2.2-2.5,2.2-4.2
		V7.3C47.5,4.6,45.3,2.3,42.5,2.3z"/>
	<text transform="matrix(1 0 0 1 5 40)" fill="#ffffff" stroke="#ffffff" stroke-width="1" class="st1 st2 st4">19</text>
</g>
<g id="not20">
	<path class="st0" d="M42.5,2.3h-35c-2.8,0-5,2.3-5,5l0,0v32.6c0,1.7,0.8,3.3,2.2,4.2L25,57.7l20.3-13.6c1.4-0.9,2.2-2.5,2.2-4.2
		V7.3C47.5,4.6,45.3,2.3,42.5,2.3z"/>
	<text transform="matrix(1 0 0 1 5 40)" fill="#ffffff" stroke="#ffffff" stroke-width="1" class="st1 st2 st4">20</text>
</g>
<g id="not21">
	<path class="st0" d="M42.5,2.3h-35c-2.8,0-5,2.3-5,5l0,0v32.6c0,1.7,0.8,3.3,2.2,4.2L25,57.7l20.3-13.6c1.4-0.9,2.2-2.5,2.2-4.2
		V7.3C47.5,4.6,45.3,2.3,42.5,2.3z"/>
	<text transform="matrix(1 0 0 1 5 40)" fill="#ffffff" stroke="#ffffff" stroke-width="1" class="st1 st2 st4">21</text>
</g>
<g id="not22">
	<path class="st0" d="M42.5,2.3h-35c-2.8,0-5,2.3-5,5l0,0v32.6c0,1.7,0.8,3.3,2.2,4.2L25,57.7l20.3-13.6c1.4-0.9,2.2-2.5,2.2-4.2
		V7.3C47.5,4.6,45.3,2.3,42.5,2.3z"/>
	<text transform="matrix(1 0 0 1 5 40)" fill="#ffffff" stroke="#ffffff" stroke-width="1" class="st1 st2 st4">22</text>
</g>
<g id="not23">
	<path class="st0" d="M42.5,2.3h-35c-2.8,0-5,2.3-5,5l0,0v32.6c0,1.7,0.8,3.3,2.2,4.2L25,57.7l20.3-13.6c1.4-0.9,2.2-2.5,2.2-4.2
		V7.3C47.5,4.6,45.3,2.3,42.5,2.3z"/>
	<text transform="matrix(1 0 0 1 5 40)" fill="#ffffff" stroke="#ffffff" stroke-width="1" class="st1 st2 st4">23</text>
</g>
<g id="not24">
	<path class="st0" d="M42.5,2.3h-35c-2.8,0-5,2.3-5,5l0,0v32.6c0,1.7,0.8,3.3,2.2,4.2L25,57.7l20.3-13.6c1.4-0.9,2.2-2.5,2.2-4.2
		V7.3C47.5,4.6,45.3,2.3,42.5,2.3z"/>
	<text transform="matrix(1 0 0 1 5 40)" fill="#ffffff" stroke="#ffffff" stroke-width="1" class="st1 st2 st4">24</text>
</g>
<g id="not25">
	<path class="st0" d="M42.5,2.3h-35c-2.8,0-5,2.3-5,5l0,0v32.6c0,1.7,0.8,3.3,2.2,4.2L25,57.7l20.3-13.6c1.4-0.9,2.2-2.5,2.2-4.2
		V7.3C47.5,4.6,45.3,2.3,42.5,2.3z"/>
	<text transform="matrix(1 0 0 1 5 40)" fill="#ffffff" stroke="#ffffff" stroke-width="1" class="st1 st2 st4">25</text>
</g>
<g id="not26">
	<path class="st0" d="M42.5,2.3h-35c-2.8,0-5,2.3-5,5l0,0v32.6c0,1.7,0.8,3.3,2.2,4.2L25,57.7l20.3-13.6c1.4-0.9,2.2-2.5,2.2-4.2
		V7.3C47.5,4.6,45.3,2.3,42.5,2.3z"/>
	<text transform="matrix(1 0 0 1 5 40)" fill="#ffffff" stroke="#ffffff" stroke-width="1" class="st1 st2 st4">26</text>
</g>
<g id="not27">
	<path class="st0" d="M42.5,2.3h-35c-2.8,0-5,2.3-5,5l0,0v32.6c0,1.7,0.8,3.3,2.2,4.2L25,57.7l20.3-13.6c1.4-0.9,2.2-2.5,2.2-4.2
		V7.3C47.5,4.6,45.3,2.3,42.5,2.3z"/>
	<text transform="matrix(1 0 0 1 5 40)" fill="#ffffff" stroke="#ffffff" stroke-width="1" class="st1 st2 st4">27</text>
</g>
<g id="not28">
	<path class="st0" d="M42.5,2.3h-35c-2.8,0-5,2.3-5,5l0,0v32.6c0,1.7,0.8,3.3,2.2,4.2L25,57.7l20.3-13.6c1.4-0.9,2.2-2.5,2.2-4.2
		V7.3C47.5,4.6,45.3,2.3,42.5,2.3z"/>
	<text transform="matrix(1 0 0 1 5 40)" fill="#ffffff" stroke="#ffffff" stroke-width="1" class="st1 st2 st4">28</text>
</g>
<g id="not29">
	<path class="st0" d="M42.5,2.3h-35c-2.8,0-5,2.3-5,5l0,0v32.6c0,1.7,0.8,3.3,2.2,4.2L25,57.7l20.3-13.6c1.4-0.9,2.2-2.5,2.2-4.2
		V7.3C47.5,4.6,45.3,2.3,42.5,2.3z"/>
	<text transform="matrix(1 0 0 1 5 40)" fill="#ffffff" stroke="#ffffff" stroke-width="1" class="st1 st2 st4">29</text>
</g>
<g id="not30">
	<path class="st0" d="M42.5,2.3h-35c-2.8,0-5,2.3-5,5l0,0v32.6c0,1.7,0.8,3.3,2.2,4.2L25,57.7l20.3-13.6c1.4-0.9,2.2-2.5,2.2-4.2
		V7.3C47.5,4.6,45.3,2.3,42.5,2.3z"/>
	<text transform="matrix(1 0 0 1 5 40)" fill="#ffffff" stroke="#ffffff" stroke-width="1" class="st1 st2 st4">30</text>
</g>
<g id="not31">
	<path class="st0" d="M42.5,2.3h-35c-2.8,0-5,2.3-5,5l0,0v32.6c0,1.7,0.8,3.3,2.2,4.2L25,57.7l20.3-13.6c1.4-0.9,2.2-2.5,2.2-4.2
		V7.3C47.5,4.6,45.3,2.3,42.5,2.3z"/>
	<text transform="matrix(1 0 0 1 5 40)" fill="#ffffff" stroke="#ffffff" stroke-width="1" class="st1 st2 st4">31</text>
</g>
<g id="not32">
	<path class="st0" d="M42.5,2.3h-35c-2.8,0-5,2.3-5,5l0,0v32.6c0,1.7,0.8,3.3,2.2,4.2L25,57.7l20.3-13.6c1.4-0.9,2.2-2.5,2.2-4.2
		V7.3C47.5,4.6,45.3,2.3,42.5,2.3z"/>
	<text transform="matrix(1 0 0 1 5 40)" fill="#ffffff" stroke="#ffffff" stroke-width="1" class="st1 st2 st4">32</text>
</g>
<g id="not33">
	<path class="st0" d="M42.5,2.3h-35c-2.8,0-5,2.3-5,5l0,0v32.6c0,1.7,0.8,3.3,2.2,4.2L25,57.7l20.3-13.6c1.4-0.9,2.2-2.5,2.2-4.2
		V7.3C47.5,4.6,45.3,2.3,42.5,2.3z"/>
	<text transform="matrix(1 0 0 1 5 40)" fill="#ffffff" stroke="#ffffff" stroke-width="1" class="st1 st2 st4">33</text>
</g>
<g id="not34">
	<path class="st0" d="M42.5,2.3h-35c-2.8,0-5,2.3-5,5l0,0v32.6c0,1.7,0.8,3.3,2.2,4.2L25,57.7l20.3-13.6c1.4-0.9,2.2-2.5,2.2-4.2
		V7.3C47.5,4.6,45.3,2.3,42.5,2.3z"/>
	<text transform="matrix(1 0 0 1 5 40)" fill="#ffffff" stroke="#ffffff" stroke-width="1" class="st1 st2 st4">34</text>
</g>
<g id="not35">
	<path class="st0" d="M42.5,2.3h-35c-2.8,0-5,2.3-5,5l0,0v32.6c0,1.7,0.8,3.3,2.2,4.2L25,57.7l20.3-13.6c1.4-0.9,2.2-2.5,2.2-4.2
		V7.3C47.5,4.6,45.3,2.3,42.5,2.3z"/>
	<text transform="matrix(1 0 0 1 5 40)" fill="#ffffff" stroke="#ffffff" stroke-width="1" class="st1 st2 st4">35</text>
</g>
<g id="not36">
	<path class="st0" d="M42.5,2.3h-35c-2.8,0-5,2.3-5,5l0,0v32.6c0,1.7,0.8,3.3,2.2,4.2L25,57.7l20.3-13.6c1.4-0.9,2.2-2.5,2.2-4.2
		V7.3C47.5,4.6,45.3,2.3,42.5,2.3z"/>
	<text transform="matrix(1 0 0 1 5 40)" fill="#ffffff" stroke="#ffffff" stroke-width="1" class="st1 st2 st4">36</text>
</g>
<g id="not37">
	<path class="st0" d="M42.5,2.3h-35c-2.8,0-5,2.3-5,5l0,0v32.6c0,1.7,0.8,3.3,2.2,4.2L25,57.7l20.3-13.6c1.4-0.9,2.2-2.5,2.2-4.2
		V7.3C47.5,4.6,45.3,2.3,42.5,2.3z"/>
	<text transform="matrix(1 0 0 1 5 40)" fill="#ffffff" stroke="#ffffff" stroke-width="1" class="st1 st2 st4">37</text>
</g>
<g id="not38">
	<path class="st0" d="M42.5,2.3h-35c-2.8,0-5,2.3-5,5l0,0v32.6c0,1.7,0.8,3.3,2.2,4.2L25,57.7l20.3-13.6c1.4-0.9,2.2-2.5,2.2-4.2
		V7.3C47.5,4.6,45.3,2.3,42.5,2.3z"/>
	<text transform="matrix(1 0 0 1 5 40)" fill="#ffffff" stroke="#ffffff" stroke-width="1" class="st1 st2 st4">38</text>
</g>
<g id="not39">
	<path class="st0" d="M42.5,2.3h-35c-2.8,0-5,2.3-5,5l0,0v32.6c0,1.7,0.8,3.3,2.2,4.2L25,57.7l20.3-13.6c1.4-0.9,2.2-2.5,2.2-4.2
		V7.3C47.5,4.6,45.3,2.3,42.5,2.3z"/>
	<text transform="matrix(1 0 0 1 5 40)" fill="#ffffff" stroke="#ffffff" stroke-width="1" class="st1 st2 st4">39</text>
</g>
<g id="not40">
	<path class="st0" d="M42.5,2.3h-35c-2.8,0-5,2.3-5,5l0,0v32.6c0,1.7,0.8,3.3,2.2,4.2L25,57.7l20.3-13.6c1.4-0.9,2.2-2.5,2.2-4.2
		V7.3C47.5,4.6,45.3,2.3,42.5,2.3z"/>
	<text transform="matrix(1 0 0 1 5 40)" fill="#ffffff" stroke="#ffffff" stroke-width="1" class="st1 st2 st4">40</text>
</g>
<g id="not41">
	<path class="st0" d="M42.5,2.3h-35c-2.8,0-5,2.3-5,5l0,0v32.6c0,1.7,0.8,3.3,2.2,4.2L25,57.7l20.3-13.6c1.4-0.9,2.2-2.5,2.2-4.2
		V7.3C47.5,4.6,45.3,2.3,42.5,2.3z"/>
	<text transform="matrix(1 0 0 1 5 40)" fill="#ffffff" stroke="#ffffff" stroke-width="1" class="st1 st2 st4">41</text>
</g>
<g id="not42">
	<path class="st0" d="M42.5,2.3h-35c-2.8,0-5,2.3-5,5l0,0v32.6c0,1.7,0.8,3.3,2.2,4.2L25,57.7l20.3-13.6c1.4-0.9,2.2-2.5,2.2-4.2
		V7.3C47.5,4.6,45.3,2.3,42.5,2.3z"/>
	<text transform="matrix(1 0 0 1 5 40)" fill="#ffffff" stroke="#ffffff" stroke-width="1" class="st1 st2 st4">42</text>
</g>
<g id="not43">
	<path class="st0" d="M42.5,2.3h-35c-2.8,0-5,2.3-5,5l0,0v32.6c0,1.7,0.8,3.3,2.2,4.2L25,57.7l20.3-13.6c1.4-0.9,2.2-2.5,2.2-4.2
		V7.3C47.5,4.6,45.3,2.3,42.5,2.3z"/>
	<text transform="matrix(1 0 0 1 5 40)" fill="#ffffff" stroke="#ffffff" stroke-width="1" class="st1 st2 st4">43</text>
</g>
<g id="not44">
	<path class="st0" d="M42.5,2.3h-35c-2.8,0-5,2.3-5,5l0,0v32.6c0,1.7,0.8,3.3,2.2,4.2L25,57.7l20.3-13.6c1.4-0.9,2.2-2.5,2.2-4.2
		V7.3C47.5,4.6,45.3,2.3,42.5,2.3z"/>
	<text transform="matrix(1 0 0 1 5 40)" fill="#ffffff" stroke="#ffffff" stroke-width="1" class="st1 st2 st4">44</text>
</g>
<g id="not45">
	<path class="st0" d="M42.5,2.3h-35c-2.8,0-5,2.3-5,5l0,0v32.6c0,1.7,0.8,3.3,2.2,4.2L25,57.7l20.3-13.6c1.4-0.9,2.2-2.5,2.2-4.2
		V7.3C47.5,4.6,45.3,2.3,42.5,2.3z"/>
	<text transform="matrix(1 0 0 1 5 40)" fill="#ffffff" stroke="#ffffff" stroke-width="1" class="st1 st2 st4">45</text>
</g>
<g id="not46">
	<path class="st0" d="M42.5,2.3h-35c-2.8,0-5,2.3-5,5l0,0v32.6c0,1.7,0.8,3.3,2.2,4.2L25,57.7l20.3-13.6c1.4-0.9,2.2-2.5,2.2-4.2
		V7.3C47.5,4.6,45.3,2.3,42.5,2.3z"/>
	<text transform="matrix(1 0 0 1 5 40)" fill="#ffffff" stroke="#ffffff" stroke-width="1" class="st1 st2 st4">46</text>
</g>
<g id="not47">
	<path class="st0" d="M42.5,2.3h-35c-2.8,0-5,2.3-5,5l0,0v32.6c0,1.7,0.8,3.3,2.2,4.2L25,57.7l20.3-13.6c1.4-0.9,2.2-2.5,2.2-4.2
		V7.3C47.5,4.6,45.3,2.3,42.5,2.3z"/>
	<text transform="matrix(1 0 0 1 5 40)" fill="#ffffff" stroke="#ffffff" stroke-width="1" class="st1 st2 st4">47</text>
</g>
<g id="not48">
	<path class="st0" d="M42.5,2.3h-35c-2.8,0-5,2.3-5,5l0,0v32.6c0,1.7,0.8,3.3,2.2,4.2L25,57.7l20.3-13.6c1.4-0.9,2.2-2.5,2.2-4.2
		V7.3C47.5,4.6,45.3,2.3,42.5,2.3z"/>
	<text transform="matrix(1 0 0 1 5 40)" fill="#ffffff" stroke="#ffffff" stroke-width="1" class="st1 st2 st4">48</text>
</g>
<g id="not49">
	<path class="st0" d="M42.5,2.3h-35c-2.8,0-5,2.3-5,5l0,0v32.6c0,1.7,0.8,3.3,2.2,4.2L25,57.7l20.3-13.6c1.4-0.9,2.2-2.5,2.2-4.2
		V7.3C47.5,4.6,45.3,2.3,42.5,2.3z"/>
	<text transform="matrix(1 0 0 1 5 40)" fill="#ffffff" stroke="#ffffff" stroke-width="1" class="st1 st2 st4">49</text>
</g>
<g id="not50">
	<path class="st0" d="M42.5,2.3h-35c-2.8,0-5,2.3-5,5l0,0v32.6c0,1.7,0.8,3.3,2.2,4.2L25,57.7l20.3-13.6c1.4-0.9,2.2-2.5,2.2-4.2
		V7.3C47.5,4.6,45.3,2.3,42.5,2.3z"/>
	<text transform="matrix(1 0 0 1 5 40)" fill="#ffffff" stroke="#ffffff" stroke-width="1" class="st1 st2 st4">50</text>
</g>
<g id="not51">
	<path class="st0" d="M42.5,2.3h-35c-2.8,0-5,2.3-5,5l0,0v32.6c0,1.7,0.8,3.3,2.2,4.2L25,57.7l20.3-13.6c1.4-0.9,2.2-2.5,2.2-4.2
		V7.3C47.5,4.6,45.3,2.3,42.5,2.3z"/>
	<text transform="matrix(1 0 0 1 5 40)" fill="#ffffff" stroke="#ffffff" stroke-width="1" class="st1 st2 st4">51</text>
</g>
<g id="not52">
	<path class="st0" d="M42.5,2.3h-35c-2.8,0-5,2.3-5,5l0,0v32.6c0,1.7,0.8,3.3,2.2,4.2L25,57.7l20.3-13.6c1.4-0.9,2.2-2.5,2.2-4.2
		V7.3C47.5,4.6,45.3,2.3,42.5,2.3z"/>
	<text transform="matrix(1 0 0 1 5 40)" fill="#ffffff" stroke="#ffffff" stroke-width="1" class="st1 st2 st4">52</text>
</g>
<g id="not53">
	<path class="st0" d="M42.5,2.3h-35c-2.8,0-5,2.3-5,5l0,0v32.6c0,1.7,0.8,3.3,2.2,4.2L25,57.7l20.3-13.6c1.4-0.9,2.2-2.5,2.2-4.2
		V7.3C47.5,4.6,45.3,2.3,42.5,2.3z"/>
	<text transform="matrix(1 0 0 1 5 40)" fill="#ffffff" stroke="#ffffff" stroke-width="1" class="st1 st2 st4">53</text>
</g>
<g id="not54">
	<path class="st0" d="M42.5,2.3h-35c-2.8,0-5,2.3-5,5l0,0v32.6c0,1.7,0.8,3.3,2.2,4.2L25,57.7l20.3-13.6c1.4-0.9,2.2-2.5,2.2-4.2
		V7.3C47.5,4.6,45.3,2.3,42.5,2.3z"/>
	<text transform="matrix(1 0 0 1 5 40)" fill="#ffffff" stroke="#ffffff" stroke-width="1" class="st1 st2 st4">54</text>
</g>
<g id="not55">
	<path class="st0" d="M42.5,2.3h-35c-2.8,0-5,2.3-5,5l0,0v32.6c0,1.7,0.8,3.3,2.2,4.2L25,57.7l20.3-13.6c1.4-0.9,2.2-2.5,2.2-4.2
		V7.3C47.5,4.6,45.3,2.3,42.5,2.3z"/>
	<text transform="matrix(1 0 0 1 5 40)" fill="#ffffff" stroke="#ffffff" stroke-width="1" class="st1 st2 st4">55</text>
</g>
</svg>
