<?xml version="1.0" encoding="utf-8"?>
<svg version="1.1" id="notifications-icons" xmlns="http://www.w3.org/2000/svg" xmlns:xlink="http://www.w3.org/1999/xlink" x="0px" y="0px"
	 viewBox="0 0 50 60" style="enable-background:new 0 0 50 60;" xml:space="preserve">
<g id="not1">
	<path class="st0" d="M42.5,2.3h-35c-2.8,0-5,2.3-5,5l0,0v32.6c0,1.7,0.8,3.3,2.2,4.2L25,57.7l20.3-13.6c1.4-0.9,2.2-2.5,2.2-4.2
		V7.3C47.5,4.6,45.3,2.3,42.5,2.3z"/>
	<text transform="matrix(1 0 0 1 13.1107 42.2332)" class="st1 st2 st3">1</text>
</g>
<g id="not2">
	<path class="st0" d="M42.5,2.3h-35c-2.8,0-5,2.3-5,5l0,0v32.6c0,1.7,0.8,3.3,2.2,4.2L25,57.7l20.3-13.6c1.4-0.9,2.2-2.5,2.2-4.2
		V7.3C47.5,4.6,45.3,2.3,42.5,2.3z"/>
	<text transform="matrix(1 0 0 1 13.1107 42.2332)" class="st1 st2 st3">2</text>
</g>
<g id="not3">
	<path class="st0" d="M42.5,2.3h-35c-2.8,0-5,2.3-5,5l0,0v32.6c0,1.7,0.8,3.3,2.2,4.2L25,57.7l20.3-13.6c1.4-0.9,2.2-2.5,2.2-4.2
		V7.3C47.5,4.6,45.3,2.3,42.5,2.3z"/>
	<text transform="matrix(1 0 0 1 13.1107 42.2332)" class="st1 st2 st3">3</text>
</g>
<g id="not4">
	<path class="st0" d="M42.5,2.3h-35c-2.8,0-5,2.3-5,5l0,0v32.6c0,1.7,0.8,3.3,2.2,4.2L25,57.7l20.3-13.6c1.4-0.9,2.2-2.5,2.2-4.2
		V7.3C47.5,4.6,45.3,2.3,42.5,2.3z"/>
	<text transform="matrix(1 0 0 1 13.1107 42.2332)" class="st1 st2 st3">4</text>
</g>
<g id="not5">
	<path class="st0" d="M42.5,2.3h-35c-2.8,0-5,2.3-5,5l0,0v32.6c0,1.7,0.8,3.3,2.2,4.2L25,57.7l20.3-13.6c1.4-0.9,2.2-2.5,2.2-4.2
		V7.3C47.5,4.6,45.3,2.3,42.5,2.3z"/>
	<text transform="matrix(1 0 0 1 13.1107 42.2332)" class="st1 st2 st3">5</text>
</g>
<g id="not6">
	<path class="st0" d="M42.5,2.3h-35c-2.8,0-5,2.3-5,5l0,0v32.6c0,1.7,0.8,3.3,2.2,4.2L25,57.7l20.3-13.6c1.4-0.9,2.2-2.5,2.2-4.2
		V7.3C47.5,4.6,45.3,2.3,42.5,2.3z"/>
	<text transform="matrix(1 0 0 1 13.1107 42.2332)" class="st1 st2 st3">6</text>
</g>
<g id="not7">
	<path class="st0" d="M42.5,2.3h-35c-2.8,0-5,2.3-5,5l0,0v32.6c0,1.7,0.8,3.3,2.2,4.2L25,57.7l20.3-13.6c1.4-0.9,2.2-2.5,2.2-4.2
		V7.3C47.5,4.6,45.3,2.3,42.5,2.3z"/>
	<text transform="matrix(1 0 0 1 13.1107 42.2332)" class="st1 st2 st3">7</text>
</g>
<g id="not8">
	<path class="st0" d="M42.5,2.3h-35c-2.8,0-5,2.3-5,5l0,0v32.6c0,1.7,0.8,3.3,2.2,4.2L25,57.7l20.3-13.6c1.4-0.9,2.2-2.5,2.2-4.2
		V7.3C47.5,4.6,45.3,2.3,42.5,2.3z"/>
	<text transform="matrix(1 0 0 1 13.1107 42.2332)" class="st1 st2 st3">8</text>
</g>
<g id="not9">
	<path class="st0" d="M42.5,2.3h-35c-2.8,0-5,2.3-5,5l0,0v32.6c0,1.7,0.8,3.3,2.2,4.2L25,57.7l20.3-13.6c1.4-0.9,2.2-2.5,2.2-4.2
		V7.3C47.5,4.6,45.3,2.3,42.5,2.3z"/>
	<text transform="matrix(1 0 0 1 13.1107 42.2332)" class="st1 st2 st3">9</text>
</g>
<g id="not10">
	<path class="st0" d="M42.5,2.3h-35c-2.8,0-5,2.3-5,5l0,0v32.6c0,1.7,0.8,3.3,2.2,4.2L25,57.7l20.3-13.6c1.4-0.9,2.2-2.5,2.2-4.2
		V7.3C47.5,4.6,45.3,2.3,42.5,2.3z"/>
	<text transform="matrix(1 0 0 1 5 40)" class="st1 st2 st4">10</text>
</g>
<g id="not11">
	<path class="st0" d="M42.5,2.3h-35c-2.8,0-5,2.3-5,5l0,0v32.6c0,1.7,0.8,3.3,2.2,4.2L25,57.7l20.3-13.6c1.4-0.9,2.2-2.5,2.2-4.2
		V7.3C47.5,4.6,45.3,2.3,42.5,2.3z"/>
	<text transform="matrix(1 0 0 1 5 40)" class="st1 st2 st4">11</text>
</g>
<g id="not12">
	<path class="st0" d="M42.5,2.3h-35c-2.8,0-5,2.3-5,5l0,0v32.6c0,1.7,0.8,3.3,2.2,4.2L25,57.7l20.3-13.6c1.4-0.9,2.2-2.5,2.2-4.2
		V7.3C47.5,4.6,45.3,2.3,42.5,2.3z"/>
	<text transform="matrix(1 0 0 1 5 40)" class="st1 st2 st4">12</text>
</g>
<g id="not13">
	<path class="st0" d="M42.5,2.3h-35c-2.8,0-5,2.3-5,5l0,0v32.6c0,1.7,0.8,3.3,2.2,4.2L25,57.7l20.3-13.6c1.4-0.9,2.2-2.5,2.2-4.2
		V7.3C47.5,4.6,45.3,2.3,42.5,2.3z"/>
	<text transform="matrix(1 0 0 1 5 40)" class="st1 st2 st4">13</text>
</g>
<g id="not14">
	<path class="st0" d="M42.5,2.3h-35c-2.8,0-5,2.3-5,5l0,0v32.6c0,1.7,0.8,3.3,2.2,4.2L25,57.7l20.3-13.6c1.4-0.9,2.2-2.5,2.2-4.2
		V7.3C47.5,4.6,45.3,2.3,42.5,2.3z"/>
	<text transform="matrix(1 0 0 1 5 40)" class="st1 st2 st4">14</text>
</g>
<g id="not15">
	<path class="st0" d="M42.5,2.3h-35c-2.8,0-5,2.3-5,5l0,0v32.6c0,1.7,0.8,3.3,2.2,4.2L25,57.7l20.3-13.6c1.4-0.9,2.2-2.5,2.2-4.2
		V7.3C47.5,4.6,45.3,2.3,42.5,2.3z"/>
	<text transform="matrix(1 0 0 1 5 40)" class="st1 st2 st4">15</text>
</g>
<g id="not16">
	<path class="st0" d="M42.5,2.3h-35c-2.8,0-5,2.3-5,5l0,0v32.6c0,1.7,0.8,3.3,2.2,4.2L25,57.7l20.3-13.6c1.4-0.9,2.2-2.5,2.2-4.2
		V7.3C47.5,4.6,45.3,2.3,42.5,2.3z"/>
	<text transform="matrix(1 0 0 1 5 40)" class="st1 st2 st4">16</text>
</g>
<g id="not17">
	<path class="st0" d="M42.5,2.3h-35c-2.8,0-5,2.3-5,5l0,0v32.6c0,1.7,0.8,3.3,2.2,4.2L25,57.7l20.3-13.6c1.4-0.9,2.2-2.5,2.2-4.2
		V7.3C47.5,4.6,45.3,2.3,42.5,2.3z"/>
	<text transform="matrix(1 0 0 1 5 40)" class="st1 st2 st4">17</text>
</g>
<g id="not18">
	<path class="st0" d="M42.5,2.3h-35c-2.8,0-5,2.3-5,5l0,0v32.6c0,1.7,0.8,3.3,2.2,4.2L25,57.7l20.3-13.6c1.4-0.9,2.2-2.5,2.2-4.2
		V7.3C47.5,4.6,45.3,2.3,42.5,2.3z"/>
	<text transform="matrix(1 0 0 1 5 40)" class="st1 st2 st4">18</text>
</g>

<g id="not1-rest">
	<path class="st0" d="M42.5,2.3h-35c-2.8,0-5,2.3-5,5l0,0v32.6c0,1.7,0.8,3.3,2.2,4.2L25,57.7l20.3-13.6c1.4-0.9,2.2-2.5,2.2-4.2
		V7.3C47.5,4.6,45.3,2.3,42.5,2.3z"/>
	<text transform="matrix(1 0 0 1 13.1107 42.2332)" class="st1 st2 st3">1</text>
</g>
<g id="not2-rest">
	<path class="st0" d="M42.5,2.3h-35c-2.8,0-5,2.3-5,5l0,0v32.6c0,1.7,0.8,3.3,2.2,4.2L25,57.7l20.3-13.6c1.4-0.9,2.2-2.5,2.2-4.2
		V7.3C47.5,4.6,45.3,2.3,42.5,2.3z"/>
	<text transform="matrix(1 0 0 1 13.1107 42.2332)" class="st1 st2 st3">2</text>
</g>
<g id="not3-rest">
	<path class="st0" d="M42.5,2.3h-35c-2.8,0-5,2.3-5,5l0,0v32.6c0,1.7,0.8,3.3,2.2,4.2L25,57.7l20.3-13.6c1.4-0.9,2.2-2.5,2.2-4.2
		V7.3C47.5,4.6,45.3,2.3,42.5,2.3z"/>
	<text transform="matrix(1 0 0 1 13.1107 42.2332)" class="st1 st2 st3">3</text>
</g>
<g id="not4-rest">
	<path class="st0" d="M42.5,2.3h-35c-2.8,0-5,2.3-5,5l0,0v32.6c0,1.7,0.8,3.3,2.2,4.2L25,57.7l20.3-13.6c1.4-0.9,2.2-2.5,2.2-4.2
		V7.3C47.5,4.6,45.3,2.3,42.5,2.3z"/>
	<text transform="matrix(1 0 0 1 13.1107 42.2332)" class="st1 st2 st3">4</text>
</g>
<g id="not5-rest">
	<path class="st0" d="M42.5,2.3h-35c-2.8,0-5,2.3-5,5l0,0v32.6c0,1.7,0.8,3.3,2.2,4.2L25,57.7l20.3-13.6c1.4-0.9,2.2-2.5,2.2-4.2
		V7.3C47.5,4.6,45.3,2.3,42.5,2.3z"/>
	<text transform="matrix(1 0 0 1 13.1107 42.2332)" class="st1 st2 st3">5</text>
</g>
</svg>
