<?xml version="1.0" encoding="utf-8"?>
<!-- Generator: Adobe Illustrator 17.0.0, SVG Export Plug-In . SVG Version: 6.00 Build 0)  -->
<!DOCTYPE svg PUBLIC "-//W3C//DTD SVG 1.1//EN" "http://www.w3.org/Graphics/SVG/1.1/DTD/svg11.dtd">
<svg version="1.1" id="Capa_1" xmlns="http://www.w3.org/2000/svg" xmlns:xlink="http://www.w3.org/1999/xlink" x="0px" y="0px"
	 width="50px" height="50px" viewBox="0 0 50 50" style="enable-background:new 0 0 50 50;" xml:space="preserve">
<style type="text/css">
	.st0{opacity:0.9;fill:#0069D1;stroke:#003968;stroke-miterlimit:10;enable-background:new    ;}
	.st1{fill:#FFFFFF;}
	.st2{opacity:0.3;}
</style>
<g id="NotiCocina">
	<path id="boxNoti" class="st0" d="M39.583,1.917H10.417c-2.333,0-4.167,1.917-4.167,4.167l0,0V33.25c0,1.417,0.667,2.75,1.833,3.5
		L25,48.083L41.917,36.75c1.167-0.75,1.833-2.083,1.833-3.5V6.083C43.75,3.833,41.917,1.917,39.583,1.917z"/>
	<g id="cubiertos">
		<path class="st1" d="M35.962,9.268c-0.198-0.198-0.518-0.198-0.716,0l-5.252,5.252c-0.198,0.198-0.198,0.518,0,0.716
			c0.099,0.099,0.229,0.148,0.358,0.148c0.13,0,0.259-0.049,0.358-0.148l5.252-5.252C36.159,9.787,36.159,9.466,35.962,9.268z"/>
		<path class="st1" d="M37.39,10.674c-0.198-0.198-0.519-0.198-0.716,0l-5.252,5.252c-0.198,0.198-0.198,0.519,0,0.716
			c0.099,0.099,0.229,0.148,0.358,0.148c0.13,0,0.259-0.049,0.358-0.148l5.252-5.252C37.588,11.192,37.588,10.872,37.39,10.674z"/>
		<path class="st1" d="M32.435,19.542l6.519-6.519c0.198-0.198,0.198-0.519,0-0.716c-0.198-0.198-0.519-0.198-0.716,0l-6.519,6.519
			c-0.803,0.803-2.031,1.014-3.056,0.525c-0.204-0.097-0.447-0.048-0.597,0.121l-2.215,2.496c-0.001,0.001-0.002,0.002-0.003,0.003
			s-0.002,0.002-0.002,0.003L16.272,32.76c-0.002,0.003-0.005,0.006-0.007,0.008c-0.032,0.037-0.061,0.07-0.092,0.1
			c-0.632,0.632-1.661,0.632-2.293,0c-0.306-0.306-0.475-0.713-0.475-1.146s0.169-0.84,0.475-1.147
			c0.029-0.03,0.062-0.059,0.099-0.091c0.003-0.002,0.006-0.005,0.008-0.007l5.985-5.313c0.209-0.186,0.228-0.506,0.043-0.715
			c-0.186-0.209-0.506-0.228-0.715-0.043l-5.981,5.309c-0.057,0.049-0.108,0.096-0.156,0.144c-0.498,0.498-0.772,1.159-0.772,1.863
			c0,0.704,0.274,1.365,0.771,1.863c0.514,0.513,1.188,0.77,1.863,0.77c0.674,0,1.349-0.257,1.862-0.77
			c0.049-0.049,0.096-0.1,0.144-0.156l7.296-8.22l7.296,8.22c0.048,0.057,0.095,0.108,0.144,0.156
			c0.513,0.513,1.188,0.77,1.863,0.77s1.349-0.257,1.863-0.77c1.027-1.027,1.027-2.698,0-3.725c-0.048-0.049-0.1-0.096-0.156-0.144
			l-8.395-7.451l1.643-1.851C29.916,20.884,31.422,20.556,32.435,19.542z M34.669,30.476c0.003,0.002,0.006,0.005,0.008,0.007
			c0.037,0.032,0.07,0.061,0.1,0.092c0.632,0.632,0.632,1.661,0,2.293s-1.661,0.632-2.293,0c-0.03-0.03-0.06-0.063-0.091-0.1
			c-0.002-0.003-0.005-0.006-0.007-0.008l-7.38-8.314l1.264-1.424L34.669,30.476z"/>
		<path class="st1" d="M34.441,7.793c-0.198-0.198-0.519-0.198-0.716,0l-6.519,6.519c-1.014,1.014-1.342,2.52-0.871,3.851
			l-2.006,1.781l-1.928-1.711c0.997-1.962,0.633-4.344-0.949-5.926c-1.571-1.571-3.391-2.677-5.124-3.113
			c-1.809-0.455-3.361-0.151-4.368,0.856s-1.312,2.559-0.856,4.368c0.436,1.733,1.542,3.553,3.113,5.124
			c1.582,1.582,3.964,1.946,5.926,0.949c0,0,1.885,2.124,1.909,2.151c0.1,0.113,0.239,0.17,0.379,0.17
			c0.12,0,0.24-0.042,0.336-0.128l4.51-4.003c0.169-0.15,0.218-0.393,0.121-0.597c-0.489-1.025-0.279-2.253,0.525-3.056l6.519-6.519
			C34.639,8.312,34.639,7.991,34.441,7.793z M22.473,21.591l-1.844-2.077c-0.163-0.184-0.435-0.224-0.645-0.095
			c-1.624,1.001-3.701,0.758-5.052-0.593c-1.444-1.444-2.455-3.097-2.847-4.655c-0.365-1.45-0.155-2.659,0.59-3.405
			c0.746-0.746,1.955-0.955,3.405-0.59c1.558,0.392,3.212,1.403,4.655,2.847c1.351,1.351,1.594,3.428,0.593,5.052
			c-0.129,0.209-0.089,0.481,0.095,0.645l2.142,1.901L22.473,21.591z"/>
	</g>
	<g class="st2">
		<path class="st1" d="M20.864,17.797c0.896-1.454,0.679-3.314-0.531-4.524c-1.394-1.394-2.981-2.371-4.473-2.745
			c-1.282-0.321-2.367-0.15-2.994,0.476c-0.634,0.634-0.802,1.697-0.474,2.994c0.375,1.49,1.349,3.079,2.745,4.473
			c1.181,1.179,3.1,1.407,4.524,0.531c0.152-0.094,0.326-0.143,0.505-0.143c0.275,0,0.538,0.118,0.719,0.324l1.554,1.749
			l0.378-0.337l-1.773-1.574C20.694,18.711,20.618,18.195,20.864,17.797z"/>
		<path class="st1" d="M37.936,11.308c-0.047,0.118-0.116,0.226-0.21,0.322l-5.283,5.283c-0.181,0.181-0.422,0.283-0.681,0.283
			c-0.257,0-0.496-0.1-0.679-0.281c-0.375-0.377-0.375-0.987-0.002-1.36l5.283-5.283c0.08-0.08,0.176-0.134,0.275-0.179
			c-0.058-0.045-0.112-0.096-0.17-0.141c-0.047,0.096-0.101,0.19-0.181,0.268L31.006,15.5c-0.181,0.181-0.42,0.283-0.679,0.283
			s-0.5-0.101-0.683-0.284c-0.371-0.373-0.371-0.983,0.002-1.358l5.283-5.283c0.065-0.067,0.149-0.107,0.23-0.15
			c-0.072-0.085-0.139-0.174-0.208-0.261c-0.047,0.103-0.105,0.203-0.188,0.286l-6.559,6.558c-0.674,0.674-0.849,1.701-0.438,2.559
			c0.183,0.386,0.089,0.851-0.23,1.134l-4.537,4.028c-0.177,0.156-2.617,2.322-2.809,2.492l-6.02,5.344l-0.089,0.08
			c-0.223,0.223-0.346,0.52-0.346,0.833c0,0.313,0.123,0.61,0.346,0.833c0.44,0.442,1.221,0.445,1.664,0l0.08-0.091l11.864-13.365
			c0.273-0.31,0.752-0.407,1.134-0.23c0.84,0.402,1.905,0.216,2.559-0.438l6.556-6.558c0.11-0.11,0.246-0.176,0.389-0.219
			C38.192,11.574,38.061,11.444,37.936,11.308z"/>
		<path class="st1" d="M32.791,32.592c0.442,0.444,1.221,0.444,1.666,0c0.458-0.458,0.458-1.206,0-1.664l-0.107-0.096l-8.093-7.182
			l-0.703,0.793l7.2,8.113L32.791,32.592z"/>
	</g>
</g>
</svg>
