<!--?xml version="1.0" encoding="utf-8"?-->
<!-- Generator: Adobe Illustrator 17.0.0, SVG Export Plug-In . SVG Version: 6.00 Build 0)  -->

<svg version="1.1" id="Capa_1" xmlns="http://www.w3.org/2000/svg" xmlns:xlink="http://www.w3.org/1999/xlink" x="0px" y="0px" width="48px" height="48px" viewBox="0 0 48 48" style="" xml:space="preserve" class="start">
<style type="text/css">
	.st0{fill:none;stroke:#000000;stroke-width:2;stroke-linecap:round;stroke-linejoin:round;stroke-miterlimit:10;}
	#plato{fill:#DBDBDB;}
	#arroz{fill:#95C759;}
	#taco1,#taco2{fill:#FFD34A;}
	#vapor1,#vapor2,#vapor3{stroke:#777777;}
</style>
<path id="plato" class="st0 TELypWYo_0" d="M0.875,32.958c0,0,0.125,6.083,7,6.083s31.375,0,31.375,0s7.792,0.229,7.792-6.083H0.875z"></path>
<path id="arroz" class="st0 TELypWYo_1" d="M15.938,32c0,0,0.344-3.032,3.031-2.954c0,0,0.156-3.577,3.656-4.015c0,0,2.327-3.625,5.843-1.094
	c0,0,3.625-2.719,6.188,1.406c0,0,2.625-1.344,4.125,1.641c0,0,4.828-0.016,4.156,5.016"></path>
<path id="taco1" class="st0 TELypWYo_2" d="M14.484,26.547L19,21.031L23.19,24.35"></path>
<path id="taco2" class="st0 TELypWYo_3" d="M6.031,32L12.984,25.047L17.393,29.455"></path>
<path id="vapor1" class="st0 TELypWYo_4" d="M13,16.969c0-1.953-0.99-2.016-0.99-3.969c0-1.766,0.99-2.031,0.99-4.047"></path>
<path id="vapor2" class="st0 TELypWYo_5" d="M24.995,16.969c0-1.953-0.99-2.016-0.99-3.969c0-1.766,0.99-2.031,0.99-4.047"></path>
<path id="vapor3" class="st0 TELypWYo_6" d="M36.995,16.969c0-1.953-0.99-2.016-0.99-3.969c0-1.766,0.99-2.031,0.99-4.047"></path>
<style>.TELypWYo_0{stroke-dasharray:100 102;stroke-dashoffset:101;}.start .TELypWYo_0{animation:TELypWYo_draw 666ms linear 0ms forwards;}.TELypWYo_1{stroke-dasharray:38 40;stroke-dashoffset:39;}.start .TELypWYo_1{animation:TELypWYo_draw 666ms linear 55ms forwards;}.TELypWYo_2{stroke-dasharray:13 15;stroke-dashoffset:14;}.start .TELypWYo_2{animation:TELypWYo_draw 666ms linear 111ms forwards;}.TELypWYo_3{stroke-dasharray:17 19;stroke-dashoffset:18;}.start .TELypWYo_3{animation:TELypWYo_draw 666ms linear 166ms forwards;}.TELypWYo_4{stroke-dasharray:9 11;stroke-dashoffset:10;}.start .TELypWYo_4{animation:TELypWYo_draw 888ms linear 222ms alternate infinite;}.TELypWYo_5{stroke-dasharray:9 11;stroke-dashoffset:10;}.start .TELypWYo_5{animation:TELypWYo_draw 1500ms linear 277ms alternate infinite;}.TELypWYo_6{stroke-dasharray:9 11;stroke-dashoffset:10;}.start .TELypWYo_6{animation:TELypWYo_draw 888ms linear 333ms alternate infinite;}@keyframes TELypWYo_draw{100%{stroke-dashoffset:0;}}@keyframes TELypWYo_fade{0%{stroke-opacity:1;}92.3076923076923%{stroke-opacity:1;}100%{stroke-opacity:0;}}</style></svg>
