<?xml version="1.0" encoding="utf-8"?>
<!-- Generator: Adobe Illustrator 17.0.0, SVG Export Plug-In . SVG Version: 6.00 Build 0)  -->
<!DOCTYPE svg PUBLIC "-//W3C//DTD SVG 1.1//EN" "http://www.w3.org/Graphics/SVG/1.1/DTD/svg11.dtd">
<svg version="1.1" id="Capa_1" xmlns="http://www.w3.org/2000/svg" xmlns:xlink="http://www.w3.org/1999/xlink" x="0px" y="0px"
	 width="210px" height="233.333px" viewBox="-80 -91.667 210 233.333" style="enable-background:new -80 -91.667 210 233.333;"
	 xml:space="preserve">
<style type="text/css">
	.st0{opacity:0.2;enable-background:new    ;}
	.st1{fill:#FFFFFF;}
	.st2{fill:url(#SVGID_1_);}
	.st3{fill:#FAFAFA;stroke:#E0E0E0;stroke-width:0.1476;stroke-miterlimit:10;}
	.st4{fill:none;stroke:#FFC107;stroke-width:7.9166;stroke-miterlimit:10;}
	.st5{opacity:0.5;fill:#FFFFFF;enable-background:new    ;}
	.st6{opacity:0.1;enable-background:new    ;}
	.st7{opacity:0.6;}
	.st8{fill:#CCCCCA;}
	.st9{fill:#F2F2F2;}
	.st10{clip-path:url(#SVGID_3_);}
	.st11{fill:#21211D;}
	.st12{fill:#363632;}
	.st13{fill:#5C5C69;}
	.st14{fill:#7C7C8A;}
	.st15{fill:#A2A2AB;}
	.st16{fill:#606087;}
	.st17{fill:#4F6A78;}
	.st18{fill:#3A4D57;}
	.st19{fill:#587280;}
	.st20{fill:#E8A477;}
	.st21{fill:#F1B287;}
	.st22{fill:#F7BE98;}
	.st23{fill:#125F33;}
	.st24{fill:#197C41;}
	.st25{fill:#0E4926;}
	.st26{fill:#F4BC97;}
	.st27{fill:#666666;}
	.st28{fill:#7F7F7F;}
</style>
<g>
	<g>
		<circle class="st0" cx="26.535" cy="102.538" r="35.314"/>
		<circle class="st1" cx="24.616" cy="101.514" r="35.058"/>
		
			<radialGradient id="SVGID_1_" cx="81.3767" cy="-670.4808" r="8.2517" gradientTransform="matrix(3.825 0 0 -3.825 -286.65 -2463.075)" gradientUnits="userSpaceOnUse">
			<stop  offset="0" style="stop-color:#FFFFFF"/>
			<stop  offset="0.4846" style="stop-color:#F5F5F5"/>
			<stop  offset="1" style="stop-color:#E6E6E6"/>
		</radialGradient>
		<circle class="st2" cx="24.616" cy="101.514" r="31.603"/>
		<circle class="st3" cx="24.616" cy="101.514" r="17.018"/>
		<circle class="st4" cx="24.616" cy="101.514" r="31.476"/>
		<path class="st5" d="M49.438,76.692l-49.516,49.516c-13.691-13.69-13.691-35.826,0-49.516S35.748,63.001,49.438,76.692z"/>
		<path class="st6" d="M10.03,101.514c0-9.085,7.037-16.378,15.994-16.889c-0.384,0-0.768,0-1.152,0
			c-9.341,0-17.018,7.549-17.018,17.017c0,9.468,7.549,17.018,17.018,17.018c0.384,0,0.768,0,1.152,0
			C17.067,117.892,10.03,110.599,10.03,101.514z"/>
		<g id="XMLID_12_">
			<g class="st7">
				<path id="XMLID_27_" d="M61.85,134.269h0.768l0.128-11.771c0-0.128,0-0.256,0.128-0.256c0.128-0.128,0.384-0.128,0.512,0
					l-0.128,12.027h0.768l0.128-11.771l0,0c0.128-0.256,0.512-0.128,0.512,0.128v11.644h0.895l0.128-11.644
					c0-0.256,0.384-0.384,0.512-0.128l0,0v11.771h0.768l-0.128-12.027c0.128-0.128,0.384-0.128,0.512,0s0.128,0.128,0.128,0.256
					v11.771h0.768v-17.657c0-0.384-0.128-0.768-0.256-1.024l-1.535-3.199c-0.128-0.384-0.256-0.768-0.256-1.152l1.28-38.513
					c0-0.768-0.256-1.407-0.895-1.919l0,0c-0.895-0.768-2.175-0.768-3.071,0l0,0c-0.512,0.512-0.895,1.152-0.895,1.919l1.024,38.513
					c0,0.384-0.128,0.768-0.256,1.152l-1.535,3.071c-0.128,0.384-0.256,0.64-0.256,1.024L61.85,134.269z"/>
				<polygon id="XMLID_26_" points="63.641,98.443 63.897,107.272 66.712,105.481 66.968,96.396 				"/>
				<path id="XMLID_25_" d="M63.257,83.985l4.222-2.687l0.256-8.445c0-0.256,0-0.384,0-0.64l-4.734,2.943L63.257,83.985z"/>
				<polygon id="XMLID_24_" points="61.85,119.683 67.863,114.693 67.352,113.669 61.978,118.276 				"/>
				<polygon id="XMLID_23_" points="61.85,127.104 62.745,126.336 62.745,123.905 61.85,124.545 				"/>
				<path id="XMLID_22_" d="M64.664,122.626v2.047l1.024-0.895v-1.28c0-0.256,0.384-0.384,0.512-0.128l0,0v0.768l0.64-0.64v-0.512
					c0.128-0.128,0.384-0.128,0.512,0c0,0,0,0,0,0.128l0.895-0.768v-2.431l-4.094,3.327
					C64.537,122.498,64.664,122.498,64.664,122.626z"/>
				<polygon id="XMLID_21_" points="64.153,125.185 64.153,122.754 63.385,123.266 63.385,125.825 				"/>
			</g>
			<g>
				<g>
					<path id="XMLID_20_" class="st8" d="M61.082,133.502h0.768l0.128-11.771c0-0.128,0-0.256,0.128-0.256
						c0.128-0.128,0.384-0.128,0.512,0l-0.128,12.027h0.768l0.128-11.771l0,0c0.128-0.256,0.512-0.128,0.512,0.128v11.643h0.895
						l0.128-11.643c0-0.256,0.384-0.384,0.512-0.128l0,0v11.771H66.2l-0.128-12.027c0.128-0.128,0.384-0.128,0.512,0
						c0.128,0.128,0.128,0.128,0.128,0.256v11.771h0.768v-17.657c0-0.384-0.128-0.768-0.256-1.024l-1.535-3.199
						c-0.128-0.384-0.256-0.768-0.256-1.151l1.28-38.513c0-0.768-0.256-1.408-0.895-1.919l0,0c-0.895-0.768-2.175-0.768-3.071,0l0,0
						c-0.512,0.512-0.895,1.152-0.895,1.919l1.024,38.513c0,0.384-0.128,0.768-0.256,1.151l-1.535,3.071
						c-0.128,0.384-0.256,0.64-0.256,1.024L61.082,133.502z"/>
					<polygon id="XMLID_19_" class="st9" points="62.873,97.676 63.129,106.504 65.944,104.713 66.2,95.628 					"/>
					<path id="XMLID_18_" class="st9" d="M62.49,83.217l4.223-2.687l0.256-8.445c0-0.256,0-0.384,0-0.64l-4.734,2.943L62.49,83.217z
						"/>
					<polygon id="XMLID_17_" class="st9" points="61.082,118.915 67.095,113.925 66.584,112.901 61.082,117.38 					"/>
					<g id="XMLID_13_">
						<polygon id="XMLID_16_" class="st9" points="61.082,126.336 61.978,125.569 61.978,123.137 61.082,123.777 						"/>
						<path id="XMLID_15_" class="st9" d="M63.897,121.858v2.047l1.024-0.895v-1.28c0-0.256,0.384-0.384,0.512-0.128l0,0v0.768
							l0.64-0.64v-0.512c0.128-0.128,0.384-0.128,0.512,0c0,0,0,0,0,0.128l0.895-0.768v-2.431l-4.094,3.327
							C63.769,121.73,63.897,121.73,63.897,121.858z"/>
						<polygon id="XMLID_14_" class="st9" points="63.385,124.417 63.385,121.986 62.617,122.498 62.617,125.057 						"/>
					</g>
				</g>
			</g>
		</g>
		<g id="XMLID_1_">
			<g class="st7">
				<path id="XMLID_11_" d="M-18.759,71.318l0.256,62.184c0,0.895,1.152,1.152,1.664,0.384l0,0
					c1.791-3.327,3.071-7.037,3.583-10.876l0.512-3.583c0.384-2.815-0.128-5.758-1.664-8.317l0,0
					c-1.279-2.175-1.919-4.734-1.791-7.293l1.663-26.869c0.128-1.663,0-3.199-0.512-4.734l0,0c-0.384-1.28-1.408-2.047-2.687-2.047
					l0,0C-18.247,70.294-18.759,70.806-18.759,71.318z"/>
				<polygon id="XMLID_10_" points="-18.631,90.766 -18.631,99.595 -15.816,97.804 -15.176,88.463 				"/>
				<path id="XMLID_9_" d="M-17.735,70.294c-0.64,0-1.024,0.512-1.024,1.152v4.606l4.094-2.559c-0.128-0.384-0.128-0.64-0.256-1.024
					C-15.304,71.062-16.456,70.294-17.735,70.294z"/>
				<path id="XMLID_8_" d="M-16.2,104.457l-2.431,2.047v1.535l2.559-2.047C-16.2,105.481-16.2,104.969-16.2,104.457z"/>
				<path id="XMLID_7_" d="M-18.503,126.848v2.431l4.862-3.967c0.128-0.768,0.256-1.535,0.384-2.303l0.128-0.64L-18.503,126.848z"/>
			</g>
			<g>
				<g>
					<path id="XMLID_6_" class="st8" d="M-19.527,70.55l0.256,62.056c0,0.895,1.152,1.152,1.663,0.384l0,0
						c1.791-3.327,3.071-7.037,3.583-10.876l0.512-3.583c0.384-2.815-0.128-5.758-1.664-8.317l0,0
						c-1.279-2.175-1.919-4.734-1.791-7.293l1.663-26.869c0.128-1.663,0-3.199-0.512-4.734l0,0c-0.384-1.28-1.407-2.047-2.687-2.047
						l0,0C-19.015,69.527-19.527,70.038-19.527,70.55z"/>
					<polygon id="XMLID_5_" class="st9" points="-19.527,89.87 -19.398,98.827 -16.584,97.036 -15.944,87.695 					"/>
					<path id="XMLID_4_" class="st9" d="M-18.503,69.527c-0.64,0-1.024,0.512-1.024,1.152v4.606l4.094-2.559
						c-0.128-0.384-0.128-0.64-0.256-1.024C-16.072,70.294-17.223,69.527-18.503,69.527z"/>
					<path id="XMLID_3_" class="st9" d="M-16.968,103.689l-2.431,2.047v1.535l2.559-2.047
						C-16.968,104.713-16.968,104.201-16.968,103.689z"/>
					<path id="XMLID_2_" class="st9" d="M-19.398,126.08v2.431l4.862-3.967c0.128-0.768,0.256-1.535,0.384-2.303l0.128-0.64
						L-19.398,126.08z"/>
				</g>
			</g>
		</g>
	</g>
	<g>
		<g>
			<g>
				<g>
					<g>
						<g>
							<defs>
								<rect id="SVGID_2_" x="-77.36" y="-87.852" width="204.72" height="136.139"/>
							</defs>
							<clipPath id="SVGID_3_">
								<use xlink:href="#SVGID_2_"  style="overflow:visible;"/>
							</clipPath>
							<g class="st10">
								<g>
									<path class="st11" d="M-20.422-9.291c2.815-4.222,25.078-7.293,47.341-6.526c20.216,0.64,40.304,4.478,45.55,13.179
										c8.956,14.97,15.866,76.386-11.9,77.794c-28.661,1.535-48.621,0.895-77.282-1.407
										C-41.022,68.759-31.042,6.959-20.422-9.291z"/>
									<path d="M-13.385-9.291c2.687-4.094,19.96-7.293,39.025-6.526c17.401,0.64,35.954,4.478,40.432,13.179
										c7.677,14.97,16.505,77.154-7.421,78.689c-24.694,1.535-51.18-1.919-75.874-4.222
										C-37.951,66.712-24.516,6.959-13.385-9.291z"/>
									<path class="st12" d="M-19.271-10.442c5.502-3.71,25.846-6.142,46.062-5.374c20.216,0.64,40.304,4.478,45.55,13.179
										c8.445,14.202,15.098,70.372-7.933,77.154c18.681-11.388,12.283-62.184,4.35-75.49
										c-5.246-8.701-25.334-12.539-45.55-13.179C6.192-14.793-10.954-13.129-19.271-10.442z"/>
									<path d="M-44.221-42.302c1.279-4.99,3.455-11.387,3.071-21.24c-0.64-16.378,7.293-19.448,27.125-18.169
										c16.122,1.024,27.125,0,39.664,0c11.388,0,26.997,1.024,38.513,0.64c13.69-0.512,26.102,2.943,25.846,15.866
										c-0.128,5.63-2.175,15.994,0.128,22.391c10.62,29.813-48.109,45.167-72.164,42.863
										C-3.661,0.178-51.514-13.257-44.221-42.302z"/>
									<path class="st11" d="M63.641-81.071h0.384c13.69-0.512,26.102,2.943,25.846,15.866c-0.128,5.63-2.175,15.994,0.128,22.391
										C100.235-14.025,45.728,1.329,20.394,0.305c26.869-1.024,73.955-16.122,64.359-43.119
										c-2.303-6.397-0.256-16.761-0.128-22.391C84.881-76.464,75.285-80.559,63.641-81.071z"/>
									<g>
										<g>
											<path class="st13" d="M-43.069,76.82h-4.222c-4.478,0-8.061-3.583-8.061-8.061V-11.21c0-4.478,3.583-8.061,8.061-8.061
												h4.222c4.478,0,8.061,3.583,8.061,8.061v79.969C-35.009,73.109-38.719,76.82-43.069,76.82z"/>
											<path class="st14" d="M-43.709,76.82h-2.943c-3.071,0-5.502-2.431-5.502-5.502v-85.087c0-3.071,2.431-5.502,5.502-5.502
												h2.815c3.071,0,5.502,2.431,5.502,5.502v85.087C-38.207,74.261-40.766,76.82-43.709,76.82z"/>
											<path class="st15" d="M-42.685,74.772H-45.5c-1.663,0-3.071-0.64-4.094-1.791c0.768,0.384,1.535,0.512,2.431,0.512h2.815
												c3.071,0,5.502-2.431,5.502-5.374v-82.144c0-1.407-0.512-2.687-1.407-3.583c1.791,0.895,3.071,2.687,3.071,4.734v82.272
												C-37.184,72.341-39.615,74.772-42.685,74.772z"/>
										</g>
										<g>
											<path class="st13" d="M93.581,76.82h-4.222c-4.478,0-8.061-3.583-8.061-8.061V-11.21c0-4.478,3.583-8.061,8.061-8.061
												h4.222c4.478,0,8.061,3.583,8.061,8.061v79.969C101.642,73.109,98.06,76.82,93.581,76.82z"/>
											<path class="st14" d="M92.942,76.82h-2.815c-3.071,0-5.502-2.431-5.502-5.502v-85.087c0-3.071,2.431-5.502,5.502-5.502
												h2.815c3.071,0,5.502,2.431,5.502,5.502v85.087C98.443,74.261,95.884,76.82,92.942,76.82z"/>
											<path class="st15" d="M93.965,74.772H91.15c-1.664,0-3.071-0.64-4.094-1.791c0.768,0.384,1.535,0.512,2.431,0.512h2.815
												c3.071,0,5.502-2.431,5.502-5.374v-82.272c0-1.408-0.512-2.687-1.408-3.583c1.791,0.896,3.071,2.687,3.071,4.734v82.4
												C99.467,72.341,97.036,74.772,93.965,74.772z"/>
										</g>
									</g>
									<path class="st11" d="M-40.894-57.784c-3.967-20.472,4.222-28.917,24.055-27.381c16.122,1.279,30.068,2.175,42.479,2.175
										c11.388,0,28.021-1.664,39.537-2.175c19.96-0.896,27.765,3.839,24.694,25.846c-1.919,13.947-34.162-6.142-68.581-5.118
										C-10.57-63.414-39.743-51.642-40.894-57.784z"/>
									<path class="st12" d="M25.64-82.862c11.388,0,28.021-1.664,39.537-2.175c19.96-0.896,27.765,3.838,24.694,25.846
										c-0.512,3.327-2.687,4.734-6.142,4.99l0,0c1.535-11.26,0.256-18.041-4.094-21.751
										C71.958-82.734,44.832-78.256,25.64-82.862z"/>
									<path d="M22.953-82.862c-11.388,0-28.021-1.664-39.537-2.175c-19.96-0.896-27.765,3.838-24.694,25.846
										c0.512,3.327,2.559,4.734,6.142,4.99l0,0c-1.535-11.26-0.256-18.041,4.094-21.751
										C-23.365-82.734,3.76-78.256,22.953-82.862z"/>
								</g>
								<g>
									<g>
										<path class="st16" d="M-9.546,5.168l33.651,13.051c19.704-5.758,21.112-8.061,28.149-5.118
											c13.819,5.886,14.97,27.125,19.321,47.086c4.478,20.472,11.771,34.035,7.037,47.853
											c-8.445,24.566-20.6,14.842-25.462,4.606c-4.478-9.34-10.364-29.173-16.633-44.527
											c-3.327-8.317-3.839-15.994-8.701-18.297c-4.35-2.047-7.165-1.535-8.701,0.384c-0.512,0.64-2.431,10.236-4.734,22.007
											C7.983,105.096,5.04,116.74-1.997,120.066c-11.26,5.246-16.249,1.408-20.088-4.99
											c-6.397-10.492,1.919-61.416,6.781-91.868C-13.641,11.949-15.944,9.518-9.546,5.168z"/>
										<path class="st17" d="M-9.546,5.168l33.651,13.051c19.704-5.758,21.112-8.061,28.149-5.118
											c13.819,5.886,14.97,27.125,19.321,47.086c4.478,20.472,11.771,34.035,7.037,47.853
											c-8.445,24.566-20.6,14.842-25.462,4.606c-4.478-9.34-10.364-29.173-16.633-44.527
											c-3.327-8.317-3.839-15.994-8.701-18.297c-4.35-2.047-7.165-1.535-8.701,0.384c-0.512,0.64-2.431,10.236-4.734,22.007
											C7.983,105.096,5.04,116.74-1.997,120.066c-11.26,5.246-16.249,1.408-20.088-4.99
											c-6.397-10.492,1.919-61.416,6.781-91.868C-13.641,11.949-15.944,9.518-9.546,5.168z"/>
										<path class="st18" d="M42.785,12.461c3.839-1.024,5.886-0.895,9.468,0.64c13.819,5.886,14.97,27.125,19.321,47.086
											c4.478,20.472,11.771,34.035,7.037,47.853c-4.734,13.69-10.62,16.762-15.738,14.97c3.327-1.664,6.653-6.142,9.468-14.459
											c2.047-5.886-2.175-27.893-6.781-47.597c-4.223-17.657-8.701-33.523-11.515-34.162c-10.492-2.559-39.92,3.583-63.335-5.63
											C-10.442,20.522,43.808,12.589,42.785,12.461L42.785,12.461z M28.583,49.694c-2.303-3.839-7.165-4.222-10.876-2.815
											C9.902,49.822,9.518,65.304,8.11,72.597C1.713,105.48-1.23,117.124-8.267,120.45c-1.791,0.895-3.454,1.535-4.99,1.919
											c2.943,0.512,6.525-0.128,11.26-2.303c7.037-3.327,9.98-14.97,16.378-47.853c2.303-11.899,4.222-21.368,4.734-22.007
											C19.242,49.95,22.313,47.007,28.583,49.694z"/>
										<path class="st19" d="M-9.546,5.168l5.758,2.431c-6.397,4.35-4.222,6.782-6.013,18.169
											c-4.734,30.452-13.179,81.376-6.782,91.868c1.152,1.919,2.431,3.583,3.966,4.862c-4.478-0.512-7.421-3.455-9.724-7.421
											c-6.397-10.492,1.919-61.416,6.781-91.868C-13.641,11.949-15.944,9.518-9.546,5.168z"/>
									</g>
								</g>
							</g>
						</g>
					</g>
				</g>
			</g>
		</g>
		<g>
			<g>
				<g>
					<path class="st20" d="M-19.271,130.303l0.512-0.384l-0.128-2.175l-0.896-3.583l-0.128-1.664l-0.256,1.919
						c0,0,0.128,2.431,0.128,2.559C-19.91,127.232-19.271,130.303-19.271,130.303z"/>
					<path class="st21" d="M-18.631,76.82c1.408,3.327,3.071,8.445,4.862,11.004c2.175,3.199,3.327,3.967,4.99,7.037
						c1.279,2.175,1.664,4.35,2.431,7.037l0.768,5.118c0.512,2.431,0.256,2.047-0.256,4.606l-1.152,5.886l-0.896-0.128l0.384,4.35
						c0.256,4.606-1.279,5.246-2.175,5.118c-0.768,0-1.664,0.128-2.175-2.303c-0.384-1.791-0.384-4.35-0.768-6.269
						c-0.768-4.094-0.384-5.118-1.791-8.445c-0.768-1.791-2.047-0.895-1.919,0.768c0.128,1.535,0.512,2.815,0.64,4.606
						c0.128,1.664,0.384,4.094,0.384,5.63c0.128,1.919,0.64,5.246,0.512,6.909c-0.128,1.791-0.384,3.327-2.047,3.071
						c-0.896-0.128-2.047-0.895-2.431-2.687c-0.64-2.815-0.64-5.758-1.024-8.701c-0.384-3.327-0.64-5.118-0.64-8.573
						c0-0.768-0.256-1.151-0.384-0.384c-0.128,3.838,0,5.886,0.64,9.852c0.384,2.687,0.896,5.118,1.279,7.805
						c0.256,1.535,0.768,1.664,0.384,1.919c-3.454,2.815-3.454-2.687-4.606-4.734c-1.024-2.431-4.094-6.653-4.222-8.828
						l-0.512-8.445c-0.384-2.559-1.024-5.63-0.896-8.189c0.128-2.815,0.768-5.246,0.64-7.805c-0.384-4.222-2.047-7.933-3.711-13.307
						L-18.631,76.82z"/>
					<path class="st20" d="M-15.56,109.063c-0.384,0.128-0.768,0.895-0.768,1.791c0.128,1.535,0.512,2.559,0.64,4.223
						c0.128,1.663,0.384,4.094,0.512,5.63c0.128,1.919,0.512,5.63,0.384,7.293c-0.128,1.535-0.128,3.199-1.791,3.071
						c1.152-2.303,0.384-7.805,0-12.411C-16.839,114.949-18.375,108.167-15.56,109.063L-15.56,109.063L-15.56,109.063z
						 M-21.062,110.215c-0.128,0-0.128,0.128-0.128,0.384c-0.128,3.838,0,5.886,0.64,9.852c0.384,2.687,0.896,5.118,1.279,7.805
						c0.128,0.768,0.384,1.151,0.384,1.408v0.256c0,0.128,0,0.128-0.128,0.256c-0.768,0.895-1.408,0.895-2.047,0.512
						c0.384,0,0.512-0.384,0.512-0.64c0.256-3.583-1.535-8.317-2.175-11.771c0.256-2.431,0.512-6.013,0.768-7.677
						C-21.702,109.447-21.19,109.447-21.062,110.215z"/>
					<path class="st20" d="M-18.631,76.82c1.408,3.327,3.071,8.445,4.862,11.004c2.175,3.199,3.199,3.71,4.862,6.653
						c1.279,2.303,1.664,4.35,2.431,7.037l0.768,5.502c0.512,2.431,0.256,2.047-0.256,4.606l-1.152,5.886l-0.896-0.128l0.384,4.35
						c0.128,2.431-0.256,3.967-0.896,4.734c0.256-3.327,0.128-6.142,0-9.085c-0.128-2.175,0-3.838-0.384-5.63
						c-0.512-2.687-1.535-5.374-1.535-8.061c0-1.152,0.256-2.175,0.64-3.327c-0.128,5.758,1.791,8.957,2.175,13.946
						c0.512-3.583,0.512-4.606,0.512-6.013c0-1.535-0.512-6.142-1.152-8.189c-2.175-6.653-4.734-5.886-8.189-11.387
						c-2.175-3.455-3.966-7.933-5.246-11.771L-18.631,76.82z"/>
					<path class="st20" d="M-24.261,123.137l-1.279-4.734c0-2.687,0.128-6.142,0-8.573c0-0.768-0.64-0.768-0.64,0.128
						c-0.256,3.327-0.128,5.118,0.256,8.829L-24.261,123.137z"/>
					<path class="st22" d="M-8.651,125.952c0.128-0.768,0-2.175-0.128-2.687c-0.512-0.384-1.919-0.128-2.047,0.128
						c-0.256,0.256-0.128,0.768-0.128,1.408c0.128,0.64,0.128,1.28,0.384,1.535C-10.57,126.464-9.163,126.592-8.651,125.952z"/>
					<path class="st22" d="M-15.688,129.919c0.128-0.768,0-2.175-0.256-2.687c-0.512-0.384-2.175-0.128-2.431,0.128
						c-0.256,0.256-0.256,0.768-0.128,1.408c0.128,0.64,0.128,1.28,0.512,1.535C-17.735,130.431-16.2,130.559-15.688,129.919z"/>
					<path class="st22" d="M-20.038,130.175c0-0.768-0.256-2.175-0.384-2.687c-0.384-0.384-1.408-0.128-1.535,0.128
						c-0.128,0.256,0,0.768,0,1.408c0.128,0.64,0.256,1.28,0.512,1.535C-21.318,130.559-20.294,130.814-20.038,130.175z"/>
					<path class="st22" d="M-8.267,116.612c0-0.768,0.128-2.175,0.256-2.687c0.256-0.384,1.152-0.128,1.152,0.128
						c0.128,0.256,0,0.768,0,1.408c-0.128,0.64-0.128,1.28-0.384,1.535C-7.243,117.124-8.011,117.252-8.267,116.612z"/>
				</g>
				<path class="st23" d="M-30.658,88.847C-33.345,74.9-48.059,39.074-46.652,29.222c3.838,0,19.576-6.397,23.159,1.919
					c4.222,11.771,2.431,39.664,8.829,54.507h-0.128c-4.35,0-9.852,1.024-14.714,3.455L-30.658,88.847z"/>
				<path class="st24" d="M-28.099,88.463c-0.128-0.512-0.256-1.024-0.384-1.663c0.64-0.128-11.004-41.2-12.539-54.507
					c-2.559,0-3.454-0.512-5.63-0.895l0,0c0.512,10.492,9.98,35.954,14.458,51.052c0.64,2.303,1.279,4.862,1.791,7.165
					C-29.763,89.231-28.867,88.847-28.099,88.463z"/>
				<path class="st25" d="M-23.749,30.63c4.222,11.26,3.327,40.049,8.956,55.018h-0.512l-1.279-0.384
					c-6.27-14.842-7.293-42.479-11.515-54.251C-26.436,30.886-25.156,30.886-23.749,30.63z"/>
				<g>
					<g>
						<path class="st20" d="M33.445,106.12c0-0.256-0.384-0.512-0.64-0.512c-1.024,0.128-3.583,2.303-3.838,2.431
							c0.512,0.128,0.895,0.512,1.408,0.512c0.64-0.128,1.535-0.512,2.047-0.895C33.061,107.144,33.445,106.504,33.445,106.12z"/>
						<path class="st20" d="M28.454,101.386c0-0.384-0.384-0.64-0.64-0.512c-1.024,0.256-3.454,2.815-3.71,3.071
							c0.512,0.128,0.895,0.512,1.407,0.384c0.64-0.128,1.535-0.64,2.047-1.151C28.071,102.665,28.454,101.898,28.454,101.386z"/>
						<path class="st21" d="M62.745,81.17c-4.734,7.677-3.454,8.573-6.781,16.122c-1.024,2.303-2.559,4.35-4.35,7.165
							c-1.408,2.047-3.199,4.734-4.606,6.142c-1.152,1.151-2.687,1.535-3.839,0.128c-1.024,1.024-2.303,3.327-3.583,3.327
							c-1.024,0-2.559-0.64-3.327-1.919c-1.024,1.024-1.664,1.408-2.303,1.535c-1.024,0.128-3.327-1.152-4.35-1.664
							c-1.919-1.024-1.28-2.559-0.768-4.35c-1.024,0.256-2.687,0.384-3.838-0.256c-0.895-0.512-1.664-1.791-0.895-3.455
							c2.047-0.895,3.327-1.28,5.246-2.943c-1.664,0.512-2.303,0.895-4.35-1.024c1.407-1.535,2.559-3.327,3.71-5.374
							c2.303-3.967,2.431-6.269,4.478-8.189c7.165-7.037,13.69-3.71,17.657-13.435L62.745,81.17L62.745,81.17z M29.478,107.783
							c1.024,0.128,1.919,0,2.687-0.64c1.664-1.151,3.454-3.454,5.246-5.374c-1.664,0.895-4.094,3.454-5.374,4.222
							C30.118,107.144,29.478,107.783,29.478,107.783z"/>
						<path class="st21" d="M62.745,81.17c-4.734,7.677-3.454,8.573-6.781,16.122c-1.024,2.303-2.559,4.35-4.35,7.165
							c-1.408,2.047-3.199,4.734-4.606,6.142c-1.152,1.151-2.687,1.535-3.839,0.128c-1.024,1.024-2.303,3.327-3.583,3.327
							c-1.024,0-2.559-0.64-3.327-1.919c-1.024,1.024-1.664,1.408-2.303,1.535c-1.024,0.128-3.327-1.152-4.35-1.664
							c-1.919-1.024-1.28-2.559-0.768-4.35c-1.024,0.256-2.687,0.384-3.838-0.256c-0.895-0.512-1.664-1.791-0.895-3.455
							c2.047-0.895,3.327-1.28,5.246-2.943c-1.664,0.512-2.303,0.895-4.35-1.024c1.407-1.535,2.559-3.327,3.71-5.374
							c2.303-3.967,2.431-6.269,4.478-8.189c7.165-7.037,13.69-3.71,17.657-13.435L62.745,81.17L62.745,81.17z M29.478,107.783
							c1.024,0.128,1.919,0,2.687-0.64c1.664-1.151,3.454-3.454,5.246-5.374c-1.664,0.895-4.094,3.454-5.374,4.222
							C30.118,107.144,29.478,107.783,29.478,107.783z"/>
						<path class="st20" d="M60.314,85.648c-1.919,3.967-1.664,5.886-4.223,11.644c-1.024,2.303-2.559,4.35-4.35,7.165
							c-1.28,1.919-5.63,9.724-8.445,6.269c0.384-0.256,2.047,1.408,3.838-0.895c1.791-2.175,5.758-8.189,7.805-12.795
							c3.327-7.549,0.128-8.189,4.99-15.866c0,0,0.256-0.64,0.768-1.663l1.919,2.175C61.594,82.961,60.826,84.369,60.314,85.648z"/>
						<path class="st20" d="M45.6,111.494c-0.895,0.384-1.791,0.256-2.559-0.64c-0.512,0.512-1.024,1.152-1.535,1.791
							c0.895-1.535,1.152-2.687,2.303-4.094c0.256-0.256,2.175-2.559,2.175-2.559c0.64-0.256-0.384,1.024-1.152,2.175
							c-0.64,0.895-1.152,1.663-1.152,1.919c-0.128,0.768,0.64,1.28,1.024,1.408C45.088,111.366,45.344,111.494,45.6,111.494
							L45.6,111.494z M36.643,112.774c0-0.128,0-0.128,0.128-0.256c1.024-2.303,2.943-4.478,4.222-5.886
							c0.768-0.895,1.535-1.535,1.407-1.791c-0.128-0.256-1.152,0.64-2.175,1.664c-1.664,1.791-3.71,4.478-4.606,6.013
							c0,0-0.128,0.256-0.256,0.64c0.256-0.256,0.64-0.512,1.024-0.895C36.388,112.39,36.515,112.646,36.643,112.774L36.643,112.774
							z M28.71,108.551l0.256-0.768h-0.128l0,0c0.895-0.384,1.535-1.024,2.815-1.408l-2.175,1.535c1.152-0.128,1.791,0,2.559-0.384
							c1.28-0.768,2.047-2.303,3.071-3.327c0.768-0.768,2.559-2.559,3.199-2.431c0.128,0-1.664,1.791-2.687,3.071
							c-1.28,1.535-2.559,3.583-3.583,3.967c-0.512,0.256-0.895-0.128-1.407-0.128c-0.384,0-0.895,0.384-1.28,0.256
							C29.094,108.807,28.839,108.679,28.71,108.551L28.71,108.551z M29.35,101.13c2.943-1.535,3.583-3.838,5.374-8.189
							c0.384-1.024,0.128-2.303-0.512-0.64c-1.024,2.303-2.559,6.269-4.734,7.677c-0.895,0.512-2.303,0.64-3.327-0.128
							c0.128-0.128,1.664-1.663,3.839-5.374c2.431-3.838,4.222-6.142,6.142-7.805c4.094-3.711,10.876-3.583,14.97-12.283
							l-0.895-1.024c-5.246,8.829-9.596,5.886-16.761,12.923c-1.919,1.919-2.047,4.094-4.478,8.189
							c-1.152,1.919-2.431,3.838-3.71,5.374c1.919,1.919,2.687,1.535,4.35,1.024L29.35,101.13z"/>
						<path class="st26" d="M25.64,100.362c-0.128-0.128-0.256-0.256-0.384-0.384c1.407-1.535,2.559-3.327,3.71-5.374
							c2.303-3.967,2.431-6.269,4.478-8.189c7.165-7.037,11.388-4.094,16.633-12.923l1.024,1.024
							c-4.094,8.701-10.876,8.573-14.97,12.283c-1.919,1.663-3.71,3.966-6.142,7.805c-2.175,3.583-3.71,5.246-3.839,5.374l0,0
							L25.64,100.362z"/>
					</g>
					<path class="st23" d="M61.594,84.241c6.782-12.411,31.476-42.223,33.139-52.075c-3.583-1.152-16.762-12.027-22.647-5.118
						c-7.549,9.98-14.202,37.105-24.695,49.389l0.128,0.128c4.094,1.408,9.085,3.967,13.051,7.805L61.594,84.241z"/>
					<path class="st25" d="M59.291,83.089c0.256-0.512,0.512-0.895,0.895-1.408c-0.512-0.384,21.496-36.85,26.998-49.005
						c2.431,0.768,4.862,1.407,7.037,1.664l0,0c-3.583,9.852-20.344,31.348-29.045,44.271c-1.28,2.047-2.687,4.222-3.839,6.397
						C60.57,84.369,59.931,83.729,59.291,83.089z"/>
					<path class="st24" d="M72.47,26.663c-7.421,9.468-15.226,37.233-25.078,49.772l0.512,0.128h1.408
						C59.803,64.28,69.015,38.179,76.564,28.327C75.028,27.815,73.749,27.303,72.47,26.663z"/>
				</g>
				<path class="st23" d="M-34.753-19.143c-11.387,6.782-12.411,33.395-11.771,53.867c2.687,1.024,13.051-1.664,22.391-4.478
					c3.071-12.027,4.478-26.869,2.559-36.338L-34.753-19.143z"/>
				<path class="st24" d="M-34.753-19.143c-11.387,6.782-12.411,33.395-11.771,53.867c1.024,0.384,2.943,0.256,5.63-0.128
					c-2.303-19.96-3.327-45.294,7.037-52.715L-34.753-19.143z"/>
				<path class="st25" d="M-34.753-19.143c-1.535,0.896-2.943,2.175-4.094,3.839l9.085,8.445
					c-2.431,17.529,4.606,26.358,1.535,38.385l4.222-1.152c3.071-12.027,4.478-26.869,2.559-36.338L-34.753-19.143z"/>
				<path class="st23" d="M86.672-15.432c11.387,6.781,12.027,28.661,7.677,50.156c-6.909-0.64-17.529-5.374-21.624-7.293
					c-1.024-8.956,1.152-20.216,3.071-29.684L86.672-15.432z"/>
				<path class="st25" d="M88.975-13.641c9.212,8.189,9.341,28.533,5.374,48.493c-2.175-0.256-4.734-0.895-7.165-1.664l0.128-0.128
					C91.662,18.858,92.429,1.329,88.975-13.641z"/>
				<path class="st23" d="M68.631,24.872c-32.371,5.758-54.507,7.165-88.797-3.711c-18.425-5.886-18.681-17.017-18.681-31.859
					c0.128-13.179,34.035-19.576,67.046-19.192c31.476,0.256,61.8,7.037,61.544,19.576C89.487,1.329,91.022,21.033,68.631,24.872z"
					/>
				<path class="st24" d="M1.074,26.024c-12.923-1.791-25.206-9.212-31.604-10.492C-24.389,23.081-5.964,26.024,1.074,26.024z"/>
				<path class="st24" d="M22.057-30.53c-26.614,0.256-52.715,4.862-60.136,13.946c-3.583,4.35-3.71,18.681,3.327,28.149
					c-6.142-12.027-4.35-22.135,0.768-25.974c7.037-5.374,25.59-6.525,44.527-7.165L22.057-30.53z"/>
				<path class="st25" d="M48.031,27.559c8.829-2.943,24.822-4.222,34.035-9.085C73.749,26.535,60.442,25.64,48.031,27.559z"/>
				<path class="st25" d="M28.199-29.891c26.614,0.256,52.715,4.862,60.136,13.946c3.583,4.35,4.094,19.448-2.943,28.917
					c6.142-12.027,3.839-22.903-1.152-26.742c-7.037-5.374-25.59-6.525-44.527-7.165L28.199-29.891z"/>
				<path class="st22" d="M25.768,99.723c0.256-0.64,1.152-1.919,1.408-2.303c0.512-0.128,1.664,0.768,1.664,1.024
					c0.128,0.384-0.256,0.768-0.512,1.28c-0.384,0.512-0.768,1.024-1.152,1.152C27.047,101.002,25.768,100.49,25.768,99.723z"/>
				<g>
					<path class="st21" d="M26.137,33.956c0.143-0.128,1-1.152,2-2.175c3.572-3.454,3.429-2.303,2.857-7.421l-6.001-1.791v-0.384
						l-0.571,0.128l-0.429-0.128v0.384l-6.001,1.919c-0.429,5.118-0.715,3.966,2.857,7.421c1,1.024,1.858,2.047,2,2.175
						C23.422,34.212,25.565,34.34,26.137,33.956z"/>
					<g>
						<path class="st20" d="M24.994,34.212c0.715,0,1.143-0.128,1.429-0.64c0.429-0.768,0.286-1.664,0.143-2.559
							c-0.286-2.559,1.286-5.758,2.429-8.061H26.28c-0.571,3.454-1.143,4.478-1,8.189C25.279,32.293,25.279,33.573,24.994,34.212z"
							/>
						<path class="st26" d="M23.994,34.212c-0.715,0-1.143-0.128-1.429-0.64c-0.429-0.768-0.286-1.664-0.143-2.559
							c0.286-2.559-1.286-5.758-2.429-8.061h2.715c0.571,3.454,1.143,4.478,1,8.189C23.708,32.293,23.708,33.573,23.994,34.212z"/>
					</g>
					<path class="st20" d="M31.28,27.047c0-0.512-0.143-1.919-0.286-2.687l-6.001-1.791v-0.384l-0.571,0.128l-0.429-0.128v0.384
						l-6.001,1.919c0,0.768-0.143,2.047-0.143,2.559c1.572-0.256,2.715-1.024,6.286-1.152C27.708,25.895,28.28,26.663,31.28,27.047z
						"/>
					<g>
						<path class="st20" d="M54.569-8.139c2.286-1.791,2.143-3.839,3-5.758c0.715-1.664,2.143-3.71,2.143-5.886
							c0.143-3.71-4.286-5.886-5.429-1.151C52.711-14.793,51.997-13.641,54.569-8.139z"/>
						<path class="st21" d="M-5.582-8.139c-2.286-1.791-2.143-3.839-3.001-5.758c-0.714-1.664-2.143-3.71-2.143-5.886
							c-0.143-3.71,4.286-5.886,5.429-1.151C-3.724-14.793-3.01-13.641-5.582-8.139z"/>
					</g>
					<path class="st21" d="M33.852,24.744c5.286-0.64,8.43-2.175,11.144-5.502c6.429-7.805,9.573-20.984,10.287-31.476
						c0.715-9.852-2.286-25.59-10.144-33.139c-4.286-4.222-13.716-6.014-20.717-5.246c-7.001-0.768-16.43,1.024-20.717,5.246
						C-4.01-37.824-7.153-22.086-6.439-12.234C-5.724-1.742-2.581,11.309,3.848,19.242c2.857,3.454,6.144,4.99,12.002,5.63
						C21.851,25.512,27.994,25.512,33.852,24.744z"/>
					<path class="st26" d="M23.565-50.746c-6.858-0.512-15.716,1.279-19.86,5.374C-4.01-37.823-7.153-22.086-6.439-12.234
						C-5.724-1.742-2.581,11.309,3.848,19.242c2.857,3.454,6.144,4.99,12.002,5.63c5.143,0.512,10.573,0.64,15.716,0.128
						c-2.715,0-5.429-0.128-8.144-0.512c-5.858-0.64-9.144-2.175-12.002-5.63C5.134,11.053,2.134-2.126,1.277-12.489
						c-0.714-9.852,2.286-25.59,10.144-33.139C14.135-48.315,18.707-49.979,23.565-50.746z"/>
					<path class="st20" d="M33.852,24.744c5.286-0.64,8.43-2.175,11.144-5.502c6.429-7.805,9.573-20.984,10.287-31.476
						c0.715-9.852-2.286-25.59-10.144-33.139c-4.286-4.222-13.716-6.014-20.717-5.246c-2.857-0.256-6.001-0.256-9.144,0.384l0,0
						c7.001-0.768,16.43,1.024,20.717,5.246C43.71-37.44,46.854-21.702,46.139-11.85c-0.715,10.492-3.858,23.543-10.287,31.476
						c-2.715,3.327-5.858,4.734-11.144,5.502c-0.715,0.128-1.286,0.128-2,0.256C26.566,25.384,30.28,25.256,33.852,24.744z"/>
					<path class="st20" d="M33.852,24.744c3.143-0.384,5.572-1.152,7.573-2.303c-11.573,1.919-27.718,2.047-36.29-1.791
						c2.572,2.559,5.715,3.71,10.859,4.223C21.851,25.512,27.994,25.512,33.852,24.744L33.852,24.744z M-3.582,3.888
						c0.571,2.047,1.286,3.966,2,5.886L-3.582,3.888z"/>
					<path class="st27" d="M51.854,6.703c2.143-6.142,3.286-12.923,3.715-18.809c0.714-9.98-2.286-25.846-10.144-33.395
						c-4.429-4.222-13.859-6.142-21.003-5.374c-7.001-0.768-16.574,1.024-20.86,5.246C-4.296-37.952-7.297-22.086-6.582-12.234
						c0.429,6.142,1.714,13.179,4,19.577c4.572,3.071,7.001,7.805,12.573,11.643l-1.286-3.071c6.286,4.606,6.001,4.862,14.002,6.142
						l-5.143-2.687c7.429,1.408,12.144,2.047,19.717,2.687l-3.286-1.152c3.001,0,5.858,0,8.858,0
						c-0.857-4.734-1.286-5.118-3.429-9.596l5.143,2.175c-2.572-2.175-4.572-4.094-7.001-6.397
						C47.997,9.646,48.283,6.959,51.854,6.703z"/>
					<g>
						<path class="st28" d="M40.139,21.545c3.429-2.047,5.572-4.094,8.572-6.909c-0.143,4.35-8.144,9.084-10.43,10.108
							c-1.858,0.768-2.857-0.384-2.857-0.895C35.424,23.592,39.567,21.929,40.139,21.545z"/>
						<path class="st28" d="M9.277,21.545c-3.429-2.047-5.572-4.094-8.572-6.909c0.143,4.35,8.144,9.084,10.43,10.108
							c1.858,0.768,2.857-0.384,2.857-0.895C13.993,23.592,9.849,21.929,9.277,21.545z"/>
					</g>
					<path class="st28" d="M40.282-8.139c-2.572-6.781-3.715-10.62-6.715-15.354c3.429,12.667,5.001,15.354,6.43,28.917
						l-4.144-8.572c-3.429,11.388-0.286,15.354,5.572,23.415C28.709,18.602,9.849,19.37,10.278-2.509L8.135,5.552
						c-1.572-10.62-2-16.505,4.858-25.846L5.419-14.92c4-18.681,12.287-17.401,18.288-27.381
						C29.709-35.52,38.138-30.658,40.282-8.139z"/>
					<path class="st28" d="M48.14,4.784c4.715-7.677,10.43-13.691,1-32.499l4.572,5.502C51.14-35.52,36.71-40.638,24.565-42.302
						c9.43,8.956,12.716,12.795,14.859,24.31l0.429-6.27c2.715,12.027,2.286,22.647,1.286,30.964
						c8.572-7.293,8.287-17.657,7.715-21.624C50.997-7.116,50.711-2.509,48.14,4.784z"/>
					<path class="st27" d="M15.992,13.74c-1.143-7.421-0.857-19.704,0.715-30.324c1.572-10.492,4.572-19.192,6.572-22.775
						C12.421-33.729,8.706-23.109,7.849-18.631c3.429-2.047,4.286-4.99,7.287-6.397C11.421-17.607,10.706-9.802,8.849-1.23
						c2.286-5.758,1.143-7.293,4.715-12.411C12.135-3.661,14.278,3.76,15.992,13.74z"/>
					<path class="st27" d="M38.281,18.986c-4.429-3.967-6.429-6.653-8.572-17.401c0,0,3.001,3.199,3.429,3.966
						c0.857-11.771-0.571-16.122-9.001-24.438c-1.429,3.455-3.715,8.061-4.858,11.388c-3.429,9.212-6.572,18.425,6.572,24.31
						c-3.572-3.71-4.286-7.677-3.286-12.923C23.422,11.693,26.28,18.091,38.281,18.986z"/>
					<path class="st28" d="M-2.01,6.447c-2.429-8.445-6.43-18.681,1.429-37.233l-3.572,5.246
						c2.857-16.633,16.002-18.169,28.004-19.704C12.42-37.312,5.848-26.692,3.991-13.513c-0.571,4.478,1.714,1.28,3.715-0.384
						C4.134-1.614,4.705,10.926,8.135,17.067C1.705,10.286,0.42,9.774,0.134-0.718C-1.01,0.945-1.724,2.353-2.01,6.447z"/>
					<path class="st27" d="M33.566,17.323C27.28,13.357,23.279,9.39,22.708,0.562c-2.429,3.839-2.857,5.118-2,11.131
						C14.706,1.329,23.851-13.385,24.565-16.2c0.715,2.047,4.715,5.246,4.858,20.6c-1.858-4.862-2.286-6.27-3.001-6.782
						C26.566,4.272,28.28,11.181,33.566,17.323z"/>
					<path class="st27" d="M39.424,4.144c-3.715-23.543-8.001-32.372-15.716-43.631c-0.715,9.468-5.715,21.112-6.43,32.627
						c1.858-5.374,6.43-14.33,6.715-18.297c3.429,6.014,9.716,11.643,10.573,25.846c1.143-6.27,0.286-7.421-0.715-12.283
						L39.424,4.144z"/>
					<path class="st27" d="M53.283-27.843C46.997-40.383,28.566-42.43,23.708-43.07c3.572-8.701,13.573-6.526,18.574-2.175
						c-4-1.535-4.715-1.535-8.144-1.664C42.996-45.372,49.712-40.383,53.283-27.843z"/>
					<path class="st27" d="M50.569-8.011c-1.286-7.677-1.572-17.529-8.858-25.846c3.286,1.663,3.858,0.64,7.144,2.559
						c-7.287-8.445-18.002-10.62-24.146-11.131c8.572,3.583,13.288,11.131,17.145,22.903L39.567-29.89
						C43.282-25.284,46.568-19.015,50.569-8.011z"/>
					<g>
						<path class="st27" d="M50.997-26.436c-4.572-9.212-12.002-13.435-20.003-14.586C38.424-37.951,43.71-35.009,50.997-26.436z"/>
						<path class="st27" d="M43.425-8.779c1.572-10.236-1.858-18.681-7.715-24.95C39.996-26.18,42.568-20.294,43.425-8.779z"/>
						<path class="st27" d="M52.14-31.554c-4.572-9.212-12.002-13.435-20.003-14.586C39.567-43.069,44.996-40.127,52.14-31.554z"/>
					</g>
					<g>
						<path class="st28" d="M53.283,3.76c2.143-13.435,0.571-22.775-5.858-31.092C49.568-16.584,51.569-9.546,53.283,3.76z"/>
						<path class="st28" d="M40.996,6.831c3.143-10.62,6.43-16.633,0.571-27.509C43.568-9.419,42.139-4.812,40.996,6.831z"/>
						<path class="st28" d="M42.853,7.343c9.144-5.63,7.858-13.051,6.429-21.24C48.14-4.428,48.14,2.481,42.853,7.343z"/>
						<path class="st28" d="M44.139-28.739C39.71-37.951,32.852-40.894,24.85-42.174C32.28-38.975,36.853-35.52,44.139-28.739z"/>
						<path class="st28" d="M38.852-47.292c-7.715-3.454-12.43-2.943-14.431,3.199C27.137-48.443,34.281-48.06,38.852-47.292z"/>
					</g>
					<path class="st27" d="M-2.295,5.552C-2.724-3.277-2.581-6.987,1.562-18.503l-1,10.492c4.858-22.903,9.001-27.509,19.86-35.826
						c-8.858,1.664-17.002,5.886-22.146,13.563l4-2.431c-3,3.199-3.143,5.886-6.001,14.586l3.143-2.815
						C-4.296-11.85-4.439-6.732-2.295,5.552z"/>
					<path class="st27" d="M24.565-45.501C13.992-46.14,4.42-42.43,0.133-37.44c5.429-10.108,15.287-11.899,21.003-10.492
						l-3.143-1.664C20.708-50.619,24.708-48.06,24.565-45.501z"/>
					<path class="st27" d="M32.566,20.778c-13.288-3.711-16.43-3.967-21.146-16.506c-1.286,8.189-1.429,12.411,5.715,16.633
						c-1.714-1.791-3.429-4.478-3.572-6.653C17.136,17.963,21.851,20.266,32.566,20.778z"/>
					<g>
						<path class="st28" d="M42.425,7.599C50.14-5.58,50.711-9.291,47.282-21.318C47.854-6.732,48.569-5.324,42.425,7.599z"/>
						<path class="st28" d="M45.996-7.116c0.857-6.653,2-11.771-5.715-21.112C44.425-21.574,44.282-15.816,45.996-7.116z"/>
						<path class="st28" d="M44.282-38.463c-5.001-3.966-9.287-8.061-20.432-4.99C31.138-43.197,38.138-41.406,44.282-38.463z"/>
					</g>
					<g>
						<path class="st28" d="M8.706,3.633c-1-15.994,0.571-17.785,7.144-24.695C11.707-12.234,9.563-6.348,8.706,3.633z"/>
						<path class="st28" d="M29.423-10.442c-0.429,5.502,2.572,9.596,2.715,18.297C34.423-1.23,30.423-4.812,29.423-10.442z"/>
						<path class="st28" d="M23.422-41.15c0.429,6.397-5.858,7.549-11.43,15.482C12.992-32.706,19.707-37.184,23.422-41.15z"/>
						<path class="st28" d="M14.278,11.821c1.858,5.758,6.144,7.805,14.43,8.445C19.422,18.091,17.707,15.788,14.278,11.821z"/>
						<path class="st28" d="M30.852,6.447c1.858,3.71,3.715,8.701,8.001,12.411C33.566,15.788,30.852,11.565,30.852,6.447z"/>
						<path class="st28" d="M11.707-2.765c4.429,4.606,2.429,12.411,10.144,18.937C13.135,11.565,11.135,7.855,11.707-2.765z"/>
						<path class="st28" d="M37.424-14.537C35.852-30.53,33.995-31.938,26.565-37.44C31.709-29.635,34.852-24.261,37.424-14.537z"/>
						<path class="st28" d="M38.424,0.69c-1.572-15.994-7.001-26.486-12.573-35.698C29.566-26.18,35.852-8.907,38.424,0.69z"/>
						<path class="st28" d="M20.279-14.664c0-9.852,1.429-14.842,4.143-23.799C23.136-30.53,24.422-26.308,20.279-14.664z"/>
						<path class="st28" d="M32.852-10.314c-5.001-13.563-8.572-14.33-8.43-24.182C27.28-25.284,30.709-22.725,32.852-10.314z"/>
						<path class="st28" d="M18.707-11.338c-3.858-15.482-2-14.842,3.143-22.903C18.85-28.611,17.85-21.446,18.707-11.338z"/>
						<path class="st28" d="M16.135,4.016c-4.143-11.004-5.143-10.876-1.143-21.751C14.135-10.058,14.135-5.964,16.135,4.016z"/>
						<path class="st28" d="M15.135,20.01C11.849,13.868,9.277,9.902,9.563,3.12C7.563,12.205,9.992,15.915,15.135,20.01z"/>
						<path class="st28" d="M7.42,13.229C1.419-1.486,2.419-3.661,6.277-12.617C5.277-2.765,5.134,3.504,7.42,13.229z"/>
					</g>
					<g>
						<path class="st28" d="M39.996,20.138c-9.001-0.768-15.287-0.895-20.717-7.805C25.279,16.683,28.994,17.707,39.996,20.138z"/>
						<path class="st28" d="M33.28,16.811c-4.715-3.454-8.144-5.758-8.43-11.9C26.422,9.646,28.137,11.565,33.28,16.811z"/>
						<path class="st28" d="M20.708-20.294c0-9.852,1-9.34,3.715-18.297C22.708-31.554,23.851-34.113,20.708-20.294z"/>
						<path class="st28" d="M36.71-5.836c-3.572-13.051-6.858-13.69-8.43-24.183C31.138-20.806,34.566-18.247,36.71-5.836z"/>
						<path class="st28" d="M8.992,0.561c0.857-7.933,1.858-11.131,5.143-19.192C14.421-15.048,11.135-11.21,8.992,0.561z"/>
						<path class="st28" d="M6.706,10.286C4.991,2.48,4.848-0.846,5.419-9.675C6.849-6.476,5.134-1.614,6.706,10.286z"/>
						<path class="st28" d="M24.279,6.959C21.993-0.206,21.565-4.684,24.422-16.2C25.565-12.745,22.422-5.836,24.279,6.959z"/>
						<path class="st28" d="M22.136,9.518c-3.715-7.293-4.715-12.667-0.857-21.88C20.422-8.779,17.993-0.59,22.136,9.518z"/>
						<path class="st28" d="M-3.582-5.324c0-7.677,1.143-12.027,7.287-21.751C3.705-23.493-1.295-18.119-3.582-5.324z"/>
						<path class="st28" d="M0.133-31.81c4.572-5.758,8.001-8.317,18.574-11.387C16.421-40.51,9.421-39.999,0.133-31.81z"/>
						<path class="st28" d="M6.991-35.52c-2.857,4.35-4.143,9.852-9.43,15.738C-0.01-26.692,2.705-32.706,6.991-35.52z"/>
						<path class="st28" d="M2.705-39.615c4.572-5.758,11.43-8.445,20.86-6.27C18.279-46.012,8.849-44.349,2.705-39.615z"/>
					</g>
				</g>
			</g>
		</g>
	</g>
</g>
</svg>
