<?xml version="1.0" encoding="utf-8"?>
<!-- Generator: Adobe Illustrator 21.0.0, SVG Export Plug-In . SVG Version: 6.00 Build 0)  -->
<svg version="1.1" id="Capa_1" xmlns="http://www.w3.org/2000/svg" xmlns:xlink="http://www.w3.org/1999/xlink" x="0px" y="0px"
	 viewBox="0 0 160 178" style="enable-background:new 0 0 160 178;" xml:space="preserve">
<style type="text/css">
	.st0{opacity:0.2;enable-background:new    ;}
	.st1{fill:#FFFFFF;}
	.st2{fill:url(#SVGID_1_);}
	.st3{fill:#FAFAFA;stroke:#E0E0E0;stroke-width:0.4413;stroke-miterlimit:10;}
	.st4{fill:none;stroke:#FFC107;stroke-width:1.738;stroke-miterlimit:10;}
	.st5{opacity:0.5;fill:#FFFFFF;enable-background:new    ;}
	.st6{opacity:0.1;enable-background:new    ;}
	.st7{opacity:0.6;}
	.st8{fill:#CCCCCA;}
	.st9{fill:#F2F2F2;}
	.st10{clip-path:url(#SVGID_3_);}
	.st11{fill:#21211D;}
	.st12{fill:#363632;}
	.st13{fill:#5C5C69;}
	.st14{fill:#7C7C8A;}
	.st15{fill:#A2A2AB;}
	.st16{fill:#2E2D29;}
	.st17{fill:#A69267;}
	.st18{fill:#94835D;}
	.st19{fill:#B8A57B;}
	.st20{fill:#F1B287;}
	.st21{fill:#E8A477;}
	.st22{fill:#F4BC97;}
	.st23{fill:#FAF68C;}
	.st24{fill:#EDE968;}
	.st25{fill:#FFFCA8;}
	.st26{fill:#1A1209;}
	.st27{fill:#3D2913;}
	.st28{fill:#473117;}
	.st29{fill:#5C3F1E;}
	.st30{fill:#785023;}
	.st31{fill:#382613;}
	.st32{fill:#2E1F0F;}
	.st33{fill:#362411;}
	.st34{fill:#261A0C;}
	.st35{fill:#EDA580;}
	.st36{fill:#F2B292;}
	.st37{fill:#F7BFA3;}
	.st38{fill:#FCE3D6;}
</style>
<title>Mesa de trabajo 1</title>
<g>
	<circle class="st0" cx="81.2" cy="148.8" r="27.6"/>
	<circle class="st1" cx="79.7" cy="148" r="27.4"/>
	
		<radialGradient id="SVGID_1_" cx="79.704" cy="32.0019" r="24.6667" gradientTransform="matrix(1 0 0 -1 0 180)" gradientUnits="userSpaceOnUse">
		<stop  offset="0" style="stop-color:#FFFFFF"/>
		<stop  offset="0.4846" style="stop-color:#F5F5F5"/>
		<stop  offset="1" style="stop-color:#E6E6E6"/>
	</radialGradient>
	<circle class="st2" cx="79.7" cy="148" r="24.7"/>
	<circle class="st3" cx="79.7" cy="148" r="13.3"/>
	<circle class="st4" cx="79.7" cy="148" r="24.6"/>
	<path class="st5" d="M99.1,128.6l-38.7,38.7c-10.7-10.7-10.7-28,0-38.7S88.4,117.9,99.1,128.6z"/>
	<path class="st6" d="M68.3,148c0-7.1,5.5-12.8,12.5-13.2c-0.3,0-0.6,0-0.9,0c-7.3,0-13.3,5.9-13.3,13.3s5.9,13.3,13.3,13.3
		c0.3,0,0.6,0,0.9,0C73.8,160.8,68.3,155.1,68.3,148z"/>
	<g id="XMLID_219_">
		<g class="st7">
			<path id="XMLID_267_" d="M108.8,173.6l0.6,0l0.1-9.2c0-0.1,0-0.2,0.1-0.2c0.1-0.1,0.3-0.1,0.4,0l-0.1,9.4l0.6,0l0.1-9.2l0,0
				c0.1-0.2,0.4-0.1,0.4,0.1l0,9.1l0.7,0l0.1-9.1c0-0.2,0.3-0.3,0.4-0.1l0,0l0,9.2l0.6,0l-0.1-9.4c0.1-0.1,0.3-0.1,0.4,0
				c0.1,0.1,0.1,0.1,0.1,0.2l0,9.2l0.6,0l0-13.8c0-0.3-0.1-0.6-0.2-0.8l-1.2-2.5c-0.1-0.3-0.2-0.6-0.2-0.9l1-30.1
				c0-0.6-0.2-1.1-0.7-1.5l0,0c-0.7-0.6-1.7-0.6-2.4,0l0,0c-0.4,0.4-0.7,0.9-0.7,1.5l0.8,30.1c0,0.3-0.1,0.6-0.2,0.9l-1.2,2.4
				c-0.1,0.3-0.2,0.5-0.2,0.8L108.8,173.6z"/>
			<polygon id="XMLID_266_" points="110.2,145.6 110.4,152.5 112.6,151.1 112.8,144 			"/>
			<path id="XMLID_265_" d="M109.9,134.3l3.3-2.1l0.2-6.6c0-0.2,0-0.3,0-0.5l-3.7,2.3L109.9,134.3z"/>
			<polygon id="XMLID_264_" points="108.8,162.2 113.5,158.3 113.1,157.5 108.9,161.1 			"/>
			<polygon id="XMLID_263_" points="108.8,168 109.5,167.4 109.5,165.5 108.8,166 			"/>
			<path id="XMLID_262_" d="M111,164.5l0,1.6l0.8-0.7l0-1c0-0.2,0.3-0.3,0.4-0.1l0,0l0,0.6l0.5-0.5l0-0.4c0.1-0.1,0.3-0.1,0.4,0
				c0,0,0,0,0,0.1l0.7-0.6l0-1.9l-3.2,2.6C110.9,164.4,111,164.4,111,164.5z"/>
			<polygon id="XMLID_261_" points="110.6,166.5 110.6,164.6 110,165 110,167 			"/>
		</g>
		<g>
			<g>
				<path id="XMLID_253_" class="st8" d="M108.2,173l0.6,0l0.1-9.2c0-0.1,0-0.2,0.1-0.2c0.1-0.1,0.3-0.1,0.4,0l-0.1,9.4l0.6,0
					l0.1-9.2l0,0c0.1-0.2,0.4-0.1,0.4,0.1l0,9.1l0.7,0l0.1-9.1c0-0.2,0.3-0.3,0.4-0.1l0,0l0,9.2l0.6,0l-0.1-9.4
					c0.1-0.1,0.3-0.1,0.4,0c0.1,0.1,0.1,0.1,0.1,0.2l0,9.2l0.6,0l0-13.8c0-0.3-0.1-0.6-0.2-0.8l-1.2-2.5c-0.1-0.3-0.2-0.6-0.2-0.9
					l1-30.1c0-0.6-0.2-1.1-0.7-1.5l0,0c-0.7-0.6-1.7-0.6-2.4,0l0,0c-0.4,0.4-0.7,0.9-0.7,1.5l0.8,30.1c0,0.3-0.1,0.6-0.2,0.9
					l-1.2,2.4c-0.1,0.3-0.2,0.5-0.2,0.8L108.2,173z"/>
				<polygon id="XMLID_252_" class="st9" points="109.6,145 109.8,151.9 112,150.5 112.2,143.4 				"/>
				<path id="XMLID_251_" class="st9" d="M109.3,133.7l3.3-2.1l0.2-6.6c0-0.2,0-0.3,0-0.5l-3.7,2.3L109.3,133.7z"/>
				<polygon id="XMLID_246_" class="st9" points="108.2,161.6 112.9,157.7 112.5,156.9 108.2,160.4 				"/>
				<g id="XMLID_220_">
					<polygon id="XMLID_238_" class="st9" points="108.2,167.4 108.9,166.8 108.9,164.9 108.2,165.4 					"/>
					<path id="XMLID_222_" class="st9" d="M110.4,163.9l0,1.6l0.8-0.7l0-1c0-0.2,0.3-0.3,0.4-0.1l0,0l0,0.6l0.5-0.5l0-0.4
						c0.1-0.1,0.3-0.1,0.4,0c0,0,0,0,0,0.1l0.7-0.6l0-1.9l-3.2,2.6C110.3,163.8,110.4,163.8,110.4,163.9z"/>
					<polygon id="XMLID_221_" class="st9" points="110,165.9 110,164 109.4,164.4 109.4,166.4 					"/>
				</g>
			</g>
		</g>
	</g>
	<g id="XMLID_159_">
		<g class="st7">
			<path id="XMLID_218_" d="M45.8,124.4L46,173c0,0.7,0.9,0.9,1.3,0.3l0,0c1.4-2.6,2.4-5.5,2.8-8.5l0.4-2.8c0.3-2.2-0.1-4.5-1.3-6.5
				l0,0c-1-1.7-1.5-3.7-1.4-5.7l1.3-21c0.1-1.3,0-2.5-0.4-3.7l0,0c-0.3-1-1.1-1.6-2.1-1.6l0,0C46.2,123.6,45.8,124,45.8,124.4z"/>
			<polygon id="XMLID_217_" points="45.9,139.6 45.9,146.5 48.1,145.1 48.6,137.8 			"/>
			<path id="XMLID_216_" d="M46.6,123.6c-0.5,0-0.8,0.4-0.8,0.9l0,3.6l3.2-2c-0.1-0.3-0.1-0.5-0.2-0.8
				C48.5,124.2,47.6,123.6,46.6,123.6z"/>
			<path id="XMLID_195_" d="M47.8,150.3l-1.9,1.6l0,1.2l2-1.6C47.8,151.1,47.8,150.7,47.8,150.3z"/>
			<path id="XMLID_194_" d="M46,167.8l0,1.9l3.8-3.1c0.1-0.6,0.2-1.2,0.3-1.8l0.1-0.5L46,167.8z"/>
		</g>
		<g>
			<g>
				<path id="XMLID_193_" class="st8" d="M45.2,123.8l0.2,48.5c0,0.7,0.9,0.9,1.3,0.3l0,0c1.4-2.6,2.4-5.5,2.8-8.5l0.4-2.8
					c0.3-2.2-0.1-4.5-1.3-6.5l0,0c-1-1.7-1.5-3.7-1.4-5.7l1.3-21c0.1-1.3,0-2.5-0.4-3.7l0,0c-0.3-1-1.1-1.6-2.1-1.6l0,0
					C45.6,123,45.2,123.4,45.2,123.8z"/>
				<polygon id="XMLID_192_" class="st9" points="45.2,138.9 45.3,145.9 47.5,144.5 48,137.2 				"/>
				<path id="XMLID_163_" class="st9" d="M46,123c-0.5,0-0.8,0.4-0.8,0.9l0,3.6l3.2-2c-0.1-0.3-0.1-0.5-0.2-0.8
					C47.9,123.6,47,123,46,123z"/>
				<path id="XMLID_162_" class="st9" d="M47.2,149.7l-1.9,1.6l0,1.2l2-1.6C47.2,150.5,47.2,150.1,47.2,149.7z"/>
				<path id="XMLID_161_" class="st9" d="M45.3,167.2l0,1.9l3.8-3.1c0.1-0.6,0.2-1.2,0.3-1.8l0.1-0.5L45.3,167.2z"/>
			</g>
		</g>
	</g>
</g>
<g>
	<defs>
		<rect id="SVGID_2_" width="160" height="106.4"/>
	</defs>
	<clipPath id="SVGID_3_">
		<use xlink:href="#SVGID_2_"  style="overflow:visible;"/>
	</clipPath>
	<g class="st10">
		<path class="st11" d="M44.4,61.4c2.2-3.3,19.6-5.7,37-5.1c15.8,0.5,31.6,3.5,35.6,10.3c7,11.7,12.4,59.7-9.3,60.8
			c-22.4,1.2-38,0.7-60.4-1.1C28.4,122.4,36.2,74.1,44.4,61.4z"/>
		<path d="M50,61.4c2.1-3.2,15.6-5.7,30.5-5.1c13.6,0.5,28.1,3.5,31.6,10.3c6,11.7,12.8,60.3-5.8,61.5c-19.3,1.2-40-1.5-59.3-3.3
			C30.8,120.8,41.3,74.1,50,61.4z"/>
		<path class="st12" d="M45.4,60.5c4.3-2.9,20.2-4.8,36-4.2s31.6,3.5,35.6,10.3c6.6,11.1,11.8,55-6.2,60.3c14.6-8.9,9.6-48.6,3.4-59
			c-4.1-6.8-19.8-9.8-35.6-10.3C65.2,57.1,51.8,58.4,45.4,60.5z"/>
		<path d="M25.9,35.6c1-3.9,2.7-8.9,2.4-16.6C27.8,6.2,33.9,3.8,49.5,4.8c12.6,0.8,21.2,0,31,0c8.9,0,21.1,0.8,30.1,0.5
			c10.7-0.4,20.4,2.3,20.2,12.4c-0.1,4.4-1.7,12.5,0.1,17.5c8.2,23.3-37.6,35.3-56.4,33.5C57.6,68.8,20.2,58.3,25.9,35.6z"/>
		<path class="st11" d="M110.2,5.3h0.3c10.7-0.4,20.4,2.4,20.2,12.4c-0.1,4.4-1.7,12.5,0.1,17.5c8,22.5-34.6,34.5-54.4,33.7
			c21-0.8,57.8-12.6,50.3-33.7c-1.8-5-0.2-13.1-0.1-17.5C126.8,8.9,119.3,5.7,110.2,5.3z"/>
		<path class="st13" d="M23.5,53.6h3.3c3.5,0,6.3,2.8,6.3,6.3l0,0v62.5c0,3.5-2.8,6.3-6.3,6.3h-3.3c-3.5,0-6.3-2.8-6.3-6.3l0,0V59.9
			C17.2,56.4,20,53.6,23.5,53.6L23.5,53.6z"/>
		<path class="st14" d="M24,53.6h2.2c2.4,0,4.3,1.9,4.3,4.3v66.5c0,2.4-1.9,4.3-4.3,4.3H24c-2.4,0-4.3-1.9-4.3-4.3V57.9
			C19.7,55.5,21.6,53.6,24,53.6z"/>
		<path class="st15" d="M27,127.1h-2.2c-1.2,0-2.3-0.5-3.2-1.4c0.6,0.3,1.2,0.4,1.9,0.4h2.2c2.3,0,4.3-1.8,4.3-4.2V57.7
			c0-1-0.4-2.1-1.1-2.8c1.5,0.7,2.4,2.1,2.4,3.7v64.3C31.3,125.3,29.4,127.1,27,127.1z"/>
		<path class="st13" d="M130.3,53.6h3.3c3.5,0,6.3,2.8,6.3,6.3v62.5c0,3.5-2.8,6.3-6.3,6.3h-3.3c-3.5,0-6.3-2.8-6.3-6.3V59.9
			C124,56.4,126.8,53.6,130.3,53.6z"/>
		<path class="st14" d="M130.8,53.6h2.2c2.4,0,4.3,1.9,4.3,4.3v66.5c0,2.4-1.9,4.3-4.3,4.3h-2.2c-2.4,0-4.3-1.9-4.3-4.3V57.9
			C126.5,55.5,128.4,53.6,130.8,53.6z"/>
		<path class="st15" d="M133.8,127.1h-2.2c-1.2,0-2.3-0.5-3.2-1.4c0.6,0.3,1.2,0.4,1.9,0.4h2.2c2.3,0,4.3-1.8,4.3-4.2V57.6
			c0-1.1-0.4-2.1-1.1-2.8c1.5,0.7,2.4,2.1,2.4,3.7v64.4C138.1,125.3,136.2,127.1,133.8,127.1z"/>
		<path class="st11" d="M28.4,23.5c-3.1-16,3.3-22.6,18.8-21.4c12.7,1,23.5,1.7,33.2,1.7c8.9,0,21.9-1.3,30.9-1.7
			c15.6-0.7,21.7,3,19.3,20.2c-1.5,10.9-26.7-4.8-53.6-4C52.1,19.1,29.3,28.3,28.4,23.5z"/>
		<path class="st12" d="M80.4,3.8c8.9,0,21.9-1.3,30.9-1.7c15.6-0.7,21.7,3,19.3,20.2c-0.4,2.6-2.1,3.7-4.8,3.9l0,0
			c1.2-8.8,0.2-14.1-3.2-17C116.6,4,95.4,7.5,80.4,3.8z"/>
		<path d="M78.3,3.8c-8.9,0-21.9-1.3-30.9-1.7c-15.6-0.7-21.7,3-19.3,20.2c0.4,2.6,2,3.7,4.8,3.9l0,0c-1.2-8.8-0.2-14.1,3.2-17
			C42.1,4,63.3,7.5,78.3,3.8z"/>
		<path class="st16" d="M96.1,122.6c5-10.6,11.3-20.8,15.5-31.5c3.2-8.1,1.7-19-5-23.6c-3.5-2.4-8.6-1.7-16.6-1.7
			c-6.8,0-8.8,2.5-10.7,6.9l-28.2-3.8c-13.3,13.4,2.8,38,9.4,53.7H96.1z"/>
		<path class="st17" d="M55.9,70.9c-7.7,8.7-6.3,15.7-3.8,26.4c0.3,1.2,2.2,8.1,2.5,9.2c10,4.2,20.6,1.6,30.7,0.8
			c6.8-0.5,11.5-0.1,17.5-2.3c1-2.5,4.4-10,5.2-12.5c2.8-8.1,3.1-18.4-2.8-23.1c-3.1-2.4-7.6-1.7-14.7-1.7c-6.1,0-7.8,2.5-9.5,6.9
			L55.9,70.9z"/>
		<path class="st18" d="M101.7,107.5c1-2.5,5.4-12.5,6.3-14.9c2.8-8.1,3.1-18.4-2.8-23.1c-0.9-0.7-1.9-1.1-3-1.4
			c5.1,4.9,4.7,14.6,2,22.3c-1.3,3.7-6.2,14.8-7.8,18.5C98.2,108.6,100,108.2,101.7,107.5z"/>
		<path class="st19" d="M55.9,70.9c-7.7,8.7-6.3,15.7-3.8,26.4c0.3,1.2,2.2,8.1,2.5,9.2c1.9,0.8,3.8,1.4,5.7,1.8
			c-0.6-2.2-2.8-10.2-3.3-12.5c-2.2-9.2-0.9-15,4.6-24.1L55.9,70.9z"/>
		<path class="st18" d="M86.6,107.5c-0.9-9.1-1.4-23.9-1.6-32.2l-5.7-0.9c0.3,8.8,0.8,24.2,1.8,33.5l4.9-0.4L86.6,107.5z"/>
	</g>
</g>
<g>
	<path class="st20" d="M138.4,76l-10,5.7c-3.4-4-12.6-12.3-15.2-13.9l7.4-22.3c5.2,1.1,11.5,15.1,15.9,24.2
		C137.5,71.6,138.2,73.8,138.4,76z"/>
	<path class="st21" d="M77.7,116c0.4-1.5,2.9-1.3,5-1.5l-0.7,2.4l1.6,2.6l-4,0.5v-2.1l-1.2-0.8L77.7,116z"/>
	<path class="st20" d="M51,69.6c-8.6,4.1-10.1,7.5-17.5,13.4c4.2,4.2,4.8,6.8,6.9,10.1c1.9,2.8,4.4,5,7.3,6.6
		c1.1,0.8,2.5,1.2,3.9,1.2c2.2-0.3,4.4,0,6.5,0.8c1.8,0.8,3.3,2.3,5.6,5l2.5,3c1.1,1,2.1,1.1,3.5,2.4c-2.6,2.5-6,0.7-8.7-2
		c-0.8-0.8-1.7-1.6-2.7-2.2c-1-0.6-1.3-0.6-1.6-0.4s-0.4,0.8,0,1.6c0.5,1.1,1.1,2.1,2,3c2.2,0.7,3.8,0.7,5.8,1.8
		c1.3-0.1,2.6,0,3.9,0.4c3.1-0.9,4.8-0.9,5.4,1.9c-1.7,0.3-3.3,1-5,1.4c-1.4,1.5-2.3,2.3-3.8,2.6l-0.8,0.7c-0.3,0.3-0.7,0.6-1.1,0.9
		c-0.6,0.3-0.5,0.1-2-0.1c-2-0.4-4.1-0.6-6.1-0.6c-2.7,0-3.7,0.1-4.5-1.8c-1.2-2.9-2.6-6.1-4.9-8.3c-1-1-1.6-0.6-2.6-1.4
		c-0.5-0.4-1.1-1.5-2.1-2.6c-11.4-7.2-15-9.7-21.7-20.9c-1.1-1.9-0.9-4.3-0.2-6.9c1.6-5.3,8.9-14.9,14.4-21.4s9.2-10.1,14.8-11.5
		l9.1,1.4l0.3,12.8L51,69.6z"/>
	<path class="st22" d="M61,121.6c-2-0.4-4.1-0.6-6.1-0.6c-2.7,0-3.7,0.1-4.5-1.8c-1.2-2.9-2.6-6.1-4.9-8.3c-1-1-1.6-0.6-2.6-1.4
		c-0.5-0.4-1.1-1.5-2.1-2.6c-11.4-7.2-15-9.7-21.7-20.9c-1.1-1.9-0.9-4.3-0.2-6.9c1.6-5.3,9-14.9,14.4-21.4s9.2-10.1,14.8-11.5
		C43.8,48,41.9,52.1,37,58c-5.5,6.5-14.8,15.3-16.4,20.6c-0.8,2.6-1,5,0.2,6.9c6.6,11.1,9,13.6,20.4,20.7c1.1,1.1,1.9,2.3,2.5,2.8
		c1,0.8,1.9,0.6,2.9,1.6c2.3,2.3,3.4,5.2,4.5,8.1c0.7,1.9,0.3,1.9,3,1.9C56.3,120.6,58.7,121,61,121.6z"/>
	<path class="st21" d="M51,69.6c-8.6,4.1-10.1,7.5-17.5,13.4c4.2,4.2,4.8,6.8,6.9,10.1c1.9,2.8,4.4,5,7.3,6.6c1.2,0.8,2.6,1.2,4,1.2
		c2.2-0.3,4.4,0,6.5,0.8c1.8,0.8,3.3,2.3,5.6,5l2.5,3c1.1,1,2.1,1.1,3.5,2.4c-2.6,2.5-6,0.9-8.7-1.7c-0.8-0.8-1.7-1.5-2.7-2.2
		c-1-0.6-1.4-0.8-1.8-0.7s-0.4,0.8,0,1.6c0.6,1,1.4,1.9,2.3,2.6c1.9,0.5,3.7,1.3,5.4,2.2c1.3-0.1,2.6,0,3.9,0.4
		c3.1-0.9,4.8-0.9,5.4,1.9c-1.7,0.3-3.3,1-5,1.4c-1.4,1.5-2,2.3-3.5,2.6l-0.8,0.7c-0.3,0.3-0.7,0.6-1.1,0.9
		c-0.4,0.1-0.8,0.2-1.2,0.1c0.8-0.2,1.2-0.3,1.6-1.4c-3.1-0.3-6-0.9-9-1.2c-2-0.2-2,0.1-1.9-0.5c0-0.2,0.3-0.1,1.7-0.1
		c3.1,0.2,6.3,0.6,9.4,1.2c0.7,0,1.4-0.3,2-0.8c0.7-0.4,1.4-0.9,2-1.4c-1.5,0.3-2.8,0.6-4.3,0.9c-2.6-0.9-4.6-1.5-6.9-2.4
		c-0.8-0.2-1.5-0.6-2.1-1.2c-0.1-0.3,0.6-0.1,2.3,0.6c2.5,1,4,1.5,6.7,2.4c3.2-0.5,6.3-1.3,9.5-1.9c-1-2.5-3-1.8-5.2-1.2
		c-1.5-0.2-3-0.4-4.5-0.5c-1.7-0.9-3.6-1.7-5.5-2.2c-1-1-1.9-2.1-2.6-3.2c-1-2.1-1.4-4.1,2.5-2.3c1.2,0.6,1.7,1.7,4.1,3.9
		c2.1,1.8,3.8,3.1,6.7,1.4c-1.3-0.9-2.4-1.3-3.2-2c-3.5-2.8-3.8-4.2-5.7-5.8c-4.8-3.9-9.2-1.7-12.2-1.6l-1.2-0.1
		c-1.8-2-3.7-4-5.8-5.7c-3.6-3.2-7.8-9.2-10.3-13.5c-4.2-0.6-5.2-2-11.1-1.9c6.4-1.4,7.1,0.6,11.3,0.3c8.8-7.6,12.8-11.4,19.1-16.2
		c2.7-2,5-4.9,8-8.6l0.1,3.4L51,69.6z M55.4,46.8l1.9,0.8l0.1,2.6L55.4,46.8z"/>
	<path class="st23" d="M80.5,40.8c10-0.4,20-0.2,29.9,0.8c12.2,1.5,16.7,8.1,16.3,14.9c-0.3,4.8-3.7,6.9-7.8,10
		c-2.9,2.1-4.5,6.4-6,9.1c-2.7,4.8-5.2,14.2-17.6,14.4c-3.9,0-7.6-2.1-14.4-2.1s-10.5,1.3-14.4,1.2C54.2,89,52.5,81,48.8,74.7
		c-1.1-1.8-3-6.3-5.9-8.4c-4.1-3-8.4-5.1-8.6-9.9c-0.4-6.8,4.1-13.4,16.3-14.9C60.5,40.6,70.5,40.3,80.5,40.8z"/>
	<path class="st24" d="M80.5,40.8c10-0.4,20-0.2,29.9,0.8c11.8,1.4,16.4,7.7,16.3,14.3c-1.6-2.7-3.5-5.2-5.8-7.4
		c-2.5-2.9-6.9-5.3-13.6-5.8L80.5,40.8L80.5,40.8z M120.4,65.5c-2.6,1.9-6.1,7.6-7.5,10.1c-2.7,4.8-5.2,14.2-17.6,14.4
		c-1.4,0-2.8-0.2-4.1-0.6c0.9,0.1,1.9,0.2,2.8,0.2c12.3-0.2,13.1-9,15.9-13.7C110.8,74.3,116.5,65.9,120.4,65.5L120.4,65.5z"/>
	<path class="st20" d="M137.9,82.1c-10,10.8-23.4,20.1-35.5,29.4c-1.5-2.3-1.8-4.5-4.6-7.5c12-9.9,19.2-20.9,30.2-31.6
		C135.4,69.4,140.6,74.8,137.9,82.1z"/>
	<path class="st22" d="M99.8,103.4c-0.6-0.7,0.2-0.2-0.4-0.8c10.4-8.6,15-16.6,24.4-25.9c-2.4-2.3-5-4.6-7.1-6.4
		c4.2,1.6,7.8,4,11.3,6.1C120.1,84.2,110,94.5,99.8,103.4z"/>
	<path class="st25" d="M80.5,40.8L53,43.1c-7.5,0.9-12,3.8-14.4,7.4c-1.7,2.3-2.7,5.1-3.4,9.3c-0.5-1-0.8-2.1-0.9-3.2
		c-0.4-6.8,4.1-13.4,16.3-14.9C60.6,40.6,70.6,40.3,80.5,40.8L80.5,40.8z M64.1,89c-9.5-0.5-12.5-9.1-15-13.5l-6.4-11.6
		C47.2,68.3,51,77,54.8,82C57.1,85.2,60.4,87.6,64.1,89z"/>
	<path class="st20" d="M106.8,108c-4.8,3.9-4.2,4.8-8,8.8c-1.4,1.3-2.9,2.6-4.4,3.7c-1.3,1.1-2.8,2.1-4.3,3c-1,0.5-2,0.5-2.4-0.5
		c-0.9,0.5-2.2,1.7-3,1.5c-0.8-0.2-1.4-0.9-1.5-1.7c-0.5,0.4-1.1,0.6-1.8,0.6c-0.6-0.1-1.7-1.3-2.2-1.8c-0.9-1-0.2-1.8,0.6-2.8
		c-0.8,0-1.6-0.3-2.2-0.8c-0.5-0.7-0.4-1.7,0.3-2.3c1.3-0.1,2.7-0.4,3.9-0.9c-1.1,0-1.6,0.1-2.3-1.4c1.3-0.8,2.4-1.7,3.6-2.7
		c2.4-2.1,3-3.4,4.7-4.3c6-3.1,9.6,0.4,14.3-4.9L106.8,108L106.8,108z M80.2,118.9c0.6,0.2,1.2,0.3,1.8,0.1c1.6-0.7,3.1-1.5,4.5-2.4
		c-1.2,0.2-3.3,1.5-4.3,1.7C81.5,118.4,80.9,118.6,80.2,118.9z"/>
	<path class="st21" d="M89.1,123.8c-0.6,0.1-1.2-0.3-1.3-0.8c-0.4,0.2-0.9,0.6-1.4,0.9c0.8-0.8,1.6-1.5,2.4-2.1
		c0.2-0.1,1.9-1.2,2-1.2c0.5-0.1-0.5,0.6-1.2,1.1c-0.4,0.3-0.8,0.6-1.2,1c-0.1,0.4,0,0.8,0.3,1C88.8,123.6,88.9,123.7,89.1,123.8
		L89.1,123.8z M83.3,123.1c0-0.1,0.1-0.1,0.1-0.2c1.2-1.2,2.5-2.2,4-3c0.6-0.4,1.3-0.7,1.3-0.8s-0.8,0.2-1.7,0.7
		c-1.5,0.9-2.9,1.9-4.3,3l-0.3,0.3c0.2-0.1,0.5-0.2,0.8-0.4C83.2,122.8,83.3,122.9,83.3,123.1L83.3,123.1z M79.5,119.2l0.4-0.4h-0.1
		c0.7-0.2,1.3-0.3,2-0.4l-1.7,0.6c0.5,0.1,1.1,0.2,1.6,0.2c0.9-0.4,1.8-0.9,2.6-1.6c0.7-0.4,2.1-1.2,2.5-1c0.1,0-1.4,0.8-2.4,1.4
		c-1,0.7-2,1.4-3.1,1.9c-0.3,0.1-0.5-0.2-0.8-0.3s-0.6,0.1-0.8,0C79.7,119.4,79.6,119.3,79.5,119.2L79.5,119.2z M81.7,114.8l0.2-0.1
		c-1.1,0-1.6,0.1-2.3-1.4c1.3-0.8,2.4-1.7,3.6-2.7c2.4-2.1,3-3.4,4.7-4.3c6-3.1,8-0.6,13.3-5.2l0.3,0.8c-4.6,4.7-8.6,3.5-12,5.1
		c-2,1-3.9,2.3-5.6,3.8c-1.1,1-2.3,1.9-3.7,2.6c0.5,0.6,1.3,0.8,2,0.6c1.6-0.5,3.5-2.7,4.7-3.9c0.8-0.9,0.7-0.1,0.2,0.5
		C84.8,113,83.9,114.2,81.7,114.8L81.7,114.8z"/>
	<path class="st22" d="M79.6,113.3c1.3-0.8,2.4-1.7,3.6-2.7c2.4-2.1,3-3.4,4.7-4.3c6-3.1,8-0.6,13.3-5.2l0.3,0.8
		c-4.6,4.7-8.6,3.5-12,5.1c-2,1-3.9,2.3-5.6,3.8c-1.1,1-2.3,1.9-3.7,2.6L79.6,113.3z"/>
	<path class="st20" d="M83.1,92.8c0.9-1.1,1.9-2.2,3-3.3l-8.9,0.3c0.8,0.9,1.6,1.8,2.3,2.8c0.6,0.7,1.3,1.4,1.9,1.4
		S82.6,93.4,83.1,92.8z"/>
	<path class="st22" d="M80.9,94c-0.6-0.6-0.6-1.9-0.3-3.5l-0.5,0.3c-0.1,1-0.7,1.6-0.2,2.3C80.3,93.4,80.6,93.7,80.9,94z"/>
	<path class="st21" d="M84.1,91.6c0.4-0.4,0.7-0.7,1.2-1.1c-1.4,0-2.5-0.2-3.7-0.2s-2.6,0.3-3.9,0.2l1,1c0.8-0.3,1.7-0.6,2.6-0.8
		C82.2,90.8,83.2,91.1,84.1,91.6z"/>
	<path class="st21" d="M81.9,94c0.6-0.6,0.6-1.9,0.3-3.5l0.5,0.3c0.1,1,0.7,1.6,0.2,2.3C82.6,93.4,82.3,93.7,81.9,94z"/>
	<path class="st20" d="M100.9,78.7c6.8-12.3,3.2-23.5-0.9-33.5c-6.6-16.3-27.3-18-35.8-5c-5.9,9-10.7,23.2-3.9,36.5
		c2.8,5.5,5.3,10,9.3,12.5c2.9,1.8,8.3,2.3,11.5,2.3s8-0.3,11.8-2.8C96,86.7,98.4,83.2,100.9,78.7z"/>
	<path class="st21" d="M100.9,78.7c6.8-12.3,3.2-23.5-0.9-33.5C97,37.3,89.6,32,81.1,31.6c6.5,1.8,11.7,6.6,14.2,12.8
		c4.1,10,7.6,21.2,0.8,33.5c-2.4,4.5-4.9,8-7.9,10c-1.8,1.1-3.8,1.9-5.9,2.3l3.2,1c2.7-0.3,5.3-1.2,7.6-2.6
		C96,86.7,98.4,83.2,100.9,78.7z"/>
	<path class="st21" d="M69.8,89.3l0.3,0.2c2.5,1.5,6.4,1.9,9.5,2c0.5-0.2,1-0.4,1.6-0.4c0.6,0.1,1.2,0.2,1.7,0.4
		c2.6,0,5.3-0.5,7.7-1.6c-4.8,1.4-7.3,0.3-9.3,0.3C78.5,90.2,77.3,91.6,69.8,89.3z"/>
	<path class="st26" d="M87.5,89.4c3.3-0.8,6.4-2.1,9.2-4c-2.2,2.7-5.2,4.5-8.6,5.2C86.3,90.8,85.6,89.8,87.5,89.4z"/>
	<path class="st26" d="M74.7,89.4c-3.3-0.8-6.4-2.1-9.2-4c2.2,2.7,5.2,4.5,8.6,5.1C75.8,90.8,76.5,89.8,74.7,89.4z"/>
	<path class="st27" d="M98.3,41.2C88.2,29.7,83.6,30.4,80.9,26.1c-3,4.5-7.6,4-16.1,13.6C80.6,30.9,95,39.3,98.3,41.2z"/>
	<path class="st27" d="M60.3,78.9c-5.6-11.6-4.3-23.1-0.3-32.5c6.8-16.2,30.7-17.1,39.4-4.1c6.3,9.6,7.8,21.6,4.1,32.4
		c-2.2,3.6-5.3,6.5-9,8.4c1.7-0.3,3.2-1,4.5-2.1c-2.4,2.9-4.8,3.9-8.8,2.8c-5,8.3-14.8,7.3-21.8,2.3c4.3,1.8,7.2,2.7,10.2,2.6
		C70.2,86.9,65.7,84.1,60.3,78.9z"/>
	<path class="st28" d="M90.5,82c-2,4.7-6.3,8.8-14.8,7.1c3.7,0,5.7-0.3,7.7-1.1c-4.7,0.2-9.5-1-13.6-3.3
		c-16.3-8.9-12.9-35.1-4.2-45.8c-6.2,13.1-8,26.6,3.6,38.3L66.3,70C71,78.3,83.4,85.7,90.5,82z"/>
	<path class="st28" d="M89.3,81.8c0.3-1,0.9-1.7,1-3c-0.4-1.4-0.6-2.9-0.7-4.4c0-2.3,0.8-3.1,0.7-4.5c-0.2-2.4-1.2-3.6-1.3-4.8
		c-0.1-1.9,0.8-2,0.9-3.2c0.6-7.5-2.8-20.9-6.1-25.8c1.4,4.8,3.6,9.7,3.7,15.7c-1.2-4.8-4.8-14.1-5.2-18C72,35.7,66.8,36,64.5,45.3
		c-2.2,8.8-0.6,14.8,5.1,23.8c-4-4.1-5.4-8-6.4-13.1C63.8,71.1,74.4,81.5,89.3,81.8z"/>
	<path class="st29" d="M88.7,84.5c-12.3,7.9-27.4-1.6-31.2-16.3C65.1,83.2,74.5,88.2,88.7,84.5z"/>
	<path class="st30" d="M90.1,83.1c-3.3,8-11.8,7.3-15.6,6.2C78.6,90.1,86.5,89.9,90.1,83.1z"/>
	<path class="st29" d="M87.2,84.5C72.7,86.6,62.3,79.4,60,61.6c3.2,15,12.5,20.6,27,21.8c0.6,0,1.2,0,1.8,0.1
		C89.3,83.7,89.2,84.2,87.2,84.5z"/>
	<path class="st29" d="M63.7,77.1c-8.9-15.1-7.3-21.3-0.7-35.9C57.8,55.7,57.4,62.4,63.7,77.1z"/>
	<path class="st29" d="M89.1,81.6C78.7,83,68,75.1,63.8,61.1C66.7,66.1,74.1,78.2,89.1,81.6z"/>
	<path class="st30" d="M83.8,81.2c-7-1.4-14-7.3-17.3-13.5C70.9,73.7,76.9,78.4,83.8,81.2z"/>
	<path class="st31" d="M67.7,74.7c-6.1-6.3-8.6-17.1-3.9-30.6C60.8,54.4,62.2,65.5,67.7,74.7z"/>
	<path class="st30" d="M87.8,85c-7.5,3.6-18.1,1.5-22.8-4.4C70.5,85.2,78.2,87.8,87.8,85z"/>
	<path class="st29" d="M89.4,79.8c-5.2,0.3-26.7-18.9-19.2-41.8C66.5,61.7,84.6,74.7,89.4,79.8z"/>
	<path class="st29" d="M79.5,75.5C68.9,70.7,55.9,49.4,71.8,35C59.9,51,70.9,67,79.5,75.5z"/>
	<path class="st30" d="M89.2,80.5C82.4,78.5,73.6,69,71.9,61C74.6,67.1,80.4,75.9,89.2,80.5z"/>
	<path class="st31" d="M87.4,80.4C77.3,77.9,68,69.6,64.2,58.8C66.6,63.9,72.9,75.4,87.4,80.4z"/>
	<path class="st31" d="M84.6,85c-9.2,1.4-18.8-1.2-23-14.1C67.7,85.6,80.2,84.8,84.6,85z"/>
	<path class="st30" d="M88.8,83.8c-11.7,1.5-21.1-1.6-25-9.9C68.3,81,75.4,84.1,88.8,83.8z"/>
	<path class="st31" d="M73.3,67.5c-6.1-6.3-8.6-17.1-3.9-30.6C66.3,47.2,67.7,58.3,73.3,67.5z"/>
	<path class="st29" d="M89.6,79c-5.2-7.7-24.3-26.3-16.9-43.3C69.4,53.7,88.3,67,89.6,79z"/>
	<path class="st30" d="M86.8,73.5c-4.7-7.7-19.4-22.3-14.1-37.9C68.6,54.4,84.3,63,86.8,73.5z"/>
	<path class="st31" d="M87.1,76.6c-6.1-4.8-16.9-18.3-16-31C71.4,55.8,77,63.7,87.1,76.6z"/>
	<path class="st29" d="M88.4,71c-10.6-17.2-22.9-31.3-8.2-36.4c-7,6.3-0.9,15.8,3.8,24.8c-2.5-10.1-9.7-18.9-2.4-24.8
		c-1.3,3.5,3.5,14,4.7,19.2C87.8,59.6,88.8,62.5,88.4,71z"/>
	<path class="st30" d="M88,69.6c-4.3-7.9-21.6-28.5-8-34.7C68.6,42.4,84.5,59.8,88,69.6z"/>
	<path class="st30" d="M85.4,62.8c-2.3-13.6-7.5-20-4.2-27.5C75.5,41.3,82.7,50.7,85.4,62.8z"/>
	<path class="st31" d="M83,55.4c-6.1-8.1-8-16-2.5-20.3C77.8,38.6,76,44.1,83,55.4z"/>
	<path class="st29" d="M88.1,64.6c0.4-9.1,0.4-11.4-1.1-20.5c0.9,8.8,1,9.4-0.3,18.3L88.1,64.6z"/>
	<path class="st32" d="M92.6,37.6c8.5,5.3,10.9,13.3,10.3,27.8l1-6.2c2.3,8.9-6.5,17-14.6,21.7c3.7-8.5,0.6-13.5,1.3-19.6l1.4,5.1
		c0-8.6-4.3-24.2-8.9-32c9.3,1.9,12.2,9.5,13,16.1C96.6,46.7,95.9,43.9,92.6,37.6z"/>
	<path class="st33" d="M104.3,62.8c-0.4,9.7-12.3,16.9-15.5,18.9c5.1,4.1,11.2-0.4,13.3-4.7c-1.4,1.6-3.1,2.8-5.1,3.7
		C102.7,76.8,105.8,71.6,104.3,62.8z"/>
	<path class="st34" d="M88.4,36.5c7.4,8,8,18.8,5.5,30.4C93.2,55.6,93.2,45.5,88.4,36.5z"/>
	<path class="st34" d="M100.2,46c6,17.8-5.8,31.3-10.8,34.8C93.4,76.3,102.3,62.6,100.2,46z"/>
	<path class="st34" d="M100.4,79.3c-4.2,4.6-7.6,5.8-10.8,2.8C92.8,83.8,97.6,81.3,100.4,79.3z"/>
	<path class="st26" d="M102.1,56.9c-0.1,8.7-3,17.5-10.3,21.3C99.2,72,100.7,65,102.1,56.9z"/>
	<path class="st34" d="M95.5,40.5c8.2,16.9-0.1,30.8-4.7,38C92.2,71.7,99.7,56.6,95.5,40.5z"/>
	<path class="st26" d="M98.4,49.5c1.1,9.7-1.4,19.4-7,27.4C96,68.5,98.4,59.1,98.4,49.5z"/>
	<path class="st26" d="M88.8,82.1c5.9,0.3,12.7-5.3,15-13.5C96.9,79.1,94.8,78.1,88.8,82.1z"/>
	<path class="st34" d="M90,82.5c5.1,0.3,11.1-4.6,13.1-11.8C97.2,79.9,95.3,79,90,82.5z"/>
	<path class="st31" d="M83,33.6c8.2,7.2,10,17.8,8.8,29.7C89.8,52.1,88.8,42,83,33.6z"/>
	<path class="st26" d="M84.2,34.8c11.6,9.6,10.9,30.8,7.5,39.8C94.2,64,93.4,44.7,84.2,34.8z"/>
	<path class="st28" d="M65.9,38.8c2.3-1.6,5.2-4,8.1-5.9c3-2,6.1-3.5,7-6.4c0.6,2.8,1.5,5.4,2.7,8c-2.1-1.8-2.3-0.7-3.3-3.6
		C77,34.8,70.7,36.7,65.9,38.8z"/>
	<path class="st29" d="M66,39.9c5.1-3.4,13.3-6.7,14.9-12.9C76.2,32.2,71.5,35.5,66,39.9z"/>
	<path class="st29" d="M86.2,48.3c-1.9-6-6.2-13.5-5.4-19.6C81,37.2,85.5,38.6,86.2,48.3z"/>
	<path class="st32" d="M95,38.8c-4.5-3.9-8.9-7.7-13.5-11.5c1.8,3.4,2.2,3.6,3.2,7.5l-0.1-3.3C87.9,35,90.9,36.3,95,38.8z"/>
	<path class="st35" d="M73.2,115.3l-2.2,0.3c-0.5,0.1-0.9,0.4-0.8,0.8l0,0c0.1,0.3,0.6,0.6,1.1,0.5l2.2-0.3c0.5-0.1,0.9-0.4,0.8-0.8
		l0,0C74.2,115.5,73.7,115.2,73.2,115.3z"/>
	<path class="st36" d="M73.8,115.7l-3.3,0.4c-0.2,0-0.4,0.2-0.3,0.3l0,0c0,0.2,0.3,0.3,0.5,0.2l3.3-0.4c0.2,0,0.4-0.2,0.3-0.3l0,0
		C74.3,115.7,74,115.6,73.8,115.7z"/>
	<path class="st37" d="M73.4,116l-2.9,0.4c-0.1,0-0.2,0.1-0.1,0.1l0,0c0,0.1,0.1,0.1,0.2,0.1l2.9-0.4c0.1,0,0.2-0.1,0.1-0.1l0,0
		C73.6,116.1,73.5,116,73.4,116z"/>
	<path class="st1" d="M73.5,116.5c0.5-0.1,0.8-0.4,0.8-0.7l0,0c-0.1-0.3-0.6-0.5-1.1-0.5c0.2,0.1,0.3,0.3,0.4,0.4l0.1,0.3
		C73.7,116.2,73.6,116.4,73.5,116.5z"/>
	<path class="st38" d="M72.4,116.3l-1.7,0.2l0,0l0,0c0,0,0,0,0.1,0L72.4,116.3L72.4,116.3L72.4,116.3L72.4,116.3z"/>
	<path class="st35" d="M69.3,111.7l-2-1.2c-0.4-0.3-0.9-0.2-1.2,0.2c0,0,0,0,0,0l0,0c-0.2,0.5,0,1,0.5,1.3l2,1.2
		c0.4,0.3,0.9,0.2,1.2-0.2c0,0,0,0,0,0l0,0C69.9,112.5,69.7,111.9,69.3,111.7z"/>
	<path class="st36" d="M69.5,112.5l-2.9-1.8c-0.2-0.1-0.4-0.1-0.5,0.1c0,0,0,0,0,0l0,0c-0.1,0.2,0,0.5,0.2,0.6l2.9,1.8
		c0.2,0.1,0.4,0.1,0.5-0.1c0,0,0,0,0,0l0,0C69.8,112.8,69.7,112.6,69.5,112.5z"/>
	<path class="st37" d="M68.9,112.6l-2.6-1.5c-0.1-0.1-0.2-0.1-0.2,0l0,0c0,0.1,0,0.2,0.1,0.2l2.6,1.5c0.1,0.1,0.2,0.1,0.2,0l0,0
		C69,112.7,68.9,112.6,68.9,112.6z"/>
	<path class="st1" d="M68.5,113.2c0.4,0.2,0.9,0.1,1.2-0.3l0,0c0.2-0.5,0-1-0.4-1.2c0,0.2,0,0.5-0.1,0.7l-0.2,0.3
		C68.9,113,68.7,113.1,68.5,113.2z"/>
	<path class="st38" d="M67.8,112.2l-1.5-0.9l0,0L67.8,112.2L67.8,112.2L67.8,112.2z"/>
	<path class="st35" d="M79.4,113.3l1.7-1c0.3-0.2,0.8-0.1,1,0.2l0,0c0.2,0.4,0,0.9-0.4,1.1l-1.7,1c-0.3,0.2-0.8,0.1-1-0.2l0,0
		C78.9,114,79.1,113.5,79.4,113.3z"/>
	<path class="st36" d="M79.3,114l2.4-1.5c0.1-0.1,0.3-0.1,0.4,0.1c0,0,0,0,0,0l0,0c0.1,0.2,0,0.4-0.2,0.5l-2.4,1.5
		c-0.1,0.1-0.3,0.1-0.4-0.1c0,0,0,0,0,0l0,0C79,114.3,79.1,114.1,79.3,114z"/>
	<path class="st37" d="M79.8,114.1l2.1-1.3c0.1,0,0.1,0,0.2,0l0,0c0,0.1,0,0.1-0.1,0.2l-2.1,1.3c-0.1,0-0.1,0-0.2,0l0,0
		C79.7,114.2,79.7,114.1,79.8,114.1z"/>
	<path class="st1" d="M80.1,114.6c-0.3,0.2-0.8,0.1-1-0.2l0,0c-0.1-0.4,0-0.8,0.4-1c0,0.2,0,0.4,0.1,0.6l0.1,0.3
		C79.7,114.4,79.9,114.5,80.1,114.6z"/>
	<path class="st38" d="M80.6,113.7l1.3-0.8l0,0l0,0l0,0L80.6,113.7L80.6,113.7L80.6,113.7L80.6,113.7z"/>
	<path class="st21" d="M137.9,82.1c-9.6,10.3-21.6,18.8-33.3,27.7c-0.5,0.4-4.4,5.8-6.3,7.2c2-2.9,4.4-7.2,5.4-8
		c11.3-8.7,22-17.6,31.2-27.5c1.4-3.9,0.3-8.8-1.4-12.4c-2-4.1-4.3-9.2-6.8-13.6c-0.1-3.5-1.7-6.9-4.4-9.1
		c4.8,3.2,10.3,15.3,14.2,23.5C138.2,73.3,139.3,78.2,137.9,82.1z"/>
</g>
</svg>
