<?xml version="1.0" encoding="utf-8"?>
<!-- Generator: Adobe Illustrator 21.0.0, SVG Export Plug-In . SVG Version: 6.00 Build 0)  -->
<svg version="1.1" id="Capa_1" xmlns="http://www.w3.org/2000/svg" xmlns:xlink="http://www.w3.org/1999/xlink" x="0px" y="0px"
	 viewBox="0 0 160 178" style="enable-background:new 0 0 160 178;" xml:space="preserve">
<style type="text/css">
	.st0{opacity:0.2;enable-background:new    ;}
	.st1{fill:#FFFFFF;}
	.st2{fill:url(#SVGID_1_);}
	.st3{fill:#FAFAFA;stroke:#E0E0E0;stroke-width:0.4413;stroke-miterlimit:10;}
	.st4{fill:none;stroke:#FFC107;stroke-width:1.738;stroke-miterlimit:10;}
	.st5{opacity:0.5;fill:#FFFFFF;enable-background:new    ;}
	.st6{opacity:0.1;enable-background:new    ;}
	.st7{opacity:0.6;}
	.st8{fill:#CCCCCA;}
	.st9{fill:#F2F2F2;}
	.st10{clip-path:url(#SVGID_3_);}
	.st11{fill:#21211D;}
	.st12{fill:#363632;}
	.st13{fill:#5C5C69;}
	.st14{fill:#7C7C8A;}
	.st15{fill:#A2A2AB;}
	.st16{fill:#E8A477;}
	.st17{fill:#D69265;}
	.st18{fill:#F1B287;}
	.st19{fill:#F4BC97;}
	.st20{fill:#997356;}
	.st21{fill:#87654A;}
	.st22{fill:#A67D5D;}
	.st23{fill:#EDA580;}
	.st24{fill:#F2B292;}
	.st25{fill:#F7BFA3;}
	.st26{fill:#FCE3D6;}
	.st27{fill:#F7C4A3;}
	.st28{fill:#DEB397;}
	.st29{fill:#FFD3B5;}
	.st30{fill:#9E8047;}
	.st31{fill:#A8874A;}
	.st32{fill:#B89657;}
	.st33{fill:#C7A463;}
	.st34{fill:#8C6E36;}
	.st35{fill:#D1AE6D;}
	.st36{fill:#82652F;}
	.st37{fill:#735929;}
</style>
<title>Mesa de trabajo 1</title>
<g>
	<circle class="st0" cx="81.2" cy="148.8" r="27.6"/>
	<circle class="st1" cx="79.7" cy="148" r="27.4"/>
	
		<radialGradient id="SVGID_1_" cx="79.704" cy="32.0019" r="24.6667" gradientTransform="matrix(1 0 0 -1 0 180)" gradientUnits="userSpaceOnUse">
		<stop  offset="0" style="stop-color:#FFFFFF"/>
		<stop  offset="0.4846" style="stop-color:#F5F5F5"/>
		<stop  offset="1" style="stop-color:#E6E6E6"/>
	</radialGradient>
	<circle class="st2" cx="79.7" cy="148" r="24.7"/>
	<circle class="st3" cx="79.7" cy="148" r="13.3"/>
	<circle class="st4" cx="79.7" cy="148" r="24.6"/>
	<path class="st5" d="M99.1,128.6l-38.7,38.7c-10.7-10.7-10.7-28,0-38.7S88.4,117.9,99.1,128.6z"/>
	<path class="st6" d="M68.3,148c0-7.1,5.5-12.8,12.5-13.2c-0.3,0-0.6,0-0.9,0c-7.3,0-13.3,5.9-13.3,13.3s5.9,13.3,13.3,13.3
		c0.3,0,0.6,0,0.9,0C73.8,160.8,68.3,155.1,68.3,148z"/>
	<g id="XMLID_12_">
		<g class="st7">
			<path id="XMLID_27_" d="M108.8,173.6l0.6,0l0.1-9.2c0-0.1,0-0.2,0.1-0.2c0.1-0.1,0.3-0.1,0.4,0l-0.1,9.4l0.6,0l0.1-9.2l0,0
				c0.1-0.2,0.4-0.1,0.4,0.1l0,9.1l0.7,0l0.1-9.1c0-0.2,0.3-0.3,0.4-0.1l0,0l0,9.2l0.6,0l-0.1-9.4c0.1-0.1,0.3-0.1,0.4,0
				c0.1,0.1,0.1,0.1,0.1,0.2l0,9.2l0.6,0l0-13.8c0-0.3-0.1-0.6-0.2-0.8l-1.2-2.5c-0.1-0.3-0.2-0.6-0.2-0.9l1-30.1
				c0-0.6-0.2-1.1-0.7-1.5l0,0c-0.7-0.6-1.7-0.6-2.4,0l0,0c-0.4,0.4-0.7,0.9-0.7,1.5l0.8,30.1c0,0.3-0.1,0.6-0.2,0.9l-1.2,2.4
				c-0.1,0.3-0.2,0.5-0.2,0.8L108.8,173.6z"/>
			<polygon id="XMLID_26_" points="110.2,145.6 110.4,152.5 112.6,151.1 112.8,144 			"/>
			<path id="XMLID_25_" d="M109.9,134.3l3.3-2.1l0.2-6.6c0-0.2,0-0.3,0-0.5l-3.7,2.3L109.9,134.3z"/>
			<polygon id="XMLID_24_" points="108.8,162.2 113.5,158.3 113.1,157.5 108.9,161.1 			"/>
			<polygon id="XMLID_23_" points="108.8,168 109.5,167.4 109.5,165.5 108.8,166 			"/>
			<path id="XMLID_22_" d="M111,164.5l0,1.6l0.8-0.7l0-1c0-0.2,0.3-0.3,0.4-0.1l0,0l0,0.6l0.5-0.5l0-0.4c0.1-0.1,0.3-0.1,0.4,0
				c0,0,0,0,0,0.1l0.7-0.6l0-1.9l-3.2,2.6C110.9,164.4,111,164.4,111,164.5z"/>
			<polygon id="XMLID_21_" points="110.6,166.5 110.6,164.6 110,165 110,167 			"/>
		</g>
		<g>
			<g>
				<path id="XMLID_20_" class="st8" d="M108.2,173l0.6,0l0.1-9.2c0-0.1,0-0.2,0.1-0.2c0.1-0.1,0.3-0.1,0.4,0l-0.1,9.4l0.6,0
					l0.1-9.2l0,0c0.1-0.2,0.4-0.1,0.4,0.1l0,9.1l0.7,0l0.1-9.1c0-0.2,0.3-0.3,0.4-0.1l0,0l0,9.2l0.6,0l-0.1-9.4
					c0.1-0.1,0.3-0.1,0.4,0c0.1,0.1,0.1,0.1,0.1,0.2l0,9.2l0.6,0l0-13.8c0-0.3-0.1-0.6-0.2-0.8l-1.2-2.5c-0.1-0.3-0.2-0.6-0.2-0.9
					l1-30.1c0-0.6-0.2-1.1-0.7-1.5l0,0c-0.7-0.6-1.7-0.6-2.4,0l0,0c-0.4,0.4-0.7,0.9-0.7,1.5l0.8,30.1c0,0.3-0.1,0.6-0.2,0.9
					l-1.2,2.4c-0.1,0.3-0.2,0.5-0.2,0.8L108.2,173z"/>
				<polygon id="XMLID_19_" class="st9" points="109.6,145 109.8,151.9 112,150.5 112.2,143.4 				"/>
				<path id="XMLID_18_" class="st9" d="M109.3,133.7l3.3-2.1l0.2-6.6c0-0.2,0-0.3,0-0.5l-3.7,2.3L109.3,133.7z"/>
				<polygon id="XMLID_17_" class="st9" points="108.2,161.6 112.9,157.7 112.5,156.9 108.2,160.4 				"/>
				<g id="XMLID_13_">
					<polygon id="XMLID_16_" class="st9" points="108.2,167.4 108.9,166.8 108.9,164.9 108.2,165.4 					"/>
					<path id="XMLID_15_" class="st9" d="M110.4,163.9l0,1.6l0.8-0.7l0-1c0-0.2,0.3-0.3,0.4-0.1l0,0l0,0.6l0.5-0.5l0-0.4
						c0.1-0.1,0.3-0.1,0.4,0c0,0,0,0,0,0.1l0.7-0.6l0-1.9l-3.2,2.6C110.3,163.8,110.4,163.8,110.4,163.9z"/>
					<polygon id="XMLID_14_" class="st9" points="110,165.9 110,164 109.4,164.4 109.4,166.4 					"/>
				</g>
			</g>
		</g>
	</g>
	<g id="XMLID_1_">
		<g class="st7">
			<path id="XMLID_11_" d="M45.8,124.4L46,173c0,0.7,0.9,0.9,1.3,0.3l0,0c1.4-2.6,2.4-5.5,2.8-8.5l0.4-2.8c0.3-2.2-0.1-4.5-1.3-6.5
				l0,0c-1-1.7-1.5-3.7-1.4-5.7l1.3-21c0.1-1.3,0-2.5-0.4-3.7l0,0c-0.3-1-1.1-1.6-2.1-1.6l0,0C46.2,123.6,45.8,124,45.8,124.4z"/>
			<polygon id="XMLID_10_" points="45.9,139.6 45.9,146.5 48.1,145.1 48.6,137.8 			"/>
			<path id="XMLID_9_" d="M46.6,123.6c-0.5,0-0.8,0.4-0.8,0.9l0,3.6l3.2-2c-0.1-0.3-0.1-0.5-0.2-0.8
				C48.5,124.2,47.6,123.6,46.6,123.6z"/>
			<path id="XMLID_8_" d="M47.8,150.3l-1.9,1.6l0,1.2l2-1.6C47.8,151.1,47.8,150.7,47.8,150.3z"/>
			<path id="XMLID_7_" d="M46,167.8l0,1.9l3.8-3.1c0.1-0.6,0.2-1.2,0.3-1.8l0.1-0.5L46,167.8z"/>
		</g>
		<g>
			<g>
				<path id="XMLID_6_" class="st8" d="M45.2,123.8l0.2,48.5c0,0.7,0.9,0.9,1.3,0.3l0,0c1.4-2.6,2.4-5.5,2.8-8.5l0.4-2.8
					c0.3-2.2-0.1-4.5-1.3-6.5l0,0c-1-1.7-1.5-3.7-1.4-5.7l1.3-21c0.1-1.3,0-2.5-0.4-3.7l0,0c-0.3-1-1.1-1.6-2.1-1.6l0,0
					C45.6,123,45.2,123.4,45.2,123.8z"/>
				<polygon id="XMLID_5_" class="st9" points="45.2,138.9 45.3,145.9 47.5,144.5 48,137.2 				"/>
				<path id="XMLID_4_" class="st9" d="M46,123c-0.5,0-0.8,0.4-0.8,0.9l0,3.6l3.2-2c-0.1-0.3-0.1-0.5-0.2-0.8
					C47.9,123.6,47,123,46,123z"/>
				<path id="XMLID_3_" class="st9" d="M47.2,149.7l-1.9,1.6l0,1.2l2-1.6C47.2,150.5,47.2,150.1,47.2,149.7z"/>
				<path id="XMLID_2_" class="st9" d="M45.3,167.2l0,1.9l3.8-3.1c0.1-0.6,0.2-1.2,0.3-1.8l0.1-0.5L45.3,167.2z"/>
			</g>
		</g>
	</g>
</g>
<g>
	<defs>
		<rect id="SVGID_2_" x="5.6" y="1.7" width="148.9" height="104.7"/>
	</defs>
	<clipPath id="SVGID_3_">
		<use xlink:href="#SVGID_2_"  style="overflow:visible;"/>
	</clipPath>
	<g class="st10">
		<path class="st11" d="M44.7,61c2.1-3.3,19.5-5.6,36.7-5.1c15.7,0.5,31.3,3.4,35.4,10.2c6.9,11.6,12.3,59.3-9.2,60.4
			c-22.3,1.2-37.7,0.7-60-1.1C28.8,121.5,36.6,73.6,44.7,61z"/>
		<path d="M50.3,61c2.1-3.1,15.5-5.6,30.3-5.1c13.5,0.5,27.9,3.4,31.4,10.2c6,11.6,12.8,59.9-5.7,61c-19.2,1.1-39.7-1.5-58.8-3.3
			C31.2,120,41.6,73.6,50.3,61z"/>
		<path class="st12" d="M45.7,60.1c4.3-2.8,20.1-4.7,35.8-4.2s31.3,3.5,35.4,10.2c6.6,11,11.7,54.6-6.2,59.9
			c14.5-8.9,9.6-48.2,3.3-58.6c-4.1-6.8-19.7-9.7-35.4-10.2C65.4,56.7,52.1,58,45.7,60.1z"/>
		<path d="M26.3,35.3c1-3.9,2.7-8.8,2.4-16.5c-0.5-12.7,5.6-15,21.1-14.1c12.5,0.8,21.1,0,30.7,0c8.9,0,20.9,0.8,29.8,0.5
			c10.7-0.4,20.3,2.3,20,12.3c-0.1,4.4-1.7,12.4,0.1,17.3c8.2,23.2-37.3,35.1-56,33.3C57.8,68.3,20.7,57.9,26.3,35.3z"/>
		<path class="st11" d="M110,5.3h0.3c10.7-0.4,20.3,2.3,20,12.3c-0.1,4.4-1.7,12.4,0.1,17.4c7.9,22.4-34.3,34.3-54,33.4
			c20.9-0.8,57.3-12.5,49.9-33.4c-1.8-4.9-0.2-13-0.1-17.4C126.5,8.8,119.1,5.7,110,5.3z"/>
		<path class="st13" d="M23.9,53.2h3.2c3.5,0,6.3,2.8,6.3,6.2v62.1c0,3.5-2.8,6.3-6.3,6.3h-3.2c-3.5,0-6.3-2.8-6.3-6.3V59.5
			C17.7,56,20.5,53.2,23.9,53.2z"/>
		<path class="st14" d="M24.5,53.2h2.2c2.4,0,4.3,1.9,4.3,4.3v66c0,2.4-1.9,4.3-4.3,4.3h-2.2c-2.4,0-4.3-1.9-4.3-4.3v-66
			C20.2,55.1,22.1,53.2,24.5,53.2z"/>
		<path class="st15" d="M26.7,127.3h-2.2c-1.2,0-2.3-0.5-3.1-1.4c0.6,0.3,1.2,0.4,1.9,0.4h2.2c2.4,0,4.3-1.9,4.3-4.3v-66
			c-0.2-1.4-1.1-2.5-2.5-2.9c2.1,0.4,3.8,2.2,3.8,3.8v66C31,125.4,29,127.3,26.7,127.3z"/>
		<path class="st13" d="M130,53.2h3.2c3.5,0,6.3,2.8,6.3,6.2v62.1c0,3.5-2.8,6.3-6.3,6.3H130c-3.5,0-6.2-2.8-6.2-6.3V59.5
			C123.7,56,126.5,53.2,130,53.2z"/>
		<path class="st14" d="M130.5,53.2h2.2c2.4,0,4.3,1.9,4.3,4.3v66c0,2.4-1.9,4.3-4.3,4.3h-2.2c-2.4,0-4.3-1.9-4.3-4.3v-66
			C126.2,55.1,128.1,53.2,130.5,53.2z"/>
		<path class="st15" d="M132.7,127.3h-2.2c-1.2,0-2.3-0.5-3.2-1.4c0.6,0.3,1.2,0.4,1.9,0.4h2.2c2.4,0,4.3-1.9,4.3-4.3v-66
			c-0.2-1.4-1.1-2.5-2.5-2.9c2.1,0.4,3.8,2.2,3.8,3.8v66C137,125.4,135.1,127.3,132.7,127.3z"/>
		<path class="st11" d="M28.9,23.4c-3-15.8,3.3-22.5,18.7-21.2c12.6,1,23.3,1.7,32.9,1.7c8.9,0,21.7-1.3,30.6-1.7
			c15.5-0.7,21.5,3,19.2,20.1c-1.5,10.9-26.5-4.8-53.2-4C52.4,18.9,29.8,28.1,28.9,23.4z"/>
		<path class="st12" d="M80.5,3.8c8.9,0,21.7-1.3,30.6-1.7c15.5-0.7,21.5,3,19.2,20.1c-0.4,2.6-2,3.7-4.7,3.8l0,0
			c1.2-8.8,0.2-14-3.2-16.9C116.4,4,95.4,7.5,80.5,3.8z"/>
		<path d="M78.4,3.8c-8.9,0-21.7-1.3-30.6-1.7c-15.5-0.7-21.5,3-19.2,20.1c0.4,2.6,2,3.7,4.7,3.8l0,0c-1.2-8.8-0.2-14,3.2-16.9
			C42.5,4,63.5,7.5,78.4,3.8z"/>
		<path class="st16" d="M64.3,154.8c-0.5-8.3-4.8-12.1-7.4-18.9c-3-7.7-2.1-18.9-5-29l13.5,16.3l3.1,10.3l0.3,13L64.3,154.8z"/>
		<path class="st17" d="M63.1,148.5c-2-5.8,0.3-13.9,0.7-18c-4.2-7.4-8.4-12.7-11.3-22.8l-0.2-0.9c3.9,8.2,8.4,16.1,13.6,23.5
			c-1.1,4.2-1.9,8.5-2.4,12.9C63.2,144.9,63.1,146.7,63.1,148.5z"/>
		<path class="st18" d="M97.4,144.1c-2.5,8.9-11.1,12.1-22.6-1.9c-11.5-14-20.8-29.8-27.4-46.7c-3.1-8.1-3.4-18.3,3.1-22.9
			c3.4-2.4,8.4-1.7,16.1-1.7c9.4,0,9.3,4.9,12.9,13.4c4.8,11.4,11.5,28.3,14.9,37.9C97.2,130.1,99.1,138.1,97.4,144.1z"/>
		<path class="st19" d="M97.4,144.1c-0.9,3.1-2.5,5.5-4.7,6.8c0.3-0.7,0.6-1.5,0.8-2.3c1.7-5.9-0.2-14-3-22
			c-3.4-9.6-10.2-26.5-14.9-37.9c-3.5-8.4-3.4-13.4-12.9-13.4c-7.6,0-12.5-0.6-15.9,1.6c0.8-1.7,2.1-3.2,3.7-4.3
			c3.4-2.4,8.4-1.7,16.1-1.7c9.4,0,9.3,4.9,12.9,13.4c4.7,11.5,11.5,28.3,14.9,37.9C97.2,130.1,99.1,138.1,97.4,144.1z"/>
		<path class="st16" d="M94.4,149.5c-4,3.9-11,3-19.6-7.4c-11.5-14-20.8-29.8-27.4-46.7c-3.1-8.1-3.4-18.3,3.1-22.9
			c1-0.7,2.1-1.1,3.3-1.4c-5.6,4.9-5.2,14.5-2.2,22.2c6.6,16.9,15.9,32.7,27.4,46.7C85.1,147.5,90.4,150.1,94.4,149.5z"/>
		<path class="st18" d="M104.5,73.9c8.4,8.6,7,15.6,4.2,26.2c-2.5,9.4-6.4,18-9.2,25c-3.2,7.8-7.6,15.9-11.3,24.2
			c-8.4,13.7-14.5,15.5-21.1,11c-3.8-2.6-4.5-9.6-3.6-17.2c1.4-12.2,4.8-20.1,6.7-29.8c2.1-10.3,2.1-24.3,2.5-35L104.5,73.9z"/>
		<path class="st19" d="M104.5,73.9c8.4,8.6,7,15.6,4.2,26.2c-2.5,9.4-6.4,18-9.2,25c-3.2,7.8-7.6,15.9-11.3,24.2
			c-5.9,9.7-10.7,13.4-15.4,13.2C83,153,92,131,95,123.6c3.3-8.1,6.1-16.5,8.3-25c2.4-9.2,1-14.9-5-23.9L104.5,73.9z"/>
		<path class="st16" d="M70,161.9c-1.1-0.4-2.1-0.9-3-1.6c-3.8-2.6-4.5-9.6-3.6-17.2c1.4-12.2,4.8-20.1,6.7-29.8
			c2.1-10.3,2.1-24.3,2.5-35l6.3-0.9c-0.3,10.6-0.4,24.2-2.5,34.4c-1.9,9.7-5.3,17.6-6.7,29.8C68.8,148.8,67,158.7,70,161.9z"/>
		<path class="st20" d="M104.5,73.9c8.4,8.6,7,15.6,4.2,26.2c-0.3,1.2-1.7,5.6-2.1,6.8c-10.9,4.1-23.5,1.5-34.5,0.8
			c-7.5-0.5-12.7,2.1-19.3-0.1c-1.1-2.5-4.3-9.7-5.3-12.2c-3.1-8.1-3.4-18.3,3.1-22.9c3.4-2.4,8.4-1.7,16.1-1.7
			c6.7,0,8.6,2.5,10.4,6.9L104.5,73.9z"/>
		<path class="st21" d="M52.7,107.6c-1.1-2.5-4.4-9.7-5.3-12.2c-3.1-8.1-3.4-18.3,3.1-22.9c1-0.7,2.1-1.1,3.3-1.4
			c-5.6,4.9-5.2,14.5-2.2,22.2c1.4,3.6,5.1,11.5,6.8,15.2C56.4,108.2,54.6,108.2,52.7,107.6z"/>
		<path class="st22" d="M104.5,73.9c8.4,8.6,7,15.6,4.2,26.2c-0.3,1.2-2.2,7-2.5,8.2c-2,0.8-4.1,1.4-6.3,1.8
			c0.7-2.2,2.8-9.1,3.4-11.4c2.4-9.2,1-14.9-5-23.9L104.5,73.9z"/>
		<path class="st21" d="M70.9,108.4c1-9,1.5-21.8,1.7-30l6.2-0.9c-0.3,8.7-0.8,22.1-1.9,31.3l-5.3-0.4L70.9,108.4z"/>
	</g>
</g>
<g>
	<path class="st16" d="M115.9,155.7l-0.3-0.3l0.1-1.5l0.6-2.4l0.1-1.1l0.2,1.3c0,0-0.1,1.6-0.1,1.8S115.9,155.7,115.9,155.7z"/>
	<path class="st18" d="M115.8,120c-1,2.3-2.1,5.7-3.3,7.5c-1.5,2.2-1.5,2.9-2.4,4.9c-0.7,1.5-1,3.3-1.4,4.9l-0.5,2.5
		c-0.3,1.7-0.2,1.4,0.1,3.2l0.8,4l0.6-0.1l-0.1,2.9c-0.2,3.1,0.8,3.8,1.3,3.8s0.8-0.3,1.1-1.9c0.3-1.3,0.3-3,0.5-4.2
		c0.3-2,0.2-3.9,0.9-5.7c0.5-1.2,0.3-0.6,0.2,0.6c-0.1,1-0.1,2-0.2,3.1s-0.2,2.8-0.3,3.8c-0.1,1.3-0.3,3.8-0.3,5s0.2,2.3,1.4,2.1
		c0.7-0.1,1.1-0.9,1.3-2.1c0.4-1.9,0.4-3.9,0.7-5.9c0.3-1.9,0.4-3.9,0.4-5.9c0-0.5,0.2-0.8,0.2-0.2c0.1,2.2,0,4.5-0.4,6.7
		c-0.3,1.8-0.6,3.4-0.8,5.3c-0.2,1.1-0.5,1.1-0.3,1.3c1.7,1.9,2.4-1.8,3.1-3.2c0.7-1.6,2.2-4.5,2.3-6l0.3-5.7
		c0.4-1.8,0.6-3.7,0.6-5.6c-0.1-1.9-0.5-3.5-0.4-5.3c0.2-2.9,1.4-5.4,2.5-9L115.8,120z"/>
	<path class="st16" d="M114,141.2c0.1,0,0,0.6-0.1,1.3c-0.1,1-0.1,2-0.2,3.1s-0.2,2.8-0.3,3.8c-0.1,1.3-0.3,3.8-0.3,5s0.2,2,0.9,2.1
		c-0.8-1.6-0.3-5.3,0-8.5C114.3,145.5,114.8,140.2,114,141.2L114,141.2L114,141.2z M117.1,142.1c0,0,0.1,0.1,0.1,0.3
		c0.1,2.2,0,4.5-0.4,6.7c-0.3,1.8-0.6,3.4-0.8,5.3c-0.1,0.3-0.2,0.7-0.3,1v0.1c0,0.1,0,0.1,0.1,0.2c0.6,0.6,1,0.6,1.4,0.3
		c-0.2-0.1-0.3-0.3-0.3-0.5c-0.1-2.4,1.1-5.6,1.5-8c-0.1-1.6-0.3-4.1-0.6-5.2C117.6,141.5,117.3,141.5,117.1,142.1L117.1,142.1z"/>
	<path class="st16" d="M115.8,120c-1,2.3-2.1,5.7-3.3,7.5c-1.5,2.1-1.6,3.1-2.5,5c-0.7,1.5-0.9,3.2-1.3,4.8l-0.5,2.5
		c-0.3,1.7-0.2,1.4,0.1,3.2l0.8,4l0.6-0.1l-0.1,2.9c-0.1,1.1,0,2.2,0.5,3.2c-0.1-2.1-0.1-4.1,0-6.2c0-1.3,0.1-2.6,0.3-3.8
		c0.5-1.8,0.8-3.6,1-5.5c0-0.8-0.2-1.6-0.4-2.3c0,3.9-1.2,6.1-1.5,9.5c-0.2-1.4-0.3-2.7-0.3-4.1c0-1.5,0.3-2.9,0.8-4.3
		c1.5-4.5,2.2-5.6,4.6-9.3c1.5-2.5,2.5-4.2,3.4-7L115.8,120z"/>
	<path class="st16" d="M119.3,150.8l0.9-3.2c0-1.9-0.1-4.2,0-5.9c0-0.5,0.4-0.6,0.4,0.1c0.1,2,0.1,4-0.2,6L119.3,150.8z"/>
	<path class="st23" d="M110.4,153.5l0.1-1.9c0-0.4,0.3-0.7,0.7-0.8l0,0c0.4,0,0.6,0.4,0.6,0.8c0,0,0,0,0,0l-0.1,1.9
		c0,0.4-0.3,0.7-0.7,0.8l0,0C110.6,154.2,110.4,153.9,110.4,153.5C110.4,153.5,110.4,153.5,110.4,153.5z"/>
	<path class="st24" d="M110.8,154l0.1-2.7c0-0.2,0.1-0.3,0.3-0.4l0,0c0.2,0,0.3,0.2,0.3,0.3c0,0,0,0,0,0l-0.1,2.7
		c0,0.2-0.1,0.3-0.3,0.4l0,0C110.9,154.3,110.8,154.1,110.8,154C110.8,154,110.8,154,110.8,154z"/>
	<path class="st25" d="M111.1,153.6l0.1-2.4c0-0.1,0-0.1,0.1-0.1l0,0c0.1,0,0.1,0.1,0.1,0.1c0,0,0,0,0,0l-0.1,2.4
		c0,0.1,0,0.1-0.1,0.1l0,0C111.2,153.7,111.1,153.6,111.1,153.6C111.1,153.6,111.1,153.6,111.1,153.6z"/>
	<path class="st1" d="M111.7,153.5c-0.1,0.4-0.3,0.8-0.7,0.8l0,0c-0.3,0-0.6-0.3-0.6-0.8c0.1,0.1,0.3,0.2,0.5,0.2h0.3
		C111.4,153.7,111.5,153.7,111.7,153.5z"/>
	<path class="st26" d="M111.3,152.7l0.1-1.4l0,0l0,0l0,0L111.3,152.7L111.3,152.7L111.3,152.7L111.3,152.7z"/>
	<path class="st23" d="M113.7,156.1l0.1-1.9c0-0.4,0.3-0.8,0.8-0.8l0,0c0.4,0,0.7,0.3,0.7,0.7c0,0,0,0,0,0l-0.1,1.9
		c0,0.4-0.3,0.8-0.8,0.8l0,0C113.9,156.9,113.6,156.6,113.7,156.1C113.6,156.2,113.6,156.1,113.7,156.1z"/>
	<path class="st24" d="M114.1,156.6l0.1-2.7c0-0.2,0.2-0.3,0.3-0.4l0,0c0.2,0,0.3,0.2,0.3,0.3c0,0,0,0,0,0l-0.1,2.7
		c0,0.2-0.2,0.3-0.3,0.4l0,0C114.2,156.9,114.1,156.8,114.1,156.6C114.1,156.6,114.1,156.6,114.1,156.6z"/>
	<path class="st25" d="M114.5,156.2l0.1-2.4c0-0.1,0.1-0.1,0.1-0.1l0,0c0.1,0,0.1,0.1,0.1,0.1c0,0,0,0,0,0l-0.1,2.4
		c0,0.1-0.1,0.1-0.1,0.1l0,0C114.6,156.3,114.5,156.3,114.5,156.2C114.5,156.2,114.5,156.2,114.5,156.2z"/>
	<path class="st1" d="M115.1,156.2c0,0.4-0.3,0.7-0.8,0.8l0,0c-0.4,0-0.7-0.4-0.7-0.8c0.2,0.1,0.4,0.2,0.6,0.2h0.3
		C114.7,156.4,114.9,156.3,115.1,156.2z"/>
	<path class="st26" d="M114.7,155.3l0.1-1.4l0,0l0,0l0,0L114.7,155.3L114.7,155.3L114.7,155.3L114.7,155.3z"/>
	<path class="st23" d="M116,155.7l0.5-1.8c0.1-0.4,0.5-0.7,0.8-0.6l0,0c0.4,0.1,0.6,0.5,0.4,0.9c0,0,0,0,0,0l-0.5,1.8
		c-0.1,0.4-0.5,0.7-0.8,0.6l0,0C116.1,156.4,115.9,156,116,155.7C116,155.7,116,155.7,116,155.7z"/>
	<path class="st24" d="M116.3,156.2l0.7-2.6c0-0.2,0.2-0.3,0.4-0.3l0,0c0.2,0.1,0.3,0.2,0.2,0.4c0,0,0,0,0,0l-0.7,2.6
		c0,0.2-0.2,0.3-0.4,0.3l0,0C116.3,156.5,116.2,156.3,116.3,156.2z"/>
	<path class="st25" d="M116.7,155.9l0.6-2.3c0-0.1,0.1-0.1,0.1-0.1c0,0,0,0,0,0l0,0c0.1,0,0.1,0.1,0.1,0.1c0,0,0,0,0,0l-0.6,2.3
		c0,0.1-0.1,0.1-0.2,0.1l0,0C116.7,156,116.7,155.9,116.7,155.9C116.7,155.9,116.7,155.9,116.7,155.9z"/>
	<path class="st1" d="M117.3,156c-0.1,0.4-0.4,0.6-0.8,0.6l0,0c-0.3-0.1-0.5-0.5-0.4-0.9c0.1,0.2,0.3,0.3,0.4,0.3l0.3,0.1
		C116.9,156.1,117.1,156.1,117.3,156z"/>
	<path class="st26" d="M117.1,155.1l0.4-1.4l0,0l0,0l0,0L117.1,155.1L117.1,155.1L117.1,155.1L117.1,155.1z"/>
	<path class="st23" d="M109.3,147.1l-0.3-1.5c-0.1-0.4,0.1-0.7,0.3-0.7l0,0c0.2-0.1,0.4,0.2,0.5,0.5l0.3,1.5
		c0.1,0.4-0.1,0.7-0.3,0.7l0,0C109.6,147.7,109.3,147.5,109.3,147.1z"/>
	<path class="st24" d="M109.6,147.5l-0.4-2.2c0-0.1,0-0.3,0.1-0.3l0,0c0.1,0,0.2,0.1,0.2,0.2l0.4,2.2c0,0.2,0,0.3-0.1,0.3l0,0
		C109.7,147.7,109.6,147.6,109.6,147.5z"/>
	<path class="st25" d="M109.7,147.1l-0.4-1.9c0-0.1,0-0.1,0-0.1l0,0c0,0,0.1,0,0.1,0.1L109.7,147.1
		C109.8,147.1,109.8,147.2,109.7,147.1L109.7,147.1C109.8,147.2,109.8,147.1,109.7,147.1z"/>
	<path class="st1" d="M110.1,147c0,0.4-0.1,0.7-0.3,0.7l0,0c-0.2,0-0.4-0.2-0.5-0.5c0.1,0.1,0.2,0.1,0.3,0.1h0.2
		C109.9,147.2,110,147.1,110.1,147z"/>
	<path class="st26" d="M108,146.4l-0.2-1.1l0,0l0,0l0,0L108,146.4L108,146.4L108,146.4C108,146.4,108,146.4,108,146.4z"/>
	<path class="st27" d="M78.2,46c-9.9-0.4-19.8-0.2-29.7,0.8c-12.1,1.5-16.6,8.1-16.2,14.8c0.3,4.7,3.7,6.9,7.8,9.9
		c2.8,2.1,4.4,6.4,6,9c2.7,4.7,5.2,14.1,17.4,14.3c3.9,0,7.5-2,14.3-2s10.4,1.3,14.3,1.2c12.3-0.2,13.9-8,17.6-14.3
		c1.1-1.8,4.5-3.5,7.4-5.6c4-3,6.6-7.5,7-12.5c0.4-6.7-4.1-13.3-16.2-14.8C98.1,45.9,88.1,45.6,78.2,46z"/>
	<path class="st27" d="M128.1,79.8c0,15.7-1.3,31.5-3.9,47c-3.8-1-8.2-1.9-12.3-0.3c1.9-15.3,0-23.5,0.7-38.8
		c-0.6-4.8-1.1-12.4-2.2-17.1l9.8-18.3C125.9,55.1,126,71,128.1,79.8z"/>
	<path class="st28" d="M114.1,125.9c-0.7,0.2-1.4,0.4-2.1,0.6c1.9-15.3,0-23.5,0.7-38.8c-0.3-4.3-0.2-8.7-2.3-9.2
		c1.7-2.9,3.1-6,4.1-9.3l1.6,17c1.8-3,4.4-4.7,6.9-4.2c-2.5,0.8-6.4,4.9-6.7,10.8C115.8,104.8,115.7,112.8,114.1,125.9z"/>
	<path class="st29" d="M128.1,79.8c0,15.7-1.3,31.5-3.9,47c-0.7-0.2-1.3-0.4-2-0.5c2.4-14.9,3.6-30,3.6-45.1
		c-1.9-7.6-2.2-20.5-5.9-25.6c-0.2-0.4-0.5-0.8-0.8-1.1l1.1-2.1C125.9,55.1,126,71,128.1,79.8z"/>
	<path class="st27" d="M20.7,81l9.9,5.6c3.3-4,12.5-12.3,15.1-13.8l-7.3-22.2c-5.2,1.1-11.4,15-15.7,24C21.6,76.6,20.9,78.8,20.7,81
		z"/>
	<path class="st29" d="M28.8,85.6l1.8,1c2.2-2.6,8.3-8,11.9-11.8c-2.8,1.3-5.4,2.8-7.9,4.6C32.5,81.2,30.5,83.3,28.8,85.6z"/>
	<path class="st18" d="M60.3,139.5c-1-2.4-3-5.7-3.9-8.3c-0.4-1-1-2.2-0.7-2.5s2.8,8.7,6.5,7.6c-1-2.2-1.7-4.3-2.6-6.4
		c-0.2-0.3-0.3-0.7-0.5-1c-1.6-2.7-1.6-3.3-3.4-5.6c-1.2-1.3-2.4-2.4-3.8-3.4c-2.3-2-3.4-3.9-5.4-7.4l-7,3.6c2,4.1,2.8,5.6,3.2,7.3
		c0.3,1.3,0.1,2.6,0.8,5.6c0.6,2.6,1.6,6,2.4,9.4c0.5,0.7,1.1,1.4,1.7,2c0.6,0.6,1.3,1.1,2.1,1.4c0.7,0.3,1.5,0.3,2.3,0.2
		c1.2,1,1.9,1.4,2.6,1.4c0.2-0.4,0.3-0.8,0.4-1.2c-0.5-0.6-1-1.1-1.5-1.8c-0.6-0.9-1.1-1.9-1.6-2.9c-0.5-1-1-1.9-1.6-2.9
		c-0.7-1.2-0.4-1.1,0.2-0.2c0.6,0.9,1.2,1.9,1.7,2.9c0.5,1,0.9,2,1.6,3c0.4,0.5,1.2,1.5,2.1,2.6c1.2,1.6,2.6,3.3,3.2,3.3
		c0.3,0,0.6-0.1,0.8-0.4c0.3-0.3,0.2-1.1-0.2-1.9s-0.9-1.6-1.5-2.7s-1.1-1.8-1.6-2.8c-0.8-1.4-1.5-2.8-2.3-4.2
		c-0.6-1.2-0.3-1.3,0.3-0.1c0.7,1.4,1.3,2.8,2.1,4.2c0.5,0.9,1,1.8,1.5,2.7s0.8,1.5,1.4,2.3c0.4,0.6,0.7,1,1.4,0.9s0.9-0.9,0.6-1.9
		C61.1,141.3,60.8,140.4,60.3,139.5z M50.1,140c-0.6-0.6-1.1-1.1-1.7-1.7c-0.6-1.4-0.9-2.8-1-4.3c0.7,1.4,1.4,3.3,2.1,4.8
		c0.3,0.6,0.5,0.6,0.8,1.1L50.1,140z"/>
	<path class="st16" d="M55.6,128.7c0.5-0.4,0.5-0.4,1.9,2.7c0.9,2,2.2,4.5,4.5,4.9c-1.1,0.3-2.3-0.1-2.9-1
		C57.7,133.8,56,128.8,55.6,128.7L55.6,128.7z M40.5,115.5l-1.1,0.6c2,4.1,2.8,5.6,3.2,7.3c0.3,1.3,0.1,2.6,0.8,5.6
		c0.6,2.6,1.6,6,2.4,9.4c0.5,0.7,1.1,1.4,1.7,2c0.6,0.6,1.3,1.1,2.1,1.4c0.7,0.3,1.5,0.3,2.3,0.2c1.3,1.1,2,1.5,2.8,1.3
		c0.3,0,0.6-0.8,0.2-1.2s-1-1.1-1.5-1.8c-0.6-0.9-1.1-1.9-1.6-2.9c-0.5-1-1-1.9-1.6-2.9c-0.7-1.2-0.4-1.1,0.2-0.2
		c0.6,0.9,1.2,1.9,1.7,2.9c0.5,1,0.9,2,1.6,3c0.4,0.5,1.2,1.5,2.1,2.6c1.3,1.6,2.6,3.3,3.2,3.3c0.3,0,0.6-0.1,0.8-0.4
		c0.3-0.3,0.2-1.1-0.2-1.9c-0.2-0.5-0.5-0.9-0.8-1.4l0.7,1.3c0.4,0.8,0.4,1.4,0.1,1.7s-0.9,0-1.6-0.7c-0.6-0.6-1.4-1.7-2.2-2.7
		c-0.5-0.6-1-1.3-1.5-2c-0.6-0.9-1.1-1.9-1.5-2.8c-0.6-1.2-1.4-2.4-2.2-3.5c-0.4-0.5-1.3-1.7-0.8,0c0.2,0.5,0.4,1,0.6,1.4
		c1.1,2.7,2.5,5.2,4.2,7.5c-0.7,0.2-1.8-0.7-3-1.9c-0.7-0.7-1.3-1.4-1.8-2.1c-1.2-3.1-2.2-5.3-2.7-5.6s0.2,2.3,0.9,5.4
		c0.6,1.4,2.4,2.5,2.4,2.7c0,0.6-1.6-0.4-2-0.7c-0.8-0.6-1.4-1.4-2-2.2c-0.7-1.2-1.6-7.4-2.3-11.6C43,120.8,42.7,118.9,40.5,115.5
		L40.5,115.5z M53.8,133.2c0.1,0,0.3,0.2,0.6,0.8c0.7,1.4,1.3,2.8,2.1,4.2c0.5,0.9,1,1.8,1.5,2.7s0.8,1.5,1.4,2.3
		c0.4,0.6,0.7,1,1.4,0.9s0.9-0.9,0.6-1.9c-0.1,1.1-0.5,1.3-1,0.8c-0.9-0.7-2.9-4.6-3.7-5.9c-0.8-1.6-1.8-3.2-2.8-4.6
		C53.6,132.3,53.4,132.3,53.8,133.2L53.8,133.2z M50.1,140c-0.6-0.6-1.1-1.1-1.7-1.7c-0.6-1.4-0.9-2.8-1-4.3
		c0.7,1.4,1.4,3.3,2.1,4.8c0.3,0.6,0.5,0.6,0.8,1.1L50.1,140z"/>
	<path class="st23" d="M62,136.1l-0.7-1.6c-0.1-0.3-0.5-0.5-0.8-0.4l0,0c-0.3,0.2-0.4,0.6-0.2,0.9l0.7,1.6c0.1,0.3,0.5,0.5,0.8,0.4
		l0,0C62.1,136.8,62.2,136.4,62,136.1z"/>
	<path class="st24" d="M61.9,136.6l-1.1-2.3c-0.1-0.1-0.2-0.2-0.4-0.2l0,0c-0.1,0.1-0.2,0.3-0.1,0.4l1.1,2.3
		c0.1,0.2,0.2,0.2,0.4,0.2l0,0C61.9,137,61.9,136.8,61.9,136.6z"/>
	<path class="st25" d="M61.4,136.5l-0.9-2c0-0.1-0.1-0.1-0.1-0.1c0,0,0,0,0,0l0,0c0,0,0,0.1,0,0.2l0.9,2c0,0.1,0.1,0.1,0.1,0.1l0,0
		C61.5,136.6,61.5,136.5,61.4,136.5C61.4,136.5,61.4,136.5,61.4,136.5z"/>
	<path class="st1" d="M61,136.6c0.2,0.3,0.6,0.5,0.8,0.4l0,0c0.3-0.2,0.4-0.6,0.2-0.9c-0.1,0.2-0.2,0.3-0.3,0.4l-0.2,0.1
		C61.3,136.7,61.2,136.7,61,136.6z"/>
	<path class="st26" d="M61,135.7l-0.5-1.2l0,0l0,0l0,0L61,135.7L61,135.7L61,135.7L61,135.7z"/>
	<path class="st23" d="M60.5,144.2l-0.6-1.5c-0.2-0.3-0.1-0.7,0.2-0.9l0,0c0.3-0.1,0.7,0.1,0.8,0.4c0,0,0,0,0,0l0.7,1.5
		c0.2,0.3,0.1,0.7-0.2,0.9l0,0C60.9,144.7,60.6,144.6,60.5,144.2C60.5,144.3,60.5,144.3,60.5,144.2z"/>
	<path class="st24" d="M61,144.5l-1-2.2c-0.1-0.1,0-0.3,0.1-0.4l0,0c0.1,0,0.3,0,0.3,0.2c0,0,0,0,0,0l1,2.2c0.1,0.1,0,0.3-0.1,0.4
		l0,0C61.1,144.7,61,144.6,61,144.5C61,144.5,61,144.5,61,144.5z"/>
	<path class="st25" d="M61.1,144l-0.8-1.9c0,0,0-0.1,0-0.1l0,0c0.1,0,0.1,0,0.1,0.1c0,0,0,0,0,0l0.8,1.9c0,0,0,0.1,0,0.1l0,0
		C61.1,144.1,61.1,144.1,61.1,144C61.1,144,61.1,144,61.1,144z"/>
	<path class="st1" d="M61.5,143.8c0.1,0.3,0,0.7-0.2,0.9l0,0c-0.2,0.1-0.6,0-0.8-0.4c0.1,0.1,0.3,0.1,0.5,0l0.2-0.1
		C61.3,144.1,61.4,143.9,61.5,143.8z"/>
	<path class="st26" d="M60.8,143.3l-0.5-1.1l0,0l0,0l0,0L60.8,143.3L60.8,143.3L60.8,143.3C60.8,143.3,60.8,143.3,60.8,143.3z"/>
	<path class="st23" d="M58.8,146.2l-0.8-1.4c-0.2-0.3-0.1-0.8,0.2-1c0,0,0,0,0,0l0,0c0.3-0.2,0.7-0.1,0.9,0.2c0,0,0,0,0,0l0.8,1.4
		c0.2,0.3,0.1,0.8-0.2,1l0,0C59.5,146.6,59.1,146.6,58.8,146.2C58.9,146.3,58.9,146.2,58.8,146.2z"/>
	<path class="st24" d="M59.4,146.3l-1.2-2.1c-0.1-0.1,0-0.3,0.1-0.4l0,0c0.1-0.1,0.3,0,0.4,0.1c0,0,0,0,0,0l1.2,2.1
		c0.1,0.1,0,0.3-0.1,0.4l0,0C59.7,146.5,59.5,146.5,59.4,146.3C59.4,146.3,59.4,146.3,59.4,146.3z"/>
	<path class="st25" d="M59.5,145.8l-1.1-1.8c0,0,0-0.1,0-0.2l0,0c0,0,0.1,0,0.2,0c0,0,0,0,0,0l1.1,1.8c0,0,0,0.1,0,0.2c0,0,0,0,0,0
		l0,0C59.6,145.9,59.6,145.9,59.5,145.8C59.5,145.8,59.5,145.8,59.5,145.8z"/>
	<path class="st1" d="M60,145.5c0.2,0.3,0.1,0.7-0.2,0.9l0,0c-0.3,0.2-0.7,0.1-0.9-0.2c0.2,0,0.4,0,0.5-0.1l0.2-0.1
		C59.8,145.9,59.9,145.7,60,145.5z"/>
	<path class="st26" d="M59.2,145.1l-0.6-1.1l0,0l0,0l0,0L59.2,145.1L59.2,145.1L59.2,145.1L59.2,145.1z"/>
	<path class="st23" d="M54.3,143.4l-0.8-0.8c-0.2-0.2-0.1-0.5,0.1-0.6c0,0,0,0,0,0l0,0c0.2-0.2,0.5-0.2,0.7,0l0.8,0.8
		c0.2,0.2,0.1,0.5-0.1,0.6c0,0,0,0,0,0l0,0C54.8,143.6,54.5,143.6,54.3,143.4z"/>
	<path class="st24" d="M54.8,143.4l-1.1-1.2c-0.1-0.1-0.1-0.2,0-0.3c0,0,0,0,0,0l0,0c0.1-0.1,0.2-0.1,0.3,0l1.1,1.2
		c0.1,0.1,0.1,0.2,0,0.3c0,0,0,0,0,0l0,0C55,143.4,54.9,143.4,54.8,143.4z"/>
	<path class="st25" d="M54.8,143l-1-1c0,0,0-0.1,0-0.1c0,0,0,0,0,0l0,0c0,0,0.1,0,0.1,0l1,1c0,0,0,0.1,0,0.1c0,0,0,0,0,0l0,0
		C54.9,143.1,54.8,143.1,54.8,143z"/>
	<path class="st1" d="M55.1,142.7c0.1,0.2,0.1,0.5-0.1,0.7l0,0c-0.2,0.2-0.5,0.2-0.7,0c0.1,0,0.3-0.1,0.4-0.2l0.2-0.1
		C55,143,55.1,142.9,55.1,142.7z"/>
	<path class="st26" d="M54.5,142.6L54,142l0,0l0,0L54.5,142.6L54.5,142.6L54.5,142.6z"/>
	<path class="st23" d="M51.5,142.2l-1.1-0.3c-0.3-0.1-0.4-0.3-0.4-0.5l0,0c0-0.2,0.3-0.3,0.5-0.2l1.1,0.3c0.3,0.1,0.4,0.3,0.4,0.5
		l0,0C52,142.2,51.8,142.2,51.5,142.2z"/>
	<path class="st24" d="M51.9,142l-1.6-0.5c-0.1,0-0.2-0.1-0.2-0.2l0,0c0-0.1,0.1-0.1,0.2-0.1l1.6,0.5c0.1,0,0.2,0.1,0.2,0.2l0,0
		C52.1,142,52,142.1,51.9,142z"/>
	<path class="st25" d="M51.7,141.8l-1.4-0.4c0,0-0.1,0-0.1-0.1l0,0c0,0,0,0,0.1,0L51.7,141.8C51.7,141.7,51.8,141.7,51.7,141.8
		L51.7,141.8C51.8,141.8,51.7,141.8,51.7,141.8z"/>
	<path class="st1" d="M51.7,141.6c0.2,0.1,0.4,0.3,0.3,0.4l0,0c0,0.1-0.3,0.2-0.5,0.2c0.1,0,0.2-0.1,0.2-0.2v-0.1
		C51.8,141.7,51.8,141.6,51.7,141.6z"/>
	<path class="st26" d="M51.2,141.6l-0.8-0.3l0,0l0,0L51.2,141.6L51.2,141.6L51.2,141.6z"/>
	<path class="st27" d="M20.5,81.2c5.7,14.7,12.6,28.9,20.6,42.5c3.2-2.4,6.9-4.8,11.4-4.7c-7.3-13.6-13.1-29-19.2-43
		C27.6,70.5,20.8,73.5,20.5,81.2z"/>
	<path class="st29" d="M49.9,119.3c0.8-0.2,1.7-0.2,2.6-0.2c-6.7-12.6-12.3-26.7-17.9-39.8c-0.6,0.6-8.4,1.5-9,2.1
		c5-0.2,7.7,0.8,8,1.4C38.5,94.3,44.5,108.3,49.9,119.3z"/>
	<path class="st28" d="M78.2,46c-9.9-0.4-19.8-0.2-29.7,0.8C36.8,48.3,32.2,54.5,32.3,61c1.6-2.7,3.5-5.2,5.7-7.4
		c2.5-2.8,6.8-5.3,13.5-5.8L78.2,46L78.2,46z M38.6,70.6c2.5,1.9,6,7.6,7.4,10c2.7,4.7,5.2,14.1,17.4,14.3c1.4,0,2.8-0.2,4.1-0.5
		c-0.9,0.1-1.9,0.2-2.8,0.2c-12.3-0.2-13-8.9-15.8-13.6C48.2,79.3,42.5,70.9,38.6,70.6z"/>
	<path class="st28" d="M20.7,81l2.3,1.3l-0.3-0.8c0-1.4,0.4-2.8,1-4.1c0.3-0.9,0.7-1.8,1.1-2.5c3.5-7.3,8.6-17.1,13.2-21.3
		c0.3-0.4,0.6-0.7,1-1l-0.7-2c-5.2,1.1-11.4,15-15.7,24C21.5,76.6,20.9,78.8,20.7,81z"/>
	<path class="st28" d="M20.5,81.2c5.7,14.7,12.6,28.9,20.6,42.5c0.7-0.5,1.3-1,2-1.4c-7.4-12.7-15.5-27.7-20.4-40.8
		c0-1.4,0.4-2.8,1-4.1c0.3-0.9,0.7-1.8,1.1-2.5l0.7-1.4C22.8,74.2,20.7,77,20.5,81.2z"/>
	<path class="st29" d="M78.2,46l27.4,2.3c7.4,0.9,12,3.7,14.3,7.3c1.7,2.3,2.6,6.1,3.4,10.3c0.5-1.4,0.8-2.8,0.9-4.2
		c0.4-6.7-4.1-13.3-16.2-14.8C98.1,45.8,88.1,45.6,78.2,46L78.2,46z M94.5,93.8c9.4-0.5,12.4-9,14.9-13.4l5.7-11.5
		c-4.4,4.4-7.5,13.1-11.3,18C101.4,90.1,98.2,92.5,94.5,93.8z"/>
	<path class="st18" d="M75.1,93.5c-1.3-1.6-2.6-3.1-4-4.6l11.8,0.4c-1.1,1.3-2.1,2.6-3.1,4c-0.8,1-1.7,2-2.5,2.1
		S75.8,94.3,75.1,93.5z"/>
	<path class="st19" d="M78.1,95.1c0.8-0.8,0.8-2.5,0.4-4.7l0.6,0.4c0.1,1.4,0.9,2.1,0.2,3C78.9,94.3,78.5,94.7,78.1,95.1z"/>
	<path class="st18" d="M58.6,78.5c-6.7-12.2-3.9-23.6,0.1-33.5c6.6-16.1,27.1-17.8,35.5-4.9c5.8,8.9,10.1,23.3,3.3,36.6
		c-2.8,5.4-5.2,10-9.2,12.4c-2.9,1.8-7.8,1.9-10.9,2s-7.2,0-11-2.5C63.5,86.5,61.1,82.9,58.6,78.5z"/>
	<path class="st16" d="M58.6,78.5c-6.7-12.2-4.2-24.2-0.2-34.1c3.2-7.9,11.9-11.6,19.4-12.4c-6.1,1.6-13.1,5.1-15.8,11.8
		c-4,9.9-6.5,21.9,0.2,34.1c2.4,4.4,4.8,8,7.8,10c1.9,1.2,4,2,6.2,2.3l-2.5,0.8c-2.6-0.2-5.1-1-7.3-2.4
		C63.5,86.5,61.1,82.9,58.6,78.5z"/>
	<path class="st19" d="M83.1,31.7c5,1.1,9.5,4,12.4,8.3c5.8,8.9,8.9,23.3,2.2,36.6c-2.8,5.4-5.2,10-9.2,12.4
		c-2.2,1.3-5.3,1.7-8.1,1.9l-1.9-1.1c2.4-0.1,4.8-0.7,7-1.8c4-2.4,6.4-7,9.2-12.4c6.7-13.3,3.7-27.7-2.2-36.6
		C90.2,35.7,86.9,33.1,83.1,31.7z"/>
	<path class="st16" d="M88.8,88.8L88.5,89c-2.5,1.5-6.4,1.8-9.5,1.9c-0.5-0.2-1-0.3-1.6-0.4c-0.6,0.1-1.1,0.2-1.7,0.4
		c-2.6,0-5.2-0.5-7.6-1.6c4.8,1.3,7.3,0.3,9.2,0.3C80.1,89.6,81.4,91,88.8,88.8z"/>
	<path class="st16" d="M73.8,91.9c-0.5-0.6-1-1.2-1.6-1.8h3.6H76h3.7h0.1h2.4c-0.4,0.5-0.8,1.1-1.3,1.7h-0.1l0,0l0,0h-0.1h-0.1l0,0
		h-0.1l0,0l0,0l-0.1-0.1l0,0h-0.1l0,0l0,0l0,0l0,0h-0.1l0,0h-0.1l0,0l0,0l0,0h-0.1l0,0h-0.1h-0.1l0,0h-0.1l0,0l0,0l0,0l0,0h-0.1l0,0
		h-0.1l0,0l0,0l0,0l0,0H80l0,0H80h-0.1l0,0l0,0h-0.1l0,0l0,0H79h-0.1l0,0h-0.1h-0.1h-0.1l0,0h-0.1h-0.1h-0.1h-0.2h-0.1h-1.9h-0.1h0
		h-0.1l0,0h-0.1l0,0h-0.1H76h-0.1l0,0h-0.1l0,0h-0.1l0,0l0,0h-0.1l0,0l0,0h-0.1h-0.1l0,0h-0.1l0,0l0,0h-0.1h-0.1l0,0h-0.1l0,0h-0.1
		l0,0h-0.1l0,0l0,0l0,0l0,0h-0.1l0,0h-0.1l0,0H75l0,0H75l0,0l0,0l0,0l0,0h-0.1l0,0h-0.1l0,0h-0.1l0,0h-0.1l0,0l0,0h-0.1l0,0h-0.1
		l0,0h-0.1l0,0L73.8,91.9z"/>
	<path class="st18" d="M100.9,66.7c1.7-1.5,1.7-3.2,2.3-4.8c0.5-1.4,1.6-3.2,1.7-5c0.2-3.1-3.2-4.9-4.1-1
		C99.5,61.1,99,62.1,100.9,66.7z"/>
	<path class="st18" d="M54.5,66.7c-1.7-1.5-1.7-3.2-2.3-4.8c-0.5-1.4-1.6-3.2-1.7-5c-0.2-3.1,3.2-4.9,4.1-1
		C55.8,61.1,56.3,62.1,54.5,66.7z"/>
	<path class="st30" d="M97.8,76.3c5.4-11.5,4.2-22.9,0.3-32.2C91.6,28,68.3,27.1,59.9,40c-6.1,9.6-7.6,21.4-4,32.2
		c2.1,3.5,5.1,6.4,8.7,8.4c-1.6-0.3-3.2-1-4.4-2.1c2.4,2.9,4.6,3.9,8.5,2.8c4.9,8.3,14.4,7.2,21.2,2.3c-4.1,1.8-7,2.6-9.9,2.6
		C88.3,84.3,92.6,81.5,97.8,76.3z"/>
	<path class="st30" d="M71,89.5c-3.2-1-6.2-2.6-8.8-4.7c1.9,2.8,4.8,4.9,8.1,5.8C72.1,90.9,72.8,90,71,89.5z"/>
	<path class="st30" d="M84,89.5c3.2-1,6.2-2.6,8.8-4.7c-1.9,2.8-4.8,4.9-8.1,5.8C83,90.9,82.2,90,84,89.5z"/>
	<path class="st16" d="M76.7,95.1c-0.8-0.8-0.8-2.5-0.4-4.7l-0.6,0.4c-0.1,1.4-0.9,2.1-0.2,3C75.9,94.3,76.3,94.8,76.7,95.1z"/>
	<path class="st30" d="M82.4,32.1c2.7-3.4,5.5-7.1,3.9-12.1C82.8,8.9,71.1,9.3,67.4,19.5c-1.4,3.9,0.6,11,5.7,12.7L82.4,32.1z"/>
	<path class="st31" d="M68.5,79.4c2,4.7,6.1,8.7,14.4,7.1c-2.5,0.1-5.1-0.3-7.5-1.1c4.6,0.2,9.2-1,13.2-3.3
		c15.8-8.8,12.6-34.9,4-45.5c6,13,7.8,26.4-3.5,38l2.8-7.1C87.5,75.7,75.3,83,68.5,79.4z"/>
	<path class="st31" d="M69.7,79.3c-0.3-1-0.9-1.7-1-3c0.4-1.4,0.6-2.9,0.7-4.4c0-2.3-0.8-3.1-0.7-4.4c0.2-2.3,1.1-3.5,1.2-4.8
		c0.1-1.9-0.7-1.9-0.8-3.2c-0.6-7.5,2.7-20.8,5.9-25.6c-1.4,4.8-3.5,9.7-3.6,15.5c1.2-4.8,4.7-14,5.1-17.8c10,1.8,15,2.1,17.3,11.3
		c2.2,8.7,0.6,14.7-4.9,23.6c3.9-4.1,5.2-8,6.3-13C94.5,68.5,84.1,78.9,69.7,79.3z"/>
	<path class="st32" d="M70.3,81.9c11.9,7.8,26.6-1.6,30.3-16.2C93.2,80.6,84.1,85.5,70.3,81.9z"/>
	<path class="st32" d="M68.9,80.5c3.1,7.9,11.4,7.3,15.1,6.1C80.1,87.4,72.4,87.3,68.9,80.5z"/>
	<path class="st32" d="M71.7,81.9c14.1,2.1,24.3-5,26.5-22.8C95.1,74,86,79.6,71.9,80.8c-0.6,0-1.1,0-1.7,0.1
		C69.7,81.1,69.8,81.6,71.7,81.9z"/>
	<path class="st32" d="M94.5,74.5c8.6-15,7.1-21.1,0.6-35.7C100.2,53.3,100.7,60,94.5,74.5z"/>
	<path class="st32" d="M69.9,79c10.1,1.5,20.4-6.4,24.6-20.3C91.6,63.6,84.4,75.6,69.9,79z"/>
	<path class="st33" d="M75,78.6c6.8-1.4,13.6-7.2,16.8-13.4C87.6,71.1,81.7,75.8,75,78.6z"/>
	<path class="st34" d="M90.7,72.2c6-6.2,8.4-17,3.8-30.4C97.4,52,96,63,90.7,72.2z"/>
	<path class="st35" d="M71.1,82.3c7.3,3.6,17.5,1.5,22.1-4.4C88,82.6,80.4,85.2,71.1,82.3z"/>
	<path class="st32" d="M69.5,77.2c5,0.3,26-18.8,18.6-41.5C91.8,59.3,74.2,72.2,69.5,77.2z"/>
	<path class="st32" d="M79.2,73c10.3-4.8,22.9-25.9,7.4-40.3C98.3,48.6,87.5,64.5,79.2,73z"/>
	<path class="st33" d="M69.7,78c6.7-2,15.2-11.4,16.8-19.4C84,64.6,78.3,73.4,69.7,78z"/>
	<path class="st34" d="M71.5,77.9c9.8-2.5,18.9-10.7,22.6-21.5C91.8,61.5,85.6,72.9,71.5,77.9z"/>
	<path class="st34" d="M74.2,82.5c9,1.4,18.3-1.2,22.4-14C90.7,83,78.6,82.2,74.2,82.5z"/>
	<path class="st35" d="M70.1,81.2c11.3,1.5,20.5-1.6,24.3-9.8C90.1,78.4,83.2,81.5,70.1,81.2z"/>
	<path class="st34" d="M85.3,65c6-6.2,8.4-17,3.8-30.4C92,44.8,90.6,55.8,85.3,65z"/>
	<path class="st32" d="M69.4,76.4c5-7.6,23.6-26.1,16.4-43C89,51.3,70.6,64.5,69.4,76.4z"/>
	<path class="st33" d="M72.1,71c4.6-7.6,18.8-22.1,13.7-37.5C89.8,52,74.6,60.6,72.1,71z"/>
	<path class="st34" d="M71.8,74c5.9-4.8,16.4-18.2,15.5-30.8C87,53.5,81.6,61.3,71.8,74z"/>
	<path class="st32" d="M70.5,68.5c10.3-17,22.2-31.1,7.9-36.1c6.8,6.3,0.8,15.6-3.7,24.7c2.4-10,9.5-18.8,2.3-24.7
		c1.2,3.5-3.4,13.9-4.6,19C71.2,57.2,70.1,60,70.5,68.5z"/>
	<path class="st33" d="M71,67.1c4.2-7.9,21-28.3,7.8-34.5C89.8,40.1,74.3,57.3,71,67.1z"/>
	<path class="st33" d="M73.4,60.4c2.2-13.5,7.3-19.9,4-27.3C83.1,39,76.1,48.3,73.4,60.4z"/>
	<path class="st34" d="M75.8,53c6-8,7.8-15.9,2.4-20.1C80.8,36.3,82.6,41.8,75.8,53z"/>
	<path class="st32" d="M70.8,62.1c-0.4-9-0.3-11.4,1-20.4c-0.9,8.8-1,9.3,0.3,18.2L70.8,62.1z"/>
	<path class="st34" d="M66.4,35.3c-8.3,5.3-10.6,13.2-10,27.6l-1-6.2c-2.3,8.9,6.3,16.8,14.2,21.5c-3.6-8.4-0.6-13.4-1.3-19.5
		L67,63.9c0-8.5,4.1-24,8.6-31.7c-9.1,1.9-11.9,9.4-12.7,16C62.6,44.4,63.3,41.6,66.4,35.3z"/>
	<path class="st34" d="M55.1,60.3c0.4,9.6,12,16.8,15,18.8c-4.9,4.1-10.9-0.4-12.9-4.6c1.4,1.6,3,2.8,4.9,3.6
		C56.7,74.2,53.7,69.1,55.1,60.3z"/>
	<path class="st36" d="M70.5,34.2c-7.2,7.9-7.8,18.6-5.4,30.2C65.9,53.2,65.9,43.1,70.5,34.2z"/>
	<path class="st36" d="M59.1,43.7c-5.8,17.7,5.6,31.1,10.5,34.5C65.7,73.8,57,60.1,59.1,43.7z"/>
	<path class="st36" d="M58.8,76.8c4.1,4.5,7.4,5.8,10.5,2.7C66.3,81.2,61.6,78.7,58.8,76.8z"/>
	<path class="st37" d="M57.2,54.5c0.1,8.6,2.9,17.3,10,21.1C60.1,69.5,58.5,62.5,57.2,54.5z"/>
	<path class="st36" d="M63.7,38.2c-8,16.8,0.1,30.6,4.6,37.8C66.9,69.2,59.5,54.2,63.7,38.2z"/>
	<path class="st37" d="M60.8,47.1c-1.1,9.6,1.3,19.2,6.8,27.2C63.2,66,60.8,56.6,60.8,47.1z"/>
	<path class="st30" d="M69,77.3c-7.6-7.1-9.2-15.7-8.2-24.1C61.5,62.1,62.8,68.8,69,77.3z"/>
	<path class="st30" d="M70.2,79.5c-5.7,0.3-12.3-5.3-14.6-13.4C62.2,76.5,64.3,75.5,70.2,79.5z"/>
	<path class="st36" d="M69,79.9c-5,0.3-10.8-4.6-12.7-11.7C62,77.3,63.8,76.5,69,79.9z"/>
	<path class="st36" d="M75.7,31.4c-8,7.1-9.7,17.7-8.5,29.4C69.1,49.7,70.2,39.7,75.7,31.4z"/>
	<path class="st37" d="M74.6,32.5C63.3,42,64,63,67.4,72C64.9,61.5,65.7,42.3,74.6,32.5z"/>
	<path class="st31" d="M76.9,32.1l4.8-0.2c8.3-8.6,1.7-24.9-11.3-16.8C80.8,14.9,79.7,25.8,76.9,32.1z"/>
	<path class="st32" d="M80.8,31.8c5.6-3.4,6.7-20.4-8.2-18.1C86.8,14.7,83.1,27.1,80.8,31.8z"/>
	<path class="st32" d="M78.2,32c5.1-1.3,5-20.2-7.4-17.2C81.3,14.7,80.5,27.3,78.2,32z"/>
	<path class="st33" d="M79.7,32c4-4.8,4.4-18.1-6.8-17.8C83.5,14.1,82.1,27.3,79.7,32z"/>
	<path class="st34" d="M76.8,31.9c-1.5-4.6-4.8-11.5-3.3-16.3c-4.3-0.2-5.9,4-5.8,7.2C67.9,27.6,72,32.7,76.8,31.9z"/>
	<path class="st36" d="M76.4,31.7c-4.2-0.5-7.1-2.2-9.1-9.4l1.9,2.8c-1.1-4-1.2-8.1,4-10.3C69.4,19,70.5,28,76.4,31.7z"/>
	<path class="st32" d="M77.4,31.3c0.5-8.5,1.6-8.4-3.3-15.5C74.9,21,76,26.2,77.4,31.3z"/>
</g>
</svg>
