<svg id="Capa_1" data-name="Capa 1" xmlns="http://www.w3.org/2000/svg" xmlns:xlink="http://www.w3.org/1999/xlink" viewBox="0 0 160 178"><defs><style>.cls-1{fill:none;}.cls-2{clip-path:url(#clip-path);}.cls-3{fill:#21211d;}.cls-10,.cls-11,.cls-12,.cls-13,.cls-14,.cls-15,.cls-16,.cls-17,.cls-18,.cls-19,.cls-20,.cls-21,.cls-22,.cls-23,.cls-24,.cls-25,.cls-26,.cls-27,.cls-28,.cls-29,.cls-3,.cls-30,.cls-31,.cls-4,.cls-5,.cls-8,.cls-9{fill-rule:evenodd;}.cls-5{fill:#363632;}.cls-6{fill:#5c5c69;}.cls-7{fill:#7c7c8a;}.cls-8{fill:#a2a2ab;}.cls-9{fill:#e8a477;}.cls-10{fill:#d69265;}.cls-11{fill:#f1b287;}.cls-12{fill:#f4bc97;}.cls-13{fill:#997356;}.cls-14{fill:#87654a;}.cls-15{fill:#a67d5d;}.cls-16{fill:#eda580;}.cls-17{fill:#f2b292;}.cls-18{fill:#f7bfa3;}.cls-19{fill:#fff;}.cls-20{fill:#fce3d6;}.cls-21{fill:#f7c4a3;}.cls-22{fill:#deb397;}.cls-23{fill:#ffd3b5;}.cls-24{fill:#9e8047;}.cls-25{fill:#a8874a;}.cls-26{fill:#b89657;}.cls-27{fill:#c7a463;}.cls-28{fill:#8c6e36;}.cls-29{fill:#d1ae6d;}.cls-30{fill:#82652f;}.cls-31{fill:#735929;}</style><clipPath id="clip-path"><rect class="cls-1" x="5.59" y="1.72" width="148.91" height="104.69"/></clipPath></defs><title>Mesa de trabajo 1</title><g class="cls-2"><path class="cls-3" d="M44.74,67.48c2.14-3.31,19.47-5.64,36.72-5.07,15.69.52,31.32,3.45,35.38,10.21,6.94,11.58,12.26,59.29-9.21,60.39-22.29,1.16-37.71.7-60-1.05C28.79,128.07,36.57,80.14,44.74,67.48Z"/><path class="cls-4" d="M50.25,67.48c2.13-3.13,15.49-5.64,30.33-5.07,13.5.52,27.9,3.45,31.38,10.21,6,11.58,12.76,59.92-5.71,61-19.17,1.15-39.7-1.51-58.85-3.26C31.17,126.5,41.64,80.14,50.25,67.48Z"/><path class="cls-5" d="M45.67,66.61c4.31-2.84,20.08-4.72,35.79-4.2s31.32,3.45,35.38,10.21c6.59,11,11.73,54.61-6.19,59.88,14.49-8.87,9.57-48.24,3.35-58.62-4.05-6.76-19.68-9.69-35.38-10.21C65.39,63.23,52.11,64.5,45.67,66.61Z"/><path class="cls-4" d="M26.31,41.87c1-3.88,2.68-8.8,2.39-16.49-.49-12.67,5.63-15,21.06-14.05,12.55.8,21.08,0,30.73,0,8.88,0,20.92.79,29.85.49,10.65-.37,20.29,2.33,20,12.32-.11,4.36-1.67,12.41.09,17.35,8.21,23.15-37.33,35.09-56,33.31C57.82,74.81,20.68,64.41,26.31,41.87Z"/><path class="cls-3" d="M110,11.81h.3c10.65-.37,20.29,2.33,20,12.32-.11,4.36-1.67,12.41.09,17.35,7.93,22.37-34.32,34.27-54,33.44,20.88-.76,57.35-12.52,49.93-33.44-1.75-4.94-.2-13-.08-17.35C126.5,15.34,119.08,12.19,110,11.81Z"/><rect class="cls-6" x="17.69" y="59.73" width="15.74" height="74.55" rx="6.25" ry="6.25"/><rect class="cls-7" x="20.17" y="59.73" width="10.77" height="74.55" rx="4.28" ry="4.28"/><path class="cls-8" d="M26.67,133.84H24.45a4.27,4.27,0,0,1-3.15-1.39,4.23,4.23,0,0,0,1.89.44h2.22a4.29,4.29,0,0,0,4.28-4.28v-66a3.36,3.36,0,0,0-2.5-2.89c2.08.36,3.77,2.16,3.77,3.84v66A4.29,4.29,0,0,1,26.67,133.84Z"/><rect class="cls-6" x="123.74" y="59.73" width="15.74" height="74.55" rx="6.25" ry="6.25"/><rect class="cls-7" x="126.23" y="59.73" width="10.78" height="74.55" rx="4.28" ry="4.28"/><path class="cls-8" d="M132.73,133.84h-2.22a4.27,4.27,0,0,1-3.15-1.39,4.23,4.23,0,0,0,1.89.44h2.22a4.29,4.29,0,0,0,4.28-4.28v-66a3.36,3.36,0,0,0-2.5-2.89c2.08.36,3.77,2.16,3.77,3.84v66A4.29,4.29,0,0,1,132.73,133.84Z"/><path class="cls-3" d="M28.86,29.9c-3-15.84,3.27-22.45,18.7-21.23,12.56,1,23.29,1.66,32.94,1.69,8.88,0,21.71-1.3,30.64-1.69,15.46-.66,21.54,3,19.17,20.06-1.51,10.86-26.54-4.81-53.24-4C52.41,25.47,29.77,34.66,28.86,29.9Z"/><path class="cls-5" d="M80.49,10.36c8.88,0,21.71-1.31,30.64-1.69,15.46-.66,21.54,3,19.17,20.06-.36,2.57-2,3.66-4.74,3.82v0c1.22-8.78.23-14-3.16-16.93C116.44,10.49,95.37,14,80.49,10.36Z"/><path class="cls-4" d="M78.4,10.36c-8.88,0-21.71-1.31-30.64-1.69C32.3,8,26.22,11.66,28.59,28.74c.36,2.57,2,3.66,4.74,3.82v0c-1.22-8.78-.22-14,3.17-16.93C42.46,10.49,63.53,14,78.4,10.36Z"/><path class="cls-9" d="M64.32,161.28c-.47-8.34-4.79-12.1-7.4-18.85-3-7.68-2.66-20.23-5.55-30.36l14,17.61L68.47,140l.26,13Z"/><path class="cls-10" d="M63.06,155c-2-5.81.33-13.86.72-18-4.16-7.39-9.51-14.71-12.41-24.85l.91,1.14a177,177,0,0,0,13.56,23.55,102,102,0,0,0-2.41,12.88A48.8,48.8,0,0,0,63.06,155Z"/><path class="cls-11" d="M97.43,150.58c-2.5,8.93-11.07,12.08-22.6-1.85A173.36,173.36,0,0,1,47.44,102c-3.12-8.08-3.43-18.3,3.1-22.9,3.37-2.37,8.36-1.73,16.12-1.73,9.42,0,9.35,4.92,12.86,13.36C84.27,102.16,91,119,94.43,128.62,97.24,136.59,99.09,144.67,97.43,150.58Z"/><path class="cls-12" d="M97.43,150.58c-.87,3.12-2.49,5.53-4.71,6.76a15.41,15.41,0,0,0,.83-2.29c1.65-5.91-.2-14-3-22-3.39-9.63-10.16-26.46-14.91-37.91-3.5-8.43-3.43-13.36-12.86-13.36-7.59,0-12.53-.61-15.89,1.58a11.31,11.31,0,0,1,3.65-4.32c3.37-2.37,8.36-1.73,16.12-1.73,9.42,0,9.35,4.92,12.86,13.36C84.27,102.16,91,119,94.43,128.62,97.24,136.59,99.09,144.67,97.43,150.58Z"/><path class="cls-9" d="M94.41,156.07c-4,3.93-11,3-19.57-7.35A173.36,173.36,0,0,1,47.44,102c-3.12-8.08-3.43-18.3,3.1-22.9a8.84,8.84,0,0,1,3.26-1.37c-5.58,4.88-5.16,14.49-2.19,22.18A173.3,173.3,0,0,0,79,146.64C85.13,154,90.42,156.62,94.41,156.07Z"/><path class="cls-11" d="M104.47,80.47c8.42,8.59,7,15.57,4.16,26.23-2.46,9.39-6.38,18-9.21,25-3.18,7.81-7.58,15.94-11.27,24.19-8.36,13.73-14.52,15.49-21.14,11-3.85-2.6-4.5-9.64-3.6-17.23,1.45-12.16,4.77-20.07,6.71-29.78,2.05-10.32,2.14-24.34,2.49-35Z"/><path class="cls-12" d="M104.47,80.47c8.42,8.59,7,15.57,4.16,26.23-2.46,9.39-6.38,18-9.21,25-3.18,7.81-7.58,15.94-11.27,24.19-5.92,9.72-10.74,13.44-15.4,13.2C83,159.5,92,137.48,95,130.16a204.23,204.23,0,0,0,8.32-25c2.39-9.15,1-14.93-5-23.89Z"/><path class="cls-9" d="M70,168.45a14.31,14.31,0,0,1-3-1.58c-3.85-2.6-4.5-9.64-3.6-17.23,1.45-12.16,4.77-20.07,6.71-29.78,2.05-10.32,2.14-24.34,2.49-35L78.85,84c-.33,10.56-.45,24.24-2.47,34.36-1.93,9.71-5.26,17.62-6.71,29.78C68.83,155.32,67,165.19,70,168.45Z"/><path class="cls-13" d="M104.47,80.47c8.42,8.59,7,15.57,4.16,26.23q-.47,1.81-1,3.58C96.71,114.4,83,113.14,72,112.36c-7.48-.52-14.87-.8-21.43-3q-1.66-3.71-3.09-7.41c-3.12-8.08-3.43-18.3,3.1-22.9,3.37-2.37,8.36-1.73,16.12-1.73,6.67,0,8.58,2.47,10.38,6.9Z"/><path class="cls-14" d="M50.52,109.4q-1.66-3.71-3.09-7.41c-3.12-8.08-3.43-18.3,3.1-22.9a8.84,8.84,0,0,1,3.26-1.37c-5.58,4.88-5.16,14.49-2.19,22.18,1.4,3.63,3,7.29,4.71,10.94A42.54,42.54,0,0,1,50.52,109.4Z"/><path class="cls-15" d="M104.47,80.47c8.42,8.59,7,15.57,4.16,26.23q-.47,1.81-1,3.58a39.7,39.7,0,0,1-6.27,1.77q1-3.33,1.92-6.83c2.39-9.15,1-14.93-5-23.89Z"/><path class="cls-14" d="M71.25,112.32c1-9,1.1-19.22,1.36-27.45L78.85,84c-.27,8.71-.4,19.53-1.57,28.73L72,112.36Z"/></g><path class="cls-9" d="M115.93,162.21l-.35-.28.06-1.46.58-2.4.06-1.15.15,1.34s-.11,1.64-.11,1.75S115.93,162.21,115.93,162.21Z"/><path class="cls-11" d="M115.84,126.55c-1,2.3-2.06,5.74-3.28,7.5-1.52,2.21-2.58,3.08-3.74,5.11a22.13,22.13,0,0,0-1.67,4.75l-.49,2.49c-.33,1.67-.21,1.43.13,3.16l.78,4,.58-.06-.06,2.95c-.16,3.09.75,3.82,1.31,3.81s.78-.28,1.14-1.94c.27-1.26.3-3,.54-4.24a22.29,22.29,0,0,1,1.52-5.7c.49-1.21,1.37-.64,1.3.55-.07,1-.11,2-.19,3.11s-.23,2.75-.3,3.82c-.08,1.29-.34,3.81-.26,5s.22,2.29,1.4,2.1c.65-.11,1.09-.87,1.34-2.09.4-1.94.45-3.94.71-5.9a39,39,0,0,0,.41-5.86c0-.54.21-.77.22-.23a35,35,0,0,1-.39,6.67c-.25,1.82-.63,3.45-.83,5.28-.22,1.07-.46,1.06-.25,1.28,1.68,1.88,2.38-1.82,3.12-3.23.71-1.65,2.21-4.53,2.29-6l.33-5.72a31.68,31.68,0,0,0,.61-5.6c-.05-1.95-.54-3.53-.39-5.31.24-2.92,1.39-5.36,2.5-9Z"/><path class="cls-9" d="M113.4,147.77c.3.11.53.57.49,1.2-.07,1-.11,2-.19,3.11s-.23,2.75-.3,3.82c-.08,1.29-.34,3.81-.26,5s.18,2,.94,2.1c-.77-1.59-.3-5.31,0-8.46.23-2.55,1.24-7.36-.64-6.8v0Zm3.72.81s.09.07.09.3a35,35,0,0,1-.39,6.67c-.25,1.82-.63,3.45-.83,5.28a4.94,4.94,0,0,1-.29,1l0,.15a.23.23,0,0,0,.08.16c.55.62,1,.63,1.37.32a.45.45,0,0,1-.33-.47c-.13-2.43,1.08-5.62,1.46-8-.14-1.61-.32-4.09-.55-5.23C117.55,148,117.25,148,117.12,148.57Z"/><path class="cls-9" d="M115.84,126.55c-1,2.3-2.06,5.74-3.28,7.5-1.52,2.21-2.58,3.08-3.74,5.11a22.13,22.13,0,0,0-1.67,4.75l-.49,2.49c-.33,1.67-.21,1.43.13,3.16l.78,4,.58-.06-.06,2.95a6,6,0,0,0,.46,3.21,48.9,48.9,0,0,1,0-6.22,28,28,0,0,1,.27-3.82,29.47,29.47,0,0,0,1-5.47,6.67,6.67,0,0,0-.45-2.28c0,3.89-1.22,6.08-1.46,9.49a25.48,25.48,0,0,1-.35-4.13,15,15,0,0,1,.76-4.29c1.46-4.54,3.62-4.6,6-8.3a43.47,43.47,0,0,0,3.61-8Z"/><path class="cls-9" d="M119.26,157.3l.88-3.24c0-1.85-.07-4.22,0-5.86,0-.49.41-.56.45.12a29.75,29.75,0,0,1-.18,6Z"/><path class="cls-16" d="M108.73,160l.07-1.85a.76.76,0,0,1,.66-.79h0a.69.69,0,0,1,.6.79L110,160a.77.77,0,0,1-.66.79h0A.69.69,0,0,1,108.73,160Z"/><path class="cls-17" d="M109.13,160.48l.11-2.73a.34.34,0,0,1,.29-.35h0a.31.31,0,0,1,.27.35l-.1,2.73a.34.34,0,0,1-.29.35h0A.31.31,0,0,1,109.13,160.48Z"/><path class="cls-18" d="M109.46,160.09l.09-2.38a.13.13,0,0,1,.11-.14h0a.12.12,0,0,1,.1.14l-.09,2.38a.13.13,0,0,1-.11.14h0A.12.12,0,0,1,109.46,160.09Z"/><path class="cls-19" d="M110,160.06c-.07.43-.34.77-.65.77h0c-.31,0-.55-.33-.59-.76a.72.72,0,0,0,.49.2h.25A.78.78,0,0,0,110,160.06Z"/><path class="cls-20" d="M109.6,159.2l.05-1.4a0,0,0,0,1,0,0h0a0,0,0,0,1,0,0l-.05,1.4s0,0,0,0h0A0,0,0,0,1,109.6,159.2Z"/><path class="cls-16" d="M113.65,162.66l.08-1.85a.81.81,0,0,1,.76-.79h0a.72.72,0,0,1,.69.79l-.08,1.85a.81.81,0,0,1-.76.79h0A.72.72,0,0,1,113.65,162.66Z"/><path class="cls-17" d="M114.11,163.1l.12-2.73a.36.36,0,0,1,.34-.35h0a.32.32,0,0,1,.31.35l-.12,2.73a.36.36,0,0,1-.34.35h0A.32.32,0,0,1,114.11,163.1Z"/><path class="cls-18" d="M114.5,162.71l.11-2.38a.14.14,0,0,1,.13-.14h0a.12.12,0,0,1,.12.14l-.11,2.38a.14.14,0,0,1-.13.14h0A.12.12,0,0,1,114.5,162.71Z"/><path class="cls-19" d="M115.09,162.68a.85.85,0,0,1-.75.77h0a.76.76,0,0,1-.68-.76.89.89,0,0,0,.56.2h.29A1,1,0,0,0,115.09,162.68Z"/><path class="cls-20" d="M114.66,161.83l.06-1.4a0,0,0,0,1,0,0h0a0,0,0,0,1,0,0l-.06,1.4a0,0,0,0,1,0,0h0A0,0,0,0,1,114.66,161.83Z"/><path class="cls-16" d="M116,162.19l.49-1.79a.77.77,0,0,1,.85-.61h0a.7.7,0,0,1,.43.91l-.49,1.79a.77.77,0,0,1-.85.61h0A.71.71,0,0,1,116,162.19Z"/><path class="cls-17" d="M116.3,162.71l.72-2.63a.34.34,0,0,1,.38-.27h0a.31.31,0,0,1,.19.41l-.72,2.63a.34.34,0,0,1-.38.27h0A.32.32,0,0,1,116.3,162.71Z"/><path class="cls-18" d="M116.73,162.41l.63-2.3a.13.13,0,0,1,.15-.11h0a.12.12,0,0,1,.08.16l-.63,2.3a.13.13,0,0,1-.15.1h0A.12.12,0,0,1,116.73,162.41Z"/><path class="cls-19" d="M117.25,162.51a.81.81,0,0,1-.83.59h0a.74.74,0,0,1-.43-.89.78.78,0,0,0,.45.31l.25.06A.84.84,0,0,0,117.25,162.51Z"/><path class="cls-20" d="M117.07,161.59l.37-1.35a0,0,0,0,1,0,0h0a0,0,0,0,1,0,0l-.37,1.35a0,0,0,0,1,0,0h0A0,0,0,0,1,117.07,161.59Z"/><path class="cls-16" d="M107.57,153.67l-.3-1.48c-.07-.35.05-.68.27-.73h0c.22-.05.45.19.52.54l.3,1.48c.07.35-.05.68-.27.73h0C107.87,154.26,107.64,154,107.57,153.67Z"/><path class="cls-17" d="M107.9,154l-.44-2.18c0-.15,0-.3.12-.33h0c.1,0,.2.08.23.24l.44,2.18c0,.16,0,.3-.12.32h0C108,154.22,107.93,154.12,107.9,154Z"/><path class="cls-18" d="M108,153.6l-.38-1.91c0-.06,0-.12,0-.13h0s.08,0,.09.09l.38,1.91c0,.06,0,.12,0,.13h0S108.06,153.66,108,153.6Z"/><path class="cls-19" d="M108.36,153.5c0,.35-.07.66-.27.71h0c-.19,0-.41-.18-.51-.52a.43.43,0,0,0,.34.08l.16,0A.46.46,0,0,0,108.36,153.5Z"/><path class="cls-20" d="M108,152.88l-.23-1.12s0,0,0,0h0s0,0,0,0l.23,1.12a0,0,0,0,1,0,0h0S108,152.9,108,152.88Z"/><path class="cls-21" d="M78.22,52.54a205.17,205.17,0,0,0-29.69.83c-12.12,1.46-16.58,8.09-16.2,14.79.26,4.72,3.71,6.89,7.78,9.91,2.84,2.1,4.44,6.37,6,9,2.71,4.73,5.18,14.11,17.43,14.26,3.9,0,7.5-2,14.3-2s10.43,1.25,14.34,1.2c12.25-.15,13.95-8,17.6-14.26,1.08-1.84,4.54-3.49,7.38-5.59a17.21,17.21,0,0,0,7-12.5c.37-6.7-4.09-13.34-16.2-14.79A205.17,205.17,0,0,0,78.22,52.54Z"/><path class="cls-21" d="M128.15,86.31a292.16,292.16,0,0,1-3.89,47c-3.83-1-8.17-1.94-12.31-.26,1.91-15.31,0-23.51.65-38.75-.56-4.77-1.13-12.43-2.2-17.11l9.81-18.29C125.86,61.62,126,77.54,128.15,86.31Z"/><path class="cls-22" d="M114.06,132.45a12.28,12.28,0,0,0-2.1.64c1.91-15.31,0-23.51.65-38.75-.25-4.25-.15-8.68-2.26-9.22a45.36,45.36,0,0,0,4.13-9.28l1.62,17c1.79-3,4.43-4.68,6.87-4.21-2.49.85-6.44,4.89-6.7,10.81C115.75,111.28,115.67,119.29,114.06,132.45Z"/><path class="cls-23" d="M128.15,86.31a292.16,292.16,0,0,1-3.89,47c-.66-.18-1.34-.36-2-.52a290.21,290.21,0,0,0,3.58-45.1c-1.89-7.58-2.22-20.49-5.93-25.59a12.68,12.68,0,0,0-.8-1.11l1.12-2.09C125.86,61.62,126,77.54,128.15,86.31Z"/><path class="cls-21" d="M20.69,87.49l9.89,5.61c3.33-4,12.54-12.25,15.09-13.76L38.36,57.16c-5.21,1.06-11.41,15-15.74,24.05A16.69,16.69,0,0,0,20.69,87.49Z"/><path class="cls-23" d="M28.8,92.08l1.78,1c2.16-2.59,8.28-8,11.94-11.81a55.31,55.31,0,0,0-7.94,4.56A48.16,48.16,0,0,0,28.8,92.08Z"/><path class="cls-11" d="M60.32,146c-1-2.41-3-5.7-3.93-8.29-.37-1-1-2.2-.74-2.51s2.83,8.68,6.53,7.61c-1-2.22-1.66-4.27-2.59-6.37a9.76,9.76,0,0,0-.54-1c-1.6-2.69-1.6-3.33-3.38-5.59a25.93,25.93,0,0,0-3.83-3.41c-2.33-2-3.4-3.91-5.37-7.38l-7,3.57c2,4.1,2.84,5.61,3.18,7.3.26,1.28.13,2.6.79,5.57.59,2.61,1.64,6,2.44,9.37a16.82,16.82,0,0,0,1.72,2,5.69,5.69,0,0,0,2.09,1.35,4.45,4.45,0,0,0,2.31.19c1.24,1,1.91,1.43,2.64,1.36a3.32,3.32,0,0,0,.36-1.2c-.5-.58-1-1.12-1.52-1.82a29,29,0,0,1-1.56-2.94c-.48-1-1-1.95-1.59-2.91-.69-1.2-.42-1.15.2-.2a30.72,30.72,0,0,1,1.69,2.92c.49,1,.92,2,1.56,3,.37.5,1.23,1.52,2.07,2.61,1.24,1.61,2.56,3.33,3.15,3.34a1.06,1.06,0,0,0,.76-.36c.31-.31.2-1.11-.19-1.89s-.91-1.65-1.53-2.7-1.08-1.83-1.61-2.75c-.81-1.38-1.55-2.81-2.3-4.22-.63-1.19-.25-1.33.32-.13.69,1.45,1.34,2.79,2.13,4.23.5.9,1,1.79,1.51,2.68s.83,1.48,1.36,2.29c.39.61.72,1,1.38.95s.87-.92.61-1.92A22.12,22.12,0,0,0,60.32,146Zm-10.18.55c-.63-.6-1.13-1.09-1.72-1.74a13.44,13.44,0,0,1-1-4.26c.68,1.35,1.42,3.26,2.1,4.76.27.61.54.62.76,1.11Z"/><path class="cls-9" d="M55.61,135.23c.49-.42.53-.36,1.87,2.7.87,2,2.18,4.46,4.5,4.85a2.65,2.65,0,0,1-2.93-1c-1.34-1.46-3.1-6.44-3.44-6.53ZM40.53,122l-1.12.56c2,4.1,2.84,5.61,3.18,7.3.26,1.28.13,2.6.79,5.57.59,2.61,1.64,6,2.44,9.37a16.82,16.82,0,0,0,1.72,2,5.69,5.69,0,0,0,2.09,1.35,4.45,4.45,0,0,0,2.31.19c1.32,1.07,2,1.48,2.79,1.34.27,0,.58-.77.17-1.24s-1-1.09-1.47-1.76a29,29,0,0,1-1.56-2.94c-.48-1-1-1.95-1.59-2.91-.69-1.2-.42-1.15.2-.2a30.72,30.72,0,0,1,1.69,2.92c.49,1,.92,2,1.56,3,.37.49,1.24,1.53,2.07,2.61,1.25,1.63,2.56,3.34,3.15,3.34a1.06,1.06,0,0,0,.76-.36c.31-.31.2-1.11-.19-1.89-.23-.46-.47-.9-.75-1.37l.66,1.25c.38.77.4,1.45.08,1.74s-.89,0-1.64-.72c-.59-.58-1.42-1.68-2.2-2.66a23.88,23.88,0,0,1-1.46-2,24.21,24.21,0,0,1-1.49-2.84,21.45,21.45,0,0,0-2.21-3.53c-.41-.54-1.31-1.72-.78,0a14.58,14.58,0,0,0,.59,1.41,34.44,34.44,0,0,0,4.19,7.49c-.68.23-1.85-.69-3-1.89a18,18,0,0,1-1.82-2.15c-1.21-3.06-2.18-5.27-2.71-5.59s.15,2.29.9,5.41c.56,1.42,2.38,2.46,2.37,2.69,0,.65-1.59-.38-1.95-.69a10.79,10.79,0,0,1-2-2.23c-.7-1.18-1.59-7.36-2.32-11.58-1-5.63-1.27-7.6-3.46-11.06Zm13.24,17.68c.08,0,.32.23.61.83.69,1.45,1.34,2.79,2.13,4.23.5.9,1,1.79,1.51,2.68s.83,1.48,1.36,2.29c.39.61.72,1,1.38.95s.87-.89.62-1.86c-.08,1.14-.48,1.25-1,.83-.9-.68-2.93-4.56-3.73-5.92a47.8,47.8,0,0,0-2.76-4.65c-.27-.24-.47-.24-.08.63Zm-3.64,6.84c-.63-.6-1.13-1.09-1.72-1.74a13.44,13.44,0,0,1-1-4.26c.68,1.35,1.42,3.26,2.1,4.76.27.61.54.62.76,1.11Z"/><path class="cls-16" d="M62,142.64l-.72-1.55a.67.67,0,0,0-.83-.42h0a.67.67,0,0,0-.22.9l.72,1.55a.67.67,0,0,0,.83.42h0A.67.67,0,0,0,62,142.64Z"/><path class="cls-17" d="M61.86,143.17l-1.06-2.28a.3.3,0,0,0-.37-.18h0a.3.3,0,0,0-.09.4l1.06,2.28a.3.3,0,0,0,.37.19h0A.3.3,0,0,0,61.86,143.17Z"/><path class="cls-18" d="M61.44,143l-.92-2a.11.11,0,0,0-.14-.07h0a.12.12,0,0,0,0,.16l.92,2a.12.12,0,0,0,.14.07h0A.11.11,0,0,0,61.44,143Z"/><path class="cls-19" d="M61,143.14c.21.34.56.52.81.4h0a.7.7,0,0,0,.22-.88.69.69,0,0,1-.33.36l-.21.1A.68.68,0,0,1,61,143.14Z"/><path class="cls-20" d="M61,142.27l-.54-1.17a0,0,0,0,0,0,0h0s0,0,0,0l.54,1.17a0,0,0,0,0,0,0h0A0,0,0,0,0,61,142.27Z"/><path class="cls-16" d="M60.47,150.77l-.64-1.49a.67.67,0,0,1,.22-.88h0a.6.6,0,0,1,.77.39l.65,1.49a.67.67,0,0,1-.22.87h0A.6.6,0,0,1,60.47,150.77Z"/><path class="cls-17" d="M60.95,151l-1-2.19a.3.3,0,0,1,.1-.39h0a.27.27,0,0,1,.34.18l1,2.19a.3.3,0,0,1-.1.39h0A.27.27,0,0,1,60.95,151Z"/><path class="cls-18" d="M61.07,150.53l-.83-1.92a.12.12,0,0,1,0-.15h0a.1.1,0,0,1,.13.07l.83,1.92a.11.11,0,0,1,0,.15h0A.1.1,0,0,1,61.07,150.53Z"/><path class="cls-19" d="M61.46,150.31a.7.7,0,0,1-.22.85h0c-.24.12-.56,0-.75-.38a.62.62,0,0,0,.46,0l.2-.1A.69.69,0,0,0,61.46,150.31Z"/><path class="cls-20" d="M60.84,149.78l-.49-1.13a0,0,0,0,1,0,0h0a0,0,0,0,1,0,0l.49,1.13a0,0,0,0,1,0,0h0S60.85,149.79,60.84,149.78Z"/><path class="cls-16" d="M58.85,152.76l-.83-1.4a.72.72,0,0,1,.2-1h0a.64.64,0,0,1,.9.23l.82,1.4a.72.72,0,0,1-.19,1h0A.64.64,0,0,1,58.85,152.76Z"/><path class="cls-17" d="M59.41,152.85l-1.22-2.06a.32.32,0,0,1,.09-.43h0a.28.28,0,0,1,.4.1l1.22,2.06a.32.32,0,0,1-.09.43h0A.28.28,0,0,1,59.41,152.85Z"/><path class="cls-18" d="M59.52,152.37l-1.06-1.8a.12.12,0,0,1,0-.16h0a.11.11,0,0,1,.16,0l1.06,1.8a.12.12,0,0,1,0,.17h0A.11.11,0,0,1,59.52,152.37Z"/><path class="cls-19" d="M59.95,152.06a.76.76,0,0,1-.2.93h0a.67.67,0,0,1-.88-.22.83.83,0,0,0,.52-.13l.22-.14A.92.92,0,0,0,59.95,152.06Z"/><path class="cls-20" d="M59.22,151.65l-.63-1.06a0,0,0,0,1,0,0h0a0,0,0,0,1,0,0l.63,1.06a0,0,0,0,1,0,0h0A0,0,0,0,1,59.22,151.65Z"/><path class="cls-16" d="M54.32,149.93l-.75-.79a.46.46,0,0,1,.08-.67h0a.53.53,0,0,1,.72,0l.75.79a.46.46,0,0,1-.08.67h0A.53.53,0,0,1,54.32,149.93Z"/><path class="cls-17" d="M54.76,149.89l-1.11-1.16a.21.21,0,0,1,0-.3h0a.24.24,0,0,1,.32,0l1.11,1.16a.21.21,0,0,1,0,.3h0A.24.24,0,0,1,54.76,149.89Z"/><path class="cls-18" d="M54.81,149.55l-1-1a.08.08,0,0,1,0-.12h0a.09.09,0,0,1,.12,0l1,1a.08.08,0,0,1,0,.12h0A.09.09,0,0,1,54.81,149.55Z"/><path class="cls-19" d="M55.13,149.27a.5.5,0,0,1-.08.66h0a.57.57,0,0,1-.7,0,.82.82,0,0,0,.39-.18l.16-.13A.76.76,0,0,0,55.13,149.27Z"/><path class="cls-20" d="M54.52,149.12l-.57-.6a0,0,0,0,1,0,0h0l.57.6a0,0,0,0,1,0,0h0Z"/><path class="cls-16" d="M51.54,148.69l-1.07-.34c-.25-.08-.42-.29-.37-.46h0c.05-.17.3-.25.55-.17l1.07.34c.25.08.42.29.36.46h0C52,148.7,51.79,148.77,51.54,148.69Z"/><path class="cls-17" d="M51.86,148.57l-1.58-.5c-.11,0-.19-.13-.16-.2h0c0-.08.13-.11.24-.07l1.58.5c.11,0,.19.13.16.2h0C52.08,148.57,52,148.6,51.86,148.57Z"/><path class="cls-18" d="M51.68,148.33l-1.38-.44s-.07,0-.06-.08h0s.05,0,.1,0l1.38.44s.07,0,.06.08h0S51.72,148.35,51.68,148.33Z"/><path class="cls-19" d="M51.74,148.08c.24.11.4.3.35.45h0c0,.15-.27.22-.53.17a.35.35,0,0,0,.19-.21l0-.12A.37.37,0,0,0,51.74,148.08Z"/><path class="cls-20" d="M51.19,148.12l-.81-.26s0,0,0,0h0l.81.26,0,0h0Z"/><path class="cls-21" d="M20.53,87.77A292,292,0,0,0,41.1,130.26c3.2-2.36,6.92-4.75,11.39-4.67-7.29-13.59-13.14-29-19.24-43C27.64,77,20.84,80,20.53,87.77Z"/><path class="cls-23" d="M49.93,125.8a12.38,12.38,0,0,1,2.56-.22C45.75,113,40.23,98.87,34.62,85.75c-.58.61-8.41,1.51-9,2.11,5-.17,7.73.81,8,1.37C38.55,100.8,44.45,114.83,49.93,125.8Z"/><path class="cls-22" d="M78.22,52.54a205.17,205.17,0,0,0-29.69.83C36.78,54.78,32.23,61,32.3,67.54A37.3,37.3,0,0,1,38,60.16c2.51-2.85,6.81-5.3,13.48-5.76l26.71-1.86ZM38.64,77.08c2.54,1.87,6,7.58,7.41,10,2.71,4.73,5.18,14.11,17.43,14.26a17.55,17.55,0,0,0,4.09-.54,24.69,24.69,0,0,1-2.79.15c-12.25-.15-13-8.89-15.75-13.62C48.17,85.83,42.45,77.42,38.64,77.08Z"/><path class="cls-22" d="M20.69,87.49,23,88.81l-.3-.78a9.85,9.85,0,0,1,1-4.09c.34-.92.74-1.76,1.07-2.47,3.46-7.25,8.62-17.1,13.21-21.3a12,12,0,0,1,1-1.05l-.72-2c-5.21,1.06-11.41,15-15.74,24.05A16.69,16.69,0,0,0,20.69,87.49Z"/><path class="cls-22" d="M20.53,87.77A292,292,0,0,0,41.1,130.26c.65-.48,1.31-1,2-1.41C35.7,116.11,27.63,101.1,22.73,88a9.82,9.82,0,0,1,1-4.08c.34-.92.74-1.76,1.08-2.48L25.54,80C22.78,80.77,20.7,83.57,20.53,87.77Z"/><path class="cls-23" d="M78.22,52.54l27.36,2.25c7.42.89,12,3.72,14.29,7.32,1.65,2.25,2.64,6.06,3.39,10.26a15.35,15.35,0,0,0,.86-4.21c.37-6.7-4.09-13.34-16.2-14.79a205.17,205.17,0,0,0-29.69-.83Zm16.25,47.83c9.43-.49,12.4-9,14.86-13.43L115,75.4c-4.44,4.41-7.53,13.1-11.26,18A20,20,0,0,1,94.47,100.37Z"/><path class="cls-11" d="M75.11,100a58.59,58.59,0,0,0-4-4.6l11.79.45a41.32,41.32,0,0,0-3.08,4c-.75,1-1.69,2-2.46,2.05S75.83,100.82,75.11,100Z"/><path class="cls-12" d="M78.07,101.59c.85-.83.76-2.49.36-4.7l.61.42c.08,1.36.91,2.07.21,3A7.05,7.05,0,0,1,78.07,101.59Z"/><path class="cls-11" d="M58.64,85c-6.71-12.2-3.94-23.64.12-33.54,6.59-16.11,27.08-17.82,35.55-4.89,5.81,8.88,10.06,23.32,3.35,36.56-2.75,5.42-5.23,10-9.2,12.38-2.93,1.78-7.76,1.93-10.95,2s-7.21,0-11-2.52C63.47,93,61.07,89.41,58.64,85Z"/><path class="cls-9" d="M58.64,85c-6.71-12.2-4.21-24.15-.16-34.06C61.7,43,70.33,39.29,77.83,38.53,71.69,40.1,64.75,43.67,62,50.29,58,60.2,55.5,72.15,62.21,84.35c2.43,4.43,4.83,8,7.84,10a15.1,15.1,0,0,0,6.24,2.29l-2.46.76a15.6,15.6,0,0,1-7.35-2.42C63.47,93,61.07,89.41,58.64,85Z"/><path class="cls-12" d="M83.11,38.23A20,20,0,0,1,95.5,46.54c5.82,8.88,8.87,23.32,2.16,36.56-2.75,5.42-5.23,10-9.2,12.38-2.15,1.31-5.32,1.73-8.12,1.88l-1.95-1.07a16.58,16.58,0,0,0,7-1.77c4-2.41,6.45-7,9.2-12.38,6.71-13.25,3.66-27.68-2.16-36.56A19.35,19.35,0,0,0,83.11,38.23Z"/><path class="cls-9" d="M88.78,95.29l-.32.2C86,97,82.09,97.34,79,97.43a5.32,5.32,0,0,0-1.57-.4,5.45,5.45,0,0,0-1.68.43,18.08,18.08,0,0,1-7.6-1.57c4.79,1.35,7.25.31,9.2.27C80.14,96.1,81.38,97.55,88.78,95.29Z"/><path class="cls-9" d="M73.79,98.41c-.47-.59-1-1.2-1.55-1.85h3.62l.14,0H79.7l.14,0h2.44c-.43.51-.85,1.08-1.31,1.71l-.06,0h0l0,0h-.06l-.05,0h0l-.06,0h0l0,0-.12-.05h0l-.06,0h0l0,0,0,0h0l-.06,0h0l-.05,0h0l0,0,0,0-.08,0,0,0h-.06l-.05,0h0l-.06,0h0l0,0,0,0h0l-.06,0h0l-.06,0h0l0,0,0,0h0l-.06,0h0l-.05,0h-.06l0,0h0l-.06,0h0l0,0H79l-.05,0h0l-.06,0H78.8l-.06,0h0l-.05,0h-.11l-.06,0h-.16l-.05,0h-1.9l-.06,0H76.3l-.05,0h0l-.06,0h0l-.05,0H76l-.05,0h0l-.06,0h0l-.06,0h0l0,0h-.07l0,0h0l-.07,0-.07,0h0l-.06,0h0l0,0h-.07l-.05,0h0l-.07,0h0l-.07,0h0l-.06,0h0l0,0,0,0h0l-.06,0h0l-.07,0h0l-.07,0h0l-.05,0,0,0,0,0,0,0h0l-.06,0h0l-.07,0h0l-.07,0h0l-.05,0,0,0,0,0-.05,0h0l-.07,0h0l-.07,0h0Z"/><path class="cls-11" d="M100.91,73.21c1.69-1.51,1.65-3.19,2.27-4.82.52-1.38,1.58-3.18,1.67-4.95.15-3.13-3.22-4.92-4.14-1C99.53,67.65,99,68.61,100.91,73.21Z"/><path class="cls-11" d="M54.45,73.22C52.76,71.7,52.79,70,52.18,68.4c-.52-1.38-1.58-3.18-1.67-4.95-.15-3.13,3.22-4.92,4.14-1C55.83,67.65,56.35,68.61,54.45,73.22Z"/><path class="cls-24" d="M97.82,82.83c5.45-11.48,4.15-22.9.33-32.23-6.59-16.11-29.82-17-38.28-4.06a37.6,37.6,0,0,0-4,32.19,22.18,22.18,0,0,0,8.73,8.36A9.27,9.27,0,0,1,60.17,85c2.38,2.9,4.64,3.91,8.52,2.77C73.59,96.07,83.13,95,89.9,90.07c-4.14,1.84-7,2.64-9.95,2.62C88.25,90.8,92.57,88,97.82,82.83Z"/><path class="cls-24" d="M71,96a27.29,27.29,0,0,1-8.76-4.72,14.4,14.4,0,0,0,8.1,5.82C72.06,97.47,72.84,96.56,71,96Z"/><path class="cls-24" d="M84,96a27.29,27.29,0,0,0,8.76-4.72,14.39,14.39,0,0,1-8.1,5.82C83,97.47,82.21,96.56,84,96Z"/><path class="cls-9" d="M76.71,101.66c-.85-.83-.76-2.49-.36-4.7l-.61.42c-.08,1.36-.91,2.07-.21,3A6.93,6.93,0,0,0,76.71,101.66Z"/><path class="cls-24" d="M82.41,38.58c2.69-3.44,5.48-7.07,3.9-12.08C82.78,15.38,71.1,15.78,67.38,26,66,29.89,68,37,73.05,38.74Z"/><path class="cls-25" d="M68.53,85.91c2,4.65,6.11,8.69,14.39,7.06a20.55,20.55,0,0,1-7.49-1.07,24.72,24.72,0,0,0,13.21-3.31c15.84-8.85,12.56-34.89,4-45.45,6,13,7.75,26.38-3.49,38L92,74C87.47,82.21,75.35,89.57,68.53,85.91Z"/><path class="cls-25" d="M69.69,85.78c-.32-1-.91-1.66-1-3a23.77,23.77,0,0,0,.69-4.36c0-2.31-.78-3.06-.69-4.43.15-2.34,1.11-3.54,1.18-4.77.11-1.91-.74-1.95-.84-3.17-.61-7.47,2.7-20.77,5.91-25.61-1.37,4.81-3.53,9.66-3.57,15.54,1.16-4.78,4.65-14,5.07-17.84,10,1.79,15,2.12,17.3,11.33,2.16,8.68.62,14.73-4.93,23.63,3.88-4.08,5.22-8,6.26-13C94.47,75.07,84.14,85.44,69.69,85.78Z"/><path class="cls-26" d="M70.26,88.4c11.93,7.81,26.62-1.6,30.28-16.17C93.15,87.13,84.09,92,70.26,88.4Z"/><path class="cls-26" d="M68.87,87C72,94.92,80.29,94.25,84,93.11,80.07,93.94,72.39,93.78,68.87,87Z"/><path class="cls-26" d="M71.66,88.41c14.11,2.09,24.25-5,26.5-22.77C95.06,80.55,86,86.1,71.95,87.29a11.82,11.82,0,0,0-1.72.07C69.67,87.58,69.77,88.13,71.66,88.41Z"/><path class="cls-26" d="M94.51,81c8.6-15,7.08-21.11.63-35.67C100.23,59.79,100.71,66.52,94.51,81Z"/><path class="cls-26" d="M69.87,85.5C79.94,87,90.32,79.08,94.45,65.22,91.59,70.1,84.42,82.12,69.87,85.5Z"/><path class="cls-27" d="M75,85.11c6.81-1.43,13.63-7.22,16.81-13.38A39.19,39.19,0,0,1,75,85.11Z"/><path class="cls-28" d="M90.65,78.69c6-6.23,8.36-17,3.76-30.41A39,39,0,0,1,90.65,78.69Z"/><path class="cls-29" d="M71.12,88.86c7.27,3.56,17.55,1.49,22.12-4.4C88,89.08,80.44,91.72,71.12,88.86Z"/><path class="cls-26" d="M69.54,83.72c5,.29,26-18.77,18.63-41.54C91.82,65.79,74.23,78.68,69.54,83.72Z"/><path class="cls-26" d="M79.21,79.52c10.26-4.84,22.93-25.92,7.45-40.27C98.27,55.13,87.5,71.07,79.21,79.52Z"/><path class="cls-27" d="M69.72,84.48c6.66-2,15.16-11.4,16.83-19.41C84,71.15,78.3,79.89,69.72,84.48Z"/><path class="cls-28" d="M71.46,84.38c9.82-2.49,18.87-10.73,22.61-21.5C91.75,68,85.59,79.4,71.46,84.38Z"/><path class="cls-28" d="M74.21,89c9,1.39,18.31-1.23,22.36-14C90.68,89.54,78.55,88.74,74.21,89Z"/><path class="cls-29" d="M70.1,87.69c11.34,1.52,20.49-1.6,24.29-9.84C90.05,84.93,83.17,88,70.1,87.69Z"/><path class="cls-28" d="M85.26,71.56c6-6.23,8.36-17,3.76-30.41A38.94,38.94,0,0,1,85.26,71.56Z"/><path class="cls-26" d="M69.38,82.93c5-7.64,23.6-26.06,16.41-43C89,57.86,70.58,71.07,69.38,82.93Z"/><path class="cls-27" d="M72.08,77.53C76.65,69.9,90.92,55.44,85.79,40,89.76,58.5,74.55,67.1,72.08,77.53Z"/><path class="cls-28" d="M71.77,80.54C77.7,75.76,88.2,62.37,87.31,49.77,87,60,81.6,67.8,71.77,80.54Z"/><path class="cls-26" d="M70.52,75C80.84,58,92.76,43.9,78.45,38.86c6.81,6.26.83,15.64-3.73,24.66,2.41-10,9.47-18.77,2.3-24.66,1.23,3.49-3.43,13.92-4.58,19C71.15,63.72,70.12,66.54,70.52,75Z"/><path class="cls-27" d="M71,73.61c4.17-7.88,21-28.26,7.82-34.46C89.76,46.62,74.32,63.85,71,73.61Z"/><path class="cls-27" d="M73.45,66.88c2.22-13.5,7.26-19.88,4-27.35C83.09,45.53,76.11,54.83,73.45,66.88Z"/><path class="cls-28" d="M75.75,59.51c6-8,7.8-15.88,2.41-20.13C80.84,42.84,82.56,48.3,75.75,59.51Z"/><path class="cls-26" d="M70.84,68.63c-.41-9-.35-11.36,1-20.37-.88,8.76-1,9.33.32,18.15Z"/><path class="cls-28" d="M66.43,41.83c-8.28,5.29-10.61,13.21-10,27.62l-1-6.17c-2.26,8.86,6.31,16.84,14.2,21.55-3.56-8.43-.6-13.43-1.26-19.47L67,70.43c0-8.51,4.13-24,8.64-31.72-9.08,1.86-11.9,9.41-12.68,16C62.62,50.89,63.29,48.1,66.43,41.83Z"/><path class="cls-28" d="M55.07,66.83c.4,9.62,12,16.82,15,18.76-4.92,4.1-10.89-.43-12.9-4.63a14,14,0,0,0,4.92,3.63C56.68,80.76,53.67,75.6,55.07,66.83Z"/><path class="cls-30" d="M70.51,40.77c-7.17,7.94-7.8,18.61-5.36,30.17C65.89,59.76,65.86,49.65,70.51,40.77Z"/><path class="cls-30" d="M59.09,50.21c-5.84,17.65,5.59,31.11,10.54,34.5C65.66,80.31,57,66.64,59.09,50.21Z"/><path class="cls-30" d="M58.84,83.29c4.08,4.54,7.41,5.78,10.46,2.73C66.28,87.75,61.63,85.22,58.84,83.29Z"/><path class="cls-31" d="M57.18,61c.13,8.61,2.89,17.35,10,21.14C60.09,76,58.55,69.06,57.18,61Z"/><path class="cls-30" d="M63.66,44.72c-8,16.78.07,30.62,4.57,37.77C66.89,75.72,59.54,60.75,63.66,44.72Z"/><path class="cls-31" d="M60.79,53.67a40.41,40.41,0,0,0,6.79,27.22A58.83,58.83,0,0,1,60.79,53.67Z"/><path class="cls-24" d="M69,83.81c-7.58-7.14-9.15-15.7-8.24-24.1C61.47,68.58,62.78,75.29,69,83.81Z"/><path class="cls-24" d="M70.19,86c-5.72.29-12.32-5.26-14.59-13.4C62.24,83,64.28,82,70.19,86Z"/><path class="cls-30" d="M69,86.43c-5,.26-10.75-4.59-12.73-11.69C62,83.83,63.81,83,69,86.43Z"/><path class="cls-30" d="M75.74,37.88C67.76,45,66,55.56,67.21,67.31,69.14,56.27,70.18,46.22,75.74,37.88Z"/><path class="cls-31" d="M74.63,39C63.35,48.54,64,69.57,67.36,78.49,64.91,68,65.65,48.86,74.63,39Z"/><path class="cls-25" d="M76.89,38.63l4.76-.16c8.33-8.6,1.73-24.85-11.26-16.81C80.85,21.47,79.74,32.31,76.89,38.63Z"/><path class="cls-26" d="M80.77,38.31c5.55-3.39,6.71-20.38-8.16-18.07C86.79,21.27,83.14,33.6,80.77,38.31Z"/><path class="cls-26" d="M78.16,38.55c5.07-1.33,5-20.22-7.45-17.2C81.31,21.27,80.53,33.83,78.16,38.55Z"/><path class="cls-27" d="M79.74,38.55c4-4.82,4.41-18.08-6.82-17.84C83.53,20.63,82.11,33.83,79.74,38.55Z"/><path class="cls-28" d="M76.81,38.47C75.32,33.85,72,27,73.48,22.22c-4.29-.23-5.89,4-5.77,7.22C67.89,34.14,72,39.2,76.81,38.47Z"/><path class="cls-30" d="M76.41,38.23c-4.22-.48-7.09-2.18-9.12-9.43l1.9,2.78c-1.1-4-1.21-8.11,4-10.31C69.41,25.53,70.46,34.48,76.41,38.23Z"/><path class="cls-26" d="M77.37,37.83c.46-8.46,1.63-8.35-3.25-15.46A150.26,150.26,0,0,0,77.37,37.83Z"/></svg>