<svg id="Capa_1" data-name="Capa 1" xmlns="http://www.w3.org/2000/svg" xmlns:xlink="http://www.w3.org/1999/xlink" viewBox="0 0 160 178"><defs><style>.cls-1{fill:none;}.cls-2{clip-path:url(#clip-path);}.cls-3{fill:#21211d;}.cls-10,.cls-11,.cls-12,.cls-13,.cls-14,.cls-15,.cls-16,.cls-17,.cls-18,.cls-19,.cls-20,.cls-21,.cls-22,.cls-23,.cls-24,.cls-25,.cls-26,.cls-27,.cls-28,.cls-3,.cls-4,.cls-5,.cls-8,.cls-9{fill-rule:evenodd;}.cls-5{fill:#363632;}.cls-6{fill:#5c5c69;}.cls-7{fill:#7c7c8a;}.cls-8{fill:#a2a2ab;}.cls-9{fill:#606087;}.cls-10{fill:#4f6a78;}.cls-11{fill:#3a4d57;}.cls-12{fill:#587280;}.cls-13{fill:#e8a477;}.cls-14{fill:#f1b287;}.cls-15{fill:#f7be98;}.cls-16{fill:#9ccae2;}.cls-17{fill:#abd6ed;}.cls-18{fill:#94bfd6;}.cls-19{fill:#f4bc97;}.cls-20{fill:#34332f;}.cls-21{fill:#45443e;}.cls-22{fill:#292825;}.cls-23{fill:#4d4c46;}.cls-24{fill:#575650;}.cls-25{fill:#1f1e1c;}.cls-26{fill:#0d0c0c;}.cls-27{fill:#121110;}.cls-28{fill:#616059;}</style><clipPath id="clip-path"><rect class="cls-1" width="160" height="106.41"/></clipPath></defs><title>Mesa de trabajo 1</title><g class="cls-2"><path class="cls-3" d="M44.42,67.16c2.15-3.33,19.61-5.68,37-5.1,15.81.53,31.55,3.47,35.63,10.28,7,11.67,12.35,59.71-9.27,60.82-22.45,1.16-38,.7-60.39-1.06C28.35,128.19,36.18,79.91,44.42,67.16Z"/><path class="cls-4" d="M50,67.16c2.14-3.15,15.6-5.68,30.54-5.1,13.6.52,28.1,3.47,31.61,10.28,6,11.66,12.85,60.35-5.75,61.46-19.31,1.16-40-1.52-59.27-3.28C30.75,126.6,41.3,79.91,50,67.16Z"/><path class="cls-5" d="M45.36,66.29c4.35-2.86,20.23-4.76,36-4.23S112.95,65.53,117,72.34c6.64,11.09,11.81,55-6.24,60.31,14.59-8.94,9.64-48.59,3.38-59-4.08-6.81-19.82-9.76-35.63-10.28C65.21,62.88,51.84,64.16,45.36,66.29Z"/><path class="cls-4" d="M25.86,41.37c1-3.91,2.7-8.86,2.41-16.61C27.77,12,33.94,9.62,49.47,10.61c12.64.81,21.24,0,31,0,8.94,0,21.07.8,30.06.49,10.72-.37,20.44,2.35,20.17,12.41-.11,4.39-1.68,12.5.09,17.48C139,64.29,93.15,76.32,74.34,74.52,57.59,74.55,20.19,64.07,25.86,41.37Z"/><path class="cls-3" d="M110.19,11.09h.3c10.72-.37,20.44,2.35,20.17,12.41-.11,4.39-1.68,12.5.09,17.48,8,22.53-34.57,34.52-54.42,33.68,21-.77,57.75-12.61,50.28-33.68-1.77-5-.2-13.08-.09-17.48C126.76,14.65,119.28,11.48,110.19,11.09Z"/><path class="cls-6" d="M23.46,59.36h3.26a6.3,6.3,0,0,1,6.3,6.3v62.5a6.29,6.29,0,0,1-6.29,6.29H23.46a6.3,6.3,0,0,1-6.3-6.3V65.65a6.3,6.3,0,0,1,6.3-6.3Z"/><rect class="cls-7" x="19.67" y="59.36" width="10.85" height="75.09" rx="4.31" ry="4.31"/><path class="cls-8" d="M27.05,132.89H24.81a4.36,4.36,0,0,1-3.17-1.35,4.36,4.36,0,0,0,1.9.43h2.24a4.25,4.25,0,0,0,4.31-4.17V63.48a4.08,4.08,0,0,0-1.14-2.81,4.17,4.17,0,0,1,2.41,3.74v64.32A4.25,4.25,0,0,1,27.05,132.89Z"/><rect class="cls-6" x="123.98" y="59.36" width="15.86" height="75.09" rx="6.3" ry="6.3"/><rect class="cls-7" x="126.49" y="59.36" width="10.85" height="75.09" rx="4.31" ry="4.31"/><path class="cls-8" d="M133.84,132.89H131.6a4.36,4.36,0,0,1-3.17-1.35,4.37,4.37,0,0,0,1.9.43h2.24a4.25,4.25,0,0,0,4.31-4.17V63.42a4.09,4.09,0,0,0-1.13-2.82,4.17,4.17,0,0,1,2.4,3.74v64.38A4.25,4.25,0,0,1,133.84,132.89Z"/><path class="cls-3" d="M28.42,29.32c-3.06-16,3.29-22.61,18.83-21.38,12.65,1,23.46,1.67,33.18,1.7,8.94,0,21.86-1.31,30.86-1.7,15.57-.67,21.7,3,19.3,20.21-1.52,10.94-26.73-4.84-53.62-4C52.14,24.85,29.34,34.1,28.42,29.32Z"/><path class="cls-5" d="M80.43,9.63c8.94,0,21.86-1.32,30.86-1.7,15.57-.67,21.7,3,19.3,20.21-.36,2.59-2.05,3.68-4.77,3.85v0c1.23-8.84.23-14.13-3.19-17C116.62,9.77,95.41,13.26,80.43,9.63Z"/><path class="cls-4" d="M78.32,9.63c-8.95,0-21.86-1.32-30.86-1.7-15.57-.67-21.7,3-19.3,20.21.36,2.59,2,3.68,4.77,3.85v0c-1.23-8.84-.23-14.13,3.19-17C42.12,9.77,63.33,13.26,78.32,9.63Z"/><path class="cls-9" d="M53,78.47,79.28,88.69c15.35-4.49,16.47-6.34,22-4C112,89.23,113,105.85,116.38,121.48c3.47,16,9.18,26.61,5.49,37.41-6.57,19.2-16.11,11.57-19.92,3.58-3.49-7.3-8.13-22.75-13-34.81-2.64-6.53-3-12.46-6.82-14.28-3.38-1.6-5.62-1.19-6.8.31-.4.51-1.94,8-3.75,17.23-5,25.71-7.31,34.83-12.81,37.43C50,172.48,46,169.42,43,164.48c-5-8.15,1.54-48,5.29-71.78C49.72,83.76,47.93,81.87,53,78.47Z"/><path class="cls-10" d="M53,78.47,79.28,88.69c15.35-4.49,16.47-6.34,22-4C112,89.23,113,105.85,116.38,121.48c3.47,16,9.18,26.61,5.49,37.41-6.57,19.2-16.11,11.57-19.92,3.58-3.49-7.3-8.13-22.75-13-34.81-2.64-6.53-3-12.46-6.82-14.28-3.38-1.6-5.62-1.19-6.8.31-.4.51-1.94,8-3.75,17.23-5,25.71-7.31,34.83-12.81,37.43C50,172.48,46,169.42,43,164.48c-5-8.15,1.54-48,5.29-71.78C49.72,83.76,47.93,81.87,53,78.47Z"/><path class="cls-11" d="M93.85,84.16a9.75,9.75,0,0,1,7.38.51C112,89.23,113,105.85,116.38,121.48c3.47,16,9.18,26.61,5.49,37.41s-8.28,13.08-12.29,11.66c2.59-1.35,5.19-4.77,7.44-11.34,1.58-4.61-1.66-21.83-5.31-37.25-3.27-13.8-6.78-26.16-9-26.71-8.2-2-31.24,2.77-49.48-4.44-.94-.37,41.43-6.5,40.65-6.66Zm-11.1,29.13c-1.79-3-5.59-3.28-8.5-2.18-6.1,2.29-6.4,14.37-7.52,20.14-5,25.71-7.31,34.83-12.81,37.42A23.3,23.3,0,0,1,50,170.14c2.27.41,5.11-.07,8.79-1.8,5.5-2.59,7.8-11.72,12.81-37.43,1.8-9.26,3.35-16.73,3.75-17.23C75.49,113.48,77.86,111.18,82.75,113.29Z"/><path class="cls-12" d="M53,78.47l4.53,1.94c-5,3.4-3.26,5.29-4.66,14.23-3.75,23.8-10.26,63.63-5.29,71.78a15.4,15.4,0,0,0,3.1,3.81c-3.52-.35-5.76-2.69-7.63-5.75-5-8.15,1.54-48,5.29-71.78C49.72,83.76,47.93,81.87,53,78.47Z"/></g><path class="cls-13" d="M45.33,176.29l.4-.32-.07-1.68L45,171.54l-.07-1.32-.17,1.55s.12,1.88.12,2S45.33,176.29,45.33,176.29Z"/><path class="cls-14" d="M45.84,134.53c1.13,2.65,2.37,6.59,3.77,8.62,1.75,2.54,2.57,3.14,3.91,5.48a25.41,25.41,0,0,1,1.92,5.45l.56,4c.38,1.92.23,1.65-.15,3.63l-.9,4.64-.67-.07.27,3.39c.19,3.55-1,4.06-1.67,4s-1.26.08-1.68-1.83c-.31-1.44-.34-3.42-.61-4.87-.61-3.22-.35-4-1.41-6.62-.57-1.39-1.57-.74-1.49.64.08,1.19.39,2.25.49,3.57s.27,3.17.35,4.39c.1,1.48.46,4.11.37,5.45s-.26,2.64-1.61,2.41a2.43,2.43,0,0,1-1.87-2.14c-.46-2.23-.52-4.52-.82-6.78a44.69,44.69,0,0,1-.47-6.74c0-.62-.24-.88-.25-.27a40.18,40.18,0,0,0,.45,7.66c.28,2.09.72,4,1,6.06.25,1.23.56,1.25.29,1.48-2.66,2.16-2.74-2.09-3.59-3.71-.82-1.9-3.2-5.21-3.3-6.94L38.29,159a36.5,36.5,0,0,1-.7-6.43c.06-2.24.62-4.06.45-6.1-.28-3.35-1.6-6.15-2.87-10.35Z"/><path class="cls-13" d="M48.23,159.7c-.34.13-.61.65-.56,1.38.08,1.19.44,2,.54,3.31s.27,3.16.35,4.39c.1,1.48.4,4.38.3,5.71-.08,1.17-.11,2.49-1.38,2.45.88-1.83.34-6.13,0-9.75-.26-2.93-1.44-8.19.72-7.54v.05Zm-4.27.93c-.05,0-.1.08-.11.35a40.18,40.18,0,0,0,.45,7.66c.28,2.09.72,4,1,6.06a5.67,5.67,0,0,0,.33,1.11l0,.18a.25.25,0,0,1-.09.19c-.63.71-1.15.72-1.58.37a.52.52,0,0,0,.38-.55c.15-2.78-1.25-6.46-1.68-9.21.16-1.85.36-4.7.63-6C43.47,160,43.81,160,44,160.63Z"/><path class="cls-13" d="M45.84,134.53c1.13,2.65,2.37,6.59,3.77,8.62,1.75,2.54,2.5,2.88,3.84,5.21a25.52,25.52,0,0,1,1.91,5.45l.63,4.32c.38,1.92.23,1.65-.15,3.63l-.9,4.64-.67-.07.27,3.42c.1,1.93-.16,3.09-.72,3.65a56.13,56.13,0,0,0,0-7.14,32.15,32.15,0,0,0-.31-4.39c-.41-2.13-1.15-4.17-1.15-6.28A7.72,7.72,0,0,1,52.9,153c-.05,4.47,1.41,7,1.68,10.9a29,29,0,0,0,.41-4.75,27.83,27.83,0,0,0-.94-6.39c-1.68-5.21-3.7-4.62-6.4-8.87a50,50,0,0,1-4.15-9.16Z"/><path class="cls-13" d="M41.5,170.65l-1-3.72c0-2.13.08-4.85,0-6.74,0-.57-.47-.64-.51.14a34.25,34.25,0,0,0,.2,6.89Z"/><path class="cls-15" d="M53.61,172.88a8.88,8.88,0,0,0-.14-2.12c-.35-.32-1.51-.08-1.65.08s-.14.63-.09,1.07a2.19,2.19,0,0,0,.35,1.24C52.17,173.24,53.22,173.4,53.61,172.88Z"/><path class="cls-15" d="M48.2,176a7.89,7.89,0,0,0-.16-2.12,2.47,2.47,0,0,0-1.87.08c-.24.24-.16.63-.1,1.07s.11,1,.39,1.25C46.56,176.36,47.76,176.52,48.2,176Z"/><path class="cls-15" d="M44.75,176.14a12.07,12.07,0,0,0-.3-2.12c-.29-.32-1.13-.08-1.22.08a1.88,1.88,0,0,0,0,1.07,3,3,0,0,0,.37,1.25C43.71,176.49,44.51,176.65,44.75,176.14Z"/><path class="cls-15" d="M54,165.58a15.64,15.64,0,0,1,.23-2.12c.22-.32.87-.08.94.08a2.41,2.41,0,0,1,0,1.07,3.66,3.66,0,0,1-.29,1.24A.59.59,0,0,1,54,165.58Z"/><path class="cls-16" d="M36.45,143.83C34.31,133,22.85,105,24,97.26c3,0,15.27-5,18.09,1.48,3.27,9.17,1.9,31,6.85,42.6l-.08,0a26.9,26.9,0,0,0-11.51,2.72Z"/><path class="cls-17" d="M38.47,143.56q-.12-.58-.29-1.26c.45-.14-8.6-32.25-9.79-42.62A20.52,20.52,0,0,1,24,99h0c.38,8.17,7.83,28.13,11.27,39.87a51.86,51.86,0,0,1,1.37,5.65C37.2,144.16,37.84,143.84,38.47,143.56Z"/><path class="cls-18" d="M41.89,98.38c3.34,8.85,2.64,31.34,7,43h-.38l-1-.3c-4.95-11.58-5.69-33.2-9-42.37C39.72,98.59,40.71,98.55,41.89,98.38Z"/><path class="cls-13" d="M86.55,157.35a.44.44,0,0,0-.49-.41c-.84.1-2.76,1.76-3,1.89.38.13.65.43,1.14.37a3.79,3.79,0,0,0,1.63-.69A1.86,1.86,0,0,0,86.55,157.35Z"/><path class="cls-13" d="M82.64,153.67a.44.44,0,0,0-.49-.44c-.82.18-2.66,2.22-2.86,2.39.38.11.65.44,1.13.34A3.66,3.66,0,0,0,82,155,2.34,2.34,0,0,0,82.64,153.67Z"/><path class="cls-14" d="M109.47,137.85c-3.74,6-2.65,6.75-5.29,12.61a42.53,42.53,0,0,1-3.45,5.6,30.83,30.83,0,0,1-3.64,4.81c-.94.88-2.1,1.22-3,.14-.82.83-1.75,2.58-2.79,2.63a3.24,3.24,0,0,1-2.59-1.5,3.6,3.6,0,0,1-1.78,1.21c-.76.12-2.57-.9-3.36-1.33-1.54-.84-1-2-.55-3.37a4.36,4.36,0,0,1-3-.24,2.08,2.08,0,0,1-.73-2.73,14.1,14.1,0,0,0,4.14-2.28c-1.27.38-1.84.67-3.35-.83a26.75,26.75,0,0,0,2.91-4.15c1.83-3.14,1.91-4.86,3.45-6.38,5.59-5.49,10.74-2.93,13.8-10.49l9.17,6.31Zm-26,20.84a3.22,3.22,0,0,0,2.12-.46A32,32,0,0,0,89.71,154c-1.34.67-3.23,2.73-4.24,3.31A10.33,10.33,0,0,0,83.47,158.69Z"/><path class="cls-14" d="M109.47,137.85c-3.74,6-2.65,6.75-5.29,12.61a42.53,42.53,0,0,1-3.45,5.6,30.83,30.83,0,0,1-3.64,4.81c-.94.88-2.1,1.22-3,.14-.82.83-1.75,2.58-2.79,2.63a3.24,3.24,0,0,1-2.59-1.5,3.6,3.6,0,0,1-1.78,1.21c-.76.12-2.57-.9-3.36-1.33-1.54-.84-1-2-.55-3.37a4.36,4.36,0,0,1-3-.24,2.08,2.08,0,0,1-.73-2.73,14.1,14.1,0,0,0,4.14-2.28c-1.27.38-1.84.67-3.35-.83a26.75,26.75,0,0,0,2.91-4.15c1.83-3.14,1.91-4.86,3.45-6.38,5.59-5.49,10.74-2.93,13.8-10.49l9.17,6.31Zm-26,20.84a3.22,3.22,0,0,0,2.12-.46A32,32,0,0,0,89.71,154c-1.34.67-3.23,2.73-4.24,3.31A10.33,10.33,0,0,0,83.47,158.69Z"/><path class="cls-13" d="M107.51,141.36c-1.48,3.12-1.32,4.62-3.33,9.1a42.7,42.7,0,0,1-3.45,5.6c-1,1.49-4.44,7.6-6.63,4.95.25-.23,1.56,1.09,3-.75a60.41,60.41,0,0,0,6.09-10c2.64-5.86.13-6.39,3.87-12.39a4.74,4.74,0,0,1,.6-1.26l1.48,1.72C108.56,139.32,108,140.35,107.51,141.36Z"/><path class="cls-13" d="M96.07,161.55a1.61,1.61,0,0,1-2-.54c-.37.37-.76.93-1.18,1.44a28.63,28.63,0,0,1,1.82-3.21c.18-.23,1.66-2,1.74-2,.55-.22-.27.83-.88,1.66a6.28,6.28,0,0,0-.92,1.47,1.2,1.2,0,0,0,.8,1.12,1.59,1.59,0,0,0,.58.09Zm-7,1a.7.7,0,0,1,.06-.23,20.54,20.54,0,0,1,3.29-4.65c.56-.65,1.18-1.24,1.12-1.38s-.89.45-1.71,1.32a27.71,27.71,0,0,0-3.6,4.73l-.25.45c.22-.18.47-.41.76-.68a2.61,2.61,0,0,0,.32.43Zm-6.22-3.3.21-.63-.12,0h0a12.26,12.26,0,0,1,2.19-1.09l-1.68,1.16c.86-.14,1.44,0,2-.33,1-.58,1.56-1.76,2.36-2.62.6-.64,2-2,2.49-1.94.08,0-1.28,1.37-2.11,2.38-1,1.24-2,2.76-2.78,3.14-.37.19-.69-.09-1.09-.07s-.68.34-1,.23a3.25,3.25,0,0,1-.47-.23Zm.52-5.77c2.26-1.24,2.81-3,4.17-6.39.32-.79.14-1.75-.45-.46-.82,1.81-2,4.95-3.68,6a2.37,2.37,0,0,1-2.58-.05,22.36,22.36,0,0,0,3-4.18,25.66,25.66,0,0,1,4.78-6.1c3.23-2.88,8.46-2.77,11.68-9.59l-.69-.83c-4.1,6.89-7.54,4.62-13.12,10.11-1.54,1.51-1.62,3.24-3.45,6.38a26.75,26.75,0,0,1-2.91,4.15c1.52,1.51,2.08,1.22,3.35.83Z"/><path class="cls-19" d="M80.42,152.84l-.29-.28a26.75,26.75,0,0,0,2.91-4.15c1.83-3.14,1.91-4.86,3.45-6.38,5.59-5.49,8.91-3.23,13-10.11l.8.83c-3.22,6.82-8.45,6.71-11.68,9.59a25.66,25.66,0,0,0-4.78,6.1,22.36,22.36,0,0,1-3,4.18h0Z"/><path class="cls-16" d="M108.57,140.28c5.28-9.68,24.64-33,25.88-40.68-2.83-.9-13.06-9.39-17.7-4-5.87,7.76-11.12,29-19.32,38.58l.07.07a26.88,26.88,0,0,1,10.16,6.05Z"/><path class="cls-18" d="M106.72,139.41c.19-.35.41-.72.66-1.11C107,138,124.2,109.5,128.44,100a34.2,34.2,0,0,0,5.49,1.31h0c-2.82,7.68-15.91,24.48-22.72,34.65a52.46,52.46,0,0,0-3,5C107.75,140.36,107.23,139.86,106.72,139.41Z"/><path class="cls-17" d="M117,95.29c-5.84,7.44-11.92,29.1-19.61,38.91l.36.12,1.08,0c8.2-9.57,15.39-30,21.26-37.72C119,96.14,118.09,95.8,117,95.29Z"/><path class="cls-16" d="M33.29,59.49c-8.94,5.25-9.67,26.11-9.16,42.1,2.11.79,10.23-1.26,17.53-3.46,2.36-9.4,3.51-21,2-28.42Z"/><path class="cls-17" d="M33.29,59.49c-8.94,5.25-9.67,26.11-9.16,42.1a10.63,10.63,0,0,0,4.39-.14C26.7,85.8,25.88,66.09,34,60.21Z"/><path class="cls-18" d="M33.29,59.49a11.07,11.07,0,0,0-3.25,3L37.14,69c-1.93,13.69,3.56,20.61,1.2,30l3.32-.93c2.36-9.4,3.51-21,2-28.42Z"/><path class="cls-16" d="M128.16,62.41c8.94,5.25,9.4,22.39,6,39.18-5.43-.55-13.68-4.18-16.87-5.71-.77-7,.87-15.8,2.39-23.24Z"/><path class="cls-18" d="M130,63.74c7.17,6.41,7.34,22.28,4.16,37.85a28.71,28.71,0,0,1-5.63-1.27l.06-.06A72.9,72.9,0,0,0,130,63.74Z"/><path class="cls-16" d="M114.08,93.91C88.78,98.38,71.5,99.54,44.7,91,30.35,86.43,30.14,77.72,30.14,66.09,30.14,55.8,56.65,50.78,82.5,51c24.58.25,48.3,5.51,48.09,15.3C130.39,75.46,131.55,90.83,114.08,93.91Z"/><path class="cls-17" d="M61.25,94.8c-10.13-1.39-19.68-7.16-24.71-8.22C41.37,92.46,55.74,94.74,61.25,94.8Z"/><path class="cls-17" d="M77.68,50.55c-20.81.21-41.2,3.84-47,10.89-2.77,3.39-2.9,14.57,2.6,22-4.82-9.38-3.37-17.3.58-20.3,5.54-4.21,20-5.08,34.76-5.56Z"/><path class="cls-18" d="M98,96c6.92-2.25,19.36-3.25,26.56-7.15C118,95.21,107.64,94.44,98,96Z"/><path class="cls-18" d="M82.5,51c20.81.21,41.2,3.84,47,10.89,2.77,3.39,3.23,15.17-2.27,22.61,4.82-9.38,3-17.89-.91-20.89-5.54-4.21-20-5.08-34.76-5.56Z"/><path class="cls-15" d="M80.51,152.37a9.7,9.7,0,0,1,1.14-1.79c.44-.12,1.27.61,1.31.81s-.19.61-.44,1-.57.84-.88.93C81.51,153.33,80.57,153,80.51,152.37Z"/><path class="cls-14" d="M81.72,101c.1-.06.7-.89,1.43-1.66,2.52-2.67,2.36-1.79,2-5.81L81,92.07v-.26l-.36.13-.36-.13v.26L76,93.56c-.33,4-.49,3.14,2,5.81.73.77,1.33,1.6,1.43,1.66A4.18,4.18,0,0,0,81.72,101Z"/><path class="cls-13" d="M80.95,101.18c.54,0,.77-.09,1-.46a3.59,3.59,0,0,0,.12-2c-.2-2,.94-4.54,1.72-6.29l-1.95,0c-.38,2.72-.81,3.54-.66,6.38A6.14,6.14,0,0,1,80.95,101.18Z"/><path class="cls-19" d="M80.26,101.18c-.54,0-.77-.09-1-.46a3.58,3.58,0,0,1-.12-2c.2-2-.94-4.54-1.72-6.29l1.95,0c.39,2.72.81,3.54.66,6.38A6.11,6.11,0,0,0,80.26,101.18Z"/><path class="cls-13" d="M85.33,95.62c0-.39-.11-1.51-.15-2.06L81,92.07v-.26l-.36.13-.36-.13v.26L76,93.56c0,.61-.1,1.62-.13,2,1.06-.15,1.91-.83,4.42-.86S83.29,95.25,85.33,95.62Z"/><path class="cls-13" d="M101.66,68.07c1.56-1.4,1.53-3,2.1-4.46.48-1.28,1.47-2.94,1.55-4.58.14-2.89-3-4.56-3.83-.88C100.38,62.92,99.9,63.81,101.66,68.07Z"/><path class="cls-14" d="M59.54,68.07c-1.56-1.4-1.53-3-2.1-4.46C57,62.33,56,60.67,55.9,59c-.14-2.89,3-4.56,3.83-.88C60.83,62.92,61.31,63.81,59.54,68.07Z"/><path class="cls-14" d="M87.2,93.77c3.72-.53,5.89-1.72,7.77-4.28,4.51-6.13,6.69-16.41,7.23-24.57.51-7.7-1.61-20-7.05-25.93-3-3.3-9.6-4.71-14.55-4.12-4.94-.59-11.5.82-14.55,4.12C60.61,44.9,58.5,57.23,59,64.92c.54,8.16,2.71,18.44,7.23,24.57,2,2.71,4.31,3.87,8.43,4.36A49.07,49.07,0,0,0,87.2,93.77Z"/><path class="cls-19" d="M79.92,34.81c-4.85-.39-11,1-13.86,4.19C60.61,44.9,58.5,57.23,59,64.92c.54,8.16,2.71,18.44,7.23,24.57,2,2.71,4.31,3.87,8.43,4.36a49.78,49.78,0,0,0,11,.1A50.78,50.78,0,0,1,80,93.6c-4.12-.49-6.43-1.65-8.43-4.36-4.51-6.13-6.69-16.41-7.23-24.57-.51-7.7,1.61-20,7.05-25.93C73.31,36.69,76.55,35.37,79.92,34.81Z"/><path class="cls-13" d="M87.2,93.77c3.71-.53,5.89-1.71,7.77-4.27,4.51-6.13,6.69-16.41,7.23-24.57.51-7.7-1.61-20-7.05-25.93-3-3.3-9.6-4.71-14.55-4.12a21.72,21.72,0,0,0-6.41.25h0c4.94-.59,11.5.82,14.55,4.12,5.44,5.9,7.56,18.23,7.05,25.93-.54,8.16-2.72,18.44-7.23,24.57-1.89,2.56-4.06,3.75-7.77,4.27-.46.07-.92.13-1.38.17A46,46,0,0,0,87.2,93.77Z"/><path class="cls-13" d="M87.2,93.77a12.13,12.13,0,0,0,5.3-1.82c-8.15,1.54-19.44,1.65-25.4-1.4,1.82,2,4,2.89,7.56,3.31a48.94,48.94,0,0,0,12.54-.09ZM61,77.44c.41,1.58.89,3.13,1.43,4.62Z"/><path class="cls-20" d="M99.79,79.65a68,68,0,0,0,2.59-14.72c.51-7.76-1.62-20.19-7.11-26.14C92.2,35.47,85.59,34,80.6,34.64c-5-.6-11.6.83-14.67,4.15-5.49,6-7.62,18.38-7.11,26.14A67.22,67.22,0,0,0,61.6,80.25c3.16,2.38,4.89,6.05,8.78,9.07l-.9-2.45c4.39,3.61,4.18,3.83,9.78,4.76l-3.6-2.06a104.42,104.42,0,0,0,13.77,2.06l-2.19-.9h6.18c-.59-3.68-.88-4-2.44-7.46l3.6,1.68c-1.78-1.66-3.24-3.23-4.89-5C97,82,97.24,79.9,99.79,79.65Z"/><path class="cls-20" d="M91.56,91.25a33.4,33.4,0,0,0,6-5.35c-.08,3.43-5.66,7.14-7.34,7.88-1.31.58-2-.29-2-.74C88.22,92.92,91.14,91.53,91.56,91.25Z"/><path class="cls-20" d="M70,91.25a33.55,33.55,0,0,1-6-5.35c.08,3.43,5.65,7.14,7.34,7.88,1.31.58,2-.29,2-.74C73.3,92.92,70.38,91.53,70,91.25Z"/><path class="cls-21" d="M91.67,68c-1.76-5.26-2.62-8.35-4.67-12,2.36,9.92,3.55,12,4.48,22.63L88.63,72c-2.45,8.85-.23,12,3.91,18.25-8.86-1.31-22.14-.68-21.81-17.79L69.2,78.72c-1.06-8.31-1.37-12.9,3.43-20.19L67.29,62.7C70,48.15,75.93,49.1,80,41.28,84.21,46.71,90.2,50.48,91.67,68Z"/><path class="cls-22" d="M97.12,78.14c3.34-6,7.29-10.73.74-25.41L101.1,57C99.33,46.65,89.16,42.61,80.71,41.36c6.56,7,8.9,10,10.38,19l.29-4.87a78.24,78.24,0,0,1,.89,24.21c6-5.69,5.76-13.82,5.44-16.92C99.16,68.86,98.91,72.44,97.12,78.14Z"/><path class="cls-23" d="M74.69,85.2c-.8-5.8-.6-15.44.54-23.68s3.19-15,4.59-17.8C72.24,48.11,69.66,56.39,69,59.93c2.37-1.57,3-3.88,5.12-5C71.45,60.67,71,66.81,69.7,73.46c1.59-4.48.84-5.7,3.27-9.67C72,71.58,73.46,77.37,74.69,85.2Z"/><path class="cls-23" d="M90.24,89.32c-3.07-3.06-4.45-5.16-6-13.64a38.17,38.17,0,0,1,2.38,3.09c.65-9.16-.36-12.58-6.29-19.11-1,2.72-2.56,6.27-3.43,8.88-2.43,7.23-4.59,14.39,4.64,19-2.45-2.93-3-6-2.26-10.11C79.85,83.54,81.83,88.54,90.24,89.32Z"/><path class="cls-21" d="M62,79.52c-1.74-6.64-4.45-14.55,1-29.11l-2.48,4.06c2-13,11.18-14.18,19.62-15.43A35.88,35.88,0,0,0,66.33,63.79c-.43,3.46,1.17,1,2.59-.28-2.47,9.59-2.08,19.45.31,24.24C64.7,82.48,63.82,82,63.59,73.89,62.72,75.21,62.26,76.25,62,79.52Z"/><path class="cls-24" d="M86.93,87.95c-4.39-3.12-7.21-6.24-7.6-13.12-1.68,3-2,4-1.45,8.74-4.18-8.07,2.2-19.58,2.68-21.76.46,1.64,3.27,4.05,3.38,16.09-1.34-3.79-1.62-4.92-2.1-5.29C82.09,77.73,83.26,83.14,86.93,87.95Z"/><path class="cls-23" d="M91.09,77.72c-2.58-18.36-5.6-25.27-11-34.11-.47,7.4-4,16.49-4.46,25.55,1.29-4.17,4.48-11.25,4.74-14.3,2.43,4.66,6.8,9.06,7.43,20.17.84-4.86.2-5.85-.48-9.61Z"/><path class="cls-22" d="M100.72,52.66c-4.36-9.81-17.23-11.43-20.67-11.89C82.55,34,89.54,35.68,93,39a11.23,11.23,0,0,0-5.71-1.28C93.54,39,98.26,42.83,100.72,52.66Z"/><path class="cls-25" d="M98.85,68.16c-.86-6-1.14-13.74-6.19-20.25,2.32,1.27,2.75.48,5,2-5.11-6.58-12.59-8.3-16.86-8.7,6,2.78,9.25,8.66,12,17.93L91.13,51.1C93.8,54.65,96,59.56,98.85,68.16Z"/><path class="cls-26" d="M99.11,53.79c-3.18-7.16-8.37-10.54-14-11.44C90.34,44.81,94.07,47.11,99.11,53.79Z"/><path class="cls-26" d="M93.88,67.57a24.74,24.74,0,0,0-5.38-19.5A44.94,44.94,0,0,1,93.88,67.57Z"/><path class="cls-26" d="M100,49.73c-3.18-7.16-8.37-10.54-14-11.44C91.2,40.75,94.92,43.05,100,49.73Z"/><path class="cls-27" d="M100.75,77.34c1.46-10.45.41-17.77-4.07-24.29C98.17,61.47,99.57,67,100.75,77.34Z"/><path class="cls-27" d="M92.12,79.75c2.24-8.32,4.48-13,.41-21.5C93.95,67.06,93,70.64,92.12,79.75Z"/><path class="cls-27" d="M93.49,80.16C99.81,75.74,99,70,98,63.58,97.2,71,97.13,76.39,93.49,80.16Z"/><path class="cls-27" d="M94.33,51.93c-3.09-7.22-7.86-9.47-13.51-10.48C86.05,44,89.22,46.67,94.33,51.93Z"/><path class="cls-27" d="M90.64,37.44c-5.38-2.66-8.75-2.26-10.08,2.47C82.42,36.58,87.45,36.85,90.64,37.44Z"/><path class="cls-23" d="M61.87,78.79c-.28-6.92-.2-9.85,2.67-18.8l-.66,8.24c3.41-17.93,6.3-21.49,13.9-28-6.2,1.31-11.9,4.57-15.52,10.61L65,49c-2.14,2.47-2.25,4.64-4.19,11.37L63,58.13C60.5,65.17,60.39,69.17,61.87,78.79Z"/><path class="cls-21" d="M80.66,38.88c-7.37-.51-14.1,2.42-17.14,6.26,3.77-7.9,10.71-9.3,14.72-8.24L76,35.57C78,34.87,80.78,36.88,80.66,38.88Z"/><path class="cls-21" d="M86.25,90.73c-9.31-2.94-11.53-3.16-14.81-13-.86,6.36-1,9.69,4,13A10.43,10.43,0,0,1,73,85.59C75.48,88.48,78.79,90.23,86.25,90.73Z"/><path class="cls-21" d="M93.14,80.43c5.39-10.33,5.81-13.21,3.42-22.59C97,69.17,97.5,70.24,93.14,80.43Z"/><path class="cls-21" d="M95.63,68.9c.57-5.23,1.43-9.21-4-16.49C94.51,57.59,94.49,62,95.63,68.9Z"/><path class="cls-21" d="M94.41,44.39c-3.52-3.07-6.47-6.28-14.3-3.85A32.57,32.57,0,0,1,94.41,44.39Z"/><path class="cls-24" d="M69.52,77.28c-.73-12.54.42-13.89,5-19.27C71.69,64.87,70.18,69.48,69.52,77.28Z"/><path class="cls-24" d="M84,66.32c-.26,4.26,1.76,7.5,1.89,14.25C87.51,73.46,84.74,70.67,84,66.32Z"/><path class="cls-24" d="M79.83,42.24c.29,5-4.1,5.92-8,12.07C72.53,48.85,77.29,45.33,79.83,42.24Z"/><path class="cls-24" d="M73.5,83.68c1.28,4.5,4.32,6.13,10.12,6.56C77,88.59,75.9,86.77,73.5,83.68Z"/><path class="cls-24" d="M85.08,79.53c1.29,2.94,2.58,6.81,5.65,9.72C87,86.75,85.09,83.48,85.08,79.53Z"/><path class="cls-24" d="M71.6,72.26c3.11,3.63,1.73,9.65,7.13,14.83C72.7,83.43,71.28,80.54,71.6,72.26Z"/><path class="cls-24" d="M89.61,63c-1.08-12.5-2.4-13.59-7.63-17.92C85.69,51.3,87.84,55.51,89.61,63Z"/><path class="cls-24" d="M90.37,75C89.29,62.5,85.5,54.33,81.6,47.1,84.17,54,88.6,67.47,90.37,75Z"/><path class="cls-24" d="M77.69,62.93c0-7.74,1-11.61,2.87-18.62C79.61,50.6,80.51,53.89,77.69,62.93Z"/><path class="cls-24" d="M86.41,66.41c-3.5-10.63-5.95-11.23-5.86-18.94C82.57,54.71,84.94,56.72,86.41,66.41Z"/><path class="cls-24" d="M76.57,65.53c-2.71-12.13-1.42-11.58,2.18-17.92C76.64,52.09,76,57.72,76.57,65.53Z"/><path class="cls-24" d="M74.76,77.55c-2.85-8.64-3.6-8.5-.76-17C73.4,66.61,73.36,69.82,74.76,77.55Z"/><path class="cls-24" d="M74,90.08c-2.26-4.85-4.08-7.85-3.89-13.2C68.76,84,70.47,86.88,74,90.08Z"/><path class="cls-24" d="M68.63,84.82c-4.24-11.46-3.55-13.21-.82-20.16C67.16,72.26,67,77.22,68.63,84.82Z"/><path class="cls-28" d="M91.47,90.18c-6.25-.58-10.74-.75-14.46-6.09C81.13,87.45,83.71,88.25,91.47,90.18Z"/><path class="cls-28" d="M86.79,87.56c-3.29-2.71-5.73-4.5-5.93-9.27C82,82,83.14,83.43,86.79,87.56Z"/><path class="cls-28" d="M78,58.58c0-7.74.68-7.26,2.58-14.27C79.33,49.82,80.17,47.79,78,58.58Z"/><path class="cls-28" d="M89.13,69.89c-2.47-10.19-4.82-10.75-5.86-18.95C85.29,58.2,87.65,60.2,89.13,69.89Z"/><path class="cls-28" d="M69.71,74.91c.62-6.2,1.26-8.71,3.6-15C73.56,62.66,71.28,65.7,69.71,74.91Z"/><path class="cls-28" d="M68.15,82.52c-1.18-6.08-1.29-8.7-.89-15.63C68.28,69.4,67,73.22,68.15,82.52Z"/><path class="cls-28" d="M80.44,79.93c-1.62-5.62-1.85-9.13.11-18.12C81.3,64.46,79.12,69.84,80.44,79.93Z"/><path class="cls-28" d="M78.92,81.9c-2.62-5.67-3.28-9.88-.6-17.07A29,29,0,0,0,78.92,81.9Z"/><path class="cls-28" d="M61,70.32c0-6,.79-9.36,5.14-17C66.1,56.12,62.55,60.29,61,70.32Z"/><path class="cls-28" d="M63.52,49.56c3.19-4.51,5.58-6.5,13-8.91C75,42.76,70,43.14,63.52,49.56Z"/><path class="cls-28" d="M68.35,46.65c-2,3.37-2.87,7.67-6.62,12.3C63.44,53.61,65.38,48.84,68.35,46.65Z"/><path class="cls-28" d="M65.38,43.47c3.19-4.51,8-6.62,14.62-4.9C76.28,38.47,69.61,39.78,65.38,43.47Z"/></svg>