<svg id="Capa_1" data-name="Capa 1" xmlns="http://www.w3.org/2000/svg" xmlns:xlink="http://www.w3.org/1999/xlink" viewBox="0 0 160 178"><defs><style>.cls-1{fill:none;}.cls-2{clip-path:url(#clip-path);}.cls-3{fill:#21211d;}.cls-10,.cls-11,.cls-12,.cls-13,.cls-14,.cls-15,.cls-16,.cls-17,.cls-18,.cls-19,.cls-20,.cls-21,.cls-22,.cls-23,.cls-24,.cls-25,.cls-3,.cls-4,.cls-5,.cls-8,.cls-9{fill-rule:evenodd;}.cls-5{fill:#363632;}.cls-6{fill:#5c5c69;}.cls-7{fill:#7c7c8a;}.cls-8{fill:#a2a2ab;}.cls-9{fill:#21201f;}.cls-10{fill:#383735;}.cls-11{fill:#e8a477;}.cls-12{fill:#f1b287;}.cls-13{fill:#2d466e;}.cls-14{fill:#34507d;}.cls-15{fill:#263b5c;}.cls-16{fill:#f4bc97;}.cls-17{fill:#2b1c1f;}.cls-18{fill:#423330;}.cls-19{fill:#4d3c38;}.cls-20{fill:#2e2321;}.cls-21{fill:#57433f;}.cls-22{fill:#614b47;}.cls-23{fill:#6e5650;}.cls-24{fill:#211918;}.cls-25{fill:#261d1b;}</style><clipPath id="clip-path"><rect class="cls-1" x="5.03" y="1" width="149.94" height="105.41"/></clipPath></defs><title>Mesa de trabajo 1</title><g class="cls-2"><path class="cls-3" d="M44.45,67.21c2.15-3.33,19.6-5.68,37-5.1,15.8.52,31.54,3.47,35.62,10.28,7,11.66,12.35,59.69-9.27,60.81-22.44,1.16-38,.7-60.38-1.06C28.39,128.22,36.22,80,44.45,67.21Z"/><path class="cls-4" d="M50,67.21c2.14-3.15,15.59-5.68,30.53-5.1,13.59.52,28.09,3.47,31.6,10.28,6,11.66,12.85,60.33-5.75,61.44-19.31,1.16-40-1.52-59.25-3.28C30.79,126.63,41.33,80,50,67.21Z"/><path class="cls-5" d="M45.39,66.34c4.34-2.86,20.22-4.76,36-4.23S113,65.58,117,72.39c6.64,11.08,11.81,55-6.23,60.29,14.59-8.93,9.64-48.57,3.37-59-4.08-6.81-19.82-9.76-35.62-10.28C65.24,62.94,51.87,64.22,45.39,66.34Z"/><path class="cls-4" d="M25.9,41.43c1-3.91,2.7-8.86,2.4-16.61C27.81,12.07,34,9.69,49.51,10.67c12.64.81,21.23,0,30.94,0,8.94,0,21.07.8,30.06.49,10.72-.37,20.43,2.34,20.17,12.41-.12,4.39-1.68,12.5.08,17.47C139,64.34,93.17,76.36,74.37,74.57,57.62,74.6,20.23,64.12,25.9,41.43Z"/><path class="cls-3" d="M110.21,11.16h.3c10.72-.37,20.43,2.35,20.17,12.41-.12,4.39-1.68,12.5.08,17.47,8,22.53-34.56,34.51-54.4,33.67,21-.77,57.74-12.61,50.27-33.67-1.76-5-.2-13.08-.08-17.47C126.78,14.71,119.3,11.54,110.21,11.16Z"/><rect class="cls-6" x="17.21" y="59.41" width="15.85" height="75.07" rx="6.29" ry="6.29"/><rect class="cls-7" x="19.71" y="59.41" width="10.85" height="75.07" rx="4.31" ry="4.31"/><path class="cls-8" d="M27.05,132.89H24.81a4.36,4.36,0,0,1-3.17-1.35,4.36,4.36,0,0,0,1.9.43h2.24a4.25,4.25,0,0,0,4.31-4.17V63.48a4.08,4.08,0,0,0-1.14-2.81,4.17,4.17,0,0,1,2.41,3.74v64.32A4.25,4.25,0,0,1,27.05,132.89Z"/><rect class="cls-6" x="124" y="59.41" width="15.85" height="75.07" rx="6.29" ry="6.29"/><rect class="cls-7" x="126.5" y="59.41" width="10.85" height="75.07" rx="4.31" ry="4.31"/><path class="cls-8" d="M133.84,132.89H131.6a4.36,4.36,0,0,1-3.17-1.35,4.37,4.37,0,0,0,1.9.43h2.24a4.25,4.25,0,0,0,4.31-4.17V63.42a4.09,4.09,0,0,0-1.13-2.82,4.17,4.17,0,0,1,2.4,3.74v64.38A4.25,4.25,0,0,1,133.84,132.89Z"/><path class="cls-3" d="M28.46,29.38C25.4,13.43,31.75,6.78,47.28,8,59.93,9,70.74,9.67,80.45,9.7c8.94,0,21.86-1.31,30.85-1.7,15.56-.67,21.69,3,19.3,20.2-1.52,10.94-26.72-4.84-53.61-4C52.17,24.92,29.38,34.17,28.46,29.38Z"/><path class="cls-5" d="M80.45,9.7c8.94,0,21.86-1.31,30.85-1.7,15.56-.67,21.69,3,19.3,20.2-.36,2.59-2.05,3.68-4.77,3.85v0c1.23-8.84.23-14.12-3.19-17C116.64,9.83,95.43,13.33,80.45,9.7Z"/><path class="cls-4" d="M78.34,9.7C69.4,9.72,56.49,8.39,47.5,8c-15.56-.67-21.69,3-19.3,20.2.36,2.59,2.05,3.68,4.77,3.85v0c-1.23-8.84-.23-14.12,3.19-17C42.15,9.83,63.37,13.33,78.34,9.7Z"/><path class="cls-9" d="M55,75.64l25.85,10c15.08-4.41,16.18-6.23,21.57-4,10.61,4.48,11.54,20.81,14.88,36.17,3.41,15.69,9,26.14,5.39,36.75-6.46,18.86-15.82,11.36-19.57,3.51-3.43-7.18-8-22.35-12.77-34.2-2.59-6.41-2.91-12.24-6.7-14-3.33-1.57-5.52-1.17-6.68.3-.39.49-1.91,7.83-3.68,16.93-4.92,25.26-7.18,34.22-12.58,36.77C52.12,168,48.22,165,45.26,160.14c-4.89-8,1.51-47.14,5.19-70.52C51.83,80.84,50.07,79,55,75.64Z"/><path class="cls-4" d="M95.19,81.23a9.57,9.57,0,0,1,7.25.5c10.61,4.48,11.54,20.81,14.88,36.17,3.41,15.69,9,26.14,5.39,36.75s-8.13,12.85-12.07,11.46c2.55-1.32,5.1-4.69,7.31-11.14,1.55-4.53-1.63-21.45-5.22-36.59-3.21-13.56-6.66-25.7-8.86-26.24-8.06-2-30.7,2.73-48.61-4.36-.93-.37,40.7-6.38,39.94-6.54Zm-10.9,28.62c-1.76-3-5.49-3.22-8.35-2.15-6,2.25-6.29,14.12-7.39,19.78C63.63,152.74,61.37,161.7,56,164.25a22.78,22.78,0,0,1-3.87,1.45c2.23.4,5-.06,8.63-1.77,5.41-2.55,7.67-11.51,12.59-36.77,1.77-9.1,3.29-16.44,3.68-16.93C77.15,110,79.48,107.78,84.29,109.85Z"/><path class="cls-10" d="M55,75.64l4.45,1.91c-5,3.34-3.2,5.2-4.58,14C51.22,114.91,44.82,154,49.71,162a15.23,15.23,0,0,0,3,3.75c-3.46-.34-5.65-2.64-7.49-5.65-4.89-8,1.51-47.14,5.19-70.52C51.83,80.84,50.08,79,55,75.64Z"/></g><path class="cls-11" d="M100.87,111.86a.42.42,0,0,1-.13-.6c.46-.66,2.71-1.54,2.92-1.65-.06.37.07.74-.2,1.12a3.57,3.57,0,0,1-1.31,1.06A1.76,1.76,0,0,1,100.87,111.86Z"/><path class="cls-11" d="M99.51,106.94a.41.41,0,0,1-.14-.61c.52-.61,3-1.25,3.28-1.35-.07.37.08.74-.22,1.1A3.49,3.49,0,0,1,101,107,2.21,2.21,0,0,1,99.51,106.94Z"/><path class="cls-12" d="M74.14,123c6.73-1,7,.19,13.08.58a40.8,40.8,0,0,0,6.25-.4,29.41,29.41,0,0,0,5.66-.92c1.17-.4,2-1.22,1.45-2.45,1.06-.33,2.95-.33,3.45-1.17a3.09,3.09,0,0,0-.11-2.85,3.49,3.49,0,0,0,1.81-1c.44-.59.38-2.56.37-3.42,0-1.67-1.24-1.73-2.59-2a4.14,4.14,0,0,0,1.12-2.6,2,2,0,0,0-2-1.83,13.38,13.38,0,0,1-3.76,2.47c.89-.9,1.38-1.24.79-3.19a25.42,25.42,0,0,1-4.79.6c-3.46.14-4.94-.56-6.9.06-7.11,2.26-6.06,6.11-13.78,5.31L74.14,123Zm29.22-13.17a3.08,3.08,0,0,1-1.33,1.58A30.84,30.84,0,0,1,96.66,113c1.15-.83,3.73-1.51,4.68-2.1A9.81,9.81,0,0,1,103.37,109.88Z"/><path class="cls-11" d="M100.16,121.74a1.53,1.53,0,0,0,.42-1.89c.48-.15,1.12-.23,1.73-.35a27.29,27.29,0,0,0-3.5.1c-.28,0-2.43.51-2.49.56-.43.36.82.14,1.79,0a6.07,6.07,0,0,1,1.64-.12,1.14,1.14,0,0,1,.58,1.17,1.53,1.53,0,0,1-.18.52Zm4-5.45a2.42,2.42,0,0,0-.22-.47c.37-.12.67-.22.91-.33h-.49a26.08,26.08,0,0,0-5.58.92c-1.1.3-2,.67-1.88.85a5.76,5.76,0,0,0,1.67-.33,19.59,19.59,0,0,1,5.38-.7.71.71,0,0,1,.22,0Zm0-6.7-.63-.11.07-.09,0,0a12,12,0,0,0-1.89,1.35l1.73-.89c-.5.67-.66,1.2-1.15,1.49-.92.56-2.17.53-3.25.82-.81.22-2.57.75-2.74,1.22,0,.07,1.73-.46,2.94-.72,1.5-.31,3.22-.47,3.87-.94.32-.23.24-.62.42-.95s.59-.42.63-.73a2.77,2.77,0,0,0,0-.49Zm-5.08-2.13c-2,1.35-3.79,1-7.23.66-.81-.09-1.53-.66-.19-.58,1.89.12,5,.52,6.69-.42a2.26,2.26,0,0,0,1.1-2.19,21.16,21.16,0,0,1-4.87.7,24.41,24.41,0,0,0-7.25,1.31c-3.87,1.44-6.09,6.78-13.1,5.09v-1.7c7.72.8,6.67-3.05,13.78-5.31,2-.62,3.45.08,6.9-.06a25.42,25.42,0,0,0,4.79-.6c.59,1.95.1,2.29-.79,3.19Z"/><path class="cls-13" d="M113.77,92.64C88.91,97,73.16,99.86,46.84,91.47,32.74,87,31.29,76.74,31.29,65.31c0-10.11,26.05-15,51.44-14.79,24.15.24,47.45,5.41,47.24,15C129.78,74.51,130.92,89.62,113.77,92.64Z"/><path class="cls-14" d="M31.37,69.32c-.06-1.31-.08-2.65-.08-4,0-10.11,26.05-15,51.44-14.79,24.15.24,47.45,5.41,47.24,15,0,2.26,0,4.9-.21,7.65,0-1.24.08-2.43.14-3.53.45-9.61-22.06-18-46.19-18.83-6-.21-28.91,2.61-42.35,8.26-6,2.51-9.89,6.32-10,9.4Z"/><path class="cls-15" d="M60.61,95.06a124.23,124.23,0,0,1-13.77-3.59C35.4,87.83,32.29,80.41,31.52,71.64,36.58,78.28,42,84.14,45.31,86.45A162.7,162.7,0,0,0,60.61,95.06Z"/><path class="cls-15" d="M82.74,50.52c19.75.2,38.92,3.69,45.15,10.21l-7.16-.56c-3.52-2-12.48-4.11-20.61-5.89C93.13,52.75,87,51.52,82.74,50.52Z"/><path class="cls-13" d="M47.57,89.94c-5.52.92-6.14,4.65-14.09,13,8.16-2.76,34.12,2.87,46.06,2.87-1.88,6.84-.76,14.5.13,19.05-14.65-.75-35.25,1.38-61.92-7.61-4.54-1.53-6.17-1.49-7.53-4.41-.91-1.95-.52-4.26-.19-7.67C11.29,92.51,25,56,40.53,58.75l11,8Z"/><path class="cls-14" d="M79.31,122.94c.12.7.24,1.36.36,2-14.65-.75-35.25,1.38-61.92-7.61-4.54-1.53-6.17-1.49-7.53-4.41-.91-1.95-.52-4.26-.19-7.67C11.29,92.51,25,56,40.53,58.75l.91.66a17.57,17.57,0,0,0-7.65,3C33,63,31.11,65.7,34.88,78.67c-2.28-3.52-4-12-3.7-14.25-9.68,9.94-17.92,30.37-18.79,39.23-.33,3.4-.72,5.72.19,7.67,1.36,2.92,3,2.88,7.52,4.41C44.16,123.84,64.75,122.69,79.31,122.94Z"/><path class="cls-15" d="M47.57,89.94c-5.52.92-6.14,4.65-14.09,13,8.16-2.76,34.12,2.87,46.06,2.87a27.43,27.43,0,0,0-.76,3.88c-1.35-.51-2.83-1-4.46-1.53-11.94,0-38.94-3.81-47.1-1,7.95-8.4,12.88-19.3,18.4-20.22l2.46,1.41Z"/><path class="cls-11" d="M85.91,159.7a.43.43,0,0,0-.35-.53c-.82-.14-3.09.89-3.33.95.32.23.49.59,1,.67a3.72,3.72,0,0,0,1.73-.19A1.83,1.83,0,0,0,85.91,159.7Z"/><path class="cls-11" d="M83.27,155.14a.43.43,0,0,0-.34-.55c-.83-.06-3.13,1.34-3.37,1.44.32.21.49.6,1,.64a3.59,3.59,0,0,0,1.74-.41A2.3,2.3,0,0,0,83.27,155.14Z"/><path class="cls-12" d="M113,147.79c-5.21,4.59-4.39,5.61-8.53,10.38a41.79,41.79,0,0,1-4.82,4.31,30.28,30.28,0,0,1-4.78,3.5c-1.14.57-2.32.56-2.85-.71-1,.55-2.37,1.94-3.36,1.69a3.18,3.18,0,0,1-2-2.14,3.53,3.53,0,0,1-2,.64c-.75-.1-2.16-1.57-2.79-2.2-1.21-1.22-.38-2.17.43-3.33a4.28,4.28,0,0,1-2.72-1.06,2,2,0,0,1,.08-2.78,13.85,13.85,0,0,0,4.54-1c-1.31,0-1.92.12-2.92-1.73a26.28,26.28,0,0,0,3.91-3.09c2.61-2.44,3.16-4,5-5,6.81-3.6,10.93.26,15.94-6l6.86,8.52ZM82.64,160.1a3.17,3.17,0,0,0,2.12.16,31.43,31.43,0,0,0,5.05-2.81c-1.44.25-3.81,1.66-4.93,1.92A10.15,10.15,0,0,0,82.64,160.1Z"/><path class="cls-12" d="M113,147.79c-5.21,4.59-4.39,5.61-8.53,10.38a41.79,41.79,0,0,1-4.82,4.31,30.28,30.28,0,0,1-4.78,3.5c-1.14.57-2.32.56-2.85-.71-1,.55-2.37,1.94-3.36,1.69a3.18,3.18,0,0,1-2-2.14,3.53,3.53,0,0,1-2,.64c-.75-.1-2.16-1.57-2.79-2.2-1.21-1.22-.38-2.17.43-3.33a4.28,4.28,0,0,1-2.72-1.06,2,2,0,0,1,.08-2.78,13.85,13.85,0,0,0,4.54-1c-1.31,0-1.92.12-2.92-1.73a26.28,26.28,0,0,0,3.91-3.09c2.61-2.44,3.16-4,5-5,6.81-3.6,10.93.26,15.94-6l6.86,8.52ZM82.64,160.1a3.17,3.17,0,0,0,2.12.16,31.43,31.43,0,0,0,5.05-2.81c-1.44.25-3.81,1.66-4.93,1.92A10.15,10.15,0,0,0,82.64,160.1Z"/><path class="cls-11" d="M110.14,150.55c-2.27,2.53-2.54,4-5.69,7.63a42,42,0,0,1-4.82,4.31c-1.34,1.13-6.31,5.91-7.63,2.79.3-.15,1.17,1.46,3,.14a59.35,59.35,0,0,0,8.55-7.73c4.13-4.78,1.92-6,7.12-10.57,0,0,.3-.41.92-1l.91,2C111.7,148.92,110.88,149.73,110.14,150.55Z"/><path class="cls-11" d="M93.69,166.33a1.58,1.58,0,0,1-1.7-1.06c-.45.25-1,.66-1.51,1a28.13,28.13,0,0,1,2.61-2.51c.24-.17,2.13-1.41,2.21-1.42.58-.05-.49.71-1.29,1.32a6.17,6.17,0,0,0-1.28,1.13,1.18,1.18,0,0,0,.44,1.28,1.57,1.57,0,0,0,.52.24Zm-6.9-1a.69.69,0,0,1,.12-.2,20.18,20.18,0,0,1,4.41-3.45c.71-.46,1.46-.84,1.45-1s-1,.18-2,.76a27.23,27.23,0,0,0-4.72,3.44l-.36.36c.26-.1.55-.25.9-.43a2.57,2.57,0,0,0,.18.5Zm-4.93-4.85.38-.54h-.08a12,12,0,0,1,2.37-.41l-1.91.62a5.64,5.64,0,0,0,1.93.24c1.08-.27,2-1.22,3-1.8.75-.44,2.41-1.35,2.89-1.13.07,0-1.59.93-2.66,1.64-1.32.88-2.68,2-3.5,2.17-.4.07-.62-.27-1-.37s-.74.13-1-.06a3.2,3.2,0,0,1-.37-.35ZM84,155.19c2.48-.53,3.49-2,5.72-4.85.52-.65.62-1.61-.29-.56-1.28,1.48-3.27,4.1-5.15,4.62a2.33,2.33,0,0,1-2.41-.77,22,22,0,0,0,4-3.08,25.21,25.21,0,0,1,6.21-4.39c3.85-1.81,8.75-.23,13.7-5.75l-.42-1c-5.8,5.33-8.39,2.23-15.2,5.83-1.88,1-2.44,2.59-5,5a26.28,26.28,0,0,1-3.91,3.09c1,1.85,1.62,1.73,2.92,1.73Z"/><path class="cls-16" d="M81.42,153.73l-.19-.34a26.28,26.28,0,0,0,3.91-3.09c2.61-2.44,3.16-4,5-5,6.8-3.6,9.29-.53,15.09-5.86l.52,1c-4.95,5.52-9.84,3.94-13.7,5.75a25.21,25.21,0,0,0-6.21,4.39,22,22,0,0,1-4,3.08l0,0Z"/><path class="cls-13" d="M114.44,89.94c5.52.92,9.28,7,17.22,15.4l20.12,7.55c.91-1.95.52-4.26.19-7.67-1.25-12.71-15-49.2-30.49-46.46l-11,8Z"/><path class="cls-14" d="M117.91,91.27c3.92,2.38,7.57,7.52,13.76,14.06l2.74-.65c-8.08-9.18-11-15.39-16.51-16.31Z"/><path class="cls-15" d="M149.19,111.91l2.6,1c.91-1.95.52-4.26.19-7.67-1.14-11.56-12.64-42.82-26.36-46.29a9.76,9.76,0,0,0-4.13-.17l-4.06-.09c1.95,1,6.47,2,9.52,4.67a38.91,38.91,0,0,1-4.75,17.35c4.2-3.54,6.06-12.85,6.31-15.86,10.62,8.77,19.64,30.41,20.6,40.13C149.4,107.95,149.73,110.1,149.19,111.91Z"/><path class="cls-13" d="M132.56,102.59c-6.09,2.93-21.31,30.58-30.89,36.27,4.77,4.59,7.52,11.27,9,15.35,11.4-7.58,22.67-19.07,39.78-39,2.91-3.39,1.61-6.26,1.31-9.26-.2-2-1.61-3.67-3.5-6.24Z"/><path class="cls-13" d="M132.56,102.59c-6.09,2.93-21.31,30.58-30.89,36.27,4.77,4.59,7.52,11.27,9,15.35,11.4-7.58,22.67-19.07,39.78-39,2.91-3.39,1.61-6.26,1.31-9.26-.2-2-1.61-3.67-3.5-6.24Z"/><path class="cls-14" d="M132.56,102.59c-6.09,2.93-21.31,30.58-30.89,36.27a25.49,25.49,0,0,1,2,2.23c4.7-3.34,11.34-11.5,16.39-18.1s9.72-15,14-18.76Z"/><path class="cls-15" d="M109.69,151.67c.37.92.69,1.77,1,2.54,11.4-7.58,22.67-19.07,39.78-39,2.91-3.39,1.61-6.26,1.31-9.26s-3.19-4.86-4.11-8.87c.51,2.59,1.57,7.58,1.76,9.39.3,3,1.68,4.37-1.31,7.69C132,132,121,143.09,109.69,151.67Z"/><path class="cls-12" d="M85.45,108.79c-1,2.71-2.4,6.44-4.74,6.32-2.56,0-3.63-3.37-4.74-6.32l1.19-3.16,1.18-3.16h4.74l1.19,3.16Z"/><path class="cls-11" d="M81.1,115.1c.93-1.25,1.21-3.46.65-6.23.19.37,1.46.1,1.64.38-.78,1.44.36,2.42.11,3.37a2.46,2.46,0,0,1-.86,1.19C82.15,114.25,82.06,114.78,81.1,115.1Z"/><path class="cls-16" d="M80.24,115.1c-.93-1.25-1.21-3.46-.65-6.23-.19.37-1.46.1-1.64.38.78,1.44-.36,2.42-.11,3.37a2.47,2.47,0,0,0,.86,1.19C79.18,114.25,79.27,114.78,80.24,115.1Z"/><path class="cls-12" d="M72.09,107.65a17,17,0,0,1-8.74-7.84c-2.12-4.29-3.07-10.53-3.57-16.22C59,74.65,60,65,64.24,58.51c3.2-4.88,9-7.44,16.57-7.19C90,51,96.07,55.55,99,62.32c2.71,6.21,3.28,14.18,2.62,21.66-.5,5.69-1.27,11.54-3.38,15.84a17,17,0,0,1-8.74,7.84A24.67,24.67,0,0,1,72.09,107.65Z"/><path class="cls-16" d="M72.09,107.65a17,17,0,0,1-8.74-7.84c-2.12-4.29-3.07-10.53-3.57-16.22C59,74.65,60,65,64.24,58.51c3-4.57,8.28-7.11,15.16-7.21C68.29,58,62.66,66.13,64.18,85.6c.63,8.1,2.69,18.9,15,23.42l0,.17A23.31,23.31,0,0,1,72.09,107.65Z"/><path class="cls-11" d="M80.59,51.31h.23C90,51,96.07,55.55,99,62.32c2.71,6.21,3.28,14.18,2.62,21.66-.5,5.69-1.27,11.54-3.38,15.84a17,17,0,0,1-8.74,7.84,23.56,23.56,0,0,1-7.67,1.57c11.77-4.73,14.78-13.93,15.4-21.93C98.8,67.45,92.13,58,80.59,51.31Z"/><path class="cls-11" d="M72.09,107.65a17.11,17.11,0,0,1-2.83-1.45q.47.23.93.41a30,30,0,0,0,6,1.66h9.1A23.76,23.76,0,0,0,90.85,107l.57-.24a16.39,16.39,0,0,1-1.89.9,22.11,22.11,0,0,1-4.08,1.16c-.2.54-.42,1.12-.66,1.7-.59-1.19-1.82-1-3-.68-1.69.51-.83.45-2.41-.07a2.22,2.22,0,0,0-2.74.75c-.22-.57-.43-1.16-.65-1.73h0A22,22,0,0,1,72.09,107.65Z"/><path class="cls-17" d="M91.71,105.49A34,34,0,0,0,97.84,100c-.08,3.51-5.78,7.3-7.51,8.06-1.34.59-2.06-.3-2-.76C88.29,107.19,91.28,105.77,91.71,105.49Z"/><path class="cls-17" d="M69.63,105.49A34,34,0,0,1,63.5,100c.08,3.51,5.78,7.3,7.51,8.06,1.34.59,2.06-.3,2-.76C73,107.19,70.06,105.77,69.63,105.49Z"/><path class="cls-11" d="M60.24,87.67c-.12-1,.07-2.51,0-3.48l39.87-.73c-.08.87,1.22,3.21,1.13,4.08-1.44.25-.76,1.08-1.52,3.78a8.3,8.3,0,0,1-1.26,3.07c-.61.21.48-6-1.21-5.92-.3,0-.85,1.31-1.29,2.74-1.94,6.3-6.5,9.45-12,13,.59-1,.68-1.57.92-1.87-2.55,1.87-5,3.78-6.3,3.73a9.07,9.07,0,0,0-3.13-4.58c-3.37-1.29-4.64-1.48-9.3-10.28S65.1,95.06,63,94.06C61.53,93.39,62.14,89,60.24,87.67Z"/><path class="cls-11" d="M102.16,81.27c1.6-1.43,1.56-3,2.15-4.56.49-1.31,1.5-3,1.58-4.68.15-3-3-4.66-3.92-.9C100.85,76,100.36,76.91,102.16,81.27Z"/><path class="cls-12" d="M59.11,81.27c-1.59-1.43-1.56-3-2.15-4.56-.49-1.31-1.5-3-1.58-4.68-.14-3,3-4.66,3.92-.9C60.42,76,60.91,76.91,59.11,81.27Z"/><path class="cls-18" d="M60.12,87c-.12-1-.69-2.41-.78-3.38-.81-8.94.19-18.58,4.55-25.09,3.27-4.88,9.19-7.44,16.92-7.19,9.4-.28,15.57,4.23,18.59,11,2.76,6.21,3.35,14.18,2.67,21.66a10.73,10.73,0,0,1-.6,2.87c-1.45.25-.73.85-1.49,3.55a8.26,8.26,0,0,1-1.26,3.07c-.61.21-.3-6.12-2-6.06-.3,0-.65.72-1.09,2.16-1.94,6.3-4.9,9.62-10.35,13.14a24.6,24.6,0,0,0,3.37-5.36c-4.05,5.59-6.62,6.74-9.76,7.77-.76-2.89-4.36-5-6.64-7.73a12.67,12.67,0,0,0,2.85,3.51c-5.52-2.91-6.18-7.53-8.25-10.77-1.85-2.89-3.2-3.8-3.74-3.72-1.15.19.59,7.27-.25,6.59C61.63,92,62,88.37,60.12,87Z"/><path class="cls-19" d="M91.32,78.72c-1.75-4.29-2.61-6.82-4.65-9.76,2.36,8.11,3.53,9.84,4.46,18.48l-2.84-5.5c-.53,12.18,1.55,16.45-9,21.9-.88-7.33-9.14-7.54-8.82-21.52l-1.52,5.12c-1.06-6.79-1.36-10.54,3.41-16.49l-5.31,3.41c2.74-11.89,8.59-11.11,12.69-17.5C83.89,61.29,89.85,64.37,91.32,78.72Z"/><path class="cls-20" d="M98.9,92.19c1.73-5.42,5.09-14-1.42-26l3.22,3.51c-1.75-8.48-11.88-11.77-20.29-12.8,6.53,5.69,8.86,8.15,10.33,15.55l.29-4c3.57,14.24,2.08,24-2.28,31.09C93.58,95.18,96.91,87,96,80.34,98,86.58,99,85.55,98.9,92.19Z"/><path class="cls-21" d="M75.05,86.86c-.28-5.07-.73-5.22.38-10.33l.85.76c-.66-6.62-1.67-8.29,1.23-14.79-3.24,3.44-6.56,6.78-9.67,10.33a40.14,40.14,0,0,1,5.69-3.41c-2,4.94-3.47,8.23-4,13.74,1.08-3.78,1.63-4.52,3.6-8C73.05,81.62,73,80.62,75.05,86.86Z"/><path class="cls-21" d="M82.52,99.65c2.35-4.11,2.94-7.77,1.42-14.69,0,0,1.71,5,2,5.5.64-7.48,0-13.24-5.88-18.58-1,2.22-2.54,5.12-3.41,7.25C74.23,85,79.07,88.85,79.87,95c.1-4.06-.25-4.59-.85-8.63C80.82,91.54,82.85,95.15,82.52,99.65Z"/><path class="cls-19" d="M62.17,90.29c-1.73-5.42-4.81-14.08.67-26l-2.46,3.32C62.41,57,71.5,56.05,79.9,55,72,60.1,67.36,66.89,66.09,75.25c-.43,2.82,1.16.79,2.57-.23-2.45,7.84,1.17,19.22,3.55,23.14-4.64-5.92-8.82-13-8-19.72C62.3,84.68,62.1,83.65,62.17,90.29Z"/><path class="cls-22" d="M79.52,57.64c.29,4.1-4.09,4.84-8,9.86C72.27,63,77,60.17,79.52,57.64Z"/><path class="cls-22" d="M74,92.9c1.27,3.68,5.32,5.32,5.31,10.57C81.25,98.16,76.38,95.43,74,92.9Z"/><path class="cls-22" d="M87.14,92.72c-1.74,3.26-3.48,7.56-7.63,10.78C84.61,100.73,87.13,97.1,87.14,92.72Z"/><path class="cls-22" d="M80.52,101.44c2.08-9.86-3.89-10.1-4.36-14.69C76.07,94.52,80.41,93.49,80.52,101.44Z"/><path class="cls-22" d="M82.91,86.76c0,3.7,1.89,6.74-1.3,12.69C85.61,95,85,90.61,82.91,86.76Z"/><path class="cls-22" d="M71.34,82.16c3.1,3,1.72,7.89,7.09,12.12C72.43,91.29,71,88.93,71.34,82.16Z"/><path class="cls-22" d="M87.92,96.89c3.7-9.58,2.93-11-.09-16.49C88.82,86.57,89.16,90.61,87.92,96.89Z"/><path class="cls-22" d="M69.26,86.26c-.72-10.24.41-11.35,4.93-15.74C71.43,76.13,69.93,79.89,69.26,86.26Z"/><path class="cls-22" d="M83.72,77.31c-.26,3.48,1.75,6.12,1.88,11.64C87.18,83.15,84.42,80.86,83.72,77.31Z"/><path class="cls-23" d="M80.34,102.58c.77-5.09,1.56-8.7-2.84-12.61C79.89,93.85,80.12,96,80.34,102.58Z"/><path class="cls-23" d="M82.14,95.62c1.48-3.26,2.69-5.53.49-9C83.5,89.69,83.23,91.2,82.14,95.62Z"/><path class="cls-22" d="M82.72,95.24c-3.65-9.81-5.21-11.31-2.47-21.61.46,1.34,3.26,3.31,3.36,13.14-1.33-3.1-1.61-4-2.09-4.32A98.41,98.41,0,0,0,82.72,95.24Z"/><path class="cls-23" d="M80.14,88.43c-1.61-4.59-1.84-7.46.12-14.8C81,75.79,78.83,80.19,80.14,88.43Z"/><path class="cls-23" d="M78.62,90C76,85.41,75.36,82,78,76.09A19.66,19.66,0,0,0,78.62,90Z"/><path class="cls-21" d="M90.74,86.62c-2.56-15-5.57-20.65-11-27.87-.47,6-4,10.24-2.28,18.58A41.67,41.67,0,0,0,80,68c3.05,6.3,6.83,7.66,7.58,24,.84-4-.37-11.5-.66-15.36Z"/><path class="cls-22" d="M89.26,74.64C88.19,64.43,86.88,63.54,81.67,60,85.36,65,87.5,68.48,89.26,74.64Z"/><path class="cls-22" d="M90,84.4c-1.07-10.21-4.85-16.88-8.73-22.79A212.28,212.28,0,0,1,90,84.4Z"/><path class="cls-22" d="M77.4,74.54c0-6.33,1-9.49,2.85-15.21C79.31,64.47,80.21,67.16,77.4,74.54Z"/><path class="cls-23" d="M77.68,71c0-6.33.68-5.93,2.57-11.66C79,63.83,79.87,62.18,77.68,71Z"/><path class="cls-22" d="M86.08,77.39c-3.48-8.68-5.92-9.18-5.83-15.48C82.26,67.83,84.61,69.47,86.08,77.39Z"/><path class="cls-23" d="M88.78,80.23C86.33,71.91,84,71.45,83,64.75,85,70.67,87.31,72.31,88.78,80.23Z"/><path class="cls-22" d="M76.28,76.67c-2.7-9.91-1.42-9.46,2.17-14.64C76.35,65.69,75.7,70.29,76.28,76.67Z"/><path class="cls-22" d="M74.49,86.48c-2.84-7.06-3.58-6.94-.76-13.89C73.13,77.55,73.09,80.18,74.49,86.48Z"/><path class="cls-23" d="M69.46,84.33C70.07,79.27,70.71,77.22,73,72,73.29,74.32,71,76.81,69.46,84.33Z"/><path class="cls-20" d="M100.32,66.16c-4.34-8-17.15-9.34-20.57-9.72,2.48-5.53,9.44-4.15,12.89-1.42A13.23,13.23,0,0,0,87,54C93.18,55,97.87,58.12,100.32,66.16Z"/><path class="cls-21" d="M87.69,100.57c5.36-8.44,6.92-15.27,4.55-22.94C92.64,86.89,92,92.25,87.69,100.57Z"/><path class="cls-24" d="M100.35,86.32c1.45-8.54.41-14.52-4.05-19.84C97.78,73.35,99.17,77.85,100.35,86.32Z"/><path class="cls-24" d="M93.1,94.13c2.23-6.8,4.46-10.62.41-17.57C94.92,83.75,93.93,86.68,93.1,94.13Z"/><path class="cls-24" d="M99,93.06c.8-10.42-.29-11.61-3.85-16C97.55,82.81,98.8,86.66,99,93.06Z"/><path class="cls-25" d="M98.46,78.82c-.85-4.93-1.13-11.23-6.16-16.54,2.31,1,2.73.4,4.93,1.66-5.09-5.37-12.53-6.78-16.78-7.11,6,2.27,9.21,7.08,11.9,14.65l-1.56-6.59C93.44,67.78,95.64,71.79,98.46,78.82Z"/><path class="cls-24" d="M98.72,67.08a17.78,17.78,0,0,0-14-9.35A31.92,31.92,0,0,1,98.72,67.08Z"/><path class="cls-24" d="M93.51,78.33A17.79,17.79,0,0,0,88.16,62.4,32,32,0,0,1,93.51,78.33Z"/><path class="cls-24" d="M94,65.56c-3.08-5.9-7.82-7.74-13.44-8.57C85.72,59.09,88.88,61.26,94,65.56Z"/><path class="cls-21" d="M95.25,79.42c.56-4.27,1.42-7.52-4-13.47C94.14,70.18,94.12,73.81,95.25,79.42Z"/><path class="cls-21" d="M94,59.4c-3.5-2.51-6.44-5.13-14.24-3.15A38,38,0,0,1,94,59.4Z"/><path class="cls-24" d="M99.57,63.76a17.79,17.79,0,0,0-14-9.35A31.92,31.92,0,0,1,99.57,63.76Z"/><path class="cls-24" d="M90.28,53.72c-5.35-2.17-8.7-1.84-10,2C82.1,53,87.11,53.24,90.28,53.72Z"/><path class="cls-21" d="M78.66,103.19c-2.76-6.93-8.77-9.44-8.77-17.25C69.08,96.14,73,95.57,78.66,103.19Z"/><path class="cls-22" d="M61.65,87.5c-.28-5.65-.2-8,2.65-15.36l-.66,6.73C67,64.23,69.91,61.32,77.48,56,71.31,57.1,65.64,59.76,62,64.7l2.75-1.56c-2.13,2-2.24,3.79-4.17,9.29l2.18-1.8C60.29,76.37,60.18,79.64,61.65,87.5Z"/><path class="cls-23" d="M60.78,80.58c0-4.86.79-7.64,5.11-13.89C65.86,69,62.33,72.38,60.78,80.58Z"/><path class="cls-23" d="M63.29,63.62c3.17-3.68,5.55-5.31,12.89-7.27C74.67,58.07,69.78,58.38,63.29,63.62Z"/><path class="cls-22" d="M68.38,92.42c-4.22-9.36-3.53-10.79-.81-16.47C66.92,82.17,66.81,86.22,68.38,92.42Z"/><path class="cls-23" d="M67.9,90.54c-1.18-5-1.28-7.11-.89-12.76C68,79.83,66.76,82.95,67.9,90.54Z"/><path class="cls-23" d="M68.1,61.24c-2,2.75-2.85,6.26-6.59,10C63.21,66.93,65.15,63,68.1,61.24Z"/><path class="cls-19" d="M80.36,54.89c-7.33-.41-14,2-17.06,5.12a13.91,13.91,0,0,1,14.65-6.73l-2.18-1.09C77.68,51.62,80.47,53.26,80.36,54.89Z"/><path class="cls-23" d="M65.14,58.65c3.17-3.68,7.92-5.41,14.55-4C76,54.56,69.36,55.63,65.14,58.65Z"/><path class="cls-14" d="M113.77,92.64c-2.91.51-5.69,1-8.38,1.46,3.69-1.35,10.52-3.76,12.53-5.81l.89,2.93A24.43,24.43,0,0,1,113.77,92.64Z"/></svg>