<svg id="Capa_1" data-name="Capa 1" xmlns="http://www.w3.org/2000/svg" xmlns:xlink="http://www.w3.org/1999/xlink" viewBox="0 0 160 178"><defs><style>.cls-1{fill:none;}.cls-2{clip-path:url(#clip-path);}.cls-3{fill:#21211d;}.cls-10,.cls-11,.cls-12,.cls-13,.cls-14,.cls-15,.cls-16,.cls-17,.cls-18,.cls-19,.cls-20,.cls-21,.cls-22,.cls-23,.cls-24,.cls-25,.cls-26,.cls-27,.cls-28,.cls-29,.cls-3,.cls-30,.cls-31,.cls-32,.cls-4,.cls-5,.cls-8,.cls-9{fill-rule:evenodd;}.cls-5{fill:#363632;}.cls-6{fill:#5c5c69;}.cls-7{fill:#7c7c8a;}.cls-8{fill:#a2a2ab;}.cls-9{fill:#2e2d29;}.cls-10{fill:#a69267;}.cls-11{fill:#94835d;}.cls-12{fill:#b8a57b;}.cls-13{fill:#f1b287;}.cls-14{fill:#e8a477;}.cls-15{fill:#f4bc97;}.cls-16{fill:#faf68c;}.cls-17{fill:#ede968;}.cls-18{fill:#fffca8;}.cls-19{fill:#1a1209;}.cls-20{fill:#3d2913;}.cls-21{fill:#473117;}.cls-22{fill:#5c3f1e;}.cls-23{fill:#785023;}.cls-24{fill:#382613;}.cls-25{fill:#2e1f0f;}.cls-26{fill:#362411;}.cls-27{fill:#261a0c;}.cls-28{fill:#eda580;}.cls-29{fill:#f2b292;}.cls-30{fill:#f7bfa3;}.cls-31{fill:#fff;}.cls-32{fill:#fce3d6;}</style><clipPath id="clip-path"><rect class="cls-1" width="160" height="106.41"/></clipPath></defs><title>Mesa de trabajo 1</title><g class="cls-2"><path class="cls-3" d="M44.42,67.16c2.15-3.33,19.61-5.68,37-5.1,15.81.53,31.55,3.47,35.63,10.28,7,11.67,12.35,59.71-9.27,60.82-22.45,1.16-38,.7-60.39-1.06C28.35,128.19,36.18,79.91,44.42,67.16Z"/><path class="cls-4" d="M50,67.16c2.14-3.15,15.6-5.68,30.54-5.1,13.6.52,28.1,3.47,31.61,10.28,6,11.66,12.85,60.35-5.75,61.46-19.31,1.16-40-1.52-59.27-3.28C30.75,126.6,41.3,79.91,50,67.16Z"/><path class="cls-5" d="M45.36,66.29c4.35-2.86,20.23-4.76,36-4.23S112.95,65.53,117,72.34c6.64,11.09,11.81,55-6.24,60.31,14.59-8.94,9.64-48.59,3.38-59-4.08-6.81-19.82-9.76-35.63-10.28C65.21,62.88,51.84,64.16,45.36,66.29Z"/><path class="cls-4" d="M25.86,41.37c1-3.91,2.7-8.86,2.41-16.61C27.77,12,33.94,9.62,49.47,10.61c12.64.81,21.24,0,31,0,8.94,0,21.07.8,30.06.49,10.72-.37,20.44,2.35,20.17,12.41-.11,4.39-1.68,12.5.09,17.48C139,64.29,93.15,76.32,74.34,74.52,57.59,74.55,20.19,64.07,25.86,41.37Z"/><path class="cls-3" d="M110.19,11.09h.3c10.72-.37,20.44,2.35,20.17,12.41-.11,4.39-1.68,12.5.09,17.48,8,22.53-34.57,34.52-54.42,33.68,21-.77,57.75-12.61,50.28-33.68-1.77-5-.2-13.08-.09-17.48C126.76,14.65,119.28,11.48,110.19,11.09Z"/><path class="cls-6" d="M23.46,59.36h3.26a6.3,6.3,0,0,1,6.3,6.3v62.5a6.29,6.29,0,0,1-6.29,6.29H23.46a6.3,6.3,0,0,1-6.3-6.3V65.65a6.3,6.3,0,0,1,6.3-6.3Z"/><rect class="cls-7" x="19.67" y="59.36" width="10.85" height="75.09" rx="4.31" ry="4.31"/><path class="cls-8" d="M27.05,132.89H24.81a4.36,4.36,0,0,1-3.17-1.35,4.36,4.36,0,0,0,1.9.43h2.24a4.25,4.25,0,0,0,4.31-4.17V63.48a4.08,4.08,0,0,0-1.14-2.81,4.17,4.17,0,0,1,2.41,3.74v64.32A4.25,4.25,0,0,1,27.05,132.89Z"/><rect class="cls-6" x="123.98" y="59.36" width="15.86" height="75.09" rx="6.3" ry="6.3"/><rect class="cls-7" x="126.49" y="59.36" width="10.85" height="75.09" rx="4.31" ry="4.31"/><path class="cls-8" d="M133.84,132.89H131.6a4.36,4.36,0,0,1-3.17-1.35,4.37,4.37,0,0,0,1.9.43h2.24a4.25,4.25,0,0,0,4.31-4.17V63.42a4.09,4.09,0,0,0-1.13-2.82,4.17,4.17,0,0,1,2.4,3.74v64.38A4.25,4.25,0,0,1,133.84,132.89Z"/><path class="cls-3" d="M28.42,29.32c-3.06-16,3.29-22.61,18.83-21.38,12.65,1,23.46,1.67,33.18,1.7,8.94,0,21.86-1.31,30.86-1.7,15.57-.67,21.7,3,19.3,20.21-1.52,10.94-26.73-4.84-53.62-4C52.14,24.85,29.34,34.1,28.42,29.32Z"/><path class="cls-5" d="M80.43,9.63c8.94,0,21.86-1.32,30.86-1.7,15.57-.67,21.7,3,19.3,20.21-.36,2.59-2.05,3.68-4.77,3.85v0c1.23-8.84.23-14.13-3.19-17C116.62,9.77,95.41,13.26,80.43,9.63Z"/><path class="cls-4" d="M78.32,9.63c-8.95,0-21.86-1.32-30.86-1.7-15.57-.67-21.7,3-19.3,20.21.36,2.59,2,3.68,4.77,3.85v0c-1.23-8.84-.23-14.13,3.19-17C42.12,9.77,63.33,13.26,78.32,9.63Z"/><path class="cls-9" d="M96.13,128.44c5-10.56,11.3-20.84,15.51-31.52,3.21-8.14,1.69-19-5-23.59-3.46-2.39-8.58-1.74-16.55-1.74-6.85,0-8.81,2.48-10.65,6.95L51.25,74.72c-13.35,13.36,2.76,38,9.36,53.72Z"/><path class="cls-10" d="M55.88,76.72c-7.69,8.65-6.35,15.68-3.8,26.42q.43,1.82.93,3.6c10,4.16,22.48,2.88,32.58,2.1,6.83-.53,13.59-.8,19.58-3q1.51-3.74,2.82-7.47c2.85-8.14,3.13-18.43-2.83-23.06-3.07-2.39-7.64-1.74-14.72-1.74-6.09,0-7.84,2.48-9.48,6.95Z"/><path class="cls-11" d="M105.16,105.86q1.51-3.74,2.82-7.47c2.85-8.14,3.13-18.43-2.83-23.06a7.71,7.71,0,0,0-3-1.38c5.1,4.92,4.71,14.6,2,22.34-1.28,3.66-2.72,7.35-4.3,11A35.94,35.94,0,0,0,105.16,105.86Z"/><path class="cls-12" d="M55.88,76.72c-7.69,8.65-6.35,15.68-3.8,26.42q.43,1.82.93,3.6a33.69,33.69,0,0,0,5.73,1.78q-.92-3.35-1.76-6.88c-2.19-9.21-.88-15,4.57-24.06Z"/><path class="cls-11" d="M86.23,108.8c-.9-9.05-1-19.36-1.25-27.64l-5.7-.87c.25,8.77.37,19.67,1.43,28.94l4.87-.37Z"/></g><path class="cls-13" d="M138.44,81.79l-10,5.65c-3.36-4-12.63-12.34-15.2-13.86l7.37-22.34c5.24,1.07,11.49,15.09,15.86,24.22A16.78,16.78,0,0,1,138.44,81.79Z"/><path class="cls-14" d="M77.68,121.76c.41-1.46,2.92-1.27,5-1.47L82,122.67l1.63,2.55-4,.49v-2.06l-1.24-.85Z"/><path class="cls-13" d="M51,75.41c-8.59,4.1-10.14,7.47-17.55,13.38,4.16,4.16,4.75,6.82,6.88,10.09a20,20,0,0,0,7.35,6.58,6.94,6.94,0,0,0,3.87,1.24,12.82,12.82,0,0,1,6.47.83c1.83.82,3.27,2.28,5.58,5l2.48,3c1.05,1,2.11,1.09,3.46,2.38-2.61,2.5-6,.67-8.68-2a26.92,26.92,0,0,0-2.68-2.24c-1-.55-1.3-.57-1.62-.45s-.42.82,0,1.62a10.21,10.21,0,0,0,1.95,3c2.19.72,3.81.68,5.81,1.83a10.4,10.4,0,0,1,3.92.36c3.12-.88,4.84-.9,5.42,1.86-1.71.33-3.34,1-5,1.43-1.44,1.46-2.29,2.3-3.78,2.55l-.78.69a6,6,0,0,1-1.06.89c-.62.35-.54.12-2-.11a30.76,30.76,0,0,0-6.1-.58c-2.7,0-3.72.12-4.46-1.75-1.16-2.91-2.61-6.05-4.88-8.3-1-1-1.63-.63-2.61-1.45-.53-.45-1.06-1.51-2.12-2.63-11.4-7.18-15-9.73-21.68-20.88-1.12-1.88-.93-4.31-.17-6.86C20.59,79.62,27.95,70,33.43,63.5S42.61,53.4,48.2,51.95l9.14,1.43.26,12.79Z"/><path class="cls-15" d="M61,127.38a30.76,30.76,0,0,0-6.1-.58c-2.7,0-3.72.12-4.46-1.75-1.16-2.91-2.61-6.05-4.88-8.3-1-1-1.63-.63-2.61-1.45-.53-.45-1.06-1.51-2.12-2.63-11.4-7.18-15-9.73-21.68-20.88-1.12-1.88-.93-4.31-.17-6.86C20.59,79.62,27.95,70,33.43,63.5S42.6,53.41,48.2,52c-4.4,1.82-6.27,5.9-11.24,11.81C31.47,70.3,22.15,79.1,20.57,84.41c-.76,2.55-.95,5,.17,6.86,6.65,11.14,9,13.56,20.38,20.74,1.06,1.12,1.92,2.32,2.45,2.76,1,.82,1.87.58,2.87,1.58,2.26,2.25,3.36,5.22,4.52,8.14.74,1.86.29,1.91,3,1.91A27.56,27.56,0,0,1,61,127.38Z"/><path class="cls-14" d="M51,75.41c-8.59,4.1-10.14,7.47-17.55,13.38,4.16,4.16,4.75,6.82,6.88,10.09a20,20,0,0,0,7.35,6.58,7.35,7.35,0,0,0,4,1.24,12.82,12.82,0,0,1,6.47.83c1.83.82,3.28,2.28,5.58,5l2.48,3c1.05,1,2.11,1.09,3.46,2.38-2.61,2.5-6,.93-8.68-1.7A26.46,26.46,0,0,0,58.34,114c-1-.55-1.43-.83-1.75-.71s-.42.82,0,1.62a10.42,10.42,0,0,0,2.34,2.61,24.54,24.54,0,0,1,5.42,2.22,10.4,10.4,0,0,1,3.92.36c3.12-.88,4.84-.9,5.42,1.86-1.71.33-3.34,1-5,1.43-1.44,1.46-2,2.3-3.52,2.55l-.78.69a6,6,0,0,1-1.06.89,2.16,2.16,0,0,1-1.19.09c.8-.24,1.2-.28,1.63-1.38-3.1-.3-6-.88-9-1.19-2-.2-2,.11-1.89-.46,0-.21.29-.1,1.73-.08a78.28,78.28,0,0,1,9.37,1.19,3.47,3.47,0,0,0,2-.76,16.44,16.44,0,0,0,2-1.4c-1.53.3-2.82.61-4.34.95-2.58-.93-4.64-1.52-6.86-2.44a5.41,5.41,0,0,1-2.09-1.19c-.13-.27.64-.06,2.3.57,2.49,1,4,1.54,6.68,2.44,3.17-.53,6.34-1.32,9.53-1.86-1-2.54-3-1.82-5.22-1.21a39.44,39.44,0,0,0-4.54-.46,27.21,27.21,0,0,0-5.45-2.22,17.56,17.56,0,0,1-2.62-3.24c-1.05-2.12-1.41-4.06,2.47-2.27,1.24.57,1.73,1.67,4.07,3.94,2.1,1.8,3.79,3.11,6.66,1.44-1.32-.92-2.44-1.35-3.22-2-3.5-2.79-3.75-4.23-5.68-5.82-4.79-3.94-9.15-1.68-12.22-1.64l-1.17-.13a51.93,51.93,0,0,0-5.78-5.7c-3.61-3.17-7.8-9.21-10.34-13.49-4.17-.62-5.18-2-11.09-1.89,6.42-1.45,7.07.64,11.29.26C39.2,80,43.11,76.16,49.5,71.39c2.65-2,5-4.89,8-8.59l.07,3.37L51,75.41Zm4.38-22.85,1.92.83L57.39,56Z"/><path class="cls-16" d="M80.51,46.59a206.29,206.29,0,0,1,29.9.83c12.2,1.47,16.7,8.15,16.32,14.9-.27,4.76-3.73,6.94-7.84,10-2.86,2.11-4.47,6.42-6,9.08-2.73,4.76-5.22,14.21-17.56,14.37-3.93,0-7.56-2.06-14.4-2.06S70.44,95,66.5,94.9c-12.34-.15-14-8.1-17.73-14.37-1.08-1.85-3-6.25-5.87-8.36-4.1-3-8.36-5.09-8.62-9.85-.38-6.75,4.12-13.43,16.32-14.9A206.29,206.29,0,0,1,80.51,46.59Z"/><path class="cls-17" d="M80.51,46.59a206.29,206.29,0,0,1,29.9.83c11.83,1.42,16.41,7.74,16.34,14.28A37.54,37.54,0,0,0,121,54.27c-2.53-2.87-6.86-5.33-13.57-5.8l-26.9-1.88Zm39.85,24.71c-2.56,1.89-6.06,7.63-7.46,10.08-2.73,4.76-5.22,14.21-17.56,14.37a17.52,17.52,0,0,1-4.12-.55,24.4,24.4,0,0,0,2.81.16c12.34-.15,13.14-9,15.86-13.71C110.77,80.13,116.53,71.65,120.37,71.31Z"/><path class="cls-13" d="M137.92,87.89c-10,10.77-23.38,20.14-35.52,29.4-1.5-2.35-1.77-4.51-4.59-7.46C109.8,99.93,117,88.9,128,78.19,135.38,75.17,140.59,80.55,137.92,87.89Z"/><path class="cls-15" d="M99.8,109.23c-.61-.73.16-.24-.42-.84,10.39-8.57,15-16.6,24.38-25.89-2.39-2.29-5-4.63-7.09-6.39,4.17,1.57,7.82,4,11.27,6.12C120.06,90,110,100.28,99.8,109.23Z"/><path class="cls-18" d="M80.51,46.59,53,48.86c-7.47.9-12.05,3.75-14.39,7.38-1.67,2.27-2.66,5.06-3.41,9.28a9.1,9.1,0,0,1-.86-3.2c-.38-6.75,4.12-13.43,16.32-14.9a206.29,206.29,0,0,1,29.9-.83ZM64.14,94.76c-9.49-.5-12.48-9.06-15-13.52L42.71,69.62c4.47,4.45,8.3,13.2,12.06,18.13A20.15,20.15,0,0,0,64.14,94.76Z"/><path class="cls-13" d="M106.82,113.75c-4.76,3.93-4.15,4.75-8,8.8a42.31,42.31,0,0,1-4.41,3.68,30.24,30.24,0,0,1-4.31,3c-1,.5-2,.52-2.36-.52-.89.48-2.16,1.66-3,1.48a2.25,2.25,0,0,1-1.54-1.73,3.39,3.39,0,0,1-1.75.58c-.63-.07-1.71-1.25-2.18-1.76-.93-1-.15-1.79.62-2.77a3.26,3.26,0,0,1-2.22-.81A1.7,1.7,0,0,1,78,121.4a12.75,12.75,0,0,0,3.91-.92c-1.1,0-1.63.14-2.33-1.37a26.22,26.22,0,0,0,3.55-2.65c2.39-2.08,3-3.42,4.66-4.29,6-3.14,9.58.42,14.29-4.89l4.77,6.46Zm-26.59,10.9a2.66,2.66,0,0,0,1.78.09,31.33,31.33,0,0,0,4.49-2.44c-1.24.24-3.35,1.46-4.31,1.71A9.71,9.71,0,0,0,80.23,124.65Z"/><path class="cls-14" d="M89.08,129.56a1.17,1.17,0,0,1-1.35-.84c-.4.21-.88.57-1.36.88a28.65,28.65,0,0,1,2.4-2.14c.21-.14,1.91-1.22,2-1.23.49-.06-.47.6-1.2,1.12a6.26,6.26,0,0,0-1.17,1,.88.88,0,0,0,.27,1,1.17,1.17,0,0,0,.42.19Zm-5.75-.68a.75.75,0,0,1,.12-.17,20.34,20.34,0,0,1,4-3c.64-.4,1.3-.73,1.3-.85s-.83.17-1.74.68a27,27,0,0,0-4.26,3l-.33.3c.23-.09.49-.22.8-.38a1.89,1.89,0,0,0,.11.41ZM79.54,125l.36-.45h-.07a11.31,11.31,0,0,1,2-.4l-1.66.56a4.61,4.61,0,0,0,1.61.15,13,13,0,0,0,2.64-1.56c.66-.38,2.14-1.18,2.53-1,.06,0-1.42.81-2.37,1.43a15.32,15.32,0,0,1-3.13,1.88c-.35.07-.5-.21-.82-.29s-.63.13-.83,0a2,2,0,0,1-.29-.28Zm2.2-4.43.15-.06c-1.1,0-1.63.14-2.33-1.37a26.24,26.24,0,0,0,3.55-2.65c2.39-2.08,3-3.42,4.66-4.29,6-3.14,8-.63,13.3-5.18l.28.8c-4.62,4.69-8.63,3.49-12,5.08a25.16,25.16,0,0,0-5.59,3.78,21.81,21.81,0,0,1-3.65,2.64,1.82,1.82,0,0,0,2,.59c1.63-.47,3.51-2.69,4.71-3.94.85-.89.69-.1.2.46C84.85,118.77,83.87,120,81.74,120.54Z"/><path class="cls-15" d="M79.55,119.12a26.44,26.44,0,0,0,3.55-2.65c2.39-2.08,3-3.42,4.66-4.29,6-3.14,8-.63,13.3-5.18l.28.8c-4.62,4.69-8.63,3.49-12,5.08a25.16,25.16,0,0,0-5.59,3.78,21.81,21.81,0,0,1-3.65,2.64Z"/><path class="cls-13" d="M83.12,98.6a42.39,42.39,0,0,1,3-3.26l-8.92.32a29.31,29.31,0,0,1,2.33,2.8c.56.7,1.28,1.44,1.86,1.45S82.57,99.18,83.12,98.6Z"/><path class="cls-15" d="M80.91,99.8c-.64-.62-.57-1.87-.27-3.53l-.46.31c-.06,1-.68,1.56-.16,2.28A5.18,5.18,0,0,0,80.91,99.8Z"/><path class="cls-14" d="M84.1,97.37c.36-.36.73-.72,1.17-1.12-1.36,0-2.49-.2-3.73-.24s-2.56.26-3.87.24l1,1a12.66,12.66,0,0,1,2.55-.75A6.19,6.19,0,0,1,84.1,97.37Z"/><path class="cls-14" d="M81.92,99.8c.64-.62.57-1.87.27-3.53l.46.31c.06,1,.68,1.56.16,2.28A5.24,5.24,0,0,1,81.92,99.8Z"/><path class="cls-13" d="M100.87,84.49C107.62,72.2,104.11,60.95,100,51,93.39,34.74,72.75,33,64.22,46,58.37,55,53.57,69.2,60.33,82.54,63.1,88,65.6,92.58,69.6,95c2.95,1.79,8.33,2.27,11.54,2.3s8-.29,11.83-2.8C96,92.53,98.42,88.95,100.87,84.49Z"/><path class="cls-14" d="M100.87,84.49C107.62,72.2,104.11,60.95,100,51A21.14,21.14,0,0,0,81.1,37.41,21.33,21.33,0,0,1,95.27,50.25c4.08,10,7.59,21.23.84,33.52-2.45,4.46-4.87,8-7.9,10a16.69,16.69,0,0,1-5.94,2.32l3.15,1A17.84,17.84,0,0,0,93,94.51C96,92.53,98.42,88.95,100.87,84.49Z"/><path class="cls-14" d="M69.8,95.13l.32.2c2.51,1.53,6.42,1.86,9.5,2a5.35,5.35,0,0,1,1.58-.41,5.49,5.49,0,0,1,1.69.43,18.22,18.22,0,0,0,7.66-1.58c-4.82,1.36-7.3.31-9.27.27C78.5,95.95,77.25,97.4,69.8,95.13Z"/><path class="cls-19" d="M87.49,95.18a27.49,27.49,0,0,0,9.19-4,14.49,14.49,0,0,1-8.62,5.15C86.34,96.6,85.64,95.63,87.49,95.18Z"/><path class="cls-19" d="M74.68,95.18a27.45,27.45,0,0,1-9.2-4,14.5,14.5,0,0,0,8.63,5.13C75.83,96.6,76.53,95.62,74.68,95.18Z"/><path class="cls-20" d="M98.35,47C88.24,35.52,83.62,36.18,80.86,31.91c-3,4.48-7.61,4-16.05,13.57C80.59,36.72,95,45.08,98.35,47Z"/><path class="cls-20" d="M60.33,84.68C54.72,73.11,56.06,61.61,60,52.22,66.77,36,90.67,35.11,99.38,48.13a37.19,37.19,0,0,1,4.13,32.42,22.64,22.64,0,0,1-9,8.42,9.61,9.61,0,0,0,4.53-2.08c-2.45,2.93-4.78,3.94-8.77,2.8C85.26,98,75.44,97,68.47,92c4.26,1.85,7.23,2.66,10.24,2.63C70.18,92.7,65.73,89.92,60.33,84.68Z"/><path class="cls-21" d="M90.46,87.78c-2,4.68-6.29,8.75-14.8,7.11,3.65,0,5.65-.31,7.71-1.08a25.85,25.85,0,0,1-13.59-3.33c-16.3-8.91-12.92-35.14-4.15-45.77-6.15,13.09-8,26.57,3.59,38.25l-2.94-7.19C71,84.05,83.44,91.46,90.46,87.78Z"/><path class="cls-21" d="M89.28,87.64c.33-1,.94-1.67,1-3a23.55,23.55,0,0,1-.72-4.39c0-2.32.8-3.08.71-4.46C90.09,73.4,89.1,72.19,89,71c-.11-1.92.76-2,.86-3.2.63-7.52-2.78-20.91-6.09-25.79,1.4,4.85,3.64,9.73,3.67,15.65-1.19-4.81-4.78-14.09-5.22-18C72,41.45,66.82,41.79,64.46,51.07c-2.23,8.75-.64,14.84,5.07,23.8-4-4.11-5.37-8-6.44-13.09C63.77,76.85,74.4,87.3,89.28,87.64Z"/><path class="cls-22" d="M88.69,90.28C76.42,98.15,61.3,88.67,57.53,74,65.13,89,74.46,93.95,88.69,90.28Z"/><path class="cls-23" d="M90.12,88.88c-3.27,8-11.75,7.3-15.58,6.15C78.59,95.86,86.49,95.7,90.12,88.88Z"/><path class="cls-22" d="M87.24,90.29C72.73,92.4,62.29,85.21,60,67.36c3.19,15,12.49,20.6,27,21.8a12.32,12.32,0,0,1,1.77.07C89.29,89.45,89.18,90,87.24,90.29Z"/><path class="cls-22" d="M63.73,82.85c-8.85-15.07-7.29-21.26-.65-35.93C57.85,61.46,57.36,68.24,63.73,82.85Z"/><path class="cls-22" d="M89.09,87.36C78.72,88.83,68,80.89,63.8,66.94,66.74,71.85,74.11,84,89.09,87.36Z"/><path class="cls-23" d="M83.77,87c-7-1.44-14-7.27-17.29-13.48A40.13,40.13,0,0,0,83.77,87Z"/><path class="cls-24" d="M67.7,80.5c-6.13-6.28-8.6-17.1-3.87-30.63A38.48,38.48,0,0,0,67.7,80.5Z"/><path class="cls-23" d="M87.8,90.75c-7.48,3.59-18.06,1.5-22.76-4.43C70.47,91,78.22,93.63,87.8,90.75Z"/><path class="cls-22" d="M89.42,85.57c-5.19.29-26.73-18.9-19.17-41.84C66.5,67.51,84.6,80.49,89.42,85.57Z"/><path class="cls-22" d="M79.48,81.34c-10.56-4.87-23.6-26.11-7.67-40.56C59.87,56.77,70.95,72.83,79.48,81.34Z"/><path class="cls-23" d="M89.24,86.33c-6.85-2-15.6-11.49-17.32-19.55C74.57,72.91,80.41,81.71,89.24,86.33Z"/><path class="cls-24" d="M87.45,86.24C77.34,83.73,68,75.43,64.18,64.58,66.57,69.7,72.91,81.21,87.45,86.24Z"/><path class="cls-24" d="M84.62,90.84c-9.21,1.4-18.84-1.23-23-14.13C67.67,91.43,80.16,90.63,84.62,90.84Z"/><path class="cls-23" d="M88.85,89.57c-11.67,1.53-21.08-1.61-25-9.91C68.32,86.79,75.41,89.89,88.85,89.57Z"/><path class="cls-24" d="M73.25,73.32c-6.13-6.28-8.6-17.1-3.87-30.62A38.48,38.48,0,0,0,73.25,73.32Z"/><path class="cls-22" d="M89.59,84.77C84.39,77.08,65.3,58.52,72.7,41.49,69.43,59.53,88.35,72.82,89.59,84.77Z"/><path class="cls-23" d="M86.81,79.34c-4.7-7.69-19.39-22.25-14.11-37.85C68.62,60.17,84.27,68.83,86.81,79.34Z"/><path class="cls-24" d="M87.14,82.37c-6.1-4.82-16.91-18.3-16-31C71.45,61.64,77,69.53,87.14,82.37Z"/><path class="cls-22" d="M88.42,76.79C77.8,59.62,65.54,45.46,80.26,40.38c-7,6.31-.86,15.75,3.83,24.83-2.48-10.06-9.74-18.9-2.37-24.83-1.27,3.52,3.53,14,4.71,19.18C87.77,65.42,88.83,68.27,88.42,76.79Z"/><path class="cls-23" d="M88,75.39c-4.29-7.94-21.57-28.47-8-34.71C68.62,48.2,84.51,65.55,88,75.39Z"/><path class="cls-23" d="M85.4,68.61c-2.28-13.59-7.47-20-4.16-27.55C75.48,47.11,82.67,56.47,85.4,68.61Z"/><path class="cls-24" d="M83,61.18c-6.13-8.1-8-16-2.48-20.28C77.8,44.4,76,49.89,83,61.18Z"/><path class="cls-22" d="M88.09,70.37c.42-9.11.36-11.44-1.06-20.52.9,8.83,1,9.4-.33,18.28Z"/><path class="cls-25" d="M92.63,43.37c8.52,5.33,10.91,13.31,10.26,27.82l1-6.21c2.33,8.93-6.49,17-14.62,21.71,3.66-8.49.61-13.52,1.3-19.61L92,72.19c0-8.57-4.25-24.2-8.89-31.95,9.34,1.88,12.24,9.48,13,16.11C96.55,52.5,95.86,49.69,92.63,43.37Z"/><path class="cls-26" d="M104.31,68.56C103.9,78.25,92,85.5,88.85,87.45c5.06,4.12,11.21-.44,13.27-4.66a14.35,14.35,0,0,1-5.06,3.65C102.66,82.58,105.75,77.39,104.31,68.56Z"/><path class="cls-27" d="M88.42,42.31c7.38,8,8,18.75,5.52,30.39C93.18,61.43,93.21,51.26,88.42,42.31Z"/><path class="cls-27" d="M100.17,51.82c6,17.78-5.75,31.34-10.85,34.75C93.42,82.13,102.32,68.36,100.17,51.82Z"/><path class="cls-27" d="M100.44,85.14c-4.2,4.57-7.63,5.83-10.77,2.75C92.78,89.63,97.57,87.08,100.44,85.14Z"/><path class="cls-19" d="M102.14,62.68c-.14,8.67-3,17.47-10.25,21.29C99.15,77.76,100.74,70.8,102.14,62.68Z"/><path class="cls-27" d="M95.48,46.28c8.23,16.9-.07,30.83-4.7,38C92.15,77.51,99.72,62.44,95.48,46.28Z"/><path class="cls-19" d="M98.43,55.3a40.05,40.05,0,0,1-7,27.41A58.27,58.27,0,0,0,98.43,55.3Z"/><path class="cls-19" d="M88.76,87.85c5.89.3,12.68-5.3,15-13.49C96.94,84.85,94.84,83.86,88.76,87.85Z"/><path class="cls-27" d="M90,88.29c5.14.26,11.07-4.63,13.1-11.78C97.16,85.67,95.32,84.81,90,88.29Z"/><path class="cls-24" d="M83,39.4c8.21,7.18,10,17.81,8.78,29.65C89.84,57.92,88.77,47.8,83,39.4Z"/><path class="cls-19" d="M84.19,40.55c11.6,9.59,10.9,30.76,7.48,39.75C94.19,69.77,93.43,50.45,84.19,40.55Z"/><path class="cls-21" d="M65.86,44.57c2.35-1.56,5.23-4,8.11-5.91,3-2,6.06-3.49,7-6.42a39.5,39.5,0,0,0,2.74,8c-2.13-1.8-2.26-.74-3.26-3.65C77,40.55,70.7,42.47,65.86,44.57Z"/><path class="cls-22" d="M66,45.74C71.1,42.39,79.27,39,80.94,32.82,76.16,38,71.52,41.34,66,45.74Z"/><path class="cls-22" d="M86.16,54.1c-1.91-6-6.23-13.5-5.42-19.64C81,43,85.5,44.44,86.16,54.1Z"/><path class="cls-25" d="M95,44.63c-4.5-3.93-8.88-7.7-13.51-11.49,1.84,3.44,2.23,3.63,3.2,7.5l-.06-3.33C87.93,40.76,90.87,42.11,95,44.63Z"/><path class="cls-28" d="M73.15,121.11l-2.24.31c-.53.07-.88.41-.79.75h0c.09.34.6.56,1.12.49l2.24-.31c.53-.07.88-.41.79-.75h0C74.18,121.26,73.67,121,73.15,121.11Z"/><path class="cls-29" d="M73.79,121.45l-3.3.45c-.23,0-.39.18-.35.33h0c0,.15.27.25.5.22l3.3-.45c.23,0,.39-.18.35-.34h0C74.25,121.52,74,121.42,73.79,121.45Z"/><path class="cls-30" d="M73.4,121.83l-2.88.39c-.09,0-.15.07-.14.13h0c0,.06.1.1.19.08l2.88-.39c.09,0,.15-.07.14-.13h0C73.58,121.86,73.5,121.82,73.4,121.83Z"/><path class="cls-31" d="M73.51,122.33c.51-.12.84-.43.76-.73h0c-.08-.3-.55-.5-1.09-.48a.81.81,0,0,1,.37.45l.07.25A.61.61,0,0,1,73.51,122.33Z"/><path class="cls-32" d="M72.36,122.08l-1.7.23s0,0,0,0h0s0,0,.05,0l1.7-.23s0,0,0,0h0A0,0,0,0,0,72.36,122.08Z"/><path class="cls-28" d="M69.27,117.48l-2-1.19a.87.87,0,0,0-1.24.24h0a1,1,0,0,0,.46,1.26l2,1.19a.87.87,0,0,0,1.24-.24h0A1,1,0,0,0,69.27,117.48Z"/><path class="cls-29" d="M69.48,118.26l-2.93-1.76a.39.39,0,0,0-.55.1h0a.44.44,0,0,0,.2.56l2.93,1.76a.39.39,0,0,0,.55-.11h0A.44.44,0,0,0,69.48,118.26Z"/><path class="cls-30" d="M68.86,118.39l-2.56-1.53a.15.15,0,0,0-.21,0h0a.17.17,0,0,0,.08.22l2.56,1.53a.15.15,0,0,0,.21,0h0A.17.17,0,0,0,68.86,118.39Z"/><path class="cls-31" d="M68.52,119a.91.91,0,0,0,1.21-.25h0a1,1,0,0,0-.43-1.23,1.11,1.11,0,0,1-.1.72l-.16.3A1,1,0,0,1,68.52,119Z"/><path class="cls-32" d="M67.85,118l-1.51-.9a0,0,0,0,0-.06,0h0a0,0,0,0,0,0,.06l1.51.9a0,0,0,0,0,.06,0h0A0,0,0,0,0,67.85,118Z"/><path class="cls-28" d="M79.44,119.12l1.67-1a.73.73,0,0,1,1,.2h0a.83.83,0,0,1-.38,1.05l-1.67,1a.73.73,0,0,1-1-.2h0A.83.83,0,0,1,79.44,119.12Z"/><path class="cls-29" d="M79.26,119.77l2.45-1.47a.32.32,0,0,1,.46.09h0a.37.37,0,0,1-.17.47l-2.45,1.47a.32.32,0,0,1-.46-.09h0A.37.37,0,0,1,79.26,119.77Z"/><path class="cls-30" d="M79.78,119.88l2.14-1.28a.13.13,0,0,1,.18,0h0a.14.14,0,0,1-.07.18l-2.14,1.28a.13.13,0,0,1-.18,0h0A.14.14,0,0,1,79.78,119.88Z"/><path class="cls-31" d="M80.07,120.38a.76.76,0,0,1-1-.2h0a.88.88,0,0,1,.36-1,.93.93,0,0,0,.08.6l.13.25A.83.83,0,0,0,80.07,120.38Z"/><path class="cls-32" d="M80.63,119.51l1.26-.75a0,0,0,0,1,0,0h0a0,0,0,0,1,0,0l-1.26.75a0,0,0,0,1,0,0h0A0,0,0,0,1,80.63,119.51Z"/><path class="cls-14" d="M137.92,87.89c-9.57,10.33-21.64,18.82-33.34,27.68-.5.38-4.36,5.81-6.26,7.17,2-2.94,4.42-7.21,5.41-8,11.28-8.68,22-17.62,31.18-27.54,1.42-3.9.33-8.79-1.41-12.42-2-4.1-4.3-9.19-6.76-13.64A12.27,12.27,0,0,0,122.34,52c4.85,3.21,10.27,15.3,14.18,23.48C138.24,79.09,139.34,84,137.92,87.89Z"/></svg>