<?xml version="1.0" encoding="utf-8"?>
<!-- Generator: Adobe Illustrator 21.0.0, SVG Export Plug-In . SVG Version: 6.00 Build 0)  -->
<svg version="1.1" id="Capa_1" xmlns="http://www.w3.org/2000/svg" xmlns:xlink="http://www.w3.org/1999/xlink" x="0px" y="0px"
	 viewBox="0 0 160 178" style="enable-background:new 0 0 160 178;" xml:space="preserve">
<style type="text/css">
	.st0{opacity:0.2;enable-background:new    ;}
	.st1{fill:#FFFFFF;}
	.st2{fill:url(#SVGID_1_);}
	.st3{fill:#FAFAFA;stroke:#E0E0E0;stroke-width:0.4413;stroke-miterlimit:10;}
	.st4{fill:none;stroke:#FFC107;stroke-width:1.738;stroke-miterlimit:10;}
	.st5{opacity:0.5;fill:#FFFFFF;enable-background:new    ;}
	.st6{opacity:0.1;enable-background:new    ;}
	.st7{opacity:0.6;}
	.st8{fill:#CCCCCA;}
	.st9{fill:#F2F2F2;}
	.st10{clip-path:url(#SVGID_3_);}
	.st11{fill:#21211D;}
	.st12{fill:#363632;}
	.st13{fill:#5C5C69;}
	.st14{fill:#7C7C8A;}
	.st15{fill:#A2A2AB;}
	.st16{fill:#21201F;}
	.st17{fill:#383735;}
	.st18{fill:#E8A477;}
	.st19{fill:#F1B287;}
	.st20{fill:#2D466E;}
	.st21{fill:#34507D;}
	.st22{fill:#263B5C;}
	.st23{fill:#F4BC97;}
	.st24{fill:#2B1C1F;}
	.st25{fill:#423330;}
	.st26{fill:#4D3C38;}
	.st27{fill:#2E2321;}
	.st28{fill:#57433F;}
	.st29{fill:#614B47;}
	.st30{fill:#6E5650;}
	.st31{fill:#211918;}
	.st32{fill:#261D1B;}
</style>
<title>Mesa de trabajo 1</title>
<g>
	<circle class="st0" cx="81.2" cy="148.8" r="27.6"/>
	<circle class="st1" cx="79.7" cy="148" r="27.4"/>
	
		<radialGradient id="SVGID_1_" cx="79.704" cy="32.0019" r="24.6667" gradientTransform="matrix(1 0 0 -1 0 180)" gradientUnits="userSpaceOnUse">
		<stop  offset="0" style="stop-color:#FFFFFF"/>
		<stop  offset="0.4846" style="stop-color:#F5F5F5"/>
		<stop  offset="1" style="stop-color:#E6E6E6"/>
	</radialGradient>
	<circle class="st2" cx="79.7" cy="148" r="24.7"/>
	<circle class="st3" cx="79.7" cy="148" r="13.3"/>
	<circle class="st4" cx="79.7" cy="148" r="24.6"/>
	<path class="st5" d="M99.1,128.6l-38.7,38.7c-10.7-10.7-10.7-28,0-38.7S88.4,117.9,99.1,128.6z"/>
	<path class="st6" d="M68.3,148c0-7.1,5.5-12.8,12.5-13.2c-0.3,0-0.6,0-0.9,0c-7.3,0-13.3,5.9-13.3,13.3s5.9,13.3,13.3,13.3
		c0.3,0,0.6,0,0.9,0C73.8,160.8,68.3,155.1,68.3,148z"/>
	<g id="XMLID_219_">
		<g class="st7">
			<path id="XMLID_267_" d="M108.8,173.6l0.6,0l0.1-9.2c0-0.1,0-0.2,0.1-0.2c0.1-0.1,0.3-0.1,0.4,0l-0.1,9.4l0.6,0l0.1-9.2l0,0
				c0.1-0.2,0.4-0.1,0.4,0.1l0,9.1l0.7,0l0.1-9.1c0-0.2,0.3-0.3,0.4-0.1l0,0l0,9.2l0.6,0l-0.1-9.4c0.1-0.1,0.3-0.1,0.4,0
				c0.1,0.1,0.1,0.1,0.1,0.2l0,9.2l0.6,0l0-13.8c0-0.3-0.1-0.6-0.2-0.8l-1.2-2.5c-0.1-0.3-0.2-0.6-0.2-0.9l1-30.1
				c0-0.6-0.2-1.1-0.7-1.5l0,0c-0.7-0.6-1.7-0.6-2.4,0l0,0c-0.4,0.4-0.7,0.9-0.7,1.5l0.8,30.1c0,0.3-0.1,0.6-0.2,0.9l-1.2,2.4
				c-0.1,0.3-0.2,0.5-0.2,0.8L108.8,173.6z"/>
			<polygon id="XMLID_266_" points="110.2,145.6 110.4,152.5 112.6,151.1 112.8,144 			"/>
			<path id="XMLID_265_" d="M109.9,134.3l3.3-2.1l0.2-6.6c0-0.2,0-0.3,0-0.5l-3.7,2.3L109.9,134.3z"/>
			<polygon id="XMLID_264_" points="108.8,162.2 113.5,158.3 113.1,157.5 108.9,161.1 			"/>
			<polygon id="XMLID_263_" points="108.8,168 109.5,167.4 109.5,165.5 108.8,166 			"/>
			<path id="XMLID_262_" d="M111,164.5l0,1.6l0.8-0.7l0-1c0-0.2,0.3-0.3,0.4-0.1l0,0l0,0.6l0.5-0.5l0-0.4c0.1-0.1,0.3-0.1,0.4,0
				c0,0,0,0,0,0.1l0.7-0.6l0-1.9l-3.2,2.6C110.9,164.4,111,164.4,111,164.5z"/>
			<polygon id="XMLID_261_" points="110.6,166.5 110.6,164.6 110,165 110,167 			"/>
		</g>
		<g>
			<g>
				<path id="XMLID_253_" class="st8" d="M108.2,173l0.6,0l0.1-9.2c0-0.1,0-0.2,0.1-0.2c0.1-0.1,0.3-0.1,0.4,0l-0.1,9.4l0.6,0
					l0.1-9.2l0,0c0.1-0.2,0.4-0.1,0.4,0.1l0,9.1l0.7,0l0.1-9.1c0-0.2,0.3-0.3,0.4-0.1l0,0l0,9.2l0.6,0l-0.1-9.4
					c0.1-0.1,0.3-0.1,0.4,0c0.1,0.1,0.1,0.1,0.1,0.2l0,9.2l0.6,0l0-13.8c0-0.3-0.1-0.6-0.2-0.8l-1.2-2.5c-0.1-0.3-0.2-0.6-0.2-0.9
					l1-30.1c0-0.6-0.2-1.1-0.7-1.5l0,0c-0.7-0.6-1.7-0.6-2.4,0l0,0c-0.4,0.4-0.7,0.9-0.7,1.5l0.8,30.1c0,0.3-0.1,0.6-0.2,0.9
					l-1.2,2.4c-0.1,0.3-0.2,0.5-0.2,0.8L108.2,173z"/>
				<polygon id="XMLID_252_" class="st9" points="109.6,145 109.8,151.9 112,150.5 112.2,143.4 				"/>
				<path id="XMLID_251_" class="st9" d="M109.3,133.7l3.3-2.1l0.2-6.6c0-0.2,0-0.3,0-0.5l-3.7,2.3L109.3,133.7z"/>
				<polygon id="XMLID_246_" class="st9" points="108.2,161.6 112.9,157.7 112.5,156.9 108.2,160.4 				"/>
				<g id="XMLID_220_">
					<polygon id="XMLID_238_" class="st9" points="108.2,167.4 108.9,166.8 108.9,164.9 108.2,165.4 					"/>
					<path id="XMLID_222_" class="st9" d="M110.4,163.9l0,1.6l0.8-0.7l0-1c0-0.2,0.3-0.3,0.4-0.1l0,0l0,0.6l0.5-0.5l0-0.4
						c0.1-0.1,0.3-0.1,0.4,0c0,0,0,0,0,0.1l0.7-0.6l0-1.9l-3.2,2.6C110.3,163.8,110.4,163.8,110.4,163.9z"/>
					<polygon id="XMLID_221_" class="st9" points="110,165.9 110,164 109.4,164.4 109.4,166.4 					"/>
				</g>
			</g>
		</g>
	</g>
	<g id="XMLID_159_">
		<g class="st7">
			<path id="XMLID_218_" d="M45.8,124.4L46,173c0,0.7,0.9,0.9,1.3,0.3l0,0c1.4-2.6,2.4-5.5,2.8-8.5l0.4-2.8c0.3-2.2-0.1-4.5-1.3-6.5
				l0,0c-1-1.7-1.5-3.7-1.4-5.7l1.3-21c0.1-1.3,0-2.5-0.4-3.7l0,0c-0.3-1-1.1-1.6-2.1-1.6l0,0C46.2,123.6,45.8,124,45.8,124.4z"/>
			<polygon id="XMLID_217_" points="45.9,139.6 45.9,146.5 48.1,145.1 48.6,137.8 			"/>
			<path id="XMLID_216_" d="M46.6,123.6c-0.5,0-0.8,0.4-0.8,0.9l0,3.6l3.2-2c-0.1-0.3-0.1-0.5-0.2-0.8
				C48.5,124.2,47.6,123.6,46.6,123.6z"/>
			<path id="XMLID_195_" d="M47.8,150.3l-1.9,1.6l0,1.2l2-1.6C47.8,151.1,47.8,150.7,47.8,150.3z"/>
			<path id="XMLID_194_" d="M46,167.8l0,1.9l3.8-3.1c0.1-0.6,0.2-1.2,0.3-1.8l0.1-0.5L46,167.8z"/>
		</g>
		<g>
			<g>
				<path id="XMLID_193_" class="st8" d="M45.2,123.8l0.2,48.5c0,0.7,0.9,0.9,1.3,0.3l0,0c1.4-2.6,2.4-5.5,2.8-8.5l0.4-2.8
					c0.3-2.2-0.1-4.5-1.3-6.5l0,0c-1-1.7-1.5-3.7-1.4-5.7l1.3-21c0.1-1.3,0-2.5-0.4-3.7l0,0c-0.3-1-1.1-1.6-2.1-1.6l0,0
					C45.6,123,45.2,123.4,45.2,123.8z"/>
				<polygon id="XMLID_192_" class="st9" points="45.2,138.9 45.3,145.9 47.5,144.5 48,137.2 				"/>
				<path id="XMLID_163_" class="st9" d="M46,123c-0.5,0-0.8,0.4-0.8,0.9l0,3.6l3.2-2c-0.1-0.3-0.1-0.5-0.2-0.8
					C47.9,123.6,47,123,46,123z"/>
				<path id="XMLID_162_" class="st9" d="M47.2,149.7l-1.9,1.6l0,1.2l2-1.6C47.2,150.5,47.2,150.1,47.2,149.7z"/>
				<path id="XMLID_161_" class="st9" d="M45.3,167.2l0,1.9l3.8-3.1c0.1-0.6,0.2-1.2,0.3-1.8l0.1-0.5L45.3,167.2z"/>
			</g>
		</g>
	</g>
</g>
<g>
	<defs>
		<rect id="SVGID_2_" x="5" y="1" width="149.9" height="105.4"/>
	</defs>
	<clipPath id="SVGID_3_">
		<use xlink:href="#SVGID_2_"  style="overflow:visible;"/>
	</clipPath>
	<g class="st10">
		<path class="st11" d="M44.5,61.4c2.2-3.3,19.6-5.7,37-5.1c15.8,0.5,31.5,3.5,35.6,10.3c7,11.7,12.4,59.7-9.3,60.8
			c-22.4,1.2-38,0.7-60.4-1.1C28.4,122.4,36.2,74.2,44.5,61.4z"/>
		<path d="M50,61.4c2.1-3.2,15.6-5.7,30.5-5.1c13.6,0.5,28.1,3.5,31.6,10.3c6,11.7,12.8,60.3-5.8,61.4c-19.3,1.2-40-1.5-59.3-3.3
			C30.8,120.8,41.3,74.2,50,61.4z"/>
		<path class="st12" d="M45.4,60.5c4.3-2.9,20.2-4.8,36-4.2S113,59.8,117,66.6c6.6,11.1,11.8,55-6.2,60.3c14.6-8.9,9.6-48.6,3.4-59
			c-4.1-6.8-19.8-9.8-35.6-10.3C65.2,57.1,51.9,58.4,45.4,60.5z"/>
		<path d="M25.9,35.6c1-3.9,2.7-8.9,2.4-16.6C27.8,6.3,34,3.9,49.5,4.9c12.6,0.8,21.2,0,30.9,0c8.9,0,21.1,0.8,30.1,0.5
			c10.7-0.4,20.4,2.3,20.2,12.4c-0.1,4.4-1.7,12.5,0.1,17.5c8.2,23.3-37.6,35.3-56.4,33.5C57.6,68.8,20.2,58.3,25.9,35.6z"/>
		<path class="st11" d="M110.2,5.3h0.3c10.7-0.4,20.4,2.4,20.2,12.4c-0.1,4.4-1.7,12.5,0.1,17.5c8,22.5-34.6,34.5-54.4,33.7
			c21-0.8,57.7-12.6,50.3-33.7c-1.8-5-0.2-13.1-0.1-17.5C126.8,8.9,119.3,5.7,110.2,5.3z"/>
		<path class="st13" d="M23.5,53.6h3.3c3.5,0,6.3,2.8,6.3,6.3v62.5c0,3.5-2.8,6.3-6.3,6.3h-3.3c-3.5,0-6.3-2.8-6.3-6.3V59.9
			C17.2,56.4,20,53.6,23.5,53.6z"/>
		<path class="st14" d="M24,53.6h2.2c2.4,0,4.3,1.9,4.3,4.3v66.4c0,2.4-1.9,4.3-4.3,4.3H24c-2.4,0-4.3-1.9-4.3-4.3V57.9
			C19.7,55.5,21.6,53.6,24,53.6z"/>
		<path class="st15" d="M27,127.1h-2.2c-1.2,0-2.3-0.5-3.2-1.4c0.6,0.3,1.2,0.4,1.9,0.4h2.2c2.3,0,4.3-1.8,4.3-4.2V57.7
			c0-1-0.4-2.1-1.1-2.8c1.5,0.7,2.4,2.1,2.4,3.7v64.3C31.3,125.3,29.4,127.1,27,127.1z"/>
		<path class="st13" d="M130.3,53.6h3.3c3.5,0,6.3,2.8,6.3,6.3v62.5c0,3.5-2.8,6.3-6.3,6.3h-3.3c-3.5,0-6.3-2.8-6.3-6.3V59.9
			C124,56.4,126.8,53.6,130.3,53.6z"/>
		<path class="st14" d="M130.8,53.6h2.2c2.4,0,4.3,1.9,4.3,4.3v66.4c0,2.4-1.9,4.3-4.3,4.3h-2.2c-2.4,0-4.3-1.9-4.3-4.3V57.9
			C126.5,55.5,128.4,53.6,130.8,53.6z"/>
		<path class="st15" d="M133.8,127.1h-2.2c-1.2,0-2.3-0.5-3.2-1.4c0.6,0.3,1.2,0.4,1.9,0.4h2.2c2.3,0,4.3-1.8,4.3-4.2V57.6
			c0-1.1-0.4-2.1-1.1-2.8c1.5,0.7,2.4,2.1,2.4,3.7v64.4C138.1,125.2,136.2,127.1,133.8,127.1z"/>
		<path class="st11" d="M28.5,23.6C25.4,7.6,31.8,1,47.3,2.2c12.7,1,23.5,1.7,33.2,1.7c8.9,0,21.9-1.3,30.8-1.7
			c15.6-0.7,21.7,3,19.3,20.2c-1.5,10.9-26.7-4.8-53.6-4C52.2,19.1,29.4,28.4,28.5,23.6z"/>
		<path class="st12" d="M80.4,3.9c8.9,0,21.9-1.3,30.8-1.7c15.6-0.7,21.7,3,19.3,20.2c-0.4,2.6-2.1,3.7-4.8,3.8l0,0
			c1.2-8.8,0.2-14.1-3.2-17C116.6,4,95.4,7.5,80.4,3.9z"/>
		<path d="M78.3,3.9c-8.9,0-21.8-1.3-30.8-1.7c-15.6-0.7-21.7,3-19.3,20.2c0.4,2.6,2,3.7,4.8,3.8l0,0c-1.2-8.8-0.2-14.1,3.2-17
			C42.2,4,63.4,7.5,78.3,3.9z"/>
		<path class="st16" d="M55,69.8l25.8,10c15.1-4.4,16.2-6.2,21.6-4C113,80.3,114,96.6,117.3,112c3.4,15.7,9,26.1,5.4,36.8
			c-6.5,18.9-15.8,11.4-19.6,3.5c-3.4-7.2-8-22.4-12.8-34.2c-2.6-6.4-2.9-12.2-6.7-14c-3.3-1.6-5.5-1.2-6.7,0.3
			c-0.4,0.5-1.9,7.8-3.7,16.9c-4.9,25.3-7.2,34.2-12.6,36.8c-8.6,4.1-12.5,1.1-15.4-3.7c-4.9-8,1.5-47.1,5.2-70.5
			C51.8,75,50.1,73.2,55,69.8z"/>
		<path d="M95.2,75.4c2.4-0.8,5-0.6,7.3,0.5c10.6,4.5,11.5,20.8,14.9,36.2c3.4,15.7,9,26.1,5.4,36.7s-8.1,12.9-12.1,11.5
			c2.6-1.3,5.1-4.7,7.3-11.1c1.6-4.5-1.6-21.4-5.2-36.6c-3.2-13.6-6.7-25.7-8.9-26.2c-8.1-2-30.7,2.7-48.6-4.4
			C54.3,81.6,96,75.6,95.2,75.4L95.2,75.4z M84.3,104c-1.8-3-5.5-3.2-8.3-2.2c-6,2.3-6.3,14.1-7.4,19.8
			c-4.9,25.3-7.2,34.2-12.6,36.8c-1.2,0.6-2.5,1.1-3.9,1.4c2.2,0.4,5-0.1,8.6-1.8c5.4-2.6,7.7-11.5,12.6-36.8
			c1.8-9.1,3.3-16.4,3.7-16.9C77.2,104.2,79.5,102,84.3,104z"/>
		<path class="st17" d="M55,69.8l4.5,1.9c-5,3.3-3.2,5.2-4.6,14c-3.7,23.4-10.1,62.4-5.2,70.4c0.8,1.4,1.8,2.7,3,3.8
			c-3.5-0.3-5.7-2.6-7.5-5.6c-4.9-8,1.5-47.1,5.2-70.5C51.8,75,50.1,73.2,55,69.8z"/>
	</g>
</g>
<g>
	<path class="st18" d="M100.9,106c-0.2-0.1-0.3-0.4-0.1-0.6c0,0,0,0,0,0c0.5-0.7,2.7-1.5,2.9-1.7c-0.1,0.4,0.1,0.7-0.2,1.1
		c-0.3,0.5-0.8,0.8-1.3,1.1C101.7,106.2,101.3,106.2,100.9,106z"/>
	<path class="st18" d="M99.5,101.1c-0.2-0.1-0.3-0.4-0.2-0.6c0,0,0,0,0-0.1c0.5-0.6,3-1.3,3.3-1.3c-0.1,0.4,0.1,0.7-0.2,1.1
		c-0.4,0.4-0.9,0.7-1.4,0.9C100.5,101.3,100,101.3,99.5,101.1z"/>
	<path class="st19" d="M74.1,117.2c6.7-1,7,0.2,13.1,0.6c2.1,0,4.2-0.1,6.3-0.4c1.9-0.1,3.8-0.4,5.7-0.9c1.2-0.4,2-1.2,1.4-2.4
		c1.1-0.3,2.9-0.3,3.4-1.2c0.4-0.9,0.4-2-0.1-2.8c0.7-0.1,1.3-0.5,1.8-1c0.4-0.6,0.4-2.6,0.4-3.4c0-1.7-1.2-1.7-2.6-2
		c0.7-0.7,1.1-1.6,1.1-2.6c-0.1-1-1-1.8-2-1.8c-1.1,1-2.4,1.9-3.8,2.5c0.9-0.9,1.4-1.2,0.8-3.2c-1.6,0.4-3.2,0.6-4.8,0.6
		c-3.5,0.1-4.9-0.6-6.9,0.1c-7.1,2.3-6.1,6.1-13.8,5.3L74.1,117.2z M103.4,104c-0.2,0.7-0.7,1.2-1.3,1.6c-1.7,0.7-3.5,1.2-5.4,1.6
		c1.2-0.8,3.7-1.5,4.7-2.1C102,104.7,102.7,104.3,103.4,104L103.4,104z"/>
	<path class="st18" d="M100.2,115.9c0.6-0.5,0.7-1.2,0.4-1.9c0.5-0.2,1.1-0.2,1.7-0.3c-1.2,0-2.3,0-3.5,0.1c-0.3,0-2.4,0.5-2.5,0.6
		c-0.4,0.4,0.8,0.1,1.8,0c0.5-0.1,1.1-0.2,1.6-0.1c0.4,0.2,0.7,0.7,0.6,1.2C100.3,115.6,100.2,115.8,100.2,115.9L100.2,115.9z
		 M104.2,110.5c-0.1-0.2-0.1-0.3-0.2-0.5c0.4-0.1,0.7-0.2,0.9-0.3h-0.5c-1.9,0.1-3.8,0.4-5.6,0.9c-1.1,0.3-2,0.7-1.9,0.8
		c0.6,0,1.1-0.1,1.7-0.3c1.8-0.5,3.6-0.7,5.4-0.7C104,110.4,104.1,110.4,104.2,110.5L104.2,110.5z M104.2,103.8l-0.6-0.1l0.1-0.1
		l0,0c-0.7,0.4-1.3,0.8-1.9,1.3l1.7-0.9c-0.5,0.7-0.7,1.2-1.2,1.5c-0.9,0.6-2.2,0.5-3.3,0.8c-0.8,0.2-2.6,0.8-2.7,1.2
		c0,0.1,1.7-0.5,2.9-0.7c1.5-0.3,3.2-0.5,3.9-0.9c0.3-0.2,0.2-0.6,0.4-0.9s0.6-0.4,0.6-0.7C104.2,104.1,104.2,103.9,104.2,103.8
		L104.2,103.8z M99.1,101.6c-2,1.3-3.8,1-7.2,0.7c-0.8-0.1-1.5-0.7-0.2-0.6c1.9,0.1,5,0.5,6.7-0.4c0.8-0.5,1.2-1.3,1.1-2.2
		c-1.6,0.4-3.2,0.7-4.9,0.7c-2.5,0.1-4.9,0.5-7.3,1.3c-3.9,1.4-6.1,6.8-13.1,5.1v-1.7c7.7,0.8,6.7-3.1,13.8-5.3
		c2-0.6,3.4,0.1,6.9-0.1c1.6,0,3.2-0.2,4.8-0.6c0.6,1.9,0.1,2.3-0.8,3.2L99.1,101.6z"/>
	<path class="st20" d="M113.8,86.8c-24.9,4.4-40.6,7.2-66.9-1.2c-14.1-4.5-15.5-14.7-15.5-26.2c0-10.1,26-15,51.4-14.8
		c24.2,0.2,47.4,5.4,47.2,15C129.8,68.7,130.9,83.8,113.8,86.8z"/>
	<path class="st21" d="M31.4,63.5c-0.1-1.3-0.1-2.7-0.1-4c0-10.1,26-15,51.4-14.8c24.2,0.2,47.4,5.4,47.2,15c0,2.3,0,4.9-0.2,7.7
		c0-1.2,0.1-2.4,0.1-3.5c0.4-9.6-22.1-18-46.2-18.8c-6-0.2-28.9,2.6-42.3,8.3c-6,2.5-9.9,6.3-10,9.4L31.4,63.5z"/>
	<path class="st22" d="M60.6,89.2c-4.7-0.9-9.3-2.1-13.8-3.6C35.4,82,32.3,74.6,31.5,65.8c5.1,6.6,10.5,12.5,13.8,14.8
		C50.3,83.8,55.4,86.7,60.6,89.2z"/>
	<path class="st22" d="M82.7,44.7c19.8,0.2,38.9,3.7,45.2,10.2l-7.2-0.6c-3.5-2-12.5-4.1-20.6-5.9C93.1,46.9,87,45.7,82.7,44.7z"/>
	<path class="st20" d="M47.6,84.1c-5.5,0.9-6.1,4.7-14.1,13c8.2-2.8,34.1,2.9,46.1,2.9c-1.9,6.8-0.8,14.5,0.1,19
		c-14.7-0.8-35.3,1.4-61.9-7.6c-4.5-1.5-6.2-1.5-7.5-4.4c-0.9-1.9-0.5-4.3-0.2-7.7c1.3-12.7,15-49.2,30.5-46.4l11,8L47.6,84.1z"/>
	<path class="st21" d="M79.3,117.1c0.1,0.7,0.2,1.4,0.4,2c-14.7-0.8-35.3,1.4-61.9-7.6c-4.5-1.5-6.2-1.5-7.5-4.4
		c-0.9-1.9-0.5-4.3-0.2-7.7c1.3-12.7,15-49.3,30.5-46.5l0.9,0.7c-2.8,0.4-5.4,1.4-7.7,3c-0.8,0.6-2.7,3.3,1.1,16.3
		c-2.3-3.5-4-12-3.7-14.3C21.5,68.5,13.3,89,12.4,97.8c-0.3,3.4-0.7,5.7,0.2,7.7c1.4,2.9,3,2.9,7.5,4.4
		C44.2,118,64.8,116.9,79.3,117.1z"/>
	<path class="st22" d="M47.6,84.1c-5.5,0.9-6.1,4.7-14.1,13c8.2-2.8,34.1,2.9,46.1,2.9c-0.3,1.3-0.6,2.6-0.8,3.9
		c-1.3-0.5-2.8-1-4.5-1.5c-11.9,0-38.9-3.8-47.1-1c8-8.4,12.9-19.3,18.4-20.2l2.5,1.4L47.6,84.1z"/>
	<path class="st18" d="M85.9,153.9c0.1-0.2-0.1-0.5-0.3-0.5c0,0,0,0,0,0c-0.8-0.1-3.1,0.9-3.3,0.9c0.3,0.2,0.5,0.6,1,0.7
		c0.6,0.1,1.2,0,1.7-0.2C85.4,154.6,85.7,154.3,85.9,153.9z"/>
	<path class="st18" d="M83.3,149.3c0.1-0.2-0.1-0.5-0.3-0.5c0,0,0,0-0.1,0c-0.8-0.1-3.1,1.3-3.4,1.4c0.3,0.2,0.5,0.6,1,0.6
		c0.6,0,1.2-0.1,1.7-0.4C82.7,150.2,83.1,149.8,83.3,149.3z"/>
	<path class="st19" d="M113,142c-5.2,4.6-4.4,5.6-8.5,10.4c-1.5,1.6-3.1,3-4.8,4.3c-1.5,1.3-3.1,2.5-4.8,3.5
		c-1.1,0.6-2.3,0.6-2.8-0.7c-1,0.6-2.4,1.9-3.4,1.7c-1-0.3-1.7-1.1-2-2.1c-0.6,0.4-1.3,0.6-2,0.6c-0.8-0.1-2.2-1.6-2.8-2.2
		c-1.2-1.2-0.4-2.2,0.4-3.3c-1,0-2-0.4-2.7-1.1c-0.7-0.8-0.7-2,0.1-2.8c1.6-0.1,3.1-0.4,4.5-1c-1.3,0-1.9,0.1-2.9-1.7
		c1.4-0.9,2.7-1.9,3.9-3.1c2.6-2.4,3.2-4,5-5c6.8-3.6,10.9,0.3,15.9-6L113,142L113,142z M82.6,154.3c0.7,0.3,1.4,0.4,2.1,0.2
		c1.8-0.8,3.5-1.7,5.1-2.8c-1.4,0.3-3.8,1.7-4.9,1.9C84.1,153.7,83.4,154,82.6,154.3z"/>
	<path class="st19" d="M113,142c-5.2,4.6-4.4,5.6-8.5,10.4c-1.5,1.6-3.1,3-4.8,4.3c-1.5,1.3-3.1,2.5-4.8,3.5
		c-1.1,0.6-2.3,0.6-2.8-0.7c-1,0.6-2.4,1.9-3.4,1.7c-1-0.3-1.7-1.1-2-2.1c-0.6,0.4-1.3,0.6-2,0.6c-0.8-0.1-2.2-1.6-2.8-2.2
		c-1.2-1.2-0.4-2.2,0.4-3.3c-1,0-2-0.4-2.7-1.1c-0.7-0.8-0.7-2,0.1-2.8c1.6-0.1,3.1-0.4,4.5-1c-1.3,0-1.9,0.1-2.9-1.7
		c1.4-0.9,2.7-1.9,3.9-3.1c2.6-2.4,3.2-4,5-5c6.8-3.6,10.9,0.3,15.9-6L113,142L113,142z M82.6,154.3c0.7,0.3,1.4,0.4,2.1,0.2
		c1.8-0.8,3.5-1.7,5.1-2.8c-1.4,0.3-3.8,1.7-4.9,1.9C84.1,153.7,83.4,154,82.6,154.3z"/>
	<path class="st18" d="M110.1,144.7c-2.3,2.5-2.5,4-5.7,7.6c-1.5,1.6-3.1,3-4.8,4.3c-1.3,1.1-6.3,5.9-7.6,2.8c0.3-0.1,1.2,1.5,3,0.1
		c3.1-2.3,6-4.9,8.6-7.7c4.1-4.8,1.9-6,7.1-10.6c0,0,0.3-0.4,0.9-1l0.9,2C111.7,143.1,110.9,143.9,110.1,144.7z"/>
	<path class="st18" d="M93.7,160.5c-0.7,0.1-1.5-0.3-1.7-1.1c-0.4,0.3-1,0.7-1.5,1c0.8-0.9,1.7-1.7,2.6-2.5c0.2-0.2,2.1-1.4,2.2-1.4
		c0.6-0.1-0.5,0.7-1.3,1.3c-0.5,0.3-0.9,0.7-1.3,1.1c-0.1,0.5,0,1,0.4,1.3C93.3,160.4,93.5,160.5,93.7,160.5L93.7,160.5z
		 M86.8,159.5c0-0.1,0.1-0.1,0.1-0.2c1.3-1.3,2.8-2.5,4.4-3.4c0.7-0.5,1.5-0.8,1.4-1s-1,0.2-2,0.8c-1.7,1-3.3,2.1-4.7,3.4l-0.4,0.4
		c0.3-0.1,0.6-0.3,0.9-0.4C86.6,159.2,86.7,159.3,86.8,159.5L86.8,159.5z M81.9,154.7l0.4-0.5h-0.1c0.8-0.2,1.6-0.4,2.4-0.4
		l-1.9,0.6c0.6,0.2,1.3,0.3,1.9,0.2c1.1-0.3,2-1.2,3-1.8c0.8-0.4,2.4-1.4,2.9-1.1c0.1,0-1.6,0.9-2.7,1.6c-1.3,0.9-2.7,2-3.5,2.2
		c-0.4,0.1-0.6-0.3-1-0.4s-0.7,0.1-1-0.1C82.1,154.9,82,154.8,81.9,154.7L81.9,154.7z M84,149.4c2.5-0.5,3.5-2,5.7-4.9
		c0.5-0.6,0.6-1.6-0.3-0.6c-1.3,1.5-3.3,4.1-5.2,4.6c-0.9,0.2-1.8-0.1-2.4-0.8c1.4-0.9,2.8-1.9,4-3.1c1.8-1.8,3.9-3.2,6.2-4.4
		c3.8-1.8,8.8-0.2,13.7-5.8l-0.4-1c-5.8,5.3-8.4,2.2-15.2,5.8c-1.9,1-2.4,2.6-5,5c-1.2,1.2-2.5,2.2-3.9,3.1c1,1.9,1.6,1.7,2.9,1.7
		L84,149.4z"/>
	<path class="st23" d="M81.4,147.9l-0.2-0.3c1.4-0.9,2.7-1.9,3.9-3.1c2.6-2.4,3.2-4,5-5c6.8-3.6,9.3-0.5,15.1-5.9l0.5,1
		c-4.9,5.5-9.8,3.9-13.7,5.8c-2.3,1.1-4.4,2.6-6.2,4.4c-1.2,1.2-2.6,2.2-4,3.1l0,0L81.4,147.9z"/>
	<path class="st20" d="M114.4,84.1c5.5,0.9,9.3,7,17.2,15.4l20.1,7.6c0.9-1.9,0.5-4.3,0.2-7.7c-1.3-12.7-15-49.2-30.5-46.5l-11,8
		L114.4,84.1z"/>
	<path class="st21" d="M117.9,85.5c3.9,2.4,7.6,7.5,13.8,14.1l2.7-0.7c-8.1-9.2-11-15.4-16.5-16.3L117.9,85.5z"/>
	<path class="st22" d="M149.2,106.1l2.6,1c0.9-1.9,0.5-4.3,0.2-7.7c-1.1-11.6-12.6-42.8-26.4-46.3c-1.3-0.4-2.8-0.4-4.1-0.2
		l-4.1-0.1c1.9,1,6.5,2,9.5,4.7c-0.2,6.1-1.8,12-4.8,17.3c4.2-3.5,6.1-12.8,6.3-15.9c10.6,8.8,19.6,30.4,20.6,40.1
		C149.4,102.1,149.7,104.3,149.2,106.1z"/>
	<path class="st20" d="M132.6,96.8c-6.1,2.9-21.3,30.6-30.9,36.3c4.8,4.6,7.5,11.3,9,15.4c11.4-7.6,22.7-19.1,39.8-39
		c2.9-3.4,1.6-6.3,1.3-9.3c-0.2-2-1.6-3.7-3.5-6.2L132.6,96.8z"/>
	<path class="st20" d="M132.6,96.8c-6.1,2.9-21.3,30.6-30.9,36.3c4.8,4.6,7.5,11.3,9,15.4c11.4-7.6,22.7-19.1,39.8-39
		c2.9-3.4,1.6-6.3,1.3-9.3c-0.2-2-1.6-3.7-3.5-6.2L132.6,96.8z"/>
	<path class="st21" d="M132.6,96.8c-6.1,2.9-21.3,30.6-30.9,36.3c0.7,0.7,1.4,1.4,2,2.2c4.7-3.3,11.3-11.5,16.4-18.1s9.7-15,14-18.8
		L132.6,96.8z"/>
	<path class="st22" d="M109.7,145.9c0.4,0.9,0.7,1.8,1,2.5c11.4-7.6,22.7-19.1,39.8-39c2.9-3.4,1.6-6.3,1.3-9.3s-3.2-4.9-4.1-8.9
		c0.5,2.6,1.6,7.6,1.8,9.4c0.3,3,1.7,4.4-1.3,7.7C132,126.2,121,137.3,109.7,145.9z"/>
	<path class="st19" d="M85.4,103c-1,2.7-2.4,6.4-4.7,6.3c-2.6,0-3.6-3.4-4.7-6.3l1.2-3.2l1.2-3.2h4.7l1.2,3.2L85.4,103z"/>
	<path class="st18" d="M81.1,109.3c0.9-1.3,1.2-3.5,0.7-6.2c0.2,0.4,1.5,0.1,1.6,0.4c-0.8,1.4,0.4,2.4,0.1,3.4
		c-0.2,0.5-0.5,0.9-0.9,1.2C82.2,108.4,82.1,109,81.1,109.3z"/>
	<path class="st23" d="M80.2,109.3c-0.9-1.3-1.2-3.5-0.7-6.2c-0.2,0.4-1.5,0.1-1.6,0.4c0.8,1.4-0.4,2.4-0.1,3.4
		c0.2,0.5,0.5,0.9,0.9,1.2C79.2,108.4,79.3,109,80.2,109.3z"/>
	<path class="st19" d="M72.1,101.8c-3.8-1.5-6.9-4.3-8.7-7.8c-2.1-4.3-3.1-10.5-3.6-16.2C59,68.8,60,59.2,64.2,52.7
		c3.2-4.9,9-7.4,16.6-7.2c9.2-0.3,15.3,4.2,18.2,11c2.7,6.2,3.3,14.2,2.6,21.7c-0.5,5.7-1.3,11.5-3.4,15.8c-1.9,3.6-5,6.3-8.7,7.8
		C83.9,104,77.7,104,72.1,101.8z"/>
	<path class="st23" d="M72.1,101.8c-3.8-1.5-6.9-4.3-8.7-7.8c-2.1-4.3-3.1-10.5-3.6-16.2C59,68.8,60,59.2,64.2,52.7
		c3-4.6,8.3-7.1,15.2-7.2c-11.1,6.7-16.7,14.8-15.2,34.3c0.6,8.1,2.7,18.9,15,23.4v0.2C76.8,103.2,74.4,102.7,72.1,101.8z"/>
	<path class="st18" d="M80.6,45.5h0.2c9.2-0.3,15.3,4.2,18.2,11c2.7,6.2,3.3,14.2,2.6,21.7c-0.5,5.7-1.3,11.5-3.4,15.8
		c-1.9,3.6-5,6.3-8.7,7.8c-2.5,0.9-5,1.5-7.7,1.6c11.8-4.7,14.8-13.9,15.4-21.9C98.8,61.6,92.1,52.2,80.6,45.5z"/>
	<path class="st18" d="M72.1,101.8c-1-0.4-1.9-0.9-2.8-1.4c0.3,0.2,0.6,0.3,0.9,0.4c1.9,0.8,3.9,1.3,6,1.7h9.1
		c1.9-0.2,3.8-0.6,5.6-1.3l0.6-0.2c-0.6,0.3-1.2,0.6-1.9,0.9c-1.3,0.5-2.7,0.9-4.1,1.2c-0.2,0.5-0.4,1.1-0.7,1.7
		c-0.6-1.2-1.8-1-3-0.7c-1.7,0.5-0.8,0.4-2.4-0.1c-1-0.4-2.1-0.1-2.7,0.8c-0.2-0.6-0.4-1.2-0.7-1.7l0,0
		C74.7,102.7,73.4,102.3,72.1,101.8z"/>
	<path class="st24" d="M91.7,99.7c2.3-1.6,4.3-3.4,6.1-5.5c-0.1,3.5-5.8,7.3-7.5,8.1c-1.3,0.6-2.1-0.3-2-0.8
		C88.3,101.4,91.3,100,91.7,99.7z"/>
	<path class="st24" d="M69.6,99.7c-2.3-1.6-4.3-3.4-6.1-5.5c0.1,3.5,5.8,7.3,7.5,8.1c1.3,0.6,2.1-0.3,2-0.8
		C73,101.4,70.1,100,69.6,99.7z"/>
	<path class="st18" d="M60.2,81.9c-0.1-1,0.1-2.5,0-3.5l39.9-0.7c-0.1,0.9,1.2,3.2,1.1,4.1c-1.4,0.3-0.8,1.1-1.5,3.8
		c-0.2,1.1-0.6,2.1-1.3,3.1c-0.6,0.2,0.5-6-1.2-5.9c-0.3,0-0.8,1.3-1.3,2.7c-1.9,6.3-6.5,9.4-12,13c0.6-1,0.7-1.6,0.9-1.9
		c-2.6,1.9-5,3.8-6.3,3.7c-0.5-1.8-1.6-3.4-3.1-4.6c-3.4-1.3-4.6-1.5-9.3-10.3s-1,3.9-3.1,2.9C61.5,87.6,62.1,83.2,60.2,81.9z"/>
	<path class="st18" d="M102.2,75.5c1.6-1.4,1.6-3,2.2-4.6c0.5-1.3,1.5-3,1.6-4.7c0.2-3-3-4.7-3.9-0.9
		C100.8,70.2,100.4,71.1,102.2,75.5z"/>
	<path class="st19" d="M59.1,75.5c-1.6-1.4-1.6-3-2.2-4.6c-0.5-1.3-1.5-3-1.6-4.7c-0.1-3,3-4.7,3.9-0.9
		C60.4,70.2,60.9,71.1,59.1,75.5z"/>
	<path class="st25" d="M60.1,81.2c-0.1-1-0.7-2.4-0.8-3.4c-0.8-8.9,0.2-18.6,4.5-25.1c3.3-4.9,9.2-7.4,16.9-7.2
		c9.4-0.3,15.6,4.2,18.6,11c2.8,6.2,3.3,14.2,2.7,21.7c-0.1,1-0.3,1.9-0.6,2.9c-1.4,0.3-0.7,0.8-1.5,3.6c-0.2,1.1-0.6,2.1-1.3,3.1
		c-0.6,0.2-0.3-6.1-2-6.1c-0.3,0-0.7,0.7-1.1,2.2c-1.9,6.3-4.9,9.6-10.3,13.1c1.3-1.6,2.5-3.4,3.4-5.4c-4.1,5.6-6.6,6.7-9.8,7.8
		c-0.8-2.9-4.4-5-6.6-7.7c0.7,1.3,1.7,2.5,2.8,3.5c-5.5-2.9-6.2-7.5-8.3-10.8c-1.8-2.9-3.2-3.8-3.7-3.7c-1.2,0.2,0.6,7.3-0.3,6.6
		C61.6,86.2,62,82.6,60.1,81.2z"/>
	<path class="st26" d="M91.3,72.9c-1.8-4.3-2.6-6.8-4.7-9.8c2.4,8.1,3.5,9.8,4.5,18.5l-2.8-5.5c-0.5,12.2,1.6,16.4-9,21.9
		c-0.9-7.3-9.1-7.5-8.8-21.5L69,81.6c-1.1-6.8-1.4-10.5,3.4-16.5l-5.3,3.4c2.7-11.9,8.6-11.1,12.7-17.5
		C83.9,55.5,89.8,58.6,91.3,72.9z"/>
	<path class="st27" d="M98.9,86.4c1.7-5.4,5.1-14-1.4-26l3.2,3.5C99,55.4,88.8,52.1,80.4,51.1c6.5,5.7,8.9,8.1,10.3,15.5l0.3-4
		c3.6,14.2,2.1,24-2.3,31.1c4.8-4.4,8.2-12.5,7.2-19.2C98,80.8,99,79.7,98.9,86.4z"/>
	<path class="st28" d="M75.1,81c-0.3-5.1-0.7-5.2,0.4-10.3l0.8,0.8c-0.7-6.6-1.7-8.3,1.2-14.8c-3.2,3.4-6.6,6.8-9.7,10.3
		c1.8-1.3,3.7-2.4,5.7-3.4c-2,4.9-3.5,8.2-4,13.7c1.1-3.8,1.6-4.5,3.6-8C73.1,75.8,73,74.8,75.1,81z"/>
	<path class="st28" d="M82.5,93.8c2.3-4.1,2.9-7.8,1.4-14.7c0,0,1.7,5,2,5.5c0.6-7.5,0-13.2-5.9-18.6c-1,2.2-2.5,5.1-3.4,7.3
		c-2.4,5.9,2.4,9.7,3.2,15.9c0.1-4.1-0.3-4.6-0.8-8.6C80.8,85.7,82.8,89.3,82.5,93.8z"/>
	<path class="st26" d="M62.2,84.5c-1.7-5.4-4.8-14.1,0.7-26l-2.5,3.3c2-10.6,11.1-11.6,19.5-12.6C72,54.3,67.4,61.1,66.1,69.4
		c-0.4,2.8,1.2,0.8,2.6-0.2c-2.4,7.8,1.2,19.2,3.6,23.1c-4.6-5.9-8.8-13-8-19.7C62.3,78.9,62.1,77.8,62.2,84.5z"/>
	<path class="st29" d="M79.5,51.8c0.3,4.1-4.1,4.8-8,9.9C72.3,57.2,77,54.4,79.5,51.8z"/>
	<path class="st29" d="M74,87.1c1.3,3.7,5.3,5.3,5.3,10.6C81.3,92.3,76.4,89.6,74,87.1z"/>
	<path class="st29" d="M87.1,86.9c-1.7,3.3-3.5,7.6-7.6,10.8C84.6,94.9,87.1,91.3,87.1,86.9z"/>
	<path class="st29" d="M80.5,95.6c2.1-9.9-3.9-10.1-4.4-14.7C76.1,88.7,80.4,87.7,80.5,95.6z"/>
	<path class="st29" d="M82.9,80.9c0,3.7,1.9,6.7-1.3,12.7C85.6,89.2,85,84.8,82.9,80.9z"/>
	<path class="st29" d="M71.3,76.3c3.1,3,1.7,7.9,7.1,12.1C72.4,85.5,71,83.1,71.3,76.3z"/>
	<path class="st29" d="M87.9,91.1c3.7-9.6,2.9-11-0.1-16.5C88.8,80.8,89.2,84.8,87.9,91.1z"/>
	<path class="st29" d="M69.3,80.4c-0.7-10.2,0.4-11.3,4.9-15.7C71.4,70.3,69.9,74.1,69.3,80.4z"/>
	<path class="st29" d="M83.7,71.5c-0.3,3.5,1.8,6.1,1.9,11.6C87.2,77.3,84.4,75,83.7,71.5z"/>
	<path class="st30" d="M80.3,96.8c0.8-5.1,1.6-8.7-2.8-12.6C79.9,88,80.1,90.2,80.3,96.8z"/>
	<path class="st30" d="M82.1,89.8c1.5-3.3,2.7-5.5,0.5-9C83.5,83.9,83.2,85.4,82.1,89.8z"/>
	<path class="st29" d="M82.7,89.4c-3.7-9.8-5.2-11.3-2.5-21.6c0.5,1.3,3.3,3.3,3.4,13.1c-1.3-3.1-1.6-4-2.1-4.3
		C81.6,80.9,82,85.2,82.7,89.4z"/>
	<path class="st30" d="M80.1,82.6c-1.6-4.6-1.8-7.5,0.1-14.8C81,70,78.8,74.4,80.1,82.6z"/>
	<path class="st30" d="M78.6,84.2c-2.6-4.6-3.3-8-0.6-13.9C76.5,74.8,76.7,79.8,78.6,84.2z"/>
	<path class="st28" d="M90.7,80.8c-2.6-15-5.6-20.7-11-27.9c-0.5,6-4,10.2-2.3,18.6c1.2-3,2.1-6.1,2.5-9.3c3.1,6.3,6.8,7.7,7.6,24
		c0.8-4-0.4-11.5-0.7-15.4L90.7,80.8z"/>
	<path class="st29" d="M89.3,68.8c-1.1-10.2-2.4-11.1-7.6-14.6C85.4,59.2,87.5,62.7,89.3,68.8z"/>
	<path class="st29" d="M90,78.6c-1.1-10.2-4.8-16.9-8.7-22.8C84.6,63.2,87.5,70.8,90,78.6z"/>
	<path class="st29" d="M77.4,68.7c0-6.3,1-9.5,2.8-15.2C79.3,58.7,80.2,61.3,77.4,68.7z"/>
	<path class="st30" d="M77.7,65.2c0-6.3,0.7-5.9,2.6-11.7C79,58,79.9,56.4,77.7,65.2z"/>
	<path class="st29" d="M86.1,71.6c-3.5-8.7-5.9-9.2-5.8-15.5C82.3,62,84.6,63.7,86.1,71.6z"/>
	<path class="st30" d="M88.8,74.4c-2.4-8.3-4.8-8.8-5.8-15.5C85,64.9,87.3,66.5,88.8,74.4z"/>
	<path class="st29" d="M76.3,70.9c-2.7-9.9-1.4-9.5,2.2-14.6C76.3,59.9,75.7,64.5,76.3,70.9z"/>
	<path class="st29" d="M74.5,80.7c-2.8-7.1-3.6-6.9-0.8-13.9C73.1,71.7,73.1,74.4,74.5,80.7z"/>
	<path class="st30" d="M69.5,78.5c0.6-5.1,1.3-7.1,3.5-12.3C73.3,68.5,71,71,69.5,78.5z"/>
	<path class="st27" d="M100.3,60.3c-4.3-8-17.2-9.3-20.6-9.7c2.5-5.5,9.4-4.2,12.9-1.4c-1.8-0.7-3.7-1.1-5.6-1
		C93.2,49.2,97.9,52.3,100.3,60.3z"/>
	<path class="st28" d="M87.7,94.8c5.4-8.4,6.9-15.3,4.6-22.9C92.6,81.1,92,86.4,87.7,94.8z"/>
	<path class="st31" d="M100.3,80.5c1.4-8.5,0.4-14.5-4.1-19.8C97.8,67.5,99.2,72,100.3,80.5z"/>
	<path class="st31" d="M93.1,88.3c2.2-6.8,4.5-10.6,0.4-17.6C94.9,77.9,93.9,80.9,93.1,88.3z"/>
	<path class="st31" d="M99,87.2c0.8-10.4-0.3-11.6-3.8-16C97.6,77,98.8,80.8,99,87.2z"/>
	<path class="st32" d="M98.5,73c-0.8-4.9-1.1-11.2-6.2-16.5c2.3,1,2.7,0.4,4.9,1.7c-5.1-5.4-12.5-6.8-16.8-7.1
		c6,2.3,9.2,7.1,11.9,14.6l-1.6-6.6C93.4,62,95.6,66,98.5,73z"/>
	<path class="st31" d="M98.7,61.3c-2.8-5.3-8.1-8.8-14-9.3C90.1,53.7,95,57,98.7,61.3z"/>
	<path class="st31" d="M93.5,72.5c1-5.9-1-11.8-5.3-15.9C91.3,61.3,93.2,66.8,93.5,72.5z"/>
	<path class="st31" d="M94,59.7c-3.1-5.9-7.8-7.7-13.4-8.6C85.7,53.3,88.9,55.4,94,59.7z"/>
	<path class="st28" d="M95.3,73.6c0.6-4.3,1.4-7.5-4-13.5C94.1,64.4,94.1,68,95.3,73.6z"/>
	<path class="st28" d="M94,53.6c-3.5-2.5-6.4-5.1-14.2-3.2C84.7,50.6,89.5,51.6,94,53.6z"/>
	<path class="st31" d="M99.6,57.9c-2.8-5.3-8.1-8.8-14-9.4C91,50.4,95.8,53.6,99.6,57.9z"/>
	<path class="st31" d="M90.3,47.9c-5.3-2.2-8.7-1.8-10,2C82.1,47.2,87.1,47.4,90.3,47.9z"/>
	<path class="st28" d="M78.7,97.4c-2.8-6.9-8.8-9.4-8.8-17.3C69.1,90.3,73,89.8,78.7,97.4z"/>
	<path class="st29" d="M61.7,81.7c-0.3-5.7-0.2-8,2.7-15.4l-0.7,6.7c3.4-14.6,6.3-17.6,13.8-22.9c-6.2,1.1-11.8,3.8-15.5,8.7
		l2.8-1.6c-2.1,2-2.2,3.8-4.2,9.3l2.2-1.8C60.3,70.6,60.2,73.8,61.7,81.7z"/>
	<path class="st30" d="M60.8,74.8c0-4.9,0.8-7.6,5.1-13.9C65.9,63.2,62.3,66.6,60.8,74.8z"/>
	<path class="st30" d="M63.3,57.8c3.2-3.7,5.6-5.3,12.9-7.3C74.7,52.3,69.8,52.6,63.3,57.8z"/>
	<path class="st29" d="M68.4,86.6c-4.2-9.4-3.5-10.8-0.8-16.5C66.9,76.4,66.8,80.4,68.4,86.6z"/>
	<path class="st30" d="M67.9,84.7c-1.2-5-1.3-7.1-0.9-12.8C68,74,66.8,77.1,67.9,84.7z"/>
	<path class="st30" d="M68.1,55.4c-2,2.8-2.8,6.3-6.6,10C63.2,61.1,65.2,57.2,68.1,55.4z"/>
	<path class="st26" d="M80.4,49.1c-7.3-0.4-14,2-17.1,5.1c3-5.1,8.8-7.8,14.7-6.7l-2.2-1.1C77.7,45.8,80.5,47.4,80.4,49.1z"/>
	<path class="st30" d="M65.1,52.8c3.2-3.7,7.9-5.4,14.6-4C76,48.7,69.4,49.8,65.1,52.8z"/>
	<path class="st21" d="M113.8,86.8c-2.9,0.5-5.7,1-8.4,1.5c3.7-1.3,10.5-3.8,12.5-5.8l0.9,2.9C117.2,86.1,115.5,86.5,113.8,86.8z"/>
</g>
</svg>
