<?xml version="1.0" encoding="utf-8"?>
<!-- Generator: Adobe Illustrator 17.0.0, SVG Export Plug-In . SVG Version: 6.00 Build 0)  -->
<!DOCTYPE svg PUBLIC "-//W3C//DTD SVG 1.1//EN" "http://www.w3.org/Graphics/SVG/1.1/DTD/svg11.dtd">
<svg version="1.1" id="Capa_1" xmlns="http://www.w3.org/2000/svg" xmlns:xlink="http://www.w3.org/1999/xlink" x="0px" y="0px"
	 width="210px" height="233.333px" viewBox="-80 -91.667 210 233.333" style="enable-background:new -80 -91.667 210 233.333;"
	 xml:space="preserve">
<style type="text/css">
	.st0{opacity:0.2;enable-background:new    ;}
	.st1{fill:#FFFFFF;}
	.st2{fill:url(#SVGID_1_);}
	.st3{fill:#FAFAFA;stroke:#E0E0E0;stroke-width:0.1512;stroke-miterlimit:10;}
	.st4{fill:none;stroke:#FFC107;stroke-width:8.1078;stroke-miterlimit:10;}
	.st5{opacity:0.5;fill:#FFFFFF;enable-background:new    ;}
	.st6{opacity:0.1;enable-background:new    ;}
	.st7{opacity:0.6;}
	.st8{fill:#CCCCCA;}
	.st9{fill:#F2F2F2;}
	.st10{clip-path:url(#SVGID_3_);}
	.st11{fill:#21211D;}
	.st12{fill:#363632;}
	.st13{fill:#5C5C69;}
	.st14{fill:#7C7C8A;}
	.st15{fill:#A2A2AB;}
	.st16{fill:#E8A477;}
	.st17{fill:#D69265;}
	.st18{fill:#F1B287;}
	.st19{fill:#F4BC97;}
	.st20{fill:#997356;}
	.st21{fill:#87654A;}
	.st22{fill:#A67D5D;}
	.st23{fill:#EDA580;}
	.st24{fill:#F2B292;}
	.st25{fill:#F7BFA3;}
	.st26{fill:#FCE3D6;}
	.st27{fill:#D085B2;}
	.st28{fill:#AD7398;}
	.st29{fill:#DD94C3;}
	.st30{fill:#BDB4A5;}
	.st31{fill:#D3CBBE;}
</style>
<g>
	<g>
		<circle class="st0" cx="26.507" cy="103.296" r="36.167"/>
		<circle class="st1" cx="24.541" cy="102.248" r="35.905"/>
		
			<radialGradient id="SVGID_1_" cx="80.6186" cy="-670.9341" r="8.4509" gradientTransform="matrix(3.825 0 0 -3.825 -283.825 -2464.075)" gradientUnits="userSpaceOnUse">
			<stop  offset="0" style="stop-color:#FFFFFF"/>
			<stop  offset="0.4846" style="stop-color:#F5F5F5"/>
			<stop  offset="1" style="stop-color:#E6E6E6"/>
		</radialGradient>
		<circle class="st2" cx="24.541" cy="102.248" r="32.367"/>
		<circle class="st3" cx="24.541" cy="102.248" r="17.428"/>
		<circle class="st4" cx="24.541" cy="102.248" r="32.236"/>
		<path class="st5" d="M49.963,76.826l-50.712,50.712c-14.021-14.021-14.021-36.691,0-50.712S35.942,62.805,49.963,76.826z"/>
		<path class="st6" d="M9.603,102.248c0-9.304,7.207-16.773,16.38-17.297c-0.393,0-0.786,0-1.18,0
			c-9.566,0-17.428,7.732-17.428,17.428c0,9.697,7.732,17.428,17.428,17.428c0.393,0,0.786,0,1.18,0
			C16.81,119.021,9.603,111.552,9.603,102.248z"/>
		<g id="XMLID_39_">
			<g class="st7">
				<path id="XMLID_54_" d="M62.674,135.794h0.786l0.131-12.056c0-0.131,0-0.262,0.131-0.262c0.131-0.131,0.393-0.131,0.524,0
					l-0.131,12.318h0.786l0.131-12.056l0,0c0.131-0.262,0.524-0.131,0.524,0.131v11.925h0.917l0.131-11.925
					c0-0.262,0.393-0.393,0.524-0.131l0,0v12.056h0.786l-0.131-12.318c0.131-0.131,0.393-0.131,0.524,0
					c0.131,0.131,0.131,0.131,0.131,0.262v12.056h0.786v-18.083c0-0.393-0.131-0.786-0.262-1.048l-1.572-3.276
					c-0.131-0.393-0.262-0.786-0.262-1.18l1.31-39.443c0-0.786-0.262-1.441-0.917-1.965l0,0c-0.917-0.786-2.228-0.786-3.145,0l0,0
					c-0.524,0.524-0.917,1.18-0.917,1.965l1.048,39.443c0,0.393-0.131,0.786-0.262,1.18l-1.572,3.145
					c-0.131,0.393-0.262,0.655-0.262,1.048L62.674,135.794z"/>
				<polygon id="XMLID_53_" points="64.509,99.103 64.771,108.145 67.654,106.311 67.916,97.007 				"/>
				<path id="XMLID_52_" d="M64.116,84.296l4.324-2.752l0.262-8.649c0-0.262,0-0.393,0-0.655l-4.848,3.014L64.116,84.296z"/>
				<polygon id="XMLID_51_" points="62.674,120.856 68.833,115.745 68.309,114.697 62.805,119.415 				"/>
				<polygon id="XMLID_50_" points="62.674,128.456 63.591,127.67 63.591,125.18 62.674,125.835 				"/>
				<path id="XMLID_49_" d="M65.557,123.87v2.097l1.048-0.917v-1.31c0-0.262,0.393-0.393,0.524-0.131l0,0v0.786l0.655-0.655v-0.524
					c0.131-0.131,0.393-0.131,0.524,0c0,0,0,0,0,0.131l0.917-0.786v-2.49l-4.193,3.407C65.426,123.739,65.557,123.739,65.557,123.87
					z"/>
				<polygon id="XMLID_48_" points="65.033,126.491 65.033,124.001 64.247,124.525 64.247,127.146 				"/>
			</g>
			<g>
				<g>
					<path id="XMLID_47_" class="st8" d="M61.888,135.008h0.786l0.131-12.056c0-0.131,0-0.262,0.131-0.262
						c0.131-0.131,0.393-0.131,0.524,0l-0.131,12.318h0.786l0.131-12.056l0,0c0.131-0.262,0.524-0.131,0.524,0.131v11.924h0.917
						l0.131-11.924c0-0.262,0.393-0.393,0.524-0.131l0,0v12.056h0.786l-0.131-12.318c0.131-0.131,0.393-0.131,0.524,0
						c0.131,0.131,0.131,0.131,0.131,0.262v12.056h0.786v-18.084c0-0.393-0.131-0.786-0.262-1.048l-1.572-3.276
						c-0.131-0.393-0.262-0.786-0.262-1.179l1.31-39.443c0-0.786-0.262-1.442-0.917-1.965l0,0c-0.917-0.786-2.228-0.786-3.145,0l0,0
						c-0.524,0.524-0.917,1.18-0.917,1.965l1.048,39.443c0,0.393-0.131,0.786-0.262,1.179l-1.572,3.145
						c-0.131,0.393-0.262,0.655-0.262,1.048L61.888,135.008z"/>
					<polygon id="XMLID_46_" class="st9" points="63.722,98.317 63.984,107.359 66.867,105.524 67.129,96.22 					"/>
					<path id="XMLID_45_" class="st9" d="M63.329,83.509l4.324-2.752l0.262-8.649c0-0.262,0-0.393,0-0.655l-4.848,3.014
						L63.329,83.509z"/>
					<polygon id="XMLID_44_" class="st9" points="61.888,120.07 68.047,114.959 67.523,113.911 61.888,118.497 					"/>
					<g id="XMLID_40_">
						<polygon id="XMLID_43_" class="st9" points="61.888,127.67 62.805,126.884 62.805,124.394 61.888,125.049 						"/>
						<path id="XMLID_42_" class="st9" d="M64.771,123.083v2.097l1.048-0.917v-1.31c0-0.262,0.393-0.393,0.524-0.131l0,0v0.786
							l0.655-0.655v-0.524c0.131-0.131,0.393-0.131,0.524,0c0,0,0,0,0,0.131l0.917-0.786v-2.49l-4.193,3.407
							C64.64,122.952,64.771,122.952,64.771,123.083z"/>
						<polygon id="XMLID_41_" class="st9" points="64.247,125.704 64.247,123.215 63.46,123.739 63.46,126.359 						"/>
					</g>
				</g>
			</g>
		</g>
		<g id="XMLID_28_">
			<g class="st7">
				<path id="XMLID_38_" d="M-19.881,71.323l0.262,63.685c0,0.917,1.18,1.18,1.704,0.393l0,0c1.835-3.407,3.145-7.207,3.669-11.139
					l0.524-3.669c0.393-2.883-0.131-5.897-1.704-8.517l0,0c-1.31-2.228-1.966-4.848-1.835-7.469l1.703-27.518
					c0.131-1.703,0-3.276-0.524-4.848l0,0c-0.393-1.31-1.442-2.097-2.752-2.097l0,0C-19.357,70.274-19.881,70.799-19.881,71.323z"/>
				<polygon id="XMLID_37_" points="-19.75,91.241 -19.75,100.283 -16.867,98.448 -16.212,88.882 				"/>
				<path id="XMLID_36_" d="M-18.833,70.274c-0.655,0-1.048,0.524-1.048,1.18v4.717l4.193-2.621
					c-0.131-0.393-0.131-0.655-0.262-1.048C-16.343,71.061-17.522,70.274-18.833,70.274z"/>
				<path id="XMLID_35_" d="M-17.26,105.262l-2.49,2.097v1.572l2.621-2.097C-17.26,106.311-17.26,105.786-17.26,105.262z"/>
				<path id="XMLID_34_" d="M-19.619,128.194v2.49l4.98-4.062c0.131-0.786,0.262-1.572,0.393-2.359l0.131-0.655L-19.619,128.194z"/>
			</g>
			<g>
				<g>
					<path id="XMLID_33_" class="st8" d="M-20.667,70.536l0.262,63.555c0,0.917,1.18,1.18,1.703,0.393l0,0
						c1.835-3.407,3.145-7.207,3.669-11.139l0.524-3.669c0.393-2.883-0.131-5.897-1.704-8.517l0,0
						c-1.31-2.228-1.965-4.848-1.835-7.469l1.703-27.518c0.131-1.703,0-3.276-0.524-4.848l0,0c-0.393-1.31-1.441-2.097-2.752-2.097
						l0,0C-20.143,69.488-20.667,70.012-20.667,70.536z"/>
					<polygon id="XMLID_32_" class="st9" points="-20.667,90.323 -20.536,99.496 -17.653,97.662 -16.998,88.096 					"/>
					<path id="XMLID_31_" class="st9" d="M-19.619,69.488c-0.655,0-1.048,0.524-1.048,1.18v4.717l4.193-2.621
						c-0.131-0.393-0.131-0.655-0.262-1.048C-17.129,70.274-18.309,69.488-19.619,69.488z"/>
					<path id="XMLID_30_" class="st9" d="M-18.047,104.476l-2.49,2.097v1.572l2.621-2.097
						C-18.047,105.524-18.047,105-18.047,104.476z"/>
					<path id="XMLID_29_" class="st9" d="M-20.536,127.408v2.49l4.98-4.062c0.131-0.786,0.262-1.572,0.393-2.359l0.131-0.655
						L-20.536,127.408z"/>
				</g>
			</g>
		</g>
	</g>
	<g>
		<g>
			<g>
				<defs>
					<rect id="SVGID_2_" x="-72.559" y="-89.463" width="195.118" height="137.199"/>
				</defs>
				<clipPath id="SVGID_3_">
					<use xlink:href="#SVGID_2_"  style="overflow:visible;"/>
				</clipPath>
				<g class="st10">
					<path class="st11" d="M-21.322-11.757c2.752-4.324,25.553-7.338,48.092-6.683c20.573,0.655,41.015,4.455,46.388,13.366
						C82.2,10.127,89.276,72.633,61.102,74.074C31.88,75.647,11.7,74.991-17.522,72.633C-42.158,67.523-31.937,4.754-21.322-11.757z
						"/>
					<path d="M-13.984-11.757c2.752-4.062,20.311-7.338,39.705-6.683c17.691,0.655,36.56,4.455,41.147,13.366
						c7.862,15.201,16.773,78.493-7.469,79.934c-25.16,1.442-52.023-1.965-77.051-4.324C-39.013,65.557-25.385,4.754-13.984-11.757z
						"/>
					<path class="st12" d="M-20.012-12.936c5.635-3.669,26.339-6.159,46.912-5.504c20.573,0.655,41.016,4.586,46.388,13.366
						c8.649,14.414,15.332,71.548-8.124,78.493c19.001-11.662,12.58-63.161,4.324-76.789C64.116-12.281,43.673-16.081,23.1-16.736
						C5.803-17.392-11.625-15.688-20.012-12.936z"/>
					<path d="M-45.434-45.434c1.31-5.11,3.538-11.532,3.145-21.621c-0.655-16.642,7.338-19.656,27.65-18.477
						c16.38,1.048,27.65,0,40.229,0c11.663,0,27.388,1.048,39.05,0.655c14.021-0.524,26.601,3.014,26.208,16.118
						c-0.131,5.766-2.228,16.249,0.131,22.67C101.724-15.687,42.101-0.094,17.597-2.453C-4.156-2.191-52.772-15.819-45.434-45.434z"
						/>
					<path class="st11" d="M64.247-84.746h0.393c14.021-0.524,26.601,3.014,26.208,16.118c-0.131,5.766-2.228,16.249,0.131,22.801
						C101.331-16.474,46.032-0.88,20.217-2.06c27.388-1.048,75.086-16.38,65.389-43.767c-2.359-6.421-0.262-17.035-0.131-22.801
						C85.868-80.159,76.171-84.222,64.247-84.746z"/>
					<path class="st13" d="M-48.579-21.978h4.193c4.587,0,8.256,3.669,8.256,8.124v81.376c0,4.587-3.669,8.255-8.255,8.255h-4.193
						c-4.586,0-8.255-3.669-8.255-8.255v-81.245C-56.703-18.309-53.034-21.978-48.579-21.978z"/>
					<path class="st14" d="M-47.792-21.978h2.883c3.145,0,5.635,2.49,5.635,5.635v86.486c0,3.145-2.49,5.635-5.635,5.635h-2.883
						c-3.145,0-5.635-2.49-5.635-5.635v-86.486C-53.427-19.488-50.937-21.978-47.792-21.978z"/>
					<path class="st15" d="M-44.91,75.123h-2.883c-1.572,0-3.014-0.655-4.062-1.835c0.786,0.393,1.572,0.524,2.49,0.524h2.883
						c3.145,0,5.635-2.49,5.635-5.635v-86.486c-0.262-1.835-1.442-3.276-3.276-3.8c2.752,0.524,4.98,2.883,4.98,4.98v86.486
						C-39.275,72.633-41.896,75.123-44.91,75.123z"/>
					<path class="st13" d="M90.455-21.978h4.193c4.587,0,8.256,3.669,8.256,8.124v81.376c0,4.587-3.669,8.255-8.256,8.255h-4.193
						c-4.586,0-8.124-3.669-8.124-8.255v-81.245C82.199-18.309,85.868-21.978,90.455-21.978z"/>
					<path class="st14" d="M91.11-21.978h2.883c3.145,0,5.635,2.49,5.635,5.635v86.486c0,3.145-2.49,5.635-5.635,5.635H91.11
						c-3.145,0-5.635-2.49-5.635-5.635v-86.486C85.475-19.488,87.965-21.978,91.11-21.978z"/>
					<path class="st15" d="M93.992,75.123H91.11c-1.572,0-3.014-0.655-4.193-1.835c0.786,0.393,1.572,0.524,2.49,0.524h2.883
						c3.145,0,5.635-2.49,5.635-5.635v-86.486c-0.262-1.835-1.442-3.276-3.276-3.8c2.752,0.524,4.98,2.883,4.98,4.98v86.486
						C99.627,72.633,97.138,75.123,93.992,75.123z"/>
					<path class="st11" d="M-42.027-61.028c-3.931-20.704,4.324-29.484,24.504-27.78c16.511,1.31,30.532,2.228,43.112,2.228
						c11.663,0,28.436-1.703,40.098-2.228C86-89.726,93.862-84.877,90.848-62.469c-1.966,14.283-34.726-6.29-69.713-5.242
						C-11.232-66.925-40.847-54.869-42.027-61.028z"/>
					<path class="st12" d="M25.59-86.711c11.663,0,28.435-1.704,40.098-2.228C86-89.857,93.862-85.008,90.848-62.6
						c-0.524,3.407-2.621,4.848-6.159,4.98l0,0c1.572-11.532,0.262-18.346-4.193-22.146C72.633-86.449,45.115-81.863,25.59-86.711z"
						/>
					<path d="M22.838-86.711c-11.663,0-28.436-1.704-40.098-2.228c-20.311-0.917-28.173,3.931-25.16,26.339
						c0.524,3.407,2.621,4.848,6.159,4.98l0,0c-1.572-11.532-0.262-18.346,4.193-22.146C-24.205-86.449,3.313-81.863,22.838-86.711z
						"/>
					<path class="st16" d="M4.361,111.159c-0.655-10.876-6.29-15.856-9.697-24.766c-3.931-10.09-2.752-24.767-6.552-38.002
						l17.691,21.36l4.062,13.497l0.393,17.035L4.361,111.159z"/>
					<path class="st17" d="M2.789,102.903c-2.621-7.6,0.393-18.214,0.917-23.587c-5.504-9.697-11.007-16.642-14.808-29.877
						l-0.262-1.18C-6.253,59.005-0.356,69.357,6.458,79.054c-1.441,5.504-2.49,11.139-3.145,16.904
						C2.92,98.186,2.789,100.544,2.789,102.903z"/>
					<path class="st18" d="M47.736,97.138c-3.276,11.662-14.546,15.856-29.615-2.49s-27.256-39.05-35.905-61.196
						c-4.062-10.614-4.455-23.98,4.062-30.008C-9.267,0.299-2.715,1.217,7.375,1.217c12.318,0,12.187,6.421,16.904,17.559
						c6.29,14.939,15.07,37.084,19.525,49.664C47.473,78.792,49.963,89.275,47.736,97.138z"/>
					<path class="st19" d="M47.736,97.138c-1.18,4.062-3.276,7.207-6.159,8.911c0.393-0.917,0.786-1.965,1.048-3.014
						c2.228-7.732-0.262-18.346-3.931-28.829c-4.455-12.58-13.366-34.725-19.525-49.664C14.582,13.535,14.713,6.983,2.264,6.983
						c-9.959,0-16.38-0.786-20.836,2.097c1.048-2.228,2.752-4.193,4.849-5.635C-9.267,0.299-2.715,1.217,7.375,1.217
						c12.318,0,12.187,6.421,16.904,17.559c6.159,15.07,15.07,37.084,19.525,49.664C47.473,78.792,49.963,89.275,47.736,97.138z"/>
					<path class="st16" d="M43.804,104.214c-5.242,5.11-14.414,3.931-25.684-9.697C3.051,76.171-9.136,55.467-17.784,33.321
						c-4.062-10.614-4.455-23.98,4.062-30.008c1.31-0.917,2.752-1.441,4.324-1.835c-7.338,6.421-6.814,19.001-2.883,29.091
						c8.649,22.146,20.836,42.85,35.905,61.196C31.618,101.593,38.563,105,43.804,104.214z"/>
					<path class="st18" d="M57.039,5.147c11.007,11.269,9.173,20.442,5.504,34.332c-3.276,12.318-8.387,23.587-12.056,32.76
						c-4.193,10.221-9.959,20.835-14.808,31.712c-11.007,17.952-19.001,20.311-27.649,14.414c-4.98-3.407-5.897-12.58-4.717-22.539
						c1.835-15.987,6.29-26.339,8.78-39.05c2.752-13.497,2.752-31.843,3.276-45.864L57.039,5.147z"/>
					<path class="st19" d="M57.039,5.147c11.007,11.269,9.173,20.442,5.504,34.332c-3.276,12.318-8.387,23.587-12.056,32.76
						c-4.193,10.221-9.959,20.835-14.808,31.712c-7.732,12.711-14.021,17.559-20.18,17.297C28.865,108.8,40.659,79.971,44.59,70.274
						c4.324-10.614,7.993-21.621,10.876-32.76c3.145-12.056,1.31-19.525-6.552-31.319L57.039,5.147z"/>
					<path class="st16" d="M11.831,120.463c-1.441-0.524-2.752-1.18-3.931-2.097c-4.98-3.407-5.897-12.58-4.717-22.539
						c1.835-15.987,6.29-26.339,8.78-39.05c2.752-13.497,2.752-31.843,3.276-45.864l8.256-1.18
						c-0.393,13.89-0.524,31.712-3.276,45.078c-2.49,12.711-6.945,23.063-8.78,39.05C10.258,103.296,7.899,116.269,11.831,120.463z"
						/>
					<path class="st20" d="M57.039,5.147c11.007,11.269,9.173,20.442,5.504,34.332c-0.393,1.572-2.228,7.338-2.752,8.911
						c-14.284,5.372-30.795,1.965-45.209,1.048c-9.828-0.655-16.642,2.752-25.291-0.131c-1.442-3.276-5.635-12.711-6.945-15.987
						c-4.062-10.614-4.455-23.98,4.062-30.008C-9.136,0.168-2.584,1.085,7.506,1.085c8.78,0,11.269,3.276,13.628,9.042L57.039,5.147
						z"/>
					<path class="st21" d="M-10.84,49.308c-1.441-3.276-5.766-12.711-6.945-15.987c-4.062-10.614-4.455-23.98,4.062-30.008
						c1.31-0.917,2.752-1.441,4.324-1.835c-7.338,6.421-6.814,19.001-2.883,29.091c1.835,4.717,6.683,15.069,8.911,19.918
						C-5.991,50.094-8.35,50.094-10.84,49.308z"/>
					<path class="st22" d="M57.039,5.147c11.007,11.269,9.173,20.442,5.504,34.332c-0.393,1.572-2.883,9.173-3.276,10.745
						c-2.621,1.048-5.372,1.835-8.256,2.359c0.917-2.883,3.669-11.924,4.455-14.939c3.145-12.056,1.31-19.525-6.552-31.319
						L57.039,5.147z"/>
					<path class="st21" d="M13.01,50.356c1.31-11.794,1.966-28.567,2.228-39.312l8.124-1.18c-0.393,11.4-1.048,28.96-2.49,41.016
						l-6.945-0.524H13.01z"/>
				</g>
			</g>
		</g>
	</g>
	<g>
		<path class="st16" d="M71.978,112.338l-0.393-0.393l0.131-1.965l0.786-3.145l0.131-1.442l0.262,1.703c0,0-0.131,2.097-0.131,2.359
			C72.764,109.717,71.978,112.338,71.978,112.338z"/>
		<path class="st18" d="M71.847,65.557c-1.31,3.014-2.752,7.469-4.324,9.828c-1.965,2.883-1.965,3.8-3.145,6.421
			c-0.917,1.966-1.31,4.324-1.835,6.421l-0.655,3.276c-0.393,2.228-0.262,1.835,0.131,4.193l1.048,5.242l0.786-0.131l-0.131,3.8
			c-0.262,4.062,1.048,4.98,1.704,4.98c0.655,0,1.048-0.393,1.441-2.49c0.393-1.703,0.393-3.931,0.655-5.504
			c0.393-2.621,0.262-5.11,1.18-7.469c0.655-1.572,0.393-0.786,0.262,0.786c-0.131,1.31-0.131,2.621-0.262,4.062
			c-0.131,1.442-0.262,3.669-0.393,4.98c-0.131,1.703-0.393,4.98-0.393,6.552s0.262,3.014,1.835,2.752
			c0.917-0.131,1.441-1.18,1.704-2.752c0.524-2.49,0.524-5.11,0.917-7.732c0.393-2.49,0.524-5.11,0.524-7.731
			c0-0.655,0.262-1.048,0.262-0.262c0.131,2.883,0,5.897-0.524,8.78c-0.393,2.359-0.786,4.455-1.048,6.945
			c-0.262,1.442-0.655,1.442-0.393,1.703c2.228,2.49,3.145-2.359,4.062-4.193c0.917-2.097,2.883-5.897,3.014-7.862l0.393-7.469
			c0.524-2.359,0.786-4.848,0.786-7.338c-0.131-2.49-0.655-4.587-0.524-6.945c0.262-3.8,1.835-7.076,3.276-11.794L71.847,65.557z"/>
		<path class="st16" d="M69.488,93.337c0.131,0,0,0.786-0.131,1.704c-0.131,1.31-0.131,2.621-0.262,4.062
			c-0.131,1.442-0.262,3.669-0.393,4.98c-0.131,1.704-0.393,4.98-0.393,6.552c0,1.572,0.262,2.621,1.18,2.752
			c-1.048-2.097-0.393-6.945,0-11.139C69.881,98.972,70.536,92.027,69.488,93.337L69.488,93.337L69.488,93.337z M73.551,94.517
			c0,0,0.131,0.131,0.131,0.393c0.131,2.883,0,5.897-0.524,8.78c-0.393,2.359-0.786,4.455-1.048,6.945
			c-0.131,0.393-0.262,0.917-0.393,1.31v0.131c0,0.131,0,0.131,0.131,0.262c0.786,0.786,1.31,0.786,1.835,0.393
			c-0.262-0.131-0.393-0.393-0.393-0.655c-0.131-3.145,1.441-7.338,1.965-10.483c-0.131-2.097-0.393-5.373-0.786-6.814
			C74.206,93.731,73.813,93.731,73.551,94.517L73.551,94.517z"/>
		<path class="st16" d="M71.847,65.557c-1.31,3.014-2.752,7.469-4.324,9.828c-1.965,2.752-2.097,4.062-3.276,6.552
			c-0.917,1.965-1.18,4.193-1.704,6.29l-0.655,3.276c-0.393,2.228-0.262,1.835,0.131,4.193l1.048,5.242l0.786-0.131l-0.131,3.8
			c-0.131,1.442,0,2.883,0.655,4.193c-0.131-2.752-0.131-5.372,0-8.124c0-1.704,0.131-3.407,0.393-4.98
			c0.655-2.359,1.048-4.717,1.31-7.207c0-1.048-0.262-2.097-0.524-3.014c0,5.11-1.572,7.994-1.966,12.449
			c-0.262-1.835-0.393-3.538-0.393-5.373c0-1.965,0.393-3.8,1.048-5.635c1.966-5.897,2.883-7.338,6.028-12.187
			c1.965-3.276,3.276-5.504,4.455-9.173L71.847,65.557z"/>
		<path class="st16" d="M76.433,105.917l1.18-4.193c0-2.49-0.131-5.504,0-7.732c0-0.655,0.524-0.786,0.524,0.131
			c0.131,2.621,0.131,5.242-0.262,7.862L76.433,105.917z"/>
		<path class="st23" d="M64.771,109.455l0.131-2.49c0-0.524,0.393-0.917,0.917-1.048l0,0c0.524,0,0.786,0.524,0.786,1.048l0,0
			l-0.131,2.49c0,0.524-0.393,0.917-0.917,1.048l0,0C65.033,110.373,64.771,109.979,64.771,109.455L64.771,109.455z"/>
		<path class="st24" d="M65.295,110.111l0.131-3.538c0-0.262,0.131-0.393,0.393-0.524l0,0c0.262,0,0.393,0.262,0.393,0.393l0,0
			l-0.131,3.538c0,0.262-0.131,0.393-0.393,0.524l0,0C65.426,110.504,65.295,110.242,65.295,110.111L65.295,110.111z"/>
		<path class="st25" d="M65.688,109.586l0.131-3.145c0-0.131,0-0.131,0.131-0.131l0,0c0.131,0,0.131,0.131,0.131,0.131l0,0
			l-0.131,3.145c0,0.131,0,0.131-0.131,0.131l0,0C65.819,109.717,65.688,109.586,65.688,109.586L65.688,109.586z"/>
		<path class="st1" d="M66.474,109.455c-0.131,0.524-0.393,1.048-0.917,1.048l0,0c-0.393,0-0.786-0.393-0.786-1.048
			c0.131,0.131,0.393,0.262,0.655,0.262h0.393C66.081,109.717,66.212,109.717,66.474,109.455z"/>
		<path class="st26" d="M65.95,108.407l0.131-1.835l0,0l0,0l0,0L65.95,108.407L65.95,108.407L65.95,108.407L65.95,108.407z"/>
		<path class="st23" d="M69.095,112.863l0.131-2.49c0-0.524,0.393-1.048,1.048-1.048l0,0c0.524,0,0.917,0.393,0.917,0.917l0,0
			l-0.131,2.49c0,0.524-0.393,1.048-1.048,1.048l0,0C69.357,113.911,68.964,113.518,69.095,112.863
			C68.964,112.993,68.964,112.863,69.095,112.863z"/>
		<path class="st24" d="M69.619,113.518l0.131-3.538c0-0.262,0.262-0.393,0.393-0.524l0,0c0.262,0,0.393,0.262,0.393,0.393l0,0
			l-0.131,3.538c0,0.262-0.262,0.393-0.393,0.524l0,0C69.75,113.911,69.619,113.78,69.619,113.518L69.619,113.518z"/>
		<path class="st25" d="M70.143,112.993l0.131-3.145c0-0.131,0.131-0.131,0.131-0.131l0,0c0.131,0,0.131,0.131,0.131,0.131l0,0
			l-0.131,3.145c0,0.131-0.131,0.131-0.131,0.131l0,0C70.274,113.124,70.143,113.124,70.143,112.993L70.143,112.993z"/>
		<path class="st1" d="M70.93,112.993c0,0.524-0.393,0.917-1.048,1.048l0,0c-0.524,0-0.917-0.524-0.917-1.048
			c0.262,0.131,0.524,0.262,0.786,0.262h0.393C70.406,113.255,70.668,113.124,70.93,112.993z"/>
		<path class="st26" d="M70.406,111.814l0.131-1.835l0,0l0,0l0,0L70.406,111.814L70.406,111.814L70.406,111.814L70.406,111.814z"/>
		<path class="st23" d="M72.109,112.338l0.655-2.359c0.131-0.524,0.655-0.917,1.048-0.786l0,0c0.524,0.131,0.786,0.655,0.524,1.179
			l0,0l-0.655,2.359c-0.131,0.524-0.655,0.917-1.048,0.786l0,0C72.24,113.255,71.978,112.731,72.109,112.338L72.109,112.338z"/>
		<path class="st24" d="M72.502,112.993l0.917-3.407c0-0.262,0.262-0.393,0.524-0.393l0,0c0.262,0.131,0.393,0.262,0.262,0.524l0,0
			l-0.917,3.407c0,0.262-0.262,0.393-0.524,0.393l0,0C72.502,113.387,72.371,113.124,72.502,112.993z"/>
		<path class="st25" d="M73.026,112.6l0.786-3.014c0-0.131,0.131-0.131,0.131-0.131l0,0l0,0c0.131,0,0.131,0.131,0.131,0.131l0,0
			l-0.786,3.014c0,0.131-0.131,0.131-0.262,0.131l0,0L73.026,112.6L73.026,112.6z"/>
		<path class="st1" d="M73.813,112.731c-0.131,0.524-0.524,0.786-1.048,0.786l0,0c-0.393-0.131-0.655-0.655-0.524-1.179
			c0.131,0.262,0.393,0.393,0.524,0.393l0.393,0.131C73.288,112.863,73.551,112.863,73.813,112.731z"/>
		<path class="st26" d="M73.551,111.552l0.524-1.835l0,0l0,0l0,0L73.551,111.552L73.551,111.552L73.551,111.552L73.551,111.552z"/>
		<path class="st23" d="M63.329,101.069l-0.393-1.965c-0.131-0.524,0.131-0.917,0.393-0.917l0,0
			c0.262-0.131,0.524,0.262,0.655,0.655l0.393,1.965c0.131,0.524-0.131,0.917-0.393,0.917l0,0
			C63.722,101.855,63.329,101.593,63.329,101.069z"/>
		<path class="st24" d="M63.722,101.593l-0.524-2.883c0-0.131,0-0.393,0.131-0.393l0,0c0.131,0,0.262,0.131,0.262,0.262l0.524,2.883
			c0,0.262,0,0.393-0.131,0.393l0,0C63.854,101.855,63.722,101.724,63.722,101.593z"/>
		<path class="st25" d="M63.854,101.069l-0.524-2.49c0-0.131,0-0.131,0-0.131l0,0c0,0,0.131,0,0.131,0.131L63.854,101.069
			C63.984,101.069,63.984,101.2,63.854,101.069L63.854,101.069C63.984,101.2,63.984,101.069,63.854,101.069z"/>
		<path class="st1" d="M64.378,100.938c0,0.524-0.131,0.917-0.393,0.917l0,0c-0.262,0-0.524-0.262-0.655-0.655
			c0.131,0.131,0.262,0.131,0.393,0.131h0.262C64.116,101.2,64.247,101.069,64.378,100.938z"/>
		<path class="st26" d="M61.626,100.151l-0.262-1.442l0,0l0,0l0,0L61.626,100.151L61.626,100.151L61.626,100.151L61.626,100.151z"/>
		<path class="st27" d="M22.576-31.413C9.603-31.937-3.37-31.675-16.343-30.364C-32.199-28.399-38.096-19.75-37.572-10.97
			c0.393,6.159,4.848,9.042,10.221,12.973c3.669,2.752,5.766,8.387,7.862,11.794c3.538,6.159,6.814,18.476,22.801,18.739
			c5.111,0,9.828-2.621,18.739-2.621s13.628,1.704,18.739,1.572c16.118-0.262,18.215-10.483,23.063-18.739
			c1.441-2.359,5.897-4.586,9.697-7.338c5.242-3.931,8.649-9.828,9.173-16.38c0.524-8.78-5.372-17.428-21.228-19.394
			C48.653-31.544,35.549-31.937,22.576-31.413z"/>
		<path class="st27" d="M87.965,12.879c0,20.573-1.704,41.277-5.111,61.589c-4.98-1.31-10.745-2.49-16.118-0.393
			c2.49-20.049,0-30.795,0.917-50.843c-0.786-6.29-1.441-16.249-2.883-22.408l12.842-23.98
			C85.082-19.488,85.213,1.347,87.965,12.879z"/>
		<path class="st28" d="M69.619,73.288c-0.917,0.262-1.835,0.524-2.752,0.786c2.49-20.049,0-30.795,0.917-50.843
			c-0.393-5.635-0.262-11.4-3.014-12.056c2.228-3.8,4.062-7.862,5.372-12.187l2.097,22.277c2.359-3.931,5.766-6.159,9.042-5.504
			c-3.276,1.048-8.387,6.421-8.78,14.152C71.847,45.639,71.716,56.122,69.619,73.288z"/>
		<path class="st29" d="M87.965,12.879c0,20.573-1.704,41.277-5.111,61.589c-0.917-0.262-1.704-0.524-2.621-0.655
			c3.145-19.525,4.717-39.312,4.717-59.099c-2.49-9.959-2.883-26.863-7.732-33.546c-0.262-0.524-0.655-1.048-1.048-1.441
			l1.441-2.752C85.082-19.488,85.213,1.347,87.965,12.879z"/>
		<path class="st27" d="M-52.772,14.451l12.973,7.338c4.324-5.242,16.38-16.118,19.787-18.084l-9.566-29.091
			c-6.814,1.441-14.939,19.656-20.573,31.45C-51.593,8.686-52.51,11.568-52.772,14.451z"/>
		<path class="st29" d="M-42.158,20.479l2.359,1.31c2.883-3.407,10.876-10.483,15.594-15.463c-3.669,1.704-7.076,3.669-10.352,6.028
			C-37.309,14.713-39.93,17.465-42.158,20.479z"/>
		<path class="st18" d="M-0.88,91.11c-1.31-3.145-3.931-7.469-5.111-10.876c-0.524-1.31-1.31-2.883-0.917-3.276
			s3.669,11.4,8.518,9.959c-1.31-2.883-2.228-5.635-3.407-8.387c-0.262-0.393-0.393-0.917-0.655-1.31
			c-2.097-3.538-2.097-4.324-4.455-7.338c-1.572-1.703-3.145-3.145-4.98-4.455c-3.014-2.621-4.455-5.11-7.076-9.697l-9.173,4.717
			c2.621,5.373,3.669,7.338,4.193,9.566c0.393,1.704,0.131,3.407,1.048,7.338c0.786,3.407,2.097,7.862,3.145,12.318
			c0.655,0.917,1.442,1.835,2.228,2.621c0.786,0.786,1.704,1.442,2.752,1.835c0.917,0.393,1.966,0.393,3.014,0.262
			c1.572,1.31,2.49,1.835,3.407,1.835c0.262-0.524,0.393-1.048,0.524-1.572c-0.655-0.786-1.31-1.442-1.966-2.359
			c-0.786-1.18-1.441-2.49-2.097-3.8c-0.655-1.31-1.31-2.49-2.097-3.8c-0.917-1.572-0.524-1.442,0.262-0.262
			c0.786,1.179,1.572,2.49,2.228,3.8c0.655,1.31,1.18,2.621,2.097,3.931c0.524,0.655,1.572,1.966,2.752,3.407
			c1.572,2.097,3.407,4.324,4.193,4.324c0.393,0,0.786-0.131,1.048-0.524c0.393-0.393,0.262-1.442-0.262-2.49
			c-0.524-1.048-1.18-2.097-1.966-3.538c-0.786-1.441-1.441-2.359-2.097-3.669c-1.048-1.835-1.966-3.669-3.014-5.504
			c-0.786-1.572-0.393-1.703,0.393-0.131c0.917,1.835,1.703,3.669,2.752,5.504c0.655,1.179,1.31,2.359,1.966,3.538
			c0.655,1.18,1.048,1.966,1.835,3.014c0.524,0.786,0.917,1.31,1.835,1.179c0.917-0.131,1.18-1.179,0.786-2.49
			C0.168,93.468-0.225,92.289-0.88,91.11z M-14.247,91.765c-0.786-0.786-1.441-1.442-2.228-2.228
			c-0.786-1.835-1.18-3.669-1.31-5.635c0.917,1.835,1.835,4.324,2.752,6.29c0.393,0.786,0.655,0.786,1.048,1.442L-14.247,91.765z"/>
		<path class="st16" d="M-7.039,76.957c0.655-0.524,0.655-0.524,2.49,3.538c1.18,2.621,2.883,5.897,5.897,6.421
			c-1.442,0.393-3.014-0.131-3.8-1.31C-4.288,83.64-6.515,77.088-7.039,76.957L-7.039,76.957z M-26.826,59.66l-1.442,0.786
			c2.621,5.372,3.669,7.338,4.193,9.566c0.393,1.703,0.131,3.407,1.048,7.338c0.786,3.407,2.097,7.862,3.145,12.318
			c0.655,0.917,1.441,1.835,2.228,2.621c0.786,0.786,1.704,1.442,2.752,1.835c0.917,0.393,1.965,0.393,3.014,0.262
			c1.704,1.442,2.621,1.965,3.669,1.704c0.393,0,0.786-1.048,0.262-1.572s-1.31-1.442-1.966-2.359
			c-0.786-1.179-1.441-2.49-2.097-3.8c-0.655-1.31-1.31-2.49-2.097-3.8c-0.917-1.572-0.524-1.442,0.262-0.262
			c0.786,1.179,1.572,2.49,2.228,3.8c0.655,1.31,1.18,2.621,2.097,3.931c0.524,0.655,1.572,1.965,2.752,3.407
			c1.704,2.097,3.407,4.324,4.193,4.324c0.393,0,0.786-0.131,1.048-0.524c0.393-0.393,0.262-1.442-0.262-2.49
			c-0.262-0.655-0.655-1.179-1.048-1.835l0.917,1.704c0.524,1.048,0.524,1.835,0.131,2.228c-0.393,0.393-1.18,0-2.097-0.917
			c-0.786-0.786-1.835-2.228-2.883-3.538c-0.655-0.786-1.31-1.704-1.966-2.621c-0.786-1.18-1.441-2.49-1.966-3.669
			c-0.786-1.572-1.835-3.145-2.883-4.587c-0.524-0.655-1.704-2.228-1.048,0c0.262,0.655,0.524,1.31,0.786,1.835
			c1.441,3.538,3.276,6.814,5.504,9.828c-0.917,0.262-2.359-0.917-3.931-2.49c-0.917-0.917-1.704-1.835-2.359-2.752
			c-1.572-4.062-2.883-6.945-3.538-7.338c-0.655-0.393,0.262,3.014,1.18,7.076c0.786,1.835,3.145,3.276,3.145,3.538
			c0,0.786-2.097-0.524-2.621-0.917c-1.048-0.786-1.835-1.835-2.621-2.883c-0.917-1.572-2.097-9.697-3.014-15.201
			C-23.55,66.605-23.944,64.115-26.826,59.66L-26.826,59.66z M-9.398,82.854c0.131,0,0.393,0.262,0.786,1.048
			c0.917,1.835,1.704,3.669,2.752,5.504c0.655,1.179,1.31,2.359,1.966,3.538c0.655,1.18,1.048,1.965,1.835,3.014
			c0.524,0.786,0.917,1.31,1.835,1.179s1.18-1.179,0.786-2.49c-0.131,1.442-0.655,1.703-1.31,1.048
			c-1.18-0.917-3.8-6.028-4.849-7.732c-1.048-2.097-2.359-4.193-3.669-6.028C-9.66,81.675-9.922,81.675-9.398,82.854L-9.398,82.854z
			 M-14.247,91.765c-0.786-0.786-1.441-1.442-2.228-2.228c-0.786-1.835-1.18-3.669-1.31-5.635c0.917,1.835,1.835,4.324,2.752,6.29
			c0.393,0.786,0.655,0.786,1.048,1.442L-14.247,91.765z"/>
		<path class="st23" d="M1.347,86.655L0.43,84.558c-0.131-0.393-0.655-0.655-1.048-0.524l0,0c-0.393,0.262-0.524,0.786-0.262,1.18
			l0.917,2.097c0.131,0.393,0.655,0.655,1.048,0.524l0,0C1.479,87.572,1.609,87.048,1.347,86.655z"/>
		<path class="st24" d="M1.217,87.31l-1.441-3.014c-0.131-0.131-0.262-0.262-0.524-0.262l0,0c-0.131,0.131-0.262,0.393-0.131,0.524
			l1.441,3.014c0.131,0.262,0.262,0.262,0.524,0.262l0,0C1.217,87.834,1.217,87.572,1.217,87.31z"/>
		<path class="st25" d="M0.561,87.179l-1.18-2.621c0-0.131-0.131-0.131-0.131-0.131l0,0l0,0c0,0,0,0.131,0,0.262l1.18,2.621
			c0,0.131,0.131,0.131,0.131,0.131l0,0C0.692,87.31,0.692,87.179,0.561,87.179L0.561,87.179z"/>
		<path class="st1" d="M0.037,87.31c0.262,0.393,0.786,0.655,1.048,0.524l0,0c0.393-0.262,0.524-0.786,0.262-1.179
			c-0.131,0.262-0.262,0.393-0.393,0.524L0.692,87.31C0.43,87.44,0.299,87.44,0.037,87.31z"/>
		<path class="st26" d="M0.037,86.13l-0.655-1.572l0,0l0,0l0,0L0.037,86.13L0.037,86.13L0.037,86.13L0.037,86.13z"/>
		<path class="st23" d="M-0.618,97.269l-0.786-1.965c-0.262-0.393-0.131-0.917,0.262-1.179l0,0c0.393-0.131,0.917,0.131,1.048,0.524
			l0,0l0.917,1.965c0.262,0.393,0.131,0.917-0.262,1.18l0,0C-0.094,97.924-0.487,97.793-0.618,97.269
			C-0.618,97.4-0.618,97.4-0.618,97.269z"/>
		<path class="st24" d="M0.037,97.662l-1.31-2.883c-0.131-0.131,0-0.393,0.131-0.524l0,0c0.131,0,0.393,0,0.393,0.262l0,0
			l1.31,2.883c0.131,0.131,0,0.393-0.131,0.524l0,0C0.168,97.924,0.037,97.793,0.037,97.662L0.037,97.662z"/>
		<path class="st25" d="M0.168,97.007l-1.048-2.49v-0.131l0,0c0.131,0,0.131,0,0.131,0.131l0,0l1.048,2.49v0.131l0,0
			C0.168,97.138,0.168,97.138,0.168,97.007L0.168,97.007z"/>
		<path class="st1" d="M0.692,96.744c0.131,0.393,0,0.917-0.262,1.18l0,0c-0.262,0.131-0.786,0-1.048-0.524
			c0.131,0.131,0.393,0.131,0.655,0l0.262-0.131C0.43,97.138,0.561,96.875,0.692,96.744z"/>
		<path class="st26" d="M-0.225,96.089l-0.655-1.442l0,0l0,0l0,0L-0.225,96.089L-0.225,96.089L-0.225,96.089L-0.225,96.089z"/>
		<path class="st23" d="M-2.846,99.889l-1.048-1.835c-0.262-0.393-0.131-1.048,0.262-1.31l0,0l0,0
			c0.393-0.262,0.917-0.131,1.18,0.262l0,0l1.048,1.835c0.262,0.393,0.131,1.048-0.262,1.31l0,0
			C-1.928,100.414-2.453,100.414-2.846,99.889C-2.715,100.02-2.715,99.889-2.846,99.889z"/>
		<path class="st24" d="M-2.06,100.02l-1.572-2.752c-0.131-0.131,0-0.393,0.131-0.524l0,0c0.131-0.131,0.393,0,0.524,0.131l0,0
			l1.572,2.752c0.131,0.131,0,0.393-0.131,0.524l0,0C-1.666,100.283-1.928,100.283-2.06,100.02L-2.06,100.02z"/>
		<path class="st25" d="M-1.928,99.365l-1.442-2.359c0,0,0-0.131,0-0.262l0,0c0,0,0.131,0,0.262,0l0,0l1.442,2.359
			c0,0,0,0.131,0,0.262l0,0l0,0C-1.798,99.496-1.798,99.496-1.928,99.365L-1.928,99.365z"/>
		<path class="st1" d="M-1.273,98.972c0.262,0.393,0.131,0.917-0.262,1.18l0,0c-0.393,0.262-0.917,0.131-1.18-0.262
			c0.262,0,0.524,0,0.655-0.131l0.262-0.131C-1.535,99.496-1.404,99.234-1.273,98.972z"/>
		<path class="st26" d="M-2.322,98.448l-0.786-1.442l0,0l0,0l0,0L-2.322,98.448L-2.322,98.448L-2.322,98.448L-2.322,98.448z"/>
		<path class="st23" d="M-8.743,96.22l-1.048-1.048c-0.262-0.262-0.131-0.655,0.131-0.786l0,0l0,0c0.262-0.262,0.655-0.262,0.917,0
			l1.048,1.048c0.262,0.262,0.131,0.655-0.131,0.786l0,0l0,0C-8.087,96.482-8.48,96.482-8.743,96.22z"/>
		<path class="st24" d="M-8.087,96.22l-1.441-1.572c-0.131-0.131-0.131-0.262,0-0.393l0,0l0,0c0.131-0.131,0.262-0.131,0.393,0
			l1.441,1.572c0.131,0.131,0.131,0.262,0,0.393l0,0l0,0C-7.825,96.22-7.956,96.22-8.087,96.22z"/>
		<path class="st25" d="M-8.087,95.696l-1.31-1.31v-0.131l0,0l0,0h0.131l1.31,1.31v0.131l0,0l0,0
			C-7.956,95.827-8.087,95.827-8.087,95.696z"/>
		<path class="st1" d="M-7.695,95.303c0.131,0.262,0.131,0.655-0.131,0.917l0,0c-0.262,0.262-0.655,0.262-0.917,0
			c0.131,0,0.393-0.131,0.524-0.262l0.262-0.131C-7.825,95.696-7.695,95.565-7.695,95.303z"/>
		<path class="st26" d="M-8.48,95.172l-0.655-0.786l0,0l0,0L-8.48,95.172L-8.48,95.172L-8.48,95.172z"/>
		<path class="st23" d="M-12.412,94.648l-1.441-0.393c-0.393-0.131-0.524-0.393-0.524-0.655l0,0c0-0.262,0.393-0.393,0.655-0.262
			l1.441,0.393c0.393,0.131,0.524,0.393,0.524,0.655l0,0C-11.757,94.648-12.019,94.648-12.412,94.648z"/>
		<path class="st24" d="M-11.887,94.386l-2.097-0.655c-0.131,0-0.262-0.131-0.262-0.262l0,0c0-0.131,0.131-0.131,0.262-0.131
			l2.097,0.655c0.131,0,0.262,0.131,0.262,0.262l0,0C-11.625,94.386-11.757,94.517-11.887,94.386z"/>
		<path class="st25" d="M-12.15,94.124l-1.835-0.524c0,0-0.131,0-0.131-0.131l0,0c0,0,0,0,0.131,0L-12.15,94.124
			C-12.15,93.992-12.019,93.992-12.15,94.124L-12.15,94.124C-12.019,94.124-12.15,94.124-12.15,94.124z"/>
		<path class="st1" d="M-12.15,93.862c0.262,0.131,0.524,0.393,0.393,0.524l0,0c0,0.131-0.393,0.262-0.655,0.262
			c0.131,0,0.262-0.131,0.262-0.262v-0.131C-12.019,93.992-12.019,93.862-12.15,93.862z"/>
		<path class="st26" d="M-12.805,93.862l-1.048-0.393l0,0l0,0L-12.805,93.862L-12.805,93.862L-12.805,93.862z"/>
		<path class="st27" d="M-53.034,14.713c7.469,19.263,16.511,37.871,26.994,55.692c4.193-3.145,9.042-6.29,14.939-6.159
			C-20.668,46.425-28.268,26.245-36.261,7.9C-43.73,0.692-52.641,4.623-53.034,14.713z"/>
		<path class="st29" d="M-14.508,64.64c1.048-0.262,2.228-0.262,3.407-0.262c-8.78-16.511-16.118-34.987-23.456-52.154
			c-0.786,0.786-11.007,1.966-11.794,2.752c6.552-0.262,10.09,1.048,10.483,1.835C-29.447,31.88-21.584,50.225-14.508,64.64z"/>
		<path class="st28" d="M22.576-31.413C9.603-31.937-3.37-31.675-16.343-30.364c-15.332,1.966-21.359,10.09-21.228,18.608
			c2.097-3.538,4.586-6.814,7.469-9.697c3.276-3.669,8.911-6.945,17.69-7.6L22.576-31.413L22.576-31.413z M-29.316,0.823
			c3.276,2.49,7.862,9.959,9.697,13.104c3.538,6.159,6.814,18.476,22.801,18.739c1.835,0,3.669-0.262,5.372-0.655
			c-1.18,0.131-2.49,0.262-3.669,0.262C-11.233,32.011-12.15,20.61-15.819,14.451C-16.736,12.224-24.205,1.216-29.316,0.823z"/>
		<path class="st28" d="M-52.772,14.451l3.014,1.704l-0.393-1.048c0-1.835,0.524-3.669,1.31-5.372
			c0.393-1.18,0.917-2.359,1.442-3.276c4.586-9.566,11.269-22.408,17.297-27.912c0.393-0.524,0.786-0.917,1.31-1.31l-0.917-2.621
			c-6.814,1.441-14.939,19.656-20.573,31.45C-51.724,8.686-52.51,11.568-52.772,14.451z"/>
		<path class="st28" d="M-53.034,14.713c7.469,19.263,16.511,37.871,26.994,55.692c0.917-0.655,1.704-1.31,2.621-1.835
			c-9.697-16.642-20.311-36.298-26.732-53.464c0-1.835,0.524-3.669,1.31-5.372c0.393-1.18,0.917-2.359,1.442-3.276l0.917-1.835
			C-50.02,5.541-52.772,9.21-53.034,14.713z"/>
		<path class="st29" d="M22.576-31.413l35.905,3.014c9.697,1.18,15.725,4.849,18.739,9.566c2.228,3.014,3.407,7.994,4.455,13.497
			c0.655-1.835,1.048-3.669,1.18-5.504c0.524-8.78-5.372-17.428-21.228-19.394C48.653-31.675,35.549-31.937,22.576-31.413
			L22.576-31.413z M43.935,31.224c12.318-0.655,16.249-11.794,19.525-17.559l7.469-15.069c-5.766,5.766-9.828,17.166-14.808,23.587
			C52.977,26.376,48.784,29.521,43.935,31.224z"/>
		<path class="st18" d="M19.55,30.489c-1.614-2.097-3.227-4.062-4.964-6.028l14.646,0.524c-1.365,1.704-2.606,3.407-3.848,5.242
			c-0.993,1.31-2.11,2.621-3.103,2.752C21.288,33.109,20.419,31.537,19.55,30.489z"/>
		<path class="st19" d="M23.274,32.585c0.993-1.048,0.993-3.276,0.496-6.159l0.745,0.524c0.124,1.835,1.117,2.752,0.248,3.931
			C24.267,31.537,23.77,32.061,23.274,32.585z"/>
		<path class="st18" d="M-0.929,10.833c-8.316-15.987-4.84-30.925,0.124-43.899c8.192-21.098,33.635-23.325,44.061-6.421
			c7.199,11.663,12.536,30.533,4.096,47.961c-3.475,7.076-6.454,13.104-11.418,16.249c-3.599,2.359-9.681,2.49-13.528,2.621
			c-3.848,0.131-8.936,0-13.652-3.276C5.153,21.316,2.174,16.598-0.929,10.833z"/>
		<path class="st16" d="M-0.929,10.833C-9.244-5.154-6.142-20.879-1.177-33.852c3.972-10.352,14.77-15.201,24.078-16.249
			c-7.571,2.097-16.259,6.683-19.61,15.463C-1.674-21.666-4.777-5.941,3.539,10.046c2.979,5.766,5.958,10.483,9.681,13.104
			c2.358,1.572,4.964,2.621,7.695,3.014l-3.103,1.048c-3.227-0.262-6.33-1.31-9.06-3.145C5.153,21.316,2.174,16.598-0.929,10.833z"
			/>
		<path class="st19" d="M29.479-50.494c6.206,1.441,11.791,5.242,15.39,10.876C52.068-27.955,55.915-9.086,47.6,8.343
			c-3.475,7.076-6.454,13.104-11.418,16.249c-2.73,1.704-6.578,2.228-10.053,2.49L23.77,25.64c2.979-0.131,5.958-0.917,8.688-2.359
			c4.964-3.145,7.943-9.173,11.418-16.249c8.316-17.428,4.592-36.298-2.73-47.961C38.291-45.252,34.196-48.66,29.479-50.494z"/>
		<path class="st16" d="M36.554,24.33l-0.372,0.262c-3.103,1.965-7.943,2.359-11.791,2.49c-0.62-0.262-1.241-0.393-1.986-0.524
			c-0.745,0.131-1.365,0.262-2.11,0.524c-3.227,0-6.454-0.655-9.433-2.097c5.958,1.704,9.06,0.393,11.418,0.393
			C25.756,25.378,27.369,27.213,36.554,24.33z"/>
		<path class="st16" d="M17.937,28.392c-0.62-0.786-1.241-1.572-1.986-2.359h4.468h0.248h4.592h0.124h2.979
			c-0.496,0.655-0.993,1.441-1.614,2.228h-0.124l0,0l0,0h-0.124h-0.124l0,0h-0.124l0,0l0,0l-0.124-0.131l0,0h-0.124l0,0l0,0l0,0l0,0
			H25.88l0,0h-0.124l0,0l0,0l0,0h-0.124l0,0h-0.124h-0.124l0,0H25.26l0,0l0,0l0,0l0,0h-0.124l0,0h-0.124l0,0l0,0l0,0l0,0h0.62l0,0
			l0,0h-0.124l0,0l0,0h-0.124l0,0l0,0h-0.993h-0.124l0,0h-0.124H24.02h-0.124l0,0h-0.124h-0.124h-0.124h-0.248h-0.124h-2.358h-0.124
			l0,0h-0.124l0,0h-0.124l0,0h-0.124h0.372h-0.124l0,0h-0.124l0,0h-0.124l0,0l0,0h-0.124l0,0l0,0H20.05h-0.124l0,0h-0.124l0,0l0,0
			h-0.124h-0.124l0,0H19.43l0,0h-0.124l0,0h-0.124l0,0l0,0l0,0l0,0h-0.124l0,0h-0.124l0,0h0.496l0,0l0,0l0,0l0,0l0,0l0,0h-0.124l0,0
			h-0.124l0,0h-0.124l0,0h-0.124l0,0l0,0H18.81l0,0h-0.124l0,0h-0.124l0,0L17.937,28.392z"/>
		<path class="st18" d="M51.572-4.63c2.11-1.966,2.11-4.193,2.855-6.29c0.62-1.835,1.986-4.193,2.11-6.552
			c0.248-4.062-3.972-6.421-5.089-1.31C49.834-11.968,49.213-10.658,51.572-4.63z"/>
		<path class="st18" d="M-6.018-4.63c-2.11-1.966-2.11-4.193-2.855-6.29c-0.62-1.835-1.986-4.193-2.11-6.552
			c-0.248-4.062,3.972-6.421,5.089-1.31C-4.404-11.968-3.784-10.658-6.018-4.63z"/>
		<path class="st30" d="M14.461,25.247c-3.972-1.31-7.695-3.407-10.922-6.159c2.358,3.669,5.958,6.421,10.053,7.6
			C15.827,27.082,16.696,25.902,14.461,25.247z"/>
		<path class="st30" d="M30.596,25.247c3.972-1.31,7.695-3.407,10.922-6.159c-2.358,3.669-5.958,6.421-10.053,7.6
			C29.355,27.082,28.362,25.902,30.596,25.247z"/>
		<path class="st16" d="M21.536,32.585c-0.993-1.048-0.993-3.276-0.496-6.159l-0.745,0.524c-0.124,1.835-1.117,2.752-0.248,3.931
			C20.543,31.537,21.04,32.192,21.536,32.585z"/>
		<g>
			<path class="st30" d="M47.724,7.95c6.702-15.069,5.213-30.008,0.372-42.195C40.029-55.343,11.11-56.522,0.685-39.618
				C-6.886-27.038-8.748-11.575-4.28,2.577c2.606,4.587,6.33,8.387,10.798,11.007c-1.986-0.393-3.972-1.31-5.461-2.752
				c2.979,3.8,5.709,5.111,10.55,3.669c6.082,10.876,17.872,9.435,26.312,3.014c-5.089,2.359-8.688,3.407-12.287,3.407
				C35.933,18.433,41.27,14.764,47.724,7.95z"/>
			<path class="st30" d="M28.611-49.97c3.351-4.455,6.826-9.304,4.84-15.856c-4.344-14.546-18.865-14.021-23.458-0.655
				c-1.738,5.111,0.745,14.414,7.074,16.642L28.611-49.97z"/>
			<path class="st31" d="M11.358,12.012c2.482,6.159,7.571,11.4,17.872,9.304c-3.103,0.131-6.33-0.393-9.308-1.442
				c5.709,0.262,11.418-1.31,16.383-4.324c19.61-11.532,15.638-45.733,4.964-59.623c7.447,17.035,9.681,34.595-4.344,49.795
				l3.475-9.304C34.941,7.164,19.798,16.73,11.358,12.012z"/>
			<path class="st31" d="M12.848,11.881c-0.372-1.31-1.117-2.228-1.241-3.931c0.496-1.835,0.745-3.8,0.869-5.766
				c0-3.014-0.993-4.062-0.869-5.766c0.248-3.014,1.365-4.586,1.489-6.29c0.124-2.49-0.869-2.49-0.993-4.193
				c-0.745-9.828,3.351-27.256,7.323-33.546c-1.738,6.29-4.344,12.711-4.468,20.311c1.489-6.29,5.833-18.346,6.33-23.325
				C33.7-48.267,39.905-47.873,42.76-35.818c2.73,11.4,0.745,19.263-6.082,30.925c4.84-5.372,6.454-10.483,7.819-17.035
				C43.628-2.271,30.721,11.357,12.848,11.881z"/>
			<path class="st30" d="M13.593,15.288c14.77,10.221,33.015-2.097,37.607-21.228C42.015,13.585,30.721,20.005,13.593,15.288z"/>
			<path class="st30" d="M11.855,13.453c3.848,10.352,14.149,9.566,18.741,7.993C25.756,22.495,16.199,22.364,11.855,13.453z"/>
			<path class="st31" d="M15.33,15.288c17.5,2.752,30.16-6.552,32.891-29.877C44.373,4.936,33.079,12.274,15.578,13.847
				c-0.745,0-1.365,0-2.11,0.131C12.848,14.24,12.972,14.895,15.33,15.288z"/>
			<path class="st30" d="M43.628,5.591c10.674-19.656,8.812-27.649,0.745-46.781C50.703-22.189,51.323-13.41,43.628,5.591z"/>
			<path class="st30" d="M13.096,11.488c12.536,1.965,25.319-8.387,30.532-26.601C40.029-8.692,31.093,7.033,13.096,11.488z"/>
			<path class="st31" d="M19.426,10.964c8.44-1.835,16.88-9.435,20.851-17.559C35.065,1.136,27.742,7.295,19.426,10.964z"/>
			<path class="st30" d="M38.912,2.577c7.447-8.124,10.426-22.277,4.716-39.836C47.228-23.893,45.49-9.478,38.912,2.577z"/>
			<path class="st30" d="M14.586,15.812c9.06,4.717,21.72,1.965,27.429-5.766C35.561,16.205,26.128,19.612,14.586,15.812z"/>
			<path class="st30" d="M12.6,9.129c6.206,0.393,32.27-24.636,23.085-54.381C40.277-14.327,18.433,2.577,12.6,9.129z"/>
			<path class="st31" d="M24.639,3.626c12.784-6.29,28.422-33.94,9.184-52.809C48.345-28.348,34.941-7.513,24.639,3.626z"/>
			<path class="st31" d="M12.848,10.178c8.316-2.621,18.865-14.939,20.851-25.422C30.596-7.382,23.522,4.15,12.848,10.178z"/>
			<path class="st31" d="M15.082,10.046C27.245,6.77,38.54-3.975,43.132-18.127C40.277-11.444,32.582,3.494,15.082,10.046z"/>
			<path class="st31" d="M18.433,16.074c11.17,1.835,22.713-1.572,27.802-18.346C38.912,16.73,23.894,15.681,18.433,16.074z"/>
			<path class="st30" d="M13.344,14.371c14.025,1.965,25.444-2.097,30.16-12.842C38.167,10.702,29.603,14.764,13.344,14.371z"/>
			<path class="st30" d="M32.21-6.858c7.447-8.124,10.426-22.277,4.716-39.836C40.525-33.328,38.788-18.913,32.21-6.858z"/>
			<path class="st30" d="M12.476,8.081c6.206-9.959,29.291-34.202,20.355-56.347C36.802-24.81,13.965-7.513,12.476,8.081z"/>
			<path class="st30" d="M15.827,1.005c5.709-9.959,23.334-28.96,17.004-49.14C37.795-23.893,18.93-12.623,15.827,1.005z"/>
			<path class="st31" d="M15.454,4.936c7.323-6.29,20.355-23.849,19.238-40.36C34.32-21.927,27.618-11.706,15.454,4.936z"/>
			<path class="st30" d="M13.841-2.271c12.784-22.277,27.553-40.754,9.805-47.306c8.44,8.256,0.993,20.442-4.592,32.367
				c2.979-13.104,11.791-24.636,2.855-32.367c1.489,4.586-4.22,18.215-5.709,24.898C14.71-17.079,13.344-13.41,13.841-2.271z"/>
			<path class="st31" d="M14.461-4.106c5.213-10.352,26.064-37.084,9.681-45.209C37.795-39.487,18.557-16.948,14.461-4.106z"/>
			<path class="st31" d="M17.44-12.885c2.73-17.69,9.06-26.077,4.964-35.774C29.479-40.928,20.791-28.741,17.44-12.885z"/>
			<path class="st30" d="M20.419-22.582c7.447-10.483,9.681-20.836,2.979-26.339C26.625-44.466,28.859-37.259,20.419-22.582z"/>
			<path class="st30" d="M14.213-10.658c-0.496-11.794-0.372-14.939,1.241-26.732c-1.117,11.532-1.241,12.187,0.372,23.849
				L14.213-10.658z"/>
			<path class="st30" d="M8.752-45.777C-1.55-38.831-4.404-28.479-3.66-9.61l-1.241-8.124C-7.756-6.072,2.918,4.281,12.724,10.439
				C8.256-0.568,11.979-7.12,11.11-15.113L9.497-8.299c0-11.139,5.089-31.45,10.674-41.54C8.876-47.349,5.401-37.521,4.408-28.873
				C4.036-33.852,4.904-37.521,8.752-45.777z"/>
			<path class="st31" d="M-5.273-13.017C-4.776-0.437,9.621,8.998,13.344,11.619C7.263,16.991-0.184,11.095-2.666,5.591
				c1.738,2.097,3.724,3.669,6.082,4.717C-3.287,5.198-7.01-1.485-5.273-13.017z"/>
			<path class="st30" d="M13.841-47.218C4.904-36.866,4.16-22.844,7.139-7.644C8.132-22.32,8.132-35.556,13.841-47.218z"/>
			<path class="st30" d="M-0.308-34.769c-7.199,23.194,6.95,40.754,13.032,45.209C7.883,4.674-2.915-13.279-0.308-34.769z"/>
			<path class="st30" d="M-0.681,8.605c5.089,5.897,9.184,7.6,13.032,3.538C8.628,14.371,2.794,11.095-0.681,8.605z"/>
			<path class="st31" d="M-2.666-20.617C-2.542-9.348,0.933,2.053,9.745,7.032C0.933-0.961-1.053-10.134-2.666-20.617z"/>
			<path class="st31" d="M5.401-41.976C-4.528-19.962,5.525-1.878,11.11,7.557C9.373-1.354,0.188-21.01,5.401-41.976z"/>
			<path class="st30" d="M1.802-30.314c-1.365,12.58,1.614,25.16,8.44,35.643C4.78-5.547,1.802-17.865,1.802-30.314z"/>
			<path class="st31" d="M11.979,9.26C2.546-0.044,0.561-11.313,1.802-22.32C2.67-10.658,4.284-1.878,11.979,9.26z"/>
			<path class="st30" d="M13.468,12.143C6.394,12.536-1.798,5.198-4.652-5.416C3.539,8.212,6.146,6.901,13.468,12.143z"/>
			<path class="st31" d="M11.979,12.668C5.774,13.06-1.425,6.64-3.783-2.664C3.291,9.26,5.525,8.212,11.979,12.668z"/>
			<path class="st30" d="M20.295-50.887c-9.929,9.304-12.039,23.194-10.55,38.526C12.103-26.907,13.468-40.011,20.295-50.887z"/>
			<path class="st31" d="M18.93-49.446C4.905-36.997,5.774-9.478,9.993,2.315C6.89-11.444,7.883-36.604,18.93-49.446z"/>
			<path class="st30" d="M21.784-49.97l5.958-0.262c10.302-11.269,2.11-32.629-14.025-22.015
				C26.625-72.509,25.259-58.225,21.784-49.97z"/>
			<path class="st31" d="M26.625-50.363c6.95-4.455,8.316-26.732-10.177-23.718C34.072-72.771,29.479-56.522,26.625-50.363z"/>
			<path class="st30" d="M23.398-50.101c6.33-1.703,6.206-26.47-9.184-22.539C27.245-72.771,26.252-56.26,23.398-50.101z"/>
			<path class="st31" d="M25.259-50.101c4.964-6.29,5.461-23.718-8.44-23.325C29.976-73.557,28.238-56.26,25.259-50.101z"/>
			<path class="st30" d="M21.66-50.232c-1.862-6.028-5.958-15.07-4.096-21.359c-5.337-0.262-7.323,5.242-7.199,9.435
				C10.614-55.867,15.703-49.184,21.66-50.232z"/>
			<path class="st31" d="M21.164-50.494c-5.213-0.655-8.812-2.883-11.294-12.318l2.358,3.669
				c-1.365-5.242-1.489-10.614,4.964-13.497C12.476-67.136,13.841-55.342,21.164-50.494z"/>
			<path class="st31" d="M22.405-51.018c0.62-11.139,1.986-11.007-4.096-20.311C19.302-64.515,20.667-57.701,22.405-51.018z"/>
		</g>
	</g>
</g>
</svg>
