<?xml version="1.0" encoding="utf-8"?>
<!-- Generator: Adobe Illustrator 17.0.0, SVG Export Plug-In . SVG Version: 6.00 Build 0)  -->
<!DOCTYPE svg PUBLIC "-//W3C//DTD SVG 1.1//EN" "http://www.w3.org/Graphics/SVG/1.1/DTD/svg11.dtd">
<svg version="1.1" id="Capa_1" xmlns="http://www.w3.org/2000/svg" xmlns:xlink="http://www.w3.org/1999/xlink" x="0px" y="0px"
	 width="210px" height="233.333px" viewBox="-80 -91.667 210 233.333" style="enable-background:new -80 -91.667 210 233.333;"
	 xml:space="preserve">
<style type="text/css">
	.st0{opacity:0.2;enable-background:new    ;}
	.st1{fill:#FFFFFF;}
	.st2{fill:url(#SVGID_1_);}
	.st3{fill:#FAFAFA;stroke:#E0E0E0;stroke-width:0.0324;stroke-miterlimit:10;}
	.st4{fill:none;stroke:#FFC107;stroke-width:1.738;stroke-miterlimit:10;}
	.st5{opacity:0.5;fill:#FFFFFF;enable-background:new    ;}
	.st6{opacity:0.1;enable-background:new    ;}
	.st7{opacity:0.6;}
	.st8{fill:#CCCCCA;}
	.st9{fill:#F2F2F2;}
	.st10{clip-path:url(#SVGID_3_);}
	.st11{fill:#21211D;}
	.st12{fill:#363632;}
	.st13{fill:#5C5C69;}
	.st14{fill:#7C7C8A;}
	.st15{fill:#A2A2AB;}
	.st16{fill:#21201F;}
	.st17{fill:#383735;}
	.st18{fill:#E8A477;}
	.st19{fill:#F1B287;}
	.st20{fill:#2D466E;}
	.st21{fill:#34507D;}
	.st22{fill:#263B5C;}
	.st23{fill:#F4BC97;}
	.st24{fill:#2B1C1F;}
	.st25{fill:#423330;}
	.st26{fill:#4D3C38;}
	.st27{fill:#614B47;}
	.st28{fill:#57433F;}
	.st29{fill:#6E5650;}
	.st30{fill:#211918;}
	.st31{fill:url(#SVGID_4_);}
	.st32{fill:#FAFAFA;stroke:#E0E0E0;stroke-width:0.1514;stroke-miterlimit:10;}
	.st33{fill:none;stroke:#FFC107;stroke-width:8.1208;stroke-miterlimit:10;}
	.st34{clip-path:url(#SVGID_6_);}
</style>
<g>
	<g>
		<circle class="st0" cx="25.351" cy="41.882" r="7.753"/>
		<circle class="st1" cx="24.93" cy="41.657" r="7.697"/>
		
			<radialGradient id="SVGID_1_" cx="81.0895" cy="-36.5373" r="1.8116" gradientTransform="matrix(3.825 0 0 3.825 -285.2375 181.4125)" gradientUnits="userSpaceOnUse">
			<stop  offset="0" style="stop-color:#FFFFFF"/>
			<stop  offset="0.4846" style="stop-color:#F5F5F5"/>
			<stop  offset="1" style="stop-color:#E6E6E6"/>
		</radialGradient>
		<circle class="st2" cx="24.93" cy="41.657" r="6.938"/>
		<circle class="st3" cx="24.93" cy="41.657" r="3.736"/>
		<circle class="st4" cx="24.93" cy="41.657" r="6.91"/>
		<path class="st5" d="M30.379,36.208L19.508,47.079c-3.006-3.006-3.006-7.865,0-10.871C22.514,33.202,27.374,33.202,30.379,36.208z
			"/>
		<path class="st6" d="M21.728,41.657c0-1.994,1.545-3.596,3.511-3.708c-0.084,0-0.169,0-0.253,0c-2.051,0-3.736,1.657-3.736,3.736
			c0,2.079,1.657,3.736,3.736,3.736c0.084,0,0.169,0,0.253,0C23.272,45.253,21.728,43.652,21.728,41.657z"/>
		<g id="XMLID_12_">
			<g class="st7">
				<path id="XMLID_27_" d="M33.104,48.848h0.169l0.028-2.584c0-0.028,0-0.056,0.028-0.056c0.028-0.028,0.084-0.028,0.112,0
					l-0.028,2.64h0.169l0.028-2.584l0,0c0.028-0.056,0.112-0.028,0.112,0.028v2.556h0.197l0.028-2.556
					c0-0.056,0.084-0.084,0.112-0.028l0,0v2.584h0.169l-0.028-2.64c0.028-0.028,0.084-0.028,0.112,0
					c0.028,0.028,0.028,0.028,0.028,0.056v2.584h0.169v-3.876c0-0.084-0.028-0.169-0.056-0.225l-0.337-0.702
					c-0.028-0.084-0.056-0.169-0.056-0.253l0.281-8.455c0-0.169-0.056-0.309-0.197-0.421l0,0c-0.197-0.169-0.477-0.169-0.674,0l0,0
					c-0.112,0.112-0.197,0.253-0.197,0.421l0.225,8.455c0,0.084-0.028,0.169-0.056,0.253l-0.337,0.674
					c-0.028,0.084-0.056,0.14-0.056,0.225L33.104,48.848z"/>
				<polygon id="XMLID_26_" points="33.497,40.983 33.553,42.922 34.171,42.528 34.228,40.534 				"/>
				<path id="XMLID_25_" d="M33.413,37.809l0.927-0.59l0.056-1.854c0-0.056,0-0.084,0-0.14l-1.039,0.646L33.413,37.809z"/>
				<polygon id="XMLID_24_" points="33.104,45.646 34.424,44.551 34.312,44.326 33.132,45.337 				"/>
				<polygon id="XMLID_23_" points="33.104,47.275 33.301,47.107 33.301,46.573 33.104,46.714 				"/>
				<path id="XMLID_22_" d="M33.722,46.292v0.449l0.225-0.197v-0.281c0-0.056,0.084-0.084,0.112-0.028l0,0v0.169l0.14-0.14v-0.112
					c0.028-0.028,0.084-0.028,0.112,0c0,0,0,0,0,0.028l0.197-0.169v-0.534l-0.899,0.73C33.694,46.264,33.722,46.264,33.722,46.292z"
					/>
				<polygon id="XMLID_21_" points="33.61,46.854 33.61,46.32 33.441,46.433 33.441,46.995 				"/>
			</g>
			<g>
				<g>
					<path id="XMLID_20_" class="st8" d="M32.935,48.68h0.169l0.028-2.584c0-0.028,0-0.056,0.028-0.056
						c0.028-0.028,0.084-0.028,0.112,0l-0.028,2.64h0.169l0.028-2.584l0,0c0.028-0.056,0.112-0.028,0.112,0.028v2.556h0.197
						l0.028-2.556c0-0.056,0.084-0.084,0.112-0.028l0,0v2.584h0.169l-0.028-2.64c0.028-0.028,0.084-0.028,0.112,0
						c0.028,0.028,0.028,0.028,0.028,0.056v2.584h0.169v-3.876c0-0.084-0.028-0.169-0.056-0.225l-0.337-0.702
						c-0.028-0.084-0.056-0.169-0.056-0.253l0.281-8.455c0-0.169-0.056-0.309-0.197-0.421l0,0c-0.197-0.169-0.478-0.169-0.674,0l0,0
						c-0.112,0.112-0.197,0.253-0.197,0.421l0.225,8.455c0,0.084-0.028,0.169-0.056,0.253l-0.337,0.674
						c-0.028,0.084-0.056,0.14-0.056,0.225L32.935,48.68z"/>
					<polygon id="XMLID_19_" class="st9" points="33.329,40.815 33.385,42.753 34.003,42.36 34.059,40.365 					"/>
					<path id="XMLID_18_" class="st9" d="M33.244,37.641l0.927-0.59l0.056-1.854c0-0.056,0-0.084,0-0.14l-1.039,0.646L33.244,37.641
						z"/>
					<polygon id="XMLID_17_" class="st9" points="32.935,45.478 34.256,44.382 34.143,44.157 32.935,45.141 					"/>
					<g id="XMLID_13_">
						<polygon id="XMLID_16_" class="st9" points="32.935,47.107 33.132,46.938 33.132,46.405 32.935,46.545 						"/>
						<path id="XMLID_15_" class="st9" d="M33.553,46.124v0.449l0.225-0.197v-0.281c0-0.056,0.084-0.084,0.112-0.028l0,0v0.169
							l0.14-0.14v-0.112c0.028-0.028,0.084-0.028,0.112,0c0,0,0,0,0,0.028l0.197-0.169v-0.534l-0.899,0.73
							C33.525,46.096,33.553,46.096,33.553,46.124z"/>
						<polygon id="XMLID_14_" class="st9" points="33.441,46.686 33.441,46.152 33.273,46.264 33.273,46.826 						"/>
					</g>
				</g>
			</g>
		</g>
		<g id="XMLID_1_">
			<g class="st7">
				<path id="XMLID_11_" d="M15.407,35.028l0.056,13.652c0,0.197,0.253,0.253,0.365,0.084l0,0c0.393-0.73,0.674-1.545,0.787-2.388
					l0.112-0.787c0.084-0.618-0.028-1.264-0.365-1.826l0,0c-0.281-0.478-0.421-1.039-0.393-1.601l0.365-5.899
					c0.028-0.365,0-0.702-0.112-1.039l0,0c-0.084-0.281-0.309-0.449-0.59-0.449l0,0C15.52,34.803,15.407,34.916,15.407,35.028z"/>
				<polygon id="XMLID_10_" points="15.435,39.298 15.435,41.236 16.053,40.843 16.194,38.792 				"/>
				<path id="XMLID_9_" d="M15.632,34.803c-0.14,0-0.225,0.112-0.225,0.253v1.011l0.899-0.562c-0.028-0.084-0.028-0.14-0.056-0.225
					C16.166,34.972,15.913,34.803,15.632,34.803z"/>
				<path id="XMLID_8_" d="M15.969,42.303l-0.534,0.449v0.337l0.562-0.449C15.969,42.528,15.969,42.416,15.969,42.303z"/>
				<path id="XMLID_7_" d="M15.463,47.219v0.534l1.067-0.871c0.028-0.169,0.056-0.337,0.084-0.506l0.028-0.14L15.463,47.219z"/>
			</g>
			<g>
				<g>
					<path id="XMLID_6_" class="st8" d="M15.239,34.86l0.056,13.624c0,0.197,0.253,0.253,0.365,0.084l0,0
						c0.393-0.73,0.674-1.545,0.787-2.388l0.112-0.787c0.084-0.618-0.028-1.264-0.365-1.826l0,0
						c-0.281-0.478-0.421-1.039-0.393-1.601l0.365-5.899c0.028-0.365,0-0.702-0.112-1.039l0,0c-0.084-0.281-0.309-0.449-0.59-0.449
						l0,0C15.351,34.635,15.239,34.747,15.239,34.86z"/>
					<polygon id="XMLID_5_" class="st9" points="15.239,39.101 15.267,41.067 15.885,40.674 16.025,38.624 					"/>
					<path id="XMLID_4_" class="st9" d="M15.463,34.635c-0.14,0-0.225,0.112-0.225,0.253v1.011l0.899-0.562
						c-0.028-0.084-0.028-0.14-0.056-0.225C15.997,34.803,15.744,34.635,15.463,34.635z"/>
					<path id="XMLID_3_" class="st9" d="M15.801,42.135l-0.534,0.449v0.337l0.562-0.449C15.801,42.36,15.801,42.247,15.801,42.135z"
						/>
					<path id="XMLID_2_" class="st9" d="M15.267,47.051v0.534l1.067-0.871c0.028-0.169,0.056-0.337,0.084-0.506l0.028-0.14
						L15.267,47.051z"/>
				</g>
			</g>
		</g>
	</g>
	<g>
		<g>
			<g>
				<g>
					<defs>
						<rect id="SVGID_2_" x="3.947" y="0.365" width="42.107" height="29.607"/>
					</defs>
					<clipPath id="SVGID_3_">
						<use xlink:href="#SVGID_2_"  style="overflow:visible;"/>
					</clipPath>
					<g class="st10">
						<path class="st11" d="M15.042,17.331c0.618-0.927,5.506-1.601,10.393-1.433c4.438,0.14,8.848,0.983,10,2.893
							c1.966,3.287,3.483,16.77-2.612,17.079c-6.292,0.337-10.674,0.197-16.966-0.309C10.52,34.466,12.711,20.927,15.042,17.331z"/>
						<path d="M16.587,17.331c0.59-0.899,4.382-1.601,8.568-1.433c3.82,0.14,7.893,0.983,8.876,2.893
							c1.685,3.287,3.596,16.938-1.629,17.247c-5.421,0.337-11.236-0.421-16.657-0.927C11.194,34.017,14.143,20.927,16.587,17.331z"
							/>
						<path class="st12" d="M15.295,17.079c1.208-0.815,5.674-1.348,10.112-1.18c4.438,0.169,8.876,0.983,10,2.893
							c1.854,3.118,3.315,15.45-1.742,16.938c4.101-2.5,2.697-13.652,0.955-16.573c-1.152-1.91-5.562-2.753-10-2.893
							C20.857,16.123,17.121,16.489,15.295,17.079z"/>
						<path d="M9.817,10.084c0.281-1.095,0.758-2.5,0.674-4.663c-0.14-3.567,1.601-4.242,5.955-3.961c3.539,0.225,5.955,0,8.68,0
							c2.5,0,5.927,0.225,8.455,0.14c3.006-0.112,5.73,0.646,5.674,3.483C39.228,6.32,38.778,8.595,39.284,10
							c2.303,6.545-10.562,9.916-15.843,9.41C18.722,19.41,8.216,16.461,9.817,10.084z"/>
						<path class="st11" d="M33.497,1.573h0.084c3.006-0.112,5.73,0.674,5.674,3.483c-0.028,1.236-0.477,3.511,0.028,4.916
							c2.247,6.32-9.719,9.691-15.281,9.466c5.899-0.225,16.208-3.539,14.129-9.466c-0.506-1.405-0.056-3.68-0.028-4.916
							C38.16,2.584,36.054,1.685,33.497,1.573z"/>
						<path class="st13" d="M9.143,15.14h0.927c0.983,0,1.77,0.787,1.77,1.77v17.556c0,0.983-0.787,1.77-1.77,1.77H9.143
							c-0.983,0-1.77-0.787-1.77-1.77V16.91C7.373,15.927,8.16,15.14,9.143,15.14z"/>
						<path class="st14" d="M9.284,15.14h0.618c0.674,0,1.208,0.534,1.208,1.208V35c0,0.674-0.534,1.208-1.208,1.208H9.284
							c-0.674,0-1.208-0.534-1.208-1.208V16.348C8.076,15.674,8.609,15.14,9.284,15.14z"/>
						<path class="st15" d="M10.126,35.787H9.508c-0.337,0-0.646-0.14-0.899-0.393c0.169,0.084,0.337,0.112,0.534,0.112h0.618
							c0.646,0,1.208-0.506,1.208-1.18V16.292c0-0.281-0.112-0.59-0.309-0.787c0.421,0.197,0.674,0.59,0.674,1.039v18.062
							C11.334,35.281,10.8,35.787,10.126,35.787z"/>
						<path class="st13" d="M39.143,15.14h0.927c0.983,0,1.77,0.787,1.77,1.77v17.556c0,0.983-0.787,1.77-1.77,1.77h-0.927
							c-0.983,0-1.77-0.787-1.77-1.77V16.91C37.374,15.927,38.16,15.14,39.143,15.14z"/>
						<path class="st14" d="M39.284,15.14h0.618c0.674,0,1.208,0.534,1.208,1.208V35c0,0.674-0.534,1.208-1.208,1.208h-0.618
							c-0.674,0-1.208-0.534-1.208-1.208V16.348C38.076,15.674,38.61,15.14,39.284,15.14z"/>
						<path class="st15" d="M40.127,35.787h-0.618c-0.337,0-0.646-0.14-0.899-0.393c0.169,0.084,0.337,0.112,0.534,0.112h0.618
							c0.646,0,1.208-0.506,1.208-1.18V16.264c0-0.309-0.112-0.59-0.309-0.787c0.421,0.197,0.674,0.59,0.674,1.039v18.09
							C41.334,35.253,40.801,35.787,40.127,35.787z"/>
						<path class="st11" d="M10.548,6.713c-0.871-4.494,0.927-6.348,5.281-6.011c3.567,0.281,6.601,0.478,9.326,0.478
							c2.5,0,6.152-0.365,8.652-0.478c4.382-0.197,6.096,0.843,5.421,5.674c-0.421,3.062-7.5-1.348-15.056-1.124
							C17.205,5.449,10.8,8.062,10.548,6.713z"/>
						<path class="st12" d="M25.126,1.18c2.5,0,6.152-0.365,8.652-0.478c4.382-0.197,6.096,0.843,5.421,5.674
							c-0.112,0.73-0.59,1.039-1.348,1.067l0,0c0.337-2.472,0.056-3.961-0.899-4.775C35.295,1.208,29.34,2.191,25.126,1.18z"/>
						<path d="M24.537,1.18c-2.5,0-6.124-0.365-8.652-0.478c-4.382-0.197-6.096,0.843-5.421,5.674
							c0.112,0.73,0.562,1.039,1.348,1.067l0,0c-0.337-2.472-0.056-3.961,0.899-4.775C14.396,1.208,20.351,2.191,24.537,1.18z"/>
						<path class="st16" d="M17.992,19.691l7.247,2.809c4.242-1.236,4.551-1.742,6.067-1.124c2.978,1.264,3.258,5.843,4.185,10.169
							c0.955,4.41,2.528,7.332,1.517,10.337c-1.826,5.309-4.438,3.202-5.506,0.983c-0.955-2.022-2.247-6.292-3.596-9.607
							c-0.73-1.798-0.815-3.427-1.882-3.933c-0.927-0.449-1.545-0.337-1.882,0.084c-0.112,0.14-0.534,2.191-1.039,4.747
							c-1.376,7.107-2.022,9.607-3.539,10.337c-2.416,1.152-3.511,0.309-4.326-1.039c-1.376-2.247,0.421-13.23,1.461-19.804
							C17.093,21.152,16.615,20.646,17.992,19.691z"/>
						<path d="M29.284,21.264c0.674-0.225,1.405-0.169,2.051,0.14c2.978,1.264,3.23,5.843,4.185,10.169
							c0.955,4.41,2.528,7.332,1.517,10.309c-1.011,2.978-2.275,3.624-3.399,3.23c0.73-0.365,1.433-1.32,2.051-3.118
							c0.449-1.264-0.449-6.011-1.461-10.281c-0.899-3.82-1.882-7.219-2.5-7.36c-2.275-0.562-8.624,0.758-13.652-1.236
							C17.795,23.006,29.508,21.32,29.284,21.264L29.284,21.264z M26.222,29.298c-0.506-0.843-1.545-0.899-2.331-0.618
							c-1.685,0.646-1.77,3.961-2.079,5.562c-1.376,7.107-2.022,9.607-3.539,10.337c-0.337,0.169-0.702,0.309-1.095,0.393
							c0.618,0.112,1.405-0.028,2.416-0.506c1.517-0.73,2.163-3.23,3.539-10.337c0.506-2.556,0.927-4.607,1.039-4.747
							C24.228,29.354,24.874,28.736,26.222,29.298z"/>
						<path class="st17" d="M17.992,19.691l1.264,0.534c-1.405,0.927-0.899,1.461-1.292,3.933
							c-1.039,6.573-2.837,17.528-1.461,19.775c0.225,0.393,0.506,0.758,0.843,1.067c-0.983-0.084-1.601-0.73-2.107-1.573
							c-1.376-2.247,0.421-13.23,1.461-19.804C17.093,21.152,16.615,20.646,17.992,19.691z"/>
					</g>
				</g>
			</g>
		</g>
	</g>
	<g>
		<path class="st18" d="M30.885,29.86c-0.056-0.028-0.084-0.112-0.028-0.169l0,0c0.14-0.197,0.758-0.421,0.815-0.477
			c-0.028,0.112,0.028,0.197-0.056,0.309c-0.084,0.14-0.225,0.225-0.365,0.309C31.11,29.916,30.997,29.916,30.885,29.86z"/>
		<path class="st18" d="M30.492,28.483c-0.056-0.028-0.084-0.112-0.056-0.169c0,0,0,0,0-0.028c0.14-0.169,0.843-0.365,0.927-0.365
			c-0.028,0.112,0.028,0.197-0.056,0.309c-0.112,0.112-0.253,0.197-0.393,0.253C30.773,28.539,30.632,28.539,30.492,28.483z"/>
		<path class="st19" d="M23.357,33.006c1.882-0.281,1.966,0.056,3.68,0.169c0.59,0,1.18-0.028,1.77-0.112
			c0.534-0.028,1.067-0.112,1.601-0.253c0.337-0.112,0.562-0.337,0.393-0.674c0.309-0.084,0.815-0.084,0.955-0.337
			c0.112-0.253,0.112-0.562-0.028-0.787c0.197-0.028,0.365-0.14,0.506-0.281c0.112-0.169,0.112-0.73,0.112-0.955
			c0-0.477-0.337-0.477-0.73-0.562c0.197-0.197,0.309-0.449,0.309-0.73c-0.028-0.281-0.281-0.506-0.562-0.506
			c-0.309,0.281-0.674,0.534-1.067,0.702c0.253-0.253,0.393-0.337,0.225-0.899c-0.449,0.112-0.899,0.169-1.348,0.169
			c-0.983,0.028-1.376-0.169-1.938,0.028c-1.994,0.646-1.713,1.713-3.876,1.489L23.357,33.006L23.357,33.006L23.357,33.006z
			 M31.587,29.298c-0.056,0.197-0.197,0.337-0.365,0.449c-0.478,0.197-0.983,0.337-1.517,0.449c0.337-0.225,1.039-0.421,1.32-0.59
			C31.194,29.494,31.39,29.382,31.587,29.298L31.587,29.298z"/>
		<path class="st18" d="M30.688,32.64c0.169-0.14,0.197-0.337,0.112-0.534c0.14-0.056,0.309-0.056,0.477-0.084
			c-0.337,0-0.646,0-0.983,0.028c-0.084,0-0.674,0.14-0.702,0.169c-0.112,0.112,0.225,0.028,0.506,0
			c0.14-0.028,0.309-0.056,0.449-0.028c0.112,0.056,0.197,0.197,0.169,0.337C30.716,32.556,30.688,32.612,30.688,32.64L30.688,32.64
			z M31.812,31.124c-0.028-0.056-0.028-0.084-0.056-0.14c0.112-0.028,0.197-0.056,0.253-0.084h-0.14
			c-0.534,0.028-1.067,0.112-1.573,0.253c-0.309,0.084-0.562,0.197-0.534,0.225c0.169,0,0.309-0.028,0.477-0.084
			c0.506-0.14,1.011-0.197,1.517-0.197C31.756,31.096,31.784,31.096,31.812,31.124L31.812,31.124z M31.812,29.242l-0.169-0.028
			l0.028-0.028l0,0c-0.197,0.112-0.365,0.225-0.534,0.365l0.478-0.253c-0.14,0.197-0.197,0.337-0.337,0.421
			c-0.253,0.169-0.618,0.14-0.927,0.225c-0.225,0.056-0.73,0.225-0.758,0.337c0,0.028,0.478-0.14,0.815-0.197
			c0.421-0.084,0.899-0.14,1.096-0.253c0.084-0.056,0.056-0.169,0.112-0.253s0.169-0.112,0.169-0.197
			C31.812,29.326,31.812,29.27,31.812,29.242L31.812,29.242z M30.379,28.624c-0.562,0.365-1.067,0.281-2.022,0.197
			c-0.225-0.028-0.421-0.197-0.056-0.169c0.534,0.028,1.405,0.14,1.882-0.112c0.225-0.14,0.337-0.365,0.309-0.618
			c-0.449,0.112-0.899,0.197-1.376,0.197c-0.702,0.028-1.376,0.14-2.051,0.365c-1.096,0.393-1.713,1.91-3.68,1.433v-0.478
			c2.163,0.225,1.882-0.871,3.876-1.489c0.562-0.169,0.955,0.028,1.938-0.028c0.449,0,0.899-0.056,1.348-0.169
			c0.169,0.534,0.028,0.646-0.225,0.899L30.379,28.624z"/>
		<path class="st20" d="M34.509,24.466c-6.994,1.236-11.405,2.022-18.792-0.337c-3.961-1.264-4.354-4.129-4.354-7.36
			c0-2.837,7.303-4.214,14.438-4.157c6.798,0.056,13.315,1.517,13.259,4.214C39.003,19.382,39.312,23.624,34.509,24.466z"/>
		<path class="st21" d="M11.362,17.921c-0.028-0.365-0.028-0.758-0.028-1.124c0-2.837,7.303-4.214,14.438-4.157
			c6.798,0.056,13.315,1.517,13.259,4.214c0,0.646,0,1.376-0.056,2.163c0-0.337,0.028-0.674,0.028-0.983
			c0.112-2.697-6.208-5.056-12.978-5.281c-1.685-0.056-8.118,0.73-11.882,2.331c-1.685,0.702-2.781,1.77-2.809,2.64L11.362,17.921z"
			/>
		<path class="st22" d="M19.565,25.14c-1.32-0.253-2.612-0.59-3.876-1.011c-3.202-1.011-4.073-3.09-4.298-5.562
			c1.433,1.854,2.949,3.511,3.876,4.157C16.671,23.624,18.104,24.438,19.565,25.14z"/>
		<path class="st22" d="M25.772,12.64c5.562,0.056,10.927,1.039,12.697,2.865l-2.022-0.169c-0.983-0.562-3.511-1.152-5.787-1.657
			C28.694,13.258,26.98,12.921,25.772,12.64z"/>
		<path class="st20" d="M15.913,23.708c-1.545,0.253-1.713,1.32-3.961,3.652c2.303-0.787,9.579,0.815,12.95,0.815
			c-0.534,1.91-0.225,4.073,0.028,5.337c-4.129-0.225-9.916,0.393-17.388-2.135c-1.264-0.421-1.742-0.421-2.107-1.236
			c-0.253-0.534-0.14-1.208-0.056-2.163c0.365-3.567,4.214-13.82,8.567-13.034l3.09,2.247L15.913,23.708z"/>
		<path class="st21" d="M24.817,32.978c0.028,0.197,0.056,0.393,0.112,0.562c-4.129-0.225-9.916,0.393-17.388-2.135
			c-1.264-0.421-1.742-0.421-2.107-1.236c-0.253-0.534-0.14-1.208-0.056-2.163c0.365-3.567,4.214-13.848,8.568-13.062l0.253,0.197
			c-0.787,0.112-1.517,0.393-2.163,0.843c-0.225,0.169-0.758,0.927,0.309,4.579c-0.646-0.983-1.124-3.371-1.039-4.017
			c-2.725,2.781-5.028,8.539-5.281,11.011c-0.084,0.955-0.197,1.601,0.056,2.163c0.393,0.815,0.843,0.815,2.107,1.236
			C14.958,33.23,20.744,32.921,24.817,32.978z"/>
		<path class="st22" d="M15.913,23.708c-1.545,0.253-1.713,1.32-3.961,3.652c2.303-0.787,9.579,0.815,12.95,0.815
			c-0.084,0.365-0.169,0.73-0.225,1.096c-0.365-0.14-0.787-0.281-1.264-0.421c-3.343,0-10.927-1.067-13.23-0.281
			c2.247-2.36,3.624-5.421,5.169-5.674l0.702,0.393L15.913,23.708z"/>
		<path class="st18" d="M26.671,43.315c0.028-0.056-0.028-0.14-0.084-0.14l0,0c-0.225-0.028-0.871,0.253-0.927,0.253
			c0.084,0.056,0.14,0.169,0.281,0.197c0.169,0.028,0.337,0,0.477-0.056C26.531,43.511,26.615,43.427,26.671,43.315z"/>
		<path class="st18" d="M25.941,42.023c0.028-0.056-0.028-0.14-0.084-0.14c0,0,0,0-0.028,0c-0.225-0.028-0.871,0.365-0.955,0.393
			c0.084,0.056,0.14,0.169,0.281,0.169c0.169,0,0.337-0.028,0.477-0.112C25.772,42.275,25.885,42.163,25.941,42.023z"/>
		<path class="st19" d="M34.284,39.972c-1.461,1.292-1.236,1.573-2.388,2.921c-0.421,0.449-0.871,0.843-1.348,1.208
			c-0.421,0.365-0.871,0.702-1.348,0.983c-0.309,0.169-0.646,0.169-0.787-0.197c-0.281,0.169-0.674,0.534-0.955,0.478
			c-0.281-0.084-0.478-0.309-0.562-0.59c-0.169,0.112-0.365,0.169-0.562,0.169c-0.225-0.028-0.618-0.449-0.787-0.618
			c-0.337-0.337-0.112-0.618,0.112-0.927c-0.281,0-0.562-0.112-0.758-0.309c-0.197-0.225-0.197-0.562,0.028-0.787
			c0.449-0.028,0.871-0.112,1.264-0.281c-0.365,0-0.534,0.028-0.815-0.478c0.393-0.253,0.758-0.534,1.096-0.871
			c0.73-0.674,0.899-1.124,1.405-1.405c1.91-1.011,3.062,0.084,4.466-1.685L34.284,39.972L34.284,39.972z M25.744,43.427
			c0.197,0.084,0.393,0.112,0.59,0.056c0.506-0.225,0.983-0.478,1.433-0.787c-0.393,0.084-1.067,0.478-1.376,0.534
			C26.166,43.259,25.969,43.343,25.744,43.427z"/>
		<path class="st19" d="M34.284,39.972c-1.461,1.292-1.236,1.573-2.388,2.921c-0.421,0.449-0.871,0.843-1.348,1.208
			c-0.421,0.365-0.871,0.702-1.348,0.983c-0.309,0.169-0.646,0.169-0.787-0.197c-0.281,0.169-0.674,0.534-0.955,0.478
			c-0.281-0.084-0.478-0.309-0.562-0.59c-0.169,0.112-0.365,0.169-0.562,0.169c-0.225-0.028-0.618-0.449-0.787-0.618
			c-0.337-0.337-0.112-0.618,0.112-0.927c-0.281,0-0.562-0.112-0.758-0.309c-0.197-0.225-0.197-0.562,0.028-0.787
			c0.449-0.028,0.871-0.112,1.264-0.281c-0.365,0-0.534,0.028-0.815-0.478c0.393-0.253,0.758-0.534,1.096-0.871
			c0.73-0.674,0.899-1.124,1.405-1.405c1.91-1.011,3.062,0.084,4.466-1.685L34.284,39.972L34.284,39.972z M25.744,43.427
			c0.197,0.084,0.393,0.112,0.59,0.056c0.506-0.225,0.983-0.478,1.433-0.787c-0.393,0.084-1.067,0.478-1.376,0.534
			C26.166,43.259,25.969,43.343,25.744,43.427z"/>
		<path class="st18" d="M33.469,40.73c-0.646,0.702-0.702,1.124-1.601,2.135c-0.421,0.449-0.871,0.843-1.348,1.208
			c-0.365,0.309-1.77,1.657-2.135,0.787c0.084-0.028,0.337,0.421,0.843,0.028c0.871-0.646,1.685-1.376,2.416-2.163
			c1.152-1.348,0.534-1.685,1.994-2.978c0,0,0.084-0.112,0.253-0.281l0.253,0.562C33.919,40.281,33.694,40.506,33.469,40.73z"/>
		<path class="st18" d="M28.862,45.169c-0.197,0.028-0.421-0.084-0.478-0.309c-0.112,0.084-0.281,0.197-0.421,0.281
			c0.225-0.253,0.477-0.478,0.73-0.702c0.056-0.056,0.59-0.393,0.618-0.393c0.169-0.028-0.14,0.197-0.365,0.365
			c-0.14,0.084-0.253,0.197-0.365,0.309c-0.028,0.14,0,0.281,0.112,0.365C28.75,45.141,28.806,45.169,28.862,45.169L28.862,45.169z
			 M26.924,44.888c0-0.028,0.028-0.028,0.028-0.056c0.365-0.365,0.787-0.702,1.236-0.955c0.197-0.14,0.421-0.225,0.393-0.281
			c-0.028-0.056-0.281,0.056-0.562,0.225c-0.478,0.281-0.927,0.59-1.32,0.955l-0.112,0.112c0.084-0.028,0.169-0.084,0.253-0.112
			C26.868,44.804,26.896,44.832,26.924,44.888L26.924,44.888z M25.548,43.539l0.112-0.14h-0.028
			c0.225-0.056,0.449-0.112,0.674-0.112l-0.534,0.169c0.169,0.056,0.365,0.084,0.534,0.056c0.309-0.084,0.562-0.337,0.843-0.506
			c0.225-0.112,0.674-0.393,0.815-0.309c0.028,0-0.449,0.253-0.758,0.449c-0.365,0.253-0.758,0.562-0.983,0.618
			c-0.112,0.028-0.169-0.084-0.281-0.112s-0.197,0.028-0.281-0.028C25.604,43.596,25.576,43.568,25.548,43.539L25.548,43.539z
			 M26.138,42.051c0.702-0.14,0.983-0.562,1.601-1.376c0.14-0.169,0.169-0.449-0.084-0.169c-0.365,0.421-0.927,1.152-1.461,1.292
			c-0.253,0.056-0.506-0.028-0.674-0.225c0.393-0.253,0.787-0.534,1.124-0.871c0.506-0.506,1.095-0.899,1.742-1.236
			c1.067-0.506,2.472-0.056,3.848-1.629l-0.112-0.281c-1.629,1.489-2.36,0.618-4.27,1.629c-0.534,0.281-0.674,0.73-1.405,1.405
			c-0.337,0.337-0.702,0.618-1.096,0.871c0.281,0.534,0.449,0.478,0.815,0.478L26.138,42.051z"/>
		<path class="st23" d="M25.407,41.629l-0.056-0.084c0.393-0.253,0.758-0.534,1.096-0.871c0.73-0.674,0.899-1.124,1.405-1.405
			c1.91-1.011,2.612-0.14,4.242-1.657l0.14,0.281c-1.376,1.545-2.753,1.095-3.848,1.629c-0.646,0.309-1.236,0.73-1.742,1.236
			c-0.337,0.337-0.73,0.618-1.124,0.871l0,0H25.407z"/>
		<path class="st20" d="M34.677,23.708c1.545,0.253,2.612,1.966,4.831,4.326l5.646,2.135c0.253-0.534,0.14-1.208,0.056-2.163
			c-0.365-3.567-4.214-13.82-8.567-13.062l-3.09,2.247L34.677,23.708z"/>
		<path class="st21" d="M35.66,24.101c1.096,0.674,2.135,2.107,3.876,3.961l0.758-0.197c-2.275-2.584-3.09-4.326-4.635-4.579
			L35.66,24.101z"/>
		<path class="st22" d="M44.452,29.888l0.73,0.281c0.253-0.534,0.14-1.208,0.056-2.163C44.93,24.747,41.7,15.983,37.823,15
			c-0.365-0.112-0.787-0.112-1.152-0.056l-1.152-0.028c0.534,0.281,1.826,0.562,2.669,1.32c-0.056,1.713-0.506,3.371-1.348,4.86
			c1.18-0.983,1.713-3.596,1.77-4.466c2.978,2.472,5.506,8.539,5.787,11.264C44.509,28.764,44.593,29.382,44.452,29.888z"/>
		<path class="st20" d="M39.789,27.275c-1.713,0.815-5.983,8.596-8.68,10.197c1.348,1.292,2.107,3.174,2.528,4.326
			c3.202-2.135,6.376-5.365,11.18-10.955c0.815-0.955,0.449-1.77,0.365-2.612c-0.056-0.562-0.449-1.039-0.983-1.742L39.789,27.275z"
			/>
		<path class="st20" d="M39.789,27.275c-1.713,0.815-5.983,8.596-8.68,10.197c1.348,1.292,2.107,3.174,2.528,4.326
			c3.202-2.135,6.376-5.365,11.18-10.955c0.815-0.955,0.449-1.77,0.365-2.612c-0.056-0.562-0.449-1.039-0.983-1.742L39.789,27.275z"
			/>
		<path class="st21" d="M39.789,27.275c-1.713,0.815-5.983,8.596-8.68,10.197c0.197,0.197,0.393,0.393,0.562,0.618
			c1.32-0.927,3.174-3.23,4.607-5.084c1.433-1.854,2.725-4.214,3.933-5.281L39.789,27.275z"/>
		<path class="st22" d="M33.357,41.067c0.112,0.253,0.197,0.506,0.281,0.702c3.202-2.135,6.376-5.365,11.18-10.955
			c0.815-0.955,0.449-1.77,0.365-2.612c-0.084-0.843-0.899-1.376-1.152-2.5c0.14,0.73,0.449,2.135,0.506,2.64
			c0.084,0.843,0.477,1.236-0.365,2.163C39.621,35.534,36.531,38.652,33.357,41.067z"/>
		<g>
			<path class="st19" d="M26.531,29.017c-0.281,0.758-0.674,1.798-1.32,1.77c-0.73,0-1.011-0.955-1.32-1.77l0.337-0.899l0.337-0.899
				h1.32l0.337,0.899L26.531,29.017z"/>
			<path class="st18" d="M25.323,30.787c0.253-0.365,0.337-0.983,0.197-1.742c0.056,0.112,0.421,0.028,0.449,0.112
				c-0.225,0.393,0.112,0.674,0.028,0.955c-0.056,0.14-0.14,0.253-0.253,0.337C25.632,30.534,25.604,30.702,25.323,30.787z"/>
			<path class="st23" d="M25.07,30.787c-0.253-0.365-0.337-0.983-0.197-1.742c-0.056,0.112-0.421,0.028-0.449,0.112
				c0.225,0.393-0.112,0.674-0.028,0.955c0.056,0.14,0.14,0.253,0.253,0.337C24.789,30.534,24.817,30.702,25.07,30.787z"/>
			<path class="st19" d="M22.795,28.68c-1.067-0.421-1.938-1.208-2.444-2.191c-0.59-1.208-0.871-2.949-1.011-4.551
				c-0.225-2.528,0.056-5.225,1.236-7.051c0.899-1.376,2.528-2.079,4.663-2.022c2.584-0.084,4.298,1.18,5.112,3.09
				c0.758,1.742,0.927,3.989,0.73,6.096c-0.14,1.601-0.365,3.23-0.955,4.438c-0.534,1.011-1.405,1.77-2.444,2.191
				C26.11,29.298,24.368,29.298,22.795,28.68z"/>
			<path class="st23" d="M22.795,28.68c-1.067-0.421-1.938-1.208-2.444-2.191c-0.59-1.208-0.871-2.949-1.011-4.551
				c-0.225-2.528,0.056-5.225,1.236-7.051c0.843-1.292,2.332-1.994,4.27-2.022c-3.118,1.882-4.691,4.157-4.27,9.635
				c0.169,2.275,0.758,5.309,4.214,6.573v0.056C24.115,29.073,23.441,28.933,22.795,28.68z"/>
			<path class="st18" d="M25.183,12.865h0.056c2.584-0.084,4.298,1.18,5.112,3.09c0.758,1.742,0.927,3.989,0.73,6.096
				c-0.14,1.601-0.365,3.23-0.955,4.438c-0.534,1.011-1.405,1.77-2.444,2.191c-0.702,0.253-1.405,0.421-2.163,0.449
				c3.315-1.32,4.157-3.905,4.326-6.152C30.295,17.388,28.413,14.747,25.183,12.865z"/>
			<path class="st18" d="M22.795,28.68c-0.281-0.112-0.534-0.253-0.787-0.393c0.084,0.056,0.169,0.084,0.253,0.112
				c0.534,0.225,1.096,0.365,1.685,0.477h2.556c0.534-0.056,1.067-0.169,1.573-0.365l0.169-0.056
				c-0.169,0.084-0.337,0.169-0.534,0.253c-0.365,0.14-0.758,0.253-1.152,0.337c-0.056,0.14-0.112,0.309-0.197,0.477
				c-0.169-0.337-0.506-0.281-0.843-0.197c-0.477,0.14-0.225,0.112-0.674-0.028c-0.281-0.112-0.59-0.028-0.758,0.225
				c-0.056-0.169-0.112-0.337-0.197-0.478l0,0C23.525,28.933,23.16,28.82,22.795,28.68z"/>
			<path class="st24" d="M28.301,28.09c0.646-0.449,1.208-0.955,1.713-1.545c-0.028,0.983-1.629,2.051-2.107,2.275
				c-0.365,0.169-0.59-0.084-0.562-0.225C27.346,28.567,28.188,28.174,28.301,28.09z"/>
			<path class="st24" d="M22.093,28.09c-0.646-0.449-1.208-0.955-1.714-1.545c0.028,0.983,1.629,2.051,2.107,2.275
				c0.365,0.169,0.59-0.084,0.562-0.225C23.048,28.567,22.233,28.174,22.093,28.09z"/>
			<path class="st18" d="M19.452,23.09c-0.028-0.281,0.028-0.702,0-0.983L30.66,21.91c-0.028,0.253,0.337,0.899,0.309,1.152
				c-0.393,0.084-0.225,0.309-0.421,1.067c-0.056,0.309-0.169,0.59-0.365,0.871c-0.169,0.056,0.14-1.685-0.337-1.657
				c-0.084,0-0.225,0.365-0.365,0.758c-0.534,1.77-1.826,2.64-3.371,3.652c0.169-0.281,0.197-0.449,0.253-0.534
				c-0.73,0.534-1.405,1.067-1.77,1.039c-0.14-0.506-0.449-0.955-0.871-1.292c-0.955-0.365-1.292-0.421-2.612-2.893
				c-1.32-2.472-0.281,1.096-0.871,0.815C19.817,24.691,19.986,23.455,19.452,23.09z"/>
			<path class="st18" d="M31.25,21.292C31.7,20.899,31.7,20.449,31.868,20c0.14-0.365,0.421-0.843,0.449-1.32
				c0.056-0.843-0.843-1.32-1.096-0.253C30.857,19.803,30.744,20.056,31.25,21.292z"/>
			<path class="st19" d="M19.143,21.292c-0.449-0.393-0.449-0.843-0.618-1.292c-0.14-0.365-0.421-0.843-0.449-1.32
				c-0.028-0.843,0.843-1.32,1.095-0.253C19.508,19.803,19.649,20.056,19.143,21.292z"/>
			<path class="st25" d="M19.424,22.893c-0.028-0.281-0.197-0.674-0.225-0.955c-0.225-2.5,0.056-5.225,1.264-7.051
				c0.927-1.376,2.584-2.079,4.747-2.022c2.64-0.084,4.382,1.18,5.225,3.09c0.787,1.742,0.927,3.989,0.758,6.096
				c-0.028,0.281-0.084,0.534-0.169,0.815c-0.023,0.636-0.084,0.421-0.309,1.208c-0.056,0.309-0.393,1.062-0.901,1.629
				c-0.056,0.063-0.531,0.594-1.053,0.896c-1.615,1.131-0.834,0.34-2.683,1.138c-0.615,0.132-0.615,0.132-1.938,0.076
				c-1.386-0.369-1.657-0.875-2.47-1.437c-1.292-0.725-1.519-1.485-1.772-1.681C19.591,24.386,19.621,23.868,19.424,22.893z"/>
			<path class="st26" d="M28.19,19.248c-1.056-0.924-1.607-1.497-2.561-2.02c1.735,1.885,2.252,2.194,3.709,4.447l-1.479-1.11
				c1.554,3.437,2.673,4.29,0.704,7.346c-1.238-1.882-3.376-0.746-5.23-4.65l0.317,1.624c-1.221-1.715-1.808-2.692-1.4-5.043
				l-0.895,1.707c-0.946-3.673,0.683-4.31,0.855-6.67C23.886,15.525,25.832,15.523,28.19,19.248z"/>
			<path class="st27" d="M32.008,21.867c-0.307-1.736-0.618-4.601-3.946-6.966l1.306,0.5c-1.61-2.097-4.69-1.525-6.99-0.581
				c2.459,0.628,3.408,0.941,4.789,2.778l-0.474-1.147c2.885,3.393,3.85,6.313,3.697,8.909c0.629-1.91,0.387-4.638-0.795-6.34
				C31.004,20.453,31.11,20.005,32.008,21.867z"/>
			<path class="st28" d="M25.137,23.835c-0.78-1.363-0.897-1.332-1.317-2.898l0.316,0.104c-1.09-1.718-1.582-2.042-1.732-4.255
				c-0.355,1.402-0.761,2.834-1.076,4.249c0.284-0.62,0.621-1.199,0.998-1.765c0.161,1.642,0.23,2.769,0.86,4.359
				c-0.241-1.208-0.209-1.473-0.177-2.729C23.906,22.692,23.742,22.43,25.137,23.835z"/>
			<path class="st28" d="M28.807,26.289c0.027-1.465-0.329-2.572-1.667-4.257c0,0,1.127,1.132,1.273,1.226
				c-0.88-2.155-1.82-3.64-4.084-4.272c0.046,0.752,0.06,1.769,0.132,2.507c0.196,1.975,1.955,2.326,3.016,3.919
				c-0.54-1.145-0.712-1.225-1.392-2.255C27.253,24.303,28.264,25.005,28.807,26.289z"/>
			<path class="st26" d="M22.3,26.674c-1.182-1.242-3.18-3.191-3.405-7.271l-0.188,1.273c-0.947-3.213,1.257-4.811,3.281-6.307
				c-1.33,2.554-1.576,5.097-0.766,7.574c0.283,0.83,0.419,0.046,0.642-0.433c0.458,2.499,2.957,5.12,4.112,5.847
				c-1.998-0.959-4.058-2.306-4.776-4.27C21.553,25.115,21.35,24.841,22.3,26.674z"/>
			<path class="st27" d="M22.243,15.144c0.643,1.087-0.393,1.919-0.694,3.892C21.135,17.679,21.958,16.224,22.243,15.144z"/>
			<path class="st27" d="M25.695,25.677c0.845,0.831,2.095,0.692,2.826,2.153C28.292,26.05,26.658,26.017,25.695,25.677z"/>
			<path class="st27" d="M29.04,23.719c0.018,1.157,0.147,2.604-0.467,4.082C29.499,26.288,29.646,24.932,29.04,23.719z"/>
			<path class="st27" d="M28.541,27.076c-0.825-3.035-2.397-2.218-3.16-3.414C26.457,25.813,27.425,24.913,28.541,27.076z"/>
			<path class="st27" d="M27.131,22.674c0.51,1.02,1.413,1.571,1.417,3.691C28.971,24.571,28.21,23.445,27.131,22.674z"/>
			<path class="st27" d="M23.511,23.091c1.212,0.377,1.527,1.931,3.496,2.305C25.063,25.468,24.372,25.009,23.511,23.091z"/>
			<path class="st27" d="M29.825,24.761c-0.372-3.184-0.771-3.454-2.301-4.535C28.636,21.79,29.291,22.835,29.825,24.761z"/>
			<path class="st27" d="M23.562,24.512c-1.587-2.711-1.455-3.174-0.904-5.041C22.71,21.422,22.847,22.688,23.562,24.512z"/>
			<path class="st27" d="M26.041,19.966c0.405,1.009,1.304,1.421,2.089,2.923C27.741,21.057,26.704,20.83,26.041,19.966z"/>
			<path class="st29" d="M28.655,27.436c-0.497-1.522-0.788-2.631-2.458-3.068C27.338,25.068,27.693,25.645,28.655,27.436z"/>
			<path class="st29" d="M28.153,25.245c-0.069-1.128-0.064-1.909-1.112-2.554C27.699,23.414,27.829,23.872,28.153,25.245z"/>
			<path class="st27" d="M28.252,25.047c-2.304-2.165-2.897-2.361-3.622-5.593c0.308,0.286,1.304,0.431,2.682,3.118
				c-0.762-0.666-0.963-0.871-1.134-0.881C26.797,22.863,27.493,23.991,28.252,25.047z"/>
			<path class="st29" d="M26.645,23.55c-1.046-1.036-1.498-1.807-2.015-4.095C25.139,19.945,25.18,21.478,26.645,23.55z"/>
			<path class="st29" d="M26.48,24.209c-1.304-0.891-1.953-1.727-2.071-3.746C24.643,21.922,25.384,23.272,26.48,24.209z"/>
			<path class="st28" d="M29.125,21.514c-2.738-3.758-4.296-4.894-6.679-6.095c0.699,1.727,0.377,3.394,1.973,5.463
				c-0.105-1.001-0.301-1.987-0.639-2.927c1.667,1.287,2.812,1.135,5.266,5.514c-0.346-1.219-1.689-3.113-2.304-4.145L29.125,21.514
				z"/>
			<path class="st27" d="M27.11,18.408c-1.69-2.653-2.148-2.712-3.969-2.922C24.782,16.328,25.805,16.988,27.11,18.408z"/>
			<path class="st27" d="M28.641,21.009c-1.69-2.653-3.566-3.963-5.383-5.023C25.128,17.547,26.922,19.221,28.641,21.009z"/>
			<path class="st27" d="M24.033,20.109c-0.869-1.737-1.053-2.765-1.375-4.598C23.143,17.076,23.733,17.662,24.033,20.109z"/>
			<path class="st29" d="M23.628,19.101c-0.869-1.737-0.633-1.729-0.944-3.604C22.969,16.927,22.98,16.355,23.628,19.101z"/>
			<path class="st27" d="M26.672,19.645c-2.101-1.891-2.787-1.68-3.63-3.431C24.37,17.55,25.197,17.685,26.672,19.645z"/>
			<path class="st29" d="M27.753,20.025c-1.762-1.94-2.449-1.729-3.63-3.431C25.465,17.958,26.278,18.065,27.753,20.025z"/>
			<path class="st27" d="M24.053,20.876c-2.06-2.338-1.67-2.416-1.447-4.345C22.536,17.843,23.016,19.198,24.053,20.876z"/>
			<path class="st27" d="M24.942,23.839c-1.7-1.551-1.878-1.38-2.123-3.716C23.34,21.561,23.712,22.306,24.942,23.839z"/>
			<path class="st29" d="M23.351,23.959c-0.549-1.493-0.645-2.147-0.795-3.9C22.95,20.65,22.703,21.673,23.351,23.959z"/>
			<path class="st26" d="M28.769,14.467c-2.21-1.581-5.709-0.066-6.64,0.318c-0.115-1.88,1.84-2.523,3.127-2.26
				c-0.56,0.068-1.104,0.234-1.579,0.538C25.411,12.438,27.048,12.61,28.769,14.467z"/>
			<path class="st28" d="M30.283,25.81c0.231-3.1-0.334-5.221-1.974-6.982C29.655,21.321,30.232,22.869,30.283,25.81z"/>
			<path class="st30" d="M31.554,20.037c-0.812-2.547-1.897-4.056-3.786-4.864C29.118,16.815,30.099,17.853,31.554,20.037z"/>
			<path class="st27" d="M30.777,23.233c-0.372-2.195-0.304-3.576-2.324-4.911C29.806,20.104,29.962,21.077,30.777,23.233z"/>
			<path class="st30" d="M32.144,22.073c-1.228-2.984-1.677-3.155-3.184-3.86C30.377,19.464,31.21,20.337,32.144,22.073z"/>
			<path class="st26" d="M30.057,18.23c-0.882-1.235-1.828-2.928-3.871-3.649c0.73-0.058,0.75-0.282,1.496-0.243
				c-2.057-0.748-4.155-0.059-5.303,0.482c1.861-0.237,3.347,0.621,5.076,2.297l-1.322-1.587
				C27.227,15.938,28.345,16.721,30.057,18.23z"/>
			<path class="st29" d="M28.495,14.975c-1.452-1.055-3.298-1.25-4.886-0.531C25.233,14.129,26.949,14.327,28.495,14.975z"/>
			<path class="st27" d="M28.701,18.819c-0.556-1.772-1.885-3.108-3.557-3.614C26.59,16.05,27.838,17.29,28.701,18.819z"/>
			<path class="st27" d="M27.064,15.217c-1.612-1.177-3.069-0.99-4.635-0.425C24.046,14.657,25.159,14.772,27.064,15.217z"/>
			<path class="st28" d="M29.316,18.86c-0.439-1.273-0.674-2.271-2.891-3.141C27.738,16.498,28.235,17.491,29.316,18.86z"/>
			<path class="st28" d="M26.223,13.535c-1.246-0.181-2.351-0.477-4.096,1.18C23.416,14.058,24.789,13.637,26.223,13.535z"/>
			<path class="st30" d="M28.258,13.907c-1.452-1.055-3.298-1.25-4.9-0.558C25.01,13.088,26.687,13.273,28.258,13.907z"/>
			<path class="st26" d="M24.485,12.5c-1.667,0.163-2.487,0.767-2.298,2.004C22.278,13.498,23.592,12.827,24.485,12.5z"/>
			<path class="st28" d="M28.326,27.834c-1.672-1.496-3.561-1.314-4.651-3.492C24.876,27.271,25.81,26.566,28.326,27.834z"/>
			<path class="st27" d="M21.785,25.974c-0.863-1.528-1.155-2.177-1.429-4.638l0.744,1.949c-1.138-4.52-0.806-5.768,0.394-8.319
				c-1.444,1.204-2.513,2.762-2.79,4.65l0.5-0.848c-0.265,0.857-0.042,1.367,0.202,3.174l0.318-0.816
				C19.894,23.117,20.31,24.014,21.785,25.974z"/>
			<path class="st29" d="M20.602,24.202c-0.676-1.351-0.842-2.212-0.604-4.574C20.315,20.263,19.857,21.724,20.602,24.202z"/>
			<path class="st29" d="M18.901,19.152c0.313-1.485,0.71-2.275,2.313-3.887C21.077,15.979,19.857,16.774,18.901,19.152z"/>
			<path class="st27" d="M24.185,26.352c-2.377-1.982-2.39-2.47-2.481-4.433C22.393,23.758,22.918,24.875,24.185,26.352z"/>
			<path class="st29" d="M23.795,25.901c-0.998-1.204-1.314-1.769-1.997-3.399C22.345,22.936,22.463,23.965,23.795,25.901z"/>
			<path class="st29" d="M19.805,17.793c-0.129,1.063,0.148,2.144-0.32,3.716C19.33,20.076,19.307,18.71,19.805,17.793z"/>
			<path class="st26" d="M22.102,14.269c-1.934,0.95-3.327,2.585-3.698,3.89c0.069-1.842,1.189-3.429,2.859-3.983l-0.718,0.016
				C20.952,13.751,21.894,13.786,22.102,14.269z"/>
			<path class="st29" d="M18.675,17.512c0.313-1.485,1.289-2.636,3.206-3.224C20.915,14.798,19.368,16.06,18.675,17.512z"/>
			<path class="st26" d="M31.898,22.344c-0.019-1.715,0.132-4.51-2.609-7.363l1.142,0.711c-1.179-2.292-4.142-2.293-6.434-1.8
				c2.198,1.038,3.035,1.506,4.041,3.509l-0.266-1.181c2.169,3.758,2.62,6.722,2.077,9.178c0.881-1.715,1.076-4.366,0.235-6.204
				C31.179,20.814,31.347,20.403,31.898,22.344z"/>
			<path class="st28" d="M30.016,26.074c0.027-1.465-0.329-2.572-1.667-4.257c0,0,1.127,1.132,1.273,1.226
				c-0.88-2.155-1.82-3.64-4.084-4.272c0.046,0.752,0.06,1.769,0.132,2.507c0.196,1.975,1.955,2.326,3.016,3.919
				c-0.54-1.145-0.712-1.225-1.392-2.255C28.462,24.087,29.473,24.789,30.016,26.074z"/>
			<path class="st27" d="M30.602,20.594c0.018,1.157,0.147,2.604-0.467,4.082C31.062,23.163,31.209,21.808,30.602,20.594z"/>
			<path class="st27" d="M28.34,22.459c0.51,1.02,1.413,1.571,1.417,3.691C30.18,24.355,29.419,23.229,28.34,22.459z"/>
			<path class="st27" d="M31.034,24.545c-0.372-3.184-0.771-3.454-2.301-4.535C29.845,21.574,30.5,22.619,31.034,24.545z"/>
			<path class="st27" d="M27.25,19.751c0.405,1.009,1.304,1.421,2.089,2.923C28.951,20.842,27.913,20.614,27.25,19.751z"/>
			<path class="st29" d="M29.362,25.029c-0.069-1.128-0.064-1.909-1.112-2.554C28.909,23.199,29.038,23.656,29.362,25.029z"/>
			<path class="st27" d="M29.461,24.832c-2.304-2.165-2.897-2.361-3.622-5.593c0.308,0.286,1.304,0.431,2.682,3.118
				c-0.762-0.666-0.963-0.871-1.134-0.881C28.006,22.648,28.702,23.775,29.461,24.832z"/>
			<path class="st28" d="M30.334,21.298c-2.738-3.758-4.296-4.894-6.679-6.095c0.699,1.727,0.377,3.394,1.973,5.463
				c-0.105-1.001-0.301-1.987-0.639-2.927c1.667,1.287,2.812,1.135,5.266,5.514c-0.346-1.219-1.689-3.113-2.304-4.145L30.334,21.298
				z"/>
			<path class="st27" d="M28.319,18.193c-1.69-2.653-2.148-2.712-3.969-2.922C25.991,16.112,27.014,16.772,28.319,18.193z"/>
			<path class="st27" d="M29.851,20.793c-1.69-2.653-3.566-3.963-5.383-5.023C26.337,17.331,28.132,19.006,29.851,20.793z"/>
			<path class="st27" d="M27.881,19.43c-2.101-1.891-2.787-1.68-3.63-3.431C25.58,17.335,26.406,17.469,27.881,19.43z"/>
			<path class="st29" d="M28.963,19.81c-1.762-1.94-2.449-1.729-3.63-3.431C26.674,17.742,27.487,17.849,28.963,19.81z"/>
			<path class="st27" d="M29.786,14.7c-2.069-1.761-5.684-0.546-6.643-0.242c0.043-1.883,2.046-2.36,3.306-1.989
				c-0.564,0.021-1.12,0.14-1.619,0.403C26.611,12.396,28.227,12.705,29.786,14.7z"/>
			<path class="st28" d="M31.019,23.802c0.231-3.1-0.334-5.221-1.974-6.982C30.391,19.312,30.967,20.861,31.019,23.802z"/>
			<path class="st27" d="M31.823,20.363c-0.488-2.56-1.345-4.157-3.035-5.186C29.879,16.938,30.69,18.067,31.823,20.363z"/>
			<path class="st27" d="M31.49,23.037c-0.007-2.226,0.286-3.578-1.489-5.225C31.044,19.791,31.039,20.776,31.49,23.037z"/>
			<path class="st27" d="M31.759,22.457c-0.325-3.131-0.686-3.418-1.866-4.505C30.847,19.522,31.371,20.573,31.759,22.457z"/>
			<path class="st27" d="M31.266,18.015c-0.882-1.235-1.828-2.928-3.871-3.649c0.73-0.058,0.75-0.282,1.496-0.243
				c-2.057-0.748-4.155-0.059-5.303,0.482c1.861-0.237,3.347,0.621,5.076,2.297l-1.322-1.587
				C28.436,15.722,29.554,16.506,31.266,18.015z"/>
			<path class="st26" d="M29.704,14.759c-1.452-1.055-3.298-1.25-4.886-0.531C26.443,13.913,28.159,14.111,29.704,14.759z"/>
			<path class="st27" d="M29.91,18.603c-0.556-1.772-1.885-3.108-3.557-3.614C27.799,15.834,29.047,17.075,29.91,18.603z"/>
			<path class="st26" d="M28.274,15.001c-1.612-1.177-3.069-0.99-4.635-0.425C25.255,14.442,26.368,14.556,28.274,15.001z"/>
			<path class="st28" d="M30.525,18.645c-0.439-1.273-0.674-2.271-2.891-3.141C28.948,16.282,29.444,17.275,30.525,18.645z"/>
			<path class="st28" d="M27.432,13.319c-1.246-0.181-2.351-0.477-4.096,1.18C24.625,13.843,25.998,13.421,27.432,13.319z"/>
			<path class="st28" d="M29.324,14.099c-1.358-1.173-3.182-1.523-4.835-0.968C26.157,13.01,27.812,13.335,29.324,14.099z"/>
			<path class="st26" d="M25.694,12.285c-1.667,0.163-2.487,0.767-2.298,2.004C23.487,13.283,24.802,12.612,25.694,12.285z"/>
			<path class="st28" d="M24.503,24.551c-0.781-1.363-0.897-1.332-1.317-2.898l0.316,0.104c-1.09-1.718-1.582-2.042-1.732-4.255
				c-0.355,1.402-0.761,2.834-1.076,4.249c0.284-0.62,0.621-1.199,0.998-1.765c0.161,1.642,0.23,2.769,0.86,4.359
				c-0.241-1.208-0.209-1.473-0.177-2.729C23.271,23.408,23.108,23.147,24.503,24.551z"/>
			<path class="st26" d="M21.666,27.39c-1.182-1.242-3.18-3.191-3.405-7.271l-0.188,1.273c-0.947-3.213,1.257-4.811,3.281-6.307
				c-1.33,2.554-1.576,5.097-0.766,7.574c0.283,0.83,0.419,0.046,0.642-0.433c0.458,2.499,2.957,5.12,4.112,5.847
				c-1.998-0.959-4.058-2.306-4.776-4.27C20.919,25.832,20.716,25.557,21.666,27.39z"/>
			<path class="st27" d="M21.609,15.861c0.643,1.087-0.393,1.919-0.694,3.892C20.5,18.396,21.324,16.941,21.609,15.861z"/>
			<path class="st27" d="M25.061,26.393c0.845,0.831,2.095,0.692,2.826,2.153C27.657,26.767,26.024,26.734,25.061,26.393z"/>
			<path class="st27" d="M27.906,27.793c-0.825-3.035-2.397-2.218-3.16-3.414C25.822,26.529,26.791,25.629,27.906,27.793z"/>
			<path class="st27" d="M22.877,23.807c1.212,0.377,1.527,1.931,3.496,2.305C24.429,26.184,23.737,25.726,22.877,23.807z"/>
			<path class="st27" d="M22.928,25.229c-1.587-2.711-1.455-3.174-0.904-5.041C22.075,22.139,22.213,23.404,22.928,25.229z"/>
			<path class="st29" d="M28.02,28.153c-0.497-1.522-0.788-2.631-2.458-3.068C26.704,25.784,27.059,26.362,28.02,28.153z"/>
			<path class="st29" d="M25.845,24.925c-1.304-0.891-1.953-1.727-2.071-3.746C24.008,22.639,24.749,23.988,25.845,24.925z"/>
			<path class="st27" d="M23.399,20.826c-0.869-1.737-1.053-2.765-1.375-4.598C22.509,17.793,23.099,18.379,23.399,20.826z"/>
			<path class="st29" d="M22.993,19.817c-0.869-1.737-0.633-1.729-0.944-3.604C22.335,17.643,22.346,17.071,22.993,19.817z"/>
			<path class="st27" d="M23.419,21.592c-2.06-2.338-1.67-2.416-1.447-4.345C21.902,18.559,22.382,19.915,23.419,21.592z"/>
			<path class="st27" d="M24.307,24.556c-1.7-1.551-1.878-1.38-2.123-3.716C22.706,22.278,23.078,23.022,24.307,24.556z"/>
			<path class="st29" d="M22.717,24.676c-0.549-1.493-0.645-2.147-0.795-3.9C22.316,21.366,22.069,22.39,22.717,24.676z"/>
			<path class="st28" d="M27.691,28.551c-1.672-1.496-3.561-1.314-4.651-3.492C24.241,27.987,25.176,27.283,27.691,28.551z"/>
			<path class="st27" d="M21.151,26.691c-0.863-1.528-1.155-2.177-1.429-4.638l0.744,1.949c-1.138-4.52-0.806-5.768,0.394-8.319
				c-1.444,1.204-2.513,2.762-2.79,4.65l0.5-0.848c-0.265,0.857-0.042,1.367,0.202,3.174l0.318-0.816
				C19.26,23.834,19.675,24.73,21.151,26.691z"/>
			<path class="st29" d="M19.968,24.919c-0.676-1.351-0.842-2.212-0.604-4.574C19.681,20.98,19.223,22.44,19.968,24.919z"/>
			<path class="st29" d="M18.267,19.868c0.313-1.485,0.71-2.275,2.313-3.887C20.442,16.696,19.223,17.49,18.267,19.868z"/>
			<path class="st27" d="M23.551,27.069c-2.377-1.982-2.39-2.47-2.481-4.433C21.758,24.474,22.284,25.592,23.551,27.069z"/>
			<path class="st29" d="M23.16,26.618c-0.998-1.204-1.314-1.769-1.997-3.399C21.71,23.653,21.829,24.682,23.16,26.618z"/>
			<path class="st29" d="M19.171,18.509c-0.129,1.063,0.148,2.144-0.32,3.716C18.696,20.793,18.673,19.427,19.171,18.509z"/>
			<path class="st26" d="M21.2,14.971c-1.821,1.152-3.032,2.926-3.26,4.264c-0.129-1.839,0.815-3.536,2.417-4.266l-0.712,0.093
				C20.002,14.579,20.941,14.512,21.2,14.971z"/>
			<path class="st27" d="M22.247,25.842c1.212,0.377,1.527,1.931,3.496,2.305C23.799,28.219,23.108,27.761,22.247,25.842z"/>
			<path class="st27" d="M30.108,25.616c1.728-2.638,1.6-3.121,1.14-5.006C31.092,22.561,30.922,23.802,30.108,25.616z"/>
			<path class="st26" d="M21.694,14.755c-1.821,1.152-3.032,2.926-3.26,4.264c-0.129-1.839,0.815-3.537,2.417-4.266l-0.712,0.093
				C20.495,14.363,21.434,14.297,21.694,14.755z"/>
			<path class="st29" d="M18.14,18.561c0.153-1.51,0.999-2.759,2.843-3.548C20.076,15.624,18.673,17.044,18.14,18.561z"/>
			<path class="st27" d="M21.619,27.498c-1.215-1.266-1.659-1.822-2.535-4.139l1.204,1.704c-2.224-4.096-2.211-5.388-1.682-8.156
				c-1.1,1.524-1.749,3.299-1.549,5.197l0.274-0.945c-0.044,0.895,0.298,1.335,0.983,3.025l0.106-0.869
				C19.078,25.2,19.703,25.965,21.619,27.498z"/>
			<path class="st29" d="M20.033,26.076c-0.99-1.141-1.364-1.934-1.72-4.281C18.778,22.331,18.696,23.859,20.033,26.076z"/>
			<path class="st29" d="M17.671,20.064c0.139,1.061,0.675,2.04,0.612,3.679C17.777,22.394,17.416,21.076,17.671,20.064z"/>
			<path class="st27" d="M31.557,21.517l0.28,0.83c0.326-1.794,0.572-2.294,0.347-3.162l0.461,0.87
				c-0.19-1.899-1.186-3.504-2.574-4.773c1.081,2.603,1.357,3.865,0.013,8.328l0.832-1.913c-0.386,2.447-0.707,3.081-1.64,4.568
				C30.839,24.374,31.296,23.497,31.557,21.517z"/>
			<path class="st29" d="M31.352,20.008c0.13,2.37-0.076,3.222-0.813,4.541C31.396,22.107,31.006,20.627,31.352,20.008z"/>
			<path class="st29" d="M31.777,21.909c-0.395-1.592-0.069-2.659-0.149-3.727C32.083,19.122,31.998,20.485,31.777,21.909z"/>
		</g>
		<path class="st21" d="M34.509,24.466c-0.815,0.14-1.601,0.281-2.36,0.421c1.039-0.365,2.949-1.067,3.511-1.629l0.253,0.815
			C35.464,24.27,34.986,24.382,34.509,24.466z"/>
	</g>
</g>
<g>
	<g>
		<circle class="st0" cx="26.641" cy="103.882" r="36.225"/>
		<circle class="st1" cx="24.672" cy="102.832" r="35.963"/>
		
			<radialGradient id="SVGID_4_" cx="81.022" cy="-20.544" r="8.4645" gradientTransform="matrix(3.825 0 0 3.825 -285.2375 181.4125)" gradientUnits="userSpaceOnUse">
			<stop  offset="0" style="stop-color:#FFFFFF"/>
			<stop  offset="0.4846" style="stop-color:#F5F5F5"/>
			<stop  offset="1" style="stop-color:#E6E6E6"/>
		</radialGradient>
		<circle class="st31" cx="24.672" cy="102.832" r="32.419"/>
		<circle class="st32" cx="24.672" cy="102.832" r="17.457"/>
		<circle class="st33" cx="24.672" cy="102.832" r="32.288"/>
		<path class="st5" d="M50.134,77.369l-50.794,50.794c-14.044-14.044-14.044-36.75,0-50.794S36.091,63.325,50.134,77.369z"/>
		<path class="st6" d="M9.71,102.832c0-9.319,7.219-16.8,16.407-17.325c-0.394,0-0.788,0-1.181,0
			c-9.581,0-17.457,7.744-17.457,17.456c0,9.713,7.744,17.457,17.457,17.457c0.394,0,0.788,0,1.181,0
			C16.928,119.632,9.71,112.151,9.71,102.832z"/>
		<g id="XMLID_39_">
			<g class="st7">
				<path id="XMLID_54_" d="M62.866,136.432h0.788l0.131-12.075c0-0.131,0-0.263,0.131-0.263c0.131-0.131,0.394-0.131,0.525,0
					l-0.131,12.338h0.788l0.131-12.075l0,0c0.131-0.263,0.525-0.131,0.525,0.131v11.944h0.919l0.131-11.944
					c0-0.263,0.394-0.394,0.525-0.131l0,0v12.075h0.788l-0.131-12.338c0.131-0.131,0.394-0.131,0.525,0
					c0.131,0.131,0.131,0.131,0.131,0.263v12.075h0.788v-18.113c0-0.394-0.131-0.787-0.263-1.05l-1.575-3.281
					c-0.131-0.394-0.263-0.787-0.263-1.181L68.641,73.3c0-0.787-0.263-1.444-0.919-1.969l0,0c-0.919-0.787-2.231-0.787-3.15,0l0,0
					c-0.525,0.525-0.919,1.181-0.919,1.969l1.05,39.507c0,0.394-0.131,0.787-0.263,1.181l-1.575,3.15
					c-0.131,0.394-0.263,0.656-0.263,1.05L62.866,136.432z"/>
				<polygon id="XMLID_53_" points="64.703,99.682 64.966,108.738 67.854,106.901 68.116,97.582 				"/>
				<path id="XMLID_52_" d="M64.31,84.851l4.331-2.756l0.263-8.663c0-0.263,0-0.394,0-0.656l-4.856,3.019L64.31,84.851z"/>
				<polygon id="XMLID_51_" points="62.866,121.469 69.035,116.351 68.51,115.301 62.997,120.026 				"/>
				<polygon id="XMLID_50_" points="62.866,129.082 63.785,128.294 63.785,125.801 62.866,126.457 				"/>
				<path id="XMLID_49_" d="M65.754,124.488v2.1l1.05-0.919v-1.313c0-0.263,0.394-0.394,0.525-0.131l0,0v0.787l0.656-0.656v-0.525
					c0.131-0.131,0.394-0.131,0.525,0c0,0,0,0,0,0.131l0.919-0.788v-2.494l-4.2,3.413C65.622,124.357,65.754,124.357,65.754,124.488
					z"/>
				<polygon id="XMLID_48_" points="65.228,127.113 65.228,124.619 64.441,125.144 64.441,127.769 				"/>
			</g>
			<g>
				<g>
					<path id="XMLID_47_" class="st8" d="M62.078,135.645h0.788l0.131-12.075c0-0.131,0-0.263,0.131-0.263
						c0.131-0.131,0.394-0.131,0.525,0l-0.131,12.338h0.788l0.131-12.075l0,0c0.131-0.263,0.525-0.131,0.525,0.131v11.944h0.919
						l0.131-11.944c0-0.263,0.394-0.394,0.525-0.131l0,0v12.075h0.788l-0.131-12.338c0.131-0.131,0.394-0.131,0.525,0
						c0.131,0.131,0.131,0.131,0.131,0.263v12.075h0.788v-18.113c0-0.394-0.131-0.787-0.263-1.05l-1.575-3.281
						c-0.131-0.394-0.263-0.788-0.263-1.181l1.313-39.507c0-0.787-0.263-1.444-0.919-1.969l0,0c-0.919-0.787-2.231-0.787-3.15,0l0,0
						c-0.525,0.525-0.919,1.181-0.919,1.969l1.05,39.507c0,0.394-0.131,0.788-0.263,1.181l-1.575,3.15
						c-0.131,0.394-0.263,0.656-0.263,1.05L62.078,135.645z"/>
					<polygon id="XMLID_46_" class="st9" points="63.916,98.894 64.178,107.95 67.066,106.113 67.329,96.794 					"/>
					<path id="XMLID_45_" class="st9" d="M63.522,84.063l4.331-2.756l0.263-8.663c0-0.263,0-0.394,0-0.656l-4.856,3.019
						L63.522,84.063z"/>
					<polygon id="XMLID_44_" class="st9" points="62.078,120.682 68.247,115.563 67.722,114.513 62.078,119.107 					"/>
					<g id="XMLID_40_">
						<polygon id="XMLID_43_" class="st9" points="62.078,128.294 62.997,127.507 62.997,125.013 62.078,125.669 						"/>
						<path id="XMLID_42_" class="st9" d="M64.966,123.701v2.1l1.05-0.919v-1.313c0-0.263,0.394-0.394,0.525-0.131l0,0v0.787
							l0.656-0.656v-0.525c0.131-0.131,0.394-0.131,0.525,0c0,0,0,0,0,0.131l0.919-0.787v-2.494l-4.2,3.413
							C64.835,123.569,64.966,123.569,64.966,123.701z"/>
						<polygon id="XMLID_41_" class="st9" points="64.441,126.326 64.441,123.832 63.653,124.357 63.653,126.982 						"/>
					</g>
				</g>
			</g>
		</g>
		<g id="XMLID_28_">
			<g class="st7">
				<path id="XMLID_38_" d="M-19.822,71.857l0.263,63.788c0,0.919,1.181,1.181,1.706,0.394l0,0c1.838-3.413,3.15-7.219,3.675-11.157
					l0.525-3.675c0.394-2.888-0.131-5.906-1.706-8.531l0,0c-1.313-2.231-1.969-4.856-1.838-7.481l1.706-27.563
					c0.131-1.706,0-3.281-0.525-4.856l0,0c-0.394-1.313-1.444-2.1-2.756-2.1l0,0C-19.297,70.807-19.822,71.332-19.822,71.857z"/>
				<polygon id="XMLID_37_" points="-19.691,91.807 -19.691,100.863 -16.804,99.026 -16.147,89.444 				"/>
				<path id="XMLID_36_" d="M-18.772,70.807c-0.656,0-1.05,0.525-1.05,1.181v4.725l4.2-2.625c-0.131-0.394-0.131-0.656-0.263-1.05
					C-16.279,71.594-17.46,70.807-18.772,70.807z"/>
				<path id="XMLID_35_" d="M-17.197,105.85l-2.494,2.1v1.575l2.625-2.1C-17.197,106.901-17.197,106.376-17.197,105.85z"/>
				<path id="XMLID_34_" d="M-19.56,128.819v2.494l4.988-4.069c0.131-0.787,0.263-1.575,0.394-2.363l0.131-0.656L-19.56,128.819z"/>
			</g>
			<g>
				<g>
					<path id="XMLID_33_" class="st8" d="M-20.61,71.069l0.263,63.657c0,0.919,1.181,1.181,1.706,0.394l0,0
						c1.838-3.413,3.15-7.219,3.675-11.157l0.525-3.675c0.394-2.888-0.131-5.906-1.706-8.531l0,0
						c-1.313-2.231-1.969-4.856-1.838-7.481l1.706-27.563c0.131-1.706,0-3.281-0.525-4.856l0,0c-0.394-1.313-1.444-2.1-2.756-2.1
						l0,0C-20.085,70.019-20.61,70.544-20.61,71.069z"/>
					<polygon id="XMLID_32_" class="st9" points="-20.61,90.888 -20.478,100.075 -17.591,98.238 -16.935,88.657 					"/>
					<path id="XMLID_31_" class="st9" d="M-19.56,70.019c-0.656,0-1.05,0.525-1.05,1.181v4.725l4.2-2.625
						c-0.131-0.394-0.131-0.656-0.263-1.05C-17.066,70.807-18.247,70.019-19.56,70.019z"/>
					<path id="XMLID_30_" class="st9" d="M-17.985,105.063l-2.494,2.1v1.575l2.625-2.1
						C-17.985,106.113-17.985,105.588-17.985,105.063z"/>
					<path id="XMLID_29_" class="st9" d="M-20.478,128.032v2.494l4.988-4.069c0.131-0.787,0.263-1.575,0.394-2.363l0.131-0.656
						L-20.478,128.032z"/>
				</g>
			</g>
		</g>
	</g>
	<g>
		<g>
			<g>
				<g>
					<defs>
						<rect id="SVGID_5_" x="-73.372" y="-90.107" width="196.745" height="138.338"/>
					</defs>
					<clipPath id="SVGID_6_">
						<use xlink:href="#SVGID_5_"  style="overflow:visible;"/>
					</clipPath>
					<g class="st34">
						<path class="st11" d="M-21.528-10.832c2.888-4.331,25.725-7.481,48.563-6.694c20.738,0.656,41.344,4.594,46.725,13.519
							C82.948,11.35,90.035,74.35,61.553,75.794c-29.4,1.575-49.875,0.919-79.276-1.444C-42.66,69.232-32.422,5.969-21.528-10.832z"
							/>
						<path d="M-14.31-10.832c2.756-4.2,20.475-7.481,40.032-6.694c17.85,0.656,36.881,4.594,41.475,13.519
							c7.875,15.357,16.8,79.144-7.613,80.588c-25.331,1.575-52.5-1.969-77.832-4.331C-39.51,67.132-25.728,5.969-14.31-10.832z"/>
						<path class="st12" d="M-20.347-12.013c5.644-3.806,26.513-6.3,47.25-5.513s41.475,4.594,46.725,13.519
							c8.663,14.569,15.488,72.188-8.138,79.144c19.163-11.682,12.6-63.788,4.463-77.438c-5.381-8.925-25.988-12.863-46.725-13.519
							C5.641-16.475-11.816-14.769-20.347-12.013z"/>
						<path d="M-45.941-44.694c1.313-5.119,3.544-11.681,3.15-21.788c-0.656-16.669,7.481-19.819,27.825-18.506
							c16.538,1.05,27.825,0,40.556,0c11.682,0,27.694,1.05,39.507,0.656c14.044-0.525,26.775,3.019,26.513,16.275
							c-0.131,5.775-2.231,16.406,0.131,22.969c10.763,30.581-49.35,46.331-74.026,43.969C-4.334-1.119-53.422-14.9-45.941-44.694z"
							/>
						<path class="st11" d="M64.703-84.463h0.394c14.044-0.525,26.775,3.15,26.513,16.275c-0.131,5.775-2.231,16.406,0.131,22.969
							c10.5,29.532-45.413,45.281-71.401,44.232C47.904-2.038,96.073-17.525,86.36-45.22c-2.363-6.563-0.263-17.194-0.131-22.969
							C86.491-79.738,76.647-83.938,64.703-84.463z"/>
						<path class="st13" d="M-49.091-21.069h4.331c4.594,0,8.269,3.675,8.269,8.269v82.032c0,4.594-3.675,8.269-8.269,8.269h-4.331
							c-4.594,0-8.269-3.675-8.269-8.269V-12.8C-57.36-17.394-53.685-21.069-49.091-21.069z"/>
						<path class="st14" d="M-48.435-21.069h2.888c3.15,0,5.644,2.494,5.644,5.644v87.151c0,3.15-2.494,5.644-5.644,5.644h-2.888
							c-3.15,0-5.644-2.494-5.644-5.644v-87.151C-54.078-18.575-51.585-21.069-48.435-21.069z"/>
						<path class="st15" d="M-44.497,75.4h-2.888c-1.575,0-3.019-0.656-4.2-1.838c0.788,0.394,1.575,0.525,2.494,0.525h2.888
							c3.019,0,5.644-2.363,5.644-5.513v-84.263c0-1.313-0.525-2.756-1.444-3.675c1.969,0.919,3.15,2.756,3.15,4.856v84.395
							C-38.854,73.038-41.347,75.4-44.497,75.4z"/>
						<path class="st13" d="M91.085-21.069h4.331c4.594,0,8.269,3.675,8.269,8.269v82.032c0,4.594-3.675,8.269-8.269,8.269h-4.331
							c-4.594,0-8.269-3.675-8.269-8.269V-12.8C82.816-17.394,86.491-21.069,91.085-21.069z"/>
						<path class="st14" d="M91.741-21.069h2.888c3.15,0,5.644,2.494,5.644,5.644v87.151c0,3.15-2.494,5.644-5.644,5.644h-2.888
							c-3.15,0-5.644-2.494-5.644-5.644v-87.151C86.098-18.575,88.591-21.069,91.741-21.069z"/>
						<path class="st15" d="M95.679,75.4h-2.888c-1.575,0-3.019-0.656-4.2-1.838c0.788,0.394,1.575,0.525,2.494,0.525h2.888
							c3.019,0,5.644-2.363,5.644-5.513v-84.394c0-1.444-0.525-2.756-1.444-3.675c1.969,0.919,3.15,2.756,3.15,4.856v84.526
							C101.323,72.907,98.829,75.4,95.679,75.4z"/>
						<path class="st11" d="M-42.528-60.444c-4.069-21,4.331-29.663,24.675-28.088c16.669,1.313,30.844,2.231,43.575,2.231
							c11.682,0,28.744-1.706,40.425-2.231c20.475-0.919,28.482,3.938,25.332,26.513c-1.969,14.307-35.044-6.3-70.35-5.25
							C-11.422-66.351-41.347-54.144-42.528-60.444z"/>
						<path class="st12" d="M25.591-86.301c11.682,0,28.744-1.706,40.425-2.231c20.475-0.919,28.481,3.938,25.332,26.513
							c-0.525,3.413-2.756,4.856-6.3,4.988l0,0c1.575-11.55,0.263-18.507-4.2-22.313C73.104-86.17,45.278-81.576,25.591-86.301z"/>
						<path d="M22.835-86.301c-11.682,0-28.613-1.706-40.425-2.231c-20.475-0.919-28.482,3.938-25.331,26.513
							c0.525,3.413,2.625,4.856,6.3,4.988l0,0c-1.575-11.55-0.263-18.507,4.2-22.313C-24.547-86.17,3.278-81.576,22.835-86.301z"/>
						<path class="st16" d="M-7.747,0.194l33.863,13.125c19.819-5.775,21.263-8.138,28.35-5.25
							c13.913,5.906,15.225,27.3,19.556,47.513c4.463,20.606,11.813,34.257,7.088,48.3c-8.531,24.806-20.738,14.963-25.725,4.594
							c-4.463-9.45-10.5-29.4-16.8-44.888c-3.413-8.4-3.806-16.013-8.794-18.375c-4.331-2.1-7.219-1.575-8.794,0.394
							c-0.525,0.656-2.494,10.238-4.856,22.182c-6.431,33.206-9.45,44.888-16.538,48.3c-11.288,5.381-16.407,1.444-20.213-4.856
							c-6.431-10.5,1.969-61.819,6.825-92.532C-11.947,7.019-14.178,4.656-7.747,0.194z"/>
						<path d="M45.016,7.544c3.15-1.05,6.563-0.788,9.581,0.656c13.913,5.906,15.094,27.3,19.557,47.513
							c4.463,20.606,11.813,34.257,7.088,48.169c-4.725,13.913-10.631,16.931-15.882,15.094c3.413-1.706,6.694-6.169,9.581-14.569
							c2.1-5.906-2.1-28.088-6.825-48.038c-4.2-17.85-8.794-33.732-11.682-34.388c-10.631-2.625-40.294,3.544-63.788-5.775
							C-8.666,15.681,46.066,7.806,45.016,7.544L45.016,7.544z M30.71,45.081c-2.363-3.938-7.219-4.2-10.894-2.888
							c-7.875,3.019-8.269,18.506-9.713,25.988c-6.431,33.207-9.45,44.888-16.538,48.3c-1.575,0.787-3.281,1.444-5.119,1.838
							c2.888,0.525,6.563-0.131,11.288-2.363c7.088-3.413,10.106-15.094,16.538-48.3c2.363-11.944,4.331-21.525,4.856-22.182
							C21.391,45.344,24.409,42.456,30.71,45.081z"/>
						<path class="st17" d="M-7.747,0.194l5.906,2.494c-6.563,4.331-4.2,6.825-6.038,18.375
							c-4.856,30.713-13.256,81.901-6.825,92.401c1.05,1.838,2.363,3.544,3.938,4.988c-4.594-0.394-7.481-3.413-9.844-7.35
							c-6.431-10.5,1.969-61.819,6.825-92.532C-11.947,7.019-14.178,4.656-7.747,0.194z"/>
					</g>
				</g>
			</g>
		</g>
	</g>
	<g>
		<path class="st18" d="M52.497,47.706c-0.263-0.131-0.394-0.525-0.131-0.788l0,0c0.656-0.919,3.544-1.969,3.806-2.231
			c-0.131,0.525,0.131,0.919-0.263,1.444c-0.394,0.656-1.05,1.05-1.706,1.444C53.547,47.969,53.022,47.969,52.497,47.706z"/>
		<path class="st18" d="M50.659,41.275c-0.263-0.131-0.394-0.525-0.263-0.788c0,0,0,0,0-0.131c0.656-0.788,3.938-1.706,4.331-1.706
			c-0.131,0.525,0.131,0.919-0.263,1.444c-0.525,0.525-1.181,0.919-1.838,1.181C51.972,41.537,51.316,41.537,50.659,41.275z"/>
		<path class="st19" d="M17.322,62.407c8.794-1.313,9.188,0.263,17.194,0.788c2.756,0,5.513-0.131,8.269-0.525
			c2.494-0.131,4.988-0.525,7.481-1.181c1.575-0.525,2.625-1.575,1.838-3.15c1.444-0.394,3.806-0.394,4.463-1.575
			c0.525-1.181,0.525-2.625-0.131-3.675c0.919-0.131,1.706-0.656,2.363-1.313c0.525-0.788,0.525-3.413,0.525-4.463
			c0-2.231-1.575-2.231-3.413-2.625c0.919-0.919,1.444-2.1,1.444-3.413c-0.131-1.313-1.313-2.363-2.625-2.363
			c-1.444,1.313-3.15,2.494-4.988,3.281c1.181-1.181,1.838-1.575,1.05-4.2c-2.1,0.525-4.2,0.788-6.3,0.788
			c-4.594,0.131-6.431-0.788-9.056,0.131c-9.319,3.019-8.006,8.006-18.113,6.956L17.322,62.407L17.322,62.407L17.322,62.407z
			 M55.778,45.081c-0.263,0.919-0.919,1.575-1.706,2.1c-2.231,0.919-4.594,1.575-7.088,2.1c1.575-1.05,4.856-1.969,6.169-2.756
			C53.941,46,54.859,45.475,55.778,45.081L55.778,45.081z"/>
		<path class="st18" d="M51.578,60.7c0.788-0.656,0.919-1.575,0.525-2.494c0.656-0.263,1.444-0.263,2.231-0.394
			c-1.575,0-3.019,0-4.594,0.131c-0.394,0-3.15,0.656-3.281,0.788c-0.525,0.525,1.05,0.131,2.363,0
			c0.656-0.131,1.444-0.263,2.1-0.131c0.525,0.263,0.919,0.919,0.788,1.575C51.71,60.306,51.578,60.569,51.578,60.7L51.578,60.7z
			 M56.828,53.613c-0.131-0.263-0.131-0.394-0.263-0.656c0.525-0.131,0.919-0.263,1.181-0.394h-0.656
			c-2.494,0.131-4.988,0.525-7.35,1.181c-1.444,0.394-2.625,0.919-2.494,1.05c0.788,0,1.444-0.131,2.231-0.394
			c2.363-0.656,4.725-0.919,7.088-0.919C56.566,53.481,56.697,53.481,56.828,53.613L56.828,53.613z M56.828,44.819l-0.788-0.131
			l0.131-0.131l0,0c-0.919,0.525-1.706,1.05-2.494,1.706l2.231-1.181c-0.656,0.919-0.919,1.575-1.575,1.969
			c-1.181,0.788-2.888,0.656-4.331,1.05c-1.05,0.263-3.413,1.05-3.544,1.575c0,0.131,2.231-0.656,3.806-0.919
			c1.969-0.394,4.2-0.656,5.119-1.181c0.394-0.263,0.263-0.788,0.525-1.181s0.788-0.525,0.788-0.919
			C56.828,45.212,56.828,44.95,56.828,44.819L56.828,44.819z M50.134,41.931c-2.625,1.706-4.988,1.313-9.45,0.919
			c-1.05-0.131-1.969-0.919-0.263-0.788c2.494,0.131,6.563,0.656,8.794-0.525c1.05-0.656,1.575-1.706,1.444-2.888
			c-2.1,0.525-4.2,0.919-6.431,0.919c-3.281,0.131-6.431,0.656-9.581,1.706c-5.119,1.838-8.006,8.925-17.194,6.694v-2.231
			c10.106,1.05,8.794-4.069,18.113-6.956c2.625-0.788,4.463,0.131,9.056-0.131c2.1,0,4.2-0.263,6.3-0.788
			c0.788,2.494,0.131,3.019-1.05,4.2L50.134,41.931z"/>
		<path class="st20" d="M69.429,22.506c-32.681,5.775-53.288,9.45-87.807-1.575c-18.506-5.906-20.344-19.294-20.344-34.388
			c0-13.257,34.125-19.688,67.463-19.425c31.763,0.263,62.213,7.088,61.95,19.688C90.429-1.25,91.872,18.569,69.429,22.506z"/>
		<path class="st21" d="M-38.722-8.075c-0.131-1.706-0.131-3.544-0.131-5.25c0-13.256,34.125-19.688,67.463-19.425
			c31.763,0.263,62.213,7.088,61.95,19.688c0,3.019,0,6.431-0.263,10.106c0-1.575,0.131-3.15,0.131-4.594
			c0.525-12.6-29.007-23.625-60.638-24.675c-7.875-0.263-37.931,3.413-55.519,10.894c-7.875,3.281-12.994,8.269-13.125,12.338
			L-38.722-8.075z"/>
		<path class="st22" d="M-0.397,25.656c-6.169-1.181-12.206-2.756-18.113-4.725C-33.472,16.206-37.541,6.494-38.591-5.056
			c6.694,8.663,13.782,16.407,18.113,19.425C-13.916,18.569-7.222,22.375-0.397,25.656z"/>
		<path class="st22" d="M28.609-32.751c25.988,0.263,51.057,4.856,59.325,13.388l-9.45-0.788
			c-4.594-2.625-16.407-5.381-27.038-7.744C42.26-29.863,34.253-31.438,28.609-32.751z"/>
		<path class="st20" d="M-17.46,18.962c-7.219,1.181-8.006,6.169-18.506,17.063c10.763-3.675,44.757,3.806,60.507,3.806
			c-2.494,8.925-1.05,19.031,0.131,24.938c-19.294-1.05-46.331,1.838-81.244-9.975c-5.906-1.969-8.138-1.969-9.844-5.775
			c-1.181-2.494-0.656-5.644-0.263-10.106c1.706-16.669,19.688-64.575,40.031-60.9l14.438,10.5L-17.46,18.962z"/>
		<path class="st21" d="M24.147,62.275c0.131,0.919,0.263,1.838,0.525,2.625c-19.294-1.05-46.331,1.838-81.244-9.975
			c-5.906-1.969-8.138-1.969-9.844-5.775c-1.181-2.494-0.656-5.644-0.263-10.106c1.706-16.669,19.688-64.707,40.032-61.032
			l1.181,0.919c-3.675,0.525-7.088,1.838-10.106,3.938c-1.05,0.788-3.544,4.331,1.444,21.394c-3.019-4.594-5.25-15.75-4.856-18.769
			c-12.732,12.994-23.494,39.9-24.676,51.45c-0.394,4.463-0.919,7.481,0.263,10.106c1.838,3.806,3.938,3.806,9.844,5.775
			C-21.922,63.457,5.116,62.013,24.147,62.275z"/>
		<path class="st22" d="M-17.46,18.962c-7.219,1.181-8.006,6.169-18.506,17.063c10.763-3.675,44.757,3.806,60.507,3.806
			c-0.394,1.706-0.788,3.413-1.05,5.119c-1.706-0.656-3.675-1.313-5.906-1.969c-15.619,0-51.056-4.988-61.819-1.313
			c10.5-11.025,16.931-25.331,24.15-26.513l3.281,1.838L-17.46,18.962z"/>
		<path class="st18" d="M32.81,110.575c0.131-0.263-0.131-0.656-0.394-0.656l0,0c-1.05-0.131-4.069,1.181-4.331,1.181
			c0.394,0.263,0.656,0.787,1.313,0.919c0.788,0.131,1.575,0,2.231-0.263C32.153,111.494,32.547,111.101,32.81,110.575z"/>
		<path class="st18" d="M29.397,104.538c0.131-0.263-0.131-0.656-0.394-0.656c0,0,0,0-0.131,0c-1.05-0.131-4.069,1.706-4.463,1.838
			c0.394,0.263,0.656,0.787,1.313,0.787c0.788,0,1.575-0.131,2.231-0.525C28.609,105.719,29.134,105.194,29.397,104.538z"/>
		<path class="st19" d="M68.379,94.957c-6.825,6.038-5.775,7.35-11.157,13.65c-1.969,2.1-4.069,3.938-6.3,5.644
			c-1.969,1.706-4.069,3.281-6.3,4.594c-1.444,0.787-3.019,0.787-3.675-0.919c-1.313,0.787-3.15,2.494-4.463,2.231
			c-1.313-0.394-2.231-1.444-2.625-2.756c-0.788,0.525-1.706,0.787-2.625,0.787c-1.05-0.131-2.888-2.1-3.675-2.888
			c-1.575-1.575-0.525-2.888,0.525-4.331c-1.313,0-2.625-0.525-3.544-1.444c-0.919-1.05-0.919-2.625,0.131-3.675
			c2.1-0.131,4.069-0.525,5.906-1.313c-1.706,0-2.494,0.131-3.806-2.231c1.838-1.181,3.544-2.494,5.119-4.069
			c3.413-3.15,4.2-5.25,6.563-6.563c8.925-4.725,14.307,0.394,20.869-7.875L68.379,94.957L68.379,94.957z M28.478,111.101
			c0.919,0.394,1.838,0.525,2.756,0.263c2.363-1.05,4.594-2.231,6.694-3.675c-1.838,0.394-4.988,2.231-6.431,2.494
			C30.447,110.313,29.528,110.707,28.478,111.101z"/>
		<path class="st19" d="M68.379,94.957c-6.825,6.038-5.775,7.35-11.157,13.65c-1.969,2.1-4.069,3.938-6.3,5.644
			c-1.969,1.706-4.069,3.281-6.3,4.594c-1.444,0.787-3.019,0.787-3.675-0.919c-1.313,0.787-3.15,2.494-4.463,2.231
			c-1.313-0.394-2.231-1.444-2.625-2.756c-0.788,0.525-1.706,0.787-2.625,0.787c-1.05-0.131-2.888-2.1-3.675-2.888
			c-1.575-1.575-0.525-2.888,0.525-4.331c-1.313,0-2.625-0.525-3.544-1.444c-0.919-1.05-0.919-2.625,0.131-3.675
			c2.1-0.131,4.069-0.525,5.906-1.313c-1.706,0-2.494,0.131-3.806-2.231c1.838-1.181,3.544-2.494,5.119-4.069
			c3.413-3.15,4.2-5.25,6.563-6.563c8.925-4.725,14.307,0.394,20.869-7.875L68.379,94.957L68.379,94.957z M28.478,111.101
			c0.919,0.394,1.838,0.525,2.756,0.263c2.363-1.05,4.594-2.231,6.694-3.675c-1.838,0.394-4.988,2.231-6.431,2.494
			C30.447,110.313,29.528,110.707,28.478,111.101z"/>
		<path class="st18" d="M64.572,98.5c-3.019,3.281-3.281,5.25-7.481,9.975c-1.969,2.1-4.069,3.938-6.3,5.644
			c-1.706,1.444-8.269,7.744-9.975,3.675c0.394-0.131,1.575,1.969,3.938,0.131c4.069-3.019,7.875-6.431,11.288-10.106
			c5.381-6.3,2.494-7.875,9.319-13.913c0,0,0.394-0.525,1.181-1.313l1.181,2.625C66.672,96.4,65.622,97.45,64.572,98.5z"/>
		<path class="st18" d="M43.047,119.238c-0.919,0.131-1.969-0.394-2.231-1.444c-0.525,0.394-1.313,0.919-1.969,1.313
			c1.05-1.181,2.231-2.231,3.413-3.281c0.263-0.263,2.756-1.838,2.888-1.838c0.788-0.131-0.656,0.919-1.706,1.706
			c-0.656,0.394-1.181,0.919-1.706,1.444c-0.131,0.656,0,1.313,0.525,1.706C42.522,119.107,42.785,119.238,43.047,119.238
			L43.047,119.238z M33.991,117.925c0-0.131,0.131-0.131,0.131-0.263c1.706-1.706,3.675-3.281,5.775-4.463
			c0.919-0.656,1.969-1.05,1.838-1.313c-0.131-0.263-1.313,0.263-2.625,1.05c-2.231,1.313-4.331,2.756-6.169,4.463l-0.525,0.525
			c0.394-0.131,0.788-0.394,1.181-0.525C33.728,117.532,33.86,117.663,33.991,117.925L33.991,117.925z M27.56,111.625l0.525-0.656
			h-0.131c1.05-0.263,2.1-0.525,3.15-0.525l-2.494,0.787c0.788,0.263,1.706,0.394,2.494,0.263c1.444-0.394,2.625-1.575,3.938-2.363
			c1.05-0.525,3.15-1.838,3.806-1.444c0.131,0-2.1,1.181-3.544,2.1c-1.706,1.181-3.544,2.625-4.594,2.888
			c-0.525,0.131-0.788-0.394-1.313-0.525s-0.919,0.131-1.313-0.131C27.822,111.888,27.691,111.757,27.56,111.625L27.56,111.625z
			 M30.316,104.669c3.281-0.656,4.594-2.625,7.481-6.431c0.656-0.787,0.788-2.1-0.394-0.787c-1.706,1.969-4.331,5.381-6.825,6.038
			c-1.181,0.263-2.363-0.131-3.15-1.05c1.838-1.181,3.675-2.494,5.25-4.069c2.363-2.363,5.119-4.2,8.138-5.775
			c4.988-2.363,11.55-0.263,17.981-7.613l-0.525-1.313c-7.613,6.956-11.025,2.888-19.95,7.613c-2.494,1.313-3.15,3.413-6.563,6.563
			c-1.575,1.575-3.281,2.888-5.119,4.069c1.313,2.494,2.1,2.231,3.806,2.231L30.316,104.669z"/>
		<path class="st23" d="M26.903,102.7l-0.263-0.394c1.838-1.181,3.544-2.494,5.119-4.069c3.413-3.15,4.2-5.25,6.563-6.563
			c8.925-4.725,12.207-0.656,19.819-7.744l0.656,1.313c-6.431,7.219-12.863,5.119-17.981,7.613
			c-3.019,1.444-5.775,3.413-8.138,5.775c-1.575,1.575-3.413,2.888-5.25,4.069l0,0H26.903z"/>
		<path class="st20" d="M70.216,18.962c7.219,1.181,12.207,9.188,22.575,20.213l26.382,9.975c1.181-2.494,0.656-5.644,0.263-10.106
			c-1.706-16.669-19.688-64.575-40.031-61.032l-14.438,10.5L70.216,18.962z"/>
		<path class="st21" d="M74.81,20.8c5.119,3.15,9.975,9.844,18.113,18.506l3.544-0.919C85.835,26.312,82.028,18.175,74.81,16.994
			L74.81,20.8z"/>
		<path class="st22" d="M115.891,47.837l3.413,1.313c1.181-2.494,0.656-5.644,0.263-10.106
			c-1.444-15.225-16.538-56.175-34.65-60.769c-1.706-0.525-3.675-0.525-5.381-0.263l-5.381-0.131
			c2.494,1.313,8.531,2.625,12.469,6.169C86.36-7.944,84.26-0.2,80.323,6.756c5.513-4.594,8.006-16.8,8.269-20.869
			c13.913,11.55,25.725,39.9,27.038,52.632C116.154,42.587,116.547,45.475,115.891,47.837z"/>
		<path class="st20" d="M94.104,35.631c-8.006,3.806-27.957,40.163-40.557,47.644c6.3,6.038,9.844,14.832,11.813,20.213
			c14.963-9.975,29.794-25.069,52.238-51.188c3.806-4.463,2.1-8.269,1.706-12.207c-0.263-2.625-2.1-4.856-4.594-8.138L94.104,35.631
			z"/>
		<path class="st20" d="M94.104,35.631c-8.006,3.806-27.957,40.163-40.557,47.644c6.3,6.038,9.844,14.832,11.813,20.213
			c14.963-9.975,29.794-25.069,52.238-51.188c3.806-4.463,2.1-8.269,1.706-12.207c-0.263-2.625-2.1-4.856-4.594-8.138L94.104,35.631
			z"/>
		<path class="st21" d="M94.104,35.631c-8.006,3.806-27.957,40.163-40.557,47.644c0.919,0.919,1.838,1.838,2.625,2.888
			c6.169-4.331,14.832-15.094,21.525-23.756c6.694-8.663,12.731-19.688,18.375-24.675L94.104,35.631z"/>
		<path class="st22" d="M64.047,100.075c0.525,1.181,0.919,2.363,1.313,3.281c14.963-9.975,29.794-25.069,52.238-51.188
			c3.806-4.463,2.1-8.269,1.706-12.207s-4.2-6.431-5.381-11.682c0.656,3.413,2.1,9.975,2.363,12.338
			c0.394,3.938,2.231,5.775-1.706,10.106C93.316,74.219,78.879,88.788,64.047,100.075z"/>
		<g>
			<path class="st19" d="M32.153,43.769c-1.313,3.544-3.15,8.4-6.169,8.269c-3.413,0-4.725-4.463-6.169-8.269l1.575-4.2l1.575-4.2
				h6.169l1.575,4.2L32.153,43.769z"/>
			<path class="st18" d="M26.509,52.038c1.181-1.706,1.575-4.594,0.919-8.138c0.263,0.525,1.969,0.131,2.1,0.525
				c-1.05,1.838,0.525,3.15,0.131,4.463c-0.263,0.656-0.656,1.181-1.181,1.575C27.953,50.856,27.822,51.644,26.509,52.038z"/>
			<path class="st23" d="M25.328,52.038c-1.181-1.706-1.575-4.594-0.919-8.138c-0.263,0.525-1.969,0.131-2.1,0.525
				c1.05,1.838-0.525,3.15-0.131,4.463c0.263,0.656,0.656,1.181,1.181,1.575C24.016,50.856,24.147,51.644,25.328,52.038z"/>
			<path class="st19" d="M14.697,42.194C9.71,40.225,5.641,36.55,3.278,31.956c-2.756-5.644-4.069-13.782-4.725-21.263
				C-2.497-1.119-1.184-13.719,4.328-22.25c4.2-6.431,11.813-9.713,21.788-9.45c12.075-0.394,20.081,5.513,23.888,14.438
				c3.544,8.138,4.331,18.638,3.413,28.482c-0.656,7.481-1.706,15.094-4.463,20.738c-2.494,4.725-6.563,8.269-11.419,10.238
				C30.185,45.081,22.047,45.081,14.697,42.194z"/>
			<path class="st23" d="M14.697,42.194C9.71,40.225,5.641,36.55,3.278,31.956c-2.756-5.644-4.069-13.782-4.725-21.263
				C-2.497-1.119-1.184-13.719,4.328-22.25c3.938-6.038,10.894-9.319,19.95-9.45C9.71-22.907,2.359-12.275,4.328,13.319
				C5.116,23.95,7.872,38.125,24.016,44.031v0.263C20.866,44.031,17.716,43.375,14.697,42.194z"/>
			<path class="st18" d="M25.853-31.701h0.263c12.075-0.394,20.081,5.513,23.888,14.438c3.544,8.138,4.331,18.638,3.413,28.482
				c-0.656,7.481-1.706,15.094-4.463,20.738c-2.494,4.725-6.563,8.269-11.419,10.238c-3.281,1.181-6.563,1.969-10.106,2.1
				C42.916,38.125,46.854,26.05,47.641,15.55C49.741-10.569,40.947-22.907,25.853-31.701z"/>
			<path class="st18" d="M14.697,42.194c-1.313-0.525-2.494-1.181-3.675-1.838c0.394,0.263,0.788,0.394,1.181,0.525
				c2.494,1.05,5.119,1.706,7.875,2.231h11.944c2.494-0.263,4.988-0.788,7.35-1.706l0.788-0.263
				c-0.788,0.394-1.575,0.788-2.494,1.181c-1.706,0.656-3.544,1.181-5.381,1.575c-0.263,0.656-0.525,1.444-0.919,2.231
				c-0.788-1.575-2.363-1.313-3.938-0.919c-2.231,0.656-1.05,0.525-3.15-0.131c-1.313-0.525-2.756-0.131-3.544,1.05
				c-0.263-0.788-0.525-1.575-0.919-2.231l0,0C18.109,43.375,16.403,42.85,14.697,42.194z"/>
			<path class="st24" d="M40.422,39.437c3.019-2.1,5.644-4.463,8.006-7.219c-0.131,4.594-7.613,9.581-9.844,10.631
				c-1.706,0.788-2.756-0.394-2.625-1.05C35.96,41.669,39.897,39.831,40.422,39.437z"/>
			<path class="st24" d="M11.416,39.437c-3.019-2.1-5.644-4.463-8.006-7.219c0.131,4.594,7.613,9.581,9.844,10.631
				c1.706,0.788,2.756-0.394,2.625-1.05C15.878,41.669,12.072,39.831,11.416,39.437z"/>
			<path class="st18" d="M-0.922,16.075c-0.131-1.313,0.131-3.281,0-4.594l52.369-0.919c-0.131,1.181,1.575,4.2,1.444,5.381
				c-1.838,0.394-1.05,1.444-1.969,4.988c-0.263,1.444-0.788,2.756-1.706,4.069c-0.788,0.263,0.656-7.875-1.575-7.744
				c-0.394,0-1.05,1.706-1.706,3.544c-2.494,8.269-8.531,12.338-15.75,17.063c0.788-1.313,0.919-2.1,1.181-2.494
				c-3.413,2.494-6.563,4.988-8.269,4.856c-0.656-2.363-2.1-4.463-4.069-6.038c-4.463-1.706-6.038-1.969-12.206-13.519
				s-1.313,5.119-4.069,3.806C0.784,23.556,1.572,17.781-0.922,16.075z"/>
			<path class="st18" d="M54.203,7.675c2.1-1.838,2.1-3.938,2.888-6.038c0.656-1.706,1.969-3.938,2.1-6.169
				c0.263-3.938-3.938-6.169-5.119-1.181C52.366,0.719,51.841,1.9,54.203,7.675z"/>
			<path class="st19" d="M-2.366,7.675c-2.1-1.838-2.1-3.938-2.888-6.038C-5.91-0.069-7.222-2.3-7.353-4.531
				C-7.485-8.469-3.416-10.7-2.235-5.713C-0.659,0.719-0.003,1.9-2.366,7.675z"/>
			<path class="st25" d="M-1.053,15.156c-0.131-1.313-0.919-3.15-1.05-4.463C-3.153-0.988-1.841-13.719,3.803-22.25
				c4.331-6.431,12.075-9.713,22.181-9.45c12.338-0.394,20.475,5.513,24.413,14.438c3.675,8.138,4.331,18.638,3.544,28.482
				c-0.131,1.313-0.394,2.494-0.788,3.806c-0.107,2.972-0.394,1.969-1.444,5.644c-0.263,1.444-1.838,4.961-4.212,7.613
				c-0.263,0.293-2.482,2.775-4.921,4.186c-7.548,5.283-3.895,1.589-12.535,5.319c-2.876,0.616-2.876,0.616-9.054,0.357
				c-6.476-1.725-7.744-4.087-11.54-6.713c-6.038-3.388-7.098-6.938-8.279-7.856C-0.276,22.131-0.134,19.711-1.053,15.156z"/>
			<path class="st26" d="M39.905-1.875c-4.935-4.318-7.509-6.996-11.967-9.436C36.043-2.504,38.462-1.06,45.27,9.47l-6.911-5.186
				c7.26,16.058,12.492,20.043,3.288,34.323c-5.786-8.794-15.777-3.487-24.437-21.728l1.482,7.589
				c-5.705-8.014-8.449-12.578-6.543-23.565L7.967,8.88c-4.421-17.164,3.19-20.137,3.997-31.166
				C19.794-19.27,28.887-19.28,39.905-1.875z"/>
			<path class="st27" d="M57.744,10.36c-1.435-8.111-2.888-21.498-18.437-32.547l6.103,2.337
				c-7.522-9.797-21.914-7.126-32.661-2.714c11.49,2.932,15.922,4.396,22.374,12.979l-2.217-5.357
				C46.386,0.91,50.897,14.554,50.18,26.688c2.937-8.926,1.807-21.67-3.713-29.623C53.053,3.756,53.547,1.66,57.744,10.36z"/>
			<path class="st28" d="M25.642,19.556c-3.647-6.367-4.192-6.225-6.156-13.542l1.478,0.488c-5.095-8.028-7.393-9.54-8.094-19.882
				C11.213-6.828,9.315-0.14,7.842,6.473c1.327-2.896,2.903-5.603,4.664-8.249c0.752,7.67,1.075,12.94,4.017,20.365
				c-1.126-5.642-0.976-6.883-0.826-12.75C19.886,14.214,19.122,12.993,25.642,19.556z"/>
			<path class="st28" d="M42.789,31.025c0.124-6.843-1.539-12.017-7.789-19.889c0,0,5.266,5.288,5.949,5.729
				C36.839,6.795,32.444-0.142,21.869-3.095c0.215,3.513,0.28,8.267,0.615,11.713c0.915,9.23,9.136,10.868,14.094,18.313
				c-2.522-5.35-3.325-5.723-6.504-10.537C35.525,21.743,40.25,25.024,42.789,31.025z"/>
			<path class="st26" d="M12.384,32.82C6.86,27.017-2.474,17.912-3.528-1.152l-0.88,5.948c-4.425-15.014,5.874-22.478,15.331-29.468
				C4.709-12.739,3.559-0.857,7.344,10.719c1.323,3.879,1.959,0.216,2.998-2.022c2.14,11.678,13.815,23.922,19.214,27.318
				c-9.334-4.479-18.959-10.776-22.315-19.952C8.896,25.538,7.946,24.256,12.384,32.82z"/>
			<path class="st27" d="M12.118-21.051c3.003,5.079-1.838,8.967-3.242,18.184C6.939-9.207,10.787-16.004,12.118-21.051z"/>
			<path class="st27" d="M28.25,28.162c3.947,3.885,9.789,3.231,13.204,10.06C40.38,29.907,32.747,29.754,28.25,28.162z"/>
			<path class="st27" d="M43.875,19.013c0.082,5.405,0.688,12.167-2.181,19.072C46.023,31.017,46.71,24.682,43.875,19.013z"/>
			<path class="st27" d="M41.544,34.701C37.69,20.522,30.346,24.336,26.78,18.749C31.806,28.798,36.333,24.591,41.544,34.701z"/>
			<path class="st27" d="M34.958,14.134c2.384,4.767,6.602,7.343,6.62,17.244C43.553,22.995,39.996,17.733,34.958,14.134z"/>
			<path class="st27" d="M18.044,16.08c5.661,1.761,7.135,9.024,16.335,10.77C25.295,27.186,22.065,25.044,18.044,16.08z"/>
			<path class="st27" d="M47.543,23.882c-1.736-14.88-3.601-16.14-10.752-21.19C41.989,10.001,45.047,14.882,47.543,23.882z"/>
			<path class="st27" d="M18.28,22.719c-7.414-12.666-6.8-14.83-4.224-23.553C14.298,8.282,14.942,14.195,18.28,22.719z"/>
			<path class="st27" d="M29.863,1.48c1.894,4.713,6.095,6.637,9.76,13.656C37.809,6.577,32.96,5.514,29.863,1.48z"/>
			<path class="st29" d="M42.077,36.383C39.752,29.27,38.395,24.088,30.59,22.05C35.925,25.317,37.583,28.016,42.077,36.383z"/>
			<path class="st29" d="M39.731,26.143c-0.323-5.27-0.297-8.919-5.198-11.935C37.613,17.591,38.218,19.727,39.731,26.143z"/>
			<path class="st27" d="M40.194,25.22C29.43,15.106,26.66,14.191,23.27-0.912c1.439,1.335,6.095,2.012,12.53,14.57
				c-3.561-3.112-4.502-4.068-5.296-4.115C33.394,15.016,36.646,20.284,40.194,25.22z"/>
			<path class="st29" d="M32.686,18.224c-4.888-4.841-6.997-8.441-9.416-19.136C25.649,1.38,25.839,8.542,32.686,18.224z"/>
			<path class="st29" d="M31.913,21.304c-6.091-4.162-9.123-8.067-9.678-17.501C23.331,10.618,26.793,16.924,31.913,21.304z"/>
			<path class="st28" d="M44.274,8.711C31.481-8.85,24.201-14.158,13.067-19.769c3.265,8.07,1.762,15.856,9.219,25.524
				c-0.49-4.679-1.405-9.284-2.986-13.679C27.088-1.91,32.439-2.618,43.905,17.84C42.289,12.143,36.014,3.295,33.14-1.526
				L44.274,8.711z"/>
			<path class="st27" d="M34.858-5.799C26.962-18.194,24.819-18.471,16.31-19.452C23.982-15.521,28.762-12.437,34.858-5.799z"/>
			<path class="st27" d="M42.014,6.352C34.119-6.043,25.352-12.164,16.86-17.119C25.597-9.824,33.982-2.001,42.014,6.352z"/>
			<path class="st27" d="M20.482,2.148c-4.059-8.117-4.919-12.918-6.427-21.484C16.324-12.025,19.081-9.286,20.482,2.148z"/>
			<path class="st29" d="M18.588-2.565c-4.06-8.117-2.96-8.076-4.412-16.839C15.512-12.723,15.563-15.396,18.588-2.565z"/>
			<path class="st27" d="M32.813-0.02C22.998-8.854,19.79-7.869,15.851-16.053C22.058-9.809,25.919-9.18,32.813-0.02z"/>
			<path class="st29" d="M37.865,1.755C29.63-7.31,26.422-6.325,20.902-14.278C27.174-7.906,30.97-7.405,37.865,1.755z"/>
			<path class="st27" d="M20.577,5.729C10.951-5.193,12.772-5.56,13.815-14.574C13.489-8.443,15.732-2.109,20.577,5.729z"/>
			<path class="st27" d="M24.727,19.577c-7.942-7.247-8.775-6.447-9.919-17.365C17.244,8.932,18.984,12.41,24.727,19.577z"/>
			<path class="st29" d="M17.297,20.136c-2.565-6.978-3.012-10.03-3.717-18.222C15.423,4.673,14.268,9.455,17.297,20.136z"/>
			<path class="st26" d="M42.609-24.216c-10.326-7.388-26.677-0.308-31.024,1.484c-0.537-8.783,8.598-11.791,14.611-10.559
				c-2.616,0.32-5.158,1.094-7.379,2.512C26.918-33.698,34.568-32.894,42.609-24.216z"/>
			<path class="st28" d="M49.687,28.784c1.081-14.487-1.561-24.395-9.224-32.625C46.752,7.808,49.445,15.044,49.687,28.784z"/>
			<path class="st30" d="M55.625,1.809c-3.793-11.901-8.862-18.953-17.689-22.727C44.242-13.243,48.825-8.396,55.625,1.809z"/>
			<path class="st27" d="M51.993,16.745C50.257,6.491,50.574,0.034,41.133-6.202C47.456,2.124,48.186,6.668,51.993,16.745z"/>
			<path class="st30" d="M58.379,11.323C52.64-2.619,50.543-3.418,43.5-6.711C50.123-0.868,54.015,3.214,58.379,11.323z"/>
			<path class="st26" d="M48.628-6.632c-4.119-5.77-8.54-13.683-18.088-17.05c3.41-0.272,3.505-1.317,6.988-1.135
				c-9.613-3.496-19.414-0.277-24.778,2.254c8.698-1.109,15.639,2.904,23.719,10.734l-6.177-7.417
				C35.407-17.343,40.63-13.682,48.628-6.632z"/>
			<path class="st29" d="M41.33-21.842c-6.782-4.928-15.411-5.84-22.829-2.48C26.09-25.797,34.109-24.87,41.33-21.842z"/>
			<path class="st27" d="M42.293-3.883c-2.599-8.28-8.806-14.524-16.619-16.888C32.43-16.819,38.259-11.023,42.293-3.883z"/>
			<path class="st27" d="M34.646-20.713c-7.53-5.497-14.342-4.627-21.656-1.986C20.541-23.326,25.742-22.792,34.646-20.713z"/>
			<path class="st28" d="M45.166-3.687C43.117-9.635,42.017-14.3,31.657-18.365C37.795-14.726,40.115-10.088,45.166-3.687z"/>
			<path class="st28" d="M30.716-28.572c-5.82-0.845-10.983-2.227-19.139,5.515C17.598-26.126,24.015-28.095,30.716-28.572z"/>
			<path class="st30" d="M40.221-26.833c-6.782-4.928-15.411-5.84-22.893-2.609C25.046-30.659,32.88-29.794,40.221-26.833z"/>
			<path class="st26" d="M22.593-33.405c-7.791,0.762-11.622,3.585-10.737,9.364C12.281-28.742,18.423-31.877,22.593-33.405z"/>
			<path class="st28" d="M40.539,38.242c-7.813-6.989-16.64-6.138-21.73-16.316C24.419,35.61,28.787,32.319,40.539,38.242z"/>
			<path class="st27" d="M9.978,29.552c-4.034-7.14-5.396-10.171-6.676-21.673l3.475,9.107C1.458-4.131,3.013-9.965,8.617-21.883
				C1.87-16.258-3.125-8.979-4.417-0.155l2.336-3.962c-1.237,4.002-0.197,6.389,0.942,14.832l1.486-3.812
				C1.142,16.201,3.084,20.392,9.978,29.552z"/>
			<path class="st29" d="M4.45,21.273C1.293,14.96,0.515,10.939,1.627-0.096C3.109,2.867,0.97,9.691,4.45,21.273z"/>
			<path class="st29" d="M-3.498-2.326c1.464-6.939,3.32-10.629,10.81-18.16C6.668-17.149,0.968-13.437-3.498-2.326z"/>
			<path class="st27" d="M21.193,31.318c-11.108-9.26-11.168-11.539-11.594-20.715C12.817,19.195,15.274,24.416,21.193,31.318z"/>
			<path class="st29" d="M19.368,29.209c-4.665-5.627-6.138-8.265-9.33-15.88C12.593,15.356,13.147,20.164,19.368,29.209z"/>
			<path class="st29" d="M0.728-8.675C0.127-3.71,1.42,1.342-0.765,8.688C-1.492,1.994-1.6-4.388,0.728-8.675z"/>
			<path class="st26" d="M11.461-25.14C2.424-20.701-4.087-13.062-5.818-6.964c0.322-8.607,5.557-16.022,13.361-18.609l-3.355,0.076
				C6.087-27.559,10.485-27.398,11.461-25.14z"/>
			<path class="st29" d="M-4.555-9.989c1.464-6.939,6.021-12.319,14.98-15.062C5.911-22.669-1.317-16.773-4.555-9.989z"/>
			<path class="st26" d="M57.233,12.589c-0.089-8.012,0.618-21.072-12.19-34.406l5.336,3.322
				c-5.509-10.708-19.353-10.716-30.062-8.409c10.271,4.849,14.182,7.038,18.881,16.395l-1.243-5.517
				C48.09,1.531,50.197,15.381,47.658,26.856c4.117-8.013,5.026-20.4,1.1-28.988C53.873,5.439,54.657,3.523,57.233,12.589z"/>
			<path class="st28" d="M48.439,30.018c0.124-6.843-1.539-12.017-7.789-19.889c0,0,5.266,5.288,5.949,5.729
				C42.489,5.787,38.094-1.149,27.52-4.102c0.215,3.513,0.28,8.267,0.615,11.713c0.915,9.23,9.136,10.868,14.094,18.313
				c-2.522-5.35-3.325-5.723-6.504-10.537C41.175,20.736,45.9,24.016,48.439,30.018z"/>
			<path class="st27" d="M51.178,4.415c0.082,5.405,0.688,12.167-2.181,19.072C53.326,16.419,54.013,10.084,51.178,4.415z"/>
			<path class="st27" d="M40.608,13.126c2.384,4.767,6.602,7.343,6.62,17.244C49.203,21.987,45.647,16.726,40.608,13.126z"/>
			<path class="st27" d="M53.194,22.874c-1.736-14.88-3.601-16.14-10.752-21.19C47.639,8.993,50.698,13.875,53.194,22.874z"/>
			<path class="st27" d="M35.513,0.473c1.894,4.713,6.095,6.637,9.76,13.656C43.459,5.57,38.61,4.507,35.513,0.473z"/>
			<path class="st29" d="M45.381,25.136c-0.323-5.27-0.297-8.919-5.198-11.935C43.263,16.584,43.868,18.72,45.381,25.136z"/>
			<path class="st27" d="M45.845,24.213C35.08,14.098,32.31,13.183,28.92-1.919c1.439,1.335,6.095,2.012,12.53,14.57
				c-3.561-3.112-4.502-4.068-5.296-4.115C39.045,14.008,42.296,19.277,45.845,24.213z"/>
			<path class="st28" d="M49.924,7.704C37.132-9.857,29.851-15.165,18.717-20.776c3.265,8.07,1.762,15.856,9.219,25.524
				c-0.49-4.679-1.405-9.284-2.986-13.679c7.788,6.013,13.139,5.305,24.604,25.763C47.939,11.136,41.664,2.288,38.79-2.533
				L49.924,7.704z"/>
			<path class="st27" d="M40.508-6.806c-7.895-12.395-10.039-12.672-18.547-13.652C29.632-16.528,34.412-13.444,40.508-6.806z"/>
			<path class="st27" d="M47.665,5.344C39.769-7.051,31.002-13.172,22.51-18.126C31.247-10.832,39.632-3.008,47.665,5.344z"/>
			<path class="st27" d="M38.464-1.027C28.648-9.861,25.44-8.876,21.501-17.061C27.708-10.817,31.569-10.187,38.464-1.027z"/>
			<path class="st29" d="M43.515,0.747c-8.234-9.065-11.443-8.08-16.963-16.033C32.824-8.913,36.621-8.412,43.515,0.747z"/>
			<path class="st27" d="M47.364-23.127c-9.668-8.231-26.557-2.55-31.039-1.129c0.203-8.797,9.559-11.026,15.447-9.293
				c-2.633,0.099-5.232,0.656-7.564,1.883C32.526-33.894,40.08-32.45,47.364-23.127z"/>
			<path class="st28" d="M53.124,19.401C54.205,4.914,51.563-4.994,43.9-13.225C50.189-1.575,52.883,5.66,53.124,19.401z"/>
			<path class="st27" d="M56.878,3.335c-2.281-11.96-6.287-19.423-14.182-24.231C47.798-12.669,51.586-7.393,56.878,3.335z"/>
			<path class="st27" d="M55.324,15.828c-0.034-10.4,1.336-16.717-6.956-24.415C53.243,0.662,53.219,5.264,55.324,15.828z"/>
			<path class="st27" d="M56.582,13.12C55.065-1.51,53.377-2.853,47.864-7.932C52.322-0.597,54.77,4.317,56.582,13.12z"/>
			<path class="st27" d="M54.278-7.639c-4.119-5.77-8.54-13.683-18.088-17.05c3.41-0.272,3.505-1.317,6.988-1.135
				c-9.613-3.496-19.414-0.277-24.778,2.254c8.698-1.109,15.639,2.904,23.719,10.734l-6.177-7.417
				C41.057-18.35,46.28-14.69,54.278-7.639z"/>
			<path class="st26" d="M46.98-22.849c-6.782-4.928-15.411-5.84-22.829-2.48C31.74-26.804,39.759-25.878,46.98-22.849z"/>
			<path class="st27" d="M47.943-4.89c-2.599-8.28-8.806-14.524-16.619-16.888C38.08-17.827,43.909-12.03,47.943-4.89z"/>
			<path class="st26" d="M40.296-21.721c-7.53-5.497-14.342-4.627-21.656-1.986C26.191-24.333,31.392-23.799,40.296-21.721z"/>
			<path class="st28" d="M50.816-4.694c-2.049-5.947-3.149-10.613-13.509-14.678C43.445-15.733,45.765-11.095,50.816-4.694z"/>
			<path class="st28" d="M36.366-29.58c-5.82-0.845-10.983-2.227-19.139,5.515C23.248-27.133,29.665-29.102,36.366-29.58z"/>
			<path class="st28" d="M45.204-25.935c-6.344-5.481-14.866-7.115-22.593-4.524C30.404-31.024,38.138-29.503,45.204-25.935z"/>
			<path class="st26" d="M28.243-34.412c-7.791,0.762-11.622,3.585-10.737,9.364C17.931-29.749,24.073-32.884,28.243-34.412z"/>
			<path class="st28" d="M22.678,22.904c-3.647-6.367-4.192-6.225-6.156-13.542L18,9.85c-5.095-8.028-7.393-9.54-8.094-19.882
				C8.249-3.48,6.351,3.208,4.878,9.821c1.327-2.896,2.903-5.603,4.664-8.249c0.752,7.67,1.075,12.94,4.017,20.365
				c-1.126-5.642-0.976-6.883-0.826-12.75C16.923,17.562,16.158,16.342,22.678,22.904z"/>
			<path class="st26" d="M9.42,36.168C3.896,30.365-5.438,21.26-6.491,2.196l-0.88,5.948C-11.797-6.87-1.497-14.334,7.96-21.324
				C1.746-9.391,0.595,2.491,4.38,14.067c1.323,3.879,1.959,0.216,2.998-2.022c2.14,11.678,13.815,23.922,19.214,27.318
				C17.259,34.884,7.633,28.587,4.278,19.411C5.932,28.886,4.983,27.604,9.42,36.168z"/>
			<path class="st27" d="M9.154-17.702c3.003,5.079-1.838,8.967-3.242,18.184C3.975-5.859,7.823-12.656,9.154-17.702z"/>
			<path class="st27" d="M25.286,31.51c3.947,3.885,9.789,3.231,13.204,10.06C37.416,33.255,29.784,33.102,25.286,31.51z"/>
			<path class="st27" d="M38.58,38.049c-3.854-14.18-11.198-10.366-14.764-15.953C28.843,32.146,33.369,27.939,38.58,38.049z"/>
			<path class="st27" d="M15.08,19.428c5.661,1.761,7.135,9.024,16.335,10.77C22.331,30.534,19.101,28.392,15.08,19.428z"/>
			<path class="st27" d="M15.317,26.068c-7.414-12.666-6.8-14.83-4.224-23.553C11.334,11.63,11.979,17.544,15.317,26.068z"/>
			<path class="st29" d="M39.113,39.731c-2.324-7.114-3.682-12.295-11.486-14.333C32.961,28.665,34.62,31.364,39.113,39.731z"/>
			<path class="st29" d="M28.949,24.652c-6.091-4.162-9.123-8.067-9.678-17.501C20.367,13.966,23.829,20.272,28.949,24.652z"/>
			<path class="st27" d="M17.519,5.496C13.459-2.62,12.6-7.422,11.092-15.987C13.36-8.677,16.118-5.938,17.519,5.496z"/>
			<path class="st29" d="M15.624,0.783c-4.059-8.117-2.96-8.076-4.412-16.839C12.548-9.375,12.599-12.047,15.624,0.783z"/>
			<path class="st27" d="M17.613,9.077C7.987-1.845,9.808-2.212,10.851-11.226C10.526-5.095,12.768,1.239,17.613,9.077z"/>
			<path class="st27" d="M21.764,22.925c-7.942-7.247-8.775-6.447-9.919-17.365C14.28,12.28,16.021,15.758,21.764,22.925z"/>
			<path class="st29" d="M14.333,23.484c-2.565-6.978-3.012-10.03-3.717-18.222C12.459,8.021,11.304,12.803,14.333,23.484z"/>
			<path class="st28" d="M37.576,41.59c-7.813-6.989-16.64-6.138-21.73-16.316C21.456,38.958,25.823,35.667,37.576,41.59z"/>
			<path class="st27" d="M7.015,32.9c-4.034-7.14-5.396-10.171-6.676-21.673l3.475,9.107C-1.505-0.783,0.049-6.617,5.654-18.535
				C-1.093-12.91-6.088-5.631-7.38,3.193l2.336-3.962C-6.28,3.233-5.241,5.62-4.102,14.064l1.486-3.812
				C-1.821,19.55,0.12,23.74,7.015,32.9z"/>
			<path class="st29" d="M1.486,24.621c-3.157-6.313-3.935-10.335-2.823-21.37C0.145,6.215-1.994,13.039,1.486,24.621z"/>
			<path class="st29" d="M-6.462,1.023c1.464-6.939,3.32-10.629,10.81-18.16C3.704-13.8-1.995-10.088-6.462,1.023z"/>
			<path class="st27" d="M18.23,34.666C7.122,25.406,7.062,23.127,6.636,13.951C9.853,22.543,12.31,27.764,18.23,34.666z"/>
			<path class="st29" d="M16.404,32.558c-4.665-5.627-6.138-8.265-9.33-15.88C9.63,18.704,10.184,23.513,16.404,32.558z"/>
			<path class="st29" d="M-2.236-5.327C-2.836-0.362-1.543,4.69-3.729,12.036C-4.455,5.342-4.563-1.04-2.236-5.327z"/>
			<path class="st26" d="M7.247-21.862C-1.263-16.481-6.919-8.189-7.987-1.941c-0.602-8.592,3.81-16.524,11.292-19.932l-3.327,0.434
				C1.645-23.692,6.036-24.003,7.247-21.862z"/>
			<path class="st27" d="M12.139,28.935c5.661,1.761,7.135,9.024,16.335,10.77C19.389,40.041,16.16,37.899,12.139,28.935z"/>
			<path class="st27" d="M48.866,27.879c8.073-12.327,7.477-14.582,5.325-23.391C53.464,13.606,52.67,19.405,48.866,27.879z"/>
			<path class="st26" d="M9.551-22.87C1.041-17.489-4.614-9.196-5.682-2.948C-6.284-11.54-1.872-19.473,5.61-22.88l-3.327,0.434
				C3.949-24.699,8.34-25.01,9.551-22.87z"/>
			<path class="st29" d="M-7.055-5.084c0.713-7.056,4.668-12.892,13.282-16.579C1.994-18.812-4.562-12.175-7.055-5.084z"/>
			<path class="st27" d="M9.2,36.674c-5.679-5.916-7.75-8.515-11.843-19.34l5.626,7.96C-7.408,6.156-7.35,0.12-4.877-12.817
				c-5.141,7.123-8.174,15.413-7.237,24.282l1.281-4.417c-0.205,4.184,1.394,6.238,4.591,14.135l0.494-4.062
				C-2.671,25.933,0.249,29.511,9.2,36.674z"/>
			<path class="st29" d="M1.791,30.025c-4.624-5.333-6.376-9.036-8.036-20.002C-4.074,12.527-4.453,19.668,1.791,30.025z"/>
			<path class="st29" d="M-9.243,1.936c0.65,4.959,3.155,9.532,2.86,17.191C-8.747,12.822-10.435,6.667-9.243,1.936z"/>
			<path class="st27" d="M55.635,8.725l1.31,3.876c1.524-8.382,2.672-10.719,1.619-14.774l2.153,4.064
				C59.83-6.981,55.174-14.481,48.691-20.41C53.744-8.247,55.03-2.348,48.75,18.504l3.888-8.939
				c-1.806,11.431-3.305,14.397-7.661,21.345C52.284,22.075,54.416,17.977,55.635,8.725z"/>
			<path class="st29" d="M54.678,1.674c0.606,11.074-0.355,15.056-3.798,21.218C54.886,11.481,53.062,4.567,54.678,1.674z"/>
			<path class="st29" d="M56.665,10.558C54.818,3.12,56.341-1.867,55.968-6.855C58.097-2.465,57.697,3.905,56.665,10.558z"/>
		</g>
		<path class="st21" d="M69.429,22.506c-3.806,0.656-7.481,1.313-11.025,1.969c4.856-1.706,13.782-4.988,16.407-7.613l1.181,3.806
			C73.891,21.587,71.66,22.113,69.429,22.506z"/>
	</g>
</g>
</svg>
