<?xml version="1.0" encoding="utf-8"?>
<!-- Generator: Adobe Illustrator 21.0.0, SVG Export Plug-In . SVG Version: 6.00 Build 0)  -->
<svg version="1.1" id="Capa_1" xmlns="http://www.w3.org/2000/svg" xmlns:xlink="http://www.w3.org/1999/xlink" x="0px" y="0px"
	 viewBox="0 0 160 178" style="enable-background:new 0 0 160 178;" xml:space="preserve">
<style type="text/css">
	.st0{opacity:0.2;enable-background:new    ;}
	.st1{fill:#FFFFFF;}
	.st2{fill:url(#SVGID_1_);}
	.st3{fill:#FAFAFA;stroke:#E0E0E0;stroke-width:0.4413;stroke-miterlimit:10;}
	.st4{fill:none;stroke:#FFC107;stroke-width:1.738;stroke-miterlimit:10;}
	.st5{opacity:0.5;fill:#FFFFFF;enable-background:new    ;}
	.st6{opacity:0.1;enable-background:new    ;}
	.st7{opacity:0.6;}
	.st8{fill:#CCCCCA;}
	.st9{fill:#F2F2F2;}
	.st10{clip-path:url(#SVGID_3_);}
	.st11{fill-rule:evenodd;clip-rule:evenodd;fill:#21211D;}
	.st12{fill-rule:evenodd;clip-rule:evenodd;}
	.st13{fill-rule:evenodd;clip-rule:evenodd;fill:#363632;}
	.st14{fill-rule:evenodd;clip-rule:evenodd;fill:#5C5C69;}
	.st15{fill-rule:evenodd;clip-rule:evenodd;fill:#7C7C8A;}
	.st16{fill-rule:evenodd;clip-rule:evenodd;fill:#A2A2AB;}
	.st17{fill-rule:evenodd;clip-rule:evenodd;fill:#606087;}
	.st18{fill-rule:evenodd;clip-rule:evenodd;fill:#4F6A78;}
	.st19{fill-rule:evenodd;clip-rule:evenodd;fill:#3A4D57;}
	.st20{fill-rule:evenodd;clip-rule:evenodd;fill:#587280;}
	.st21{fill-rule:evenodd;clip-rule:evenodd;fill:#E8A477;}
	.st22{fill-rule:evenodd;clip-rule:evenodd;fill:#F1B287;}
	.st23{fill-rule:evenodd;clip-rule:evenodd;fill:#F7BE98;}
	.st24{fill-rule:evenodd;clip-rule:evenodd;fill:#9CCAE2;}
	.st25{fill-rule:evenodd;clip-rule:evenodd;fill:#ABD6ED;}
	.st26{fill-rule:evenodd;clip-rule:evenodd;fill:#94BFD6;}
	.st27{fill-rule:evenodd;clip-rule:evenodd;fill:#F4BC97;}
	.st28{fill-rule:evenodd;clip-rule:evenodd;fill:#34332F;}
	.st29{fill-rule:evenodd;clip-rule:evenodd;fill:#45443E;}
	.st30{fill-rule:evenodd;clip-rule:evenodd;fill:#292825;}
	.st31{fill-rule:evenodd;clip-rule:evenodd;fill:#4D4C46;}
	.st32{fill-rule:evenodd;clip-rule:evenodd;fill:#575650;}
	.st33{fill-rule:evenodd;clip-rule:evenodd;fill:#1F1E1C;}
	.st34{fill-rule:evenodd;clip-rule:evenodd;fill:#0D0C0C;}
	.st35{fill-rule:evenodd;clip-rule:evenodd;fill:#121110;}
	.st36{fill-rule:evenodd;clip-rule:evenodd;fill:#616059;}
</style>
<title>Mesa de trabajo 1</title>
<g>
	<circle class="st0" cx="81.2" cy="148.8" r="27.6"/>
	<circle class="st1" cx="79.7" cy="148" r="27.4"/>
	
		<radialGradient id="SVGID_1_" cx="79.704" cy="32.0019" r="24.6667" gradientTransform="matrix(1 0 0 -1 0 180)" gradientUnits="userSpaceOnUse">
		<stop  offset="0" style="stop-color:#FFFFFF"/>
		<stop  offset="0.4846" style="stop-color:#F5F5F5"/>
		<stop  offset="1" style="stop-color:#E6E6E6"/>
	</radialGradient>
	<circle class="st2" cx="79.7" cy="148" r="24.7"/>
	<circle class="st3" cx="79.7" cy="148" r="13.3"/>
	<circle class="st4" cx="79.7" cy="148" r="24.6"/>
	<path class="st5" d="M99.1,128.6l-38.7,38.7c-10.7-10.7-10.7-28,0-38.7S88.4,117.9,99.1,128.6z"/>
	<path class="st6" d="M68.3,148c0-7.1,5.5-12.8,12.5-13.2c-0.3,0-0.6,0-0.9,0c-7.3,0-13.3,5.9-13.3,13.3s5.9,13.3,13.3,13.3
		c0.3,0,0.6,0,0.9,0C73.8,160.8,68.3,155.1,68.3,148z"/>
	<g id="XMLID_219_">
		<g class="st7">
			<path id="XMLID_267_" d="M108.8,173.6l0.6,0l0.1-9.2c0-0.1,0-0.2,0.1-0.2c0.1-0.1,0.3-0.1,0.4,0l-0.1,9.4l0.6,0l0.1-9.2l0,0
				c0.1-0.2,0.4-0.1,0.4,0.1l0,9.1l0.7,0l0.1-9.1c0-0.2,0.3-0.3,0.4-0.1l0,0l0,9.2l0.6,0l-0.1-9.4c0.1-0.1,0.3-0.1,0.4,0
				c0.1,0.1,0.1,0.1,0.1,0.2l0,9.2l0.6,0l0-13.8c0-0.3-0.1-0.6-0.2-0.8l-1.2-2.5c-0.1-0.3-0.2-0.6-0.2-0.9l1-30.1
				c0-0.6-0.2-1.1-0.7-1.5l0,0c-0.7-0.6-1.7-0.6-2.4,0l0,0c-0.4,0.4-0.7,0.9-0.7,1.5l0.8,30.1c0,0.3-0.1,0.6-0.2,0.9l-1.2,2.4
				c-0.1,0.3-0.2,0.5-0.2,0.8L108.8,173.6z"/>
			<polygon id="XMLID_266_" points="110.2,145.6 110.4,152.5 112.6,151.1 112.8,144 			"/>
			<path id="XMLID_265_" d="M109.9,134.3l3.3-2.1l0.2-6.6c0-0.2,0-0.3,0-0.5l-3.7,2.3L109.9,134.3z"/>
			<polygon id="XMLID_264_" points="108.8,162.2 113.5,158.3 113.1,157.5 108.9,161.1 			"/>
			<polygon id="XMLID_263_" points="108.8,168 109.5,167.4 109.5,165.5 108.8,166 			"/>
			<path id="XMLID_262_" d="M111,164.5l0,1.6l0.8-0.7l0-1c0-0.2,0.3-0.3,0.4-0.1l0,0l0,0.6l0.5-0.5l0-0.4c0.1-0.1,0.3-0.1,0.4,0
				c0,0,0,0,0,0.1l0.7-0.6l0-1.9l-3.2,2.6C110.9,164.4,111,164.4,111,164.5z"/>
			<polygon id="XMLID_261_" points="110.6,166.5 110.6,164.6 110,165 110,167 			"/>
		</g>
		<g>
			<g>
				<path id="XMLID_253_" class="st8" d="M108.2,173l0.6,0l0.1-9.2c0-0.1,0-0.2,0.1-0.2c0.1-0.1,0.3-0.1,0.4,0l-0.1,9.4l0.6,0
					l0.1-9.2l0,0c0.1-0.2,0.4-0.1,0.4,0.1l0,9.1l0.7,0l0.1-9.1c0-0.2,0.3-0.3,0.4-0.1l0,0l0,9.2l0.6,0l-0.1-9.4
					c0.1-0.1,0.3-0.1,0.4,0c0.1,0.1,0.1,0.1,0.1,0.2l0,9.2l0.6,0l0-13.8c0-0.3-0.1-0.6-0.2-0.8l-1.2-2.5c-0.1-0.3-0.2-0.6-0.2-0.9
					l1-30.1c0-0.6-0.2-1.1-0.7-1.5l0,0c-0.7-0.6-1.7-0.6-2.4,0l0,0c-0.4,0.4-0.7,0.9-0.7,1.5l0.8,30.1c0,0.3-0.1,0.6-0.2,0.9
					l-1.2,2.4c-0.1,0.3-0.2,0.5-0.2,0.8L108.2,173z"/>
				<polygon id="XMLID_252_" class="st9" points="109.6,145 109.8,151.9 112,150.5 112.2,143.4 				"/>
				<path id="XMLID_251_" class="st9" d="M109.3,133.7l3.3-2.1l0.2-6.6c0-0.2,0-0.3,0-0.5l-3.7,2.3L109.3,133.7z"/>
				<polygon id="XMLID_246_" class="st9" points="108.2,161.6 112.9,157.7 112.5,156.9 108.2,160.4 				"/>
				<g id="XMLID_220_">
					<polygon id="XMLID_238_" class="st9" points="108.2,167.4 108.9,166.8 108.9,164.9 108.2,165.4 					"/>
					<path id="XMLID_222_" class="st9" d="M110.4,163.9l0,1.6l0.8-0.7l0-1c0-0.2,0.3-0.3,0.4-0.1l0,0l0,0.6l0.5-0.5l0-0.4
						c0.1-0.1,0.3-0.1,0.4,0c0,0,0,0,0,0.1l0.7-0.6l0-1.9l-3.2,2.6C110.3,163.8,110.4,163.8,110.4,163.9z"/>
					<polygon id="XMLID_221_" class="st9" points="110,165.9 110,164 109.4,164.4 109.4,166.4 					"/>
				</g>
			</g>
		</g>
	</g>
	<g id="XMLID_159_">
		<g class="st7">
			<path id="XMLID_218_" d="M45.8,124.4L46,173c0,0.7,0.9,0.9,1.3,0.3l0,0c1.4-2.6,2.4-5.5,2.8-8.5l0.4-2.8c0.3-2.2-0.1-4.5-1.3-6.5
				l0,0c-1-1.7-1.5-3.7-1.4-5.7l1.3-21c0.1-1.3,0-2.5-0.4-3.7l0,0c-0.3-1-1.1-1.6-2.1-1.6l0,0C46.2,123.6,45.8,124,45.8,124.4z"/>
			<polygon id="XMLID_217_" points="45.9,139.6 45.9,146.5 48.1,145.1 48.6,137.8 			"/>
			<path id="XMLID_216_" d="M46.6,123.6c-0.5,0-0.8,0.4-0.8,0.9l0,3.6l3.2-2c-0.1-0.3-0.1-0.5-0.2-0.8
				C48.5,124.2,47.6,123.6,46.6,123.6z"/>
			<path id="XMLID_195_" d="M47.8,150.3l-1.9,1.6l0,1.2l2-1.6C47.8,151.1,47.8,150.7,47.8,150.3z"/>
			<path id="XMLID_194_" d="M46,167.8l0,1.9l3.8-3.1c0.1-0.6,0.2-1.2,0.3-1.8l0.1-0.5L46,167.8z"/>
		</g>
		<g>
			<g>
				<path id="XMLID_193_" class="st8" d="M45.2,123.8l0.2,48.5c0,0.7,0.9,0.9,1.3,0.3l0,0c1.4-2.6,2.4-5.5,2.8-8.5l0.4-2.8
					c0.3-2.2-0.1-4.5-1.3-6.5l0,0c-1-1.7-1.5-3.7-1.4-5.7l1.3-21c0.1-1.3,0-2.5-0.4-3.7l0,0c-0.3-1-1.1-1.6-2.1-1.6l0,0
					C45.6,123,45.2,123.4,45.2,123.8z"/>
				<polygon id="XMLID_192_" class="st9" points="45.2,138.9 45.3,145.9 47.5,144.5 48,137.2 				"/>
				<path id="XMLID_163_" class="st9" d="M46,123c-0.5,0-0.8,0.4-0.8,0.9l0,3.6l3.2-2c-0.1-0.3-0.1-0.5-0.2-0.8
					C47.9,123.6,47,123,46,123z"/>
				<path id="XMLID_162_" class="st9" d="M47.2,149.7l-1.9,1.6l0,1.2l2-1.6C47.2,150.5,47.2,150.1,47.2,149.7z"/>
				<path id="XMLID_161_" class="st9" d="M45.3,167.2l0,1.9l3.8-3.1c0.1-0.6,0.2-1.2,0.3-1.8l0.1-0.5L45.3,167.2z"/>
			</g>
		</g>
	</g>
</g>
<g>
	<g>
		<defs>
			<rect id="SVGID_2_" width="160" height="106.4"/>
		</defs>
		<clipPath id="SVGID_3_">
			<use xlink:href="#SVGID_2_"  style="overflow:visible;"/>
		</clipPath>
		<g class="st10">
			<g>
				<path class="st11" d="M44.5,61.4c2.2-3.3,19.6-5.7,37-5.1c15.8,0.5,31.5,3.5,35.6,10.3c7,11.7,12.4,59.7-9.3,60.8
					c-22.4,1.2-38,0.7-60.4-1.1C28.4,122.4,36.2,74.1,44.5,61.4z"/>
				<path class="st12" d="M50,61.4c2.1-3.2,15.6-5.7,30.5-5.1c13.6,0.5,28.1,3.5,31.6,10.3c6,11.7,12.9,60.3-5.8,61.5
					c-19.3,1.2-40-1.5-59.3-3.3C30.8,120.8,41.3,74.1,50,61.4z"/>
				<path class="st13" d="M45.4,60.5c4.3-2.9,20.2-4.8,36-4.2c15.8,0.5,31.5,3.5,35.6,10.3c6.6,11.1,11.8,55-6.2,60.3
					c14.6-8.9,9.6-48.6,3.4-59c-4.1-6.8-19.8-9.8-35.6-10.3C65.3,57.1,51.9,58.4,45.4,60.5z"/>
				<path class="st12" d="M25.9,35.6c1-3.9,2.7-8.9,2.4-16.6C27.8,6.2,34,3.8,49.5,4.8c12.6,0.8,21.2,0,31,0
					c8.9,0,21.1,0.8,30.1,0.5c10.7-0.4,20.4,2.3,20.2,12.4c-0.1,4.4-1.7,12.5,0.1,17.5c8.3,23.3-37.6,35.3-56.4,33.5
					C57.6,68.8,20.2,58.3,25.9,35.6z"/>
				<path class="st11" d="M110.2,5.3l0.3,0c10.7-0.4,20.4,2.3,20.2,12.4c-0.1,4.4-1.7,12.5,0.1,17.5c8,22.5-34.6,34.5-54.4,33.7
					c21-0.8,57.8-12.6,50.3-33.7c-1.8-5-0.2-13.1-0.1-17.5C126.8,8.9,119.3,5.7,110.2,5.3z"/>
				<g>
					<g>
						<path class="st14" d="M26.8,128.7h-3.3c-3.5,0-6.3-2.8-6.3-6.3l0-62.5c0-3.5,2.8-6.3,6.3-6.3h3.3c3.5,0,6.3,2.8,6.3,6.3
							l0,62.5C33.1,125.8,30.2,128.7,26.8,128.7z"/>
						<path class="st15" d="M26.3,128.7H24c-2.4,0-4.3-1.9-4.3-4.3l0-66.5c0-2.4,1.9-4.3,4.3-4.3h2.2c2.4,0,4.3,1.9,4.3,4.3l0,66.5
							C30.6,126.7,28.6,128.7,26.3,128.7z"/>
						<path class="st16" d="M27.1,127.1h-2.2c-1.3,0-2.4-0.5-3.2-1.4c0.6,0.3,1.2,0.4,1.9,0.4h2.2c2.4,0,4.3-1.9,4.3-4.2V57.7
							c0-1.1-0.4-2.1-1.1-2.8c1.4,0.7,2.4,2.1,2.4,3.7v64.3C31.4,125.2,29.5,127.1,27.1,127.1z"/>
					</g>
					<g>
						<path class="st14" d="M133.6,128.7h-3.3c-3.5,0-6.3-2.8-6.3-6.3V59.9c0-3.5,2.8-6.3,6.3-6.3h3.3c3.5,0,6.3,2.8,6.3,6.3v62.5
							C139.9,125.8,137.1,128.7,133.6,128.7z"/>
						<path class="st15" d="M133.1,128.7h-2.2c-2.4,0-4.3-1.9-4.3-4.3l0-66.5c0-2.4,1.9-4.3,4.3-4.3h2.2c2.4,0,4.3,1.9,4.3,4.3
							l0,66.5C137.4,126.7,135.4,128.7,133.1,128.7z"/>
						<path class="st16" d="M133.9,127.1h-2.2c-1.3,0-2.4-0.5-3.2-1.4c0.6,0.3,1.2,0.4,1.9,0.4h2.2c2.4,0,4.3-1.9,4.3-4.2V57.6
							c0-1.1-0.4-2.1-1.1-2.8c1.4,0.7,2.4,2.1,2.4,3.7v64.4C138.2,125.2,136.3,127.1,133.9,127.1z"/>
					</g>
				</g>
				<path class="st11" d="M28.5,23.5c-3.1-16,3.3-22.6,18.8-21.4c12.6,1,23.5,1.7,33.2,1.7c8.9,0,21.9-1.3,30.9-1.7
					c15.6-0.7,21.7,3,19.3,20.2c-1.5,10.9-26.7-4.8-53.6-4C52.2,19.1,29.4,28.3,28.5,23.5z"/>
				<path class="st13" d="M80.5,3.9c8.9,0,21.9-1.3,30.9-1.7c15.6-0.7,21.7,3,19.3,20.2c-0.4,2.6-2.1,3.7-4.8,3.9l0,0
					c1.2-8.8,0.2-14.1-3.2-17C116.7,4,95.5,7.5,80.5,3.9z"/>
				<path class="st12" d="M78.4,3.9c-8.9,0-21.9-1.3-30.9-1.7c-15.6-0.7-21.7,3-19.3,20.2c0.4,2.6,2,3.7,4.8,3.9l0,0
					c-1.2-8.8-0.2-14.1,3.2-17C42.2,4,63.4,7.5,78.4,3.9z"/>
			</g>
			<g>
				<g>
					<path class="st17" d="M53,72.7l26.3,10.2c15.4-4.5,16.5-6.3,22-4c10.8,4.6,11.7,21.2,15.1,36.8c3.5,16,9.2,26.6,5.5,37.4
						c-6.6,19.2-16.1,11.6-19.9,3.6c-3.5-7.3-8.1-22.8-13-34.8c-2.6-6.5-3-12.5-6.8-14.3c-3.4-1.6-5.6-1.2-6.8,0.3
						c-0.4,0.5-1.9,8-3.7,17.2c-5,25.7-7.3,34.8-12.8,37.4c-8.8,4.1-12.7,1.1-15.7-3.9c-5-8.2,1.5-48,5.3-71.8
						C49.8,78,48,76.1,53,72.7z"/>
					<path class="st18" d="M53,72.7l26.3,10.2c15.4-4.5,16.5-6.3,22-4c10.8,4.6,11.7,21.2,15.1,36.8c3.5,16,9.2,26.6,5.5,37.4
						c-6.6,19.2-16.1,11.6-19.9,3.6c-3.5-7.3-8.1-22.8-13-34.8c-2.6-6.5-3-12.5-6.8-14.3c-3.4-1.6-5.6-1.2-6.8,0.3
						c-0.4,0.5-1.9,8-3.7,17.2c-5,25.7-7.3,34.8-12.8,37.4c-8.8,4.1-12.7,1.1-15.7-3.9c-5-8.2,1.5-48,5.3-71.8
						C49.8,78,48,76.1,53,72.7z"/>
					<path class="st19" d="M93.9,78.4c3-0.8,4.6-0.7,7.4,0.5c10.8,4.6,11.7,21.2,15.1,36.8c3.5,16,9.2,26.6,5.5,37.4
						c-3.7,10.7-8.3,13.1-12.3,11.7c2.6-1.3,5.2-4.8,7.4-11.3c1.6-4.6-1.7-21.8-5.3-37.2c-3.3-13.8-6.8-26.2-9-26.7
						c-8.2-2-31.2,2.8-49.5-4.4C52.3,84.7,94.7,78.5,93.9,78.4L93.9,78.4z M82.8,107.5c-1.8-3-5.6-3.3-8.5-2.2
						c-6.1,2.3-6.4,14.4-7.5,20.1c-5,25.7-7.3,34.8-12.8,37.4c-1.4,0.7-2.7,1.2-3.9,1.5c2.3,0.4,5.1-0.1,8.8-1.8
						c5.5-2.6,7.8-11.7,12.8-37.4c1.8-9.3,3.3-16.7,3.7-17.2C75.5,107.7,77.9,105.4,82.8,107.5z"/>
					<path class="st20" d="M53,72.7l4.5,1.9c-5,3.4-3.3,5.3-4.7,14.2c-3.7,23.8-10.3,63.6-5.3,71.8c0.9,1.5,1.9,2.8,3.1,3.8
						c-3.5-0.4-5.8-2.7-7.6-5.8c-5-8.2,1.5-48,5.3-71.8C49.8,78,48,76.1,53,72.7z"/>
				</g>
			</g>
		</g>
	</g>
	<g>
		<g>
			<g>
				<path class="st21" d="M45.4,170.5l0.4-0.3l-0.1-1.7l-0.7-2.8l-0.1-1.3l-0.2,1.5c0,0,0.1,1.9,0.1,2
					C44.9,168.1,45.4,170.5,45.4,170.5z"/>
				<path class="st22" d="M45.9,128.7c1.1,2.6,2.4,6.6,3.8,8.6c1.7,2.5,2.6,3.1,3.9,5.5c1,1.7,1.3,3.4,1.9,5.5l0.6,4
					c0.4,1.9,0.2,1.6-0.2,3.6l-0.9,4.6l-0.7-0.1l0.3,3.4c0.2,3.6-1,4.1-1.7,4c-0.6,0-1.3,0.1-1.7-1.8c-0.3-1.4-0.3-3.4-0.6-4.9
					c-0.6-3.2-0.3-4-1.4-6.6c-0.6-1.4-1.6-0.7-1.5,0.6c0.1,1.2,0.4,2.2,0.5,3.6c0.1,1.3,0.3,3.2,0.3,4.4c0.1,1.5,0.5,4.1,0.4,5.4
					c-0.1,1.4-0.3,2.6-1.6,2.4c-0.7-0.1-1.6-0.7-1.9-2.1c-0.5-2.2-0.5-4.5-0.8-6.8c-0.3-2.6-0.5-4-0.5-6.7c0-0.6-0.2-0.9-0.3-0.3
					c-0.1,3,0,4.6,0.5,7.7c0.3,2.1,0.7,4,1,6.1c0.2,1.2,0.6,1.3,0.3,1.5c-2.7,2.2-2.7-2.1-3.6-3.7c-0.8-1.9-3.2-5.2-3.3-6.9
					l-0.4-6.6c-0.3-2-0.8-4.4-0.7-6.4c0.1-2.2,0.6-4.1,0.5-6.1c-0.3-3.3-1.6-6.2-2.9-10.4L45.9,128.7z"/>
				<path class="st21" d="M48.3,153.9c-0.3,0.1-0.6,0.7-0.6,1.4c0.1,1.2,0.4,2,0.5,3.3c0.1,1.3,0.3,3.2,0.4,4.4
					c0.1,1.5,0.4,4.4,0.3,5.7c-0.1,1.2-0.1,2.5-1.4,2.4c0.9-1.8,0.3-6.1,0-9.7C47.3,158.5,46.1,153.2,48.3,153.9L48.3,153.9
					L48.3,153.9z M44,154.8c-0.1,0-0.1,0.1-0.1,0.3c-0.1,3,0,4.6,0.5,7.7c0.3,2.1,0.7,4,1,6.1c0.1,0.6,0.3,0.9,0.3,1.1l0,0.2
					c0,0.1,0,0.1-0.1,0.2c-0.6,0.7-1.1,0.7-1.6,0.4c0.3,0,0.4-0.3,0.4-0.5c0.2-2.8-1.2-6.5-1.7-9.2c0.2-1.9,0.4-4.7,0.6-6
					C43.5,154.2,43.9,154.2,44,154.8z"/>
				<path class="st21" d="M45.9,128.7c1.1,2.6,2.4,6.6,3.8,8.6c1.7,2.5,2.5,2.9,3.8,5.2c1,1.8,1.3,3.4,1.9,5.5l0.6,4.3
					c0.4,1.9,0.2,1.6-0.2,3.6l-0.9,4.6l-0.7-0.1l0.3,3.4c0.1,1.9-0.2,3.1-0.7,3.7c0.2-2.6,0.1-4.8,0-7.1c-0.1-1.7,0-3-0.3-4.4
					c-0.4-2.1-1.2-4.2-1.2-6.3c0-0.9,0.2-1.7,0.5-2.6c-0.1,4.5,1.4,7,1.7,10.9c0.4-2.8,0.4-3.6,0.4-4.7c0-1.2-0.4-4.8-0.9-6.4
					c-1.7-5.2-3.7-4.6-6.4-8.9c-1.7-2.7-3.1-6.2-4.1-9.2L45.9,128.7z"/>
				<path class="st21" d="M41.5,164.9l-1-3.7c0-2.1,0.1-4.8,0-6.7c0-0.6-0.5-0.6-0.5,0.1c-0.2,2.6-0.1,4,0.2,6.9L41.5,164.9z"/>
				<path class="st23" d="M53.7,167.1c0.1-0.6,0-1.7-0.1-2.1c-0.4-0.3-1.5-0.1-1.6,0.1c-0.2,0.2-0.1,0.6-0.1,1.1
					c0.1,0.5,0.1,1,0.3,1.2C52.2,167.5,53.3,167.6,53.7,167.1z"/>
				<path class="st23" d="M48.2,170.2c0.1-0.6,0-1.7-0.2-2.1c-0.4-0.3-1.7-0.1-1.9,0.1c-0.2,0.2-0.2,0.6-0.1,1.1
					c0.1,0.5,0.1,1,0.4,1.2C46.6,170.6,47.8,170.7,48.2,170.2z"/>
				<path class="st23" d="M44.8,170.4c0-0.6-0.2-1.7-0.3-2.1c-0.3-0.3-1.1-0.1-1.2,0.1c-0.1,0.2,0,0.6,0,1.1c0.1,0.5,0.2,1,0.4,1.2
					C43.8,170.7,44.6,170.9,44.8,170.4z"/>
				<path class="st23" d="M54,159.8c0-0.6,0.1-1.7,0.2-2.1c0.2-0.3,0.9-0.1,0.9,0.1c0.1,0.2,0,0.6,0,1.1c-0.1,0.5-0.1,1-0.3,1.2
					C54.8,160.2,54.2,160.3,54,159.8z"/>
			</g>
			<path class="st24" d="M36.5,138.1C34.4,127.2,22.9,99.2,24,91.5c3,0,15.3-5,18.1,1.5c3.3,9.2,1.9,31,6.9,42.6l-0.1,0
				c-3.4,0-7.7,0.8-11.5,2.7L36.5,138.1z"/>
			<path class="st25" d="M38.5,137.8c-0.1-0.4-0.2-0.8-0.3-1.3c0.5-0.1-8.6-32.2-9.8-42.6c-2,0-2.7-0.4-4.4-0.7l0,0
				c0.4,8.2,7.8,28.1,11.3,39.9c0.5,1.8,1,3.8,1.4,5.6C37.2,138.4,37.9,138.1,38.5,137.8z"/>
			<path class="st26" d="M41.9,92.6c3.3,8.8,2.6,31.3,7,43l-0.4,0l-1-0.3c-4.9-11.6-5.7-33.2-9-42.4C39.8,92.8,40.8,92.8,41.9,92.6z
				"/>
			<g>
				<g>
					<path class="st21" d="M86.6,151.6c0-0.2-0.3-0.4-0.5-0.4c-0.8,0.1-2.8,1.8-3,1.9c0.4,0.1,0.7,0.4,1.1,0.4
						c0.5-0.1,1.2-0.4,1.6-0.7C86.3,152.4,86.6,151.9,86.6,151.6z"/>
					<path class="st21" d="M82.7,147.9c0-0.3-0.3-0.5-0.5-0.4c-0.8,0.2-2.7,2.2-2.9,2.4c0.4,0.1,0.7,0.4,1.1,0.3
						c0.5-0.1,1.2-0.5,1.6-0.9C82.4,148.9,82.7,148.3,82.7,147.9z"/>
					<path class="st22" d="M109.5,132.1c-3.7,6-2.7,6.7-5.3,12.6c-0.8,1.8-2,3.4-3.4,5.6c-1.1,1.6-2.5,3.7-3.6,4.8
						c-0.9,0.9-2.1,1.2-3,0.1c-0.8,0.8-1.8,2.6-2.8,2.6c-0.8,0-2-0.5-2.6-1.5c-0.8,0.8-1.3,1.1-1.8,1.2c-0.8,0.1-2.6-0.9-3.4-1.3
						c-1.5-0.8-1-2-0.6-3.4c-0.8,0.2-2.1,0.3-3-0.2c-0.7-0.4-1.3-1.4-0.7-2.7c1.6-0.7,2.6-1,4.1-2.3c-1.3,0.4-1.8,0.7-3.4-0.8
						c1.1-1.2,2-2.6,2.9-4.2c1.8-3.1,1.9-4.9,3.5-6.4c5.6-5.5,10.7-2.9,13.8-10.5L109.5,132.1L109.5,132.1z M83.5,152.9
						c0.8,0.1,1.5,0,2.1-0.5c1.3-0.9,2.7-2.7,4.1-4.2c-1.3,0.7-3.2,2.7-4.2,3.3C84,152.4,83.5,152.9,83.5,152.9z"/>
					<path class="st22" d="M109.5,132.1c-3.7,6-2.7,6.7-5.3,12.6c-0.8,1.8-2,3.4-3.4,5.6c-1.1,1.6-2.5,3.7-3.6,4.8
						c-0.9,0.9-2.1,1.2-3,0.1c-0.8,0.8-1.8,2.6-2.8,2.6c-0.8,0-2-0.5-2.6-1.5c-0.8,0.8-1.3,1.1-1.8,1.2c-0.8,0.1-2.6-0.9-3.4-1.3
						c-1.5-0.8-1-2-0.6-3.4c-0.8,0.2-2.1,0.3-3-0.2c-0.7-0.4-1.3-1.4-0.7-2.7c1.6-0.7,2.6-1,4.1-2.3c-1.3,0.4-1.8,0.7-3.4-0.8
						c1.1-1.2,2-2.6,2.9-4.2c1.8-3.1,1.9-4.9,3.5-6.4c5.6-5.5,10.7-2.9,13.8-10.5L109.5,132.1L109.5,132.1z M83.5,152.9
						c0.8,0.1,1.5,0,2.1-0.5c1.3-0.9,2.7-2.7,4.1-4.2c-1.3,0.7-3.2,2.7-4.2,3.3C84,152.4,83.5,152.9,83.5,152.9z"/>
					<path class="st21" d="M107.6,135.6c-1.5,3.1-1.3,4.6-3.3,9.1c-0.8,1.8-2,3.4-3.4,5.6c-1,1.5-4.4,7.6-6.6,4.9
						c0.3-0.2,1.6,1.1,3-0.7c1.4-1.7,4.5-6.4,6.1-10c2.6-5.9,0.1-6.4,3.9-12.4c0,0,0.2-0.5,0.6-1.3l1.5,1.7
						C108.6,133.5,108,134.6,107.6,135.6z"/>
					<path class="st21" d="M96.1,155.8c-0.7,0.3-1.4,0.2-2-0.5c-0.4,0.4-0.8,0.9-1.2,1.4c0.7-1.2,0.9-2.1,1.8-3.2
						c0.2-0.2,1.7-2,1.7-2c0.5-0.2-0.3,0.8-0.9,1.7c-0.5,0.7-0.9,1.3-0.9,1.5c-0.1,0.6,0.5,1,0.8,1.1
						C95.7,155.7,95.9,155.8,96.1,155.8L96.1,155.8z M89.1,156.8c0-0.1,0-0.1,0.1-0.2c0.8-1.8,2.3-3.5,3.3-4.6
						c0.6-0.7,1.2-1.2,1.1-1.4c-0.1-0.2-0.9,0.5-1.7,1.3c-1.3,1.4-2.9,3.5-3.6,4.7c0,0-0.1,0.2-0.2,0.5c0.2-0.2,0.5-0.4,0.8-0.7
						C88.9,156.5,89,156.7,89.1,156.8L89.1,156.8z M82.9,153.5l0.2-0.6l-0.1,0l0,0c0.7-0.3,1.2-0.8,2.2-1.1l-1.7,1.2
						c0.9-0.1,1.4,0,2-0.3c1-0.6,1.6-1.8,2.4-2.6c0.6-0.6,2-2,2.5-1.9c0.1,0-1.3,1.4-2.1,2.4c-1,1.2-2,2.8-2.8,3.1
						c-0.4,0.2-0.7-0.1-1.1-0.1c-0.3,0-0.7,0.3-1,0.2C83.2,153.7,83,153.6,82.9,153.5L82.9,153.5z M83.4,147.7
						c2.3-1.2,2.8-3,4.2-6.4c0.3-0.8,0.1-1.8-0.4-0.5c-0.8,1.8-2,4.9-3.7,6c-0.7,0.4-1.8,0.5-2.6-0.1c0.1-0.1,1.3-1.3,3-4.2
						c1.9-3,3.3-4.8,4.8-6.1c3.2-2.9,8.5-2.8,11.7-9.6l-0.7-0.8c-4.1,6.9-7.5,4.6-13.1,10.1c-1.5,1.5-1.6,3.2-3.5,6.4
						c-0.9,1.5-1.9,3-2.9,4.2c1.5,1.5,2.1,1.2,3.4,0.8L83.4,147.7z"/>
					<path class="st27" d="M80.5,147.1c-0.1-0.1-0.2-0.2-0.3-0.3c1.1-1.2,2-2.6,2.9-4.2c1.8-3.1,1.9-4.9,3.5-6.4
						c5.6-5.5,8.9-3.2,13-10.1l0.8,0.8c-3.2,6.8-8.5,6.7-11.7,9.6c-1.5,1.3-2.9,3.1-4.8,6.1c-1.7,2.8-2.9,4.1-3,4.2l0,0L80.5,147.1z
						"/>
				</g>
				<path class="st24" d="M108.6,134.5c5.3-9.7,24.6-33,25.9-40.7c-2.8-0.9-13.1-9.4-17.7-4c-5.9,7.8-11.1,29-19.3,38.6l0.1,0.1
					c3.2,1.1,7.1,3.1,10.2,6.1L108.6,134.5z"/>
				<path class="st26" d="M106.8,133.6c0.2-0.4,0.4-0.7,0.7-1.1c-0.4-0.3,16.8-28.8,21.1-38.3c1.9,0.6,3.8,1.1,5.5,1.3l0,0
					c-2.8,7.7-15.9,24.5-22.7,34.6c-1,1.6-2.1,3.3-3,5C107.8,134.6,107.3,134.1,106.8,133.6z"/>
				<path class="st25" d="M117.1,89.5c-5.8,7.4-11.9,29.1-19.6,38.9l0.4,0.1l1.1,0c8.2-9.6,15.4-30,21.3-37.7
					C119.1,90.4,118.1,90,117.1,89.5z"/>
			</g>
			<path class="st24" d="M33.3,53.7c-8.9,5.3-9.7,26.1-9.2,42.1c2.1,0.8,10.2-1.3,17.5-3.5c2.4-9.4,3.5-21,2-28.4L33.3,53.7z"/>
			<path class="st25" d="M33.3,53.7c-8.9,5.3-9.7,26.1-9.2,42.1c0.8,0.3,2.3,0.2,4.4-0.1c-1.8-15.6-2.6-35.4,5.5-41.2L33.3,53.7z"/>
			<path class="st26" d="M33.3,53.7c-1.2,0.7-2.3,1.7-3.2,3l7.1,6.6c-1.9,13.7,3.6,20.6,1.2,30l3.3-0.9c2.4-9.4,3.5-21,2-28.4
				L33.3,53.7z"/>
			<path class="st24" d="M128.2,56.6c8.9,5.3,9.4,22.4,6,39.2c-5.4-0.5-13.7-4.2-16.9-5.7c-0.8-7,0.9-15.8,2.4-23.2L128.2,56.6z"/>
			<path class="st26" d="M130,58c7.2,6.4,7.3,22.3,4.2,37.9c-1.7-0.2-3.7-0.7-5.6-1.3l0.1-0.1C132.1,83.4,132.7,69.7,130,58z"/>
			<path class="st24" d="M114.1,88.1c-25.3,4.5-42.6,5.6-69.4-2.9c-14.4-4.6-14.6-13.3-14.6-24.9C30.2,50,56.7,45,82.5,45.3
				c24.6,0.2,48.3,5.5,48.1,15.3C130.4,69.7,131.6,85.1,114.1,88.1z"/>
			<path class="st25" d="M61.3,89c-10.1-1.4-19.7-7.2-24.7-8.2C41.4,86.7,55.8,89,61.3,89z"/>
			<path class="st25" d="M77.7,44.8c-20.8,0.2-41.2,3.8-47,10.9c-2.8,3.4-2.9,14.6,2.6,22c-4.8-9.4-3.4-17.3,0.6-20.3
				c5.5-4.2,20-5.1,34.8-5.6L77.7,44.8z"/>
			<path class="st26" d="M98,90.2c6.9-2.3,19.4-3.3,26.6-7.1C118.1,89.4,107.7,88.7,98,90.2z"/>
			<path class="st26" d="M82.5,45.3c20.8,0.2,41.2,3.8,47,10.9c2.8,3.4,3.2,15.2-2.3,22.6c4.8-9.4,3-17.9-0.9-20.9
				c-5.5-4.2-20-5.1-34.8-5.6L82.5,45.3z"/>
			<path class="st23" d="M80.6,146.6c0.2-0.5,0.9-1.5,1.1-1.8c0.4-0.1,1.3,0.6,1.3,0.8c0.1,0.3-0.2,0.6-0.4,1
				c-0.3,0.4-0.6,0.8-0.9,0.9C81.6,147.6,80.6,147.2,80.6,146.6z"/>
			<g>
				<path class="st22" d="M81.8,95.2c0.1-0.1,0.7-0.9,1.4-1.7c2.5-2.7,2.4-1.8,2-5.8L81,86.3l0-0.3l-0.4,0.1L80.3,86l0,0.3l-4.2,1.5
					c-0.3,4-0.5,3.1,2,5.8c0.7,0.8,1.3,1.6,1.4,1.7C79.9,95.4,81.4,95.5,81.8,95.2z"/>
				<g>
					<path class="st21" d="M81,95.4c0.5,0,0.8-0.1,1-0.5c0.3-0.6,0.2-1.3,0.1-2c-0.2-2,0.9-4.5,1.7-6.3l-1.9,0
						c-0.4,2.7-0.8,3.5-0.7,6.4C81.2,93.9,81.2,94.9,81,95.4z"/>
					<path class="st27" d="M80.3,95.4c-0.5,0-0.8-0.1-1-0.5c-0.3-0.6-0.2-1.3-0.1-2c0.2-2-0.9-4.5-1.7-6.3l1.9,0
						c0.4,2.7,0.8,3.5,0.7,6.4C80.1,93.9,80.1,94.9,80.3,95.4z"/>
				</g>
				<path class="st21" d="M85.4,89.8c0-0.4-0.1-1.5-0.2-2.1L81,86.3l0-0.3l-0.4,0.1L80.3,86l0,0.3l-4.2,1.5c0,0.6-0.1,1.6-0.1,2
					c1.1-0.2,1.9-0.8,4.4-0.9C82.9,88.9,83.3,89.5,85.4,89.8z"/>
				<g>
					<path class="st21" d="M101.7,62.3c1.6-1.4,1.5-3,2.1-4.5c0.5-1.3,1.5-2.9,1.5-4.6c0.1-2.9-3-4.6-3.8-0.9
						C100.4,57.1,99.9,58,101.7,62.3z"/>
					<path class="st22" d="M59.6,62.3c-1.6-1.4-1.5-3-2.1-4.5c-0.5-1.3-1.5-2.9-1.5-4.6c-0.1-2.9,3-4.6,3.8-0.9
						C60.9,57.1,61.4,58,59.6,62.3z"/>
				</g>
				<path class="st22" d="M87.2,88c3.7-0.5,5.9-1.7,7.8-4.3c4.5-6.1,6.7-16.4,7.2-24.6c0.5-7.7-1.6-20-7.1-25.9
					c-3-3.3-9.6-4.7-14.5-4.1c-4.9-0.6-11.5,0.8-14.5,4.1c-5.4,5.9-7.6,18.2-7.1,25.9c0.5,8.2,2.7,18.4,7.2,24.6
					c2,2.7,4.3,3.9,8.4,4.4C78.8,88.6,83.1,88.6,87.2,88z"/>
				<path class="st27" d="M80,29c-4.8-0.4-11,1-13.9,4.2c-5.4,5.9-7.6,18.2-7.1,25.9c0.5,8.2,2.7,18.4,7.2,24.6
					c2,2.7,4.3,3.9,8.4,4.4c3.6,0.4,7.4,0.5,11,0.1c-1.9,0-3.8-0.1-5.7-0.4c-4.1-0.5-6.4-1.7-8.4-4.4C67.1,77.3,65,67,64.4,58.9
					c-0.5-7.7,1.6-20,7.1-25.9C73.4,30.9,76.6,29.6,80,29z"/>
				<path class="st21" d="M87.2,88c3.7-0.5,5.9-1.7,7.8-4.3c4.5-6.1,6.7-16.4,7.2-24.6c0.5-7.7-1.6-20-7.1-25.9
					c-3-3.3-9.6-4.7-14.5-4.1c-2-0.2-4.2-0.2-6.4,0.3l0,0c4.9-0.6,11.5,0.8,14.5,4.1c5.4,5.9,7.6,18.2,7.1,25.9
					c-0.5,8.2-2.7,18.4-7.2,24.6c-1.9,2.6-4.1,3.7-7.8,4.3c-0.5,0.1-0.9,0.1-1.4,0.2C82.1,88.5,84.7,88.4,87.2,88z"/>
				<path class="st21" d="M87.2,88c2.2-0.3,3.9-0.9,5.3-1.8c-8.1,1.5-19.4,1.6-25.4-1.4c1.8,2,4,2.9,7.6,3.3
					C78.8,88.6,83.1,88.6,87.2,88L87.2,88z M61,71.7c0.4,1.6,0.9,3.1,1.4,4.6L61,71.7z"/>
				<path class="st28" d="M99.8,73.9c1.5-4.8,2.3-10.1,2.6-14.7c0.5-7.8-1.6-20.2-7.1-26.1c-3.1-3.3-9.7-4.8-14.7-4.2
					C75.7,28.3,69,29.7,66,33c-5.5,6-7.6,18.4-7.1,26.1c0.3,4.8,1.2,10.3,2.8,15.3c3.2,2.4,4.9,6.1,8.8,9.1l-0.9-2.4
					c4.4,3.6,4.2,3.8,9.8,4.8l-3.6-2.1c5.2,1.1,8.5,1.6,13.8,2.1L87.3,85c2.1,0,4.1,0,6.2,0c-0.6-3.7-0.9-4-2.4-7.5l3.6,1.7
					c-1.8-1.7-3.2-3.2-4.9-5C97.1,76.2,97.3,74.1,99.8,73.9z"/>
				<g>
					<path class="st28" d="M91.6,85.5c2.4-1.6,3.9-3.2,6-5.4c-0.1,3.4-5.7,7.1-7.3,7.9c-1.3,0.6-2-0.3-2-0.7
						C88.3,87.1,91.2,85.8,91.6,85.5z"/>
					<path class="st28" d="M70,85.5c-2.4-1.6-3.9-3.2-6-5.4c0.1,3.4,5.7,7.1,7.3,7.9c1.3,0.6,2-0.3,2-0.7
						C73.3,87.1,70.4,85.8,70,85.5z"/>
				</g>
				<path class="st29" d="M91.7,62.3c-1.8-5.3-2.6-8.3-4.7-12c2.4,9.9,3.5,12,4.5,22.6l-2.9-6.7c-2.4,8.9-0.2,12,3.9,18.3
					c-8.9-1.3-22.1-0.7-21.8-17.8l-1.5,6.3c-1.1-8.3-1.4-12.9,3.4-20.2l-5.3,4.2c2.8-14.6,8.6-13.6,12.8-21.4
					C84.3,40.9,90.2,44.7,91.7,62.3z"/>
				<path class="st30" d="M97.2,72.4c3.3-6,7.3-10.7,0.7-25.4l3.2,4.3c-1.8-10.4-11.9-14.4-20.4-15.7c6.6,7,8.9,10,10.4,19l0.3-4.9
					c1.9,9.4,1.6,17.7,0.9,24.2c6-5.7,5.8-13.8,5.4-16.9C99.2,63.1,99,66.7,97.2,72.4z"/>
				<path class="st31" d="M74.7,79.4c-0.8-5.8-0.6-15.4,0.5-23.7c1.1-8.2,3.2-15,4.6-17.8c-7.6,4.4-10.2,12.7-10.8,16.2
					c2.4-1.6,3-3.9,5.1-5C71.5,54.9,71,61,69.7,67.7c1.6-4.5,0.8-5.7,3.3-9.7C72,65.8,73.5,71.6,74.7,79.4z"/>
				<path class="st31" d="M90.3,83.5c-3.1-3.1-4.5-5.2-6-13.6c0,0,2.1,2.5,2.4,3.1c0.6-9.2-0.4-12.6-6.3-19.1
					c-1,2.7-2.6,6.3-3.4,8.9c-2.4,7.2-4.6,14.4,4.6,19c-2.5-2.9-3-6-2.3-10.1C79.9,77.8,81.9,82.8,90.3,83.5z"/>
				<path class="st29" d="M62.1,73.7c-1.7-6.6-4.5-14.6,1-29.1l-2.5,4.1c2-13,11.2-14.2,19.6-15.4c-8,6.2-12.6,14.5-13.9,24.8
					c-0.4,3.5,1.2,1,2.6-0.3c-2.5,9.6-2.1,19.4,0.3,24.2c-4.5-5.3-5.4-5.7-5.6-13.9C62.8,69.4,62.3,70.5,62.1,73.7z"/>
				<path class="st32" d="M87,82.2c-4.4-3.1-7.2-6.2-7.6-13.1c-1.7,3-2,4-1.4,8.7c-4.2-8.1,2.2-19.6,2.7-21.8
					c0.5,1.6,3.3,4.1,3.4,16.1c-1.3-3.8-1.6-4.9-2.1-5.3C82.1,72,83.3,77.4,87,82.2z"/>
				<path class="st31" d="M91.1,71.9c-2.6-18.4-5.6-25.3-11-34.1c-0.5,7.4-4,16.5-4.5,25.5c1.3-4.2,4.5-11.2,4.7-14.3
					c2.4,4.7,6.8,9.1,7.4,20.2c0.8-4.9,0.2-5.8-0.5-9.6L91.1,71.9z"/>
				<path class="st30" d="M100.8,46.9C96.4,37.1,83.5,35.5,80.1,35c2.5-6.8,9.5-5.1,13-1.7c-2.8-1.2-3.3-1.2-5.7-1.3
					C93.6,33.2,98.3,37.1,100.8,46.9z"/>
				<path class="st33" d="M98.9,62.4c-0.9-6-1.1-13.7-6.2-20.2c2.3,1.3,2.7,0.5,5,2c-5.1-6.6-12.6-8.3-16.9-8.7
					c6,2.8,9.3,8.7,12,17.9l-1.6-8.1C93.8,48.9,96.1,53.8,98.9,62.4z"/>
				<g>
					<path class="st34" d="M99.2,48c-3.2-7.2-8.4-10.5-14-11.4C90.4,39,94.1,41.3,99.2,48z"/>
					<path class="st34" d="M93.9,61.8c1.1-8-1.3-14.6-5.4-19.5C91.5,48.2,93.3,52.8,93.9,61.8z"/>
					<path class="st34" d="M100,44c-3.2-7.2-8.4-10.5-14-11.4C91.2,35,95,37.3,100,44z"/>
				</g>
				<g>
					<path class="st35" d="M100.8,71.6c1.5-10.5,0.4-17.8-4.1-24.3C98.2,55.7,99.6,61.2,100.8,71.6z"/>
					<path class="st35" d="M92.2,74c2.2-8.3,4.5-13,0.4-21.5C94,61.3,93,64.9,92.2,74z"/>
					<path class="st35" d="M93.5,74.4C99.9,70,99,64.2,98,57.8C97.2,65.2,97.2,70.6,93.5,74.4z"/>
					<path class="st35" d="M94.4,46.2c-3.1-7.2-7.9-9.5-13.5-10.5C86.1,38.2,89.3,40.9,94.4,46.2z"/>
					<path class="st35" d="M90.7,31.7c-5.4-2.7-8.7-2.3-10.1,2.5C82.5,30.8,87.5,31.1,90.7,31.7z"/>
				</g>
				<path class="st31" d="M61.9,73c-0.3-6.9-0.2-9.8,2.7-18.8l-0.7,8.2c3.4-17.9,6.3-21.5,13.9-28c-6.2,1.3-11.9,4.6-15.5,10.6
					l2.8-1.9c-2.1,2.5-2.2,4.6-4.2,11.4l2.2-2.2C60.5,59.4,60.4,63.4,61.9,73z"/>
				<path class="st29" d="M80.7,33.1c-7.4-0.5-14.1,2.4-17.1,6.3c3.8-7.9,10.7-9.3,14.7-8.2l-2.2-1.3C78,29.1,80.8,31.1,80.7,33.1z"
					/>
				<path class="st29" d="M86.3,84.9C77,82,74.8,81.8,71.5,72c-0.9,6.4-1,9.7,4,13c-1.2-1.4-2.4-3.5-2.5-5.2
					C75.5,82.7,78.8,84.5,86.3,84.9z"/>
				<g>
					<path class="st29" d="M93.2,74.6c5.4-10.3,5.8-13.2,3.4-22.6C97,63.4,97.5,64.5,93.2,74.6z"/>
					<path class="st29" d="M95.7,63.1c0.6-5.2,1.4-9.2-4-16.5C94.6,51.8,94.5,56.3,95.7,63.1z"/>
					<path class="st29" d="M94.5,38.6c-3.5-3.1-6.5-6.3-14.3-3.9C85.3,34.9,90.2,36.3,94.5,38.6z"/>
				</g>
				<g>
					<path class="st32" d="M69.6,71.5c-0.7-12.5,0.4-13.9,5-19.3C71.7,59.1,70.2,63.7,69.6,71.5z"/>
					<path class="st32" d="M84.1,60.5c-0.3,4.3,1.8,7.5,1.9,14.3C87.6,67.7,84.8,64.9,84.1,60.5z"/>
					<path class="st32" d="M79.9,36.5c0.3,5-4.1,5.9-8,12.1C72.6,43.1,77.3,39.6,79.9,36.5z"/>
					<path class="st32" d="M73.5,77.9c1.3,4.5,4.3,6.1,10.1,6.6C77.1,82.8,75.9,81,73.5,77.9z"/>
					<path class="st32" d="M85.1,73.7c1.3,2.9,2.6,6.8,5.6,9.7C87,81,85.1,77.7,85.1,73.7z"/>
					<path class="st32" d="M71.7,66.5c3.1,3.6,1.7,9.7,7.1,14.8C72.7,77.7,71.3,74.8,71.7,66.5z"/>
					<path class="st32" d="M89.7,57.3c-1.1-12.5-2.4-13.6-7.6-17.9C85.7,45.5,87.9,49.7,89.7,57.3z"/>
					<path class="st32" d="M90.4,69.2c-1.1-12.5-4.9-20.7-8.8-27.9C84.2,48.2,88.6,61.7,90.4,69.2z"/>
					<path class="st32" d="M77.7,57.2c0-7.7,1-11.6,2.9-18.6C79.7,44.8,80.6,48.1,77.7,57.2z"/>
					<path class="st32" d="M86.5,60.6C83,50,80.5,49.4,80.6,41.7C82.6,48.9,85,50.9,86.5,60.6z"/>
					<path class="st32" d="M76.6,59.8c-2.7-12.1-1.4-11.6,2.2-17.9C76.7,46.3,76,51.9,76.6,59.8z"/>
					<path class="st32" d="M74.8,71.8c-2.9-8.6-3.6-8.5-0.8-17C73.4,60.8,73.4,64,74.8,71.8z"/>
					<path class="st32" d="M74.1,84.3c-2.3-4.8-4.1-7.9-3.9-13.2C68.8,78.2,70.5,81.1,74.1,84.3z"/>
					<path class="st32" d="M68.7,79c-4.2-11.5-3.5-13.2-0.8-20.2C67.2,66.5,67.1,71.4,68.7,79z"/>
				</g>
				<g>
					<path class="st36" d="M91.5,84.4c-6.3-0.6-10.7-0.7-14.5-6.1C81.2,81.7,83.8,82.5,91.5,84.4z"/>
					<path class="st36" d="M86.8,81.8c-3.3-2.7-5.7-4.5-5.9-9.3C82,76.2,83.2,77.7,86.8,81.8z"/>
					<path class="st36" d="M78,52.8c0-7.7,0.7-7.3,2.6-14.3C79.4,44,80.2,42,78,52.8z"/>
					<path class="st36" d="M89.2,64.1c-2.5-10.2-4.8-10.7-5.9-18.9C85.3,52.4,87.7,54.4,89.2,64.1z"/>
					<path class="st36" d="M69.8,69.1c0.6-6.2,1.3-8.7,3.6-15C73.6,56.9,71.3,59.9,69.8,69.1z"/>
					<path class="st36" d="M68.2,76.7c-1.2-6.1-1.3-8.7-0.9-15.6C68.3,63.6,67.1,67.4,68.2,76.7z"/>
					<path class="st36" d="M80.5,74.1c-1.6-5.6-1.9-9.1,0.1-18.1C81.4,58.7,79.2,64.1,80.5,74.1z"/>
					<path class="st36" d="M79,76.1c-2.6-5.7-3.3-9.9-0.6-17.1C77.8,61.8,76.1,68.2,79,76.1z"/>
					<path class="st36" d="M61,64.5c0-6,0.8-9.4,5.1-17C66.1,50.3,62.6,54.5,61,64.5z"/>
					<path class="st36" d="M63.6,43.8c3.2-4.5,5.6-6.5,13-8.9C75,37,70.1,37.4,63.6,43.8z"/>
					<path class="st36" d="M68.4,40.9c-2,3.4-2.9,7.7-6.6,12.3C63.5,47.8,65.4,43.1,68.4,40.9z"/>
					<path class="st36" d="M65.4,37.7c3.2-4.5,8-6.6,14.6-4.9C76.3,32.7,69.7,34,65.4,37.7z"/>
				</g>
			</g>
		</g>
	</g>
</g>
</svg>
