<?xml version="1.0" encoding="utf-8"?>
<!-- Generator: Adobe Illustrator 17.0.0, SVG Export Plug-In . SVG Version: 6.00 Build 0)  -->
<!DOCTYPE svg PUBLIC "-//W3C//DTD SVG 1.1//EN" "http://www.w3.org/Graphics/SVG/1.1/DTD/svg11.dtd">
<svg version="1.1" id="Capa_1" xmlns="http://www.w3.org/2000/svg" xmlns:xlink="http://www.w3.org/1999/xlink" x="0px" y="0px"
	 width="210px" height="233.333px" viewBox="-80 -91.667 210 233.333" style="enable-background:new -80 -91.667 210 233.333;"
	 xml:space="preserve">
<style type="text/css">
	.st0{opacity:0.2;enable-background:new    ;}
	.st1{fill:#FFFFFF;}
	.st2{fill:url(#SVGID_1_);}
	.st3{fill:#FAFAFA;stroke:#E0E0E0;stroke-width:0.1476;stroke-miterlimit:10;}
	.st4{fill:none;stroke:#FFC107;stroke-width:7.9166;stroke-miterlimit:10;}
	.st5{opacity:0.5;fill:#FFFFFF;enable-background:new    ;}
	.st6{opacity:0.1;enable-background:new    ;}
	.st7{opacity:0.6;}
	.st8{fill:#CCCCCA;}
	.st9{fill:#F2F2F2;}
	.st10{clip-path:url(#SVGID_3_);}
	.st11{fill:#21211D;}
	.st12{fill:#363632;}
	.st13{fill:#5C5C69;}
	.st14{fill:#7C7C8A;}
	.st15{fill:#A2A2AB;}
	.st16{fill:#E8A477;}
	.st17{fill:#D69265;}
	.st18{fill:#F1B287;}
	.st19{fill:#F4BC97;}
	.st20{fill:#997356;}
	.st21{fill:#87654A;}
	.st22{fill:#A67D5D;}
	.st23{fill:#EDA580;}
	.st24{fill:#F2B292;}
	.st25{fill:#F7BFA3;}
	.st26{fill:#FCE3D6;}
	.st27{fill:#712539;}
	.st28{fill:#601F33;}
	.st29{fill:#89304C;}
	.st30{fill:#9E8047;}
	.st31{fill:#A8874A;}
	.st32{fill:#B89657;}
	.st33{fill:#C7A463;}
	.st34{fill:#8C6E36;}
	.st35{fill:#D1AE6D;}
	.st36{fill:#82652F;}
	.st37{fill:#735929;}
	.st38{display:none;}
	.st39{display:inline;fill:#9E8047;}
	.st40{display:inline;fill:#A8874A;}
	.st41{display:inline;fill:#B89657;}
	.st42{display:inline;fill:#C7A463;}
	.st43{display:inline;fill:#8C6E36;}
	.st44{display:inline;fill:#82652F;}
</style>
<g>
	<g>
		<circle class="st0" cx="26.472" cy="101.45" r="35.314"/>
		<circle class="st1" cx="24.552" cy="100.427" r="35.058"/>
		
			<radialGradient id="SVGID_1_" cx="80.6215" cy="-670.4579" r="8.2516" gradientTransform="matrix(3.825 0 0 -3.825 -283.825 -2464.075)" gradientUnits="userSpaceOnUse">
			<stop  offset="0" style="stop-color:#FFFFFF"/>
			<stop  offset="0.4846" style="stop-color:#F5F5F5"/>
			<stop  offset="1" style="stop-color:#E6E6E6"/>
		</radialGradient>
		<circle class="st2" cx="24.552" cy="100.427" r="31.603"/>
		<circle class="st3" cx="24.552" cy="100.427" r="17.018"/>
		<circle class="st4" cx="24.552" cy="100.427" r="31.476"/>
		<path class="st5" d="M49.374,75.604l-49.516,49.517c-13.691-13.69-13.691-35.826,0-49.516S35.684,61.914,49.374,75.604z"/>
		<path class="st6" d="M9.966,100.427c0-9.085,7.037-16.378,15.994-16.889c-0.384,0-0.768,0-1.152,0
			c-9.341,0-17.018,7.549-17.018,17.017c0,9.468,7.549,17.018,17.018,17.018c0.384,0,0.768,0,1.152,0
			C17.003,116.804,9.966,109.511,9.966,100.427z"/>
		<g id="XMLID_39_">
			<g class="st7">
				<path id="XMLID_54_" d="M61.786,133.182h0.768l0.128-11.771c0-0.128,0-0.256,0.128-0.256c0.128-0.128,0.384-0.128,0.512,0
					l-0.128,12.027h0.768l0.128-11.771l0,0c0.128-0.256,0.512-0.128,0.512,0.128v11.644h0.895l0.128-11.644
					c0-0.256,0.384-0.384,0.512-0.128l0,0v11.771h0.768l-0.128-12.027c0.128-0.128,0.384-0.128,0.512,0s0.128,0.128,0.128,0.256
					v11.771h0.768v-17.657c0-0.384-0.128-0.768-0.256-1.024l-1.535-3.199c-0.128-0.384-0.256-0.768-0.256-1.152l1.28-38.513
					c0-0.768-0.256-1.407-0.895-1.919l0,0c-0.895-0.768-2.175-0.768-3.071,0l0,0c-0.512,0.512-0.895,1.152-0.895,1.919l1.024,38.513
					c0,0.384-0.128,0.768-0.256,1.152l-1.535,3.071c-0.128,0.384-0.256,0.64-0.256,1.024L61.786,133.182z"/>
				<polygon id="XMLID_53_" points="63.577,97.356 63.833,106.185 66.648,104.393 66.904,95.309 				"/>
				<path id="XMLID_52_" d="M63.193,82.898l4.222-2.687l0.256-8.445c0-0.256,0-0.384,0-0.64l-4.734,2.943L63.193,82.898z"/>
				<polygon id="XMLID_51_" points="61.786,118.596 67.8,113.606 67.288,112.582 61.914,117.188 				"/>
				<polygon id="XMLID_50_" points="61.786,126.017 62.681,125.249 62.681,122.818 61.786,123.458 				"/>
				<path id="XMLID_49_" d="M64.601,121.538v2.047l1.024-0.895v-1.28c0-0.256,0.384-0.384,0.512-0.128l0,0v0.768l0.64-0.64v-0.512
					c0.128-0.128,0.384-0.128,0.512,0c0,0,0,0,0,0.128l0.895-0.768v-2.431l-4.094,3.327C64.473,121.41,64.601,121.41,64.601,121.538
					z"/>
				<polygon id="XMLID_48_" points="64.089,124.098 64.089,121.666 63.321,122.178 63.321,124.737 				"/>
			</g>
			<g>
				<g>
					<path id="XMLID_47_" class="st8" d="M61.018,132.414h0.768l0.128-11.771c0-0.128,0-0.256,0.128-0.256
						c0.128-0.128,0.384-0.128,0.512,0l-0.128,12.027h0.768l0.128-11.771l0,0c0.128-0.256,0.512-0.128,0.512,0.128v11.643h0.895
						l0.128-11.643c0-0.256,0.384-0.384,0.512-0.128l0,0v11.771h0.768l-0.128-12.027c0.128-0.128,0.384-0.128,0.512,0
						c0.128,0.128,0.128,0.128,0.128,0.256v11.771h0.768v-17.657c0-0.384-0.128-0.768-0.256-1.024l-1.535-3.199
						c-0.128-0.384-0.256-0.768-0.256-1.151l1.28-38.513c0-0.768-0.256-1.408-0.895-1.919l0,0c-0.895-0.768-2.175-0.768-3.071,0l0,0
						c-0.512,0.512-0.895,1.152-0.895,1.919l1.024,38.513c0,0.384-0.128,0.768-0.256,1.151l-1.535,3.071
						c-0.128,0.384-0.256,0.64-0.256,1.024L61.018,132.414z"/>
					<polygon id="XMLID_46_" class="st9" points="62.809,96.588 63.065,105.417 65.88,103.625 66.136,94.541 					"/>
					<path id="XMLID_45_" class="st9" d="M62.426,82.13l4.223-2.687l0.256-8.445c0-0.256,0-0.384,0-0.64l-4.734,2.943L62.426,82.13z
						"/>
					<polygon id="XMLID_44_" class="st9" points="61.018,117.828 67.032,112.838 66.52,111.814 61.018,116.292 					"/>
					<g id="XMLID_40_">
						<polygon id="XMLID_43_" class="st9" points="61.018,125.249 61.914,124.481 61.914,122.05 61.018,122.69 						"/>
						<path id="XMLID_42_" class="st9" d="M63.833,120.771v2.047l1.024-0.895v-1.28c0-0.256,0.384-0.384,0.512-0.128l0,0v0.768
							l0.64-0.64v-0.512c0.128-0.128,0.384-0.128,0.512,0c0,0,0,0,0,0.128l0.895-0.768v-2.431l-4.094,3.327
							C63.705,120.643,63.833,120.643,63.833,120.771z"/>
						<polygon id="XMLID_41_" class="st9" points="63.321,123.33 63.321,120.899 62.553,121.41 62.553,123.969 						"/>
					</g>
				</g>
			</g>
		</g>
		<g id="XMLID_28_">
			<g class="st7">
				<path id="XMLID_38_" d="M-18.823,70.23l0.256,62.184c0,0.895,1.152,1.152,1.664,0.384l0,0c1.791-3.327,3.071-7.037,3.583-10.876
					l0.512-3.583c0.384-2.815-0.128-5.758-1.664-8.317l0,0c-1.279-2.175-1.919-4.734-1.791-7.293l1.663-26.87
					c0.128-1.663,0-3.199-0.512-4.734l0,0c-0.384-1.28-1.408-2.047-2.687-2.047l0,0C-18.311,69.207-18.823,69.719-18.823,70.23z"/>
				<polygon id="XMLID_37_" points="-18.695,89.679 -18.695,98.508 -15.88,96.716 -15.24,87.376 				"/>
				<path id="XMLID_36_" d="M-17.799,69.207c-0.64,0-1.024,0.512-1.024,1.152v4.606l4.094-2.559
					c-0.128-0.384-0.128-0.64-0.256-1.024C-15.368,69.975-16.52,69.207-17.799,69.207z"/>
				<path id="XMLID_35_" d="M-16.264,103.369l-2.431,2.047v1.535l2.559-2.047C-16.264,104.393-16.264,103.881-16.264,103.369z"/>
				<path id="XMLID_34_" d="M-18.567,125.761v2.431l4.862-3.967c0.128-0.768,0.256-1.535,0.384-2.303l0.128-0.64L-18.567,125.761z"
					/>
			</g>
			<g>
				<g>
					<path id="XMLID_33_" class="st8" d="M-19.59,69.463l0.256,62.056c0,0.895,1.152,1.152,1.663,0.384l0,0
						c1.791-3.327,3.071-7.037,3.583-10.876l0.512-3.583c0.384-2.815-0.128-5.758-1.664-8.317l0,0
						c-1.279-2.175-1.919-4.734-1.791-7.293l1.663-26.87c0.128-1.663,0-3.199-0.512-4.734l0,0c-0.384-1.28-1.407-2.047-2.687-2.047
						l0,0C-19.079,68.439-19.59,68.951-19.59,69.463z"/>
					<polygon id="XMLID_32_" class="st9" points="-19.59,88.783 -19.462,97.74 -16.647,95.948 -16.008,86.608 					"/>
					<path id="XMLID_31_" class="st9" d="M-18.567,68.439c-0.64,0-1.024,0.512-1.024,1.152v4.606l4.094-2.559
						c-0.128-0.384-0.128-0.64-0.256-1.024C-16.136,69.207-17.287,68.439-18.567,68.439z"/>
					<path id="XMLID_30_" class="st9" d="M-17.032,102.602l-2.431,2.047v1.535l2.559-2.047
						C-17.032,103.625-17.032,103.114-17.032,102.602z"/>
					<path id="XMLID_29_" class="st9" d="M-19.462,124.993v2.431l4.862-3.967c0.128-0.768,0.256-1.535,0.384-2.303l0.128-0.64
						L-19.462,124.993z"/>
				</g>
			</g>
		</g>
	</g>
	<g>
		<g>
			<g>
				<defs>
					<rect id="SVGID_2_" x="-70.259" y="-86.764" width="190.517" height="133.964"/>
				</defs>
				<clipPath id="SVGID_3_">
					<use xlink:href="#SVGID_2_"  style="overflow:visible;"/>
				</clipPath>
				<g class="st10">
					<path class="st11" d="M-20.23-10.89c2.687-4.222,24.95-7.165,46.958-6.526c20.088,0.64,40.048,4.35,45.294,13.051
						C80.851,10.478,87.76,71.51,60.251,72.917c-28.533,1.535-48.237,0.895-76.77-1.408C-40.574,66.52-30.594,5.232-20.23-10.89z"/>
					<path d="M-13.065-10.89c2.687-3.967,19.832-7.165,38.769-6.526c17.273,0.64,35.698,4.35,40.176,13.051
						c7.677,14.842,16.378,76.642-7.293,78.05c-24.566,1.408-50.796-1.919-75.235-4.222C-37.504,64.601-24.197,5.232-13.065-10.89z"
						/>
					<path class="st12" d="M-18.951-12.042c5.502-3.583,25.718-6.014,45.806-5.374c20.088,0.64,40.049,4.478,45.294,13.051
						c8.445,14.075,14.97,69.861-7.933,76.642C82.77,60.89,76.5,10.605,68.439-2.701c-5.246-8.701-25.206-12.411-45.294-13.051
						C6.255-16.392-10.762-14.728-18.951-12.042z"/>
					<path d="M-43.773-43.773c1.279-4.99,3.455-11.26,3.071-21.112c-0.64-16.249,7.165-19.193,26.998-18.041
						c15.994,1.024,26.998,0,39.281,0c11.388,0,26.742,1.024,38.129,0.64c13.69-0.512,25.974,2.943,25.59,15.738
						c-0.128,5.63-2.175,15.866,0.128,22.136C99.915-14.728,41.698,0.498,17.771-1.805C-3.469-1.549-50.938-14.857-43.773-43.773z"
						/>
					<path class="st11" d="M63.321-82.158h0.384c13.69-0.512,25.974,2.943,25.59,15.738c-0.128,5.63-2.175,15.866,0.128,22.263
						C99.531-15.496,45.536-0.27,20.33-1.422c26.742-1.024,73.316-15.994,63.847-42.735c-2.303-6.269-0.256-16.634-0.128-22.263
						C84.433-77.68,74.964-81.646,63.321-82.158z"/>
					<path class="st13" d="M-46.844-20.87h4.094c4.478,0,8.061,3.583,8.061,7.933V66.52c0,4.478-3.583,8.061-8.061,8.061h-4.094
						c-4.478,0-8.061-3.583-8.061-8.061v-79.329C-54.777-17.287-51.194-20.87-46.844-20.87z"/>
					<path class="st14" d="M-46.076-20.87h2.815c3.071,0,5.502,2.431,5.502,5.502v84.447c0,3.071-2.431,5.502-5.502,5.502h-2.815
						c-3.071,0-5.502-2.431-5.502-5.502v-84.447C-51.578-18.439-49.147-20.87-46.076-20.87z"/>
					<path class="st15" d="M-43.261,73.941h-2.815c-1.535,0-2.943-0.64-3.966-1.791c0.768,0.384,1.535,0.512,2.431,0.512h2.815
						c3.071,0,5.502-2.431,5.502-5.502v-84.447c-0.256-1.791-1.408-3.199-3.199-3.711c2.687,0.512,4.862,2.815,4.862,4.862v84.447
						C-37.759,71.51-40.318,73.941-43.261,73.941z"/>
					<path class="st13" d="M88.911-20.87h4.094c4.478,0,8.061,3.583,8.061,7.933V66.52c0,4.478-3.583,8.061-8.061,8.061h-4.094
						c-4.478,0-7.933-3.583-7.933-8.061v-79.329C80.85-17.287,84.433-20.87,88.911-20.87z"/>
					<path class="st14" d="M89.551-20.87h2.815c3.071,0,5.502,2.431,5.502,5.502v84.447c0,3.071-2.431,5.502-5.502,5.502h-2.815
						c-3.071,0-5.502-2.431-5.502-5.502v-84.447C84.049-18.439,86.48-20.87,89.551-20.87z"/>
					<path class="st15" d="M92.366,73.941h-2.815c-1.535,0-2.943-0.64-4.094-1.791c0.768,0.384,1.535,0.512,2.431,0.512h2.815
						c3.071,0,5.502-2.431,5.502-5.502v-84.447c-0.256-1.791-1.408-3.199-3.199-3.711c2.687,0.512,4.862,2.815,4.862,4.862v84.447
						C97.868,71.51,95.437,73.941,92.366,73.941z"/>
					<path class="st11" d="M-40.446-58.999c-3.839-20.216,4.222-28.789,23.926-27.125c16.122,1.28,29.812,2.175,42.096,2.175
						c11.388,0,27.765-1.663,39.153-2.175c19.832-0.896,27.509,3.839,24.566,25.718c-1.919,13.946-33.907-6.142-68.069-5.118
						C-10.378-64.757-39.295-52.986-40.446-58.999z"/>
					<path class="st12" d="M25.576-84.077c11.388,0,27.765-1.664,39.153-2.175c19.832-0.896,27.509,3.839,24.566,25.718
						c-0.512,3.327-2.559,4.734-6.013,4.862l0,0c1.535-11.26,0.256-17.913-4.094-21.623C71.51-83.821,44.64-79.343,25.576-84.077z"
						/>
					<path d="M22.889-84.077c-11.388,0-27.765-1.664-39.153-2.175c-19.832-0.896-27.509,3.839-24.566,25.718
						c0.512,3.327,2.559,4.734,6.014,4.862l0,0c-1.535-11.26-0.256-17.913,4.094-21.623C-23.045-83.821,3.824-79.343,22.889-84.077z
						"/>
					<path class="st16" d="M4.848,109.127c-0.64-10.62-6.142-15.482-9.468-24.182c-3.839-9.852-2.687-24.183-6.398-37.106
						L6.256,68.695l3.966,13.179l0.384,16.633L4.848,109.127z"/>
					<path class="st17" d="M3.312,101.066c-2.559-7.421,0.384-17.785,0.896-23.031C-1.166,68.567-6.54,61.786-10.25,48.863
						l-0.256-1.152c4.99,10.492,10.748,20.6,17.401,30.068c-1.407,5.374-2.431,10.876-3.071,16.506
						C3.441,96.46,3.312,98.763,3.312,101.066z"/>
					<path class="st18" d="M47.199,95.437c-3.199,11.387-14.203,15.482-28.917-2.431S-8.331,54.877-16.776,33.253
						c-3.966-10.364-4.35-23.415,3.966-29.3c4.35-3.071,10.748-2.175,20.6-2.175c12.027,0,11.9,6.269,16.505,17.145
						c6.142,14.586,14.714,36.21,19.065,48.493C46.944,77.524,49.374,87.759,47.199,95.437z"/>
					<path class="st19" d="M47.199,95.437c-1.152,3.967-3.199,7.037-6.014,8.701c0.384-0.895,0.768-1.919,1.024-2.943
						c2.175-7.549-0.256-17.913-3.839-28.149C34.02,60.762,25.32,39.139,19.306,24.553C14.828,13.805,14.956,7.407,2.801,7.407
						c-9.724,0-15.994-0.768-20.344,2.047c1.024-2.175,2.687-4.094,4.734-5.502c4.35-3.071,10.748-2.175,20.6-2.175
						c12.027,0,11.9,6.27,16.505,17.145c6.014,14.714,14.714,36.21,19.065,48.493C46.944,77.524,49.374,87.759,47.199,95.437z"/>
					<path class="st16" d="M43.361,102.346c-5.118,4.99-14.075,3.838-25.078-9.468C3.568,74.964-8.331,54.748-16.776,33.125
						c-3.966-10.364-4.35-23.415,3.966-29.3c1.279-0.895,2.687-1.407,4.222-1.791c-7.165,6.27-6.653,18.553-2.815,28.405
						c8.445,21.623,20.344,41.839,35.058,59.753C31.462,99.787,38.243,103.114,43.361,102.346z"/>
					<path class="st18" d="M56.284,5.615c10.748,11.004,8.956,19.96,5.374,33.523c-3.199,12.027-8.189,23.031-11.771,31.988
						c-4.094,9.98-9.724,20.344-14.459,30.964C24.68,119.619,16.875,121.922,8.43,116.164c-4.862-3.327-5.758-12.283-4.606-22.007
						c1.791-15.61,6.142-25.718,8.572-38.129c2.687-13.179,2.687-31.092,3.199-44.783L56.284,5.615z"/>
					<path class="st19" d="M56.284,5.615c10.748,11.004,8.956,19.96,5.374,33.523c-3.199,12.027-8.189,23.031-11.771,31.988
						c-4.094,9.98-9.724,20.344-14.459,30.964c-7.549,12.411-13.69,17.145-19.704,16.889c13.051-12.155,24.566-40.304,28.405-49.773
						c4.223-10.364,7.805-21.112,10.62-31.988c3.071-11.771,1.28-19.064-6.397-30.58L56.284,5.615z"/>
					<path class="st16" d="M12.141,118.212c-1.407-0.512-2.687-1.152-3.839-2.047c-4.862-3.327-5.758-12.283-4.606-22.007
						c1.791-15.61,6.142-25.718,8.573-38.129c2.687-13.179,2.687-31.092,3.199-44.783l8.061-1.152
						c-0.384,13.563-0.512,30.964-3.199,44.015c-2.431,12.411-6.782,22.519-8.573,38.129
						C10.606,101.45,8.303,114.117,12.141,118.212z"/>
					<path class="st20" d="M56.284,5.615c10.748,11.004,8.956,19.96,5.374,33.523c-0.384,1.535-2.175,7.165-2.687,8.701
						c-13.947,5.246-30.068,1.919-44.143,1.024c-9.596-0.64-16.25,2.687-24.694-0.128c-1.408-3.199-5.502-12.411-6.782-15.61
						c-3.966-10.364-4.35-23.415,3.966-29.3c4.35-3.071,10.748-2.175,20.6-2.175c8.572,0,11.004,3.199,13.307,8.829L56.284,5.615z"
						/>
					<path class="st21" d="M-9.994,48.735c-1.407-3.199-5.63-12.411-6.781-15.61c-3.966-10.364-4.35-23.415,3.966-29.3
						c1.279-0.895,2.687-1.407,4.222-1.791c-7.165,6.27-6.653,18.553-2.815,28.405c1.791,4.606,6.525,14.714,8.701,19.448
						C-5.26,49.503-7.563,49.503-9.994,48.735z"/>
					<path class="st22" d="M56.284,5.615c10.748,11.004,8.956,19.96,5.374,33.523c-0.384,1.535-2.815,8.957-3.199,10.492
						c-2.559,1.024-5.246,1.791-8.061,2.303c0.895-2.815,3.583-11.643,4.35-14.586c3.071-11.771,1.28-19.065-6.398-30.58
						L56.284,5.615z"/>
					<path class="st21" d="M13.293,49.758c1.28-11.515,1.919-27.893,2.175-38.385l7.933-1.152
						c-0.384,11.131-1.024,28.277-2.431,40.049l-6.782-0.512H13.293z"/>
				</g>
			</g>
		</g>
	</g>
	<g>
		<path class="st16" d="M70.87,110.279l-0.384-0.384l0.128-1.919l0.768-3.071l0.128-1.408l0.256,1.663c0,0-0.128,2.047-0.128,2.303
			C71.638,107.72,70.87,110.279,70.87,110.279z"/>
		<path class="st18" d="M70.742,64.601c-1.28,2.943-2.687,7.293-4.223,9.596c-1.919,2.815-1.919,3.71-3.071,6.269
			c-0.895,1.919-1.28,4.223-1.791,6.269l-0.64,3.199c-0.384,2.175-0.256,1.791,0.128,4.094l1.024,5.118l0.768-0.128l-0.128,3.71
			c-0.256,3.967,1.024,4.862,1.664,4.862s1.024-0.384,1.407-2.431c0.384-1.663,0.384-3.838,0.64-5.374
			c0.384-2.559,0.256-4.99,1.152-7.293c0.64-1.535,0.384-0.768,0.256,0.768c-0.128,1.28-0.128,2.559-0.256,3.967
			c-0.128,1.408-0.256,3.583-0.384,4.862c-0.128,1.663-0.384,4.862-0.384,6.397c0,1.535,0.256,2.943,1.791,2.687
			c0.895-0.128,1.407-1.152,1.664-2.687c0.512-2.431,0.512-4.99,0.895-7.549c0.384-2.431,0.512-4.99,0.512-7.549
			c0-0.64,0.256-1.024,0.256-0.256c0.128,2.815,0,5.758-0.512,8.573c-0.384,2.303-0.768,4.35-1.024,6.782
			c-0.256,1.408-0.64,1.408-0.384,1.663c2.175,2.431,3.071-2.303,3.966-4.094c0.895-2.047,2.815-5.758,2.943-7.677l0.384-7.293
			c0.512-2.303,0.768-4.734,0.768-7.165c-0.128-2.431-0.64-4.478-0.512-6.782c0.256-3.711,1.791-6.909,3.199-11.515L70.742,64.601z"
			/>
		<path class="st16" d="M68.439,91.726c0.128,0,0,0.768-0.128,1.664c-0.128,1.28-0.128,2.559-0.256,3.966
			c-0.128,1.408-0.256,3.583-0.384,4.862c-0.128,1.664-0.384,4.862-0.384,6.397s0.256,2.559,1.152,2.687
			c-1.024-2.047-0.384-6.782,0-10.876C68.823,97.228,69.463,90.447,68.439,91.726L68.439,91.726L68.439,91.726z M72.406,92.877
			c0,0,0.128,0.128,0.128,0.384c0.128,2.815,0,5.758-0.512,8.573c-0.384,2.303-0.768,4.35-1.024,6.782
			c-0.128,0.384-0.256,0.895-0.384,1.28v0.128c0,0.128,0,0.128,0.128,0.256c0.768,0.768,1.28,0.768,1.791,0.384
			c-0.256-0.128-0.384-0.384-0.384-0.64c-0.128-3.071,1.407-7.165,1.919-10.236c-0.128-2.047-0.384-5.246-0.768-6.653
			C73.045,92.11,72.662,92.11,72.406,92.877L72.406,92.877z"/>
		<path class="st16" d="M70.742,64.601c-1.28,2.943-2.687,7.293-4.223,9.596c-1.919,2.687-2.047,3.966-3.199,6.397
			c-0.895,1.919-1.152,4.094-1.664,6.142l-0.64,3.199c-0.384,2.175-0.256,1.791,0.128,4.094l1.024,5.118l0.768-0.128l-0.128,3.71
			c-0.128,1.408,0,2.815,0.64,4.094c-0.128-2.687-0.128-5.246,0-7.933c0-1.664,0.128-3.327,0.384-4.862
			c0.64-2.303,1.024-4.606,1.28-7.037c0-1.024-0.256-2.047-0.512-2.943c0,4.99-1.535,7.805-1.919,12.155
			c-0.256-1.791-0.384-3.455-0.384-5.246c0-1.919,0.384-3.71,1.024-5.502c1.919-5.758,2.815-7.165,5.886-11.9
			c1.919-3.199,3.199-5.374,4.35-8.957L70.742,64.601z"/>
		<path class="st16" d="M75.221,104.009l1.152-4.094c0-2.431-0.128-5.374,0-7.549c0-0.64,0.512-0.768,0.512,0.128
			c0.128,2.559,0.128,5.118-0.256,7.677L75.221,104.009z"/>
		<path class="st23" d="M63.833,107.464l0.128-2.431c0-0.512,0.384-0.895,0.895-1.024l0,0c0.512,0,0.768,0.512,0.768,1.024l0,0
			l-0.128,2.431c0,0.512-0.384,0.895-0.895,1.024l0,0C64.089,108.36,63.833,107.976,63.833,107.464L63.833,107.464z"/>
		<path class="st24" d="M64.345,108.104l0.128-3.455c0-0.256,0.128-0.384,0.384-0.512l0,0c0.256,0,0.384,0.256,0.384,0.384l0,0
			l-0.128,3.455c0,0.256-0.128,0.384-0.384,0.512l0,0C64.473,108.488,64.345,108.232,64.345,108.104L64.345,108.104z"/>
		<path class="st25" d="M64.728,107.592l0.128-3.071c0-0.128,0-0.128,0.128-0.128l0,0c0.128,0,0.128,0.128,0.128,0.128l0,0
			l-0.128,3.071c0,0.128,0,0.128-0.128,0.128l0,0C64.857,107.72,64.728,107.592,64.728,107.592L64.728,107.592z"/>
		<path class="st1" d="M65.496,107.464c-0.128,0.512-0.384,1.024-0.895,1.024l0,0c-0.384,0-0.768-0.384-0.768-1.024
			c0.128,0.128,0.384,0.256,0.64,0.256h0.384C65.112,107.72,65.241,107.72,65.496,107.464z"/>
		<path class="st26" d="M64.985,106.44l0.128-1.791l0,0l0,0l0,0L64.985,106.44L64.985,106.44L64.985,106.44L64.985,106.44z"/>
		<path class="st23" d="M68.055,110.791l0.128-2.431c0-0.512,0.384-1.024,1.024-1.024l0,0c0.512,0,0.895,0.384,0.895,0.895l0,0
			l-0.128,2.431c0,0.512-0.384,1.024-1.024,1.024l0,0C68.311,111.814,67.927,111.43,68.055,110.791
			C67.927,110.919,67.927,110.791,68.055,110.791z"/>
		<path class="st24" d="M68.567,111.43l0.128-3.454c0-0.256,0.256-0.384,0.384-0.512l0,0c0.256,0,0.384,0.256,0.384,0.384l0,0
			l-0.128,3.455c0,0.256-0.256,0.384-0.384,0.512l0,0C68.695,111.814,68.567,111.686,68.567,111.43L68.567,111.43z"/>
		<path class="st25" d="M69.079,110.919l0.128-3.071c0-0.128,0.128-0.128,0.128-0.128l0,0c0.128,0,0.128,0.128,0.128,0.128l0,0
			l-0.128,3.071c0,0.128-0.128,0.128-0.128,0.128l0,0C69.207,111.046,69.079,111.046,69.079,110.919L69.079,110.919z"/>
		<path class="st1" d="M69.847,110.919c0,0.512-0.384,0.895-1.024,1.024l0,0c-0.512,0-0.895-0.512-0.895-1.024
			c0.256,0.128,0.512,0.256,0.768,0.256h0.384C69.335,111.174,69.591,111.046,69.847,110.919z"/>
		<path class="st26" d="M69.335,109.767l0.128-1.791l0,0l0,0l0,0L69.335,109.767L69.335,109.767L69.335,109.767L69.335,109.767z"/>
		<path class="st23" d="M70.998,110.279l0.64-2.303c0.128-0.512,0.64-0.895,1.024-0.768l0,0c0.512,0.128,0.768,0.64,0.512,1.151l0,0
			l-0.64,2.303c-0.128,0.512-0.64,0.895-1.024,0.768l0,0C71.126,111.174,70.87,110.663,70.998,110.279L70.998,110.279z"/>
		<path class="st24" d="M71.382,110.919l0.895-3.327c0-0.256,0.256-0.384,0.512-0.384l0,0c0.256,0.128,0.384,0.256,0.256,0.512l0,0
			l-0.895,3.327c0,0.256-0.256,0.384-0.512,0.384l0,0C71.382,111.303,71.254,111.046,71.382,110.919z"/>
		<path class="st25" d="M71.894,110.535l0.768-2.943c0-0.128,0.128-0.128,0.128-0.128l0,0l0,0c0.128,0,0.128,0.128,0.128,0.128l0,0
			l-0.768,2.943c0,0.128-0.128,0.128-0.256,0.128l0,0L71.894,110.535L71.894,110.535z"/>
		<path class="st1" d="M72.662,110.663c-0.128,0.512-0.512,0.768-1.024,0.768l0,0c-0.384-0.128-0.64-0.64-0.512-1.151
			c0.128,0.256,0.384,0.384,0.512,0.384l0.384,0.128C72.15,110.791,72.406,110.791,72.662,110.663z"/>
		<path class="st26" d="M72.406,109.511l0.512-1.791l0,0l0,0l0,0L72.406,109.511L72.406,109.511L72.406,109.511L72.406,109.511z"/>
		<path class="st23" d="M62.426,99.275l-0.384-1.919c-0.128-0.512,0.128-0.895,0.384-0.895l0,0c0.256-0.128,0.512,0.256,0.64,0.64
			l0.384,1.919c0.128,0.512-0.128,0.895-0.384,0.895l0,0C62.809,100.043,62.426,99.787,62.426,99.275z"/>
		<path class="st24" d="M62.809,99.787l-0.512-2.815c0-0.128,0-0.384,0.128-0.384l0,0c0.128,0,0.256,0.128,0.256,0.256l0.512,2.815
			c0,0.256,0,0.384-0.128,0.384l0,0C62.937,100.043,62.809,99.915,62.809,99.787z"/>
		<path class="st25" d="M62.937,99.275l-0.512-2.431c0-0.128,0-0.128,0-0.128l0,0c0,0,0.128,0,0.128,0.128L62.937,99.275
			C63.065,99.275,63.065,99.403,62.937,99.275L62.937,99.275C63.065,99.403,63.065,99.275,62.937,99.275z"/>
		<path class="st1" d="M63.449,99.147c0,0.512-0.128,0.895-0.384,0.895l0,0c-0.256,0-0.512-0.256-0.64-0.64
			c0.128,0.128,0.256,0.128,0.384,0.128h0.256C63.193,99.403,63.321,99.275,63.449,99.147z"/>
		<path class="st26" d="M60.762,98.379l-0.256-1.408l0,0l0,0l0,0L60.762,98.379L60.762,98.379L60.762,98.379L60.762,98.379z"/>
		<path class="st27" d="M22.633-30.082c-12.667-0.512-25.334-0.256-38.001,1.024c-15.482,1.919-21.24,10.364-20.728,18.937
			c0.384,6.013,4.734,8.829,9.98,12.667c3.583,2.687,5.63,8.189,7.677,11.515c3.454,6.013,6.653,18.041,22.263,18.297
			c4.99,0,9.596-2.559,18.297-2.559s13.307,1.664,18.297,1.535c15.738-0.256,17.785-10.236,22.519-18.297
			c1.407-2.303,5.758-4.478,9.468-7.165c5.118-3.839,8.445-9.596,8.957-15.994c0.512-8.573-5.246-17.017-20.728-18.937
			C48.095-30.211,35.3-30.594,22.633-30.082z"/>
		<path class="st27" d="M86.48,13.165c0,20.088-1.664,40.304-4.99,60.137c-4.862-1.28-10.492-2.431-15.738-0.384
			c2.431-19.577,0-30.068,0.895-49.645c-0.768-6.142-1.407-15.866-2.815-21.88l12.539-23.415
			C83.665-18.439,83.793,1.905,86.48,13.165z"/>
		<path class="st28" d="M68.567,72.15c-0.895,0.256-1.791,0.512-2.687,0.768c2.431-19.577,0-30.068,0.895-49.645
			c-0.384-5.502-0.256-11.131-2.943-11.771c2.175-3.711,3.967-7.677,5.246-11.9l2.047,21.752c2.303-3.839,5.63-6.013,8.829-5.374
			c-3.199,1.024-8.189,6.27-8.573,13.819C70.742,45.152,70.614,55.388,68.567,72.15z"/>
		<path class="st29" d="M86.48,13.165c0,20.088-1.664,40.304-4.99,60.137c-0.895-0.256-1.664-0.512-2.559-0.64
			c3.071-19.064,4.606-38.385,4.606-57.705c-2.431-9.724-2.815-26.23-7.549-32.755c-0.256-0.512-0.64-1.024-1.024-1.407l1.407-2.687
			C83.665-18.439,83.793,1.905,86.48,13.165z"/>
		<path class="st27" d="M-50.938,14.7l12.667,7.165c4.223-5.118,15.994-15.738,19.32-17.657l-9.341-28.405
			c-6.653,1.407-14.586,19.193-20.088,30.708C-49.787,9.07-50.683,11.885-50.938,14.7z"/>
		<path class="st29" d="M-40.574,20.586l2.303,1.28c2.815-3.327,10.62-10.236,15.226-15.098c-3.583,1.664-6.909,3.583-10.108,5.886
			C-35.84,14.956-38.399,17.643-40.574,20.586z"/>
		<path class="st18" d="M-0.27,89.551c-1.279-3.071-3.839-7.293-4.99-10.62c-0.512-1.28-1.279-2.815-0.896-3.199
			c0.384-0.384,3.583,11.131,8.317,9.724c-1.279-2.815-2.175-5.502-3.327-8.189c-0.256-0.384-0.384-0.895-0.64-1.28
			c-2.047-3.454-2.047-4.222-4.35-7.165c-1.535-1.663-3.071-3.071-4.862-4.35c-2.943-2.559-4.35-4.99-6.909-9.468l-8.957,4.606
			c2.559,5.246,3.583,7.165,4.094,9.341c0.384,1.664,0.128,3.327,1.024,7.165c0.768,3.327,2.047,7.677,3.071,12.027
			c0.64,0.895,1.408,1.791,2.175,2.559c0.768,0.768,1.664,1.408,2.687,1.791c0.896,0.384,1.919,0.384,2.943,0.256
			c1.535,1.28,2.431,1.791,3.327,1.791c0.256-0.512,0.384-1.024,0.512-1.535c-0.64-0.768-1.279-1.408-1.919-2.303
			c-0.768-1.152-1.407-2.431-2.047-3.71c-0.64-1.28-1.279-2.431-2.047-3.711c-0.896-1.535-0.512-1.408,0.256-0.256
			c0.768,1.151,1.535,2.431,2.175,3.71c0.64,1.28,1.152,2.559,2.047,3.838c0.512,0.64,1.535,1.919,2.687,3.327
			c1.535,2.047,3.327,4.222,4.094,4.222c0.384,0,0.768-0.128,1.024-0.512c0.384-0.384,0.256-1.408-0.256-2.431
			c-0.512-1.024-1.152-2.047-1.919-3.454c-0.768-1.407-1.407-2.303-2.047-3.583c-1.024-1.791-1.919-3.583-2.943-5.374
			c-0.768-1.535-0.384-1.663,0.384-0.128c0.896,1.791,1.663,3.583,2.687,5.374c0.64,1.151,1.279,2.303,1.919,3.454
			c0.64,1.152,1.024,1.919,1.791,2.943c0.512,0.768,0.896,1.28,1.791,1.151c0.896-0.128,1.152-1.151,0.768-2.431
			C0.754,91.854,0.37,90.702-0.27,89.551z M-13.321,90.191c-0.768-0.768-1.407-1.408-2.175-2.175
			c-0.768-1.791-1.152-3.583-1.28-5.502c0.896,1.791,1.791,4.222,2.687,6.142c0.384,0.768,0.64,0.768,1.024,1.408L-13.321,90.191z"
			/>
		<path class="st16" d="M-6.284,75.732c0.64-0.512,0.64-0.512,2.431,3.455c1.152,2.559,2.815,5.758,5.758,6.269
			c-1.408,0.384-2.943-0.128-3.711-1.28C-3.597,82.258-5.772,75.86-6.284,75.732L-6.284,75.732z M-25.604,58.843l-1.408,0.768
			c2.559,5.246,3.583,7.165,4.094,9.341c0.384,1.663,0.128,3.327,1.024,7.165c0.768,3.327,2.047,7.677,3.071,12.027
			c0.64,0.895,1.407,1.791,2.175,2.559c0.768,0.768,1.664,1.408,2.687,1.791c0.895,0.384,1.919,0.384,2.943,0.256
			c1.664,1.408,2.559,1.919,3.583,1.664c0.384,0,0.768-1.024,0.256-1.535s-1.279-1.408-1.919-2.303
			c-0.768-1.151-1.407-2.431-2.047-3.71c-0.64-1.28-1.279-2.431-2.047-3.71c-0.895-1.535-0.512-1.408,0.256-0.256
			c0.768,1.151,1.535,2.431,2.175,3.71c0.64,1.28,1.152,2.559,2.047,3.838c0.512,0.64,1.535,1.919,2.687,3.327
			c1.664,2.047,3.327,4.223,4.094,4.223c0.384,0,0.768-0.128,1.024-0.512c0.384-0.384,0.256-1.408-0.256-2.431
			c-0.256-0.64-0.64-1.151-1.024-1.791l0.896,1.664c0.512,1.024,0.512,1.791,0.128,2.175c-0.384,0.384-1.152,0-2.047-0.895
			c-0.768-0.768-1.791-2.175-2.815-3.455c-0.64-0.768-1.279-1.664-1.919-2.559c-0.768-1.152-1.407-2.431-1.919-3.583
			c-0.768-1.535-1.791-3.071-2.815-4.478c-0.512-0.64-1.664-2.175-1.024,0c0.256,0.64,0.512,1.28,0.768,1.791
			c1.407,3.454,3.199,6.653,5.374,9.596c-0.896,0.256-2.303-0.895-3.839-2.431c-0.896-0.895-1.664-1.791-2.303-2.687
			c-1.535-3.967-2.815-6.782-3.454-7.165c-0.64-0.384,0.256,2.943,1.152,6.909c0.768,1.791,3.071,3.199,3.071,3.455
			c0,0.768-2.047-0.512-2.559-0.895c-1.024-0.768-1.791-1.791-2.559-2.815c-0.896-1.535-2.047-9.468-2.943-14.842
			C-22.405,65.624-22.789,63.193-25.604,58.843L-25.604,58.843z M-8.587,81.49c0.128,0,0.384,0.256,0.768,1.024
			c0.896,1.791,1.664,3.583,2.687,5.374c0.64,1.151,1.279,2.303,1.919,3.454c0.64,1.152,1.024,1.919,1.791,2.943
			c0.512,0.768,0.896,1.28,1.791,1.151c0.895-0.128,1.152-1.151,0.768-2.431c-0.128,1.408-0.64,1.663-1.279,1.024
			c-1.152-0.895-3.711-5.886-4.734-7.549c-1.024-2.047-2.303-4.094-3.583-5.886C-8.843,80.338-9.099,80.338-8.587,81.49
			L-8.587,81.49z M-13.321,90.191c-0.768-0.768-1.407-1.408-2.175-2.175c-0.768-1.791-1.152-3.583-1.28-5.502
			c0.896,1.791,1.791,4.222,2.687,6.142c0.384,0.768,0.64,0.768,1.024,1.408L-13.321,90.191z"/>
		<path class="st23" d="M1.905,85.201l-0.896-2.047c-0.128-0.384-0.64-0.64-1.024-0.512l0,0c-0.384,0.256-0.512,0.768-0.256,1.152
			l0.895,2.047c0.128,0.384,0.64,0.64,1.024,0.512l0,0C2.033,86.096,2.161,85.584,1.905,85.201z"/>
		<path class="st24" d="M1.777,85.84L0.37,82.898c-0.128-0.128-0.256-0.256-0.512-0.256l0,0c-0.128,0.128-0.256,0.384-0.128,0.512
			l1.407,2.943c0.128,0.256,0.256,0.256,0.512,0.256l0,0C1.777,86.352,1.777,86.096,1.777,85.84z"/>
		<path class="st25" d="M1.137,85.713l-1.152-2.559c0-0.128-0.128-0.128-0.128-0.128l0,0l0,0c0,0,0,0.128,0,0.256L1.01,85.84
			c0,0.128,0.128,0.128,0.128,0.128l0,0C1.266,85.84,1.266,85.713,1.137,85.713L1.137,85.713z"/>
		<path class="st1" d="M0.626,85.84c0.256,0.384,0.768,0.64,1.024,0.512l0,0c0.384-0.256,0.512-0.768,0.256-1.151
			c-0.128,0.256-0.256,0.384-0.384,0.512l-0.256,0.128C1.01,85.968,0.882,85.968,0.626,85.84z"/>
		<path class="st26" d="M0.626,84.689l-0.64-1.535l0,0l0,0l0,0L0.626,84.689L0.626,84.689L0.626,84.689L0.626,84.689z"/>
		<path class="st23" d="M-0.014,95.565l-0.768-1.919c-0.256-0.384-0.128-0.895,0.256-1.151l0,0c0.384-0.128,0.896,0.128,1.024,0.512
			l0,0l0.896,1.919c0.256,0.384,0.128,0.895-0.256,1.152l0,0C0.498,96.204,0.114,96.076-0.014,95.565
			C-0.014,95.693-0.014,95.693-0.014,95.565z"/>
		<path class="st24" d="M0.626,95.948l-1.279-2.815c-0.128-0.128,0-0.384,0.128-0.512l0,0c0.128,0,0.384,0,0.384,0.256l0,0
			l1.279,2.815c0.128,0.128,0,0.384-0.128,0.512l0,0C0.754,96.204,0.626,96.076,0.626,95.948L0.626,95.948z"/>
		<path class="st25" d="M0.754,95.309l-1.024-2.431v-0.128l0,0c0.128,0,0.128,0,0.128,0.128l0,0l1.024,2.431v0.128l0,0
			C0.754,95.437,0.754,95.437,0.754,95.309L0.754,95.309z"/>
		<path class="st1" d="M1.266,95.053c0.128,0.384,0,0.895-0.256,1.152l0,0c-0.256,0.128-0.768,0-1.024-0.512
			c0.128,0.128,0.384,0.128,0.64,0l0.256-0.128C1.01,95.437,1.137,95.181,1.266,95.053z"/>
		<path class="st26" d="M0.37,94.413l-0.64-1.408l0,0l0,0l0,0L0.37,94.413L0.37,94.413L0.37,94.413L0.37,94.413z"/>
		<path class="st23" d="M-2.189,98.124l-1.024-1.791c-0.256-0.384-0.128-1.024,0.256-1.28l0,0l0,0
			c0.384-0.256,0.896-0.128,1.152,0.256l0,0l1.024,1.791c0.256,0.384,0.128,1.024-0.256,1.28l0,0
			C-1.293,98.635-1.806,98.635-2.189,98.124C-2.061,98.251-2.061,98.124-2.189,98.124z"/>
		<path class="st24" d="M-1.422,98.251l-1.535-2.687c-0.128-0.128,0-0.384,0.128-0.512l0,0c0.128-0.128,0.384,0,0.512,0.128l0,0
			l1.535,2.687c0.128,0.128,0,0.384-0.128,0.512l0,0C-1.038,98.508-1.293,98.508-1.422,98.251L-1.422,98.251z"/>
		<path class="st25" d="M-1.293,97.612l-1.408-2.303c0,0,0-0.128,0-0.256l0,0c0,0,0.128,0,0.256,0l0,0l1.408,2.303
			c0,0,0,0.128,0,0.256l0,0l0,0C-1.166,97.74-1.166,97.74-1.293,97.612L-1.293,97.612z"/>
		<path class="st1" d="M-0.654,97.228c0.256,0.384,0.128,0.895-0.256,1.152l0,0c-0.384,0.256-0.896,0.128-1.152-0.256
			c0.256,0,0.512,0,0.64-0.128l0.256-0.128C-0.91,97.74-0.782,97.484-0.654,97.228z"/>
		<path class="st26" d="M-1.677,96.716l-0.768-1.408l0,0l0,0l0,0L-1.677,96.716L-1.677,96.716L-1.677,96.716L-1.677,96.716z"/>
		<path class="st23" d="M-7.947,94.541l-1.024-1.024c-0.256-0.256-0.128-0.64,0.128-0.768l0,0l0,0c0.256-0.256,0.64-0.256,0.895,0
			l1.024,1.024c0.256,0.256,0.128,0.64-0.128,0.768l0,0l0,0C-7.307,94.797-7.691,94.797-7.947,94.541z"/>
		<path class="st24" d="M-7.307,94.541l-1.407-1.535c-0.128-0.128-0.128-0.256,0-0.384l0,0l0,0c0.128-0.128,0.256-0.128,0.384,0
			l1.407,1.535c0.128,0.128,0.128,0.256,0,0.384l0,0l0,0C-7.051,94.541-7.179,94.541-7.307,94.541z"/>
		<path class="st25" d="M-7.307,94.029l-1.279-1.28v-0.128l0,0l0,0h0.128l1.279,1.28v0.128l0,0l0,0
			C-7.179,94.157-7.307,94.157-7.307,94.029z"/>
		<path class="st1" d="M-6.924,93.645c0.128,0.256,0.128,0.64-0.128,0.895l0,0c-0.256,0.256-0.64,0.256-0.896,0
			c0.128,0,0.384-0.128,0.512-0.256l0.256-0.128C-7.051,94.029-6.924,93.901-6.924,93.645z"/>
		<path class="st26" d="M-7.691,93.517l-0.64-0.768l0,0l0,0L-7.691,93.517L-7.691,93.517L-7.691,93.517z"/>
		<path class="st23" d="M-11.529,93.006l-1.407-0.384c-0.384-0.128-0.512-0.384-0.512-0.64l0,0c0-0.256,0.384-0.384,0.64-0.256
			l1.407,0.384c0.384,0.128,0.512,0.384,0.512,0.64l0,0C-10.89,93.006-11.146,93.006-11.529,93.006z"/>
		<path class="st24" d="M-11.018,92.75l-2.047-0.64c-0.128,0-0.256-0.128-0.256-0.256l0,0c0-0.128,0.128-0.128,0.256-0.128
			l2.047,0.64c0.128,0,0.256,0.128,0.256,0.256l0,0C-10.762,92.75-10.89,92.877-11.018,92.75z"/>
		<path class="st25" d="M-11.274,92.494l-1.791-0.512c0,0-0.128,0-0.128-0.128l0,0c0,0,0,0,0.128,0L-11.274,92.494
			C-11.274,92.366-11.146,92.366-11.274,92.494L-11.274,92.494C-11.146,92.494-11.274,92.494-11.274,92.494z"/>
		<path class="st1" d="M-11.274,92.238c0.256,0.128,0.512,0.384,0.384,0.512l0,0c0,0.128-0.384,0.256-0.64,0.256
			c0.128,0,0.256-0.128,0.256-0.256v-0.128C-11.146,92.366-11.146,92.238-11.274,92.238z"/>
		<path class="st26" d="M-11.913,92.238l-1.024-0.384l0,0l0,0L-11.913,92.238L-11.913,92.238L-11.913,92.238z"/>
		<path class="st27" d="M-51.194,14.956c7.293,18.808,16.122,36.978,26.358,54.379c4.094-3.071,8.829-6.142,14.586-6.013
			C-19.591,45.92-27.012,26.216-34.817,8.303C-42.11,1.265-50.81,5.104-51.194,14.956z"/>
		<path class="st29" d="M-13.577,63.705c1.024-0.256,2.175-0.256,3.327-0.256c-8.573-16.122-15.738-34.162-22.903-50.924
			c-0.768,0.768-10.748,1.919-11.516,2.687c6.398-0.256,9.852,1.024,10.236,1.791C-28.163,31.717-20.486,49.631-13.577,63.705z"/>
		<path class="st28" d="M22.633-30.082c-12.667-0.512-25.334-0.256-38.001,1.024c-14.97,1.919-20.856,9.852-20.728,18.169
			c2.047-3.455,4.478-6.653,7.293-9.468c3.199-3.583,8.701-6.781,17.273-7.421L22.633-30.082L22.633-30.082z M-28.035,1.393
			c3.199,2.431,7.677,9.724,9.468,12.795c3.455,6.014,6.653,18.041,22.263,18.297c1.791,0,3.583-0.256,5.246-0.64
			c-1.152,0.128-2.431,0.256-3.583,0.256C-10.378,31.845-11.274,20.714-14.857,14.7C-15.752,12.525-23.045,1.777-28.035,1.393z"/>
		<path class="st28" d="M-50.938,14.7l2.943,1.664l-0.384-1.024c0-1.791,0.512-3.583,1.279-5.246
			c0.384-1.152,0.896-2.303,1.408-3.199c4.478-9.341,11.004-21.88,16.889-27.254c0.384-0.512,0.768-0.896,1.279-1.28l-0.896-2.559
			c-6.653,1.407-14.586,19.193-20.088,30.708C-49.914,9.07-50.683,11.885-50.938,14.7z"/>
		<path class="st28" d="M-51.194,14.956c7.293,18.808,16.122,36.978,26.358,54.379c0.896-0.64,1.664-1.28,2.559-1.791
			c-9.468-16.25-19.832-35.442-26.102-52.204c0-1.791,0.512-3.583,1.279-5.246c0.384-1.152,0.896-2.303,1.408-3.199l0.895-1.791
			C-48.251,6-50.938,9.582-51.194,14.956z"/>
		<path class="st29" d="M22.633-30.082l35.058,2.943c9.468,1.152,15.354,4.734,18.297,9.34c2.175,2.943,3.327,7.805,4.35,13.179
			c0.64-1.791,1.024-3.583,1.152-5.374c0.512-8.573-5.246-17.017-20.728-18.937C48.095-30.338,35.3-30.594,22.633-30.082
			L22.633-30.082z M43.489,31.078c12.027-0.64,15.866-11.515,19.065-17.145l7.293-14.714c-5.63,5.63-9.596,16.761-14.459,23.031
			C52.317,26.343,48.223,29.414,43.489,31.078z"/>
		<path class="st18" d="M18.667,30.694c-1.664-2.047-3.327-3.967-5.118-5.886l15.098,0.512c-1.407,1.664-2.687,3.327-3.966,5.118
			c-1.024,1.28-2.175,2.559-3.199,2.687C20.458,33.253,19.562,31.717,18.667,30.694z"/>
		<path class="st19" d="M22.505,32.741c1.024-1.024,1.024-3.199,0.512-6.014l0.768,0.512c0.128,1.791,1.152,2.687,0.256,3.839
			C23.529,31.717,23.017,32.229,22.505,32.741z"/>
		<path class="st18" d="M-2.445,11.501c-8.573-15.61-4.99-30.196,0.128-42.863c8.445-20.6,34.675-22.775,45.422-6.27
			c7.421,11.388,12.923,29.813,4.223,46.83c-3.583,6.909-6.653,12.795-11.771,15.866c-3.711,2.303-9.98,2.431-13.947,2.559
			c-3.967,0.128-9.212,0-14.075-3.199C3.824,21.738,0.754,17.131-2.445,11.501z"/>
		<path class="st16" d="M-2.445,11.501c-8.573-15.61-5.374-30.964-0.256-43.631c4.094-10.108,15.226-14.842,24.822-15.866
			C14.316-45.949,5.36-41.47,1.905-32.898C-3.213-20.231-6.412-4.877,2.161,10.733c3.071,5.63,6.142,10.236,9.98,12.795
			c2.431,1.535,5.118,2.559,7.933,2.943l-3.199,1.024c-3.327-0.256-6.526-1.28-9.341-3.071C3.824,21.738,0.754,17.131-2.445,11.501z
			"/>
		<path class="st19" d="M28.902-48.379c6.398,1.407,12.155,5.118,15.866,10.62c7.421,11.388,11.388,29.812,2.815,46.83
			c-3.583,6.909-6.653,12.795-11.771,15.866c-2.815,1.664-6.782,2.175-10.364,2.431l-2.431-1.407
			c3.071-0.128,6.142-0.895,8.957-2.303c5.118-3.071,8.189-8.957,11.771-15.866c8.573-17.017,4.734-35.442-2.815-46.83
			C37.987-43.261,33.765-46.588,28.902-48.379z"/>
		<path class="st16" d="M36.196,24.68l-0.384,0.256c-3.199,1.919-8.189,2.303-12.155,2.431c-0.64-0.256-1.28-0.384-2.047-0.512
			c-0.768,0.128-1.408,0.256-2.175,0.512c-3.327,0-6.653-0.64-9.724-2.047c6.142,1.664,9.341,0.384,11.771,0.384
			C25.064,25.704,26.727,27.495,36.196,24.68z"/>
		<path class="st16" d="M17.003,28.646c-0.64-0.768-1.28-1.535-2.047-2.303h4.606h0.256h4.734h0.128h3.071
			c-0.512,0.64-1.024,1.407-1.664,2.175H25.96l0,0l0,0h-0.128h-0.128l0,0h-0.128l0,0l0,0l-0.128-0.128l0,0H25.32l0,0l0,0l0,0l0,0
			h-0.128l0,0h-0.128l0,0l0,0l0,0h-0.128l0,0h-0.128H24.68l0,0h-0.128l0,0l0,0l0,0l0,0h-0.128l0,0h-0.128l0,0l0,0l0,0l0,0h0.64l0,0
			l0,0h-0.128l0,0l0,0H24.68l0,0l0,0h-1.024h-0.128l0,0H23.4h-0.128h-0.128l0,0h-0.128h-0.128h-0.128h-0.256h-0.128h-2.431h-0.128
			l0,0H19.69l0,0h-0.128l0,0h-0.128h0.384H19.69l0,0h-0.128l0,0h-0.128l0,0l0,0h-0.128l0,0l0,0h-0.128H19.05l0,0h-0.128l0,0l0,0
			h-0.128h-0.128l0,0h-0.128l0,0H18.41l0,0h-0.128l0,0l0,0l0,0l0,0h-0.128l0,0h-0.128l0,0h0.512l0,0l0,0l0,0l0,0l0,0l0,0H18.41l0,0
			h-0.128l0,0h-0.128l0,0h-0.128l0,0l0,0h-0.128l0,0H17.77l0,0h-0.128l0,0L17.003,28.646z"/>
		<path class="st18" d="M51.678-3.597c2.175-1.919,2.175-4.094,2.943-6.142c0.64-1.791,2.047-4.094,2.175-6.398
			c0.256-3.966-4.094-6.269-5.246-1.28C49.886-10.762,49.247-9.483,51.678-3.597z"/>
		<path class="st18" d="M-7.691-3.597c-2.175-1.919-2.175-4.094-2.943-6.142c-0.64-1.791-2.047-4.094-2.175-6.398
			c-0.256-3.966,4.094-6.269,5.246-1.28C-6.028-10.762-5.388-9.483-7.691-3.597z"/>
		<path class="st30" d="M13.421,25.576c-4.094-1.28-7.933-3.327-11.26-6.013c2.431,3.583,6.142,6.269,10.364,7.421
			C14.828,27.367,15.724,26.216,13.421,25.576z"/>
		<path class="st30" d="M30.054,25.576c4.094-1.28,7.933-3.327,11.26-6.013c-2.431,3.583-6.142,6.269-10.364,7.421
			C28.775,27.367,27.751,26.216,30.054,25.576z"/>
		<path class="st16" d="M20.714,32.741c-1.024-1.024-1.024-3.199-0.512-6.014l-0.768,0.512c-0.128,1.791-1.152,2.687-0.256,3.839
			C19.69,31.717,20.202,32.357,20.714,32.741z"/>
		<g>
			<path class="st30" d="M19.072,21.354c-3.71,0-7.421-1.024-12.667-3.327c8.701,6.269,20.856,7.677,27.125-2.943
				c4.99,1.408,7.805,0.128,10.876-3.583c-1.535,1.407-3.583,2.303-5.63,2.687c4.606-2.559,8.445-6.269,11.131-10.748
				c4.606-13.819,2.687-28.917-5.118-41.2C34.042-54.265,4.23-53.114-4.087-32.514c-4.99,11.899-6.525,26.486,0.384,41.2
				C2.951,15.34,8.452,18.922,19.072,21.354z"/>
			<path class="st31" d="M3.846-2.573l3.583,9.085C-7.03-8.331-4.726-25.476,2.951-42.11C-8.053-28.547-12.147,4.848,8.069,16.108
				c5.118,2.943,11.004,4.478,16.889,4.222c-3.071,1.024-6.398,1.535-9.596,1.408c10.62,2.047,15.866-3.071,18.425-9.085
				C25.086,17.259,9.476,7.919,3.846-2.573z"/>
			<path class="st31" d="M-0.376-20.486C1.032-14.089,2.695-9.099,7.685-3.853c-7.037-11.388-9.084-19.065-6.27-30.196
				c2.943-11.771,9.341-12.155,22.136-14.459c0.512,4.862,4.99,16.634,6.525,22.775c-0.128-7.421-2.815-13.69-4.606-19.832
				c4.094,6.142,8.317,23.159,7.549,32.755c-0.128,1.664-1.152,1.664-1.024,4.094c0.128,1.664,1.28,3.199,1.535,6.142
				c0.128,1.664-0.895,2.687-0.895,5.63c0.128,1.919,0.384,3.839,0.895,5.63c-0.128,1.664-0.895,2.559-1.28,3.839
				C13.826,12.013,0.52-1.294-0.376-20.486z"/>
			<path class="st32" d="M-7.285-4.876c4.734,18.681,23.543,30.708,38.769,20.728C13.826,20.458,2.183,14.188-7.285-4.876z"/>
			<path class="st32" d="M13.954,21.865c4.734,1.535,15.354,2.303,19.32-7.805C28.797,22.761,18.944,22.889,13.954,21.865z"/>
			<path class="st32" d="M31.612,14.572c-0.768-0.128-1.407-0.128-2.175-0.128C11.395,12.909-0.248,5.744-4.214-13.321
				C-1.4,9.454,11.651,18.538,29.692,15.851C32.123,15.468,32.251,14.828,31.612,14.572z"/>
			<path class="st32" d="M-0.248-39.295C-8.565-20.614-10.484-12.809,0.52,6.383C-7.413-12.169-6.773-20.742-0.248-39.295z"/>
			<path class="st32" d="M0.52-13.833C5.893,3.952,19.072,14.06,31.995,12.141C13.443,7.791,4.23-7.563,0.52-13.833z"/>
			<path class="st33" d="M3.974-5.516C8.069,2.417,16.769,9.838,25.47,11.629C16.897,8.047,9.348,2.033,3.974-5.516z"/>
			<path class="st34" d="M0.52-35.456C-5.366-18.311-2.295-4.492,5.382,3.441C-1.4-8.331-3.191-22.405,0.52-35.456z"/>
			<path class="st35" d="M2.183,10.733c5.886,7.549,18.937,10.236,28.277,5.63C18.561,20.074,8.836,16.747,2.183,10.733z"/>
			<path class="st32" d="M8.708-43.261C-0.76-14.217,26.11,10.222,32.507,9.838C26.494,3.441,3.974-13.065,8.708-43.261z"/>
			<path class="st32" d="M10.628-47.1C-9.205-28.675,6.917-1.678,20.096,4.464C9.476-6.412-4.343-26.756,10.628-47.1z"/>
			<path class="st33" d="M10.756-13.961C12.803-3.725,23.679,8.303,32.251,10.862C21.247,4.976,13.954-6.284,10.756-13.961z"/>
			<path class="st34" d="M1.031-16.776C5.765-2.957,17.409,7.535,29.948,10.733C11.907,4.336,3.974-10.25,1.031-16.776z"/>
			<path class="st34" d="M-2.167-1.294C3.079,15.084,14.978,18.41,26.494,16.619C20.864,16.236,5.382,17.259-2.167-1.294z"/>
			<path class="st35" d="M0.648,2.417C5.51,12.909,17.281,16.875,31.739,14.956C14.978,15.34,6.149,11.373,0.648,2.417z"/>
			<path class="st34" d="M7.429-44.669C1.543-27.523,4.614-13.705,12.291-5.772C5.51-17.543,3.718-31.618,7.429-44.669z"/>
			<path class="st32" d="M11.651-46.204C2.439-24.58,26.238-0.91,32.635,8.814C31.1-6.412,7.557-23.301,11.651-46.204z"/>
			<path class="st33" d="M11.651-46.076C5.126-26.372,23.295-7.819,29.18,1.905C25.982-11.402,6.533-22.405,11.651-46.076z"/>
			<path class="st34" d="M9.732-33.665C8.58-17.543,22.015-0.398,29.564,5.744C17.025-10.506,10.116-20.486,9.732-33.665z"/>
			<path class="st32" d="M28.797-23.173c-1.535-6.525-7.421-19.832-5.886-24.311c-9.212,7.549-0.128,18.809,2.943,31.603
				c-5.758-11.643-13.435-23.543-4.734-31.603c-18.297,6.398-3.071,24.438,10.108,46.19C31.739-12.169,30.332-15.752,28.797-23.173z
				"/>
			<path class="st33" d="M20.608-47.228c-16.889,7.933,4.606,34.035,9.98,44.143C26.365-15.624,6.533-37.632,20.608-47.228z"/>
			<path class="st33" d="M22.399-46.588c-4.223,9.468,2.303,17.657,5.118,34.93C24.062-27.14,15.106-39.039,22.399-46.588z"/>
			<path class="st34" d="M21.376-46.844c-6.909,5.374-4.606,15.482,3.071,25.718C15.746-35.456,18.049-42.494,21.376-46.844z"/>
			<path class="st32" d="M29.18-12.298c1.664-11.388,1.535-12.027,0.384-23.287c1.664,11.516,1.791,14.586,1.28,26.102L29.18-12.298
				z"/>
			<path class="st34" d="M40.952-27.268c-1.024-8.445-4.606-18.041-16.249-20.472c5.758,9.852,11.004,29.684,11.004,40.56
				l-1.663-6.653c-0.896,7.805,2.943,14.202-1.664,24.95C42.487,5.104,53.491-5.004,50.548-16.392l-1.28,7.933
				c0.768-18.425-2.175-28.533-12.795-35.314C40.44-35.712,41.336-32.13,40.952-27.268z"/>
			<path class="st34" d="M41.975,10.989c2.431-1.024,4.478-2.559,6.27-4.606c-2.559,5.374-10.236,11.131-16.506,5.886
				C35.578,9.71,50.42,0.497,50.932-11.786C52.723-0.526,48.885,6,41.975,10.989z"/>
			<path class="st36" d="M38.137-6.54c3.071-14.842,2.303-28.533-6.909-38.641C37.113-33.793,37.113-20.87,38.137-6.54z"/>
			<path class="st36" d="M32.379,11.118c6.27-4.35,20.856-21.496,13.435-44.143C48.501-12.042,37.369,5.488,32.379,11.118z"/>
			<path class="st36" d="M32.763,12.781c3.967,3.967,8.189,2.303,13.435-3.454C42.615,11.757,36.601,14.956,32.763,12.781z"/>
			<path class="st37" d="M35.45,7.791c9.084-4.862,12.667-15.994,12.795-26.997C46.582-8.971,44.534-0.014,35.45,7.791z"/>
			<path class="st36" d="M34.042,8.303c5.758-9.212,16.122-26.87,5.886-48.365C45.302-19.59,35.834-0.398,34.042,8.303z"/>
			<path class="st37" d="M34.938,6.127c7.037-10.236,10.108-22.519,8.701-34.802C43.639-16.52,40.568-4.492,34.938,6.127z"/>
			<path class="st30" d="M43.639-20.87c1.28,10.748-0.768,21.752-10.492,30.836C41.08-0.91,42.743-9.483,43.639-20.87z"/>
			<path class="st30" d="M50.292-4.365C47.349,6,38.905,13.165,31.612,12.781C39.16,7.663,41.848,8.943,50.292-4.365z"/>
			<path class="st36" d="M49.396-1.677c-2.431,9.085-9.852,15.354-16.249,14.97C39.8,8.943,42.104,9.966,49.396-1.677z"/>
			<path class="st36" d="M35.45-11.146c1.535-14.97-0.64-28.533-10.876-37.617C31.612-38.143,33.019-25.348,35.45-11.146z"/>
			<path class="st37" d="M35.194,3.185c4.35-11.516,5.246-38.385-9.212-50.54C37.369-34.817,38.393-10.25,35.194,3.185z"/>
			<g class="st38">
				<path class="st39" d="M27.901-47.74c6.525-2.175,9.084-11.26,7.293-16.25C30.46-77.04,15.49-77.552,11.011-63.349
					c-2.047,6.398,1.535,11.131,4.99,15.482L27.901-47.74z"/>
				<path class="st40" d="M31.356-69.619C14.722-79.983,6.277-59.127,16.897-48.124l6.142,0.256
					C19.456-55.928,18.049-69.875,31.356-69.619z"/>
				<path class="st41" d="M28.541-71.41C9.476-74.353,10.884-52.602,18.049-48.252C15.106-54.265,10.372-70.131,28.541-71.41z"/>
				<path class="st41" d="M30.844-70.003c-15.866-3.839-15.994,20.344-9.468,22.007C18.433-54.009,17.409-70.131,30.844-70.003z"/>
				<path class="st42" d="M28.157-70.771c-14.33-0.384-13.819,16.634-8.701,22.775C16.385-54.009,14.594-70.899,28.157-70.771z"/>
				<path class="st43" d="M34.81-59.767c0.128-4.094-1.919-9.468-7.421-9.212c1.919,6.142-2.303,14.97-4.222,20.856
					C29.308-47.1,34.554-53.625,34.81-59.767z"/>
				<path class="st44" d="M27.773-70.003c6.653,2.815,6.526,8.061,5.118,13.179l2.431-3.583
					c-2.559,9.212-6.269,11.388-11.643,12.027C31.228-53.113,32.635-64.629,27.773-70.003z"/>
				<path class="st41" d="M26.621-68.723c-6.269,9.085-4.862,8.957-4.222,19.832C24.19-55.417,25.598-62.07,26.621-68.723z"/>
			</g>
		</g>
	</g>
</g>
</svg>
