<?xml version="1.0" encoding="utf-8"?>
<!-- Generator: Adobe Illustrator 17.0.0, SVG Export Plug-In . SVG Version: 6.00 Build 0)  -->
<!DOCTYPE svg PUBLIC "-//W3C//DTD SVG 1.1//EN" "http://www.w3.org/Graphics/SVG/1.1/DTD/svg11.dtd">
<svg version="1.1" id="Menu_Waiter" xmlns="http://www.w3.org/2000/svg" xmlns:xlink="http://www.w3.org/1999/xlink" x="0px"
	 y="0px" width="50px" height="50px" viewBox="0 0 50 50" style="enable-background:new 0 0 50 50;" xml:space="preserve">
<style type="text/css">
	.st0{fill:#A8A5A4;stroke:#000000;stroke-width:2;stroke-miterlimit:10;}
	.st1{opacity:0.3;enable-background:new    ;}
	.st2{fill:#FFFFFF;}
	.st3{fill:#EFB88B;}
	.st4{fill:#F4CAAB;}
</style>
<g id="gCircleW">
	<path id="circleW" class="st0" d="M25,49.009C11.761,49.009,0.991,38.239,0.991,25S11.761,0.991,25,0.991S49.009,11.761,49.009,25
		S38.239,49.009,25,49.009z"/>
	<path id="shdwCircleW" class="st1" d="M28.839,47.682C39.705,45.849,48.009,36.379,48.009,25c0-11.38-8.305-20.851-19.172-22.683
		C38.238,5.572,45.009,14.506,45.009,25C45.009,35.493,38.239,44.426,28.839,47.682z"/>
</g>
<g id="Waiter">
	<path id="shdwW" class="st1" d="M25,48.009c5.185,0,9.973-1.725,13.825-4.629v-3.286c-0.001-4.94-3.353-9.227-8.143-10.427
		l-3.54-0.885c1.464-1.301,2.648-3.091,3.438-5.065c1.173-0.212,2.272-1.144,2.449-3.283c0.17-2.068-0.51-2.921-1.383-3.262
		c-0.023-0.661-0.108-1.275-0.142-1.854c-0.395-6.532-3.678-9.405-8.986-8.836c-0.696,0.075-1.377,0.118-2.068,0.006
		c-2.772-0.455-5.665,1.673-7.074,3.892c-1.825,2.873-1.128,6.73-1.133,6.857c-0.8,0.379-1.395,1.247-1.234,3.198
		c0.171,2.07,1.205,3.01,2.335,3.26c0.806,1.981,2.012,3.788,3.491,5.1l-3.511,0.875c-3.85,0.964-6.769,3.921-7.77,7.607
		C9.636,43.719,16.824,48.009,25,48.009z"/>
	<path id="baseW" d="M33.682,29.666l-3.54-0.885c1.464-1.301,2.648-3.091,3.438-5.065c1.173-0.212,2.272-1.144,2.449-3.283
		c0.17-2.068-0.51-2.921-1.383-3.262c-0.023-0.661-0.108-1.275-0.142-1.854c-0.395-6.532-3.678-9.405-8.986-8.836
		c-0.696,0.075-1.377,0.118-2.068,0.006c-2.772-0.455-5.665,1.673-7.074,3.892c-1.825,2.873-1.128,6.73-1.133,6.857
		c-0.8,0.379-1.395,1.247-1.234,3.198c0.171,2.07,1.205,3.01,2.335,3.26c0.806,1.981,2.012,3.788,3.491,5.1l-3.511,0.875
		c-4.792,1.2-8.149,5.485-8.149,10.423v2.014c4.336,4.265,10.277,6.902,16.825,6.902s12.489-2.637,16.825-6.902v-2.013
		C41.824,35.153,38.472,30.866,33.682,29.666z"/>
	<path id="tShW" class="st2" d="M10.044,40.093v2.37c1.216,1.043,2.538,1.965,3.954,2.739V32.719
		C11.592,34.331,10.044,37.063,10.044,40.093z"/>
	<path id="tShW2" class="st2" d="M39.955,40.092c0-3.006-1.512-5.717-3.883-7.333v12.404c1.389-0.766,2.687-1.673,3.883-2.698
		V40.092z"/>
	<path id="tSh3" class="st2" d="M25.693,47.207h-1.352l-6.437-15.991l4.02-1.012c0.946,0.454,1.96,0.71,3.02,0.71
		c1.098,0,2.142-0.261,3.109-0.726l4.088,1.036L25.693,47.207z"/>
	<circle id="btnW" cx="24.987" cy="42.095" r="1.068"/>
	<circle id="btnW2" cx="24.987" cy="38.286" r="1.068"/>
	<path id="bwtW" d="M28.164,31.795l-1.924,0.557c-0.03,0.007-0.059,0.015-0.09,0.02c-0.311-0.273-0.715-0.454-1.16-0.454
		s-0.848,0.18-1.16,0.454c-0.03-0.005-0.06-0.012-0.089-0.02l-1.917-0.558c-0.574-0.166-1.119,0.267-1.119,0.865v2.181
		c0,0.599,0.546,1.031,1.122,0.864l2.002-0.584c0.311,0.277,0.715,0.449,1.161,0.462c0.447-0.013,0.852-0.185,1.164-0.462
		l2.007,0.584c0.574,0.166,1.13-0.265,1.13-0.864v-2.181C29.292,32.06,28.739,31.629,28.164,31.795z"/>
	<path id="headW" class="st3" d="M17.093,18.241c0-0.275,0.041-0.545,0.122-0.809c0.217-0.703,0.496-1.304,0.772-1.792
		c0.478-0.844,1.252-1.482,2.172-1.789c0.028-0.009,0.056-0.019,0.083-0.028c0.324-0.111,0.68,0.012,0.866,0.298
		c0.186,0.286,0.153,0.663-0.079,0.913c-0.044,0.047-0.088,0.094-0.133,0.138c-0.14,0.145-0.172,0.364-0.079,0.542
		c0.094,0.179,0.292,0.277,0.49,0.244c1.94-0.32,5.338-1.171,7.894-3.375c0.678-0.584,1.694-0.526,2.301,0.132
		c0.575,0.625,0.947,1.4,1.074,2.24c0.143,0.938,0.219,2.026,0.219,3.285c0,4.894-3.502,10.805-7.852,10.805
		C20.595,29.045,17.093,23.135,17.093,18.241z"/>
	<path id="lghtHeadW" class="st4" d="M25.282,17.004c-0.079-0.566-0.193-1.275-0.319-2.005c-1.389,0.514-2.7,0.803-3.656,0.961
		c-0.198,0.033-0.396-0.065-0.49-0.244c-0.094-0.179-0.062-0.397,0.079-0.542c0.045-0.045,0.089-0.092,0.133-0.138
		c0.233-0.25,0.266-0.627,0.079-0.913s-0.542-0.41-0.866-0.298c-0.027,0.009-0.055,0.019-0.083,0.028
		c-0.92,0.307-1.695,0.945-2.172,1.789c-0.276,0.488-0.555,1.089-0.772,1.792c-0.08,0.264-0.122,0.534-0.122,0.809
		c0,3.617,1.916,7.783,4.669,9.714C24.738,24.843,25.858,20.886,25.282,17.004z"/>
</g>
</svg>
