<?xml version="1.0" encoding="utf-8"?>
<!-- Generator: Adobe Illustrator 17.0.0, SVG Export Plug-In . SVG Version: 6.00 Build 0)  -->
<!DOCTYPE svg PUBLIC "-//W3C//DTD SVG 1.1//EN" "http://www.w3.org/Graphics/SVG/1.1/DTD/svg11.dtd">
<svg version="1.1" id="bebidas" xmlns="http://www.w3.org/2000/svg" xmlns:xlink="http://www.w3.org/1999/xlink" x="0px" y="0px"
	 width="2000px" height="2000px" viewBox="0 0 2000 2000" enable-background="new 0 0 2000 2000" xml:space="preserve">
<g id="Capa_12">
	<g>
		<path fill="#4F4F4F" stroke="#000000" stroke-miterlimit="10" d="M1982.391,1803.611c0,69.814-460.6,168.748-984.218,168.748
			s-952.584-90.59-952.584-160.404s428.966-92.414,952.584-92.414S1982.391,1733.797,1982.391,1803.611z"/>
		<ellipse fill="#727272" stroke="#000000" stroke-miterlimit="10" cx="1011.781" cy="1803.611" rx="970.61" ry="126.409"/>
	</g>
</g>
<g>
	<g>
		<g>
			<path fill="#29A58E" d="M902.331,1460.586c0,0,31.44,21.994,67.14,16.879c35.7-5.112,36.913-34.994,33.17-45.363
				C997.787,1418.65,970.096,1380.653,902.331,1460.586z"/>
		</g>
		<g>
			<path fill="#29A58E" d="M935.44,1398.97c0,0,15.341-31.26,5.777-62.562c-9.565-31.303-36.533-28.223-45.306-23.422
				C884.522,1319.216,854.306,1349.347,935.44,1398.97z"/>
		</g>
		<g>
			<path fill="#29A58E" d="M962.891,1342.439c0,0,27.317,15.334,55.912,8.301c28.595-7.033,27.166-31.413,23.294-39.533
				C1037.063,1300.668,1011.502,1272.027,962.891,1342.439z"/>
		</g>
		<g>
			<path fill="#29A58E" d="M979.21,1295.865c0,0,19.224-8.374,27.032-26.471c7.806-18.096-5.777-27.193-11.675-28.408
				C986.909,1239.409,961.299,1241.468,979.21,1295.865z"/>
		</g>
		<g>
			<path fill="#29A58E" d="M789.653,1608.579c0,0,38.768,32.031,83.092,25.483c44.324-6.545,60.745-42.874,22.015-62.661
				C856.029,1551.613,789.653,1608.579,789.653,1608.579z"/>
		</g>
		<g>
			<path fill="#29A58E" d="M857.916,1527.039c0,0,29.049-41.044,19.218-84.759c-9.831-43.715-47.283-57.382-64.131-17.287
				C796.159,1465.091,857.916,1527.039,857.916,1527.039z"/>
		</g>
		<g>
			<path fill="#29A58E" d="M754.236,1641.91c0,0,45.732-43.842,44.008-100.259c-1.729-56.42-44.793-82.269-75.201-36.69
				C692.631,1550.54,754.236,1641.91,754.236,1641.91z"/>
		</g>
		<g>
			<path fill="#29A58E" d="M723.287,1666.765c1.098,1.388,3.1,1.682,4.55,0.64c0.424-0.302,43.008-31.091,95.559-92.291
				c48.454-56.427,115.638-151.072,160.544-281.536c0.603-1.738-0.328-3.63-2.062-4.227c-1.738-0.6-3.634,0.325-4.23,2.062
				c-85.271,247.723-252.015,369.382-253.689,370.584c-1.494,1.067-1.837,3.148-0.767,4.641
				C723.226,1666.684,723.254,1666.724,723.287,1666.765z"/>
		</g>
	</g>
	<path fill="#FFE0A9" d="M1038.203,1330.112c0,0-1.76,1.271-4.275,2.932c-1.265,0.827-2.737,1.738-4.31,2.666
		c-1.59,0.904-3.274,1.846-5.023,2.643c-0.842,0.469-1.758,0.767-2.614,1.181c-0.866,0.398-1.761,0.668-2.598,1.034
		c-0.844,0.352-1.701,0.567-2.498,0.876c-0.796,0.316-1.574,0.508-2.297,0.741c-0.724,0.189-1.386,0.489-1.993,0.624
		c-0.603,0.141-1.134,0.313-1.577,0.446c-0.886,0.275-1.409,0.473-1.409,0.473s0.509,0.176,1.422,0.409
		c0.458,0.108,1.016,0.254,1.665,0.366c0.648,0.149,1.381,0.166,2.192,0.212c0.806,0.037,1.701,0.125,2.621,0.009
		c0.921-0.099,1.923-0.132,2.918-0.362c0.986-0.24,2.045-0.41,3.051-0.791c1.007-0.364,2.056-0.708,3.025-1.212
		c0.985-0.48,1.958-0.982,2.845-1.591c0.923-0.55,1.747-1.22,2.538-1.858c1.559-1.318,2.86-2.705,3.799-4.037
		C1037.644,1332.275,1038.203,1330.112,1038.203,1330.112z"/>
	<path fill="#FFE0A9" d="M995.956,1452.965c0,0-0.45,0.503-1.26,1.314c-0.805,0.817-1.951,1.958-3.364,3.23
		c-1.399,1.29-3.101,2.67-4.944,4.067c-0.944,0.671-1.903,1.37-2.936,1.99c-0.998,0.672-2.055,1.279-3.133,1.846
		c-1.031,0.664-2.185,1.067-3.25,1.628c-1.084,0.519-2.206,0.91-3.268,1.359c-1.077,0.412-2.161,0.698-3.174,1.063
		c-1.012,0.375-2.016,0.542-2.934,0.813c-0.925,0.2-1.768,0.538-2.543,0.644c-0.769,0.135-1.447,0.297-2.008,0.419
		c-1.126,0.263-1.787,0.457-1.787,0.457s0.637,0.182,1.783,0.429c0.573,0.117,1.277,0.269,2.09,0.39
		c0.813,0.184,1.731,0.16,2.746,0.192c1.01,0.004,2.133,0.117,3.28-0.092c1.156-0.165,2.411-0.219,3.649-0.566
		c1.223-0.371,2.561-0.586,3.806-1.126c1.243-0.531,2.551-0.997,3.734-1.712c1.206-0.667,2.391-1.372,3.457-2.212
		c1.128-0.752,2.064-1.715,3.022-2.561c0.932-0.875,1.739-1.824,2.476-2.727c0.728-0.912,1.375-1.809,1.889-2.686
		c1.095-1.707,1.75-3.279,2.156-4.383C995.84,1453.631,995.956,1452.965,995.956,1452.965z"/>
	<path fill="#FFE0A9" d="M908.558,1604.856c0,0-0.606,0.476-1.672,1.304c-1.054,0.81-2.514,1.964-4.279,3.252
		c-0.859,0.665-1.815,1.346-2.809,2.058c-0.972,0.74-2.067,1.416-3.123,2.195c-1.133,0.671-2.199,1.5-3.388,2.168
		c-1.168,0.705-2.328,1.453-3.557,2.069c-1.17,0.729-2.422,1.288-3.63,1.908c-1.19,0.661-2.443,1.106-3.622,1.669
		c-1.167,0.601-2.378,0.939-3.501,1.418c-1.119,0.499-2.217,0.835-3.243,1.172c-1.025,0.323-1.968,0.767-2.832,1
		c-0.862,0.222-1.624,0.483-2.257,0.684c-1.269,0.415-2.02,0.729-2.02,0.729s0.729,0.265,2.053,0.594
		c0.661,0.161,1.473,0.372,2.413,0.534c0.943,0.189,2.007,0.214,3.187,0.278c1.181,0.057,2.467,0.086,3.807-0.104
		c1.336-0.18,2.797-0.26,4.218-0.689c1.428-0.394,2.957-0.711,4.376-1.364c1.461-0.565,2.918-1.212,4.288-2.011
		c1.399-0.756,2.721-1.628,3.964-2.568c1.294-0.87,2.376-1.968,3.479-2.939c1.027-1.06,2.022-2.072,2.848-3.14
		c0.839-1.051,1.584-2.076,2.195-3.079c1.243-1.986,2.039-3.778,2.502-5.066C908.432,1605.645,908.558,1604.856,908.558,1604.856z"
		/>
	<path fill="#FFE0A9" d="M786.725,1548.381c0,0,0.579-0.955,1.249-2.792c0.297-0.922,0.728-2.052,0.986-3.385
		c0.145-0.672,0.297-1.383,0.457-2.137c0.119-0.756,0.194-1.555,0.3-2.398c0.187-1.678,0.251-3.519,0.204-5.468
		c-0.121-1.938-0.233-4.01-0.682-6.095c-0.302-2.124-0.954-4.232-1.622-6.381c-0.664-2.147-1.693-4.192-2.581-6.288
		c-1.154-1.959-2.194-3.992-3.481-5.814c-1.336-1.779-2.615-3.569-4.023-5.135c-1.46-1.528-2.9-2.959-4.271-4.298
		c-1.449-1.262-2.934-2.316-4.258-3.323c-0.664-0.495-1.302-0.967-1.91-1.416c-0.628-0.419-1.278-0.751-1.858-1.097
		c-1.162-0.684-2.216-1.223-3.067-1.671c-1.709-0.894-2.716-1.332-2.716-1.332s0.669,0.91,1.902,2.375
		c0.616,0.727,1.35,1.621,2.237,2.575c0.904,0.937,1.806,2.108,2.798,3.354c0.995,1.226,2.067,2.553,3.207,3.957
		c1.039,1.472,2.137,2.997,3.309,4.536c1.112,1.581,2.086,3.32,3.225,4.975c1.039,1.72,1.946,3.544,2.961,5.302
		c0.807,1.854,1.756,3.66,2.47,5.518c0.686,1.871,1.461,3.689,1.953,5.532c0.626,1.813,1.014,3.618,1.45,5.337
		c0.249,0.857,0.321,1.71,0.511,2.53c0.17,0.824,0.356,1.625,0.437,2.398c0.211,1.549,0.42,2.985,0.521,4.274
		c0.129,1.286,0.176,2.42,0.239,3.368c0.009,0.935,0.073,1.693,0.052,2.204C786.727,1548.105,786.725,1548.381,786.725,1548.381z"/>
	<path fill="#FFE0A9" d="M870.666,1448.215c0,0,0.168-0.842,0.223-2.315c0.086-1.476,0.025-3.568-0.257-6.074
		c-0.201-1.231-0.369-2.596-0.722-3.99c-0.323-1.404-0.704-2.886-1.24-4.372c-0.469-1.513-1.128-3.017-1.822-4.538
		c-0.661-1.531-1.586-2.984-2.406-4.477c-0.997-1.401-1.917-2.857-3.033-4.142c-0.558-0.643-1.127-1.269-1.699-1.874
		c-0.548-0.627-1.136-1.208-1.787-1.712c-1.265-1.039-2.401-2.109-3.734-2.836c-1.313-0.737-2.433-1.563-3.689-1.988
		c-1.212-0.481-2.333-0.863-3.311-1.187c-1.003-0.274-1.935-0.355-2.664-0.475c-1.471-0.204-2.299-0.229-2.299-0.229
		s0.66,0.585,1.796,1.456c0.557,0.422,1.234,0.935,2.013,1.521c0.715,0.67,1.506,1.415,2.377,2.159
		c0.908,0.688,1.67,1.742,2.601,2.622c0.958,0.858,1.738,2.025,2.668,3.059c0.962,1.005,1.688,2.317,2.622,3.441
		c0.861,1.193,1.652,2.485,2.504,3.722c0.751,1.321,1.594,2.575,2.315,3.899c0.717,1.324,1.488,2.599,2.139,3.899
		c0.7,1.272,1.334,2.533,1.948,3.733c0.648,1.193,1.17,2.362,1.743,3.418c1.095,2.17,2.01,3.979,2.651,5.242
		C870.277,1447.47,870.666,1448.215,870.666,1448.215z"/>
	<path fill="#FFE0A9" d="M934.606,1341.213c0,0,0.225-0.529,0.407-1.525c0.166-0.986,0.261-2.44,0.052-4.171
		c-0.154-0.849-0.261-1.808-0.595-2.749c-0.264-0.971-0.638-1.959-1.111-2.948c-0.473-0.983-1.02-1.974-1.643-2.938
		c-0.685-0.911-1.331-1.897-2.138-2.722c-0.807-0.824-1.563-1.707-2.467-2.393c-0.869-0.72-1.731-1.423-2.642-1.98
		c-1.768-1.199-3.551-2.073-5.125-2.683c-1.53-0.698-2.957-0.941-3.898-1.196c-0.961-0.217-1.521-0.301-1.521-0.301
		s0.402,0.425,1.119,1.085c0.704,0.689,1.8,1.493,2.98,2.593c0.598,0.541,1.242,1.119,1.953,1.677
		c0.677,0.598,1.334,1.29,2.084,1.906c0.765,0.595,1.379,1.399,2.128,2.066c0.751,0.677,1.391,1.458,2.091,2.193
		c0.732,0.705,1.278,1.549,1.956,2.279c0.571,0.798,1.221,1.539,1.729,2.333c0.492,0.799,1.052,1.538,1.462,2.309
		c0.459,0.751,0.81,1.495,1.201,2.181c0.295,0.707,0.657,1.352,0.884,1.952c0.242,0.611,0.452,1.145,0.626,1.579
		C934.457,1340.657,934.606,1341.213,934.606,1341.213z"/>
	<path fill="#FFE0A9" d="M1001.22,1267.438c0,0,0.366-0.205,0.898-0.694c0.514-0.492,1.233-1.261,1.814-2.348
		c0.636-1.07,1.163-2.456,1.397-4.02c0.145-0.778,0.183-1.598,0.155-2.432c0.027-0.839-0.179-1.669-0.287-2.509
		c-0.221-0.807-0.446-1.627-0.755-2.387c-0.347-0.745-0.695-1.476-1.101-2.134c-0.436-0.635-0.885-1.23-1.315-1.78
		c-0.463-0.523-0.97-0.955-1.417-1.36c-0.852-0.844-1.803-1.296-2.402-1.652c-0.622-0.334-1.002-0.484-1.002-0.484
		s0.112,0.415,0.341,1.07c0.213,0.668,0.643,1.507,0.998,2.557c0.187,0.521,0.412,1.06,0.634,1.619
		c0.188,0.58,0.392,1.17,0.63,1.757c0.203,0.604,0.35,1.237,0.578,1.846c0.159,0.623,0.32,1.257,0.48,1.89
		c0.089,0.637,0.28,1.268,0.338,1.904c0.086,0.634,0.179,1.26,0.21,1.88c0.082,0.621,0.051,1.222,0.1,1.815
		c-0.029,0.577,0.032,1.16-0.007,1.688C1001.431,1265.793,1001.22,1267.438,1001.22,1267.438z"/>
	<path opacity="0.4" fill="#FFFFFF" d="M723.043,1504.961c30.408-45.579,73.472-19.73,75.201,36.69
		c0.967,31.632-12.985,59.308-25.429,77.522c23.101-22.616,52.2-54.217,82.403-94.957c-11.714-12.549-56.922-64.209-42.21-99.219
		c16.844-40.098,54.295-26.431,64.127,17.284c5.124,22.776-0.313,44.816-6.692,60.715c21.312-30.678,42.751-65.838,62.63-105.519
		c-78.083-48.727-48.435-78.324-37.161-84.49c8.773-4.801,35.742-7.881,45.306,23.422c4.749,15.544,3.357,31.069,0.754,42.771
		c12.857-27.257,24.918-56.505,35.678-87.765c0.026-0.077,0.065-0.14,0.097-0.211c-14.725-49.111,8.674-51.678,16.469-50.28
		c-54.157,243.279-241.989,402.499-270.933,425.836c-0.029-0.039-0.06-0.078-0.089-0.12c-1.07-1.493-0.727-3.574,0.767-4.641
		c0.417-0.298,11.07-8.068,28.14-23.385C741.509,1621.881,696.059,1545.401,723.043,1504.961z"/>
</g>
<g>
	<g>
		<path fill="#CECCCC" d="M639.106,1217.961c-1.519,0-3.058-0.213-4.593-0.661c-8.677-2.532-13.66-11.624-11.128-20.306
			l294.97-1010.84c1.556-5.329,5.708-9.508,11.031-11.095c5.298-1.61,11.08-0.384,15.312,3.229l222.407,189.731
			c6.88,5.868,7.695,16.202,1.827,23.082c-5.873,6.88-16.212,7.696-23.082,1.828L942.7,219.624l-287.883,986.549
			C652.734,1213.319,646.2,1217.961,639.106,1217.961z"/>
	</g>
	<g>
		<defs>
			
				<rect id="SVGID_1_" x="215.679" y="310.026" transform="matrix(-0.7071 0.7071 -0.7071 -0.7071 1111.3341 405.709)" width="511.926" height="245.986"/>
		</defs>
		<clipPath id="SVGID_2_">
			<use xlink:href="#SVGID_1_"  overflow="visible"/>
		</clipPath>
		<g clip-path="url(#SVGID_2_)">
			<circle fill="#FFCA2D" cx="554.42" cy="524.181" r="226.314"/>
			<circle fill="#FFEEC5" cx="554.419" cy="524.181" r="201.264"/>
			<g>
				<path fill="#FFCA2D" d="M692.624,637.665c23.185-28.166,36.443-61.724,39.779-96.1c0.71-7.311-5.041-13.633-12.383-13.405
					l-108.668,3.385c-20.086,0.626-25.229,13.042-18.087,20.645c23.485,24.995,63.277,67.345,81.05,86.261
					C679.371,643.831,687.932,643.364,692.624,637.665z"/>
				<path fill="#FFCA2D" d="M562.081,571.529l-3.681,118.197c-0.228,7.341,6.093,13.147,13.403,12.438
					c34.376-3.336,67.933-16.593,96.1-39.778c5.7-4.692,6.165-13.253,0.785-18.309c-18.916-17.773-61.267-57.565-86.262-81.05
					C574.824,555.884,562.406,561.102,562.081,571.529z"/>
				<path fill="#FFCA2D" d="M440.936,662.385c28.165,23.186,61.724,36.443,96.099,39.779c7.311,0.709,13.635-5.041,13.405-12.383
					l-3.385-108.668c-0.626-20.086-13.042-25.229-20.643-18.086c-24.996,23.485-67.347,63.277-86.262,81.05
					C434.771,649.132,435.235,657.693,440.936,662.385z"/>
				<path fill="#FFCA2D" d="M601.766,516.519l118.197,3.681c7.341,0.229,13.149-6.092,12.439-13.402
					c-3.336-34.376-16.594-67.934-39.779-96.101c-4.691-5.699-13.252-6.165-18.309-0.785c-17.773,18.916-57.565,61.267-81.05,86.262
					C586.123,503.776,591.341,516.194,601.766,516.519z"/>
				<path fill="#FFCA2D" d="M515.521,496.119l-80.96-86.165c-5.056-5.38-13.655-4.956-18.347,0.743
					c-23.185,28.167-36.442,61.724-39.778,96.1c-0.709,7.311,5.041,13.634,12.383,13.404l108.668-3.384
					C517.573,516.192,522.663,503.72,515.521,496.119z"/>
				<path fill="#FFCA2D" d="M582.481,485.284l86.167-80.96c5.379-5.057,4.955-13.656-0.745-18.347
					c-28.167-23.185-61.725-36.443-96.101-39.779c-7.31-0.71-13.633,5.041-13.404,12.384l3.385,108.667
					C562.408,487.334,574.879,492.425,582.481,485.284z"/>
				<path fill="#FFCA2D" d="M507.071,531.843l-118.197-3.682c-7.341-0.228-13.147,6.092-12.438,13.403
					c3.336,34.376,16.593,67.934,39.779,96.1c4.692,5.7,13.253,6.165,18.308,0.785c17.773-18.916,57.565-61.267,81.05-86.262
					C522.715,544.586,517.497,532.167,507.071,531.843z"/>
				<path fill="#FFCA2D" d="M546.756,476.833l3.681-118.197c0.229-7.342-6.091-13.149-13.402-12.439
					c-34.376,3.336-67.934,16.594-96.099,39.779c-5.701,4.691-6.167,13.252-0.787,18.309c18.917,17.773,61.267,57.565,86.262,81.05
					C534.013,492.478,546.432,487.259,546.756,476.833z"/>
			</g>
		</g>
	</g>
	<g>
		
			<rect x="614.331" y="219.403" transform="matrix(0.8467 -0.532 0.532 0.8467 -138.7345 403.9594)" fill="#998812" width="34.767" height="446.708"/>
		<path fill="#81740D" d="M567.715,373.574c9.959-5.938,19.768-12.101,29.439-18.497l-69.549-110.692l-29.437,18.497
			L567.715,373.574z"/>
		<path fill="#D5FF94" d="M254.236,442.694L254.236,442.694l189.92-298.451l351.3-41.6v0.001
			C675.268,291.515,476.554,416.367,254.236,442.694z"/>
		<g>
			<path fill="#9AB86B" d="M434.094,192.252c-12.494,18.183-28.322,42.96-43.369,68.238c-14.981,25.32-29.191,51.137-39.209,70.909
				c-5.085,9.838-8.889,18.315-11.755,24.118c-2.767,5.867-4.211,9.306-4.211,9.306s2.309-2.884,6.109-8.087
				c3.702-5.266,9.282-12.603,15.455-21.741c12.499-18.179,28.314-42.964,43.356-68.245c14.976-25.325,29.172-51.15,39.197-70.919
				c5.079-9.841,8.895-18.31,11.761-24.113c2.769-5.866,4.216-9.304,4.216-9.304s-2.304,2.887-6.104,8.091
				C445.841,175.774,440.273,183.117,434.094,192.252z"/>
			<path fill="#9AB86B" d="M680.334,146.022c-6.437-0.061-15.643-0.493-26.671-0.392c-22.061,0.022-51.443,1.062-80.797,3.021
				c-29.35,2.037-58.67,5-80.636,7.962c-10.986,1.4-20.125,3.065-26.53,3.997c-6.396,1.048-10.047,1.806-10.047,1.806h-0.007h0.001
				l0,0h-0.001h0.001l0,0h-0.001v0.001l0,0v-0.001v0.001l0,0l0,0c0,0-0.704,2.977-1.663,8.215
				c-0.842,5.254-2.375,12.721-3.622,21.751c-2.654,18.041-5.213,42.212-6.851,66.491c-1.561,24.289-2.21,48.685-1.943,67.071
				c0.044,9.182,0.593,16.895,0.739,22.265c0.261,5.384,0.572,8.48,0.572,8.48s0.709-2.975,1.669-8.215
				c0.843-5.254,2.389-12.719,3.631-21.75c2.661-18.04,5.206-42.212,6.837-66.492c1.554-24.29,2.187-48.688,1.928-67.073
				c-0.05-9.183-0.586-16.894-0.729-22.264c-0.26-5.382-0.566-8.477-0.566-8.477l0.001-0.002c0,0,0.432,2.804,1.454,7.626
				c1.134,4.789,2.436,11.728,4.568,19.879c4.111,16.351,10.535,37.862,17.845,59.099c7.385,21.215,15.648,42.159,22.57,57.645
				c3.376,7.769,6.681,14.091,8.765,18.588c2.195,4.463,3.605,6.964,3.605,6.964s-0.428-2.804-1.449-7.627
				c-1.133-4.79-2.422-11.733-4.561-19.883c-4.104-16.353-10.542-37.858-17.859-59.095c-7.391-21.212-15.669-42.152-22.585-57.64
				c-3.38-7.767-6.673-14.093-8.755-18.591c-2.194-4.46-3.599-6.963-3.599-6.963v-0.002c0,0,5.897,8.894,15.876,21.202
				c9.912,12.373,23.861,28.211,38.5,43.426c14.696,15.164,30.074,29.713,42.171,40.117c12.025,10.469,20.809,16.757,20.809,16.757
				s-5.886-8.899-15.865-21.213c-9.907-12.377-23.867-28.204-38.511-43.416c-14.7-15.159-30.09-29.698-42.183-40.106
				c-12.019-10.468-20.791-16.763-20.791-16.763l-0.006-0.004c0,0,2.734,1.597,7.619,4.133c4.934,2.43,11.852,6.209,20.388,10.194
				c17.009,8.118,40.073,18.033,63.5,27.096c23.458,8.99,47.276,17.136,65.436,22.547c9.046,2.788,16.785,4.637,22.108,6.154
				c5.369,1.409,8.501,2.064,8.501,2.064s-2.729-1.601-7.618-4.139c-4.933-2.432-11.846-6.223-20.384-10.202
				c-17.006-8.125-40.076-18.027-63.506-27.083c-23.46-8.985-47.284-17.116-65.442-22.534c-9.046-2.784-16.782-4.645-22.104-6.162
				c-5.359-1.408-8.483-2.067-8.494-2.069c0.011,0.001,3.692,0.26,10.122,0.436c6.436,0.059,15.643,0.478,26.671,0.382
				c22.061-0.03,51.443-1.054,80.797-3.006c29.351-2.03,58.671-4.978,80.637-7.947c10.987-1.394,20.125-3.073,26.53-4.005
				c6.401-1.05,10.053-1.813,10.053-1.813S686.775,146.199,680.334,146.022z"/>
		</g>
	</g>
	<g>
		<path fill="#CAF9FF" d="M859.128,1704.265c-34.03-956.989,141.826-1241.446,141.826-1241.446H791.226H681.37H471.643
			c0,0,175.854,284.457,141.825,1241.446c-53.628,9.057-88.618,23.876-88.618,40.633c0,27.579,94.669,49.935,211.449,49.935
			s211.448-22.356,211.448-49.935C947.746,1728.14,912.757,1713.322,859.128,1704.265z"/>
		<path fill="#FFAE11" d="M736.3,1644.554L736.3,1644.554c49.428,0,88.983-40.896,87.548-90.303
			c-20.75-714.889,76.443-941.443,123.898-1057.726H524.846c47.457,116.283,144.649,342.838,123.906,1057.727
			C647.318,1603.657,686.873,1644.554,736.3,1644.554z"/>
		<path opacity="0.5" fill="#FFAE11" d="M823.848,1554.25c-9.84-339.001,6.849-568.142,32.172-727.836
			c-9.143-28.266-14.638-58.158-19.192-87.511c-2.931-18.886-5.783-38.34-15.389-54.862c-9.606-16.523-27.815-29.608-46.77-27.162
			c-28.113,3.628-41.828,37.473-40.489,65.789c1.34,28.316,11.811,56.356,7.636,84.394c-2.094,14.066-8.852,28.561-21.609,34.847
			c-20.216,9.961-45.083-5.979-54.505-26.451c-9.422-20.473-8.503-43.94-10.934-66.345c-6.583-60.659-42.302-115.754-91.672-151.288
			c47.412,143.772,101.668,404.596,85.657,956.426c-1.434,49.405,38.121,90.302,87.548,90.302
			C785.728,1644.554,825.283,1603.656,823.848,1554.25z"/>
		<path opacity="0.1" fill="#FFFFFF" d="M607.105,562.362l16.794-25.73c10.098-15.471,30.825-19.827,46.297-9.73l25.73,16.794
			c15.471,10.098,19.827,30.825,9.73,46.297l-16.794,25.73c-10.098,15.471-30.825,19.827-46.297,9.73l-25.73-16.794
			C601.363,598.561,597.007,577.833,607.105,562.362z"/>
		<path opacity="0.1" fill="#FFFFFF" d="M709.465,711.525v-30.726c0-18.475,14.977-33.452,33.452-33.452h30.726
			c18.475,0,33.452,14.976,33.452,33.452v30.726c0,18.475-14.976,33.452-33.452,33.452h-30.726
			C724.442,744.977,709.465,730,709.465,711.525z"/>
		<path opacity="0.1" fill="#FFFFFF" d="M670.601,933.588l-15.363-26.61c-9.238-15.999-3.756-36.458,12.244-45.696l26.609-15.363
			c16-9.238,36.459-3.756,45.697,12.244l15.363,26.609c9.238,16,3.756,36.459-12.244,45.696l-26.609,15.363
			C700.298,955.07,679.839,949.588,670.601,933.588z"/>
		<path opacity="0.1" fill="#FFFFFF" d="M701.704,1211.447l-15.363-26.609c-9.238-16-3.756-36.458,12.244-45.696l26.61-15.363
			c15.999-9.237,36.458-3.755,45.696,12.244l15.363,26.609c9.238,16,3.756,36.458-12.244,45.696l-26.609,15.363
			C731.401,1232.928,710.942,1227.446,701.704,1211.447z"/>
		<path opacity="0.1" fill="#FFFFFF" d="M701.704,1546.5l-15.363-26.61c-9.238-15.999-3.756-36.458,12.244-45.696l26.61-15.363
			c15.999-9.238,36.458-3.756,45.696,12.244l15.363,26.609c9.238,16,3.756,36.459-12.244,45.696l-26.609,15.364
			C731.401,1567.982,710.942,1562.5,701.704,1546.5z"/>
		<path opacity="0.1" d="M859.128,1704.265c-34.03-956.989,141.826-1241.446,141.826-1241.446h-81.855
			c0,0-175.854,284.457-141.824,1241.446c53.628,9.057,88.616,23.876,88.616,40.633c0,24.271-73.333,44.49-170.52,48.992
			c13.245,0.615,26.921,0.943,40.927,0.943c116.78,0,211.448-22.356,211.448-49.935
			C947.746,1728.14,912.757,1713.322,859.128,1704.265z"/>
		<circle fill="#FFCF7E" cx="627.378" cy="594.833" r="19.662"/>
		<circle fill="#FFCF7E" cx="726.825" cy="790.137" r="31.454"/>
		<circle fill="#FFCF7E" cx="785.989" cy="622.542" r="27.709"/>
		<circle fill="#FFCF7E" cx="711.098" cy="1031.029" r="15.727"/>
		<circle fill="#FFCF7E" cx="761.89" cy="919.099" r="25.592"/>
		<circle fill="#FFCF7E" cx="730.308" cy="1240.927" r="19.21"/>
		<circle fill="#FFCF7E" cx="709.415" cy="1398.161" r="14.044"/>
	</g>
</g>
<g>
	<g>
		<g>
			<path fill="#29A58E" d="M1679.845,1211.663c0,0,52.39,16.444,98.892-5.94c46.507-22.378,35.26-63.677,25.686-76.204
				C1791.993,1113.257,1737.817,1073.355,1679.845,1211.663z"/>
		</g>
		<g>
			<path fill="#29A58E" d="M1698.434,1113.306c0,0,7.445-49.27-19.115-87.857c-26.555-38.58-62.022-22.746-71.926-12.404
				C1594.545,1026.459,1566.321,1080.608,1698.434,1113.306z"/>
		</g>
		<g>
			<path fill="#29A58E" d="M1711.498,1024.327c0,0,43.887,9.137,79.867-12.799c35.981-21.936,23.514-54.583,14.723-63.99
				C1794.677,935.329,1747.437,907.282,1711.498,1024.327z"/>
		</g>
		<g>
			<path fill="#29A58E" d="M1713.667,953.743c0,0,22.616-19.727,25.46-47.785c2.841-28.063-19.613-34.611-28.186-33.726
				C1699.811,873.392,1665.755,887.252,1713.667,953.743z"/>
		</g>
		<g>
			<path fill="#29A58E" d="M1589.963,1462.207c0,0,66.712,26.98,124.364-1.08c57.655-28.053,64.385-84.716,3.003-95.001
				C1655.949,1355.839,1589.963,1462.207,1589.963,1462.207z"/>
		</g>
		<g>
			<path fill="#29A58E" d="M1647.921,1321.5c0,0,21.926-68.541-10.352-123.942c-32.273-55.406-89.279-57.895-94.962,4.087
				C1536.929,1263.623,1647.921,1321.5,1647.921,1321.5z"/>
		</g>
		<g>
			<path fill="#29A58E" d="M1556.022,1522.967c0,0,43.48-79.553,16.782-155.782c-26.706-76.241-96.616-92.925-118.436-17.612
				C1432.539,1424.883,1556.022,1522.967,1556.022,1522.967z"/>
		</g>
		<g>
			<path fill="#29A58E" d="M1524.518,1570.24c2.093,1.418,4.952,0.956,6.485-1.093c0.444-0.597,45.259-60.979,90.56-167.157
				c41.767-97.899,92.593-256.026,97.568-453.407c0.074-2.636-2.01-4.812-4.635-4.883c-2.628-0.07-4.819,2.015-4.883,4.638
				c-9.449,374.799-184.473,612.741-186.233,615.103c-1.581,2.099-1.154,5.093,0.958,6.665
				C1524.394,1570.15,1524.452,1570.193,1524.518,1570.24z"/>
		</g>
	</g>
	<path fill="#FFE0A9" d="M1808.934,975.017c0,0-1.856,2.488-4.567,5.84c-1.371,1.678-2.981,3.553-4.73,5.496
		c-1.778,1.918-3.666,3.936-5.711,5.773c-0.951,1.005-2.072,1.804-3.061,2.738c-1.005,0.918-2.108,1.675-3.096,2.534
		c-1.006,0.845-2.075,1.508-3.035,2.269c-0.943,0.778-1.923,1.377-2.813,2.008c-0.903,0.573-1.676,1.266-2.445,1.709
		c-0.761,0.454-1.419,0.92-1.962,1.289c-1.086,0.756-1.717,1.254-1.717,1.254s0.771,0.02,2.118-0.058
		c0.669-0.05,1.497-0.094,2.428-0.22c0.954-0.071,1.958-0.37,3.088-0.651c1.111-0.299,2.371-0.568,3.573-1.123
		c1.218-0.529,2.571-1.007,3.827-1.756c1.245-0.751,2.616-1.438,3.82-2.39c1.221-0.936,2.499-1.854,3.609-2.961
		c1.135-1.079,2.244-2.186,3.192-3.396c1.02-1.15,1.859-2.424,2.666-3.631c1.551-2.472,2.732-4.925,3.441-7.153
		C1809.111,978.205,1808.934,975.017,1808.934,975.017z"/>
	<path fill="#FFE0A9" d="M1804.302,1160.866c0,0-0.4,0.879-1.153,2.339c-0.743,1.462-1.815,3.508-3.201,5.858
		c-1.347,2.361-3.077,4.979-4.985,7.677c-0.991,1.324-2.009,2.695-3.151,3.986c-1.07,1.35-2.248,2.636-3.471,3.87
		c-1.122,1.345-2.527,2.397-3.738,3.626c-1.254,1.177-2.615,2.189-3.875,3.264c-1.284,1.028-2.647,1.883-3.867,2.82
		c-1.219,0.952-2.518,1.607-3.656,2.374c-1.173,0.671-2.179,1.498-3.193,1.975c-0.989,0.512-1.838,1.031-2.556,1.446
		c-1.422,0.839-2.242,1.384-2.242,1.384s0.95-0.02,2.621-0.184c0.829-0.086,1.853-0.18,3.018-0.366
		c1.187-0.1,2.431-0.535,3.832-0.923c1.376-0.434,2.959-0.764,4.431-1.54c1.507-0.727,3.199-1.34,4.736-2.349
		c1.51-1.027,3.242-1.902,4.708-3.177c1.468-1.253,3.048-2.458,4.356-3.946c1.355-1.431,2.671-2.906,3.762-4.508
		c1.22-1.514,2.074-3.227,3.017-4.797c0.898-1.604,1.587-3.243,2.201-4.793c0.606-1.562,1.099-3.061,1.421-4.477
		c0.76-2.803,0.98-5.229,1.05-6.913C1804.432,1161.822,1804.302,1160.866,1804.302,1160.866z"/>
	<path fill="#FFE0A9" d="M1750.597,1405.822c0,0-0.624,0.91-1.727,2.501c-1.084,1.564-2.576,3.766-4.427,6.283
		c-0.892,1.279-1.901,2.621-2.942,4.022c-1.012,1.425-2.219,2.826-3.322,4.344c-1.255,1.402-2.349,2.996-3.685,4.417
		c-1.287,1.468-2.546,2.987-3.96,4.358c-1.281,1.507-2.748,2.809-4.127,4.169c-1.34,1.414-2.855,2.569-4.224,3.841
		c-1.339,1.323-2.843,2.313-4.165,3.444c-1.31,1.167-2.663,2.1-3.923,3.008c-1.262,0.875-2.35,1.888-3.428,2.582
		c-1.082,0.671-2.009,1.356-2.787,1.902c-1.552,1.116-2.443,1.866-2.443,1.866s1.11,0.049,3.053-0.072
		c0.974-0.065,2.172-0.13,3.527-0.312c1.368-0.147,2.829-0.576,4.47-0.997c1.638-0.426,3.407-0.942,5.148-1.787
		c1.748-0.817,3.703-1.558,5.457-2.758c1.782-1.149,3.725-2.247,5.381-3.75c1.753-1.399,3.46-2.915,4.981-4.592
		c1.59-1.641,3.016-3.399,4.304-5.215c1.39-1.747,2.39-3.713,3.48-5.513c0.944-1.885,1.868-3.701,2.532-5.509
		c0.693-1.799,1.262-3.522,1.657-5.151c0.849-3.247,1.161-6.038,1.234-7.988C1750.762,1406.949,1750.597,1405.822,1750.597,1405.822
		z"/>
	<path fill="#FFE0A9" d="M1559.992,1381.339c0,0,0.38-1.554,0.497-4.355c0.007-1.386,0.111-3.112-0.111-5.042
		c-0.092-0.976-0.191-2.013-0.3-3.112c-0.167-1.083-0.407-2.209-0.624-3.399c-0.47-2.375-1.181-4.915-2.083-7.551
		c-1.002-2.589-2.05-5.37-3.558-8.024c-1.329-2.767-3.135-5.359-4.967-8.002c-1.832-2.643-4.117-4.992-6.24-7.468
		c-2.421-2.175-4.718-4.499-7.255-6.428c-2.596-1.857-5.108-3.742-7.703-5.276c-2.651-1.454-5.235-2.787-7.69-4.018
		c-2.515-1.098-4.994-1.902-7.238-2.7c-1.119-0.385-2.198-0.757-3.215-1.107c-1.041-0.302-2.068-0.472-3.009-0.698
		c-1.886-0.43-3.551-0.708-4.903-0.957c-2.722-0.474-4.284-0.641-4.284-0.641s1.304,0.953,3.62,2.417
		c1.156,0.729,2.546,1.626,4.165,2.551c1.638,0.886,3.374,2.103,5.264,3.374c1.889,1.24,3.929,2.587,6.084,4.013
		c2.053,1.557,4.212,3.17,6.473,4.762c2.201,1.675,4.279,3.63,6.547,5.399c2.162,1.894,4.184,3.988,6.328,5.957
		c1.902,2.176,3.974,4.226,5.75,6.46c1.745,2.253,3.59,4.401,5.057,6.705c1.633,2.199,2.94,4.498,4.278,6.657
		c0.716,1.059,1.177,2.197,1.787,3.231c0.589,1.052,1.185,2.059,1.627,3.084c0.956,2.019,1.865,3.891,2.558,5.607
		c0.733,1.702,1.286,3.222,1.785,4.489c0.411,1.274,0.825,2.28,1.019,2.986C1559.875,1380.956,1559.992,1381.339,1559.992,1381.339z
		"/>
	<path fill="#FFE0A9" d="M1631.303,1208.446c0,0-0.137-1.225-0.694-3.254c-0.518-2.051-1.508-4.878-2.976-8.174
		c-0.802-1.598-1.624-3.385-2.702-5.139c-1.055-1.776-2.21-3.629-3.586-5.429c-1.283-1.859-2.831-3.631-4.432-5.406
		c-1.571-1.809-3.458-3.382-5.22-5.07c-1.972-1.485-3.844-3.073-5.922-4.342c-1.043-0.641-2.091-1.245-3.135-1.828
		c-1.012-0.616-2.068-1.16-3.174-1.566c-2.176-0.869-4.188-1.835-6.32-2.257c-2.104-0.435-3.993-1.081-5.884-1.12
		c-1.867-0.134-3.563-0.165-5.029-0.186c-1.49,0.057-2.799,0.345-3.847,0.501c-2.094,0.36-3.237,0.676-3.237,0.676
		s1.155,0.514,3.08,1.213c0.951,0.335,2.089,0.741,3.409,1.207c1.263,0.604,2.665,1.282,4.169,1.92
		c1.537,0.547,3.031,1.652,4.68,2.452c1.678,0.76,3.246,2.017,4.961,3.028c1.75,0.951,3.305,2.43,5.067,3.557
		c1.685,1.259,3.327,2.682,5.02,4.003c1.589,1.478,3.279,2.825,4.835,4.321c1.551,1.498,3.156,2.901,4.604,4.395
		c1.506,1.431,2.914,2.883,4.271,4.255c1.399,1.34,2.616,2.715,3.85,3.904c2.429,2.492,4.457,4.566,5.879,6.011
		C1630.454,1207.6,1631.303,1208.446,1631.303,1208.446z"/>
	<path fill="#FFE0A9" d="M1672.375,1034.861c0,0,0.077-0.819-0.103-2.259c-0.201-1.42-0.702-3.44-1.731-5.715
		c-0.574-1.087-1.137-2.351-1.996-3.49c-0.775-1.215-1.71-2.402-2.783-3.54c-1.072-1.138-2.252-2.259-3.512-3.301
		c-1.327-0.949-2.634-2.017-4.099-2.793c-1.453-0.774-2.866-1.653-4.392-2.195c-1.498-0.609-2.977-1.203-4.463-1.562
		c-2.927-0.883-5.734-1.3-8.149-1.452c-2.393-0.297-4.439-0.012-5.839,0.045c-1.401,0.116-2.2,0.243-2.2,0.243
		s0.733,0.405,1.999,0.999c1.25,0.643,3.093,1.263,5.178,2.256c1.052,0.478,2.182,0.989,3.389,1.443
		c1.184,0.522,2.38,1.186,3.66,1.699c1.314,0.485,2.493,1.316,3.804,1.903c1.311,0.602,2.525,1.391,3.79,2.092
		c1.31,0.645,2.417,1.557,3.654,2.266c1.127,0.843,2.333,1.569,3.367,2.439c1.021,0.875,2.101,1.645,2.996,2.515
		c0.952,0.823,1.751,1.686,2.573,2.455c0.712,0.837,1.484,1.56,2.052,2.284c0.593,0.728,1.112,1.364,1.536,1.887
		C1671.929,1034.162,1672.375,1034.861,1672.375,1034.861z"/>
	<path fill="#FFE0A9" d="M1731.43,905.459c0,0,0.415-0.44,0.927-1.34c0.49-0.894,1.136-2.245,1.464-3.986
		c0.399-1.731,0.529-3.852,0.167-6.086c-0.133-1.127-0.435-2.262-0.83-3.387c-0.328-1.153-0.968-2.194-1.479-3.299
		c-0.654-1.008-1.314-2.023-2.063-2.93c-0.793-0.868-1.584-1.712-2.42-2.432c-0.869-0.686-1.742-1.303-2.567-1.864
		c-0.856-0.51-1.732-0.887-2.52-1.244c-1.526-0.783-3.019-0.99-3.985-1.217c-0.995-0.188-1.573-0.229-1.573-0.229
		s0.324,0.518,0.926,1.309c0.577,0.818,1.523,1.784,2.458,3.063c0.48,0.625,1.018,1.266,1.566,1.937
		c0.505,0.701,1.037,1.422,1.616,2.123c0.539,0.733,1.009,1.536,1.589,2.271c0.481,0.78,0.975,1.579,1.463,2.372
		c0.401,0.832,0.932,1.611,1.282,2.454c0.399,0.825,0.791,1.638,1.103,2.47c0.375,0.812,0.595,1.645,0.919,2.436
		c0.209,0.796,0.544,1.566,0.715,2.308C1731.009,903.116,1731.43,905.459,1731.43,905.459z"/>
	<path opacity="0.4" fill="#FFFFFF" d="M1454.368,1349.573c21.819-75.313,91.73-58.629,118.436,17.612
		c14.972,42.74,7.876,86.519-1.247,116.747c21.762-40.831,47.826-96.503,71.46-165.126
		c-21.395-12.062-105.373-63.046-100.404-117.164c5.677-61.978,62.683-59.489,94.956-4.083c16.819,28.86,18.91,61.282,17.065,85.729
		c15.839-51.052,29.921-108.276,39.923-171c-127.565-32.79-99.88-85.967-87.163-99.242c9.904-10.342,45.37-26.176,71.926,12.404
		c13.186,19.158,17.986,40.947,19.487,58.034c5.781-42.743,9.616-87.851,10.807-135.146c0.007-0.112,0.032-0.216,0.044-0.331
		c-41.285-60.654-10.464-74.247,0.776-75.706c31.081,355.306-156.5,653.596-185.929,697.93c-0.056-0.044-0.11-0.081-0.166-0.125
		c-2.113-1.572-2.54-4.566-0.958-6.665c0.442-0.587,11.618-15.788,28.303-44.046
		C1530.018,1501.13,1434.998,1416.393,1454.368,1349.573z"/>
</g>
<g>
	<path fill="#FFF47D" d="M1476.744,215.443c-13.309,0.623-32.953,1.813-57.481,7.102c-24.489,5.155-54.137,13.682-85.821,29.505
		c-31.592,15.975-65.661,37.783-95.27,72.138c-14.144,16.725-26.988,36.837-34.447,60.696c-13.066,5.985-24.237,12.94-35.601,20.941
		c-25.395,18.464-46.815,42.26-62.636,69.484c-15.686,27.223-25.508,58.329-27.943,89.754c-1.117,16.359-0.335,32.446,3.506,48.892
		c3.85,16.276,11.013,32.737,22.516,46.63l2.215,2.543l1.114,1.264l0.558,0.631l1.289,1.328l3.763,3.602
		c2.716,2.389,5.716,4.664,8.593,6.666c1.652,7.608,3.945,14.975,6.864,21.962c11.115,25.761,29.734,47.008,52.678,60.245
		c11.352,6.421,24.027,10.632,36.185,12.798c4.889,8.727,11.065,15.99,17.066,21.934c11.551,11.266,23.337,19.151,34.922,24.801
		c23.1,11.35,43.416,13.511,56.695,13.651c6.697,0.111,11.812-0.313,15.22-0.744c3.407-0.414,5.166-0.627,5.166-0.627
		s-1.768-0.006-5.197-0.015c-3.409,0.008-8.498-0.204-15.005-1.125c-12.967-1.604-31.982-6.628-52.388-19.197
		c-10.109-6.21-20.467-15.016-29.27-25.548c-3.261-4.053-6.047-8.057-8.62-12.248c7.414-0.502,14.904-2.135,22.199-5.842
		c13.652-7.286,22.832-20.847,22.564-36.883c-0.12-3.977-0.992-8.088-2.686-11.81l-0.303-0.702c0.376,0.662-0.859-1.712-0.82-1.585
		l-0.499-0.794l-0.999-1.585c-0.778-1.232-2.918-3.764-4.525-5.348c-6.35-5.799-14.157-7.761-20.882-7.926
		c-13.539-0.057-25.256,5.542-33.395,15.314c-1.954,2.534-3.609,5.277-4.866,8.263c-0.92,2.241-0.847,2.469-1.318,3.797
		c-0.339,1.007-0.749,2.899-1.07,4.302c-0.454,2.322-0.598,4.533-0.702,6.73c-3.975-1.778-7.847-3.826-11.398-6.151
		c-14.211-9.474-26.101-23.686-33.655-40.2c13.859,1.31,28.456-0.757,42.004-7.543c4.475-2.179,8.695-5.08,12.569-8.276l2.819-2.528
		l1.391-1.281c0.776-0.816-0.765,0.916,1.913-1.994l0.401-0.494l3.204-3.95c1.823-2.645,3.55-5.466,5.091-8.311
		c1.389-2.733,2.082-4.96,3.067-7.493c1.583-4.913,2.692-9.922,2.997-14.802c1.335-19.482-4.242-38.317-18.983-53.205
		c-7.339-7.301-17.895-12.937-29.021-14.238c-3.039-0.197-4.901-0.615-8.896-0.363c-1.798,0.183-2.627,0.088-6.291,0.736
		l-4.516,0.901l-3.65,1.147c-2.47,0.726-4.683,1.822-6.954,2.849c-17.171,8.757-26.996,22.707-33.416,36.681
		c-3.81-12.528-5.039-26.887-3.825-41.063c2.164-24.727,10.056-48.738,22.679-70.43c12.352-21.77,29.391-41.061,49.407-55.895
		c1.378-1.003,2.843-1.983,4.275-2.975c1.342,9.101,3.631,18.183,7.119,27.035c5.26,13.166,13.003,25.904,23.697,36.834
		c10.515,10.695,25.377,19.719,39.852,23.592c3.965,0.915,9.455,2.026,13.589,2.286c4.171,0.183,8.408,0.509,12.52,0.038
		c8.365-0.36,16.356-2.541,24.185-5.121c15.407-5.729,29.742-15.277,40.706-29.301c5.302-7.163,9.86-15.304,12.437-24.529
		c1.293-4.539,2.093-9.388,2.472-14.156l0.083-7.255l-0.016-1.816l-0.225-2.254l-0.278-2.507
		c-2.749-19.981-12.651-35.672-25.391-48.016c-12.529-12.139-29.362-20.883-46.082-24.525c-16.83-3.806-33.766-3.449-49.651-0.952
		c-4.55,0.689-9.065,1.666-13.539,2.773c4.894-11.003,11.043-21.446,18.104-30.993c11.761-16.017,25.798-29.652,39.956-41.922
		c14.153-12.178,28.681-22.602,43.081-31.252c28.822-17.314,56.345-28.692,79.644-36.102c23.327-7.374,42.369-11.394,55.388-13.484
		c13.068-2.183,20.129-2.922,20.129-2.922S1490.032,214.879,1476.744,215.443z M1227.137,736.146
		c0.286-0.731,0.252-1.054,0.711-2.139c0.34-0.756,1.064-2.693,1.095-2.491c0.637-1.133,1.443-2.195,2.38-3.234
		c3.863-4.063,11.148-6.67,16.906-5.888c5.899,0.972,7.346,3.39,7.404,7.76c-0.069,4.412-4.414,10.67-9.753,12.617
		c-5.188,2.36-12.209,2.534-19.74,1.246C1226.17,741.254,1226.449,738.495,1227.137,736.146z M1160.877,627.166
		c4.151-8.473,10.716-15.672,16.507-18.154c0.725-0.235,1.418-0.66,2.118-0.756l1.022-0.314c0.117,0.031,0.21,0.03,0.3-0.01
		c-0.472-0.134,1.993-0.226,3.458-0.303c-0.725,0.004,0.678,0.269,0.91,0.244c1.911,0.391,3.577,1.246,5.569,3.303
		c4.107,3.94,7.038,13.131,5.95,20.301c-0.118,1.837-0.66,3.441-1.152,4.917c-0.328,0.572-0.624,1.609-0.814,1.86
		c-0.17,0.072-0.145,0.177-0.042,0.45l-2.754,3.2c-0.091,0.091-0.143,0.141-0.016-0.008l-0.519,0.404l-1.001,0.845
		c-1.41,1.035-2.847,2.039-4.555,2.737c-7.937,3.98-19.68,3.294-30.119-0.91C1156.67,638.766,1158.304,632.745,1160.877,627.166z
		 M1261.58,413.044c23.26-3.867,44.838-0.354,59.108,12.799c7.127,6.164,12.102,14.972,13.229,21.78
		c0.819,5.039,0.474,7.844-0.315,11.853c-0.867,3.73-2.793,7.421-5.188,11.014c-5.141,7.064-13.208,13.097-22.038,16.671
		c-4.472,1.56-9.057,3.026-13.601,3.36c-2.294,0.467-4.495,0.262-6.733,0.358c-2.25-0.08-3.087-0.207-5.377-0.379
		c-10.329-2.262-17.841-6.623-25.313-13.11c-7.086-6.582-12.905-14.945-17.107-24.122c-4.5-9.77-6.924-20.327-7.595-30.924
		C1241.291,417.961,1251.187,414.762,1261.58,413.044z"/>
	<g>
		<path fill="#CECCCC" d="M1868.599,346.515l-231.226-178.874c-4.4-3.407-10.234-4.354-15.45-2.494
			c-5.241,1.843-9.188,6.214-10.488,11.612l-180.352,749.737c7.414,16.327,14.653,32.667,21.902,48.956l184.368-766.427
			l211.208,163.389c7.143,5.532,17.431,4.224,22.969-2.93C1877.063,362.331,1875.753,352.048,1868.599,346.515z"/>
	</g>
	<g>
		<path fill="#CAF9FF" d="M1596.451,1701.444c-34.029-956.989,141.826-1241.446,141.826-1241.446H1528.55h-109.856h-209.728
			c0,0,175.854,284.457,141.825,1241.446c-53.629,9.057-88.617,23.876-88.617,40.633c0,27.579,94.668,49.935,211.448,49.935
			c116.779,0,211.448-22.356,211.448-49.935C1685.069,1725.32,1650.079,1710.501,1596.451,1701.444z"/>
		<path fill="#00F3FF" d="M1473.623,1641.734L1473.623,1641.734c49.427,0,88.983-40.896,87.549-90.303
			c-20.751-714.889,76.441-941.443,123.897-1057.726h-422.898c47.456,116.283,144.648,342.838,123.904,1057.727
			C1384.641,1600.837,1424.196,1641.734,1473.623,1641.734z"/>
		<path fill="#00F3FF" d="M1579.308,737.505c-19.095,2.43-36.462,12.524-49.536,26.651c-29.364,31.729-36.054,74.758-40.92,116.158
			c-8.646,73.564-13.525,147.571-14.611,221.634c-0.254,17.382-0.698,36.091-13.034,49.269c-7.002,7.48-17.731,11.143-27.44,7.872
			c-11.275-3.799-13.748-13.728-15.904-23.028l-6.323-27.265c-4.262-18.378-16.513-30.547-31.106-36.1
			c8.249,129.09,11.228,286.171,5.64,478.736c-1.433,49.405,38.122,90.302,87.549,90.302s88.983-40.897,87.549-90.304
			c-11.703-403.207,14.114-651.052,47.363-811.4C1599.752,737.203,1590.078,736.134,1579.308,737.505z"/>
		<path opacity="0.4" fill="#FFFFFF" d="M1594.379,559.542l-16.794-25.73c-10.098-15.471-30.825-19.828-46.297-9.73l-25.73,16.794
			c-15.471,10.098-19.828,30.825-9.73,46.297l16.794,25.73c10.098,15.471,30.825,19.828,46.297,9.73l25.731-16.794
			C1600.121,595.741,1604.477,575.013,1594.379,559.542z"/>
		<path opacity="0.4" fill="#FFFFFF" d="M1492.019,708.705v-30.726c0-18.475-14.976-33.452-33.452-33.452h-30.726
			c-18.475,0-33.452,14.976-33.452,33.452v30.726c0,18.475,14.976,33.452,33.452,33.452h30.726
			C1477.043,742.157,1492.019,727.18,1492.019,708.705z"/>
		<path opacity="0.4" fill="#FFFFFF" d="M1530.883,930.768l15.363-26.61c9.238-15.999,3.756-36.458-12.244-45.696l-26.609-15.363
			c-16-9.238-36.459-3.756-45.697,12.244l-15.363,26.609c-9.238,16-3.756,36.459,12.244,45.696l26.61,15.364
			C1501.186,952.249,1521.645,946.768,1530.883,930.768z"/>
		<path opacity="0.4" fill="#FFFFFF" d="M1499.779,1208.626l15.363-26.609c9.238-16,3.756-36.459-12.244-45.696l-26.609-15.363
			c-16-9.237-36.459-3.755-45.697,12.244l-15.363,26.609c-9.238,16-3.756,36.459,12.244,45.696l26.61,15.363
			C1470.082,1230.108,1490.542,1224.626,1499.779,1208.626z"/>
		<path opacity="0.4" fill="#FFFFFF" d="M1499.779,1543.68l15.363-26.61c9.238-15.999,3.756-36.458-12.244-45.696l-26.609-15.363
			c-16-9.238-36.459-3.756-45.697,12.244l-15.363,26.609c-9.238,16-3.756,36.459,12.244,45.696l26.61,15.364
			C1470.082,1565.162,1490.542,1559.68,1499.779,1543.68z"/>
		<path opacity="0.1" d="M1596.451,1701.444c-34.029-956.989,141.826-1241.446,141.826-1241.446h-81.854
			c0,0-175.854,284.457-141.826,1241.446c53.628,9.057,88.618,23.876,88.618,40.633c0,24.271-73.333,44.49-170.521,48.992
			c13.245,0.615,26.922,0.943,40.927,0.943c116.779,0,211.448-22.356,211.448-49.935
			C1685.069,1725.32,1650.079,1710.501,1596.451,1701.444z"/>
		<circle fill="#00C3CD" cx="1381.369" cy="572.619" r="19.394"/>
		<circle fill="#00C3CD" cx="1407.031" cy="741.099" r="25.663"/>
		<circle fill="#00C3CD" cx="1520.458" cy="572.619" r="19.394"/>
		<circle fill="#00C3CD" cx="1460.931" cy="964.788" r="22.918"/>
		<circle fill="#00C3CD" cx="1497.106" cy="832.028" r="13.257"/>
		<circle fill="#00C3CD" cx="1455.817" cy="1188.719" r="17.804"/>
		<circle fill="#00C3CD" cx="1449.893" cy="1376.532" r="18.809"/>
	</g>
	<g>
		<g>
			<path fill="#A8210D" d="M1469.713,402.635l-12.23-0.453c5.769-153.098,80.997-301.166,201.25-396.1l7.573,9.603
				C1548.834,108.421,1475.339,253.074,1469.713,402.635z"/>
		</g>
		<circle fill="#D92D15" cx="1463.275" cy="426.855" r="88.664"/>
		<path fill="#BD2711" d="M1485.176,341.03c15.437,15.955,24.979,37.651,24.979,61.605c0,48.968-39.696,88.665-88.664,88.665
			c-7.573,0-14.884-1.052-21.9-2.838c16.12,16.66,38.672,27.059,63.685,27.059c48.968,0,88.665-39.698,88.665-88.664
			C1551.94,385.46,1523.532,350.795,1485.176,341.03z"/>
	</g>
</g>
<g>
	<g>
		<path fill="#A6C72F" d="M624.941,792.135c41.077,27.868,69.776,88.745,69.776,143.526c0,54.782-28.699,88.038-69.776,101.597
			c-41.078-13.56-69.775-46.815-69.775-101.597C555.165,880.88,583.863,820.003,624.941,792.135z"/>
		<path fill="#97B52A" d="M555.165,935.66c0-54.781,28.699-115.658,69.776-143.527v245.125
			C583.865,1023.698,555.165,990.442,555.165,935.66z"/>
	</g>
	<g>
		<circle fill="#ADDB50" cx="258.711" cy="980.849" r="158.86"/>
		<circle fill="#FFEEC5" cx="258.712" cy="980.849" r="141.276"/>
		<g>
			<path fill="#FFDD80" d="M275.043,847.858c24.811,3.013,47.513,12.794,66.233,27.461c5.675,4.447,5.958,12.965,0.704,17.902
				l-52.571,49.396c-12.634,11.87-24.831,6.817-25.149-3.408c-0.764-24.534-1.873-60.148-2.466-79.17
				C261.569,852.799,267.852,846.986,275.043,847.858z"/>
			<path fill="#FFDD80" d="M233.154,947.447l-57.683-54.198c-5.255-4.937-4.999-13.483,0.676-17.93
				c18.718-14.667,41.42-24.448,66.232-27.461c7.191-0.873,13.475,4.941,13.248,12.181c-0.593,19.022-1.702,54.635-2.466,79.17
				C252.844,949.435,240.611,954.453,233.154,947.447z"/>
			<path fill="#FFDD80" d="M125.721,964.517c3.013-24.811,12.793-47.515,27.46-66.233c4.447-5.675,12.965-5.959,17.903-0.704
				l49.395,52.572c11.87,12.634,6.819,24.83-3.408,25.148c-24.534,0.765-60.148,1.874-79.17,2.466
				C130.662,977.991,124.848,971.708,125.721,964.517z"/>
			<path fill="#FFDD80" d="M292.112,955.293l54.2-57.684c4.936-5.255,13.483-5,17.93,0.675
				c14.666,18.718,24.447,41.421,27.461,66.233c0.873,7.191-4.941,13.474-12.181,13.249c-19.023-0.593-54.635-1.702-79.171-2.466
				C290.124,974.981,285.107,962.748,292.112,955.293z"/>
			<path fill="#FFDD80" d="M253.164,1022.538l2.463,79.08c0.225,7.24-6.058,13.093-13.248,12.22
				c-24.811-3.013-47.514-12.794-66.232-27.461c-5.675-4.447-5.93-12.992-0.676-17.93l57.683-54.198
				C240.611,1007.244,252.846,1012.312,253.164,1022.538z"/>
			<path fill="#FFDD80" d="M300.4,986.396l79.081-2.463c7.241-0.226,13.094,6.057,12.221,13.248
				c-3.014,24.812-12.795,47.514-27.461,66.232c-4.447,5.675-12.966,5.959-17.902,0.704l-49.396-52.572
				C285.072,998.912,290.174,986.714,300.4,986.396z"/>
			<path fill="#FFDD80" d="M225.31,1006.404l-54.198,57.684c-4.938,5.255-13.483,5-17.93-0.676
				c-14.667-18.718-24.447-41.42-27.46-66.232c-0.874-7.191,4.941-13.475,12.181-13.249c19.022,0.592,54.636,1.702,79.17,2.466
				C227.298,986.717,232.316,998.948,225.31,1006.404z"/>
			<path fill="#FFDD80" d="M284.267,1014.249l57.684,54.199c5.254,4.938,4.999,13.483-0.675,17.93
				c-18.719,14.667-41.422,24.447-66.233,27.461c-7.191,0.873-13.474-4.941-13.249-12.181c0.593-19.023,1.702-54.636,2.466-79.17
				C264.578,1012.262,276.811,1007.244,284.267,1014.249z"/>
		</g>
	</g>
	<path fill="#CAF9FF" d="M356.245,1855.511h257.213c26.785,0,47.063-24.56,41.558-50.772
		c-57.887-275.662,156.917-551.322,61.017-826.983H253.67c-95.9,275.661,118.903,551.321,61.017,826.983
		C309.182,1830.951,329.459,1855.511,356.245,1855.511z"/>
	<path fill="#FFFFFF" d="M633.192,1066.062l8.721-29.898c5.244-17.977-5.078-36.802-23.056-42.045l-29.898-8.721
		c-17.977-5.244-36.802,5.078-42.045,23.056l-8.721,29.898c-5.244,17.977,5.079,36.802,23.055,42.045l29.898,8.721
		C609.124,1094.361,627.948,1084.04,633.192,1066.062z"/>
	<path fill="#FFFFFF" d="M498.043,1050.282l-8.698-29.905c-5.23-17.981-24.046-28.318-42.027-23.088l-29.905,8.698
		c-17.981,5.23-28.318,24.046-23.088,42.027l8.698,29.905c5.23,17.981,24.046,28.318,42.027,23.088l29.905-8.698
		C492.936,1087.079,503.272,1068.263,498.043,1050.282z"/>
	<path fill="#B00B2E" d="M280.162,1013.824H689.54c35.835,128.665,3.066,258.537-31.519,395.543
		c-23.822,94.395-48.159,190.829-49.11,288.625c-0.651,66.981-53.906,121.449-120.89,121.449h-6.336
		c-66.986,0-120.24-54.469-120.892-121.451c-0.952-97.797-25.287-194.235-49.111-288.623
		C277.098,1272.353,244.328,1142.489,280.162,1013.824z"/>
	<path opacity="0.1" d="M253.67,977.755h134.574c-95.9,275.661,118.903,551.322,61.017,826.983
		c-5.505,26.213,14.771,50.773,41.557,50.773H356.245c-26.786,0-47.063-24.56-41.558-50.773
		C372.574,1529.077,157.77,1253.416,253.67,977.755z"/>
	<path opacity="0.1" fill="#FFFFFF" d="M679.84,1259.266l11.098-38.049c6.674-22.878-6.463-46.833-29.34-53.507l-38.049-11.098
		c-22.878-6.673-46.833,6.463-53.507,29.341l-11.098,38.048c-6.673,22.878,6.463,46.834,29.341,53.507l38.048,11.099
		C649.21,1295.28,673.167,1282.144,679.84,1259.266z"/>
	<path opacity="0.1" fill="#FFFFFF" d="M599.717,1496.04l8.721-29.898c5.244-17.977-5.079-36.802-23.056-42.045l-29.898-8.721
		c-17.977-5.244-36.801,5.078-42.045,23.056l-8.721,29.898c-5.244,17.977,5.079,36.802,23.056,42.045l29.898,8.721
		C575.649,1524.339,594.473,1514.017,599.717,1496.04z"/>
	<path opacity="0.1" fill="#FFFFFF" d="M515.962,1662.246l8.722-29.898c5.244-17.977-5.079-36.802-23.056-42.045l-29.898-8.721
		c-17.977-5.244-36.801,5.078-42.045,23.056l-8.721,29.898c-5.244,17.977,5.079,36.802,23.055,42.045l29.898,8.721
		C491.894,1690.546,510.718,1680.223,515.962,1662.246z"/>
	<path opacity="0.1" fill="#FFFFFF" d="M464.298,1103.851l-12.849-19.686c-7.725-11.837-23.584-15.169-35.421-7.444l-19.686,12.849
		c-11.837,7.726-15.169,23.584-7.444,35.422l12.849,19.686c7.725,11.837,23.584,15.17,35.421,7.444l19.686-12.848
		C468.691,1131.546,472.024,1115.687,464.298,1103.851z"/>
	<circle fill="#9B0927" cx="548.687" cy="1086.828" r="12.399"/>
	<circle fill="#9B0927" cx="544.179" cy="1259.944" r="12.4"/>
	<circle fill="#9B0927" cx="452.595" cy="1168.913" r="12.676"/>
	<circle fill="#9B0927" cx="469.998" cy="1064.001" r="14.853"/>
	<circle fill="#9B0927" cx="640.539" cy="1111.218" r="23.129"/>
	<circle fill="#9B0927" cx="548.687" cy="1387.324" r="20.29"/>
	<circle fill="#9B0927" cx="441.322" cy="1306.162" r="11.273"/>
	<circle fill="#9B0927" cx="606.138" cy="1306.162" r="11.273"/>
	<circle fill="#9B0927" cx="538.542" cy="1591.357" r="10.145"/>
	<circle fill="#9B0927" cx="475.061" cy="1500.822" r="9.791"/>
	<circle fill="#9B0927" cx="521.915" cy="1710.564" r="9.864"/>
	<g opacity="0.4">
		<path fill="#A6C72F" d="M392.524,1338.676c30.1-1.66,66.372,17.182,86.536,43.642c20.166,26.461,18.545,53.089,3.694,74.759
			c-24.832,8.571-50.936,3.071-71.101-23.389C391.488,1407.228,382.941,1367.258,392.524,1338.676z"/>
		<path fill="#97B52A" d="M411.653,1433.688c-20.166-26.461-28.712-66.431-19.13-95.013l90.231,118.402
			C457.923,1465.649,431.818,1460.149,411.653,1433.688z"/>
	</g>
	<g opacity="0.4">
		<path fill="#A6C72F" d="M457.164,1543.423c15.912,20.498,20.332,55.402,11.47,82.634c-8.861,27.232-28.506,39.122-51.119,39.217
			c-18.227-13.384-27.113-34.557-18.252-61.79S432.237,1550.633,457.164,1543.423z"/>
		<path fill="#97B52A" d="M399.263,1603.485c8.861-27.232,32.974-52.852,57.901-60.062l-39.649,121.852
			C399.29,1651.89,390.402,1630.717,399.263,1603.485z"/>
	</g>
	<g opacity="0.4">
		<path fill="#A6C72F" d="M507.546,1161.684c15.912,20.498,20.331,55.402,11.47,82.634c-8.861,27.232-28.506,39.121-51.119,39.218
			c-18.227-13.385-27.113-34.558-18.252-61.79S482.619,1168.893,507.546,1161.684z"/>
		<path fill="#97B52A" d="M449.646,1221.745c8.861-27.232,32.974-52.852,57.901-60.062l-39.649,121.852
			C449.672,1270.151,440.785,1248.978,449.646,1221.745z"/>
	</g>
	<path opacity="0.2" fill="#B00B2E" d="M377.736,1225.234c33.141,8.14,49.855,45.321,78.702,63.554
		c39.593,25.025,93.817,8.421,128.997-22.502c35.18-30.922,57.64-73.432,86.406-110.396c9.733-12.506,20.797-24.595,32.955-35.169
		c2.22,93.977-21.73,189.438-46.773,288.646c-23.824,94.395-48.16,190.829-49.111,288.625
		c-0.651,66.982-53.905,121.45-120.89,121.45h-6.336c-66.986,0-120.24-54.469-120.892-121.451
		c-0.952-97.797-25.287-194.235-49.111-288.623c-12.52-49.606-24.756-98.264-33.631-146.277
		C311.519,1245.393,342.112,1216.484,377.736,1225.234z"/>
	<path opacity="0.2" fill="#B00B2E" d="M311.681,1409.367c-3.68-14.581-7.3-29.057-10.852-43.483
		c22.797,3.43,43.967,17.811,54.554,38.387c6.693,13.007,9.306,27.719,14.98,41.202c5.674,13.484,15.815,26.584,30.173,29.39
		c20.563,4.02,38.337-14.053,50.518-31.101c12.18-17.049,26.319-36.73,47.23-38.032c34.208-2.13,49.198,43.496,78.673,60.986
		c19.813,11.756,45.757,9.386,66.111-1.407c0.41-0.218,0.788-0.482,1.193-0.704c-18.63,76.676-34.583,154.588-35.349,233.386
		c-0.651,66.982-53.905,121.45-120.89,121.45h-6.336c-66.986,0-120.24-54.469-120.892-121.451
		C359.84,1600.193,335.505,1503.755,311.681,1409.367z"/>
</g>
<g>
	<g>
		<path fill="#53C1AD" d="M1173.808,1850.5c0,0-9.94-255.084,253.006-352.856C1426.814,1497.643,1371.908,1772.793,1173.808,1850.5z
			"/>
		<path fill="#29A58E" d="M1173.808,1850.5c192.443-75.488,249.753-337.299,252.865-352.183
			c-109.816,61-229.406,302.83-252.87,351.988C1173.808,1850.43,1173.808,1850.5,1173.808,1850.5z"/>
	</g>
	<path fill="#A9DCD7" d="M1189.622,1785.308c0,0,0.753-4.473,2.545-12.013c1.822-7.52,4.508-18.239,8.509-30.533
		c1.978-6.16,4.247-12.746,6.782-19.599c2.535-6.858,5.326-14.001,8.499-21.135c3.148-7.159,6.551-14.418,10.211-21.602
		c3.664-7.178,7.52-14.342,11.636-21.235c4.127-6.883,8.529-13.459,12.962-19.805c2.284-3.092,4.548-6.165,6.782-9.197
		c2.33-2.912,4.634-5.788,6.898-8.62c2.37-2.696,4.649-5.406,6.963-7.952c2.38-2.444,4.709-4.834,6.978-7.158
		c4.664-4.468,9.102-8.635,13.409-12.139c4.166-3.735,8.388-6.481,11.952-9.187c3.74-2.415,6.948-4.598,9.664-6.245
		c5.532-3.088,8.695-4.85,8.695-4.85s-3.002,2.078-8.248,5.713c-2.595,1.857-5.653,4.297-9.207,6.993
		c-1.707,1.466-3.524,3.022-5.442,4.664c-0.964,0.813-1.952,1.646-2.962,2.5c-0.974,0.903-1.978,1.832-2.997,2.776
		c-4.147,3.7-8.399,8.063-12.857,12.726c-2.169,2.42-4.393,4.91-6.667,7.455c-2.169,2.686-4.463,5.321-6.757,8.057
		c-2.209,2.846-4.458,5.733-6.737,8.659c-2.179,3.047-4.388,6.13-6.611,9.232c-4.333,6.36-8.61,12.967-12.636,19.845
		c-4.147,6.747-8.048,13.775-11.747,20.824c-3.705,7.048-7.159,14.182-10.352,21.22c-3.162,7.068-6.205,13.921-8.915,20.573
		c-2.726,6.641-5.176,13.037-7.324,19.026c-4.303,11.983-7.676,22.159-9.785,29.468
		C1190.696,1781.036,1189.622,1785.308,1189.622,1785.308z"/>
	<path opacity="0.4" fill="#FDBA23" d="M1388.304,1615.1c0.844-1.968,1.682-3.925,2.495-5.869c0.236-0.557,0.457-1.104,0.688-1.661
		c0.718-1.717,1.431-3.434,2.119-5.131c0.271-0.667,0.533-1.325,0.803-1.988c0.632-1.571,1.265-3.142,1.877-4.694
		c0.286-0.723,0.557-1.431,0.839-2.148c0.577-1.476,1.155-2.947,1.712-4.403c0.286-0.748,0.562-1.481,0.844-2.229
		c0.537-1.4,1.069-2.806,1.581-4.187c0.286-0.758,0.557-1.501,0.833-2.254c0.497-1.345,0.994-2.686,1.471-4.011
		c0.277-0.753,0.537-1.496,0.803-2.239c0.467-1.305,0.934-2.606,1.385-3.881c0.256-0.738,0.507-1.461,0.763-2.189
		c0.437-1.26,0.874-2.515,1.295-3.745c0.251-0.728,0.487-1.441,0.733-2.159c0.407-1.21,0.813-2.415,1.21-3.594
		c0.241-0.723,0.472-1.426,0.703-2.134c0.381-1.155,0.758-2.299,1.119-3.429c0.231-0.698,0.452-1.385,0.673-2.078
		c0.352-1.109,0.703-2.209,1.044-3.288c0.211-0.673,0.417-1.336,0.623-1.998c0.336-1.064,0.663-2.124,0.979-3.162
		c0.201-0.643,0.392-1.275,0.582-1.908c0.312-1.019,0.613-2.033,0.909-3.022c0.186-0.617,0.367-1.22,0.542-1.822
		c0.286-0.969,0.567-1.928,0.838-2.872c0.171-0.588,0.341-1.17,0.507-1.747c0.261-0.914,0.517-1.807,0.763-2.686
		c0.161-0.562,0.316-1.12,0.472-1.672c0.246-0.868,0.482-1.717,0.708-2.555c0.146-0.517,0.281-1.019,0.417-1.521
		c0.226-0.823,0.442-1.627,0.652-2.415c0.131-0.477,0.256-0.949,0.376-1.411c0.206-0.773,0.402-1.521,0.593-2.259
		c0.115-0.436,0.231-0.868,0.341-1.295c0.18-0.708,0.356-1.391,0.527-2.058c0.101-0.407,0.206-0.813,0.306-1.21
		c0.161-0.643,0.311-1.25,0.462-1.852c0.091-0.372,0.186-0.743,0.271-1.104c0.146-0.598,0.281-1.155,0.416-1.712
		c0.076-0.306,0.151-0.617,0.221-0.914c0.125-0.522,0.241-1.014,0.352-1.496c0.07-0.286,0.14-0.583,0.2-0.859
		c0.111-0.462,0.206-0.888,0.301-1.305c0.05-0.221,0.105-0.447,0.151-0.648c0.096-0.427,0.181-0.803,0.261-1.17
		c0.035-0.161,0.075-0.332,0.11-0.482c0.075-0.351,0.14-0.647,0.2-0.934c0.03-0.13,0.061-0.266,0.085-0.381
		c0.05-0.246,0.091-0.437,0.131-0.623c0.025-0.11,0.05-0.231,0.07-0.321c0.005-0.02,0.01-0.045,0.01-0.06l0,0
		c0.09-0.422,0.14-0.673,0.14-0.673c-114.971,42.752-177.744,115.574-212.016,183.999c7.45,4.799,15.096,9.162,22.947,12.917
		c36.025,17.219,71.085,20.497,101.894,12.078c0.632-0.964,1.265-1.928,1.888-2.892c0.919-1.431,1.822-2.862,2.726-4.287
		c0.647-1.029,1.3-2.063,1.943-3.093c0.899-1.446,1.777-2.892,2.661-4.342c0.617-1.019,1.245-2.043,1.857-3.062
		c0.884-1.471,1.747-2.942,2.605-4.413c0.588-0.994,1.18-1.993,1.757-2.987c0.873-1.516,1.732-3.027,2.586-4.538
		c0.542-0.948,1.089-1.902,1.616-2.856c0.884-1.577,1.747-3.148,2.605-4.724c0.487-0.884,0.979-1.767,1.456-2.651
		c0.894-1.652,1.767-3.303,2.636-4.955c0.427-0.803,0.859-1.606,1.281-2.404c0.908-1.747,1.797-3.484,2.686-5.221
		c0.361-0.703,0.728-1.411,1.085-2.113c0.989-1.953,1.953-3.896,2.912-5.834c0.236-0.477,0.476-0.959,0.712-1.436
		c4.779-9.754,9.177-19.352,13.214-28.69C1388.013,1615.787,1388.153,1615.446,1388.304,1615.1z"/>
	<path opacity="0.4" fill="#FDBA23" d="M1388.304,1615.1c0.844-1.968,1.682-3.925,2.495-5.869c0.236-0.557,0.457-1.104,0.688-1.661
		c0.718-1.717,1.431-3.434,2.119-5.131c0.271-0.667,0.533-1.325,0.803-1.988c0.632-1.571,1.265-3.142,1.877-4.694
		c0.286-0.723,0.557-1.431,0.839-2.148c0.577-1.476,1.155-2.947,1.712-4.403c0.286-0.748,0.562-1.481,0.844-2.229
		c0.537-1.4,1.069-2.806,1.581-4.187c0.286-0.758,0.557-1.501,0.833-2.254c0.497-1.345,0.994-2.686,1.471-4.011
		c0.277-0.753,0.537-1.496,0.803-2.239c0.467-1.305,0.934-2.606,1.385-3.881c0.256-0.738,0.507-1.461,0.763-2.189
		c0.437-1.26,0.874-2.515,1.295-3.745c0.251-0.728,0.487-1.441,0.733-2.159c0.407-1.21,0.813-2.415,1.21-3.594
		c0.241-0.723,0.472-1.426,0.703-2.134c0.381-1.155,0.758-2.299,1.119-3.429c0.231-0.698,0.452-1.385,0.673-2.078
		c0.352-1.109,0.703-2.209,1.044-3.288c0.211-0.673,0.417-1.336,0.623-1.998c0.336-1.064,0.663-2.124,0.979-3.162
		c0.201-0.643,0.392-1.275,0.582-1.908c0.312-1.019,0.613-2.033,0.909-3.022c0.186-0.617,0.367-1.22,0.542-1.822
		c0.286-0.969,0.567-1.928,0.838-2.872c0.171-0.588,0.341-1.17,0.507-1.747c0.261-0.914,0.517-1.807,0.763-2.686
		c0.161-0.562,0.316-1.12,0.472-1.672c0.246-0.868,0.482-1.717,0.708-2.555c0.146-0.517,0.281-1.019,0.417-1.521
		c0.226-0.823,0.442-1.627,0.652-2.415c0.131-0.477,0.256-0.949,0.376-1.411c0.206-0.773,0.402-1.521,0.593-2.259
		c0.115-0.436,0.231-0.868,0.341-1.295c0.18-0.708,0.356-1.391,0.527-2.058c0.101-0.407,0.206-0.813,0.306-1.21
		c0.161-0.643,0.311-1.25,0.462-1.852c0.091-0.372,0.186-0.743,0.271-1.104c0.146-0.598,0.281-1.155,0.416-1.712
		c0.076-0.306,0.151-0.617,0.221-0.914c0.125-0.522,0.241-1.014,0.352-1.496c0.07-0.286,0.14-0.583,0.2-0.859
		c0.111-0.462,0.206-0.888,0.301-1.305c0.05-0.221,0.105-0.447,0.151-0.648c0.096-0.427,0.181-0.803,0.261-1.17
		c0.035-0.161,0.075-0.332,0.11-0.482c0.075-0.351,0.14-0.647,0.2-0.934c0.03-0.13,0.061-0.266,0.085-0.381
		c0.05-0.246,0.091-0.437,0.131-0.623c0.025-0.11,0.05-0.231,0.07-0.321c0.005-0.02,0.01-0.045,0.01-0.06l0,0
		c0.09-0.422,0.14-0.673,0.14-0.673c-142.472,52.978-204.812,152.126-232.046,231.871c7.234,4.508,14.633,8.635,22.209,12.259
		c28.474,13.61,56.401,19.262,82.446,17.957c0.743-0.844,1.491-1.687,2.229-2.54c0.909-1.049,1.818-2.098,2.716-3.158
		c1.069-1.255,2.128-2.515,3.177-3.785c0.884-1.06,1.757-2.119,2.626-3.183c1.044-1.28,2.073-2.56,3.097-3.845
		c0.853-1.069,1.702-2.144,2.545-3.218c1.014-1.3,2.018-2.605,3.017-3.911c0.824-1.074,1.642-2.144,2.45-3.223
		c0.989-1.325,1.973-2.651,2.947-3.981c0.793-1.074,1.582-2.149,2.359-3.233c0.969-1.34,1.928-2.686,2.877-4.036
		c0.758-1.074,1.516-2.144,2.264-3.218c0.949-1.37,1.888-2.746,2.822-4.127c0.723-1.059,1.446-2.119,2.159-3.183
		c0.934-1.401,1.852-2.801,2.771-4.202c0.683-1.049,1.376-2.093,2.049-3.142c0.919-1.431,1.822-2.862,2.726-4.287
		c0.647-1.029,1.3-2.063,1.943-3.093c0.899-1.446,1.777-2.892,2.661-4.342c0.617-1.019,1.245-2.043,1.857-3.062
		c0.884-1.471,1.747-2.942,2.605-4.413c0.588-0.994,1.18-1.993,1.757-2.987c0.873-1.516,1.732-3.027,2.586-4.538
		c0.542-0.948,1.089-1.902,1.616-2.856c0.884-1.577,1.747-3.148,2.605-4.724c0.487-0.884,0.979-1.767,1.456-2.651
		c0.894-1.652,1.767-3.303,2.636-4.955c0.427-0.803,0.859-1.606,1.281-2.404c0.908-1.747,1.797-3.484,2.686-5.221
		c0.361-0.703,0.728-1.411,1.085-2.113c0.989-1.953,1.953-3.896,2.912-5.834c0.236-0.477,0.476-0.959,0.712-1.436
		c4.779-9.754,9.177-19.352,13.214-28.69C1388.013,1615.787,1388.153,1615.446,1388.304,1615.1z"/>
</g>
<g>
	<g>
		<path fill="#53C1AD" d="M1160.881,1843.499c0,0,114.019-227.175,390.301-185.954
			C1551.182,1657.545,1370.971,1871.035,1160.881,1843.499z"/>
		<path fill="#29A58E" d="M1160.881,1843.499c204.089,26.75,379.984-173.948,389.86-185.431
			c-125.089,0.363-345.671,153.682-389.775,185.26C1160.908,1843.441,1160.881,1843.499,1160.881,1843.499z"/>
	</g>
	<path fill="#A9DCD7" d="M1206.021,1794.272c0,0,2.807-3.542,7.999-9.258c5.203-5.676,12.697-13.731,22.101-22.522
		c4.693-4.421,9.838-9.072,15.345-13.829s11.377-9.641,17.571-14.338c6.188-4.73,12.648-9.419,19.298-13.918
		c6.644-4.501,13.457-8.889,20.357-12.921c6.907-4.018,13.909-7.63,20.825-11.028c3.477-1.601,6.933-3.191,10.339-4.761
		c3.431-1.416,6.825-2.814,10.164-4.195c3.36-1.215,6.651-2.478,9.887-3.583c3.256-0.989,6.435-1.95,9.532-2.89
		c6.213-1.65,12.089-3.143,17.531-4.13c5.431-1.253,10.431-1.614,14.843-2.262c4.413-0.306,8.259-0.665,11.425-0.794
		c6.306-0.028,9.909-0.046,9.909-0.046s-3.611,0.369-9.937,1.007c-3.156,0.377-6.996,1.031-11.387,1.674
		c-2.194,0.454-4.526,0.937-6.99,1.448c-1.228,0.245-2.489,0.496-3.783,0.754c-1.286,0.322-2.603,0.645-3.95,0.982
		c-5.392,1.23-11.202,2.985-17.328,4.909c-3.059,1.071-6.194,2.169-9.399,3.291c-3.183,1.302-6.455,2.492-9.766,3.779
		c-3.296,1.414-6.649,2.851-10.04,4.312c-3.369,1.602-6.775,3.228-10.205,4.864c-6.836,3.469-13.745,7.163-20.563,11.224
		c-6.864,3.893-13.638,8.141-20.258,12.505c-6.62,4.363-13.06,8.925-19.23,13.52c-6.153,4.65-12.104,9.159-17.67,13.65
		c-5.57,4.484-10.778,8.881-15.536,13.071c-9.513,8.375-17.347,15.626-22.699,20.981
		C1209.017,1791.06,1206.021,1794.272,1206.021,1794.272z"/>
	<path opacity="0.4" fill="#FDBA23" d="M1461.114,1741.431c1.682-1.306,3.351-2.61,4.997-3.917c0.473-0.371,0.933-0.739,1.4-1.112
		c1.452-1.155,2.898-2.312,4.317-3.46c0.556-0.451,1.097-0.895,1.653-1.346c1.31-1.065,2.614-2.131,3.896-3.187
		c0.595-0.492,1.17-0.98,1.765-1.472c1.211-1.008,2.422-2.016,3.61-3.013c0.608-0.513,1.203-1.023,1.806-1.537
		c1.141-0.966,2.281-1.931,3.394-2.888c0.614-0.529,1.206-1.047,1.811-1.566c1.082-0.937,2.156-1.871,3.206-2.789
		c0.607-0.525,1.188-1.047,1.781-1.57c1.036-0.911,2.065-1.818,3.073-2.72c0.579-0.516,1.143-1.026,1.715-1.538
		c0.99-0.885,1.974-1.771,2.935-2.641c0.567-0.515,1.118-1.023,1.675-1.528c0.938-0.86,1.875-1.714,2.787-2.552
		c0.554-0.513,1.092-1.019,1.637-1.524c0.888-0.822,1.77-1.641,2.627-2.444c0.534-0.508,1.061-1,1.584-1.494
		c0.842-0.796,1.678-1.588,2.496-2.368c0.506-0.481,1.004-0.959,1.502-1.436c0.804-0.773,1.599-1.537,2.377-2.288
		c0.481-0.465,0.949-0.923,1.423-1.385c0.762-0.739,1.51-1.476,2.247-2.199c0.456-0.444,0.899-0.886,1.348-1.326
		c0.715-0.713,1.419-1.411,2.115-2.1c0.433-0.433,0.858-0.857,1.282-1.281c0.664-0.67,1.316-1.325,1.954-1.973
		c0.415-0.416,0.815-0.824,1.216-1.232c0.628-0.639,1.246-1.264,1.85-1.888c0.365-0.378,0.731-0.756,1.092-1.123
		c0.596-0.614,1.165-1.207,1.733-1.795c0.338-0.351,0.675-0.702,1.004-1.044c0.551-0.575,1.083-1.132,1.601-1.683
		c0.312-0.329,0.621-0.654,0.922-0.969c0.499-0.532,0.978-1.041,1.447-1.541c0.286-0.309,0.57-0.611,0.852-0.909
		c0.443-0.478,0.869-0.939,1.292-1.395c0.256-0.276,0.52-0.555,0.769-0.828c0.416-0.452,0.802-0.871,1.183-1.292
		c0.217-0.235,0.427-0.466,0.635-0.692c0.361-0.398,0.698-0.767,1.029-1.133c0.193-0.219,0.401-0.445,0.583-0.65
		c0.322-0.357,0.605-0.677,0.895-0.997c0.151-0.167,0.303-0.339,0.444-0.497c0.285-0.321,0.539-0.61,0.784-0.89
		c0.111-0.126,0.225-0.256,0.328-0.374c0.239-0.263,0.436-0.493,0.63-0.712c0.083-0.099,0.176-0.206,0.256-0.294
		c0.164-0.187,0.288-0.332,0.413-0.477c0.072-0.085,0.154-0.178,0.216-0.248c0.011-0.014,0.029-0.032,0.041-0.046l0,0
		c0.281-0.329,0.441-0.522,0.441-0.522c-120.802-18.02-210.555,15.273-273.351,58.448c4.19,7.768,8.757,15.248,13.798,22.302
		c23.124,32.34,52.118,52.059,83.029,59.538c1.013-0.534,2.027-1.074,3.037-1.616c1.486-0.801,2.962-1.611,4.435-2.428
		c1.061-0.585,2.128-1.167,3.185-1.759c1.477-0.828,2.94-1.668,4.402-2.508c1.032-0.588,2.072-1.181,3.098-1.771
		c1.476-0.859,2.93-1.727,4.391-2.597c0.988-0.586,1.987-1.167,2.967-1.762c1.489-0.897,2.962-1.801,4.437-2.71
		c0.928-0.57,1.867-1.137,2.789-1.709c1.527-0.951,3.031-1.91,4.542-2.868c0.844-0.539,1.703-1.073,2.542-1.614
		c1.571-1.009,3.128-2.029,4.685-3.049c0.755-0.497,1.522-0.99,2.27-1.484c1.634-1.084,3.245-2.171,4.851-3.26
		c0.656-0.44,1.317-0.878,1.968-1.32c1.801-1.228,3.573-2.459,5.339-3.692c0.435-0.299,0.877-0.601,1.315-0.904
		c8.858-6.206,17.305-12.459,25.32-18.664C1460.53,1741.89,1460.818,1741.662,1461.114,1741.431z"/>
	<path opacity="0.4" fill="#FDBA23" d="M1461.114,1741.431c1.682-1.306,3.351-2.61,4.997-3.917c0.473-0.371,0.933-0.739,1.4-1.112
		c1.452-1.155,2.898-2.312,4.317-3.46c0.556-0.451,1.097-0.895,1.653-1.346c1.31-1.065,2.614-2.131,3.896-3.187
		c0.595-0.492,1.17-0.98,1.765-1.472c1.211-1.008,2.422-2.016,3.61-3.013c0.608-0.513,1.203-1.023,1.806-1.537
		c1.141-0.966,2.281-1.931,3.394-2.888c0.614-0.529,1.206-1.047,1.811-1.566c1.082-0.937,2.156-1.871,3.206-2.789
		c0.607-0.525,1.188-1.047,1.781-1.57c1.036-0.911,2.065-1.818,3.073-2.72c0.579-0.516,1.143-1.026,1.715-1.538
		c0.99-0.885,1.974-1.771,2.935-2.641c0.567-0.515,1.118-1.023,1.675-1.528c0.938-0.86,1.875-1.714,2.787-2.552
		c0.554-0.513,1.092-1.019,1.637-1.524c0.888-0.822,1.77-1.641,2.627-2.444c0.534-0.508,1.061-1,1.584-1.494
		c0.842-0.796,1.678-1.588,2.496-2.368c0.506-0.481,1.004-0.959,1.502-1.436c0.804-0.773,1.599-1.537,2.377-2.288
		c0.481-0.465,0.949-0.923,1.423-1.385c0.762-0.739,1.51-1.476,2.247-2.199c0.456-0.444,0.899-0.886,1.348-1.326
		c0.715-0.713,1.419-1.411,2.115-2.1c0.433-0.433,0.858-0.857,1.282-1.281c0.664-0.67,1.316-1.325,1.954-1.973
		c0.415-0.416,0.815-0.824,1.216-1.232c0.628-0.639,1.246-1.264,1.85-1.888c0.365-0.378,0.731-0.756,1.092-1.123
		c0.596-0.614,1.165-1.207,1.733-1.795c0.338-0.351,0.675-0.702,1.004-1.044c0.551-0.575,1.083-1.132,1.601-1.683
		c0.312-0.329,0.621-0.654,0.922-0.969c0.499-0.532,0.978-1.041,1.447-1.541c0.286-0.309,0.57-0.611,0.852-0.909
		c0.443-0.478,0.869-0.939,1.292-1.395c0.256-0.276,0.52-0.555,0.769-0.828c0.416-0.452,0.802-0.871,1.183-1.292
		c0.217-0.235,0.427-0.466,0.635-0.692c0.361-0.398,0.698-0.767,1.029-1.133c0.193-0.219,0.401-0.445,0.583-0.65
		c0.322-0.357,0.605-0.677,0.895-0.997c0.151-0.167,0.303-0.339,0.444-0.497c0.285-0.321,0.539-0.61,0.784-0.89
		c0.111-0.126,0.225-0.256,0.328-0.374c0.239-0.263,0.436-0.493,0.63-0.712c0.083-0.099,0.176-0.206,0.256-0.294
		c0.164-0.187,0.288-0.332,0.413-0.477c0.072-0.085,0.154-0.178,0.216-0.248c0.011-0.014,0.029-0.032,0.041-0.046l0,0
		c0.281-0.329,0.441-0.522,0.441-0.522c-149.698-22.333-251.739,34.128-313.836,90.552c4.139,7.414,8.6,14.569,13.461,21.371
		c18.284,25.564,39.91,43.924,63.252,55.309c1.054-0.374,2.109-0.752,3.162-1.138c1.297-0.477,2.592-0.96,3.888-1.45
		c1.536-0.581,3.064-1.172,4.593-1.769c1.274-0.497,2.547-1.006,3.82-1.516c1.522-0.611,3.036-1.231,4.545-1.859
		c1.26-0.526,2.514-1.049,3.765-1.584c1.516-0.644,3.017-1.299,4.52-1.96c1.228-0.537,2.458-1.081,3.677-1.628
		c1.504-0.679,2.998-1.366,4.493-2.055c1.204-0.558,2.409-1.116,3.61-1.682c1.487-0.703,2.968-1.42,4.448-2.138
		c1.172-0.569,2.349-1.137,3.518-1.714c1.49-0.745,2.969-1.493,4.449-2.241c1.137-0.576,2.282-1.155,3.41-1.74
		c1.487-0.77,2.965-1.55,4.438-2.331c1.102-0.582,2.206-1.163,3.3-1.755c1.486-0.801,2.962-1.611,4.435-2.428
		c1.061-0.585,2.128-1.167,3.185-1.759c1.477-0.828,2.94-1.668,4.402-2.508c1.032-0.588,2.072-1.181,3.098-1.771
		c1.476-0.859,2.93-1.727,4.391-2.597c0.988-0.586,1.987-1.167,2.967-1.762c1.489-0.897,2.962-1.801,4.437-2.71
		c0.928-0.57,1.867-1.137,2.789-1.709c1.527-0.951,3.031-1.91,4.542-2.868c0.844-0.539,1.703-1.073,2.542-1.614
		c1.571-1.009,3.128-2.029,4.685-3.049c0.755-0.497,1.522-0.99,2.27-1.484c1.634-1.084,3.245-2.171,4.851-3.26
		c0.656-0.44,1.317-0.878,1.968-1.32c1.801-1.228,3.573-2.459,5.339-3.692c0.435-0.299,0.877-0.601,1.315-0.904
		c8.858-6.206,17.305-12.459,25.32-18.664C1460.53,1741.89,1460.818,1741.662,1461.114,1741.431z"/>
</g>
<g>
	<path fill="#CAF9FF" d="M1243.92,1770.059v-342.173c0-46.747,19.63-91.344,54.103-122.916l320.619-293.64H828.493l320.62,293.64
		c34.473,31.572,54.103,76.169,54.103,122.916v342.173c-82.575,6.073-146.581,47.246-146.581,66.002
		c0,20.273,74.739,36.709,166.932,36.709c92.194,0,166.932-16.435,166.932-36.709
		C1390.5,1817.304,1326.494,1776.132,1243.92,1770.059z"/>
	<g>
		<path fill="#FFF6E2" d="M1597.3,897.085c0,0-18.295,23.449-47.774,56.585c-14.663,16.647-32.103,35.731-51.122,55.848
			c-9.582,9.985-19.26,20.528-29.501,30.831c-10.184,10.361-20.531,20.887-30.877,31.413
			c-10.523,10.349-21.047,20.698-31.406,30.885c-10.275,10.269-20.841,19.924-30.82,29.511
			c-20.106,19.03-39.197,36.466-55.847,51.124c-33.139,29.476-56.604,47.754-56.604,47.754s18.279-23.465,47.754-56.604
			c14.658-16.651,32.093-35.741,51.123-55.847c9.588-9.979,19.242-20.545,29.512-30.821c10.187-10.358,20.535-20.882,30.885-31.406
			c10.525-10.346,21.051-20.692,31.412-30.876c10.305-10.242,20.847-19.92,30.831-29.502c20.117-19.018,39.202-36.459,55.849-51.121
			C1573.85,915.38,1597.3,897.085,1597.3,897.085z"/>
		
			<ellipse transform="matrix(0.7071 0.7071 -0.7071 0.7071 1196.2208 -639.6902)" fill="#758D00" cx="1370.277" cy="1124.107" rx="48.25" ry="63.399"/>
		<path fill="#627900" d="M1425.128,1097.252c-3.402,11.135-9.944,22.246-19.485,31.788c-24.759,24.758-60.105,29.554-78.948,10.711
			c-4.994-4.994-8.279-11.167-10.02-17.975c-5.426,17.762-2.811,35.579,8.771,47.161c18.842,18.843,54.189,14.046,78.948-10.712
			C1422.592,1140.028,1429.956,1116.131,1425.128,1097.252z"/>
		
			<ellipse transform="matrix(0.7071 0.7071 -0.7071 0.7071 1151.5304 -747.5834)" fill="#758D00" cx="1478.169" cy="1016.215" rx="48.25" ry="63.4"/>
		<path fill="#627900" d="M1533.021,989.361c-3.402,11.134-9.944,22.246-19.485,31.787c-24.76,24.758-60.106,29.554-78.948,10.711
			c-4.995-4.993-8.281-11.167-10.021-17.975c-5.426,17.762-2.811,35.579,8.771,47.161c18.843,18.843,54.189,14.046,78.949-10.712
			C1530.484,1032.136,1537.849,1008.239,1533.021,989.361z"/>
	</g>
	<path fill="#FFFFFF" d="M1120.827,1167.278l-28.969,5.704c-17.417,3.429-34.319-7.911-37.749-25.329l-5.703-28.968
		c-3.43-17.418,7.91-34.32,25.328-37.749l28.968-5.704c17.418-3.43,34.32,7.91,37.75,25.328l5.703,28.969
		C1149.585,1146.948,1138.245,1163.848,1120.827,1167.278z"/>
	<path fill="#FFFFFF" d="M1291.928,1155.755l-28.969,5.704c-17.418,3.43-34.319-7.91-37.749-25.328l-5.704-28.969
		c-3.43-17.418,7.91-34.319,25.328-37.749l28.969-5.704c17.418-3.43,34.319,7.911,37.749,25.328l5.704,28.969
		C1320.686,1135.424,1309.345,1152.325,1291.928,1155.755z"/>
	<path fill="#FFE087" d="M971.323,1112.584l181.637,166.354c39.957,36.594,101.253,36.594,141.21,0l181.637-166.354H971.323z"/>
	<path opacity="0.7" fill="#FFFFFF" d="M1519.773,1041.603c0.674-0.894,1.28-1.796,1.911-2.706c1.571-2.272,2.994-4.575,4.277-6.924
		c0.506-0.922,1.044-1.824,1.503-2.754c1.529-3.095,2.862-6.218,3.888-9.361c0.248-0.754,0.374-1.5,0.593-2.255
		c0.606-2.101,1.053-4.189,1.434-6.274h-107.802c-0.306,0.879-0.719,1.751-0.985,2.631c-0.008-0.026-0.018-0.05-0.025-0.077
		c-0.874,2.862-1.461,5.714-1.913,8.553c-0.143,0.9-0.263,1.784-0.362,2.678c-0.335,2.964-0.495,5.896-0.354,8.756
		c0.027,0.526,0.124,1.023,0.167,1.544c0.213,2.616,0.648,5.152,1.275,7.62c0.15,0.589,0.262,1.186,0.437,1.765
		c0.772,2.581,1.792,5.046,3.046,7.39c-1.42,1.396-2.819,2.772-4.239,4.168c-5.453,5.544-10.843,11.026-16.272,16.547
		c-19.724-10.657-48.86-4.247-70.192,17.085c-6.902,6.902-12.153,14.635-15.847,22.595h105.948c0.082-1.387,0.186-2.777,0.167-4.145
		c-0.014-1.109,0.035-2.223-0.05-3.313c-0.211-2.694-0.601-5.336-1.25-7.874c-0.013,0.041-0.034,0.082-0.047,0.124
		c-0.832-3.288-2.019-6.415-3.601-9.343c5.519-5.428,11.001-10.82,16.546-16.272c1.411-1.435,2.8-2.848,4.211-4.284
		c19.723,10.555,48.767,4.139,70.05-17.144C1515.066,1047.553,1517.504,1044.609,1519.773,1041.603z"/>
	<path opacity="0.4" fill="#FFFFFF" d="M1189.852,1238.097l-28.968,5.703c-17.418,3.43-34.32-7.91-37.749-25.328l-5.703-28.968
		c-3.43-17.418,7.91-34.32,25.328-37.75l28.969-5.703c17.417-3.43,34.319,7.91,37.749,25.328l5.703,28.969
		C1218.61,1217.766,1207.27,1234.667,1189.852,1238.097z"/>
	<path opacity="0.4" fill="#FFFFFF" d="M1325.332,1228.151l-22.764,4.482c-13.687,2.695-26.968-6.216-29.662-19.903l-4.483-22.764
		c-2.694-13.687,6.216-26.968,19.903-29.662l22.764-4.483c13.687-2.695,26.968,6.216,29.663,19.903l4.482,22.764
		C1347.93,1212.175,1339.019,1225.456,1325.332,1228.151z"/>
	<path fill="#FFE087" d="M1398.512,1183.376c-14.575-0.735-28.692-5.354-39.429-15.093c-8.26-7.493-14.512-17.771-24.787-22.106
		c-16.898-7.126-35.532,5.024-48.51,17.981c-12.978,12.956-26.454,28.461-44.751,29.705c-26.472,1.8-45.484-27.008-71.551-31.96
		c-21.639-4.109-42.36,8.915-63.639,14.602c-22.89,6.117-47.078,3.408-69.615-4.477l116.731,106.909
		c39.958,36.594,101.254,36.594,141.211,0L1398.512,1183.376z"/>
	<path fill="#FFE087" d="M1300.335,1221.402c-9.073,6.844-15.799,16.299-24.137,24.02c-8.337,7.722-19.487,13.911-30.651,11.787
		c-19.831-3.773-30.576-31.422-50.73-30.284c-7.965,0.45-14.763,5.556-21.823,9.27c-19.345,10.175-42.274,9.818-63.353,3.07
		l43.319,39.673c39.958,36.594,101.254,36.594,141.211,0l79.007-72.359C1347.558,1206.684,1320.514,1206.181,1300.335,1221.402z"/>
	<g>
		<circle fill="#F5CE7D" cx="1351.518" cy="1148.913" r="14.532"/>
		<circle fill="#F5CE7D" cx="1244.599" cy="1259.599" r="13.483"/>
		<circle fill="#F5CE7D" cx="1078.53" cy="1163.444" r="9.839"/>
		<circle fill="#F5CE7D" cx="1264.383" cy="1187.509" r="5.032"/>
		<circle fill="#F5CE7D" cx="1178.441" cy="1215.816" r="7.108"/>
		<circle fill="#F5CE7D" cx="1227.496" cy="1148.912" r="6.035"/>
	</g>
</g>
</svg>
